<svg version="1.2" baseProfile="tiny-ps" xmlns="http://www.w3.org/2000/svg" viewBox="0 0 72 102" width="72" height="102">
	<title>-e-Club1</title>
	<defs>
		<filter x="-50%" y="-50%" width="200%" height="200%" id="flt1"> <feGaussianBlur stdDeviation="0.85" /> </filter>
		<linearGradient id="grd1" gradientUnits="userSpaceOnUse"  x1="40.852" y1="26.385" x2="42.997" y2="-89.997">
			<stop offset="0" stop-color="#f3f3f3"  />
			<stop offset="1" stop-color="#8f8f8f"  />
		</linearGradient>
		<radialGradient id="grd2" gradientUnits="userSpaceOnUse"  cx="10.15" cy="91.687" r="13.273">
			<stop offset="0" stop-color="#ffffff"  />
			<stop offset="1" stop-color="#ffffff" stop-opacity="0" />
		</radialGradient>
		<radialGradient id="grd3" gradientUnits="userSpaceOnUse"  cx="61.727" cy="12.545" r="14.287">
			<stop offset="0" stop-color="#ffffff"  />
			<stop offset="1" stop-color="#ffffff" stop-opacity="0" />
		</radialGradient>
		<linearGradient id="grd4" gradientUnits="userSpaceOnUse"  x1="-59.652" y1="90.668" x2="-59.652" y2="87.192">
			<stop offset="0" stop-color="#000000"  />
			<stop offset="1" stop-color="#555753"  />
		</linearGradient>
		<linearGradient id="grd5" gradientUnits="userSpaceOnUse"  x1="-8.652" y1="11.668" x2="-8.652" y2="8.192">
			<stop offset="0" stop-color="#000000"  />
			<stop offset="1" stop-color="#555753"  />
		</linearGradient>
		<radialGradient id="grd6" gradientUnits="userSpaceOnUse"  cx="10.834" cy="85.059" r="95.807">
			<stop offset="0" stop-color="#000000"  />
			<stop offset="1" stop-color="#808080" stop-opacity="0" />
		</radialGradient>
		<linearGradient id="grd7" gradientUnits="userSpaceOnUse"  x1="-337.88" y1="79.338" x2="-337.88" y2="60.114">
			<stop offset="0" stop-color="#000000"  />
			<stop offset="1" stop-color="#6f6f6f"  />
		</linearGradient>
		<radialGradient id="grd8" gradientUnits="userSpaceOnUse"  cx="45.355" cy="71.14" r="25.348">
			<stop offset="0" stop-color="#ffffff"  />
			<stop offset="1" stop-color="#ffffff" stop-opacity="0" />
		</radialGradient>
		<radialGradient id="grd9" gradientUnits="userSpaceOnUse"  cx="22.22" cy="50.633" r="15.912">
			<stop offset="0" stop-color="#ffffff"  />
			<stop offset="1" stop-color="#ffffff" stop-opacity="0" />
		</radialGradient>
		<linearGradient id="grd10" gradientUnits="userSpaceOnUse"  x1="-218.355" y1="55.623" x2="-218.355" y2="43.921">
			<stop offset="0" stop-color="#000000"  />
			<stop offset="1" stop-color="#6f6f6f"  />
		</linearGradient>
		<linearGradient id="grd11" gradientUnits="userSpaceOnUse"  x1="-204.294" y1="30.287" x2="-204.294" y2="10.39">
			<stop offset="0" stop-color="#000000"  />
			<stop offset="1" stop-color="#555753"  />
		</linearGradient>
	</defs>
	<style>
		tspan { white-space:pre }
		.shp0 { filter: url(#flt1);fill: #000000 } 
		.shp1 { fill: url(#grd1);stroke: #000000;stroke-width: 0.226 } 
		.shp2 { opacity: 0.31;fill: url(#grd2) } 
		.shp3 { opacity: 0.318;fill: url(#grd3) } 
		.shp4 { fill: none;stroke: #000000;stroke-width: 0.226 } 
		.shp5 { fill: url(#grd4);stroke: #1d1d1d;stroke-linejoin:round;stroke-width: 0.166 } 
		.shp6 { fill: url(#grd5);stroke: #1d1d1d;stroke-linejoin:round;stroke-width: 0.166 } 
		.shp7 { fill: url(#grd6) } 
		.shp8 { fill: url(#grd7);stroke: #0f0f0f;stroke-linejoin:round;stroke-width: 0.56 } 
		.shp9 { opacity: 0.4;fill: url(#grd8) } 
		.shp10 { opacity: 0.4;fill: url(#grd9) } 
		.shp11 { fill: url(#grd10);stroke: #0f0f0f;stroke-linejoin:round;stroke-width: 0.56 } 
		.shp12 { fill: url(#grd11) } 
	</style>
	<g >
		<g >
			<path fill-rule="evenodd" class="shp0" d="M4.42 1.56L67.5 1.56C67.96 1.56 68.42 1.66 68.85 1.83C69.28 2.01 69.67 2.27 70 2.6C70.32 2.93 70.58 3.32 70.76 3.75C70.94 4.18 71.03 4.64 71.03 5.1L71.03 97.21C71.03 97.68 70.94 98.14 70.76 98.57C70.58 99 70.32 99.39 70 99.71C69.67 100.04 69.28 100.3 68.85 100.48C68.42 100.66 67.96 100.75 67.5 100.75L4.42 100.75C3.95 100.75 3.49 100.66 3.06 100.48C2.63 100.3 2.24 100.04 1.92 99.71C1.59 99.39 1.33 99 1.15 98.57C0.97 98.14 0.88 97.68 0.88 97.21L0.88 5.1C0.88 4.64 0.97 4.18 1.15 3.75C1.33 3.32 1.59 2.93 1.92 2.6C2.24 2.27 2.63 2.01 3.06 1.83C3.49 1.66 3.95 1.56 4.42 1.56" />
			<path fill-rule="evenodd" class="shp1" d="M5.34 0.99L67.38 0.99C67.91 0.99 68.44 1.09 68.93 1.3C69.43 1.5 69.87 1.8 70.25 2.17C70.62 2.55 70.92 3 71.13 3.49C71.33 3.98 71.44 4.51 71.44 5.04L71.44 96.12C71.44 96.65 71.33 97.18 71.13 97.67C70.92 98.16 70.62 98.61 70.25 98.99C69.87 99.36 69.43 99.66 68.93 99.86C68.44 100.07 67.91 100.17 67.38 100.17L5.34 100.17C4.81 100.17 4.28 100.07 3.79 99.86C3.29 99.66 2.85 99.36 2.47 98.99C2.09 98.61 1.8 98.16 1.59 97.67C1.39 97.18 1.28 96.65 1.28 96.12L1.28 5.04C1.28 4.51 1.39 3.98 1.59 3.49C1.8 3 2.09 2.55 2.47 2.17C2.85 1.8 3.29 1.5 3.79 1.3C4.28 1.09 4.81 0.99 5.34 0.99" />
			<path class="shp2" d="M31.53 96.75L4.98 96.75L4.98 72.47L31.53 72.47L31.53 96.75Z" />
			<path class="shp3" d="M40.2 4.41L66.7 4.41C66.84 4.41 66.97 4.43 67.1 4.49C67.22 4.54 67.34 4.61 67.43 4.71C67.53 4.81 67.6 4.92 67.66 5.05C67.71 5.17 67.74 5.31 67.74 5.44L67.74 48.65C67.74 48.78 67.71 48.92 67.66 49.04C67.6 49.17 67.53 49.28 67.43 49.38C67.34 49.47 67.22 49.55 67.1 49.6C66.97 49.65 66.84 49.68 66.7 49.68L40.2 49.68C40.06 49.68 39.93 49.65 39.8 49.6C39.67 49.55 39.56 49.47 39.46 49.38C39.37 49.28 39.29 49.17 39.24 49.04C39.19 48.92 39.16 48.78 39.16 48.65L39.16 5.44C39.16 5.31 39.19 5.17 39.24 5.05C39.29 4.92 39.37 4.81 39.46 4.71C39.56 4.61 39.67 4.54 39.8 4.49C39.93 4.43 40.06 4.41 40.2 4.41" />
			<path class="shp4" d="M19.71 92.68L64.43 92.68L64.43 19.08" />
			<path class="shp4" d="M52.85 8.47L8.3 8.47L8.3 81.66" />
		</g>
		<g >
			<path class="shp5" d="M11.79 85.76C11.12 85.76 10.58 86.42 10.58 87.22C10.58 87.55 10.68 87.88 10.84 88.16C10.57 87.97 10.23 87.86 9.89 87.86C9.15 87.86 8.54 88.44 8.54 89.17C8.54 89.89 9.15 90.48 9.89 90.48C10.56 90.48 11.25 89.97 11.37 89.33C11.47 89.66 11.52 90.02 11.52 90.39C11.52 91.26 11.24 92.04 10.8 92.61L12.86 92.61C12.39 92.04 12.09 91.23 12.09 90.34C12.09 89.98 12.14 89.64 12.23 89.32C12.3 89.99 13.02 90.48 13.72 90.48C14.46 90.48 15.07 89.89 15.07 89.17C15.07 88.44 14.46 87.86 13.72 87.86C13.37 87.86 13.02 87.99 12.74 88.21C12.91 87.93 13.01 87.57 13.01 87.22C13.01 86.42 12.46 85.76 11.79 85.76L11.79 85.76Z" />
			<path class="shp6" d="M62.79 6.76C62.12 6.76 61.58 7.42 61.58 8.22C61.58 8.55 61.68 8.88 61.84 9.16C61.57 8.97 61.23 8.86 60.89 8.86C60.15 8.86 59.54 9.44 59.54 10.17C59.54 10.89 60.15 11.48 60.89 11.48C61.56 11.48 62.25 10.97 62.37 10.33C62.47 10.66 62.52 11.02 62.52 11.39C62.52 12.26 62.24 13.04 61.8 13.61L63.86 13.61C63.39 13.04 63.09 12.23 63.09 11.34C63.09 10.98 63.14 10.64 63.23 10.32C63.3 10.99 64.02 11.48 64.72 11.48C65.46 11.48 66.07 10.89 66.07 10.17C66.07 9.44 65.46 8.86 64.72 8.86C64.37 8.86 64.02 8.99 63.74 9.21C63.91 8.93 64.01 8.57 64.01 8.22C64.01 7.42 63.46 6.76 62.79 6.76L62.79 6.76Z" />
		</g>
		<path fill-rule="evenodd" class="shp7" d="M17.49 89.53C17.49 89.53 17.49 89.53 17.49 89.53C17.49 89.53 17.49 89.53 17.49 89.53L17.49 89.53ZM17.49 89.53C15.18 83.76 13.62 83.93 11.62 83.35L14.59 83.35C14.61 83.25 14.63 83.16 14.65 83.06C14.71 82.81 14.78 82.56 14.86 82.32C14.86 81.99 14.85 81.65 14.86 81.33C14.87 80.61 14.97 79.9 15.06 79.19C15.08 79.01 15.1 78.83 15.13 78.65C15.03 78.57 15.06 78.03 15.32 76.96C15.37 76.75 15.41 76.53 15.45 76.31C15.54 75.81 15.65 75.32 15.75 74.82C15.88 74.23 16.07 73.66 16.26 73.08C16.49 72.4 16.78 71.73 17.07 71.07C17.42 70.25 17.78 69.44 18.14 68.63C18.62 67.53 19.17 66.47 19.71 65.4C20.4 64.09 21.01 62.74 21.59 61.38C22.29 59.73 22.98 58.07 23.67 56.41C24.42 54.64 25.13 52.86 25.8 51.06C25.84 50.94 25.89 50.83 25.93 50.71C25.91 50.68 25.91 50.63 25.91 50.59C25.91 50.47 25.97 50.36 26.07 50.3C26.67 48.62 27.21 46.93 27.73 45.23C28.38 43.08 28.94 40.9 29.38 38.7C29.83 36.14 29.93 33.55 29.91 30.96C29.84 28.85 29.63 26.74 29.38 24.64C29.27 24.74 29.14 24.79 28.99 24.79C28.66 24.79 28.38 24.53 28.38 24.19C28.38 23.86 28.66 23.58 28.99 23.58C29.09 23.58 29.18 23.61 29.26 23.65L29.19 23.09C29.1 22.35 29 21.61 28.89 20.87C28.83 20.97 28.72 21.05 28.59 21.05C28.41 21.05 28.26 20.9 28.26 20.71C28.26 20.53 28.41 20.38 28.59 20.38C28.68 20.38 28.77 20.41 28.83 20.47C28.72 19.77 28.62 19.07 28.51 18.38C28.34 17.31 28.37 16.66 28.49 16.5C28.39 16.39 28.32 16.24 28.32 16.08C28.32 15.75 28.59 15.48 28.93 15.48C29.26 15.48 29.53 15.75 29.53 16.08C29.53 16.42 29.26 16.69 28.93 16.69C28.86 16.69 28.8 16.68 28.73 16.66C28.85 16.89 28.98 17.35 29.09 18.05C29.33 19.61 29.57 21.18 29.77 22.76C30.09 25.37 30.39 27.99 30.47 30.63C30.5 33.21 30.4 35.81 29.96 38.37C29.52 40.57 28.96 42.74 28.31 44.89C27.75 46.73 27.16 48.58 26.51 50.39C26.55 50.45 26.57 50.52 26.57 50.59C26.57 50.75 26.46 50.88 26.32 50.92C25.66 52.65 24.98 54.37 24.25 56.07C23.56 57.73 22.88 59.39 22.19 61.04C21.61 62.4 21 63.74 20.31 65.05C19.78 66.12 19.23 67.19 18.74 68.28C18.39 69.09 18.03 69.9 17.68 70.71C17.39 71.38 17.11 72.04 16.87 72.73C16.69 73.3 16.49 73.88 16.37 74.47C16.35 74.54 16.34 74.61 16.33 74.68C16.51 74.25 16.71 73.83 16.91 73.41C17.06 73.1 17.23 72.8 17.39 72.49L17.4 72.47C17.48 72.23 17.61 72 17.72 71.77C17.89 71.42 18.1 71.09 18.3 70.76C18.49 70.44 18.7 70.14 18.91 69.84C19.49 68.84 20.15 67.89 20.82 66.96C21.35 66.23 21.96 65.58 22.58 64.94C22.6 64.8 22.72 64.68 22.86 64.66L23.38 64.15C24.38 63.2 25.42 62.29 26.42 61.35C27.61 60.23 28.76 59.09 29.9 57.93C31.21 56.62 32.41 55.22 33.52 53.74C34.77 52.03 35.81 50.18 36.82 48.33C37.15 47.73 37.46 47.12 37.76 46.5L37.64 46.51C37.3 46.51 37.03 46.24 37.03 45.9C37.03 45.57 37.3 45.3 37.64 45.3C37.86 45.3 38.05 45.42 38.16 45.61C38.65 44.5 39.08 43.37 39.47 42.21L39.54 41.98C39.5 41.71 39.48 41.31 39.49 40.76C39.52 39.83 39.54 38.89 39.52 37.95C39.46 36.27 39.35 34.58 39.13 32.91C38.94 31.77 38.77 30.63 38.43 29.52C38.27 28.96 38.12 28.38 37.86 27.85C37.77 27.71 37.73 27.54 37.59 27.42C35.67 25.73 36.31 25.35 38.22 27.06C38.35 27.17 38.4 27.36 38.48 27.5C38.73 28.03 38.88 28.6 39.05 29.16C39.38 30.28 39.55 31.42 39.73 32.56C39.95 34.24 40.05 35.92 40.1 37.6C40.12 38.31 40.11 39.03 40.1 39.74C40.42 38.25 40.65 36.74 40.84 35.23C40.89 34.56 40.92 33.89 40.94 33.22C40.87 33.25 40.8 33.26 40.72 33.26C40.39 33.26 40.12 32.99 40.12 32.65C40.12 32.32 40.39 32.05 40.72 32.05C40.81 32.05 40.89 32.07 40.96 32.1C40.96 31.07 40.94 30.03 40.91 28.99C40.66 28.92 40.48 28.7 40.48 28.43C40.48 28.17 40.65 27.95 40.87 27.86C40.87 27.75 40.86 27.64 40.86 27.54C40.84 27.12 40.83 26.7 40.82 26.28C40.73 23.94 41.3 23.61 41.39 25.95C41.4 26.37 41.42 26.79 41.43 27.2C41.44 27.45 41.45 27.7 41.45 27.95C41.6 28.06 41.69 28.23 41.69 28.43C41.69 28.61 41.61 28.77 41.49 28.88C41.55 30.89 41.57 32.89 41.41 34.9C41.12 37.25 40.74 39.61 40.05 41.88C39.34 43.99 38.48 46.05 37.39 48C36.39 49.85 35.35 51.69 34.11 53.4C33 54.88 31.8 56.28 30.49 57.59C29.35 58.75 28.2 59.89 27.02 61C26.01 61.94 24.98 62.86 23.98 63.8C23.67 64.1 23.37 64.4 23.07 64.7C23.15 64.75 23.2 64.82 23.23 64.91C23.99 64.14 24.79 63.4 25.59 62.67L28.4 60.19C29.39 59.3 30.39 58.43 31.39 57.55C32.51 56.57 33.6 55.56 34.68 54.54C35.9 53.38 37.09 52.19 38.26 50.99C39.52 49.74 40.69 48.41 41.84 47.06C42.72 46.02 43.55 44.94 44.37 43.85C44.36 43.81 44.35 43.77 44.35 43.73C44.35 43.41 44.59 43.16 44.9 43.13L45.5 42.29C46.59 40.81 47.57 39.25 48.49 37.66C48.45 37.67 48.41 37.68 48.37 37.68C48.19 37.68 48.04 37.53 48.04 37.35C48.04 37.17 48.19 37.01 48.37 37.01C48.54 37.01 48.67 37.13 48.7 37.28C48.79 37.13 48.88 36.98 48.96 36.83C50.04 34.83 51.07 32.78 51.75 30.6C52.27 28.7 52.57 26.75 52.88 24.81C53.25 22.47 53.83 22.13 53.46 24.47C53.15 26.41 52.85 28.36 52.33 30.27C51.65 32.44 50.63 34.49 49.55 36.5C48.49 38.38 47.36 40.21 46.09 41.95C45.8 42.36 45.5 42.77 45.2 43.18C45.41 43.27 45.56 43.48 45.56 43.73C45.56 44.06 45.29 44.33 44.96 44.33C44.77 44.33 44.6 44.25 44.49 44.12C43.82 45 43.14 45.87 42.43 46.72C41.28 48.08 40.1 49.4 38.85 50.66C38.28 51.24 37.71 51.81 37.13 52.38C37.31 52.22 37.61 51.94 38.07 51.55C39.17 50.61 40.28 49.69 41.44 48.81C42.52 47.99 43.63 47.21 44.85 46.6C44.95 46.41 45.15 46.27 45.38 46.27C45.44 46.27 45.49 46.27 45.54 46.29C45.72 46.21 45.91 46.17 46.11 46.15C48.53 45.99 48.07 46.32 45.84 46.48C45.93 46.59 45.99 46.72 45.99 46.87C45.99 47.21 45.72 47.48 45.38 47.48C45.05 47.48 44.78 47.21 44.78 46.87C44.78 46.81 44.79 46.75 44.81 46.7L44.31 46.92C43.9 47.07 42.86 47.85 42.04 48.47C40.88 49.35 39.76 50.27 38.65 51.21C37.51 52.19 36.86 52.69 36.97 52.54C36.41 53.1 35.85 53.65 35.27 54.19C34.2 55.22 33.11 56.23 31.99 57.2C30.99 58.08 29.99 58.95 29 59.84C28.07 60.67 27.14 61.5 26.2 62.33C25.34 63.11 24.47 63.89 23.66 64.73C22.94 65.47 22.22 66.2 21.54 66.99C21.02 67.6 20.5 68.22 20 68.85L19.49 69.55C19.46 69.6 19.43 69.65 19.4 69.7C18.95 70.47 18.5 71.24 18.07 72.02L18.03 72.11C17.98 72.24 17.94 72.37 17.89 72.49C17.53 73.26 17.23 73.8 17.02 74.11C16.7 74.83 16.4 75.55 16.19 76.31C15.97 77.14 15.76 77.98 15.67 78.84C15.59 79.44 15.51 80.05 15.48 80.66L15.63 80.36C15.95 79.75 16.33 79.17 16.72 78.6C17.03 78.12 17.37 77.67 17.73 77.24C17.66 77.14 17.61 77.01 17.61 76.88C17.61 76.54 17.89 76.27 18.22 76.27C18.33 76.27 18.44 76.3 18.52 76.36C19.11 75.75 19.73 75.2 20.35 74.64C21.16 73.89 22.01 73.21 22.88 72.53C23.91 71.73 25.01 71.02 26.1 70.3C27.36 69.49 28.63 68.71 29.91 67.95L30.21 67.78C29.96 67.71 29.77 67.48 29.77 67.2C29.77 66.87 30.05 66.59 30.38 66.59C30.72 66.59 30.98 66.87 30.98 67.2C30.98 67.53 30.72 67.8 30.38 67.8C30.33 67.8 30.28 67.8 30.23 67.79C29.18 68.42 28.13 69.06 27.1 69.73C26.01 70.44 24.92 71.15 23.89 71.95C23.03 72.62 22.17 73.31 21.36 74.05C20.63 74.71 19.89 75.36 19.22 76.09L18.77 76.63C18.81 76.71 18.83 76.79 18.83 76.88C18.83 77.21 18.55 77.48 18.22 77.48C18.18 77.48 18.15 77.48 18.11 77.47C17.99 77.65 17.86 77.83 17.74 78.01C17.36 78.58 16.97 79.15 16.65 79.76C16.43 80.24 16.19 80.7 16.05 81.21C15.98 81.43 15.91 81.66 15.84 81.89C15.93 81.95 15.98 82.05 15.98 82.17C15.98 82.34 15.85 82.49 15.68 82.5C15.63 82.8 15.54 83.1 15.55 83.4C15.56 83.58 15.56 83.75 15.59 83.93C15.61 84.03 15.61 84.13 15.65 84.23C15.92 85.44 18.02 88.63 17.49 89.53ZM17.74 84.53C17.74 84.34 17.89 84.2 18.07 84.2C18.26 84.2 18.4 84.34 18.4 84.53C18.4 84.71 18.26 84.86 18.07 84.86C17.89 84.86 17.74 84.71 17.74 84.53ZM12.84 82.56C12.84 82.23 13.11 81.95 13.44 81.95C13.78 81.95 14.05 82.23 14.05 82.56C14.05 82.9 13.78 83.17 13.44 83.17C13.11 83.17 12.84 82.9 12.84 82.56ZM16.11 81.83C16.11 81.5 16.37 81.23 16.71 81.23C17.04 81.23 17.32 81.5 17.32 81.83C17.32 82.17 17.04 82.44 16.71 82.44C16.37 82.44 16.11 82.17 16.11 81.83ZM12.11 80.41C12.11 80.23 12.26 80.08 12.44 80.08C12.63 80.08 12.78 80.23 12.78 80.41C12.78 80.6 12.63 80.75 12.44 80.75C12.26 80.75 12.11 80.6 12.11 80.41ZM13.63 79.87C13.63 79.69 13.77 79.54 13.96 79.54C14.14 79.54 14.29 79.69 14.29 79.87C14.29 80.05 14.14 80.2 13.96 80.2C13.77 80.2 13.63 80.05 13.63 79.87ZM19.07 78.87C19.07 78.54 19.34 78.27 19.67 78.27C20 78.27 20.28 78.54 20.28 78.87C20.28 79.21 20 79.48 19.67 79.48C19.34 79.48 19.07 79.21 19.07 78.87ZM20.76 78.12C20.76 77.93 20.91 77.78 21.09 77.78C21.27 77.78 21.42 77.93 21.42 78.12C21.42 78.3 21.27 78.45 21.09 78.45C20.91 78.45 20.76 78.3 20.76 78.12ZM12.17 77.18C12.17 76.85 12.44 76.57 12.78 76.57C13.11 76.57 13.38 76.85 13.38 77.18C13.38 77.52 13.11 77.78 12.78 77.78C12.44 77.78 12.17 77.52 12.17 77.18ZM13.56 75.42C13.56 75.09 13.84 74.82 14.17 74.82C14.5 74.82 14.77 75.09 14.77 75.42C14.77 75.76 14.5 76.03 14.17 76.03C13.84 76.03 13.56 75.76 13.56 75.42ZM21.67 75.46C21.67 75.27 21.82 75.13 22 75.13C22.19 75.13 22.34 75.27 22.34 75.46C22.34 75.64 22.19 75.79 22 75.79C21.82 75.79 21.67 75.64 21.67 75.46ZM25.78 74.64C25.78 74.3 26.05 74.04 26.39 74.04C26.72 74.04 26.99 74.3 26.99 74.64C26.99 74.97 26.72 75.25 26.39 75.25C26.05 75.25 25.78 74.97 25.78 74.64ZM19.31 73.92C19.31 73.58 19.58 73.31 19.92 73.31C20.25 73.31 20.52 73.58 20.52 73.92C20.52 74.25 20.25 74.52 19.92 74.52C19.58 74.52 19.31 74.25 19.31 73.92ZM22.29 74.37C22.26 74.36 22.64 74.07 23.5 73.44C23.98 73.09 24.44 72.72 24.94 72.41C26.06 71.74 27.18 71.08 28.37 70.54C29.21 70.16 30.07 69.78 30.93 69.45C31.54 69.2 32.14 68.96 32.75 68.73L33.53 68.43C35.92 67.52 35.3 67.88 32.91 68.79L32.13 69.08C31.53 69.31 30.92 69.56 30.32 69.8C29.78 70.01 29.25 70.24 28.72 70.47C29.04 70.49 29.29 70.75 29.29 71.07C29.29 71.4 29.02 71.68 28.68 71.68C28.35 71.68 28.08 71.4 28.08 71.07C28.08 70.92 28.14 70.79 28.23 70.69L27.76 70.89C27.09 71.15 25.76 71.94 25.55 72.06C25.05 72.37 24.59 72.74 24.11 73.09C23 73.91 22.31 74.37 22.29 74.37L22.29 74.37ZM13.26 73.12C13.26 72.79 13.53 72.52 13.87 72.52C14.2 72.52 14.47 72.79 14.47 73.12C14.47 73.46 14.2 73.73 13.87 73.73C13.53 73.73 13.26 73.46 13.26 73.12ZM26.75 72.74C26.75 72.55 26.9 72.4 27.08 72.4C27.26 72.4 27.41 72.55 27.41 72.74C27.41 72.92 27.26 73.07 27.08 73.07C26.9 73.07 26.75 72.92 26.75 72.74ZM15.5 71.61C15.5 71.28 15.77 71.01 16.11 71.01C16.44 71.01 16.71 71.28 16.71 71.61C16.71 71.95 16.44 72.22 16.11 72.22C15.77 72.22 15.5 71.95 15.5 71.61ZM18.77 71.43C18.77 71.1 19.04 70.83 19.37 70.83C19.71 70.83 19.97 71.1 19.97 71.43C19.97 71.77 19.71 72.04 19.37 72.04C19.04 72.04 18.77 71.77 18.77 71.43ZM10.84 71.22C10.84 71.04 10.99 70.89 11.17 70.89C11.36 70.89 11.5 71.04 11.5 71.22C11.5 71.41 11.36 71.55 11.17 71.55C10.99 71.55 10.84 71.41 10.84 71.22ZM31.95 70.07C31.95 69.89 32.1 69.74 32.28 69.74C32.47 69.74 32.62 69.89 32.62 70.07C32.62 70.25 32.47 70.4 32.28 70.4C32.1 70.4 31.95 70.25 31.95 70.07ZM24.45 69.74C24.45 69.4 24.72 69.14 25.06 69.14C25.39 69.14 25.66 69.4 25.66 69.74C25.66 70.07 25.39 70.35 25.06 70.35C24.72 70.35 24.45 70.07 24.45 69.74ZM35.73 69.8C35.55 69.8 35.4 69.65 35.4 69.47C35.4 69.41 35.42 69.34 35.45 69.29C35.4 69.31 35.34 69.31 35.28 69.31C34.95 69.31 34.67 69.05 34.67 68.71C34.67 68.38 34.95 68.1 35.28 68.1C35.61 68.1 35.88 68.38 35.88 68.71C35.88 68.88 35.81 69.03 35.71 69.14L35.73 69.14C35.92 69.14 36.07 69.29 36.07 69.47C36.07 69.65 35.92 69.8 35.73 69.8L35.73 69.8ZM37.21 67.8C37.21 67.47 37.49 67.2 37.82 67.2C38.15 67.2 38.43 67.47 38.43 67.8C38.43 68.13 38.15 68.41 37.82 68.41C37.49 68.41 37.21 68.13 37.21 67.8ZM16.59 67.8C16.59 67.47 16.86 67.2 17.2 67.2C17.53 67.2 17.8 67.47 17.8 67.8C17.8 68.13 17.53 68.41 17.2 68.41C16.86 68.41 16.59 68.13 16.59 67.8ZM21.37 67.74C21.37 67.41 21.63 67.14 21.97 67.14C22.3 67.14 22.58 67.41 22.58 67.74C22.58 68.08 22.3 68.35 21.97 68.35C21.63 68.35 21.37 68.08 21.37 67.74ZM39.03 67.96C39.03 67.77 39.18 67.62 39.36 67.62C39.54 67.62 39.69 67.77 39.69 67.96C39.69 68.14 39.54 68.29 39.36 68.29C39.18 68.29 39.03 68.14 39.03 67.96ZM26.03 67.53C26.03 67.35 26.17 67.2 26.36 67.2C26.54 67.2 26.69 67.35 26.69 67.53C26.69 67.72 26.54 67.86 26.36 67.86C26.17 67.86 26.03 67.72 26.03 67.53ZM20.82 67.47C20.82 67.47 20.82 67.47 20.82 67.47C20.82 67.47 20.82 67.47 20.82 67.47L20.82 67.47ZM20.82 67.47C20.86 67.43 20.89 67.38 20.93 67.34C21.53 66.64 22.18 65.97 22.83 65.31C22.75 65.29 22.67 65.24 22.63 65.16C22.2 65.62 21.79 66.1 21.42 66.61C21.22 66.9 21.02 67.18 20.82 67.47ZM32.33 66.56C32.33 66.55 32.34 66.55 32.34 66.55C32.34 66.55 32.33 66.55 32.33 66.56L32.33 66.56ZM32.34 66.55C33.32 65.99 34.29 65.44 35.27 64.89C35.39 64.82 35.59 64.71 35.75 64.63C35.51 64.54 35.34 64.32 35.34 64.05C35.34 63.72 35.61 63.45 35.95 63.45C36.28 63.45 36.55 63.72 36.55 64.05C36.55 64.1 36.54 64.14 36.53 64.19L38.6 63.02C37.91 63.42 37.22 63.82 36.53 64.21C36.46 64.47 36.22 64.65 35.95 64.65C35.89 64.65 35.83 64.65 35.78 64.63C35.28 64.91 34.78 65.18 34.28 65.45C33.58 65.84 32.92 66.22 32.34 66.55ZM39.76 66.14C39.76 65.96 39.91 65.81 40.09 65.81C40.27 65.81 40.42 65.96 40.42 66.14C40.42 66.32 40.27 66.47 40.09 66.47C39.9 66.47 39.76 66.32 39.76 66.14ZM16.95 65.57C16.61 65.57 16.35 65.29 16.35 64.96C16.35 64.62 16.61 64.36 16.95 64.36C17.06 64.36 17.16 64.38 17.25 64.44C17.26 64.26 17.4 64.11 17.58 64.11C17.77 64.11 17.92 64.27 17.92 64.45C17.92 64.63 17.77 64.78 17.58 64.78C17.56 64.78 17.54 64.78 17.52 64.77C17.54 64.83 17.56 64.89 17.56 64.96C17.56 65.29 17.28 65.57 16.95 65.57L16.95 65.57ZM14.65 65.17C14.65 64.99 14.8 64.84 14.98 64.84C15.17 64.84 15.32 64.99 15.32 65.17C15.32 65.35 15.17 65.5 14.98 65.5C14.8 65.5 14.65 65.35 14.65 65.17ZM18.58 62.6C18.58 62.27 18.86 62 19.19 62C19.52 62 19.79 62.27 19.79 62.6C19.79 62.94 19.52 63.21 19.19 63.21C18.86 63.21 18.58 62.94 18.58 62.6ZM44.42 62.75C44.42 62.57 44.56 62.42 44.75 62.42C44.93 62.42 45.08 62.57 45.08 62.75C45.08 62.94 44.93 63.08 44.75 63.08C44.56 63.08 44.42 62.94 44.42 62.75ZM38.84 62.88L38.87 62.87C38.86 62.87 38.85 62.88 38.84 62.88L38.84 62.88ZM38.87 62.87C40.35 62 41.75 61.03 43.11 60C44.16 59.19 45.16 58.32 46.12 57.41L46.13 57.38C45.65 57.79 45.14 58.18 44.65 58.57C42.74 60.1 42.14 60.45 44.05 58.92C44.59 58.48 45.15 58.06 45.67 57.6C46.4 56.97 47.12 56.34 47.84 55.7C49.11 54.35 50.22 52.86 51.27 51.33C52.52 49.55 53.43 47.59 54.19 45.57C54.98 43.36 55.29 41.04 55.47 38.71C55.67 36.63 55.5 34.56 55.23 32.5C54.74 28.65 55.69 28.1 56.19 31.96C56.45 34.02 56.64 36.08 56.43 38.16C56.28 40.18 56.02 42.19 55.44 44.13C55.55 44.03 55.69 43.97 55.85 43.97C56.18 43.97 56.45 44.24 56.45 44.58C56.45 44.91 56.18 45.18 55.85 45.18C55.56 45.18 55.31 44.97 55.25 44.7C55.22 44.8 55.19 44.9 55.16 45.01C54.4 47.03 53.49 48.99 52.24 50.76C51.54 51.78 50.82 52.77 50.04 53.72C50.6 53.22 51.15 52.71 51.7 52.2L52.38 51.5C52.43 51.36 52.54 51.25 52.67 51.18C53.12 50.69 53.55 50.18 53.91 49.62C54.48 48.78 55.05 47.93 55.59 47.08C56.14 46.23 56.68 45.37 57.2 44.5C57.65 43.76 58.1 43.01 58.5 42.24C58.72 41.77 58.96 41.3 59.11 40.81C59.18 40.62 59.24 40.43 59.33 40.25C59.56 39.79 59.76 39.43 59.93 39.13C59.73 39.03 59.6 38.83 59.6 38.59C59.6 38.26 59.85 38 60.17 37.99C60.08 37.93 60.02 37.83 60.02 37.71C60.02 37.53 60.17 37.38 60.35 37.38C60.54 37.38 60.68 37.53 60.68 37.71C60.68 37.87 60.58 37.99 60.44 38.03C60.65 38.12 60.8 38.34 60.8 38.59C60.8 38.89 60.58 39.14 60.29 39.18C60.2 39.38 60.09 39.61 59.95 39.89C59.86 40.07 59.81 40.26 59.74 40.45C59.58 40.94 59.34 41.41 59.11 41.88L58.87 42.33C58.98 42.22 59.13 42.16 59.29 42.16C59.62 42.16 59.9 42.42 59.9 42.76C59.9 43.09 59.62 43.37 59.29 43.37C58.96 43.37 58.69 43.09 58.69 42.76C58.69 42.72 58.7 42.68 58.7 42.64C58.41 43.15 58.11 43.65 57.81 44.15C57.28 45.02 56.74 45.87 56.2 46.72C55.65 47.58 55.09 48.42 54.52 49.26C54.08 49.94 53.56 50.54 53.01 51.12C53.31 51.15 53.55 51.41 53.55 51.72C53.55 52.05 53.28 52.32 52.94 52.32C52.64 52.32 52.38 52.09 52.34 51.8L52.3 51.85C51.35 52.75 50.37 53.62 49.4 54.5L49.35 54.54C49.04 54.9 48.71 55.26 48.37 55.6C47.91 56.07 47.45 56.52 46.97 56.97C47.17 57.07 47.31 57.28 47.31 57.52C47.31 57.85 47.05 58.12 46.71 58.12C46.45 58.12 46.23 57.96 46.15 57.73C45.49 58.32 44.8 58.88 44.1 59.42C42.7 60.48 41.27 61.48 39.75 62.36L38.87 62.87ZM35.16 62.39C35.16 62.21 35.31 62.06 35.49 62.06C35.68 62.06 35.83 62.21 35.83 62.39C35.83 62.58 35.68 62.72 35.49 62.72C35.31 62.72 35.16 62.58 35.16 62.39ZM41.55 62.48L41.48 62.48C41.3 62.48 41.15 62.33 41.15 62.14C41.15 61.96 41.3 61.81 41.48 61.81C41.67 61.81 41.81 61.96 41.81 62.14C41.81 62.31 41.7 62.45 41.55 62.48ZM27.54 61.69C27.54 61.36 27.81 61.09 28.14 61.09C28.47 61.09 28.75 61.36 28.75 61.69C28.75 62.03 28.47 62.3 28.14 62.3C27.81 62.3 27.54 62.03 27.54 61.69ZM29.65 61.78C29.65 61.6 29.8 61.45 29.99 61.45C30.17 61.45 30.32 61.6 30.32 61.78C30.32 61.97 30.17 62.12 29.99 62.12C29.8 62.12 29.65 61.97 29.65 61.78ZM38.43 60.27C38.43 60.09 38.58 59.94 38.76 59.94C38.94 59.94 39.09 60.09 39.09 60.27C39.09 60.45 38.94 60.6 38.76 60.6C38.58 60.6 38.43 60.45 38.43 60.27ZM41.15 59.82C41.15 59.48 41.42 59.21 41.75 59.21C42.08 59.21 42.36 59.48 42.36 59.82C42.36 60.15 42.08 60.43 41.75 60.43C41.42 60.43 41.15 60.15 41.15 59.82ZM19.79 59.58C19.79 59.24 20.06 58.97 20.4 58.97C20.73 58.97 21.01 59.24 21.01 59.58C21.01 59.91 20.73 60.18 20.4 60.18C20.06 60.18 19.79 59.91 19.79 59.58ZM48.71 59.25C48.71 59.06 48.86 58.91 49.04 58.91C49.22 58.91 49.37 59.06 49.37 59.25C49.37 59.43 49.22 59.58 49.04 59.58C48.86 59.58 48.71 59.43 48.71 59.25ZM27.12 58.85C27.12 58.52 27.38 58.25 27.72 58.25C28.05 58.25 28.32 58.52 28.32 58.85C28.32 59.18 28.05 59.46 27.72 59.46C27.38 59.46 27.12 59.18 27.12 58.85ZM18.34 58.09C18.34 57.91 18.49 57.76 18.67 57.76C18.86 57.76 19.01 57.91 19.01 58.09C19.01 58.28 18.86 58.43 18.67 58.43C18.49 58.43 18.34 58.28 18.34 58.09ZM42.48 57.76C42.48 57.43 42.75 57.16 43.08 57.16C43.41 57.16 43.69 57.43 43.69 57.76C43.69 58.1 43.41 58.37 43.08 58.37C42.75 58.37 42.48 58.1 42.48 57.76ZM21.37 57.76C21.03 57.76 20.76 57.49 20.76 57.16C20.76 56.93 20.89 56.73 21.08 56.63C21.07 56.6 21.06 56.56 21.06 56.52C21.06 56.34 21.21 56.19 21.4 56.19C21.58 56.19 21.73 56.34 21.73 56.52C21.73 56.57 21.72 56.62 21.71 56.66C21.87 56.77 21.97 56.95 21.97 57.16C21.97 57.49 21.7 57.76 21.37 57.76L21.37 57.76ZM33.82 56.62C33.82 56.28 34.1 56.01 34.43 56.01C34.77 56.01 35.03 56.28 35.03 56.62C35.03 56.95 34.77 57.22 34.43 57.22C34.1 57.22 33.82 56.95 33.82 56.62ZM23.29 57C23.17 57.01 23.15 56.49 23.35 55.39C23.59 54.13 23.82 52.86 23.96 51.57C24.12 50 24.21 48.41 24.16 46.82C24.1 45.64 24.02 44.45 23.81 43.28C23.68 42.49 23.56 41.69 23.35 40.92C23.26 40.62 23.21 40.32 23.07 40.03C21.98 37.71 22.65 37.34 23.69 39.67C23.82 39.96 23.89 40.26 23.98 40.57C24.18 41.34 24.3 42.14 24.42 42.93C24.62 44.1 24.7 45.29 24.76 46.48C24.81 48.07 24.71 49.65 24.55 51.24C24.41 52.52 24.18 53.79 23.94 55.05C23.71 56.3 23.43 56.99 23.29 57L23.29 57ZM35.88 56.64C35.88 56.46 36.03 56.31 36.21 56.31C36.4 56.31 36.55 56.46 36.55 56.64C36.55 56.83 36.4 56.98 36.21 56.98C36.03 56.98 35.88 56.83 35.88 56.64ZM25.96 56.4C25.96 56.22 26.11 56.07 26.29 56.07C26.48 56.07 26.63 56.22 26.63 56.4C26.63 56.59 26.48 56.74 26.29 56.74C26.11 56.74 25.96 56.59 25.96 56.4ZM29.65 55.04C29.65 54.71 29.93 54.44 30.26 54.44C30.6 54.44 30.86 54.71 30.86 55.04C30.86 55.37 30.6 55.65 30.26 55.65C29.93 55.65 29.65 55.37 29.65 55.04ZM46.53 54.56C46.53 54.22 46.8 53.95 47.14 53.95C47.47 53.95 47.74 54.22 47.74 54.56C47.74 54.89 47.47 55.16 47.14 55.16C46.8 55.16 46.53 54.89 46.53 54.56ZM53.61 53.43C53.61 53.25 53.76 53.1 53.94 53.1C54.12 53.1 54.27 53.25 54.27 53.43C54.27 53.62 54.12 53.77 53.94 53.77C53.76 53.77 53.61 53.62 53.61 53.43ZM41.81 50.32C41.81 49.99 42.08 49.72 42.41 49.72C42.75 49.72 43.02 49.99 43.02 50.32C43.02 50.66 42.75 50.92 42.41 50.92C42.08 50.92 41.81 50.66 41.81 50.32ZM48.52 49.62C48.52 49.44 48.67 49.29 48.86 49.29C49.04 49.29 49.19 49.44 49.19 49.62C49.19 49.81 49.04 49.96 48.86 49.96C48.67 49.96 48.52 49.81 48.52 49.62ZM18.83 48.93C18.83 48.6 19.1 48.32 19.43 48.32C19.76 48.32 20.04 48.6 20.04 48.93C20.04 49.26 19.76 49.54 19.43 49.54C19.1 49.54 18.83 49.26 18.83 48.93ZM34.13 48.69C34.13 48.36 34.4 48.08 34.74 48.08C35.07 48.08 35.34 48.36 35.34 48.69C35.34 49.02 35.07 49.29 34.74 49.29C34.4 49.29 34.13 49.02 34.13 48.69ZM57.72 48.24C57.72 48.05 57.87 47.91 58.05 47.91C58.24 47.91 58.39 48.05 58.39 48.24C58.39 48.42 58.24 48.57 58.05 48.57C57.87 48.57 57.72 48.42 57.72 48.24ZM56.69 47.48C56.69 47.15 56.96 46.87 57.3 46.87C57.63 46.87 57.91 47.15 57.91 47.48C57.91 47.82 57.63 48.08 57.3 48.08C56.96 48.08 56.69 47.82 56.69 47.48ZM37.88 47.3C37.88 46.96 38.15 46.69 38.48 46.69C38.82 46.69 39.09 46.96 39.09 47.3C39.09 47.63 38.82 47.91 38.48 47.91C38.15 47.91 37.88 47.63 37.88 47.3ZM27.9 46.63C27.9 46.3 28.17 46.02 28.5 46.02C28.83 46.02 29.11 46.3 29.11 46.63C29.11 46.97 28.83 47.23 28.5 47.23C28.17 47.23 27.9 46.97 27.9 46.63ZM21.85 44.3C21.85 44.12 22 43.97 22.18 43.97C22.36 43.97 22.51 44.12 22.51 44.3C22.51 44.48 22.36 44.64 22.18 44.64C22 44.64 21.85 44.48 21.85 44.3ZM25.06 43.91C25.06 43.58 25.32 43.3 25.66 43.3C25.99 43.3 26.27 43.58 26.27 43.91C26.27 44.24 25.99 44.51 25.66 44.51C25.32 44.51 25.06 44.24 25.06 43.91ZM51.73 43.73C51.73 43.39 52 43.13 52.33 43.13C52.67 43.13 52.94 43.39 52.94 43.73C52.94 44.06 52.67 44.33 52.33 44.33C52 44.33 51.73 44.06 51.73 43.73ZM29.05 43.39C29.05 43.21 29.2 43.06 29.38 43.06C29.57 43.06 29.72 43.21 29.72 43.39C29.72 43.58 29.57 43.73 29.38 43.73C29.2 43.73 29.05 43.58 29.05 43.39ZM37.15 40.58C37.15 40.25 37.43 39.98 37.76 39.98C38.1 39.98 38.36 40.25 38.36 40.58C38.36 40.91 38.1 41.19 37.76 41.19C37.43 41.19 37.15 40.91 37.15 40.58ZM44.3 40.52C44.3 40.19 44.56 39.92 44.9 39.92C45.23 39.92 45.5 40.19 45.5 40.52C45.5 40.86 45.23 41.13 44.9 41.13C44.56 41.13 44.3 40.86 44.3 40.52ZM56.87 39.86C56.87 39.53 57.15 39.25 57.48 39.25C57.82 39.25 58.08 39.53 58.08 39.86C58.08 40.19 57.82 40.46 57.48 40.46C57.15 40.46 56.87 40.19 56.87 39.86ZM26.63 39.37C26.63 39.04 26.9 38.77 27.24 38.77C27.57 38.77 27.84 39.04 27.84 39.37C27.84 39.71 27.57 39.98 27.24 39.98C26.9 39.98 26.63 39.71 26.63 39.37ZM41.99 39.32C41.99 38.98 42.26 38.71 42.6 38.71C42.93 38.71 43.21 38.98 43.21 39.32C43.21 39.65 42.93 39.92 42.6 39.92C42.26 39.92 41.99 39.65 41.99 39.32ZM30.13 38.25C30.13 38.07 30.29 37.92 30.47 37.92C30.66 37.92 30.81 38.07 30.81 38.25C30.81 38.44 30.66 38.59 30.47 38.59C30.29 38.59 30.13 38.44 30.13 38.25ZM21.42 37.29C21.42 37.1 21.57 36.95 21.76 36.95C21.94 36.95 22.1 37.1 22.1 37.29C22.1 37.47 21.94 37.62 21.76 37.62C21.57 37.62 21.42 37.47 21.42 37.29ZM43.38 37.17C43.38 36.98 43.53 36.83 43.72 36.83C43.9 36.83 44.05 36.98 44.05 37.17C44.05 37.35 43.9 37.5 43.72 37.5C43.53 37.5 43.38 37.35 43.38 37.17ZM52.82 36.35C52.82 36.01 53.09 35.75 53.42 35.74C53.76 35.74 54.03 36.01 54.03 36.35C54.03 36.68 53.76 36.95 53.42 36.95C53.09 36.95 52.82 36.68 52.82 36.35ZM37.03 36.38C37.03 36.2 37.18 36.05 37.37 36.05C37.55 36.05 37.7 36.2 37.7 36.38C37.7 36.56 37.55 36.71 37.37 36.71C37.18 36.71 37.03 36.56 37.03 36.38ZM60.8 35.84C60.8 35.65 60.95 35.5 61.14 35.5C61.32 35.5 61.47 35.65 61.47 35.84C61.47 36.02 61.32 36.17 61.14 36.17C60.95 36.17 60.8 36.02 60.8 35.84ZM37.52 35.44C37.52 35.11 37.79 34.83 38.12 34.83C38.46 34.83 38.72 35.11 38.72 35.44C38.72 35.77 38.46 36.05 38.12 36.05C37.79 36.05 37.52 35.77 37.52 35.44ZM47.19 35.26C47.19 34.92 47.47 34.66 47.8 34.66C48.14 34.66 48.4 34.92 48.4 35.26C48.4 35.59 48.14 35.87 47.8 35.87C47.47 35.87 47.19 35.59 47.19 35.26ZM51.61 34.68C51.61 34.5 51.76 34.35 51.95 34.35C52.13 34.35 52.28 34.5 52.28 34.68C52.28 34.87 52.13 35.02 51.95 35.02C51.76 35.02 51.61 34.87 51.61 34.68ZM60.38 34.23C60.38 33.9 60.65 33.62 60.99 33.62C61.32 33.62 61.59 33.9 61.59 34.23C61.59 34.57 61.32 34.83 60.99 34.83C60.65 34.83 60.38 34.57 60.38 34.23ZM28.97 34.83L28.9 34.83C28.71 34.83 28.56 34.68 28.56 34.5C28.56 34.32 28.71 34.17 28.9 34.17C29.08 34.17 29.23 34.32 29.23 34.5C29.23 34.66 29.12 34.8 28.97 34.83ZM56.78 33.87C56.6 33.87 56.45 33.72 56.45 33.54C56.45 33.36 56.6 33.2 56.78 33.2C56.96 33.2 57.11 33.36 57.11 33.54C57.11 33.72 56.96 33.87 56.78 33.87ZM31.95 32.66C31.95 32.32 32.23 32.05 32.56 32.05C32.89 32.05 33.16 32.32 33.16 32.66C33.16 32.99 32.89 33.26 32.56 33.26C32.23 33.26 31.95 32.99 31.95 32.66ZM52.7 32.45C52.7 32.27 52.85 32.11 53.03 32.11C53.22 32.11 53.37 32.27 53.37 32.45C53.37 32.63 53.22 32.78 53.03 32.78C52.85 32.78 52.7 32.63 52.7 32.45ZM43.08 31.93C42.75 31.93 42.48 31.66 42.48 31.33C42.48 30.99 42.75 30.73 43.08 30.73C43.25 30.73 43.41 30.8 43.52 30.91C43.56 30.77 43.68 30.66 43.84 30.66C44.02 30.66 44.17 30.81 44.17 30.99C44.17 31.18 44.02 31.33 43.84 31.33C43.78 31.33 43.73 31.32 43.68 31.29C43.68 31.3 43.69 31.31 43.69 31.33C43.69 31.66 43.41 31.93 43.08 31.93L43.08 31.93ZM49.25 30.87C49.25 30.69 49.4 30.54 49.58 30.54C49.77 30.54 49.92 30.69 49.92 30.87C49.92 31.06 49.77 31.21 49.58 31.21C49.4 31.21 49.25 31.06 49.25 30.87ZM59.54 30.75C59.54 30.57 59.69 30.42 59.87 30.42C60.05 30.42 60.2 30.57 60.2 30.75C60.2 30.94 60.05 31.09 59.87 31.09C59.69 31.09 59.54 30.94 59.54 30.75ZM56.69 30.42C56.69 30.09 56.96 29.81 57.3 29.81C57.63 29.81 57.91 30.09 57.91 30.42C57.91 30.76 57.63 31.02 57.3 31.02C56.96 31.02 56.69 30.76 56.69 30.42ZM31.41 30.24C31.41 29.9 31.68 29.64 32.01 29.64C32.35 29.64 32.62 29.9 32.62 30.24C32.62 30.57 32.35 30.85 32.01 30.85C31.68 30.85 31.41 30.57 31.41 30.24ZM37.15 30.18C36.93 30.18 36.74 30.06 36.64 29.88C36.55 29.82 36.49 29.72 36.49 29.6C36.49 29.51 36.53 29.43 36.59 29.37C36.67 29.14 36.89 28.97 37.15 28.97C37.49 28.97 37.76 29.24 37.76 29.57C37.76 29.91 37.49 30.18 37.15 30.18L37.15 30.18ZM50.1 29.03C50.1 28.69 50.37 28.43 50.7 28.43C51.03 28.43 51.31 28.69 51.31 29.03C51.31 29.36 51.03 29.64 50.7 29.64C50.37 29.64 50.1 29.36 50.1 29.03ZM27.78 28.43C27.78 28.09 28.05 27.82 28.38 27.82C28.71 27.82 28.99 28.09 28.99 28.43C28.99 28.76 28.71 29.03 28.38 29.03C28.05 29.03 27.78 28.76 27.78 28.43ZM38.24 26.82C38.24 26.64 38.39 26.49 38.58 26.49C38.76 26.49 38.91 26.64 38.91 26.82C38.91 27.01 38.76 27.15 38.58 27.15C38.39 27.15 38.24 27.01 38.24 26.82ZM58.63 26.7C58.63 26.52 58.78 26.37 58.96 26.37C59.14 26.37 59.29 26.52 59.29 26.7C59.29 26.89 59.14 27.03 58.96 27.03C58.78 27.03 58.63 26.89 58.63 26.7ZM30.98 26.64C30.98 26.45 31.13 26.31 31.31 26.31C31.5 26.31 31.65 26.45 31.65 26.64C31.65 26.82 31.5 26.97 31.31 26.97C31.13 26.97 30.98 26.82 30.98 26.64ZM54.39 25.25C54.39 25.06 54.54 24.91 54.72 24.91C54.91 24.91 55.06 25.06 55.06 25.25C55.06 25.43 54.91 25.58 54.72 25.58C54.54 25.58 54.39 25.43 54.39 25.25ZM55.42 24.49C55.42 24.16 55.69 23.89 56.02 23.89C56.36 23.89 56.63 24.16 56.63 24.49C56.63 24.82 56.36 25.1 56.02 25.1C55.69 25.1 55.42 24.82 55.42 24.49ZM33.95 24.04C33.95 23.85 34.1 23.7 34.28 23.7C34.47 23.7 34.62 23.85 34.62 24.04C34.62 24.22 34.47 24.37 34.28 24.37C34.1 24.37 33.95 24.22 33.95 24.04ZM36.43 23.53C36.43 23.19 36.7 22.92 37.03 22.92C37.37 22.92 37.64 23.19 37.64 23.53C37.64 23.86 37.37 24.13 37.03 24.13C36.7 24.13 36.43 23.86 36.43 23.53ZM31.22 22.56C31.22 22.23 31.5 21.95 31.83 21.95C32.17 21.95 32.44 22.23 32.44 22.56C32.44 22.89 32.17 23.16 31.83 23.16C31.5 23.16 31.22 22.89 31.22 22.56ZM48.95 22.64C48.95 22.46 49.1 22.31 49.28 22.31C49.46 22.31 49.61 22.46 49.61 22.64C49.61 22.83 49.46 22.98 49.28 22.98C49.1 22.98 48.95 22.83 48.95 22.64ZM40.85 22.31C40.85 21.98 41.11 21.71 41.45 21.71C41.78 21.71 42.05 21.98 42.05 22.31C42.05 22.65 41.78 22.92 41.45 22.92C41.11 22.92 40.85 22.65 40.85 22.31ZM51.55 21.98C51.55 21.8 51.7 21.65 51.88 21.65C52.07 21.65 52.21 21.8 52.21 21.98C52.21 22.16 52.07 22.31 51.88 22.31C51.7 22.31 51.55 22.16 51.55 21.98ZM39.88 20.59C39.88 20.41 40.03 20.26 40.21 20.26C40.39 20.26 40.54 20.41 40.54 20.59C40.54 20.78 40.39 20.93 40.21 20.93C40.03 20.93 39.88 20.78 39.88 20.59ZM26.63 20.13C26.63 19.8 26.9 19.53 27.24 19.53C27.57 19.53 27.84 19.8 27.84 20.13C27.84 20.47 27.57 20.74 27.24 20.74C26.9 20.74 26.63 20.47 26.63 20.13ZM49.68 18.96C49.68 18.78 49.82 18.63 50.01 18.63C50.19 18.63 50.34 18.78 50.34 18.96C50.34 19.14 50.19 19.29 50.01 19.29C49.82 19.29 49.68 19.14 49.68 18.96ZM51.55 18.26C51.55 17.93 51.82 17.66 52.16 17.66C52.49 17.66 52.76 17.93 52.76 18.26C52.76 18.59 52.49 18.87 52.16 18.87C51.82 18.87 51.55 18.59 51.55 18.26ZM26.08 17.62C26.08 17.44 26.23 17.29 26.42 17.29C26.6 17.29 26.75 17.44 26.75 17.62C26.75 17.81 26.6 17.96 26.42 17.96C26.23 17.96 26.08 17.81 26.08 17.62ZM51.85 16.36C51.85 16.18 52 16.03 52.19 16.03C52.37 16.03 52.52 16.18 52.52 16.36C52.52 16.54 52.37 16.69 52.19 16.69C52 16.69 51.85 16.54 51.85 16.36ZM35.22 15.45C35.22 15.26 35.37 15.11 35.55 15.11C35.73 15.11 35.88 15.26 35.88 15.45C35.88 15.63 35.73 15.78 35.55 15.78C35.37 15.78 35.22 15.63 35.22 15.45ZM26.69 13.81C26.69 13.63 26.84 13.48 27.02 13.48C27.21 13.48 27.36 13.63 27.36 13.81C27.36 14 27.21 14.15 27.02 14.15C26.84 14.15 26.69 14 26.69 13.81ZM28.38 12.6C28.38 12.42 28.53 12.27 28.71 12.27C28.9 12.27 29.05 12.42 29.05 12.6C29.05 12.79 28.9 12.94 28.71 12.94C28.53 12.94 28.38 12.79 28.38 12.6Z" />
		<path class="shp8" d="M45.29 52.22C41.7 52.22 38.78 55.82 38.78 60.27C38.78 62.1 39.31 63.94 40.18 65.48C38.72 64.42 36.9 63.78 35.09 63.78C31.1 63.78 27.86 67.04 27.86 71.04C27.86 75.05 31.1 78.3 35.09 78.3C38.7 78.3 42.37 75.46 43.03 71.94C43.53 73.77 43.81 75.75 43.81 77.81C43.81 82.6 42.33 86.93 39.94 90.05L50.99 90.05C48.47 86.91 46.9 82.46 46.9 77.53C46.9 75.55 47.16 73.65 47.62 71.88C48.02 75.57 51.86 78.3 55.63 78.3C59.62 78.3 62.85 75.05 62.85 71.04C62.85 67.04 59.62 63.78 55.63 63.78C53.76 63.78 51.86 64.54 50.39 65.76C51.27 64.17 51.8 62.21 51.8 60.27C51.8 55.82 48.89 52.22 45.29 52.22L45.29 52.22Z" />
		<path class="shp9" d="M70.7 71.14C70.7 85.58 59.35 97.28 45.35 97.28C31.35 97.28 20 85.58 20 71.14C20 56.7 31.35 45 45.35 45C59.35 45 70.7 56.7 70.7 71.14Z" />
		<path class="shp10" d="M38.13 50.63C38.13 59.42 31 66.54 22.22 66.54C13.43 66.54 6.3 59.42 6.3 50.63C6.3 41.84 13.43 34.72 22.22 34.72C31 34.72 38.13 41.84 38.13 50.63Z" />
		<path class="shp11" d="M22.18 39.11C19.93 39.11 18.09 41.31 18.09 44.01C18.09 45.13 18.42 46.25 18.97 47.19C18.06 46.54 16.91 46.15 15.77 46.15C13.27 46.15 11.24 48.14 11.24 50.57C11.24 53.01 13.27 54.99 15.77 54.99C18.04 54.99 20.35 53.26 20.76 51.12C21.08 52.24 21.25 53.44 21.25 54.69C21.25 57.61 20.32 60.24 18.82 62.15L25.76 62.15C24.18 60.23 23.19 57.53 23.19 54.52C23.19 53.32 23.35 52.16 23.64 51.08C23.9 53.33 26.3 54.99 28.67 54.99C31.17 54.99 33.2 53.01 33.2 50.57C33.2 48.14 31.17 46.15 28.67 46.15C27.5 46.15 26.3 46.61 25.38 47.36C25.94 46.39 26.27 45.2 26.27 44.01C26.27 41.31 24.44 39.11 22.18 39.11L22.18 39.11Z" />
		<path fill-rule="evenodd" class="shp12" d="M35.61 35.28L35.61 36L26.16 36L26.16 35.28C28.13 35.24 28.76 34.94 28.76 33.99C28.76 33.46 28.5 32.47 28.05 31.44L26.53 27.8L16.82 27.8L15.12 32.24C14.93 32.73 14.82 33.27 14.82 33.72C14.82 34.78 15.56 35.28 17.34 35.28L17.34 36L10 36L10 35.28C11.78 35.2 12.22 34.59 14.6 29.05L22.31 10.4L23.05 10.4L32.28 31.97C33.58 34.78 33.95 35.16 35.61 35.28M26.01 26.24L21.71 15.8L17.45 26.24L26.01 26.24Z" />
	</g>
</svg>