<svg xmlns="http://www.w3.org/2000/svg" viewBox="0 0 72 102" width="72" height="102">
	<defs>
		<filter x="-50%" y="-50%" width="200%" height="200%" id="flt1"> <feGaussianBlur stdDeviation="0.85" /> </filter>
		<linearGradient id="grd1" gradientUnits="userSpaceOnUse"  x1="40.908" y1="26.195" x2="43.053" y2="-90.187">
			<stop offset="0" stop-color="#f3f3f3"  />
			<stop offset="1" stop-color="#8f8f8f"  />
		</linearGradient>
		<radialGradient id="grd2" gradientUnits="userSpaceOnUse"  cx="10.206" cy="91.497" r="13.273">
			<stop offset="0" stop-color="#ffffff"  />
			<stop offset="1" stop-color="#ffffff" stop-opacity="0" />
		</radialGradient>
		<radialGradient id="grd3" gradientUnits="userSpaceOnUse"  cx="61.784" cy="12.355" r="14.287">
			<stop offset="0" stop-color="#ffffff"  />
			<stop offset="1" stop-color="#ffffff" stop-opacity="0" />
		</radialGradient>
		<linearGradient id="grd4" gradientUnits="userSpaceOnUse"  x1="-60.365" y1="90.668" x2="-60.365" y2="87.192">
			<stop offset="0" stop-color="#000000"  />
			<stop offset="1" stop-color="#555753"  />
		</linearGradient>
		<radialGradient id="grd5" gradientUnits="userSpaceOnUse"  cx="17.64" cy="73.646" r="25.374">
			<stop offset="0" stop-color="#ffffff"  />
			<stop offset="1" stop-color="#ffffff" stop-opacity="0" />
		</radialGradient>
		<radialGradient id="grd6" gradientUnits="userSpaceOnUse"  cx="52.594" cy="20.247" r="9.813">
			<stop offset="0" stop-color="#ffffff"  />
			<stop offset="1" stop-color="#ffffff" stop-opacity="0" />
		</radialGradient>
		<linearGradient id="grd7" gradientUnits="userSpaceOnUse"  x1="-95.765" y1="23.325" x2="-95.765" y2="16.108">
			<stop offset="0" stop-color="#000000"  />
			<stop offset="1" stop-color="#6f6f6f"  />
		</linearGradient>
		<radialGradient id="grd8" gradientUnits="userSpaceOnUse"  cx="53.134" cy="81.008" r="9.813">
			<stop offset="0" stop-color="#ffffff"  />
			<stop offset="1" stop-color="#ffffff" stop-opacity="0" />
		</radialGradient>
		<linearGradient id="grd9" gradientUnits="userSpaceOnUse"  x1="-95.225" y1="84.088" x2="-95.225" y2="76.871">
			<stop offset="0" stop-color="#000000"  />
			<stop offset="1" stop-color="#6f6f6f"  />
		</linearGradient>
		<radialGradient id="grd10" gradientUnits="userSpaceOnUse"  cx="19.774" cy="40.531" r="9.813">
			<stop offset="0" stop-color="#ffffff"  />
			<stop offset="1" stop-color="#ffffff" stop-opacity="0" />
		</radialGradient>
		<linearGradient id="grd11" gradientUnits="userSpaceOnUse"  x1="-128.585" y1="43.611" x2="-128.585" y2="36.394">
			<stop offset="0" stop-color="#000000"  />
			<stop offset="1" stop-color="#6f6f6f"  />
		</linearGradient>
		<radialGradient id="grd12" gradientUnits="userSpaceOnUse"  cx="36.244" cy="51.068" r="9.813">
			<stop offset="0" stop-color="#ffffff"  />
			<stop offset="1" stop-color="#ffffff" stop-opacity="0" />
		</radialGradient>
		<linearGradient id="grd13" gradientUnits="userSpaceOnUse"  x1="-112.115" y1="54.148" x2="-112.115" y2="46.931">
			<stop offset="0" stop-color="#000000"  />
			<stop offset="1" stop-color="#6f6f6f"  />
		</linearGradient>
		<radialGradient id="grd14" gradientUnits="userSpaceOnUse"  cx="19.774" cy="61.06" r="9.813">
			<stop offset="0" stop-color="#ffffff"  />
			<stop offset="1" stop-color="#ffffff" stop-opacity="0" />
		</radialGradient>
		<linearGradient id="grd15" gradientUnits="userSpaceOnUse"  x1="-128.585" y1="64.141" x2="-128.585" y2="56.924">
			<stop offset="0" stop-color="#000000"  />
			<stop offset="1" stop-color="#6f6f6f"  />
		</linearGradient>
		<radialGradient id="grd16" gradientUnits="userSpaceOnUse"  cx="19.774" cy="20.247" r="9.813">
			<stop offset="0" stop-color="#ffffff"  />
			<stop offset="1" stop-color="#ffffff" stop-opacity="0" />
		</radialGradient>
		<linearGradient id="grd17" gradientUnits="userSpaceOnUse"  x1="-128.585" y1="23.325" x2="-128.585" y2="16.108">
			<stop offset="0" stop-color="#000000"  />
			<stop offset="1" stop-color="#6f6f6f"  />
		</linearGradient>
		<radialGradient id="grd18" gradientUnits="userSpaceOnUse"  cx="19.774" cy="81.008" r="9.813">
			<stop offset="0" stop-color="#ffffff"  />
			<stop offset="1" stop-color="#ffffff" stop-opacity="0" />
		</radialGradient>
		<linearGradient id="grd19" gradientUnits="userSpaceOnUse"  x1="-128.585" y1="84.088" x2="-128.585" y2="76.871">
			<stop offset="0" stop-color="#000000"  />
			<stop offset="1" stop-color="#6f6f6f"  />
		</linearGradient>
		<radialGradient id="grd20" gradientUnits="userSpaceOnUse"  cx="52.314" cy="40.531" r="9.813">
			<stop offset="0" stop-color="#ffffff"  />
			<stop offset="1" stop-color="#ffffff" stop-opacity="0" />
		</radialGradient>
		<linearGradient id="grd21" gradientUnits="userSpaceOnUse"  x1="-96.045" y1="43.611" x2="-96.045" y2="36.394">
			<stop offset="0" stop-color="#000000"  />
			<stop offset="1" stop-color="#6f6f6f"  />
		</linearGradient>
		<radialGradient id="grd22" gradientUnits="userSpaceOnUse"  cx="51.774" cy="61.06" r="9.813">
			<stop offset="0" stop-color="#ffffff"  />
			<stop offset="1" stop-color="#ffffff" stop-opacity="0" />
		</radialGradient>
		<linearGradient id="grd23" gradientUnits="userSpaceOnUse"  x1="-96.585" y1="64.141" x2="-96.585" y2="56.924">
			<stop offset="0" stop-color="#000000"  />
			<stop offset="1" stop-color="#6f6f6f"  />
		</linearGradient>
		<linearGradient id="grd24" gradientUnits="userSpaceOnUse"  x1="-631.382" y1="14.422" x2="-631.382" y2="10.73">
			<stop offset="0" stop-color="#000000"  />
			<stop offset="1" stop-color="#555753"  />
		</linearGradient>
	</defs>
	<style>
		tspan { white-space:pre }
		.shp0 { filter: url(#flt1);fill: #000000 } 
		.shp1 { fill: url(#grd1);stroke: #000000;stroke-width: 0.226 } 
		.shp2 { opacity: 0.31;fill: url(#grd2) } 
		.shp3 { opacity: 0.318;fill: url(#grd3) } 
		.shp4 { fill: none;stroke: #000000;stroke-width: 0.226 } 
		.shp5 { fill: url(#grd4);stroke: #1d1d1d;stroke-linejoin:round;stroke-width: 0.166 } 
		.shp6 { fill: url(#grd5) } 
		.shp7 { opacity: 0.4;fill: url(#grd6) } 
		.shp8 { fill: url(#grd7);stroke: #0f0f0f;stroke-linejoin:round;stroke-width: 0.346 } 
		.shp9 { opacity: 0.4;fill: url(#grd8) } 
		.shp10 { fill: url(#grd9);stroke: #0f0f0f;stroke-linejoin:round;stroke-width: 0.346 } 
		.shp11 { opacity: 0.4;fill: url(#grd10) } 
		.shp12 { fill: url(#grd11);stroke: #0f0f0f;stroke-linejoin:round;stroke-width: 0.346 } 
		.shp13 { opacity: 0.4;fill: url(#grd12) } 
		.shp14 { fill: url(#grd13);stroke: #0f0f0f;stroke-linejoin:round;stroke-width: 0.346 } 
		.shp15 { opacity: 0.4;fill: url(#grd14) } 
		.shp16 { fill: url(#grd15);stroke: #0f0f0f;stroke-linejoin:round;stroke-width: 0.346 } 
		.shp17 { opacity: 0.4;fill: url(#grd16) } 
		.shp18 { fill: url(#grd17);stroke: #0f0f0f;stroke-linejoin:round;stroke-width: 0.346 } 
		.shp19 { opacity: 0.4;fill: url(#grd18) } 
		.shp20 { fill: url(#grd19);stroke: #0f0f0f;stroke-linejoin:round;stroke-width: 0.346 } 
		.shp21 { opacity: 0.4;fill: url(#grd20) } 
		.shp22 { fill: url(#grd21);stroke: #0f0f0f;stroke-linejoin:round;stroke-width: 0.346 } 
		.shp23 { opacity: 0.4;fill: url(#grd22) } 
		.shp24 { fill: url(#grd23);stroke: #0f0f0f;stroke-linejoin:round;stroke-width: 0.346 } 
		.shp25 { fill: url(#grd24) } 
	</style>
	<g id="-e-Club9">
		<g id="Layer">
			<path id="Layer" fill-rule="evenodd" class="shp0" d="M4.47 1.37L67.55 1.37C68.02 1.37 68.48 1.47 68.91 1.64C69.33 1.82 69.72 2.08 70.05 2.41C70.38 2.74 70.64 3.13 70.82 3.56C71 3.99 71.09 4.45 71.09 4.91L71.09 97.02C71.09 97.49 71 97.95 70.82 98.38C70.64 98.81 70.38 99.2 70.05 99.52C69.72 99.85 69.33 100.11 68.91 100.29C68.48 100.47 68.02 100.56 67.55 100.56L4.47 100.56C4.01 100.56 3.55 100.47 3.12 100.29C2.69 100.11 2.3 99.85 1.97 99.52C1.64 99.2 1.38 98.81 1.2 98.38C1.03 97.95 0.94 97.49 0.94 97.02L0.94 4.91C0.94 4.45 1.03 3.99 1.2 3.56C1.38 3.13 1.64 2.74 1.97 2.41C2.3 2.08 2.69 1.82 3.12 1.64C3.55 1.47 4.01 1.37 4.47 1.37" />
			<path id="Layer" fill-rule="evenodd" class="shp1" d="M5.39 0.8L67.44 0.8C67.97 0.8 68.5 0.9 68.99 1.11C69.48 1.31 69.93 1.61 70.3 1.98C70.68 2.36 70.98 2.81 71.18 3.3C71.39 3.79 71.49 4.32 71.49 4.85L71.49 95.93C71.49 96.46 71.39 96.99 71.18 97.48C70.98 97.97 70.68 98.42 70.3 98.8C69.93 99.17 69.48 99.47 68.99 99.67C68.5 99.88 67.97 99.98 67.44 99.98L5.39 99.98C4.86 99.98 4.33 99.88 3.84 99.67C3.35 99.47 2.9 99.17 2.53 98.8C2.15 98.42 1.85 97.97 1.65 97.48C1.44 96.99 1.34 96.46 1.34 95.93L1.34 4.85C1.34 4.32 1.44 3.79 1.65 3.3C1.85 2.81 2.15 2.36 2.53 1.98C2.9 1.61 3.35 1.31 3.84 1.11C4.33 0.9 4.86 0.8 5.39 0.8" />
			<path id="Layer" class="shp2" d="M31.59 96.56L5.04 96.56L5.04 72.28L31.59 72.28L31.59 96.56Z" />
			<path id="Layer" class="shp3" d="M40.25 4.22L66.76 4.22C66.89 4.22 67.03 4.24 67.15 4.3C67.28 4.35 67.39 4.42 67.49 4.52C67.58 4.62 67.66 4.73 67.71 4.86C67.76 4.98 67.79 5.12 67.79 5.25L67.79 48.46C67.79 48.59 67.76 48.73 67.71 48.85C67.66 48.98 67.58 49.09 67.49 49.19C67.39 49.28 67.28 49.36 67.15 49.41C67.03 49.46 66.89 49.49 66.76 49.49L40.25 49.49C40.12 49.49 39.98 49.46 39.86 49.41C39.73 49.36 39.62 49.28 39.52 49.19C39.42 49.09 39.35 48.98 39.3 48.85C39.24 48.73 39.22 48.59 39.22 48.46L39.22 5.25C39.22 5.12 39.24 4.98 39.3 4.86C39.35 4.73 39.42 4.62 39.52 4.52C39.62 4.42 39.73 4.35 39.86 4.3C39.98 4.24 40.12 4.22 40.25 4.22" />
			<path id="Layer" class="shp4" d="M19.76 92.49L64.48 92.49L64.48 18.89" />
			<path id="Layer" class="shp4" d="M52.91 8.28L8.35 8.28L8.35 81.47" />
		</g>
		<g id="Layer">
			<path id="Layer" class="shp5" d="M11.08 85.76C10.41 85.76 9.87 86.42 9.87 87.22C9.87 87.55 9.97 87.88 10.13 88.16C9.86 87.97 9.52 87.86 9.18 87.86C8.43 87.86 7.83 88.44 7.83 89.17C7.83 89.89 8.43 90.48 9.18 90.48C9.85 90.48 10.54 89.97 10.66 89.33C10.75 89.66 10.8 90.02 10.8 90.39C10.8 91.26 10.53 92.04 10.08 92.61L12.14 92.61C11.67 92.04 11.38 91.23 11.38 90.34C11.38 89.98 11.43 89.64 11.52 89.32C11.59 89.99 12.3 90.48 13.01 90.48C13.75 90.48 14.35 89.89 14.35 89.17C14.35 88.44 13.75 87.86 13.01 87.86C12.66 87.86 12.31 87.99 12.03 88.21C12.2 87.93 12.29 87.57 12.29 87.22C12.29 86.42 11.75 85.76 11.08 85.76L11.08 85.76Z" />
		</g>
		<path id="Layer" fill-rule="evenodd" class="shp6" d="M17.54 89.26C17.54 89.26 17.55 89.26 17.55 89.26C17.55 89.26 17.55 89.26 17.55 89.26L17.54 89.26ZM17.55 89.26C15.24 83.49 13.67 83.65 11.68 83.08L14.65 83.08C14.67 82.98 14.69 82.88 14.71 82.78C14.77 82.53 14.84 82.28 14.91 82.04C14.91 81.71 14.91 81.38 14.91 81.05C14.92 80.33 15.02 79.62 15.12 78.91C15.14 78.73 15.16 78.55 15.19 78.37C15.09 78.29 15.12 77.75 15.37 76.69C15.42 76.47 15.46 76.25 15.51 76.04C15.59 75.54 15.71 75.04 15.81 74.54C15.94 73.95 16.13 73.38 16.31 72.81C16.55 72.12 16.84 71.46 17.13 70.79C17.48 69.98 17.84 69.16 18.19 68.35C18.68 67.26 19.23 66.19 19.77 65.12C20.46 63.81 21.07 62.46 21.65 61.1C22.35 59.45 23.03 57.79 23.72 56.13C24.47 54.37 25.18 52.58 25.86 50.78C25.9 50.67 25.94 50.55 25.99 50.44C25.97 50.4 25.96 50.36 25.96 50.32C25.96 50.19 26.03 50.08 26.13 50.03C26.72 48.35 27.27 46.65 27.79 44.95C28.44 42.8 29 40.62 29.44 38.42C29.88 35.87 29.99 33.27 29.97 30.68C29.9 28.57 29.68 26.47 29.44 24.37C29.33 24.46 29.2 24.52 29.05 24.52C28.71 24.52 28.44 24.25 28.44 23.92C28.44 23.58 28.71 23.31 29.05 23.31C29.15 23.31 29.24 23.34 29.32 23.38L29.25 22.81C29.16 22.07 29.06 21.33 28.95 20.59C28.89 20.7 28.78 20.77 28.65 20.77C28.47 20.77 28.32 20.62 28.32 20.44C28.32 20.25 28.47 20.1 28.65 20.1C28.74 20.1 28.82 20.13 28.88 20.19C28.78 19.5 28.67 18.8 28.57 18.1C28.4 17.03 28.43 16.39 28.54 16.22C28.44 16.11 28.38 15.97 28.38 15.81C28.38 15.47 28.65 15.21 28.98 15.21C29.32 15.21 29.59 15.47 29.59 15.81C29.59 16.14 29.32 16.41 28.98 16.41C28.92 16.41 28.85 16.4 28.79 16.38C28.91 16.62 29.04 17.07 29.15 17.77C29.39 19.34 29.63 20.91 29.82 22.48C30.14 25.09 30.45 27.71 30.53 30.35C30.56 32.94 30.46 35.54 30.02 38.09C29.58 40.29 29.02 42.46 28.37 44.61C27.8 46.46 27.22 48.3 26.56 50.12C26.61 50.17 26.63 50.24 26.63 50.32C26.63 50.47 26.52 50.6 26.37 50.64C25.72 52.37 25.03 54.09 24.31 55.79C23.62 57.45 22.94 59.11 22.25 60.76C21.66 62.12 21.06 63.47 20.37 64.77C19.83 65.84 19.29 66.91 18.8 68C18.45 68.82 18.08 69.62 17.73 70.44C17.45 71.1 17.17 71.77 16.93 72.45C16.75 73.03 16.55 73.6 16.43 74.19C16.41 74.26 16.4 74.33 16.38 74.4C16.57 73.98 16.76 73.56 16.96 73.14C17.12 72.83 17.29 72.52 17.45 72.22C17.45 72.21 17.46 72.2 17.46 72.2C17.54 71.95 17.67 71.72 17.78 71.49C17.94 71.14 18.16 70.82 18.36 70.49C18.55 70.17 18.75 69.87 18.97 69.57C19.55 68.57 20.2 67.62 20.88 66.68C21.41 65.96 22.02 65.31 22.64 64.67C22.66 64.52 22.77 64.41 22.92 64.38L23.43 63.87C24.44 62.92 25.47 62.01 26.48 61.07C27.67 59.96 28.82 58.81 29.96 57.65C31.27 56.34 32.47 54.94 33.58 53.46C34.82 51.75 35.87 49.91 36.87 48.05C37.21 47.45 37.52 46.84 37.81 46.22L37.69 46.24C37.36 46.24 37.09 45.96 37.09 45.63C37.09 45.29 37.36 45.03 37.69 45.03C37.92 45.03 38.11 45.15 38.22 45.33C38.7 44.22 39.14 43.09 39.52 41.94L39.59 41.7C39.56 41.43 39.54 41.04 39.55 40.49C39.58 39.55 39.6 38.61 39.57 37.67C39.52 35.99 39.41 34.3 39.18 32.63C39 31.49 38.82 30.35 38.49 29.24C38.32 28.68 38.17 28.11 37.92 27.58C37.83 27.43 37.78 27.26 37.65 27.15C35.73 25.46 36.37 25.07 38.27 26.78C38.4 26.9 38.45 27.08 38.54 27.22C38.79 27.76 38.94 28.32 39.11 28.89C39.43 30 39.6 31.14 39.79 32.29C40 33.96 40.11 35.64 40.16 37.33C40.18 38.04 40.17 38.75 40.15 39.46C40.47 37.97 40.71 36.46 40.9 34.95C40.95 34.28 40.98 33.61 40.99 32.94C40.93 32.97 40.86 32.99 40.78 32.99C40.45 32.99 40.17 32.71 40.17 32.38C40.17 32.04 40.45 31.78 40.78 31.78C40.87 31.78 40.94 31.8 41.02 31.83C41.02 30.79 41 29.75 40.97 28.72C40.72 28.64 40.54 28.42 40.54 28.15C40.54 27.89 40.7 27.67 40.93 27.58C40.93 27.48 40.92 27.37 40.92 27.26C40.9 26.84 40.89 26.43 40.87 26.01C40.79 23.67 41.36 23.33 41.45 25.68C41.46 26.09 41.47 26.51 41.49 26.93C41.5 27.17 41.5 27.42 41.51 27.67C41.66 27.78 41.75 27.95 41.75 28.15C41.75 28.33 41.67 28.49 41.55 28.6C41.6 30.61 41.63 32.62 41.47 34.62C41.18 36.97 40.79 39.33 40.1 41.6C39.4 43.72 38.54 45.77 37.45 47.72C36.45 49.57 35.41 51.42 34.16 53.12C33.05 54.6 31.86 56.01 30.55 57.31C29.41 58.47 28.26 59.61 27.07 60.72C26.07 61.66 25.04 62.58 24.03 63.52C23.73 63.82 23.43 64.12 23.13 64.43C23.21 64.47 23.26 64.54 23.28 64.63C24.04 63.86 24.85 63.13 25.65 62.4L28.46 59.91C29.45 59.02 30.45 58.15 31.44 57.27C32.57 56.3 33.66 55.29 34.74 54.26C35.95 53.1 37.15 51.92 38.32 50.72C39.57 49.46 40.75 48.14 41.9 46.79C42.77 45.74 43.61 44.66 44.42 43.57C44.42 43.53 44.41 43.49 44.41 43.45C44.41 43.14 44.65 42.89 44.95 42.86L45.56 42.02C46.64 40.53 47.63 38.97 48.55 37.38C48.51 37.4 48.47 37.41 48.43 37.41C48.25 37.41 48.1 37.26 48.1 37.07C48.1 36.89 48.25 36.73 48.43 36.73C48.59 36.73 48.73 36.85 48.76 37C48.84 36.85 48.93 36.71 49.02 36.56C50.1 34.55 51.13 32.5 51.81 30.32C52.33 28.42 52.63 26.47 52.94 24.53C53.31 22.2 53.89 21.86 53.52 24.19C53.21 26.13 52.91 28.09 52.39 29.99C51.71 32.17 50.68 34.22 49.61 36.22C48.55 38.1 47.42 39.93 46.15 41.68C45.85 42.09 45.56 42.49 45.26 42.9C45.47 42.99 45.62 43.2 45.62 43.45C45.62 43.78 45.35 44.06 45.02 44.06C44.83 44.06 44.66 43.97 44.55 43.84C43.88 44.72 43.2 45.6 42.49 46.45C41.34 47.8 40.16 49.12 38.91 50.38C38.34 50.96 37.77 51.53 37.19 52.1C37.36 51.94 37.67 51.67 38.12 51.28C39.23 50.34 40.34 49.41 41.5 48.53C42.58 47.72 43.68 46.93 44.9 46.33C45 46.13 45.21 46 45.44 46C45.5 46 45.55 46 45.6 46.01C45.78 45.94 45.97 45.89 46.17 45.88C48.59 45.72 48.13 46.04 45.89 46.21C45.98 46.31 46.04 46.45 46.04 46.6C46.04 46.93 45.78 47.2 45.44 47.2C45.11 47.2 44.83 46.93 44.83 46.6C44.83 46.53 44.85 46.48 44.87 46.42L44.37 46.64C43.96 46.8 42.92 47.57 42.1 48.19C40.94 49.07 39.82 50 38.71 50.94C37.57 51.91 36.92 52.41 37.03 52.27C36.47 52.82 35.9 53.37 35.33 53.91C34.25 54.94 33.17 55.95 32.04 56.93C31.05 57.8 30.05 58.67 29.06 59.56C28.13 60.4 27.2 61.23 26.26 62.05C25.4 62.83 24.53 63.62 23.72 64.46C23 65.19 22.27 65.93 21.6 66.71C21.08 67.32 20.55 67.94 20.06 68.58L19.54 69.28C19.52 69.33 19.49 69.37 19.46 69.42C19.01 70.19 18.55 70.96 18.12 71.74L18.09 71.84C18.04 71.96 18 72.09 17.95 72.21C17.59 72.98 17.29 73.52 17.08 73.84C16.75 74.55 16.46 75.28 16.25 76.04C16.03 76.87 15.81 77.7 15.73 78.56C15.65 79.17 15.57 79.77 15.54 80.38L15.68 80.08C16.01 79.47 16.39 78.89 16.77 78.32C17.08 77.84 17.43 77.4 17.79 76.96C17.72 76.86 17.67 76.74 17.67 76.6C17.67 76.27 17.94 75.99 18.28 75.99C18.39 75.99 18.49 76.03 18.58 76.08C19.16 75.48 19.78 74.92 20.41 74.36C21.22 73.62 22.07 72.93 22.94 72.25C23.97 71.45 25.07 70.74 26.16 70.03C27.42 69.21 28.69 68.44 29.97 67.67L30.27 67.5C30.02 67.43 29.83 67.2 29.83 66.92C29.83 66.59 30.11 66.31 30.44 66.31C30.77 66.31 31.04 66.59 31.04 66.92C31.04 67.26 30.77 67.52 30.44 67.52C30.39 67.52 30.34 67.52 30.29 67.51C29.24 68.14 28.19 68.79 27.16 69.45C26.07 70.17 24.98 70.87 23.95 71.67C23.08 72.35 22.23 73.03 21.42 73.77C20.68 74.43 19.94 75.09 19.28 75.82L18.83 76.35C18.86 76.43 18.89 76.51 18.89 76.6C18.89 76.94 18.61 77.2 18.28 77.2C18.24 77.2 18.21 77.2 18.17 77.2C18.04 77.37 17.92 77.55 17.8 77.73C17.42 78.31 17.03 78.88 16.71 79.49C16.49 79.96 16.25 80.42 16.11 80.93C16.04 81.16 15.96 81.39 15.9 81.61C15.98 81.67 16.04 81.78 16.04 81.89C16.04 82.06 15.9 82.21 15.73 82.22C15.68 82.52 15.6 82.82 15.61 83.13C15.62 83.3 15.61 83.48 15.65 83.65C15.67 83.75 15.67 83.86 15.7 83.95C15.97 85.16 18.07 88.35 17.55 89.26ZM17.8 84.25C17.8 84.07 17.95 83.92 18.13 83.92C18.31 83.92 18.46 84.07 18.46 84.25C18.46 84.44 18.31 84.58 18.13 84.58C17.95 84.58 17.8 84.44 17.8 84.25ZM12.9 82.29C12.9 81.95 13.17 81.68 13.5 81.68C13.83 81.68 14.11 81.95 14.11 82.29C14.11 82.62 13.83 82.89 13.5 82.89C13.17 82.89 12.9 82.62 12.9 82.29ZM16.16 81.56C16.16 81.22 16.43 80.96 16.77 80.96C17.1 80.96 17.37 81.22 17.37 81.56C17.37 81.89 17.1 82.17 16.77 82.17C16.43 82.17 16.16 81.89 16.16 81.56ZM12.17 80.14C12.17 79.95 12.32 79.8 12.5 79.8C12.69 79.8 12.83 79.95 12.83 80.14C12.83 80.32 12.69 80.47 12.5 80.47C12.32 80.47 12.17 80.32 12.17 80.14ZM13.68 79.59C13.68 79.41 13.83 79.26 14.02 79.26C14.2 79.26 14.35 79.41 14.35 79.59C14.35 79.78 14.2 79.92 14.02 79.92C13.83 79.92 13.68 79.78 13.68 79.59ZM19.13 78.6C19.13 78.26 19.39 77.99 19.73 77.99C20.06 77.99 20.34 78.26 20.34 78.6C20.34 78.93 20.06 79.2 19.73 79.2C19.39 79.2 19.13 78.93 19.13 78.6ZM20.82 77.84C20.82 77.66 20.97 77.51 21.15 77.51C21.33 77.51 21.48 77.66 21.48 77.84C21.48 78.02 21.33 78.17 21.15 78.17C20.97 78.17 20.82 78.02 20.82 77.84ZM12.23 76.91C12.23 76.57 12.5 76.3 12.83 76.3C13.17 76.3 13.44 76.57 13.44 76.91C13.44 77.24 13.17 77.51 12.83 77.51C12.5 77.51 12.23 77.24 12.23 76.91ZM13.62 75.15C13.62 74.81 13.89 74.54 14.23 74.54C14.56 74.54 14.83 74.81 14.83 75.15C14.83 75.48 14.56 75.75 14.23 75.75C13.89 75.75 13.62 75.48 13.62 75.15ZM21.73 75.18C21.73 75 21.88 74.85 22.06 74.85C22.24 74.85 22.39 75 22.39 75.18C22.39 75.36 22.24 75.51 22.06 75.51C21.88 75.51 21.73 75.36 21.73 75.18ZM25.84 74.36C25.84 74.03 26.11 73.76 26.44 73.76C26.78 73.76 27.05 74.03 27.05 74.36C27.05 74.69 26.78 74.97 26.44 74.97C26.11 74.97 25.84 74.69 25.84 74.36ZM19.37 73.64C19.37 73.31 19.64 73.03 19.98 73.03C20.31 73.03 20.58 73.31 20.58 73.64C20.58 73.97 20.31 74.24 19.98 74.24C19.64 74.24 19.37 73.97 19.37 73.64ZM22.34 74.09C22.32 74.09 22.69 73.8 23.56 73.16C24.03 72.81 24.5 72.44 25 72.13C26.12 71.47 27.24 70.8 28.42 70.27C29.27 69.89 30.12 69.5 30.99 69.17C31.6 68.93 32.2 68.68 32.81 68.45L33.59 68.15C35.98 67.24 35.36 67.6 32.97 68.51L32.19 68.8C31.58 69.04 30.98 69.28 30.38 69.52C29.84 69.73 29.31 69.96 28.78 70.2C29.09 70.22 29.35 70.47 29.35 70.79C29.35 71.12 29.08 71.4 28.74 71.4C28.41 71.4 28.14 71.12 28.14 70.79C28.14 70.64 28.19 70.51 28.28 70.41L27.82 70.61C27.15 70.88 25.82 71.67 25.61 71.79C25.11 72.1 24.64 72.46 24.17 72.81C23.05 73.63 22.37 74.1 22.34 74.09L22.34 74.09ZM13.32 72.85C13.32 72.51 13.59 72.25 13.92 72.25C14.26 72.25 14.53 72.51 14.53 72.85C14.53 73.18 14.26 73.46 13.92 73.46C13.59 73.46 13.32 73.18 13.32 72.85ZM26.8 72.46C26.8 72.28 26.95 72.13 27.14 72.13C27.32 72.13 27.47 72.28 27.47 72.46C27.47 72.64 27.32 72.79 27.14 72.79C26.95 72.79 26.8 72.64 26.8 72.46ZM15.56 71.33C15.56 71 15.83 70.73 16.16 70.73C16.5 70.73 16.77 71 16.77 71.33C16.77 71.67 16.5 71.94 16.16 71.94C15.83 71.94 15.56 71.67 15.56 71.33ZM18.82 71.16C18.82 70.82 19.1 70.55 19.43 70.55C19.76 70.55 20.03 70.82 20.03 71.16C20.03 71.49 19.76 71.76 19.43 71.76C19.1 71.76 18.82 71.49 18.82 71.16ZM10.9 70.95C10.9 70.76 11.05 70.61 11.23 70.61C11.41 70.61 11.56 70.76 11.56 70.95C11.56 71.13 11.41 71.28 11.23 71.28C11.05 71.28 10.9 71.13 10.9 70.95ZM32.01 69.79C32.01 69.61 32.16 69.46 32.34 69.46C32.52 69.46 32.67 69.61 32.67 69.79C32.67 69.98 32.52 70.13 32.34 70.13C32.16 70.13 32.01 69.98 32.01 69.79ZM24.51 69.46C24.51 69.13 24.78 68.86 25.12 68.86C25.45 68.86 25.72 69.13 25.72 69.46C25.72 69.8 25.45 70.07 25.12 70.07C24.78 70.07 24.51 69.8 24.51 69.46ZM35.79 69.52C35.61 69.52 35.46 69.38 35.46 69.19C35.46 69.13 35.48 69.07 35.51 69.02C35.45 69.03 35.4 69.04 35.34 69.04C35 69.04 34.73 68.77 34.73 68.44C34.73 68.1 35 67.83 35.34 67.83C35.67 67.83 35.94 68.1 35.94 68.44C35.94 68.6 35.87 68.75 35.76 68.86L35.79 68.86C35.97 68.86 36.12 69.01 36.12 69.19C36.12 69.38 35.97 69.52 35.79 69.52L35.79 69.52ZM37.27 67.52C37.27 67.19 37.54 66.92 37.88 66.92C38.21 66.92 38.48 67.19 38.48 67.52C38.48 67.86 38.21 68.13 37.88 68.13C37.54 68.13 37.27 67.86 37.27 67.52ZM16.65 67.52C16.65 67.19 16.92 66.92 17.25 66.92C17.59 66.92 17.85 67.19 17.85 67.52C17.85 67.86 17.59 68.13 17.25 68.13C16.92 68.13 16.65 67.86 16.65 67.52ZM21.42 67.47C21.42 67.13 21.69 66.86 22.03 66.86C22.36 66.86 22.63 67.13 22.63 67.47C22.63 67.8 22.36 68.07 22.03 68.07C21.69 68.07 21.42 67.8 21.42 67.47ZM39.09 67.68C39.09 67.5 39.23 67.35 39.42 67.35C39.6 67.35 39.75 67.5 39.75 67.68C39.75 67.86 39.6 68.01 39.42 68.01C39.23 68.01 39.09 67.86 39.09 67.68ZM26.08 67.26C26.08 67.07 26.23 66.92 26.42 66.92C26.6 66.92 26.75 67.07 26.75 67.26C26.75 67.44 26.6 67.59 26.42 67.59C26.23 67.59 26.08 67.44 26.08 67.26ZM20.88 67.19C20.88 67.19 20.88 67.19 20.88 67.19C20.88 67.19 20.88 67.19 20.88 67.19L20.88 67.19ZM20.88 67.19C20.92 67.15 20.95 67.11 20.99 67.06C21.59 66.36 22.24 65.7 22.89 65.04C22.8 65.01 22.73 64.96 22.68 64.89C22.26 65.35 21.85 65.83 21.48 66.34C21.28 66.62 21.08 66.9 20.88 67.19ZM32.38 66.28C32.39 66.28 32.4 66.27 32.41 66.27C32.4 66.27 32.39 66.28 32.38 66.28L32.38 66.28ZM32.41 66.27C33.38 65.71 34.35 65.16 35.33 64.61C35.45 64.55 35.64 64.44 35.81 64.35C35.57 64.27 35.39 64.04 35.39 63.78C35.39 63.44 35.67 63.17 36 63.17C36.34 63.17 36.6 63.44 36.6 63.78C36.6 63.82 36.6 63.87 36.59 63.91L38.66 62.74C37.97 63.14 37.28 63.54 36.58 63.93C36.51 64.19 36.28 64.38 36 64.38C35.94 64.38 35.89 64.37 35.83 64.36C35.34 64.63 34.84 64.91 34.34 65.18C33.64 65.57 32.98 65.94 32.41 66.27ZM39.81 65.86C39.81 65.68 39.96 65.53 40.15 65.53C40.33 65.53 40.48 65.68 40.48 65.86C40.48 66.05 40.33 66.19 40.15 66.19C39.96 66.19 39.81 66.05 39.81 65.86ZM17.01 65.29C16.67 65.29 16.4 65.02 16.4 64.68C16.4 64.35 16.67 64.08 17.01 64.08C17.12 64.08 17.22 64.11 17.31 64.16C17.32 63.98 17.46 63.83 17.64 63.83C17.83 63.83 17.97 63.99 17.97 64.17C17.97 64.36 17.83 64.51 17.64 64.51C17.62 64.51 17.6 64.5 17.58 64.5C17.6 64.56 17.61 64.62 17.61 64.68C17.61 65.02 17.34 65.29 17.01 65.29ZM14.71 64.89C14.71 64.71 14.86 64.56 15.04 64.56C15.22 64.56 15.37 64.71 15.37 64.89C15.37 65.08 15.22 65.23 15.04 65.23C14.86 65.23 14.71 65.08 14.71 64.89ZM18.64 62.33C18.64 61.99 18.91 61.72 19.25 61.72C19.58 61.72 19.85 61.99 19.85 62.33C19.85 62.66 19.58 62.93 19.25 62.93C18.91 62.93 18.64 62.66 18.64 62.33ZM44.47 62.48C44.47 62.29 44.62 62.14 44.81 62.14C44.99 62.14 45.14 62.29 45.14 62.48C45.14 62.66 44.99 62.81 44.81 62.81C44.62 62.81 44.47 62.66 44.47 62.48ZM38.9 62.6C40.39 61.74 41.8 60.76 43.17 59.72C44.22 58.91 45.22 58.04 46.18 57.14C46.18 57.13 46.18 57.11 46.18 57.1C45.7 57.52 45.2 57.9 44.71 58.3C42.8 59.82 42.2 60.17 44.11 58.64C44.65 58.21 45.21 57.78 45.73 57.32C46.45 56.7 47.18 56.06 47.89 55.43C49.16 54.07 50.27 52.58 51.32 51.05C52.58 49.28 53.49 47.32 54.24 45.29C55.03 43.08 55.35 40.76 55.52 38.44C55.73 36.36 55.55 34.29 55.29 32.22C54.8 28.37 55.75 27.82 56.24 31.68C56.51 33.74 56.7 35.81 56.49 37.89C56.34 39.91 56.08 41.91 55.5 43.85C55.6 43.75 55.75 43.69 55.91 43.69C56.24 43.69 56.51 43.96 56.51 44.3C56.51 44.63 56.24 44.91 55.91 44.91C55.61 44.91 55.37 44.69 55.31 44.42C55.28 44.52 55.25 44.63 55.21 44.73C54.46 46.76 53.54 48.71 52.29 50.49C51.6 51.5 50.88 52.5 50.1 53.45C50.66 52.94 51.21 52.44 51.76 51.92L52.43 51.23C52.49 51.08 52.59 50.97 52.73 50.9C53.18 50.41 53.61 49.9 53.97 49.34C54.54 48.5 55.1 47.66 55.65 46.8C56.19 45.95 56.73 45.09 57.26 44.23C57.7 43.48 58.16 42.73 58.56 41.96C58.78 41.49 59.02 41.03 59.17 40.53C59.24 40.34 59.29 40.15 59.38 39.97C59.61 39.51 59.81 39.15 59.99 38.85C59.79 38.76 59.65 38.55 59.65 38.31C59.65 37.99 59.91 37.73 60.23 37.71C60.14 37.65 60.08 37.55 60.08 37.43C60.08 37.25 60.23 37.1 60.41 37.1C60.59 37.1 60.74 37.25 60.74 37.43C60.74 37.59 60.64 37.71 60.49 37.75C60.71 37.84 60.86 38.06 60.86 38.31C60.86 38.61 60.64 38.86 60.35 38.9C60.26 39.1 60.15 39.34 60.01 39.61C59.91 39.79 59.87 39.98 59.79 40.17C59.63 40.67 59.39 41.13 59.17 41.6L58.93 42.05C59.04 41.94 59.18 41.88 59.35 41.88C59.68 41.88 59.96 42.15 59.96 42.48C59.96 42.82 59.68 43.09 59.35 43.09C59.01 43.09 58.75 42.82 58.75 42.48C58.75 42.44 58.75 42.4 58.76 42.36C58.47 42.87 58.17 43.37 57.86 43.87C57.34 44.74 56.8 45.59 56.26 46.45C55.71 47.3 55.15 48.15 54.58 48.99C54.14 49.66 53.62 50.26 53.07 50.84C53.37 50.87 53.61 51.13 53.61 51.44C53.61 51.77 53.33 52.04 53 52.04C52.69 52.04 52.44 51.82 52.4 51.52L52.36 51.57C51.4 52.48 50.43 53.35 49.46 54.23L49.41 54.27C49.09 54.63 48.77 54.98 48.43 55.32C47.97 55.79 47.5 56.24 47.03 56.69C47.23 56.79 47.37 57 47.37 57.24C47.37 57.58 47.1 57.85 46.77 57.85C46.51 57.85 46.29 57.68 46.21 57.45C45.54 58.04 44.86 58.6 44.15 59.15C42.76 60.2 41.32 61.2 39.81 62.08L38.9 62.6ZM35.22 62.12C35.22 61.93 35.37 61.78 35.55 61.78C35.73 61.78 35.88 61.93 35.88 62.12C35.88 62.3 35.73 62.45 35.55 62.45C35.37 62.45 35.22 62.3 35.22 62.12ZM41.6 62.2L41.54 62.2C41.36 62.2 41.21 62.05 41.21 61.87C41.21 61.68 41.36 61.54 41.54 61.54C41.72 61.54 41.87 61.68 41.87 61.87C41.87 62.03 41.75 62.17 41.6 62.2ZM27.6 61.42C27.6 61.08 27.86 60.81 28.2 60.81C28.53 60.81 28.81 61.08 28.81 61.42C28.81 61.75 28.53 62.02 28.2 62.02C27.86 62.02 27.6 61.75 27.6 61.42ZM29.71 61.51C29.71 61.32 29.86 61.18 30.04 61.18C30.23 61.18 30.38 61.32 30.38 61.51C30.38 61.69 30.23 61.84 30.04 61.84C29.86 61.84 29.71 61.69 29.71 61.51ZM38.48 59.99C38.48 59.81 38.63 59.66 38.82 59.66C39 59.66 39.15 59.81 39.15 59.99C39.15 60.18 39 60.33 38.82 60.33C38.63 60.33 38.48 60.18 38.48 59.99ZM41.21 59.54C41.21 59.21 41.47 58.93 41.81 58.93C42.14 58.93 42.42 59.21 42.42 59.54C42.42 59.88 42.14 60.15 41.81 60.15C41.47 60.15 41.21 59.88 41.21 59.54ZM19.85 59.3C19.85 58.97 20.12 58.69 20.46 58.69C20.79 58.69 21.06 58.97 21.06 59.3C21.06 59.64 20.79 59.9 20.46 59.9C20.12 59.9 19.85 59.64 19.85 59.3ZM48.76 58.97C48.76 58.79 48.91 58.64 49.1 58.64C49.28 58.64 49.43 58.79 49.43 58.97C49.43 59.15 49.28 59.3 49.1 59.3C48.91 59.3 48.76 59.15 48.76 58.97ZM27.17 58.57C27.17 58.24 27.44 57.97 27.77 57.97C28.11 57.97 28.38 58.24 28.38 58.57C28.38 58.91 28.11 59.18 27.77 59.18C27.44 59.18 27.17 58.91 27.17 58.57ZM18.4 57.82C18.4 57.63 18.55 57.48 18.73 57.48C18.91 57.48 19.06 57.63 19.06 57.82C19.06 58 18.91 58.15 18.73 58.15C18.55 58.15 18.4 58 18.4 57.82ZM42.54 57.48C42.54 57.15 42.8 56.88 43.14 56.88C43.47 56.88 43.74 57.15 43.74 57.48C43.74 57.82 43.47 58.09 43.14 58.09C42.8 58.09 42.54 57.82 42.54 57.48ZM21.42 57.48C21.09 57.48 20.82 57.22 20.82 56.88C20.82 56.65 20.95 56.46 21.14 56.35C21.13 56.32 21.12 56.29 21.12 56.25C21.12 56.06 21.27 55.91 21.45 55.91C21.64 55.91 21.79 56.06 21.79 56.25C21.79 56.3 21.78 56.34 21.76 56.38C21.92 56.49 22.03 56.67 22.03 56.88C22.03 57.22 21.76 57.48 21.42 57.48L21.42 57.48ZM33.88 56.34C33.88 56.01 34.16 55.73 34.49 55.73C34.82 55.73 35.09 56.01 35.09 56.34C35.09 56.67 34.82 56.94 34.49 56.94C34.16 56.94 33.88 56.67 33.88 56.34ZM23.35 56.72C23.22 56.73 23.2 56.22 23.41 55.12C23.65 53.85 23.88 52.58 24.02 51.3C24.18 49.72 24.27 48.13 24.22 46.55C24.15 45.36 24.08 44.18 23.87 43C23.74 42.21 23.62 41.42 23.41 40.64C23.32 40.34 23.26 40.04 23.13 39.75C22.04 37.44 22.7 37.06 23.75 39.39C23.88 39.68 23.94 39.99 24.03 40.29C24.23 41.07 24.35 41.86 24.48 42.65C24.68 43.83 24.76 45.01 24.82 46.2C24.87 47.79 24.77 49.38 24.61 50.96C24.46 52.24 24.24 53.51 24 54.78C23.76 56.03 23.49 56.71 23.35 56.72L23.35 56.72ZM35.94 56.37C35.94 56.18 36.09 56.04 36.27 56.04C36.46 56.04 36.6 56.18 36.6 56.37C36.6 56.55 36.46 56.7 36.27 56.7C36.09 56.7 35.94 56.55 35.94 56.37ZM26.02 56.13C26.02 55.94 26.17 55.79 26.35 55.79C26.54 55.79 26.68 55.94 26.68 56.13C26.68 56.31 26.54 56.46 26.35 56.46C26.17 56.46 26.02 56.31 26.02 56.13ZM29.71 54.76C29.71 54.43 29.98 54.16 30.32 54.16C30.65 54.16 30.92 54.43 30.92 54.76C30.92 55.1 30.65 55.37 30.32 55.37C29.98 55.37 29.71 55.1 29.71 54.76ZM46.59 54.28C46.59 53.95 46.86 53.67 47.2 53.67C47.53 53.67 47.8 53.95 47.8 54.28C47.8 54.62 47.53 54.88 47.2 54.88C46.86 54.88 46.59 54.62 46.59 54.28ZM53.66 53.16C53.66 52.97 53.81 52.83 54 52.83C54.18 52.83 54.33 52.97 54.33 53.16C54.33 53.34 54.18 53.49 54 53.49C53.81 53.49 53.66 53.34 53.66 53.16ZM41.87 50.05C41.87 49.71 42.14 49.44 42.47 49.44C42.81 49.44 43.08 49.71 43.08 50.05C43.08 50.38 42.81 50.65 42.47 50.65C42.14 50.65 41.87 50.38 41.87 50.05ZM48.58 49.35C48.58 49.16 48.73 49.01 48.91 49.01C49.1 49.01 49.25 49.16 49.25 49.35C49.25 49.53 49.1 49.68 48.91 49.68C48.73 49.68 48.58 49.53 48.58 49.35ZM18.89 48.65C18.89 48.32 19.15 48.05 19.49 48.05C19.82 48.05 20.1 48.32 20.1 48.65C20.1 48.99 19.82 49.26 19.49 49.26C19.15 49.26 18.89 48.99 18.89 48.65ZM34.79 49.01C34.46 49.01 34.19 48.75 34.19 48.41C34.19 48.08 34.46 47.81 34.79 47.81C35.13 47.81 35.4 48.08 35.4 48.41C35.4 48.75 35.13 49.01 34.79 49.01ZM57.78 47.96C57.78 47.78 57.93 47.63 58.11 47.63C58.29 47.63 58.44 47.78 58.44 47.96C58.44 48.14 58.29 48.29 58.11 48.29C57.93 48.29 57.78 48.14 57.78 47.96ZM56.75 47.2C56.75 46.87 57.02 46.6 57.35 46.6C57.69 46.6 57.96 46.87 57.96 47.2C57.96 47.54 57.69 47.81 57.35 47.81C57.02 47.81 56.75 47.54 56.75 47.2ZM37.94 47.02C37.94 46.69 38.21 46.41 38.54 46.41C38.88 46.41 39.15 46.69 39.15 47.02C39.15 47.35 38.88 47.63 38.54 47.63C38.21 47.63 37.94 47.35 37.94 47.02ZM27.96 46.36C27.96 46.02 28.22 45.75 28.56 45.75C28.89 45.75 29.17 46.02 29.17 46.36C29.17 46.69 28.89 46.96 28.56 46.96C28.22 46.96 27.96 46.69 27.96 46.36ZM21.91 44.02C21.91 43.84 22.05 43.69 22.24 43.69C22.42 43.69 22.57 43.84 22.57 44.02C22.57 44.21 22.42 44.36 22.24 44.36C22.05 44.36 21.91 44.21 21.91 44.02ZM25.12 43.63C25.12 43.3 25.38 43.03 25.72 43.03C26.05 43.03 26.32 43.3 26.32 43.63C26.32 43.97 26.05 44.24 25.72 44.24C25.38 44.23 25.12 43.97 25.12 43.63ZM51.79 43.45C51.79 43.12 52.06 42.85 52.39 42.85C52.73 42.85 53 43.12 53 43.45C53 43.78 52.73 44.06 52.39 44.06C52.06 44.06 51.79 43.78 51.79 43.45ZM29.1 43.12C29.1 42.93 29.26 42.79 29.44 42.79C29.63 42.79 29.77 42.93 29.77 43.12C29.77 43.3 29.63 43.45 29.44 43.45C29.26 43.45 29.1 43.3 29.1 43.12ZM37.21 40.3C37.21 39.97 37.49 39.7 37.82 39.7C38.15 39.7 38.42 39.97 38.42 40.3C38.42 40.64 38.15 40.91 37.82 40.91C37.49 40.91 37.21 40.64 37.21 40.3ZM44.35 40.25C44.35 39.91 44.62 39.64 44.95 39.64C45.29 39.64 45.56 39.91 45.56 40.25C45.56 40.58 45.29 40.85 44.95 40.85C44.62 40.85 44.35 40.58 44.35 40.25ZM56.93 39.58C56.93 39.25 57.2 38.98 57.54 38.98C57.87 38.98 58.14 39.25 58.14 39.58C58.14 39.92 57.87 40.18 57.54 40.18C57.2 40.18 56.93 39.92 56.93 39.58ZM26.68 39.1C26.68 38.76 26.96 38.49 27.29 38.49C27.63 38.49 27.89 38.76 27.89 39.1C27.89 39.43 27.63 39.7 27.29 39.7C26.96 39.7 26.68 39.43 26.68 39.1ZM42.05 39.04C42.05 38.7 42.32 38.43 42.66 38.43C42.99 38.43 43.26 38.7 43.26 39.04C43.26 39.37 42.99 39.64 42.66 39.64C42.32 39.64 42.05 39.37 42.05 39.04ZM30.53 38.31C30.35 38.31 30.19 38.16 30.19 37.98C30.19 37.79 30.35 37.65 30.53 37.65C30.71 37.65 30.86 37.79 30.86 37.98C30.86 38.16 30.71 38.31 30.53 38.31ZM21.81 37.34C21.63 37.34 21.48 37.19 21.48 37.01C21.48 36.83 21.63 36.68 21.81 36.68C22 36.68 22.15 36.83 22.15 37.01C22.15 37.19 22 37.34 21.81 37.34ZM43.77 37.22C43.59 37.22 43.44 37.07 43.44 36.89C43.44 36.71 43.59 36.56 43.77 36.56C43.96 36.56 44.11 36.71 44.11 36.89C44.11 37.07 43.96 37.22 43.77 37.22ZM53.48 36.68C53.15 36.68 52.88 36.4 52.88 36.07C52.88 35.74 53.15 35.47 53.48 35.47C53.81 35.47 54.09 35.74 54.09 36.07C54.09 36.4 53.81 36.68 53.48 36.68ZM37.09 36.1C37.09 35.92 37.24 35.77 37.42 35.77C37.61 35.77 37.76 35.92 37.76 36.1C37.76 36.29 37.61 36.44 37.42 36.44C37.24 36.44 37.09 36.29 37.09 36.1ZM60.86 35.56C60.86 35.38 61.01 35.23 61.19 35.23C61.38 35.23 61.53 35.38 61.53 35.56C61.53 35.74 61.38 35.89 61.19 35.89C61.01 35.89 60.86 35.74 60.86 35.56ZM38.18 35.77C37.85 35.77 37.57 35.5 37.57 35.16C37.57 34.83 37.85 34.56 38.18 34.56C38.51 34.56 38.78 34.83 38.78 35.16C38.78 35.5 38.51 35.77 38.18 35.77ZM47.25 34.98C47.25 34.65 47.53 34.38 47.86 34.38C48.19 34.38 48.46 34.65 48.46 34.98C48.46 35.31 48.19 35.59 47.86 35.59C47.53 35.59 47.25 35.31 47.25 34.98ZM51.67 34.41C51.67 34.22 51.82 34.08 52 34.08C52.19 34.08 52.34 34.22 52.34 34.41C52.34 34.59 52.19 34.74 52 34.74C51.82 34.74 51.67 34.59 51.67 34.41ZM60.44 33.96C60.44 33.62 60.71 33.35 61.05 33.35C61.38 33.35 61.65 33.62 61.65 33.96C61.65 34.29 61.38 34.56 61.05 34.56C60.71 34.56 60.44 34.29 60.44 33.96ZM28.95 34.56C28.77 34.56 28.62 34.41 28.62 34.22C28.62 34.04 28.77 33.89 28.95 33.89C29.14 33.89 29.29 34.04 29.29 34.22C29.29 34.38 29.18 34.53 29.03 34.56L28.95 34.56ZM56.51 33.26C56.51 33.08 56.66 32.92 56.84 32.92C57.02 32.92 57.17 33.08 57.17 33.26C57.17 33.45 57.02 33.59 56.84 33.59C56.66 33.59 56.51 33.45 56.51 33.26ZM32.01 32.38C32.01 32.04 32.28 31.78 32.62 31.78C32.95 31.78 33.22 32.04 33.22 32.38C33.22 32.71 32.95 32.99 32.62 32.99C32.28 32.99 32.01 32.71 32.01 32.38ZM52.76 32.17C52.76 31.99 52.91 31.83 53.09 31.83C53.28 31.83 53.42 31.99 53.42 32.17C53.42 32.36 53.28 32.51 53.09 32.51C52.91 32.51 52.76 32.36 52.76 32.17ZM43.14 31.66C42.8 31.66 42.54 31.38 42.54 31.05C42.54 30.72 42.8 30.45 43.14 30.45C43.31 30.45 43.47 30.52 43.58 30.63C43.61 30.49 43.74 30.38 43.89 30.38C44.08 30.38 44.23 30.53 44.23 30.72C44.23 30.9 44.08 31.05 43.89 31.05C43.84 31.05 43.78 31.04 43.74 31.01C43.74 31.03 43.74 31.04 43.74 31.05C43.74 31.38 43.47 31.66 43.14 31.66ZM49.31 30.6C49.31 30.41 49.46 30.26 49.64 30.26C49.83 30.26 49.97 30.41 49.97 30.6C49.97 30.78 49.83 30.93 49.64 30.93C49.46 30.93 49.31 30.78 49.31 30.6ZM59.6 30.48C59.6 30.29 59.74 30.14 59.93 30.14C60.11 30.14 60.26 30.29 60.26 30.48C60.26 30.66 60.11 30.81 59.93 30.81C59.74 30.81 59.6 30.66 59.6 30.48ZM57.35 30.75C57.02 30.75 56.75 30.48 56.75 30.14C56.75 29.81 57.02 29.54 57.35 29.54C57.69 29.54 57.96 29.81 57.96 30.14C57.96 30.48 57.69 30.75 57.35 30.75ZM31.46 29.96C31.46 29.63 31.74 29.36 32.07 29.36C32.41 29.36 32.67 29.63 32.67 29.96C32.67 30.29 32.41 30.57 32.07 30.57C31.74 30.57 31.46 30.29 31.46 29.96ZM37.21 29.9C36.99 29.9 36.8 29.78 36.7 29.6C36.61 29.54 36.55 29.44 36.55 29.32C36.55 29.23 36.59 29.15 36.65 29.09C36.73 28.86 36.95 28.7 37.21 28.7C37.55 28.7 37.82 28.96 37.82 29.3C37.82 29.63 37.55 29.9 37.21 29.9L37.21 29.9ZM50.76 29.36C50.42 29.36 50.16 29.09 50.16 28.75C50.16 28.42 50.42 28.15 50.76 28.15C51.09 28.15 51.37 28.42 51.37 28.75C51.37 29.09 51.09 29.36 50.76 29.36ZM28.44 28.75C28.1 28.75 27.84 28.48 27.84 28.15C27.84 27.82 28.1 27.54 28.44 27.54C28.77 27.54 29.05 27.82 29.05 28.15C29.05 28.48 28.77 28.75 28.44 28.75ZM38.3 26.55C38.3 26.36 38.45 26.21 38.63 26.21C38.82 26.21 38.97 26.36 38.97 26.55C38.97 26.73 38.82 26.88 38.63 26.88C38.45 26.88 38.3 26.73 38.3 26.55ZM58.68 26.43C58.68 26.24 58.83 26.09 59.02 26.09C59.2 26.09 59.35 26.24 59.35 26.43C59.35 26.61 59.2 26.76 59.02 26.76C58.83 26.76 58.68 26.61 58.68 26.43ZM31.04 26.36C31.04 26.18 31.19 26.03 31.37 26.03C31.56 26.03 31.7 26.18 31.7 26.36C31.7 26.55 31.56 26.69 31.37 26.69C31.19 26.69 31.04 26.55 31.04 26.36ZM54.45 24.97C54.45 24.79 54.6 24.64 54.78 24.64C54.97 24.64 55.11 24.79 55.11 24.97C55.11 25.15 54.97 25.3 54.78 25.3C54.6 25.3 54.45 25.15 54.45 24.97ZM55.48 24.21C55.48 23.88 55.75 23.61 56.08 23.61C56.42 23.61 56.69 23.88 56.69 24.21C56.69 24.55 56.42 24.82 56.08 24.82C55.75 24.82 55.48 24.55 55.48 24.21ZM34 23.76C34 23.58 34.16 23.43 34.34 23.43C34.53 23.43 34.67 23.58 34.67 23.76C34.67 23.94 34.53 24.09 34.34 24.09C34.16 24.09 34 23.94 34 23.76ZM36.48 23.25C36.48 22.92 36.76 22.64 37.09 22.64C37.43 22.64 37.69 22.92 37.69 23.25C37.69 23.59 37.43 23.85 37.09 23.85C36.76 23.85 36.48 23.59 36.48 23.25ZM31.28 22.28C31.28 21.95 31.55 21.67 31.89 21.67C32.22 21.67 32.5 21.95 32.5 22.28C32.5 22.62 32.22 22.88 31.89 22.88C31.55 22.88 31.28 22.62 31.28 22.28ZM49.01 22.37C49.01 22.18 49.15 22.03 49.34 22.03C49.52 22.03 49.67 22.18 49.67 22.37C49.67 22.55 49.52 22.71 49.34 22.71C49.15 22.71 49.01 22.55 49.01 22.37ZM40.9 22.04C40.9 21.7 41.17 21.43 41.5 21.43C41.84 21.43 42.11 21.7 42.11 22.04C42.11 22.37 41.84 22.64 41.5 22.64C41.17 22.64 40.9 22.37 40.9 22.04ZM51.61 21.7C51.61 21.52 51.76 21.37 51.94 21.37C52.12 21.37 52.27 21.52 52.27 21.7C52.27 21.89 52.12 22.04 51.94 22.04C51.76 22.04 51.61 21.89 51.61 21.7ZM39.93 20.32C39.93 20.13 40.08 19.98 40.27 19.98C40.45 19.98 40.6 20.13 40.6 20.32C40.6 20.5 40.45 20.65 40.27 20.65C40.08 20.65 39.93 20.5 39.93 20.32ZM26.69 19.86C26.69 19.52 26.96 19.26 27.29 19.26C27.63 19.26 27.89 19.52 27.89 19.86C27.89 20.19 27.63 20.47 27.29 20.47C26.96 20.47 26.69 20.19 26.69 19.86ZM49.73 18.68C49.73 18.5 49.88 18.35 50.07 18.35C50.25 18.35 50.4 18.5 50.4 18.68C50.4 18.87 50.25 19.02 50.07 19.02C49.88 19.02 49.73 18.87 49.73 18.68ZM51.61 17.98C51.61 17.65 51.88 17.38 52.22 17.38C52.55 17.38 52.82 17.65 52.82 17.98C52.82 18.32 52.55 18.59 52.22 18.59C51.88 18.59 51.61 18.32 51.61 17.98ZM26.14 17.35C26.14 17.16 26.29 17.02 26.47 17.02C26.66 17.02 26.81 17.16 26.81 17.35C26.81 17.53 26.66 17.68 26.47 17.68C26.29 17.68 26.14 17.53 26.14 17.35ZM51.91 16.08C51.91 15.9 52.06 15.75 52.24 15.75C52.43 15.75 52.58 15.9 52.58 16.08C52.58 16.27 52.43 16.41 52.24 16.41C52.06 16.41 51.91 16.27 51.91 16.08ZM35.28 15.17C35.28 14.99 35.42 14.84 35.61 14.84C35.79 14.84 35.94 14.99 35.94 15.17C35.94 15.35 35.79 15.5 35.61 15.5C35.42 15.5 35.28 15.35 35.28 15.17ZM26.75 13.54C26.75 13.35 26.9 13.2 27.08 13.2C27.26 13.2 27.41 13.35 27.41 13.54C27.41 13.72 27.26 13.87 27.08 13.87C26.9 13.87 26.75 13.72 26.75 13.54ZM28.44 12.33C28.44 12.14 28.59 12 28.77 12C28.95 12 29.1 12.14 29.1 12.33C29.1 12.51 28.95 12.66 28.77 12.66C28.59 12.66 28.44 12.51 28.44 12.33Z" />
		<path id="Layer" class="shp7" d="M62.4 20.25C62.4 25.67 58.01 30.06 52.59 30.06C47.17 30.06 42.78 25.67 42.78 20.25C42.78 14.83 47.17 10.43 52.59 10.43C58.01 10.43 62.4 14.83 62.4 20.25Z" />
		<g id="Layer">
			<path id="Layer" class="shp8" d="M52.57 13.14C51.18 13.14 50.05 14.5 50.05 16.17C50.05 16.85 50.25 17.55 50.59 18.12C50.03 17.72 49.32 17.49 48.62 17.49C47.08 17.49 45.82 18.71 45.82 20.21C45.82 21.72 47.08 22.93 48.62 22.93C50.02 22.93 51.44 21.87 51.69 20.55C51.89 21.24 52 21.98 52 22.75C52 24.55 51.42 26.17 50.5 27.35L54.78 27.35C53.8 26.17 53.19 24.5 53.19 22.65C53.19 21.9 53.29 21.19 53.47 20.53C53.63 21.91 55.11 22.93 56.57 22.93C58.12 22.93 59.37 21.72 59.37 20.21C59.37 18.71 58.12 17.49 56.57 17.49C55.85 17.49 55.11 17.77 54.54 18.23C54.89 17.63 55.09 16.9 55.09 16.17C55.09 14.5 53.96 13.14 52.57 13.14L52.57 13.14Z" />
		</g>
		<path id="Layer" class="shp9" d="M62.94 81.01C62.94 86.43 58.55 90.82 53.13 90.82C47.71 90.82 43.32 86.43 43.32 81.01C43.32 75.59 47.71 71.2 53.13 71.2C58.55 71.2 62.94 75.59 62.94 81.01Z" />
		<g id="Layer">
			<path id="Layer" class="shp10" d="M53.11 73.91C51.72 73.91 50.59 75.26 50.59 76.93C50.59 77.62 50.79 78.31 51.13 78.89C50.57 78.49 49.86 78.25 49.16 78.25C47.62 78.25 46.36 79.47 46.36 80.97C46.36 82.48 47.62 83.7 49.16 83.7C50.56 83.7 51.98 82.63 52.23 81.31C52.43 82 52.54 82.74 52.54 83.52C52.54 85.31 51.96 86.94 51.04 88.11L55.32 88.11C54.34 86.93 53.73 85.26 53.73 83.41C53.73 82.67 53.83 81.95 54.01 81.29C54.17 82.67 55.65 83.7 57.11 83.7C58.66 83.7 59.91 82.48 59.91 80.97C59.91 79.47 58.66 78.25 57.11 78.25C56.39 78.25 55.65 78.53 55.08 78.99C55.43 78.39 55.63 77.66 55.63 76.93C55.63 75.26 54.5 73.91 53.11 73.91L53.11 73.91Z" />
		</g>
		<path id="Layer" class="shp11" d="M29.58 40.53C29.58 45.95 25.19 50.34 19.77 50.34C14.35 50.34 9.96 45.95 9.96 40.53C9.96 35.11 14.35 30.72 19.77 30.72C25.19 30.72 29.58 35.11 29.58 40.53Z" />
		<g id="Layer">
			<path id="Layer" class="shp12" d="M19.75 33.43C18.36 33.43 17.23 34.78 17.23 36.45C17.23 37.14 17.43 37.83 17.77 38.41C17.21 38.01 16.5 37.77 15.8 37.77C14.26 37.77 13 38.99 13 40.5C13 42 14.26 43.22 15.8 43.22C17.2 43.22 18.62 42.15 18.87 40.84C19.07 41.52 19.18 42.27 19.18 43.04C19.18 44.83 18.6 46.46 17.68 47.63L21.96 47.63C20.98 46.45 20.37 44.78 20.37 42.93C20.37 42.19 20.47 41.48 20.65 40.81C20.81 42.2 22.29 43.22 23.75 43.22C25.3 43.22 26.55 42 26.55 40.5C26.55 38.99 25.3 37.77 23.75 37.77C23.03 37.77 22.29 38.06 21.72 38.51C22.07 37.92 22.27 37.18 22.27 36.45C22.27 34.78 21.14 33.43 19.75 33.43L19.75 33.43Z" />
		</g>
		<path id="Layer" class="shp13" d="M46.05 51.07C46.05 56.49 41.66 60.88 36.24 60.88C30.82 60.88 26.43 56.49 26.43 51.07C26.43 45.65 30.82 41.26 36.24 41.26C41.66 41.26 46.05 45.65 46.05 51.07Z" />
		<g id="Layer">
			<path id="Layer" class="shp14" d="M36.22 43.97C34.83 43.97 33.7 45.32 33.7 46.99C33.7 47.68 33.9 48.37 34.24 48.95C33.68 48.55 32.97 48.31 32.27 48.31C30.73 48.31 29.47 49.53 29.47 51.03C29.47 52.54 30.73 53.76 32.27 53.76C33.67 53.76 35.09 52.69 35.34 51.37C35.54 52.06 35.65 52.8 35.65 53.58C35.65 55.37 35.07 57 34.15 58.17L38.43 58.17C37.45 56.99 36.84 55.32 36.84 53.47C36.84 52.73 36.94 52.01 37.12 51.35C37.28 52.73 38.76 53.76 40.22 53.76C41.77 53.76 43.02 52.54 43.02 51.03C43.02 49.53 41.77 48.31 40.22 48.31C39.5 48.31 38.76 48.59 38.19 49.05C38.54 48.45 38.74 47.72 38.74 46.99C38.74 45.32 37.61 43.97 36.22 43.97L36.22 43.97Z" />
		</g>
		<path id="Layer" class="shp15" d="M29.58 61.06C29.58 66.48 25.19 70.87 19.77 70.87C14.35 70.87 9.96 66.48 9.96 61.06C9.96 55.64 14.35 51.25 19.77 51.25C25.19 51.25 29.58 55.64 29.58 61.06Z" />
		<g id="Layer">
			<path id="Layer" class="shp16" d="M19.75 53.96C18.36 53.96 17.23 55.31 17.23 56.98C17.23 57.67 17.43 58.36 17.77 58.94C17.21 58.54 16.5 58.3 15.8 58.3C14.26 58.3 13 59.52 13 61.03C13 62.53 14.26 63.75 15.8 63.75C17.2 63.75 18.62 62.68 18.87 61.37C19.07 62.05 19.18 62.8 19.18 63.57C19.18 65.36 18.6 66.99 17.68 68.16L21.96 68.16C20.98 66.98 20.37 65.31 20.37 63.46C20.37 62.72 20.47 62.01 20.65 61.34C20.81 62.73 22.29 63.75 23.75 63.75C25.3 63.75 26.55 62.53 26.55 61.03C26.55 59.52 25.3 58.3 23.75 58.3C23.03 58.3 22.29 58.59 21.72 59.04C22.07 58.45 22.27 57.71 22.27 56.98C22.27 55.31 21.14 53.96 19.75 53.96L19.75 53.96Z" />
		</g>
		<path id="Layer" class="shp17" d="M29.58 20.25C29.58 25.67 25.19 30.06 19.77 30.06C14.35 30.06 9.96 25.67 9.96 20.25C9.96 14.83 14.35 10.43 19.77 10.43C25.19 10.43 29.58 14.83 29.58 20.25Z" />
		<g id="Layer">
			<path id="Layer" class="shp18" d="M19.75 13.14C18.36 13.14 17.23 14.5 17.23 16.17C17.23 16.85 17.43 17.55 17.77 18.12C17.21 17.72 16.5 17.49 15.8 17.49C14.26 17.49 13 18.71 13 20.21C13 21.72 14.26 22.93 15.8 22.93C17.2 22.93 18.62 21.87 18.87 20.55C19.07 21.24 19.18 21.98 19.18 22.75C19.18 24.55 18.6 26.17 17.68 27.35L21.96 27.35C20.98 26.17 20.37 24.5 20.37 22.65C20.37 21.9 20.47 21.19 20.65 20.53C20.81 21.91 22.29 22.93 23.75 22.93C25.3 22.93 26.55 21.72 26.55 20.21C26.55 18.71 25.3 17.49 23.75 17.49C23.03 17.49 22.29 17.77 21.72 18.23C22.07 17.63 22.27 16.9 22.27 16.17C22.27 14.5 21.14 13.14 19.75 13.14L19.75 13.14Z" />
		</g>
		<path id="Layer" class="shp19" d="M29.58 81.01C29.58 86.43 25.19 90.82 19.77 90.82C14.35 90.82 9.96 86.43 9.96 81.01C9.96 75.59 14.35 71.2 19.77 71.2C25.19 71.2 29.58 75.59 29.58 81.01Z" />
		<g id="Layer">
			<path id="Layer" class="shp20" d="M19.75 73.91C18.36 73.91 17.23 75.26 17.23 76.93C17.23 77.62 17.43 78.31 17.77 78.89C17.21 78.49 16.5 78.25 15.8 78.25C14.26 78.25 13 79.47 13 80.97C13 82.48 14.26 83.7 15.8 83.7C17.2 83.7 18.62 82.63 18.87 81.31C19.07 82 19.18 82.74 19.18 83.52C19.18 85.31 18.6 86.94 17.68 88.11L21.96 88.11C20.98 86.93 20.37 85.26 20.37 83.41C20.37 82.67 20.47 81.95 20.65 81.29C20.81 82.67 22.29 83.7 23.75 83.7C25.3 83.7 26.55 82.48 26.55 80.97C26.55 79.47 25.3 78.25 23.75 78.25C23.03 78.25 22.29 78.53 21.72 78.99C22.07 78.39 22.27 77.66 22.27 76.93C22.27 75.26 21.14 73.91 19.75 73.91L19.75 73.91Z" />
		</g>
		<path id="Layer" class="shp21" d="M62.12 40.53C62.12 45.95 57.73 50.34 52.31 50.34C46.89 50.34 42.5 45.95 42.5 40.53C42.5 35.11 46.89 30.72 52.31 30.72C57.73 30.72 62.12 35.11 62.12 40.53Z" />
		<g id="Layer">
			<path id="Layer" class="shp22" d="M52.29 33.43C50.9 33.43 49.77 34.78 49.77 36.45C49.77 37.14 49.97 37.83 50.31 38.41C49.75 38.01 49.04 37.77 48.34 37.77C46.8 37.77 45.54 38.99 45.54 40.5C45.54 42 46.8 43.22 48.34 43.22C49.74 43.22 51.16 42.15 51.41 40.84C51.61 41.52 51.72 42.27 51.72 43.04C51.72 44.83 51.14 46.46 50.22 47.63L54.5 47.63C53.52 46.45 52.91 44.78 52.91 42.93C52.91 42.19 53.01 41.48 53.19 40.81C53.35 42.2 54.83 43.22 56.29 43.22C57.84 43.22 59.09 42 59.09 40.5C59.09 38.99 57.84 37.77 56.29 37.77C55.57 37.77 54.83 38.06 54.26 38.51C54.61 37.92 54.81 37.18 54.81 36.45C54.81 34.78 53.68 33.43 52.29 33.43L52.29 33.43Z" />
		</g>
		<path id="Layer" class="shp23" d="M61.58 61.06C61.58 66.48 57.19 70.87 51.77 70.87C46.35 70.87 41.96 66.48 41.96 61.06C41.96 55.64 46.35 51.25 51.77 51.25C57.19 51.25 61.58 55.64 61.58 61.06Z" />
		<g id="Layer">
			<path id="Layer" class="shp24" d="M51.75 53.96C50.36 53.96 49.23 55.31 49.23 56.98C49.23 57.67 49.43 58.36 49.77 58.94C49.21 58.54 48.5 58.3 47.8 58.3C46.26 58.3 45 59.52 45 61.03C45 62.53 46.26 63.75 47.8 63.75C49.2 63.75 50.62 62.68 50.87 61.37C51.07 62.05 51.18 62.8 51.18 63.57C51.18 65.36 50.6 66.99 49.68 68.16L53.96 68.16C52.98 66.98 52.37 65.31 52.37 63.46C52.37 62.72 52.47 62.01 52.65 61.34C52.81 62.73 54.29 63.75 55.75 63.75C57.3 63.75 58.55 62.53 58.55 61.03C58.55 59.52 57.3 58.3 55.75 58.3C55.03 58.3 54.29 58.59 53.72 59.04C54.07 58.45 54.27 57.71 54.27 56.98C54.27 55.31 53.14 53.96 51.75 53.96L51.75 53.96Z" />
		</g>
		<path id="Layer" fill-rule="evenodd" class="shp25" d="M60 15.98C60 15.98 60 15.98 60 15.98L60 15.98M60 15.98L59.97 15.76C61.65 15.47 62.88 14.28 63.34 12.48C62.75 12.93 62.28 13.11 61.67 13.11C60.48 13.11 59.68 12.21 59.68 10.86C59.68 9.36 60.66 8.24 61.98 8.24C63.41 8.24 64.44 9.54 64.44 11.37C64.44 12.86 63.76 14.24 62.61 15.08C61.85 15.63 61.24 15.84 60 15.98ZM63.36 11.37C63.36 9.5 62.86 8.55 61.9 8.55C61.57 8.55 61.3 8.67 61.11 8.89C60.88 9.18 60.7 9.85 60.7 10.48C60.7 11.8 61.23 12.63 62.07 12.63C62.47 12.63 62.88 12.49 63.19 12.22C63.32 12.12 63.36 12.02 63.36 11.8L63.36 11.37Z" />
	</g>
</svg>