<svg xmlns="http://www.w3.org/2000/svg" viewBox="0 0 73 102" width="73" height="102">
	<defs>
		<filter x="-50%" y="-50%" width="200%" height="200%" id="flt1"> <feGaussianBlur stdDeviation="0.85" /> </filter>
		<linearGradient id="grd1" gradientUnits="userSpaceOnUse"  x1="41.016" y1="26.195" x2="43.161" y2="-90.187">
			<stop offset="0" stop-color="#f3f3f3"  />
			<stop offset="1" stop-color="#8f8f8f"  />
		</linearGradient>
		<radialGradient id="grd2" gradientUnits="userSpaceOnUse"  cx="10.314" cy="91.497" r="13.273">
			<stop offset="0" stop-color="#ffffff"  />
			<stop offset="1" stop-color="#ffffff" stop-opacity="0" />
		</radialGradient>
		<radialGradient id="grd3" gradientUnits="userSpaceOnUse"  cx="61.892" cy="12.355" r="14.287">
			<stop offset="0" stop-color="#ffffff"  />
			<stop offset="1" stop-color="#ffffff" stop-opacity="0" />
		</radialGradient>
		<linearGradient id="grd4" gradientUnits="userSpaceOnUse"  x1="-60.038" y1="90.668" x2="-60.038" y2="87.192">
			<stop offset="0" stop-color="#000000"  />
			<stop offset="1" stop-color="#555753"  />
		</linearGradient>
		<radialGradient id="grd5" gradientUnits="userSpaceOnUse"  cx="19.882" cy="19.807" r="9.813">
			<stop offset="0" stop-color="#ffffff"  />
			<stop offset="1" stop-color="#ffffff" stop-opacity="0" />
		</radialGradient>
		<linearGradient id="grd6" gradientUnits="userSpaceOnUse"  x1="-128.477" y1="22.885" x2="-128.477" y2="15.668">
			<stop offset="0" stop-color="#000000"  />
			<stop offset="1" stop-color="#6f6f6f"  />
		</linearGradient>
		<radialGradient id="grd7" gradientUnits="userSpaceOnUse"  cx="17.748" cy="73.646" r="25.374">
			<stop offset="0" stop-color="#ffffff"  />
			<stop offset="1" stop-color="#ffffff" stop-opacity="0" />
		</radialGradient>
		<radialGradient id="grd8" gradientUnits="userSpaceOnUse"  cx="19.882" cy="50.626" r="9.813">
			<stop offset="0" stop-color="#ffffff"  />
			<stop offset="1" stop-color="#ffffff" stop-opacity="0" />
		</radialGradient>
		<linearGradient id="grd9" gradientUnits="userSpaceOnUse"  x1="-128.477" y1="53.707" x2="-128.477" y2="46.49">
			<stop offset="0" stop-color="#000000"  />
			<stop offset="1" stop-color="#6f6f6f"  />
		</linearGradient>
		<radialGradient id="grd10" gradientUnits="userSpaceOnUse"  cx="19.882" cy="80.512" r="9.813">
			<stop offset="0" stop-color="#ffffff"  />
			<stop offset="1" stop-color="#ffffff" stop-opacity="0" />
		</radialGradient>
		<linearGradient id="grd11" gradientUnits="userSpaceOnUse"  x1="-128.477" y1="83.592" x2="-128.477" y2="76.375">
			<stop offset="0" stop-color="#000000"  />
			<stop offset="1" stop-color="#6f6f6f"  />
		</linearGradient>
		<radialGradient id="grd12" gradientUnits="userSpaceOnUse"  cx="52.872" cy="19.807" r="9.813">
			<stop offset="0" stop-color="#ffffff"  />
			<stop offset="1" stop-color="#ffffff" stop-opacity="0" />
		</radialGradient>
		<linearGradient id="grd13" gradientUnits="userSpaceOnUse"  x1="-95.487" y1="22.885" x2="-95.487" y2="15.668">
			<stop offset="0" stop-color="#000000"  />
			<stop offset="1" stop-color="#6f6f6f"  />
		</linearGradient>
		<radialGradient id="grd14" gradientUnits="userSpaceOnUse"  cx="52.872" cy="50.626" r="9.813">
			<stop offset="0" stop-color="#ffffff"  />
			<stop offset="1" stop-color="#ffffff" stop-opacity="0" />
		</radialGradient>
		<linearGradient id="grd15" gradientUnits="userSpaceOnUse"  x1="-95.487" y1="53.707" x2="-95.487" y2="46.49">
			<stop offset="0" stop-color="#000000"  />
			<stop offset="1" stop-color="#6f6f6f"  />
		</linearGradient>
		<radialGradient id="grd16" gradientUnits="userSpaceOnUse"  cx="52.872" cy="80.512" r="9.813">
			<stop offset="0" stop-color="#ffffff"  />
			<stop offset="1" stop-color="#ffffff" stop-opacity="0" />
		</radialGradient>
		<linearGradient id="grd17" gradientUnits="userSpaceOnUse"  x1="-95.487" y1="83.592" x2="-95.487" y2="76.375">
			<stop offset="0" stop-color="#000000"  />
			<stop offset="1" stop-color="#6f6f6f"  />
		</linearGradient>
		<linearGradient id="grd18" gradientUnits="userSpaceOnUse"  x1="-397.165" y1="13.49" x2="-397.165" y2="10.558">
			<stop offset="0" stop-color="#000000"  />
			<stop offset="1" stop-color="#555753"  />
		</linearGradient>
	</defs>
	<style>
		tspan { white-space:pre }
		.shp0 { filter: url(#flt1);fill: #000000 } 
		.shp1 { fill: url(#grd1);stroke: #000000;stroke-width: 0.226 } 
		.shp2 { opacity: 0.31;fill: url(#grd2) } 
		.shp3 { opacity: 0.318;fill: url(#grd3) } 
		.shp4 { fill: none;stroke: #000000;stroke-width: 0.226 } 
		.shp5 { fill: url(#grd4);stroke: #1d1d1d;stroke-linejoin:round;stroke-width: 0.166 } 
		.shp6 { opacity: 0.4;fill: url(#grd5) } 
		.shp7 { fill: url(#grd6);stroke: #0f0f0f;stroke-linejoin:round;stroke-width: 0.346 } 
		.shp8 { fill: url(#grd7) } 
		.shp9 { opacity: 0.4;fill: url(#grd8) } 
		.shp10 { fill: url(#grd9);stroke: #0f0f0f;stroke-linejoin:round;stroke-width: 0.346 } 
		.shp11 { opacity: 0.4;fill: url(#grd10) } 
		.shp12 { fill: url(#grd11);stroke: #0f0f0f;stroke-linejoin:round;stroke-width: 0.346 } 
		.shp13 { opacity: 0.4;fill: url(#grd12) } 
		.shp14 { fill: url(#grd13);stroke: #0f0f0f;stroke-linejoin:round;stroke-width: 0.346 } 
		.shp15 { opacity: 0.4;fill: url(#grd14) } 
		.shp16 { fill: url(#grd15);stroke: #0f0f0f;stroke-linejoin:round;stroke-width: 0.346 } 
		.shp17 { opacity: 0.4;fill: url(#grd16) } 
		.shp18 { fill: url(#grd17);stroke: #0f0f0f;stroke-linejoin:round;stroke-width: 0.346 } 
		.shp19 { fill: url(#grd18) } 
	</style>
	<g id="-e-Club6">
		<g id="Layer">
			<path id="Layer" fill-rule="evenodd" class="shp0" d="M4.58 1.37L67.66 1.37C68.12 1.37 68.58 1.47 69.01 1.64C69.44 1.82 69.83 2.08 70.16 2.41C70.49 2.74 70.75 3.13 70.93 3.56C71.1 3.99 71.2 4.45 71.2 4.91L71.2 97.02C71.2 97.49 71.1 97.95 70.93 98.38C70.75 98.81 70.49 99.2 70.16 99.52C69.83 99.85 69.44 100.11 69.01 100.29C68.58 100.47 68.12 100.56 67.66 100.56L4.58 100.56C4.12 100.56 3.66 100.47 3.23 100.29C2.8 100.11 2.41 99.85 2.08 99.52C1.75 99.2 1.49 98.81 1.31 98.38C1.14 97.95 1.04 97.49 1.04 97.02L1.04 4.91C1.04 4.45 1.14 3.99 1.31 3.56C1.49 3.13 1.75 2.74 2.08 2.41C2.41 2.08 2.8 1.82 3.23 1.64C3.66 1.47 4.12 1.37 4.58 1.37" />
			<path id="Layer" fill-rule="evenodd" class="shp1" d="M5.5 0.8L67.55 0.8C68.08 0.8 68.61 0.9 69.1 1.11C69.59 1.31 70.04 1.61 70.41 1.98C70.79 2.36 71.09 2.81 71.29 3.3C71.5 3.79 71.6 4.32 71.6 4.85L71.6 95.93C71.6 96.46 71.5 96.99 71.29 97.48C71.09 97.97 70.79 98.42 70.41 98.8C70.04 99.17 69.59 99.47 69.1 99.67C68.61 99.88 68.08 99.98 67.55 99.98L5.5 99.98C4.97 99.98 4.44 99.88 3.95 99.67C3.46 99.47 3.01 99.17 2.64 98.8C2.26 98.42 1.96 97.97 1.76 97.48C1.55 96.99 1.45 96.46 1.45 95.93L1.45 4.85C1.45 4.32 1.55 3.79 1.76 3.3C1.96 2.81 2.26 2.36 2.64 1.98C3.01 1.61 3.46 1.31 3.95 1.11C4.44 0.9 4.97 0.8 5.5 0.8" />
			<path id="Layer" class="shp2" d="M31.7 96.56L5.15 96.56L5.15 72.28L31.7 72.28L31.7 96.56Z" />
			<path id="Layer" class="shp3" d="M40.36 4.22L66.86 4.22C67 4.22 67.13 4.24 67.26 4.3C67.39 4.35 67.5 4.42 67.6 4.52C67.69 4.62 67.77 4.73 67.82 4.86C67.87 4.98 67.9 5.12 67.9 5.25L67.9 48.46C67.9 48.59 67.87 48.73 67.82 48.85C67.77 48.98 67.69 49.09 67.6 49.19C67.5 49.28 67.39 49.36 67.26 49.41C67.13 49.46 67 49.49 66.86 49.49L40.36 49.49C40.22 49.49 40.09 49.46 39.96 49.41C39.84 49.36 39.72 49.28 39.63 49.19C39.53 49.09 39.46 48.98 39.4 48.85C39.35 48.73 39.33 48.59 39.33 48.46L39.33 5.25C39.33 5.12 39.35 4.98 39.4 4.86C39.46 4.73 39.53 4.62 39.63 4.52C39.72 4.42 39.84 4.35 39.96 4.3C40.09 4.24 40.22 4.22 40.36 4.22" />
			<path id="Layer" class="shp4" d="M19.87 92.49L64.59 92.49L64.59 18.89" />
			<path id="Layer" class="shp4" d="M53.02 8.28L8.46 8.28L8.46 81.47" />
		</g>
		<g id="Layer">
			<path id="Layer" class="shp5" d="M11.41 85.76C10.74 85.76 10.2 86.42 10.2 87.22C10.2 87.55 10.29 87.88 10.46 88.16C10.18 87.97 9.84 87.86 9.51 87.86C8.76 87.86 8.16 88.44 8.16 89.17C8.16 89.89 8.76 90.48 9.51 90.48C10.18 90.48 10.86 89.97 10.99 89.33C11.08 89.66 11.13 90.02 11.13 90.39C11.13 91.26 10.86 92.04 10.41 92.61L12.47 92.61C12 92.04 11.71 91.23 11.71 90.34C11.71 89.98 11.76 89.64 11.84 89.32C11.92 89.99 12.63 90.48 13.34 90.48C14.08 90.48 14.68 89.89 14.68 89.17C14.68 88.44 14.08 87.86 13.34 87.86C12.99 87.86 12.63 87.99 12.36 88.21C12.52 87.93 12.62 87.57 12.62 87.22C12.62 86.42 12.08 85.76 11.41 85.76L11.41 85.76Z" />
		</g>
		<path id="Layer" class="shp6" d="M29.69 19.81C29.69 25.23 25.3 29.62 19.88 29.62C14.46 29.62 10.07 25.23 10.07 19.81C10.07 14.39 14.46 9.99 19.88 9.99C25.3 9.99 29.69 14.39 29.69 19.81Z" />
		<g id="Layer">
			<path id="Layer" class="shp7" d="M19.86 12.7C18.47 12.7 17.34 14.06 17.34 15.73C17.34 16.41 17.54 17.11 17.88 17.68C17.32 17.28 16.61 17.05 15.91 17.05C14.36 17.05 13.11 18.27 13.11 19.77C13.11 21.28 14.36 22.49 15.91 22.49C17.31 22.49 18.73 21.43 18.98 20.11C19.18 20.8 19.28 21.54 19.28 22.31C19.28 24.11 18.71 25.73 17.79 26.91L22.06 26.91C21.09 25.73 20.48 24.06 20.48 22.21C20.48 21.46 20.58 20.75 20.76 20.09C20.92 21.47 22.4 22.49 23.86 22.49C25.4 22.49 26.65 21.28 26.65 19.77C26.65 18.27 25.4 17.05 23.86 17.05C23.14 17.05 22.4 17.33 21.83 17.79C22.17 17.19 22.38 16.46 22.38 15.73C22.38 14.06 21.25 12.7 19.86 12.7L19.86 12.7Z" />
		</g>
		<path id="Layer" fill-rule="evenodd" class="shp8" d="M17.65 89.26C17.65 89.26 17.65 89.26 17.65 89.26C17.65 89.26 17.65 89.26 17.65 89.26L17.65 89.26ZM17.65 89.26C15.34 83.49 13.78 83.65 11.79 83.08L14.76 83.08C14.78 82.98 14.8 82.88 14.81 82.78C14.87 82.53 14.94 82.28 15.02 82.04C15.02 81.71 15.02 81.38 15.02 81.05C15.03 80.33 15.13 79.62 15.22 78.91C15.24 78.73 15.26 78.55 15.29 78.37C15.2 78.29 15.22 77.75 15.48 76.69C15.53 76.47 15.57 76.25 15.61 76.04C15.7 75.54 15.81 75.04 15.92 74.54C16.04 73.95 16.23 73.38 16.42 72.81C16.66 72.12 16.95 71.46 17.23 70.79C17.58 69.98 17.94 69.16 18.3 68.35C18.79 67.26 19.33 66.19 19.87 65.12C20.56 63.81 21.17 62.46 21.76 61.1C22.45 59.45 23.14 57.79 23.83 56.13C24.58 54.37 25.29 52.58 25.96 50.78C26 50.67 26.05 50.55 26.09 50.44C26.08 50.4 26.07 50.36 26.07 50.32C26.07 50.19 26.13 50.08 26.23 50.03C26.83 48.35 27.37 46.65 27.89 44.95C28.55 42.8 29.1 40.62 29.54 38.42C29.99 35.87 30.09 33.27 30.07 30.68C30.01 28.57 29.79 26.47 29.54 24.37C29.43 24.46 29.3 24.52 29.15 24.52C28.82 24.52 28.54 24.25 28.54 23.92C28.54 23.58 28.82 23.31 29.15 23.31C29.25 23.31 29.34 23.34 29.43 23.38L29.36 22.81C29.26 22.07 29.16 21.33 29.05 20.59C29 20.7 28.88 20.77 28.75 20.77C28.57 20.77 28.42 20.62 28.42 20.44C28.42 20.25 28.57 20.1 28.75 20.1C28.84 20.1 28.93 20.13 28.99 20.19C28.88 19.5 28.78 18.8 28.67 18.1C28.5 17.03 28.53 16.39 28.65 16.22C28.55 16.11 28.49 15.97 28.49 15.81C28.49 15.47 28.75 15.21 29.09 15.21C29.42 15.21 29.7 15.47 29.7 15.81C29.7 16.14 29.42 16.41 29.09 16.41C29.02 16.41 28.96 16.4 28.9 16.38C29.01 16.62 29.14 17.07 29.25 17.77C29.49 19.34 29.73 20.91 29.93 22.48C30.25 25.09 30.56 27.71 30.64 30.35C30.66 32.94 30.56 35.54 30.12 38.09C29.68 40.29 29.12 42.46 28.47 44.61C27.91 46.46 27.33 48.3 26.67 50.12C26.71 50.17 26.73 50.24 26.73 50.32C26.73 50.47 26.62 50.6 26.48 50.64C25.83 52.37 25.14 54.09 24.41 55.79C23.73 57.45 23.04 59.11 22.35 60.76C21.77 62.12 21.16 63.47 20.48 64.77C19.94 65.84 19.39 66.91 18.91 68C18.55 68.82 18.19 69.62 17.84 70.44C17.55 71.1 17.27 71.77 17.03 72.45C16.85 73.03 16.65 73.6 16.53 74.19C16.52 74.26 16.5 74.33 16.49 74.4C16.68 73.98 16.87 73.56 17.07 73.14C17.22 72.83 17.39 72.52 17.56 72.22C17.56 72.21 17.56 72.2 17.56 72.2C17.64 71.95 17.77 71.72 17.88 71.49C18.05 71.14 18.26 70.82 18.46 70.49C18.65 70.17 18.86 69.87 19.08 69.57C19.65 68.57 20.31 67.62 20.98 66.68C21.51 65.96 22.12 65.31 22.74 64.67C22.77 64.52 22.88 64.41 23.02 64.38L23.54 63.87C24.54 62.92 25.58 62.01 26.58 61.07C27.77 59.96 28.92 58.81 30.06 57.65C31.37 56.34 32.57 54.94 33.68 53.46C34.93 51.75 35.97 49.91 36.98 48.05C37.31 47.45 37.62 46.84 37.92 46.22L37.8 46.24C37.46 46.24 37.2 45.96 37.2 45.63C37.2 45.29 37.46 45.03 37.8 45.03C38.02 45.03 38.22 45.15 38.32 45.33C38.81 44.22 39.24 43.09 39.63 41.94L39.7 41.7C39.66 41.43 39.64 41.04 39.66 40.49C39.68 39.55 39.7 38.61 39.68 37.67C39.62 35.99 39.51 34.3 39.29 32.63C39.1 31.49 38.93 30.35 38.6 29.24C38.43 28.68 38.28 28.11 38.02 27.58C37.93 27.43 37.89 27.26 37.75 27.15C35.83 25.46 36.47 25.07 38.38 26.78C38.51 26.9 38.56 27.08 38.65 27.22C38.89 27.76 39.05 28.32 39.21 28.89C39.54 30 39.71 31.14 39.89 32.29C40.11 33.96 40.21 35.64 40.26 37.33C40.28 38.04 40.27 38.75 40.26 39.46C40.58 37.97 40.81 36.46 41 34.95C41.05 34.28 41.08 33.61 41.1 32.94C41.03 32.97 40.96 32.99 40.89 32.99C40.55 32.99 40.28 32.71 40.28 32.38C40.28 32.04 40.55 31.78 40.89 31.78C40.97 31.78 41.05 31.8 41.12 31.83C41.12 30.79 41.1 29.75 41.07 28.72C40.82 28.64 40.65 28.42 40.65 28.15C40.65 27.89 40.81 27.67 41.03 27.58C41.03 27.48 41.02 27.37 41.02 27.26C41.01 26.84 40.99 26.43 40.98 26.01C40.89 23.67 41.47 23.33 41.55 25.68C41.57 26.09 41.58 26.51 41.59 26.93C41.6 27.17 41.61 27.42 41.61 27.67C41.76 27.78 41.86 27.95 41.86 28.15C41.86 28.33 41.78 28.49 41.65 28.6C41.71 30.61 41.73 32.62 41.57 34.62C41.28 36.98 40.9 39.33 40.21 41.61C39.5 43.72 38.65 45.77 37.56 47.72C36.55 49.57 35.51 51.42 34.27 53.12C33.16 54.6 31.96 56.01 30.66 57.31C29.51 58.47 28.36 59.61 27.18 60.72C26.17 61.66 25.14 62.58 24.14 63.52C23.83 63.82 23.53 64.12 23.23 64.43C23.31 64.47 23.37 64.54 23.39 64.63C24.15 63.86 24.95 63.13 25.76 62.4L28.56 59.91C29.55 59.02 30.55 58.15 31.55 57.27C32.67 56.3 33.76 55.29 34.84 54.26C36.06 53.1 37.25 51.92 38.43 50.72C39.68 49.46 40.86 48.14 42 46.79C42.88 45.74 43.71 44.66 44.53 43.57C44.52 43.53 44.51 43.49 44.51 43.45C44.51 43.14 44.75 42.89 45.06 42.86L45.67 42.02C46.75 40.53 47.73 38.97 48.65 37.38C48.61 37.4 48.58 37.41 48.54 37.41C48.35 37.41 48.2 37.26 48.2 37.07C48.2 36.89 48.35 36.73 48.54 36.73C48.7 36.73 48.83 36.85 48.86 37C48.95 36.85 49.04 36.71 49.12 36.56C50.2 34.55 51.23 32.5 51.92 30.32C52.43 28.42 52.73 26.47 53.04 24.53C53.41 22.2 53.99 21.86 53.62 24.19C53.31 26.13 53.01 28.09 52.5 29.99C51.81 32.17 50.79 34.22 49.71 36.22C48.66 38.1 47.52 39.93 46.25 41.68C45.96 42.09 45.66 42.49 45.36 42.9C45.57 42.99 45.72 43.2 45.72 43.45C45.72 43.78 45.46 44.06 45.12 44.06C44.93 44.06 44.77 43.97 44.66 43.84C43.99 44.72 43.3 45.6 42.59 46.45C41.44 47.8 40.26 49.12 39.01 50.38C38.44 50.96 37.87 51.53 37.3 52.1C37.47 51.94 37.77 51.67 38.23 51.28C39.33 50.34 40.45 49.41 41.6 48.53C42.68 47.72 43.79 46.93 45.01 46.33C45.11 46.13 45.31 46 45.55 46C45.6 46 45.65 46 45.7 46.01C45.89 45.94 46.07 45.89 46.27 45.88C48.7 45.72 48.23 46.04 46 46.21C46.09 46.31 46.15 46.45 46.15 46.6C46.15 46.93 45.88 47.2 45.55 47.2C45.21 47.2 44.94 46.93 44.94 46.6C44.94 46.53 44.96 46.48 44.97 46.42L44.47 46.64C44.06 46.8 43.03 47.57 42.2 48.19C41.04 49.07 39.92 50 38.82 50.94C37.67 51.91 37.02 52.41 37.13 52.27C36.57 52.82 36.01 53.37 35.44 53.91C34.36 54.94 33.27 55.95 32.15 56.93C31.15 57.8 30.15 58.67 29.16 59.56C28.23 60.4 27.3 61.23 26.36 62.05C25.5 62.83 24.64 63.62 23.83 64.46C23.1 65.19 22.38 65.93 21.71 66.71C21.18 67.32 20.66 67.94 20.16 68.58L19.65 69.28C19.62 69.33 19.59 69.37 19.56 69.42C19.11 70.19 18.66 70.96 18.23 71.74L18.19 71.84C18.15 71.96 18.11 72.09 18.05 72.21C17.69 72.98 17.39 73.52 17.18 73.84C16.86 74.55 16.56 75.28 16.35 76.04C16.13 76.87 15.92 77.7 15.83 78.56C15.75 79.17 15.67 79.77 15.65 80.38L15.79 80.08C16.11 79.47 16.49 78.89 16.88 78.32C17.19 77.84 17.53 77.4 17.89 76.96C17.82 76.86 17.77 76.74 17.77 76.6C17.77 76.27 18.05 75.99 18.38 75.99C18.49 75.99 18.6 76.03 18.69 76.08C19.27 75.48 19.89 74.92 20.51 74.36C21.32 73.62 22.18 72.93 23.04 72.25C24.07 71.45 25.17 70.74 26.27 70.03C27.52 69.21 28.79 68.44 30.08 67.67L30.37 67.5C30.12 67.43 29.94 67.2 29.94 66.92C29.94 66.59 30.21 66.31 30.54 66.31C30.88 66.31 31.14 66.59 31.14 66.92C31.14 67.26 30.88 67.52 30.54 67.52C30.49 67.52 30.44 67.52 30.39 67.51C29.34 68.14 28.29 68.79 27.26 69.45C26.17 70.17 25.08 70.87 24.05 71.67C23.19 72.35 22.33 73.03 21.52 73.77C20.79 74.43 20.05 75.09 19.39 75.82L18.93 76.35C18.97 76.43 18.99 76.51 18.99 76.6C18.99 76.94 18.72 77.2 18.38 77.2C18.35 77.2 18.31 77.2 18.28 77.2C18.15 77.37 18.02 77.55 17.9 77.73C17.52 78.31 17.13 78.88 16.81 79.49C16.59 79.96 16.35 80.42 16.21 80.93C16.14 81.16 16.07 81.39 16 81.61C16.09 81.67 16.14 81.78 16.14 81.89C16.14 82.06 16.01 82.21 15.84 82.22C15.79 82.52 15.7 82.82 15.71 83.13C15.72 83.3 15.72 83.48 15.75 83.65C15.77 83.75 15.77 83.86 15.81 83.95C16.08 85.16 18.18 88.35 17.65 89.26ZM17.9 84.25C17.9 84.07 18.05 83.92 18.23 83.92C18.42 83.92 18.57 84.07 18.57 84.25C18.57 84.44 18.42 84.58 18.23 84.58C18.05 84.58 17.9 84.44 17.9 84.25ZM13 82.29C13 81.95 13.27 81.68 13.6 81.68C13.94 81.68 14.21 81.95 14.21 82.29C14.21 82.62 13.94 82.89 13.6 82.89C13.27 82.89 13 82.62 13 82.29ZM16.27 81.56C16.27 81.22 16.54 80.96 16.87 80.96C17.2 80.96 17.48 81.22 17.48 81.56C17.48 81.89 17.2 82.17 16.87 82.17C16.54 82.17 16.27 81.89 16.27 81.56ZM12.27 80.14C12.27 79.95 12.42 79.8 12.61 79.8C12.79 79.8 12.94 79.95 12.94 80.14C12.94 80.32 12.79 80.47 12.61 80.47C12.42 80.47 12.27 80.32 12.27 80.14ZM13.79 79.59C13.79 79.41 13.94 79.26 14.12 79.26C14.3 79.26 14.45 79.41 14.45 79.59C14.45 79.78 14.3 79.92 14.12 79.92C13.94 79.92 13.79 79.78 13.79 79.59ZM19.23 78.6C19.23 78.26 19.5 77.99 19.83 77.99C20.17 77.99 20.44 78.26 20.44 78.6C20.44 78.93 20.17 79.2 19.83 79.2C19.5 79.2 19.23 78.93 19.23 78.6ZM20.92 77.84C20.92 77.66 21.07 77.51 21.25 77.51C21.44 77.51 21.59 77.66 21.59 77.84C21.59 78.02 21.44 78.17 21.25 78.17C21.07 78.17 20.92 78.02 20.92 77.84ZM12.33 76.91C12.33 76.57 12.6 76.3 12.94 76.3C13.27 76.3 13.55 76.57 13.55 76.91C13.55 77.24 13.27 77.51 12.94 77.51C12.6 77.51 12.33 77.24 12.33 76.91ZM13.72 75.15C13.72 74.81 14 74.54 14.33 74.54C14.67 74.54 14.93 74.81 14.93 75.15C14.93 75.48 14.67 75.75 14.33 75.75C14 75.75 13.72 75.48 13.72 75.15ZM21.83 75.18C21.83 75 21.98 74.85 22.16 74.85C22.35 74.85 22.5 75 22.5 75.18C22.5 75.36 22.35 75.51 22.16 75.51C21.98 75.51 21.83 75.36 21.83 75.18ZM25.94 74.36C25.94 74.03 26.21 73.76 26.55 73.76C26.88 73.76 27.16 74.03 27.16 74.36C27.16 74.69 26.88 74.97 26.55 74.97C26.21 74.97 25.94 74.69 25.94 74.36ZM19.47 73.64C19.47 73.31 19.75 73.03 20.08 73.03C20.41 73.03 20.68 73.31 20.68 73.64C20.68 73.97 20.41 74.24 20.08 74.24C19.75 74.24 19.47 73.97 19.47 73.64ZM22.45 74.09C22.43 74.09 22.8 73.8 23.66 73.16C24.14 72.81 24.6 72.44 25.11 72.13C26.22 71.47 27.34 70.8 28.53 70.27C29.38 69.89 30.23 69.5 31.09 69.17C31.7 68.93 32.3 68.68 32.91 68.45L33.7 68.15C36.08 67.24 35.46 67.6 33.07 68.51L32.3 68.8C31.69 69.04 31.08 69.28 30.48 69.52C29.94 69.73 29.41 69.96 28.88 70.2C29.2 70.22 29.45 70.47 29.45 70.79C29.45 71.12 29.18 71.4 28.85 71.4C28.51 71.4 28.25 71.12 28.25 70.79C28.25 70.64 28.3 70.51 28.39 70.41L27.92 70.61C27.25 70.88 25.92 71.67 25.71 71.79C25.21 72.1 24.75 72.46 24.27 72.81C23.16 73.63 22.48 74.1 22.45 74.09L22.45 74.09ZM13.42 72.85C13.42 72.51 13.69 72.25 14.03 72.25C14.36 72.25 14.64 72.51 14.64 72.85C14.64 73.18 14.36 73.46 14.03 73.46C13.69 73.46 13.42 73.18 13.42 72.85ZM26.91 72.46C26.91 72.28 27.06 72.13 27.24 72.13C27.42 72.13 27.57 72.28 27.57 72.46C27.57 72.64 27.42 72.79 27.24 72.79C27.06 72.79 26.91 72.64 26.91 72.46ZM15.66 71.33C15.66 71 15.93 70.73 16.27 70.73C16.6 70.73 16.87 71 16.87 71.33C16.87 71.67 16.6 71.94 16.27 71.94C15.93 71.94 15.66 71.67 15.66 71.33ZM18.93 71.16C18.93 70.82 19.2 70.55 19.53 70.55C19.87 70.55 20.14 70.82 20.14 71.16C20.14 71.49 19.87 71.76 19.53 71.76C19.2 71.76 18.93 71.49 18.93 71.16ZM11 70.95C11 70.76 11.15 70.61 11.33 70.61C11.52 70.61 11.67 70.76 11.67 70.95C11.67 71.13 11.52 71.28 11.33 71.28C11.15 71.28 11 71.13 11 70.95ZM32.11 69.79C32.11 69.61 32.26 69.46 32.44 69.46C32.63 69.46 32.78 69.61 32.78 69.79C32.78 69.98 32.63 70.13 32.44 70.13C32.26 70.13 32.11 69.98 32.11 69.79ZM24.61 69.46C24.61 69.13 24.89 68.86 25.22 68.86C25.55 68.86 25.82 69.13 25.82 69.46C25.82 69.8 25.55 70.07 25.22 70.07C24.89 70.07 24.61 69.8 24.61 69.46ZM35.9 69.52C35.71 69.52 35.56 69.38 35.56 69.19C35.56 69.13 35.58 69.07 35.61 69.02C35.56 69.03 35.5 69.04 35.44 69.04C35.11 69.04 34.83 68.77 34.83 68.44C34.83 68.1 35.11 67.83 35.44 67.83C35.78 67.83 36.04 68.1 36.04 68.44C36.04 68.6 35.98 68.75 35.87 68.86L35.9 68.86C36.08 68.86 36.23 69.01 36.23 69.19C36.23 69.38 36.08 69.52 35.9 69.52L35.9 69.52ZM37.37 67.52C37.37 67.19 37.65 66.92 37.98 66.92C38.31 66.92 38.59 67.19 38.59 67.52C38.59 67.86 38.31 68.13 37.98 68.13C37.65 68.13 37.37 67.86 37.37 67.52ZM16.75 67.52C16.75 67.19 17.02 66.92 17.36 66.92C17.69 66.92 17.96 67.19 17.96 67.52C17.96 67.86 17.69 68.13 17.36 68.13C17.02 68.13 16.75 67.86 16.75 67.52ZM21.53 67.47C21.53 67.13 21.8 66.86 22.13 66.86C22.46 66.86 22.74 67.13 22.74 67.47C22.74 67.8 22.46 68.07 22.13 68.07C21.8 68.07 21.53 67.8 21.53 67.47ZM39.19 67.68C39.19 67.5 39.34 67.35 39.52 67.35C39.71 67.35 39.85 67.5 39.85 67.68C39.85 67.86 39.71 68.01 39.52 68.01C39.34 68.01 39.19 67.86 39.19 67.68ZM26.19 67.26C26.19 67.07 26.34 66.92 26.52 66.92C26.7 66.92 26.85 67.07 26.85 67.26C26.85 67.44 26.7 67.59 26.52 67.59C26.34 67.59 26.19 67.44 26.19 67.26ZM20.98 67.19C20.98 67.19 20.98 67.19 20.98 67.19C20.98 67.19 20.98 67.19 20.98 67.19L20.98 67.19ZM20.98 67.19C21.02 67.15 21.05 67.11 21.09 67.06C21.7 66.36 22.34 65.7 22.99 65.04C22.91 65.01 22.83 64.96 22.79 64.89C22.36 65.35 21.95 65.83 21.59 66.34C21.38 66.62 21.18 66.9 20.98 67.19ZM32.49 66.28C32.5 66.28 32.5 66.27 32.51 66.27C32.5 66.27 32.5 66.28 32.49 66.28L32.49 66.28ZM32.51 66.27C33.48 65.71 34.46 65.16 35.44 64.61C35.56 64.55 35.75 64.44 35.91 64.35C35.67 64.27 35.5 64.04 35.5 63.78C35.5 63.44 35.77 63.17 36.11 63.17C36.44 63.17 36.71 63.44 36.71 63.78C36.71 63.82 36.7 63.87 36.69 63.91L38.77 62.74C38.07 63.14 37.38 63.54 36.69 63.93C36.62 64.19 36.39 64.38 36.11 64.38C36.05 64.38 35.99 64.37 35.94 64.36C35.44 64.63 34.94 64.91 34.45 65.18C33.75 65.57 33.09 65.94 32.51 66.27ZM39.92 65.86C39.92 65.68 40.07 65.53 40.25 65.53C40.43 65.53 40.58 65.68 40.58 65.86C40.58 66.05 40.43 66.19 40.25 66.19C40.07 66.19 39.92 66.05 39.92 65.86ZM17.11 65.29C16.78 65.29 16.51 65.02 16.51 64.68C16.51 64.35 16.78 64.08 17.11 64.08C17.22 64.08 17.32 64.11 17.41 64.16C17.42 63.98 17.56 63.83 17.75 63.83C17.93 63.83 18.08 63.99 18.08 64.17C18.08 64.36 17.93 64.51 17.75 64.51C17.72 64.51 17.7 64.5 17.68 64.5C17.7 64.56 17.72 64.62 17.72 64.68C17.72 65.02 17.44 65.29 17.11 65.29ZM14.81 64.89C14.81 64.71 14.96 64.56 15.14 64.56C15.33 64.56 15.48 64.71 15.48 64.89C15.48 65.08 15.33 65.23 15.14 65.23C14.96 65.23 14.81 65.08 14.81 64.89ZM18.74 62.33C18.74 61.99 19.02 61.72 19.35 61.72C19.68 61.72 19.95 61.99 19.95 62.33C19.95 62.66 19.68 62.93 19.35 62.93C19.02 62.93 18.74 62.66 18.74 62.33ZM44.58 62.48C44.58 62.29 44.73 62.14 44.91 62.14C45.09 62.14 45.24 62.29 45.24 62.48C45.24 62.66 45.09 62.81 44.91 62.81C44.73 62.81 44.58 62.66 44.58 62.48ZM39.01 62.6L39.03 62.59C39.02 62.6 39.01 62.6 39.01 62.6L39.01 62.6ZM39.03 62.59C40.5 61.73 41.91 60.75 43.28 59.72C44.32 58.91 45.32 58.04 46.28 57.14C46.28 57.13 46.29 57.11 46.29 57.1C45.81 57.52 45.31 57.9 44.81 58.3C42.9 59.82 42.3 60.17 44.21 58.64C44.76 58.21 45.31 57.78 45.84 57.32C46.56 56.7 47.28 56.06 48 55.43C49.27 54.07 50.38 52.58 51.43 51.05C52.68 49.28 53.59 47.32 54.35 45.29C55.14 43.08 55.46 40.76 55.63 38.44C55.83 36.36 55.66 34.29 55.39 32.22C54.9 28.37 55.85 27.82 56.35 31.68C56.61 33.74 56.8 35.81 56.59 37.89C56.44 39.91 56.18 41.91 55.6 43.85C55.71 43.75 55.85 43.69 56.01 43.69C56.34 43.69 56.61 43.96 56.61 44.3C56.61 44.63 56.34 44.91 56.01 44.91C55.72 44.91 55.47 44.69 55.42 44.42C55.38 44.52 55.35 44.63 55.32 44.73C54.57 46.76 53.65 48.71 52.4 50.49C51.7 51.5 50.98 52.5 50.21 53.45C50.76 52.94 51.31 52.44 51.86 51.92L52.54 51.23C52.59 51.08 52.7 50.97 52.84 50.9C53.28 50.41 53.71 49.9 54.07 49.34C54.64 48.5 55.21 47.66 55.76 46.8C56.3 45.95 56.84 45.09 57.36 44.23C57.81 43.48 58.26 42.73 58.66 41.96C58.88 41.49 59.12 41.03 59.28 40.53C59.35 40.34 59.4 40.15 59.49 39.97C59.72 39.51 59.92 39.15 60.1 38.85C59.89 38.76 59.76 38.55 59.76 38.31C59.76 37.99 60.01 37.73 60.33 37.71C60.24 37.65 60.18 37.55 60.18 37.43C60.18 37.25 60.33 37.1 60.51 37.1C60.7 37.1 60.85 37.25 60.85 37.43C60.85 37.59 60.74 37.71 60.6 37.75C60.82 37.84 60.97 38.06 60.97 38.31C60.97 38.61 60.75 38.86 60.46 38.9C60.37 39.1 60.25 39.34 60.11 39.61C60.02 39.79 59.97 39.98 59.9 40.17C59.74 40.67 59.5 41.13 59.28 41.6L59.04 42.05C59.14 41.94 59.29 41.88 59.45 41.88C59.79 41.88 60.06 42.15 60.06 42.48C60.06 42.82 59.79 43.09 59.45 43.09C59.12 43.09 58.85 42.82 58.85 42.48C58.85 42.44 58.86 42.4 58.87 42.36C58.58 42.87 58.27 43.37 57.97 43.87C57.44 44.74 56.9 45.59 56.36 46.45C55.82 47.3 55.25 48.15 54.68 48.99C54.25 49.66 53.72 50.26 53.17 50.84C53.47 50.87 53.71 51.13 53.71 51.44C53.71 51.77 53.44 52.04 53.1 52.04C52.8 52.04 52.54 51.82 52.5 51.52L52.46 51.57C51.51 52.48 50.53 53.35 49.56 54.23L49.51 54.27C49.2 54.63 48.87 54.98 48.54 55.32C48.08 55.79 47.61 56.24 47.13 56.69C47.34 56.79 47.48 57 47.48 57.24C47.48 57.58 47.21 57.85 46.87 57.85C46.61 57.85 46.39 57.68 46.31 57.45C45.65 58.04 44.96 58.6 44.26 59.15C42.86 60.2 41.43 61.2 39.91 62.08L39.03 62.59ZM35.32 62.12C35.32 61.93 35.47 61.78 35.65 61.78C35.84 61.78 35.99 61.93 35.99 62.12C35.99 62.3 35.84 62.45 35.65 62.45C35.47 62.45 35.32 62.3 35.32 62.12ZM41.71 62.2L41.64 62.2C41.46 62.2 41.31 62.05 41.31 61.87C41.31 61.68 41.46 61.54 41.64 61.54C41.83 61.54 41.98 61.68 41.98 61.87C41.98 62.03 41.86 62.17 41.71 62.2ZM27.7 61.42C27.7 61.08 27.97 60.81 28.3 60.81C28.64 60.81 28.91 61.08 28.91 61.42C28.91 61.75 28.64 62.02 28.3 62.02C27.97 62.02 27.7 61.75 27.7 61.42ZM29.81 61.51C29.81 61.32 29.96 61.18 30.15 61.18C30.33 61.18 30.48 61.32 30.48 61.51C30.48 61.69 30.33 61.84 30.15 61.84C29.96 61.84 29.81 61.69 29.81 61.51ZM38.59 59.99C38.59 59.81 38.74 59.66 38.92 59.66C39.1 59.66 39.25 59.81 39.25 59.99C39.25 60.18 39.1 60.33 38.92 60.33C38.74 60.33 38.59 60.18 38.59 59.99ZM41.31 59.54C41.31 59.21 41.58 58.93 41.91 58.93C42.25 58.93 42.52 59.21 42.52 59.54C42.52 59.88 42.25 60.15 41.91 60.15C41.58 60.15 41.31 59.88 41.31 59.54ZM19.95 59.3C19.95 58.97 20.23 58.69 20.56 58.69C20.89 58.69 21.17 58.97 21.17 59.3C21.17 59.64 20.89 59.9 20.56 59.9C20.23 59.9 19.95 59.64 19.95 59.3ZM48.87 58.97C48.87 58.79 49.02 58.64 49.2 58.64C49.38 58.64 49.53 58.79 49.53 58.97C49.53 59.15 49.38 59.3 49.2 59.3C49.02 59.3 48.87 59.15 48.87 58.97ZM27.28 58.57C27.28 58.24 27.54 57.97 27.88 57.97C28.21 57.97 28.49 58.24 28.49 58.57C28.49 58.91 28.21 59.18 27.88 59.18C27.54 59.18 27.28 58.91 27.28 58.57ZM18.5 57.82C18.5 57.63 18.65 57.48 18.84 57.48C19.02 57.48 19.17 57.63 19.17 57.82C19.17 58 19.02 58.15 18.84 58.15C18.65 58.15 18.5 58 18.5 57.82ZM42.64 57.48C42.64 57.15 42.91 56.88 43.24 56.88C43.57 56.88 43.85 57.15 43.85 57.48C43.85 57.82 43.57 58.09 43.24 58.09C42.91 58.09 42.64 57.82 42.64 57.48ZM21.53 57.48C21.19 57.48 20.92 57.22 20.92 56.88C20.92 56.65 21.06 56.46 21.25 56.35C21.23 56.32 21.22 56.29 21.22 56.25C21.22 56.06 21.37 55.91 21.56 55.91C21.74 55.91 21.89 56.06 21.89 56.25C21.89 56.3 21.89 56.34 21.87 56.38C22.03 56.49 22.13 56.67 22.13 56.88C22.13 57.22 21.86 57.48 21.53 57.48L21.53 57.48ZM33.99 56.34C33.99 56.01 34.26 55.73 34.59 55.73C34.93 55.73 35.2 56.01 35.2 56.34C35.2 56.67 34.93 56.94 34.59 56.94C34.26 56.94 33.99 56.67 33.99 56.34ZM23.45 56.72C23.33 56.73 23.31 56.22 23.52 55.12C23.75 53.85 23.98 52.58 24.12 51.3C24.28 49.72 24.38 48.13 24.32 46.55C24.26 45.36 24.18 44.18 23.97 43C23.85 42.21 23.72 41.42 23.52 40.64C23.42 40.34 23.37 40.04 23.23 39.75C22.15 37.44 22.81 37.06 23.85 39.39C23.98 39.68 24.05 39.99 24.14 40.29C24.34 41.07 24.46 41.86 24.58 42.65C24.79 43.83 24.86 45.01 24.92 46.2C24.97 47.79 24.87 49.38 24.71 50.96C24.57 52.24 24.34 53.51 24.1 54.78C23.87 56.03 23.59 56.71 23.45 56.72L23.45 56.72ZM36.04 56.37C36.04 56.18 36.19 56.04 36.38 56.04C36.56 56.04 36.71 56.18 36.71 56.37C36.71 56.55 36.56 56.7 36.38 56.7C36.19 56.7 36.04 56.55 36.04 56.37ZM26.12 56.13C26.12 55.94 26.27 55.79 26.46 55.79C26.64 55.79 26.79 55.94 26.79 56.13C26.79 56.31 26.64 56.46 26.46 56.46C26.27 56.46 26.12 56.31 26.12 56.13ZM29.81 54.76C29.81 54.43 30.09 54.16 30.42 54.16C30.76 54.16 31.02 54.43 31.02 54.76C31.02 55.1 30.76 55.37 30.42 55.37C30.09 55.37 29.81 55.1 29.81 54.76ZM46.69 54.28C46.69 53.95 46.97 53.67 47.3 53.67C47.63 53.67 47.9 53.95 47.9 54.28C47.9 54.62 47.63 54.88 47.3 54.88C46.97 54.88 46.69 54.62 46.69 54.28ZM53.77 53.16C53.77 52.97 53.92 52.83 54.1 52.83C54.28 52.83 54.43 52.97 54.43 53.16C54.43 53.34 54.28 53.49 54.1 53.49C53.92 53.49 53.77 53.34 53.77 53.16ZM41.98 50.05C41.98 49.71 42.24 49.44 42.58 49.44C42.91 49.44 43.18 49.71 43.18 50.05C43.18 50.38 42.91 50.65 42.58 50.65C42.24 50.65 41.98 50.38 41.98 50.05ZM48.68 49.35C48.68 49.16 48.83 49.01 49.02 49.01C49.2 49.01 49.36 49.16 49.36 49.35C49.36 49.53 49.2 49.68 49.02 49.68C48.83 49.68 48.68 49.53 48.68 49.35ZM18.99 48.65C18.99 48.32 19.26 48.05 19.59 48.05C19.93 48.05 20.2 48.32 20.2 48.65C20.2 48.99 19.93 49.26 19.59 49.26C19.26 49.26 18.99 48.99 18.99 48.65ZM34.9 49.01C34.56 49.01 34.29 48.75 34.29 48.41C34.29 48.08 34.56 47.81 34.9 47.81C35.23 47.81 35.5 48.08 35.5 48.41C35.5 48.75 35.23 49.01 34.9 49.01ZM57.88 47.96C57.88 47.78 58.03 47.63 58.22 47.63C58.4 47.63 58.55 47.78 58.55 47.96C58.55 48.14 58.4 48.29 58.22 48.29C58.03 48.29 57.88 48.14 57.88 47.96ZM56.85 47.2C56.85 46.87 57.12 46.6 57.46 46.6C57.79 46.6 58.07 46.87 58.07 47.2C58.07 47.54 57.79 47.81 57.46 47.81C57.12 47.81 56.85 47.54 56.85 47.2ZM38.04 47.02C38.04 46.69 38.31 46.41 38.65 46.41C38.98 46.41 39.25 46.69 39.25 47.02C39.25 47.35 38.98 47.63 38.65 47.63C38.31 47.63 38.04 47.35 38.04 47.02ZM28.06 46.36C28.06 46.02 28.33 45.75 28.66 45.75C29 45.75 29.27 46.02 29.27 46.36C29.27 46.69 29 46.96 28.66 46.96C28.33 46.96 28.06 46.69 28.06 46.36ZM22.01 44.02C22.01 43.84 22.16 43.69 22.34 43.69C22.53 43.69 22.67 43.84 22.67 44.02C22.67 44.21 22.53 44.36 22.34 44.36C22.16 44.36 22.01 44.21 22.01 44.02ZM25.22 43.63C25.22 43.3 25.49 43.03 25.82 43.03C26.15 43.03 26.43 43.3 26.43 43.63C26.43 43.97 26.15 44.24 25.82 44.24C25.49 44.23 25.22 43.97 25.22 43.63ZM51.89 43.45C51.89 43.12 52.16 42.85 52.5 42.85C52.83 42.85 53.1 43.12 53.1 43.45C53.1 43.78 52.83 44.06 52.5 44.06C52.16 44.06 51.89 43.78 51.89 43.45ZM29.21 43.12C29.21 42.93 29.36 42.79 29.55 42.79C29.73 42.79 29.88 42.93 29.88 43.12C29.88 43.3 29.73 43.45 29.55 43.45C29.36 43.45 29.21 43.3 29.21 43.12ZM37.32 40.3C37.32 39.97 37.59 39.7 37.92 39.7C38.26 39.7 38.53 39.97 38.53 40.3C38.53 40.64 38.26 40.91 37.92 40.91C37.59 40.91 37.32 40.64 37.32 40.3ZM44.46 40.25C44.46 39.91 44.72 39.64 45.06 39.64C45.39 39.64 45.67 39.91 45.67 40.25C45.67 40.58 45.39 40.85 45.06 40.85C44.72 40.85 44.46 40.58 44.46 40.25ZM57.03 39.58C57.03 39.25 57.31 38.98 57.64 38.98C57.98 38.98 58.24 39.25 58.24 39.58C58.24 39.92 57.98 40.18 57.64 40.18C57.31 40.18 57.03 39.92 57.03 39.58ZM26.79 39.1C26.79 38.76 27.06 38.49 27.4 38.49C27.73 38.49 28 38.76 28 39.1C28 39.43 27.73 39.7 27.4 39.7C27.06 39.7 26.79 39.43 26.79 39.1ZM42.15 39.04C42.15 38.7 42.43 38.43 42.76 38.43C43.09 38.43 43.37 38.7 43.37 39.04C43.37 39.37 43.09 39.64 42.76 39.64C42.43 39.64 42.15 39.37 42.15 39.04ZM30.64 38.31C30.45 38.31 30.3 38.16 30.3 37.98C30.3 37.79 30.45 37.65 30.64 37.65C30.82 37.65 30.97 37.79 30.97 37.98C30.97 38.16 30.82 38.31 30.64 38.31ZM21.92 37.34C21.73 37.34 21.59 37.19 21.59 37.01C21.59 36.83 21.73 36.68 21.92 36.68C22.1 36.68 22.26 36.83 22.26 37.01C22.26 37.19 22.1 37.34 21.92 37.34ZM43.88 37.22C43.69 37.22 43.55 37.07 43.55 36.89C43.55 36.71 43.69 36.56 43.88 36.56C44.06 36.56 44.21 36.71 44.21 36.89C44.21 37.07 44.06 37.22 43.88 37.22ZM53.58 36.68C53.25 36.68 52.98 36.4 52.98 36.07C52.98 35.74 53.25 35.47 53.58 35.47C53.92 35.47 54.19 35.74 54.19 36.07C54.19 36.4 53.92 36.68 53.58 36.68ZM37.2 36.1C37.2 35.92 37.34 35.77 37.53 35.77C37.71 35.77 37.86 35.92 37.86 36.1C37.86 36.29 37.71 36.44 37.53 36.44C37.34 36.44 37.2 36.29 37.2 36.1ZM60.97 35.56C60.97 35.38 61.11 35.23 61.3 35.23C61.48 35.23 61.63 35.38 61.63 35.56C61.63 35.74 61.48 35.89 61.3 35.89C61.11 35.89 60.97 35.74 60.97 35.56ZM38.28 35.77C37.95 35.77 37.68 35.5 37.68 35.16C37.68 34.83 37.95 34.56 38.28 34.56C38.62 34.56 38.89 34.83 38.89 35.16C38.89 35.5 38.62 35.77 38.28 35.77ZM47.36 34.98C47.36 34.65 47.63 34.38 47.96 34.38C48.3 34.38 48.56 34.65 48.56 34.98C48.56 35.31 48.3 35.59 47.96 35.59C47.63 35.59 47.36 35.31 47.36 34.98ZM51.77 34.41C51.77 34.22 51.92 34.08 52.11 34.08C52.29 34.08 52.44 34.22 52.44 34.41C52.44 34.59 52.29 34.74 52.11 34.74C51.92 34.74 51.77 34.59 51.77 34.41ZM60.54 33.96C60.54 33.62 60.82 33.35 61.15 33.35C61.48 33.35 61.75 33.62 61.75 33.96C61.75 34.29 61.48 34.56 61.15 34.56C60.82 34.56 60.54 34.29 60.54 33.96ZM29.06 34.56C28.87 34.56 28.73 34.41 28.73 34.22C28.73 34.04 28.87 33.89 29.06 33.89C29.24 33.89 29.39 34.04 29.39 34.22C29.39 34.38 29.28 34.53 29.13 34.56L29.06 34.56ZM56.61 33.26C56.61 33.08 56.76 32.92 56.94 32.92C57.13 32.92 57.28 33.08 57.28 33.26C57.28 33.45 57.13 33.59 56.94 33.59C56.76 33.59 56.61 33.45 56.61 33.26ZM32.11 32.38C32.11 32.04 32.39 31.78 32.72 31.78C33.05 31.78 33.32 32.04 33.32 32.38C33.32 32.71 33.05 32.99 32.72 32.99C32.39 32.99 32.11 32.71 32.11 32.38ZM52.86 32.17C52.86 31.99 53.01 31.83 53.2 31.83C53.38 31.83 53.53 31.99 53.53 32.17C53.53 32.36 53.38 32.51 53.2 32.51C53.01 32.51 52.86 32.36 52.86 32.17ZM43.24 31.66C42.91 31.66 42.64 31.38 42.64 31.05C42.64 30.72 42.91 30.45 43.24 30.45C43.41 30.45 43.57 30.52 43.68 30.63C43.72 30.49 43.84 30.38 44 30.38C44.18 30.38 44.33 30.53 44.33 30.72C44.33 30.9 44.18 31.05 44 31.05C43.94 31.05 43.89 31.04 43.84 31.01C43.84 31.03 43.85 31.04 43.85 31.05C43.85 31.38 43.57 31.66 43.24 31.66ZM49.41 30.6C49.41 30.41 49.56 30.26 49.75 30.26C49.93 30.26 50.08 30.41 50.08 30.6C50.08 30.78 49.93 30.93 49.75 30.93C49.56 30.93 49.41 30.78 49.41 30.6ZM59.7 30.48C59.7 30.29 59.85 30.14 60.03 30.14C60.22 30.14 60.36 30.29 60.36 30.48C60.36 30.66 60.22 30.81 60.03 30.81C59.85 30.81 59.7 30.66 59.7 30.48ZM57.46 30.75C57.13 30.75 56.85 30.48 56.85 30.14C56.85 29.81 57.13 29.54 57.46 29.54C57.79 29.54 58.07 29.81 58.07 30.14C58.07 30.48 57.79 30.75 57.46 30.75ZM31.57 29.96C31.57 29.63 31.84 29.36 32.18 29.36C32.51 29.36 32.78 29.63 32.78 29.96C32.78 30.29 32.51 30.57 32.18 30.57C31.84 30.57 31.57 30.29 31.57 29.96ZM37.32 29.9C37.09 29.9 36.91 29.78 36.8 29.6C36.71 29.54 36.65 29.44 36.65 29.32C36.65 29.23 36.69 29.15 36.75 29.09C36.84 28.86 37.06 28.7 37.32 28.7C37.65 28.7 37.92 28.96 37.92 29.3C37.92 29.63 37.65 29.9 37.32 29.9L37.32 29.9ZM50.86 29.36C50.53 29.36 50.26 29.09 50.26 28.75C50.26 28.42 50.53 28.15 50.86 28.15C51.2 28.15 51.47 28.42 51.47 28.75C51.47 29.09 51.2 29.36 50.86 29.36ZM28.54 28.75C28.21 28.75 27.94 28.48 27.94 28.15C27.94 27.82 28.21 27.54 28.54 27.54C28.88 27.54 29.15 27.82 29.15 28.15C29.15 28.48 28.88 28.75 28.54 28.75ZM38.41 26.55C38.41 26.36 38.55 26.21 38.74 26.21C38.92 26.21 39.07 26.36 39.07 26.55C39.07 26.73 38.92 26.88 38.74 26.88C38.55 26.88 38.41 26.73 38.41 26.55ZM58.79 26.43C58.79 26.24 58.94 26.09 59.12 26.09C59.3 26.09 59.45 26.24 59.45 26.43C59.45 26.61 59.3 26.76 59.12 26.76C58.94 26.76 58.79 26.61 58.79 26.43ZM31.14 26.36C31.14 26.18 31.29 26.03 31.48 26.03C31.66 26.03 31.81 26.18 31.81 26.36C31.81 26.55 31.66 26.69 31.48 26.69C31.29 26.69 31.14 26.55 31.14 26.36ZM54.55 24.97C54.55 24.79 54.7 24.64 54.89 24.64C55.07 24.64 55.22 24.79 55.22 24.97C55.22 25.15 55.07 25.3 54.89 25.3C54.7 25.3 54.55 25.15 54.55 24.97ZM55.59 24.21C55.59 23.88 55.85 23.61 56.19 23.61C56.52 23.61 56.79 23.88 56.79 24.21C56.79 24.55 56.52 24.82 56.19 24.82C55.85 24.82 55.59 24.55 55.59 24.21ZM34.11 23.76C34.11 23.58 34.26 23.43 34.45 23.43C34.63 23.43 34.78 23.58 34.78 23.76C34.78 23.94 34.63 24.09 34.45 24.09C34.26 24.09 34.11 23.94 34.11 23.76ZM36.59 23.25C36.59 22.92 36.86 22.64 37.2 22.64C37.53 22.64 37.8 22.92 37.8 23.25C37.8 23.59 37.53 23.85 37.2 23.85C36.86 23.85 36.59 23.59 36.59 23.25ZM31.38 22.28C31.38 21.95 31.66 21.67 31.99 21.67C32.33 21.67 32.6 21.95 32.6 22.28C32.6 22.62 32.33 22.88 31.99 22.88C31.66 22.88 31.38 22.62 31.38 22.28ZM49.11 22.37C49.11 22.18 49.26 22.03 49.44 22.03C49.63 22.03 49.77 22.18 49.77 22.37C49.77 22.55 49.63 22.71 49.44 22.71C49.26 22.71 49.11 22.55 49.11 22.37ZM41.01 22.04C41.01 21.7 41.27 21.43 41.61 21.43C41.94 21.43 42.22 21.7 42.22 22.04C42.22 22.37 41.94 22.64 41.61 22.64C41.27 22.64 41.01 22.37 41.01 22.04ZM51.71 21.7C51.71 21.52 51.86 21.37 52.04 21.37C52.23 21.37 52.38 21.52 52.38 21.7C52.38 21.89 52.23 22.04 52.04 22.04C51.86 22.04 51.71 21.89 51.71 21.7ZM40.04 20.32C40.04 20.13 40.19 19.98 40.37 19.98C40.55 19.98 40.7 20.13 40.7 20.32C40.7 20.5 40.55 20.65 40.37 20.65C40.19 20.65 40.04 20.5 40.04 20.32ZM26.79 19.86C26.79 19.52 27.06 19.26 27.4 19.26C27.73 19.26 28 19.52 28 19.86C28 20.19 27.73 20.47 27.4 20.47C27.06 20.47 26.79 20.19 26.79 19.86ZM49.84 18.68C49.84 18.5 49.99 18.35 50.17 18.35C50.35 18.35 50.5 18.5 50.5 18.68C50.5 18.87 50.35 19.02 50.17 19.02C49.99 19.02 49.84 18.87 49.84 18.68ZM51.71 17.98C51.71 17.65 51.99 17.38 52.32 17.38C52.65 17.38 52.92 17.65 52.92 17.98C52.92 18.32 52.65 18.59 52.32 18.59C51.99 18.59 51.71 18.32 51.71 17.98ZM26.24 17.35C26.24 17.16 26.39 17.02 26.58 17.02C26.76 17.02 26.91 17.16 26.91 17.35C26.91 17.53 26.76 17.68 26.58 17.68C26.39 17.68 26.24 17.53 26.24 17.35ZM52.02 16.08C52.02 15.9 52.16 15.75 52.35 15.75C52.53 15.75 52.68 15.9 52.68 16.08C52.68 16.27 52.53 16.41 52.35 16.41C52.16 16.41 52.02 16.27 52.02 16.08ZM35.38 15.17C35.38 14.99 35.53 14.84 35.71 14.84C35.9 14.84 36.04 14.99 36.04 15.17C36.04 15.35 35.9 15.5 35.71 15.5C35.53 15.5 35.38 15.35 35.38 15.17ZM26.85 13.54C26.85 13.35 27 13.2 27.19 13.2C27.37 13.2 27.52 13.35 27.52 13.54C27.52 13.72 27.37 13.87 27.19 13.87C27 13.87 26.85 13.72 26.85 13.54ZM28.54 12.33C28.54 12.14 28.69 12 28.87 12C29.06 12 29.21 12.14 29.21 12.33C29.21 12.51 29.06 12.66 28.87 12.66C28.69 12.66 28.54 12.51 28.54 12.33Z" />
		<path id="Layer" class="shp9" d="M29.69 50.63C29.69 56.05 25.3 60.44 19.88 60.44C14.46 60.44 10.07 56.05 10.07 50.63C10.07 45.21 14.46 40.81 19.88 40.81C25.3 40.81 29.69 45.21 29.69 50.63Z" />
		<g id="Layer">
			<path id="Layer" class="shp10" d="M19.86 43.53C18.47 43.53 17.34 44.88 17.34 46.55C17.34 47.24 17.54 47.93 17.88 48.5C17.32 48.11 16.61 47.87 15.91 47.87C14.36 47.87 13.11 49.09 13.11 50.59C13.11 52.1 14.36 53.32 15.91 53.32C17.31 53.32 18.73 52.25 18.98 50.93C19.18 51.62 19.28 52.36 19.28 53.13C19.28 54.93 18.71 56.56 17.79 57.73L22.06 57.73C21.09 56.55 20.48 54.88 20.48 53.03C20.48 52.29 20.58 51.57 20.76 50.91C20.92 52.29 22.4 53.32 23.86 53.32C25.4 53.32 26.65 52.1 26.65 50.59C26.65 49.09 25.4 47.87 23.86 47.87C23.14 47.87 22.4 48.15 21.83 48.61C22.17 48.01 22.38 47.28 22.38 46.55C22.38 44.88 21.25 43.53 19.86 43.53L19.86 43.53Z" />
		</g>
		<path id="Layer" class="shp11" d="M29.69 80.51C29.69 85.93 25.3 90.32 19.88 90.32C14.46 90.32 10.07 85.93 10.07 80.51C10.07 75.09 14.46 70.7 19.88 70.7C25.3 70.7 29.69 75.09 29.69 80.51Z" />
		<g id="Layer">
			<path id="Layer" class="shp12" d="M19.86 73.41C18.47 73.41 17.34 74.76 17.34 76.43C17.34 77.12 17.54 77.81 17.88 78.39C17.32 77.99 16.61 77.75 15.91 77.75C14.36 77.75 13.11 78.97 13.11 80.48C13.11 81.98 14.36 83.2 15.91 83.2C17.31 83.2 18.73 82.14 18.98 80.82C19.18 81.5 19.28 82.25 19.28 83.02C19.28 84.82 18.71 86.44 17.79 87.62L22.06 87.62C21.09 86.43 20.48 84.77 20.48 82.91C20.48 82.17 20.58 81.46 20.76 80.79C20.92 82.18 22.4 83.2 23.86 83.2C25.4 83.2 26.65 81.98 26.65 80.48C26.65 78.98 25.4 77.75 23.86 77.75C23.14 77.75 22.4 78.04 21.83 78.5C22.17 77.9 22.38 77.16 22.38 76.43C22.38 74.76 21.25 73.41 19.86 73.41L19.86 73.41Z" />
		</g>
		<path id="Layer" class="shp13" d="M62.68 19.81C62.68 25.23 58.29 29.62 52.87 29.62C47.45 29.62 43.06 25.23 43.06 19.81C43.06 14.39 47.45 9.99 52.87 9.99C58.29 9.99 62.68 14.39 62.68 19.81Z" />
		<g id="Layer">
			<path id="Layer" class="shp14" d="M52.85 12.7C51.46 12.7 50.33 14.06 50.33 15.73C50.33 16.41 50.53 17.11 50.87 17.68C50.31 17.28 49.6 17.05 48.9 17.05C47.35 17.05 46.1 18.27 46.1 19.77C46.1 21.28 47.35 22.49 48.9 22.49C50.3 22.49 51.72 21.43 51.97 20.11C52.17 20.8 52.27 21.54 52.27 22.31C52.27 24.11 51.7 25.73 50.78 26.91L55.05 26.91C54.08 25.73 53.47 24.06 53.47 22.21C53.47 21.46 53.57 20.75 53.75 20.09C53.91 21.47 55.39 22.49 56.85 22.49C58.39 22.49 59.64 21.28 59.64 19.77C59.64 18.27 58.39 17.05 56.85 17.05C56.13 17.05 55.39 17.33 54.82 17.79C55.16 17.19 55.37 16.46 55.37 15.73C55.37 14.06 54.24 12.7 52.85 12.7L52.85 12.7Z" />
		</g>
		<path id="Layer" class="shp15" d="M62.68 50.63C62.68 56.05 58.29 60.44 52.87 60.44C47.45 60.44 43.06 56.05 43.06 50.63C43.06 45.21 47.45 40.81 52.87 40.81C58.29 40.81 62.68 45.21 62.68 50.63Z" />
		<g id="Layer">
			<path id="Layer" class="shp16" d="M52.85 43.53C51.46 43.53 50.33 44.88 50.33 46.55C50.33 47.24 50.53 47.93 50.87 48.5C50.31 48.11 49.6 47.87 48.9 47.87C47.35 47.87 46.1 49.09 46.1 50.59C46.1 52.1 47.35 53.32 48.9 53.32C50.3 53.32 51.72 52.25 51.97 50.93C52.17 51.62 52.27 52.36 52.27 53.13C52.27 54.93 51.7 56.56 50.78 57.73L55.05 57.73C54.08 56.55 53.47 54.88 53.47 53.03C53.47 52.29 53.57 51.57 53.75 50.91C53.91 52.29 55.39 53.32 56.85 53.32C58.39 53.32 59.64 52.1 59.64 50.59C59.64 49.09 58.39 47.87 56.85 47.87C56.13 47.87 55.39 48.15 54.82 48.61C55.16 48.01 55.37 47.28 55.37 46.55C55.37 44.88 54.24 43.53 52.85 43.53L52.85 43.53Z" />
		</g>
		<path id="Layer" class="shp17" d="M62.68 80.51C62.68 85.93 58.29 90.32 52.87 90.32C47.45 90.32 43.06 85.93 43.06 80.51C43.06 75.09 47.45 70.7 52.87 70.7C58.29 70.7 62.68 75.09 62.68 80.51Z" />
		<g id="Layer">
			<path id="Layer" class="shp18" d="M52.85 73.41C51.46 73.41 50.33 74.76 50.33 76.43C50.33 77.12 50.53 77.81 50.87 78.39C50.31 77.99 49.6 77.75 48.9 77.75C47.35 77.75 46.1 78.97 46.1 80.48C46.1 81.98 47.35 83.2 48.9 83.2C50.3 83.2 51.72 82.14 51.97 80.82C52.17 81.5 52.27 82.25 52.27 83.02C52.27 84.82 51.7 86.44 50.78 87.62L55.05 87.62C54.08 86.43 53.47 84.77 53.47 82.91C53.47 82.17 53.57 81.46 53.75 80.79C53.91 82.18 55.39 83.2 56.85 83.2C58.39 83.2 59.64 81.98 59.64 80.48C59.64 78.98 58.39 77.75 56.85 77.75C56.13 77.75 55.39 78.04 54.82 78.5C55.16 77.9 55.37 77.16 55.37 76.43C55.37 74.76 54.24 73.41 52.85 73.41L52.85 73.41Z" />
		</g>
		<path id="Layer" fill-rule="evenodd" class="shp19" d="M64.58 8.24L64.61 8.42C62.87 8.71 61.62 9.9 61.32 11.58C62.02 11.16 62.26 11.08 62.74 11.08C64.02 11.08 64.83 11.98 64.83 13.4C64.83 14.93 63.87 15.98 62.5 15.98C61.81 15.98 61.21 15.71 60.79 15.23C60.31 14.67 60.02 13.7 60.02 12.73C60.02 11.25 60.67 9.98 61.87 9.13C62.68 8.56 63.32 8.35 64.58 8.24ZM62.32 11.59C61.93 11.59 61.59 11.69 61.36 11.87C61.14 12.03 61.05 12.34 61.05 12.91C61.05 14.63 61.65 15.67 62.62 15.67C63.4 15.67 63.83 14.99 63.83 13.77C63.83 12.39 63.28 11.59 62.32 11.59L62.32 11.59Z" />
	</g>
</svg>