<svg xmlns="http://www.w3.org/2000/svg" viewBox="0 0 73 102" width="73" height="102">
	<defs>
		<filter x="-50%" y="-50%" width="200%" height="200%" id="flt1"> <feGaussianBlur stdDeviation="0.85" /> </filter>
		<linearGradient id="grd1" gradientUnits="userSpaceOnUse"  x1="41.178" y1="26.195" x2="43.323" y2="-90.188">
			<stop offset="0" stop-color="#f3f3f3"  />
			<stop offset="1" stop-color="#8f8f8f"  />
		</linearGradient>
		<radialGradient id="grd2" gradientUnits="userSpaceOnUse"  cx="10.231" cy="91.454" r="13.273">
			<stop offset="0" stop-color="#ffffff"  />
			<stop offset="1" stop-color="#ffffff" stop-opacity="0" />
		</radialGradient>
		<radialGradient id="grd3" gradientUnits="userSpaceOnUse"  cx="62.298" cy="12.398" r="14.287">
			<stop offset="0" stop-color="#ffffff"  />
			<stop offset="1" stop-color="#ffffff" stop-opacity="0" />
		</radialGradient>
		<radialGradient id="grd4" gradientUnits="userSpaceOnUse"  cx="36.682" cy="50.391" r="22.382">
			<stop offset="0" stop-color="#ffffff"  />
			<stop offset="1" stop-color="#ffffff" stop-opacity="0" />
		</radialGradient>
		<linearGradient id="grd5" gradientUnits="userSpaceOnUse"  x1="-59.385" y1="90.668" x2="-59.385" y2="87.192">
			<stop offset="0" stop-color="#000000"  />
			<stop offset="1" stop-color="#555753"  />
		</linearGradient>
		<radialGradient id="grd6" gradientUnits="userSpaceOnUse"  cx="17.91" cy="73.646" r="25.374">
			<stop offset="0" stop-color="#000000"  />
			<stop offset="1" stop-color="#000000" stop-opacity="0" />
		</radialGradient>
		<linearGradient id="grd7" gradientUnits="userSpaceOnUse"  x1="30.525" y1="24.055" x2="30.775" y2="67.2">
			<stop offset="0" stop-color="#000000"  />
			<stop offset="1" stop-color="#6f6f6f"  />
		</linearGradient>
		<linearGradient id="grd8" gradientUnits="userSpaceOnUse"  x1="-787.127" y1="10.018" x2="-787.127" y2="24.569">
			<stop offset="0" stop-color="#000000"  />
			<stop offset="1" stop-color="#6f6f6f"  />
		</linearGradient>
		<linearGradient id="grd9" gradientUnits="userSpaceOnUse"  x1="62.295" y1="12.84" x2="62.235" y2="8.959">
			<stop offset="0" stop-color="#000000"  />
			<stop offset="1" stop-color="#6f6f6f"  />
		</linearGradient>
	</defs>
	<style>
		tspan { white-space:pre }
		.shp0 { filter: url(#flt1);fill: #000000 } 
		.shp1 { fill: url(#grd1);stroke: #000000;stroke-width: 0.226 } 
		.shp2 { opacity: 0.31;fill: url(#grd2) } 
		.shp3 { opacity: 0.318;fill: url(#grd3) } 
		.shp4 { fill: none;stroke: #000000;stroke-width: 0.226 } 
		.shp5 { opacity: 0.325;fill: url(#grd4) } 
		.shp6 { fill: url(#grd5);stroke: #1d1d1d;stroke-linejoin:round;stroke-width: 0.166 } 
		.shp7 { fill: url(#grd6) } 
		.shp8 { fill: url(#grd7);stroke: #0c0c0c;stroke-width: 0.385 } 
		.shp9 { fill: url(#grd8);stroke: #0c0c0c;stroke-linejoin:round;stroke-width: 0.345 } 
		.shp10 { fill: url(#grd9) } 
	</style>
	<g id="-e-Club11">
		<g id="Layer">
			<path id="Layer" fill-rule="evenodd" class="shp0" d="M4.66 1.37L67.91 1.37C68.36 1.37 68.81 1.46 69.23 1.64C69.65 1.81 70.03 2.06 70.35 2.38C70.67 2.7 70.92 3.09 71.09 3.5C71.27 3.92 71.36 4.37 71.36 4.82L71.36 97.11C71.36 97.56 71.27 98.01 71.09 98.43C70.92 98.85 70.67 99.23 70.35 99.55C70.03 99.87 69.65 100.13 69.23 100.3C68.81 100.47 68.36 100.56 67.91 100.56L4.66 100.56C4.2 100.56 3.75 100.47 3.34 100.3C2.92 100.13 2.54 99.87 2.22 99.55C1.9 99.23 1.64 98.85 1.47 98.43C1.29 98.01 1.21 97.56 1.21 97.11L1.21 4.82C1.21 4.37 1.29 3.92 1.47 3.5C1.64 3.09 1.9 2.7 2.22 2.38C2.54 2.06 2.92 1.81 3.34 1.64C3.75 1.46 4.2 1.37 4.66 1.37" />
			<path id="Layer" fill-rule="evenodd" class="shp1" d="M5.66 0.8L67.71 0.8C68.24 0.8 68.77 0.9 69.26 1.11C69.75 1.31 70.2 1.61 70.57 1.98C70.95 2.36 71.25 2.81 71.45 3.3C71.66 3.79 71.76 4.32 71.76 4.85L71.76 95.93C71.76 96.46 71.66 96.99 71.45 97.48C71.25 97.97 70.95 98.42 70.57 98.8C70.2 99.17 69.75 99.47 69.26 99.68C68.77 99.88 68.24 99.98 67.71 99.98L5.66 99.98C5.13 99.98 4.6 99.88 4.11 99.68C3.62 99.47 3.17 99.17 2.8 98.8C2.42 98.42 2.12 97.97 1.92 97.48C1.71 96.99 1.61 96.46 1.61 95.93L1.61 4.85C1.61 4.32 1.71 3.79 1.92 3.3C2.12 2.81 2.42 2.36 2.8 1.98C3.17 1.61 3.62 1.31 4.11 1.11C4.6 0.9 5.13 0.8 5.66 0.8" />
			<path id="Layer" class="shp2" d="M30.76 96.52L5.92 96.52C5.81 96.52 5.7 96.5 5.59 96.45C5.49 96.41 5.39 96.35 5.32 96.27C5.24 96.19 5.17 96.1 5.13 95.99C5.09 95.89 5.06 95.78 5.06 95.67L5.06 73.09C5.06 72.98 5.09 72.87 5.13 72.77C5.17 72.66 5.24 72.57 5.32 72.49C5.39 72.41 5.49 72.35 5.59 72.31C5.7 72.26 5.81 72.24 5.92 72.24L30.76 72.24C30.87 72.24 30.98 72.26 31.08 72.31C31.19 72.35 31.28 72.41 31.36 72.49C31.44 72.57 31.5 72.66 31.55 72.77C31.59 72.87 31.61 72.98 31.61 73.09L31.61 95.67C31.61 95.78 31.59 95.89 31.55 95.99C31.5 96.1 31.44 96.19 31.36 96.27C31.28 96.35 31.19 96.41 31.08 96.45C30.98 96.5 30.87 96.52 30.76 96.52" />
			<path id="Layer" class="shp3" d="M40.77 4.26L67.27 4.26C67.4 4.26 67.54 4.29 67.67 4.34C67.79 4.39 67.91 4.47 68 4.56C68.1 4.66 68.17 4.78 68.23 4.9C68.28 5.03 68.31 5.16 68.31 5.3L68.31 48.5C68.31 48.63 68.28 48.77 68.23 48.89C68.17 49.02 68.1 49.13 68 49.23C67.91 49.33 67.79 49.4 67.67 49.45C67.54 49.51 67.4 49.53 67.27 49.53L40.77 49.53C40.63 49.53 40.5 49.51 40.37 49.45C40.25 49.4 40.13 49.33 40.04 49.23C39.94 49.13 39.86 49.02 39.81 48.89C39.76 48.77 39.73 48.63 39.73 48.5L39.73 5.3C39.73 5.16 39.76 5.03 39.81 4.9C39.86 4.78 39.94 4.66 40.04 4.56C40.13 4.47 40.25 4.39 40.37 4.34C40.5 4.29 40.63 4.26 40.77 4.26" />
			<path id="Layer" class="shp4" d="M20.03 92.49L64.75 92.49L64.75 18.89" />
			<path id="Layer" class="shp4" d="M53.18 8.28L8.62 8.28L8.62 81.47" />
			<path id="Layer" class="shp5" d="M59.06 50.39C59.06 72.28 49.04 90.03 36.68 90.03C24.31 90.03 14.29 72.28 14.29 50.39C14.29 28.5 24.31 10.76 36.68 10.76C49.04 10.76 59.06 28.5 59.06 50.39Z" />
		</g>
		<g id="Layer">
			<path id="Layer" class="shp6" d="M12.06 85.76C11.39 85.76 10.85 86.42 10.85 87.22C10.85 87.55 10.95 87.88 11.11 88.16C10.84 87.97 10.5 87.86 10.16 87.86C9.41 87.86 8.81 88.44 8.81 89.17C8.81 89.89 9.41 90.48 10.16 90.48C10.83 90.48 11.52 89.97 11.64 89.33C11.73 89.66 11.78 90.02 11.78 90.39C11.78 91.26 11.51 92.04 11.06 92.61L13.12 92.61C12.65 92.04 12.36 91.23 12.36 90.34C12.36 89.98 12.41 89.64 12.5 89.32C12.57 89.99 13.28 90.48 13.99 90.48C14.73 90.48 15.33 89.89 15.33 89.17C15.33 88.44 14.73 87.86 13.99 87.86C13.64 87.86 13.29 87.99 13.01 88.21C13.18 87.93 13.27 87.57 13.27 87.22C13.27 86.42 12.73 85.76 12.06 85.76L12.06 85.76Z" />
		</g>
		<path id="Layer" fill-rule="evenodd" class="shp7" d="M17.81 89.26C17.81 89.26 17.81 89.26 17.81 89.26C17.81 89.26 17.81 89.26 17.81 89.26L17.81 89.26ZM17.81 89.26C15.5 83.49 13.94 83.65 11.95 83.08L14.92 83.08C14.94 82.98 14.96 82.88 14.97 82.78C15.03 82.53 15.1 82.28 15.18 82.04C15.18 81.71 15.18 81.38 15.18 81.05C15.19 80.33 15.29 79.62 15.38 78.91C15.4 78.73 15.43 78.55 15.45 78.37C15.36 78.29 15.38 77.75 15.64 76.69C15.69 76.47 15.73 76.25 15.77 76.04C15.86 75.54 15.97 75.04 16.08 74.54C16.2 73.95 16.4 73.38 16.58 72.81C16.82 72.12 17.11 71.46 17.39 70.79C17.74 69.98 18.1 69.16 18.46 68.35C18.95 67.26 19.5 66.19 20.04 65.12C20.72 63.81 21.33 62.46 21.92 61.1C22.61 59.45 23.3 57.79 23.99 56.13C24.74 54.37 25.45 52.58 26.12 50.78C26.17 50.67 26.21 50.55 26.25 50.44C26.24 50.4 26.23 50.36 26.23 50.32C26.23 50.19 26.29 50.08 26.39 50.03C26.99 48.35 27.53 46.65 28.05 44.95C28.71 42.8 29.26 40.62 29.7 38.42C30.15 35.87 30.26 33.27 30.23 30.68C30.17 28.57 29.95 26.47 29.7 24.37C29.59 24.46 29.46 24.52 29.31 24.52C28.98 24.52 28.7 24.25 28.7 23.92C28.7 23.58 28.98 23.31 29.31 23.31C29.41 23.31 29.5 23.34 29.59 23.38L29.52 22.81C29.42 22.07 29.32 21.33 29.21 20.59C29.16 20.7 29.04 20.77 28.92 20.77C28.73 20.77 28.58 20.62 28.58 20.44C28.58 20.25 28.73 20.1 28.92 20.1C29 20.1 29.09 20.13 29.15 20.19C29.05 19.5 28.94 18.8 28.83 18.1C28.66 17.03 28.69 16.39 28.81 16.22C28.71 16.12 28.65 15.97 28.65 15.81C28.65 15.47 28.91 15.21 29.25 15.21C29.58 15.21 29.86 15.47 29.86 15.81C29.86 16.14 29.58 16.41 29.25 16.41C29.18 16.41 29.12 16.4 29.06 16.38C29.17 16.62 29.3 17.07 29.41 17.77C29.65 19.34 29.89 20.91 30.09 22.48C30.41 25.09 30.72 27.71 30.8 30.35C30.82 32.94 30.72 35.54 30.28 38.09C29.84 40.29 29.28 42.46 28.63 44.61C28.07 46.46 27.49 48.3 26.83 50.12C26.87 50.17 26.89 50.24 26.89 50.32C26.89 50.47 26.78 50.6 26.64 50.64C25.99 52.37 25.3 54.09 24.57 55.79C23.89 57.45 23.2 59.11 22.51 60.76C21.93 62.12 21.32 63.47 20.64 64.77C20.1 65.84 19.55 66.91 19.07 68C18.71 68.82 18.35 69.62 18 70.44C17.72 71.1 17.43 71.77 17.19 72.45C17.01 73.03 16.81 73.6 16.69 74.19C16.68 74.26 16.66 74.33 16.65 74.4C16.84 73.98 17.03 73.56 17.23 73.14C17.38 72.83 17.55 72.52 17.72 72.22C17.72 72.21 17.72 72.2 17.72 72.2C17.8 71.95 17.94 71.72 18.04 71.49C18.21 71.14 18.42 70.82 18.62 70.49C18.81 70.17 19.02 69.87 19.24 69.57C19.81 68.57 20.47 67.62 21.14 66.68C21.67 65.96 22.28 65.31 22.91 64.67C22.93 64.52 23.04 64.41 23.18 64.38L23.7 63.87C24.7 62.92 25.74 62.01 26.74 61.07C27.93 59.96 29.08 58.81 30.22 57.65C31.53 56.34 32.73 54.94 33.84 53.46C35.09 51.75 36.13 49.91 37.14 48.05C37.47 47.45 37.78 46.84 38.08 46.22L37.96 46.24C37.62 46.24 37.36 45.96 37.36 45.63C37.36 45.29 37.62 45.03 37.96 45.03C38.18 45.03 38.38 45.15 38.48 45.33C38.97 44.22 39.4 43.09 39.79 41.94L39.86 41.7C39.82 41.43 39.8 41.04 39.82 40.49C39.84 39.55 39.86 38.61 39.84 37.67C39.78 35.99 39.67 34.3 39.45 32.63C39.26 31.49 39.09 30.35 38.76 29.24C38.59 28.68 38.44 28.11 38.18 27.58C38.09 27.43 38.05 27.26 37.92 27.15C35.99 25.46 36.63 25.07 38.54 26.78C38.67 26.9 38.72 27.08 38.81 27.22C39.05 27.76 39.21 28.32 39.37 28.89C39.7 30 39.87 31.14 40.05 32.29C40.27 33.96 40.37 35.64 40.42 37.33C40.44 38.04 40.43 38.75 40.42 39.46C40.74 37.97 40.97 36.46 41.16 34.95C41.21 34.28 41.24 33.61 41.26 32.94C41.19 32.97 41.12 32.99 41.05 32.99C40.71 32.99 40.44 32.71 40.44 32.38C40.44 32.04 40.71 31.78 41.05 31.78C41.13 31.78 41.21 31.8 41.28 31.83C41.28 30.79 41.26 29.75 41.23 28.72C40.99 28.64 40.81 28.42 40.81 28.15C40.81 27.89 40.97 27.67 41.2 27.59C41.19 27.48 41.18 27.37 41.18 27.26C41.17 26.84 41.15 26.43 41.14 26.01C41.05 23.67 41.63 23.33 41.71 25.68C41.73 26.09 41.74 26.51 41.75 26.93C41.76 27.17 41.77 27.42 41.78 27.67C41.92 27.78 42.02 27.95 42.02 28.15C42.02 28.33 41.94 28.49 41.81 28.6C41.87 30.61 41.89 32.62 41.73 34.62C41.44 36.98 41.06 39.33 40.37 41.61C39.66 43.72 38.81 45.77 37.72 47.72C36.71 49.57 35.67 51.42 34.43 53.12C33.32 54.6 32.12 56.01 30.82 57.31C29.68 58.47 28.52 59.61 27.34 60.72C26.33 61.66 25.3 62.58 24.3 63.52C23.99 63.82 23.69 64.12 23.39 64.43C23.47 64.47 23.53 64.54 23.55 64.63C24.31 63.86 25.11 63.13 25.92 62.4L28.72 59.91C29.71 59.02 30.71 58.15 31.71 57.27C32.83 56.3 33.92 55.29 35 54.26C36.22 53.1 37.41 51.92 38.59 50.72C39.84 49.46 41.02 48.14 42.16 46.79C43.04 45.74 43.87 44.66 44.69 43.57C44.68 43.53 44.67 43.49 44.67 43.45C44.67 43.14 44.91 42.89 45.22 42.86L45.83 42.02C46.91 40.53 47.89 38.97 48.81 37.38C48.77 37.4 48.74 37.41 48.7 37.41C48.51 37.41 48.36 37.26 48.36 37.07C48.36 36.89 48.51 36.73 48.7 36.73C48.86 36.73 48.99 36.85 49.02 37C49.11 36.85 49.2 36.71 49.28 36.56C50.36 34.55 51.39 32.5 52.08 30.32C52.59 28.42 52.89 26.47 53.2 24.53C53.57 22.2 54.15 21.86 53.78 24.19C53.47 26.13 53.17 28.09 52.66 29.99C51.97 32.17 50.95 34.22 49.87 36.22C48.82 38.1 47.68 39.93 46.41 41.68C46.12 42.09 45.82 42.49 45.52 42.9C45.73 42.99 45.88 43.2 45.88 43.45C45.88 43.78 45.62 44.06 45.28 44.06C45.1 44.06 44.93 43.97 44.82 43.84C44.15 44.72 43.46 45.6 42.75 46.45C41.6 47.8 40.42 49.12 39.17 50.38C38.6 50.96 38.03 51.53 37.46 52.1C37.63 51.94 37.93 51.67 38.39 51.28C39.49 50.34 40.61 49.41 41.76 48.53C42.84 47.72 43.95 46.93 45.17 46.33C45.27 46.13 45.47 46 45.71 46C45.76 46 45.81 46 45.86 46.01C46.05 45.94 46.23 45.89 46.43 45.88C48.86 45.72 48.39 46.04 46.16 46.21C46.25 46.31 46.31 46.45 46.31 46.6C46.31 46.93 46.04 47.2 45.71 47.2C45.37 47.2 45.1 46.93 45.1 46.6C45.1 46.53 45.12 46.48 45.13 46.42L44.63 46.64C44.23 46.8 43.19 47.57 42.36 48.19C41.2 49.07 40.08 50 38.98 50.94C37.84 51.91 37.18 52.41 37.29 52.27C36.73 52.82 36.17 53.37 35.6 53.91C34.52 54.94 33.43 55.95 32.31 56.93C31.31 57.8 30.31 58.67 29.32 59.56C28.39 60.4 27.46 61.23 26.53 62.05C25.66 62.83 24.8 63.62 23.99 64.46C23.26 65.19 22.54 65.93 21.87 66.71C21.34 67.32 20.82 67.94 20.32 68.58L19.81 69.28C19.78 69.33 19.75 69.37 19.72 69.42C19.27 70.19 18.82 70.96 18.39 71.74L18.35 71.84C18.31 71.96 18.27 72.09 18.21 72.21C17.86 72.98 17.55 73.52 17.34 73.84C17.02 74.55 16.72 75.28 16.51 76.04C16.29 76.87 16.08 77.7 15.99 78.56C15.91 79.17 15.83 79.77 15.81 80.38L15.95 80.08C16.27 79.47 16.65 78.89 17.04 78.32C17.35 77.84 17.69 77.4 18.06 76.96C17.98 76.86 17.94 76.74 17.94 76.6C17.94 76.27 18.21 75.99 18.54 75.99C18.65 75.99 18.76 76.03 18.85 76.08C19.43 75.48 20.05 74.92 20.67 74.36C21.48 73.62 22.34 72.93 23.2 72.25C24.23 71.45 25.33 70.74 26.43 70.03C27.68 69.21 28.95 68.44 30.24 67.67L30.53 67.5C30.28 67.43 30.1 67.2 30.1 66.92C30.1 66.59 30.37 66.31 30.7 66.31C31.04 66.31 31.3 66.59 31.3 66.92C31.3 67.26 31.04 67.52 30.7 67.52C30.65 67.52 30.6 67.52 30.56 67.51C29.5 68.14 28.46 68.79 27.42 69.45C26.33 70.17 25.24 70.87 24.21 71.67C23.35 72.35 22.49 73.03 21.68 73.77C20.95 74.43 20.21 75.09 19.55 75.82L19.09 76.35C19.13 76.43 19.15 76.51 19.15 76.6C19.15 76.94 18.88 77.2 18.54 77.2C18.51 77.2 18.47 77.2 18.44 77.2C18.31 77.37 18.18 77.55 18.06 77.73C17.68 78.31 17.29 78.88 16.97 79.49C16.75 79.96 16.51 80.42 16.37 80.93C16.3 81.16 16.23 81.39 16.16 81.61C16.25 81.67 16.3 81.78 16.3 81.89C16.3 82.06 16.17 82.21 16 82.22C15.95 82.52 15.87 82.82 15.87 83.13C15.88 83.3 15.88 83.48 15.91 83.65C15.93 83.75 15.93 83.86 15.97 83.95C16.24 85.16 18.34 88.35 17.81 89.26ZM18.06 84.25C18.06 84.07 18.21 83.92 18.39 83.92C18.58 83.92 18.73 84.07 18.73 84.25C18.73 84.44 18.58 84.58 18.39 84.58C18.21 84.58 18.06 84.44 18.06 84.25ZM13.16 82.29C13.16 81.95 13.43 81.68 13.76 81.68C14.1 81.68 14.37 81.95 14.37 82.29C14.37 82.62 14.1 82.89 13.76 82.89C13.43 82.89 13.16 82.62 13.16 82.29ZM16.43 81.56C16.43 81.22 16.7 80.96 17.03 80.96C17.36 80.96 17.64 81.22 17.64 81.56C17.64 81.89 17.36 82.17 17.03 82.17C16.7 82.17 16.43 81.89 16.43 81.56ZM12.43 80.14C12.43 79.95 12.58 79.8 12.77 79.8C12.95 79.8 13.1 79.95 13.1 80.14C13.1 80.32 12.95 80.47 12.77 80.47C12.58 80.47 12.43 80.32 12.43 80.14ZM13.95 79.59C13.95 79.41 14.1 79.26 14.28 79.26C14.46 79.26 14.61 79.41 14.61 79.59C14.61 79.78 14.46 79.92 14.28 79.92C14.1 79.92 13.95 79.78 13.95 79.59ZM19.39 78.6C19.39 78.26 19.66 77.99 19.99 77.99C20.33 77.99 20.6 78.26 20.6 78.6C20.6 78.93 20.33 79.2 19.99 79.2C19.66 79.2 19.39 78.93 19.39 78.6ZM21.08 77.84C21.08 77.66 21.23 77.51 21.41 77.51C21.6 77.51 21.75 77.66 21.75 77.84C21.75 78.02 21.6 78.17 21.41 78.17C21.23 78.17 21.08 78.02 21.08 77.84ZM12.49 76.91C12.49 76.57 12.77 76.3 13.1 76.3C13.43 76.3 13.71 76.57 13.71 76.91C13.71 77.24 13.43 77.51 13.1 77.51C12.77 77.51 12.49 77.24 12.49 76.91ZM13.88 75.15C13.88 74.81 14.16 74.54 14.49 74.54C14.83 74.54 15.09 74.81 15.09 75.15C15.09 75.48 14.83 75.75 14.49 75.75C14.16 75.75 13.88 75.48 13.88 75.15ZM21.99 75.18C21.99 75 22.14 74.85 22.33 74.85C22.51 74.85 22.66 75 22.66 75.18C22.66 75.36 22.51 75.51 22.33 75.51C22.14 75.51 21.99 75.36 21.99 75.18ZM26.1 74.36C26.1 74.03 26.38 73.76 26.71 73.76C27.04 73.76 27.32 74.03 27.32 74.36C27.32 74.69 27.04 74.97 26.71 74.97C26.38 74.97 26.1 74.69 26.1 74.36ZM19.63 73.64C19.63 73.31 19.91 73.03 20.24 73.03C20.57 73.03 20.84 73.31 20.84 73.64C20.84 73.97 20.57 74.24 20.24 74.24C19.91 74.24 19.63 73.97 19.63 73.64ZM22.61 74.09C22.59 74.09 22.96 73.8 23.82 73.16C24.3 72.81 24.76 72.44 25.27 72.13C26.38 71.47 27.5 70.8 28.69 70.27C29.54 69.89 30.39 69.5 31.25 69.17C31.86 68.93 32.46 68.68 33.07 68.45L33.86 68.15C36.24 67.24 35.62 67.6 33.23 68.51L32.46 68.8C31.85 69.04 31.24 69.28 30.64 69.52C30.1 69.73 29.57 69.96 29.04 70.2C29.36 70.22 29.61 70.47 29.61 70.79C29.61 71.12 29.34 71.4 29.01 71.4C28.67 71.4 28.41 71.12 28.41 70.79C28.41 70.64 28.46 70.51 28.55 70.41L28.08 70.61C27.41 70.88 26.08 71.67 25.87 71.79C25.37 72.1 24.91 72.46 24.43 72.81C23.32 73.63 22.64 74.1 22.61 74.09L22.61 74.09ZM13.58 72.85C13.58 72.51 13.85 72.25 14.19 72.25C14.52 72.25 14.8 72.51 14.8 72.85C14.8 73.18 14.52 73.46 14.19 73.46C13.85 73.46 13.58 73.18 13.58 72.85ZM27.07 72.46C27.07 72.28 27.22 72.13 27.4 72.13C27.59 72.13 27.73 72.28 27.73 72.46C27.73 72.64 27.59 72.79 27.4 72.79C27.22 72.79 27.07 72.64 27.07 72.46ZM15.82 71.33C15.82 71 16.1 70.73 16.43 70.73C16.76 70.73 17.03 71 17.03 71.33C17.03 71.67 16.76 71.94 16.43 71.94C16.1 71.94 15.82 71.67 15.82 71.33ZM19.09 71.16C19.09 70.82 19.36 70.55 19.7 70.55C20.03 70.55 20.3 70.82 20.3 71.16C20.3 71.49 20.03 71.76 19.7 71.76C19.36 71.76 19.09 71.49 19.09 71.16ZM11.16 70.95C11.16 70.76 11.31 70.61 11.49 70.61C11.68 70.61 11.83 70.76 11.83 70.95C11.83 71.13 11.68 71.28 11.49 71.28C11.31 71.28 11.16 71.13 11.16 70.95ZM32.27 69.79C32.27 69.61 32.42 69.46 32.61 69.46C32.79 69.46 32.94 69.61 32.94 69.79C32.94 69.98 32.79 70.13 32.61 70.13C32.42 70.13 32.27 69.98 32.27 69.79ZM24.77 69.46C24.77 69.13 25.05 68.86 25.38 68.86C25.71 68.86 25.98 69.13 25.98 69.46C25.98 69.8 25.71 70.07 25.38 70.07C25.05 70.07 24.77 69.8 24.77 69.46ZM36.06 69.52C35.87 69.52 35.72 69.38 35.72 69.19C35.72 69.13 35.74 69.07 35.77 69.02C35.72 69.03 35.66 69.04 35.6 69.04C35.27 69.04 35 68.77 35 68.44C35 68.1 35.27 67.83 35.6 67.83C35.94 67.83 36.2 68.1 36.2 68.44C36.2 68.6 36.14 68.75 36.03 68.86L36.06 68.86C36.24 68.86 36.39 69.01 36.39 69.19C36.39 69.38 36.24 69.52 36.06 69.52L36.06 69.52ZM37.53 67.52C37.53 67.19 37.81 66.92 38.14 66.92C38.48 66.92 38.75 67.19 38.75 67.52C38.75 67.86 38.48 68.13 38.14 68.13C37.81 68.13 37.53 67.86 37.53 67.52ZM16.91 67.52C16.91 67.19 17.18 66.92 17.52 66.92C17.85 66.92 18.12 67.19 18.12 67.52C18.12 67.86 17.85 68.13 17.52 68.13C17.18 68.13 16.91 67.86 16.91 67.52ZM21.69 67.47C21.69 67.13 21.96 66.86 22.29 66.86C22.62 66.86 22.9 67.13 22.9 67.47C22.9 67.8 22.62 68.07 22.29 68.07C21.96 68.07 21.69 67.8 21.69 67.47ZM39.35 67.68C39.35 67.5 39.5 67.35 39.68 67.35C39.87 67.35 40.01 67.5 40.01 67.68C40.01 67.86 39.87 68.01 39.68 68.01C39.5 68.01 39.35 67.86 39.35 67.68ZM26.35 67.26C26.35 67.07 26.5 66.92 26.68 66.92C26.86 66.92 27.01 67.07 27.01 67.26C27.01 67.44 26.86 67.59 26.68 67.59C26.5 67.59 26.35 67.44 26.35 67.26ZM21.14 67.19C21.15 67.19 21.15 67.19 21.15 67.19C21.15 67.19 21.14 67.19 21.14 67.19L21.14 67.19ZM21.15 67.19C21.18 67.15 21.22 67.11 21.25 67.06C21.86 66.36 22.5 65.7 23.15 65.04C23.07 65.01 22.99 64.96 22.95 64.89C22.52 65.35 22.12 65.83 21.75 66.34C21.54 66.62 21.35 66.9 21.15 67.19ZM32.65 66.28C32.66 66.28 32.66 66.27 32.67 66.27C32.66 66.27 32.66 66.28 32.65 66.28L32.65 66.28ZM32.67 66.27C33.64 65.71 34.62 65.16 35.6 64.61C35.72 64.55 35.91 64.44 36.07 64.35C35.83 64.27 35.66 64.04 35.66 63.78C35.66 63.44 35.93 63.17 36.27 63.17C36.6 63.17 36.87 63.44 36.87 63.78C36.87 63.82 36.86 63.87 36.85 63.91L38.93 62.74C38.24 63.14 37.54 63.54 36.85 63.93C36.78 64.19 36.55 64.38 36.27 64.38C36.21 64.38 36.15 64.37 36.1 64.36C35.6 64.63 35.1 64.91 34.61 65.18C33.91 65.57 33.25 65.94 32.67 66.27ZM40.08 65.86C40.08 65.68 40.23 65.53 40.41 65.53C40.59 65.53 40.74 65.68 40.74 65.86C40.74 66.05 40.59 66.19 40.41 66.19C40.23 66.19 40.08 66.05 40.08 65.86ZM17.27 65.29C16.94 65.29 16.67 65.02 16.67 64.68C16.67 64.35 16.94 64.08 17.27 64.08C17.38 64.08 17.49 64.11 17.57 64.16C17.58 63.98 17.72 63.83 17.91 63.83C18.09 63.83 18.24 63.99 18.24 64.17C18.24 64.36 18.09 64.51 17.91 64.51C17.88 64.51 17.86 64.5 17.84 64.5C17.86 64.56 17.88 64.62 17.88 64.68C17.88 65.02 17.6 65.29 17.27 65.29ZM14.97 64.89C14.97 64.71 15.12 64.56 15.3 64.56C15.49 64.56 15.64 64.71 15.64 64.89C15.64 65.08 15.49 65.23 15.3 65.23C15.12 65.23 14.97 65.08 14.97 64.89ZM18.9 62.33C18.9 61.99 19.18 61.72 19.51 61.72C19.85 61.72 20.11 61.99 20.11 62.33C20.11 62.66 19.85 62.93 19.51 62.93C19.18 62.93 18.9 62.66 18.9 62.33ZM44.74 62.48C44.74 62.29 44.89 62.14 45.07 62.14C45.25 62.14 45.4 62.29 45.4 62.48C45.4 62.66 45.25 62.81 45.07 62.81C44.89 62.81 44.74 62.66 44.74 62.48ZM39.17 62.6L39.19 62.59C39.18 62.6 39.17 62.6 39.17 62.6L39.17 62.6ZM39.19 62.59C40.67 61.73 42.07 60.75 43.44 59.72C44.48 58.91 45.48 58.04 46.44 57.14C46.44 57.13 46.45 57.11 46.45 57.1C45.97 57.52 45.47 57.9 44.97 58.3C43.06 59.82 42.46 60.17 44.37 58.64C44.92 58.21 45.47 57.78 46 57.32C46.72 56.7 47.44 56.06 48.16 55.43C49.43 54.07 50.54 52.58 51.59 51.05C52.84 49.28 53.76 47.32 54.51 45.29C55.3 43.08 55.62 40.76 55.79 38.44C55.99 36.36 55.82 34.29 55.56 32.22C55.06 28.37 56.01 27.82 56.51 31.68C56.77 33.74 56.96 35.81 56.75 37.89C56.6 39.91 56.34 41.91 55.76 43.85C55.87 43.75 56.01 43.69 56.17 43.69C56.5 43.69 56.77 43.96 56.77 44.3C56.77 44.63 56.5 44.91 56.17 44.91C55.88 44.91 55.63 44.69 55.58 44.42C55.54 44.52 55.51 44.63 55.48 44.73C54.73 46.76 53.81 48.71 52.56 50.49C51.86 51.5 51.14 52.5 50.37 53.45C50.92 52.94 51.48 52.44 52.02 51.92L52.7 51.23C52.75 51.08 52.86 50.97 53 50.9C53.45 50.41 53.87 49.9 54.23 49.34C54.8 48.5 55.37 47.66 55.92 46.8C56.46 45.95 57 45.09 57.52 44.23C57.97 43.48 58.42 42.73 58.82 41.96C59.04 41.49 59.28 41.03 59.44 40.53C59.51 40.34 59.56 40.15 59.65 39.97C59.88 39.51 60.08 39.15 60.26 38.85C60.06 38.76 59.92 38.55 59.92 38.31C59.92 37.99 60.17 37.73 60.49 37.71C60.4 37.65 60.34 37.55 60.34 37.43C60.34 37.25 60.49 37.1 60.67 37.1C60.86 37.1 61.01 37.25 61.01 37.43C61.01 37.59 60.9 37.71 60.76 37.75C60.98 37.84 61.13 38.06 61.13 38.31C61.13 38.61 60.91 38.86 60.62 38.9C60.53 39.1 60.41 39.34 60.27 39.61C60.18 39.79 60.13 39.98 60.06 40.17C59.9 40.67 59.66 41.13 59.44 41.6L59.2 42.05C59.3 41.94 59.45 41.88 59.61 41.88C59.95 41.88 60.22 42.15 60.22 42.48C60.22 42.82 59.95 43.09 59.61 43.09C59.28 43.09 59.01 42.82 59.01 42.48C59.01 42.44 59.02 42.4 59.03 42.36C58.74 42.87 58.43 43.37 58.13 43.87C57.61 44.74 57.07 45.59 56.52 46.45C55.98 47.3 55.41 48.15 54.84 48.99C54.41 49.66 53.88 50.26 53.33 50.84C53.63 50.87 53.87 51.13 53.87 51.44C53.87 51.77 53.6 52.04 53.26 52.04C52.96 52.04 52.71 51.82 52.66 51.52L52.62 51.57C51.67 52.48 50.7 53.35 49.72 54.23L49.67 54.27C49.36 54.63 49.03 54.98 48.7 55.32C48.24 55.79 47.77 56.24 47.29 56.69C47.5 56.79 47.64 57 47.64 57.24C47.64 57.58 47.37 57.85 47.04 57.85C46.77 57.85 46.55 57.68 46.47 57.45C45.81 58.04 45.12 58.6 44.42 59.15C43.02 60.2 41.59 61.2 40.07 62.08L39.19 62.59ZM35.48 62.12C35.48 61.93 35.63 61.78 35.82 61.78C36 61.78 36.15 61.93 36.15 62.12C36.15 62.3 36 62.45 35.82 62.45C35.63 62.45 35.48 62.3 35.48 62.12ZM41.87 62.2L41.8 62.2C41.62 62.2 41.47 62.05 41.47 61.87C41.47 61.68 41.62 61.54 41.8 61.54C41.99 61.54 42.14 61.68 42.14 61.87C42.14 62.03 42.02 62.17 41.87 62.2ZM27.86 61.42C27.86 61.08 28.13 60.81 28.46 60.81C28.8 60.81 29.07 61.08 29.07 61.42C29.07 61.75 28.8 62.02 28.46 62.02C28.13 62.02 27.86 61.75 27.86 61.42ZM29.98 61.51C29.98 61.32 30.12 61.18 30.31 61.18C30.49 61.18 30.64 61.32 30.64 61.51C30.64 61.69 30.49 61.84 30.31 61.84C30.12 61.84 29.98 61.69 29.98 61.51ZM38.75 59.99C38.75 59.81 38.9 59.66 39.08 59.66C39.27 59.66 39.41 59.81 39.41 59.99C39.41 60.18 39.27 60.33 39.08 60.33C38.9 60.33 38.75 60.18 38.75 59.99ZM41.47 59.54C41.47 59.21 41.74 58.93 42.07 58.93C42.41 58.93 42.68 59.21 42.68 59.54C42.68 59.88 42.41 60.15 42.07 60.15C41.74 60.15 41.47 59.88 41.47 59.54ZM20.11 59.3C20.11 58.97 20.39 58.69 20.72 58.69C21.05 58.69 21.33 58.97 21.33 59.3C21.33 59.64 21.05 59.9 20.72 59.9C20.39 59.9 20.11 59.64 20.11 59.3ZM49.03 58.97C49.03 58.79 49.18 58.64 49.36 58.64C49.55 58.64 49.69 58.79 49.69 58.97C49.69 59.15 49.55 59.3 49.36 59.3C49.18 59.3 49.03 59.15 49.03 58.97ZM27.44 58.57C27.44 58.24 27.7 57.97 28.04 57.97C28.37 57.97 28.65 58.24 28.65 58.57C28.65 58.91 28.37 59.18 28.04 59.18C27.7 59.18 27.44 58.91 27.44 58.57ZM18.66 57.82C18.66 57.63 18.81 57.48 19 57.48C19.18 57.48 19.33 57.63 19.33 57.82C19.33 58 19.18 58.15 19 58.15C18.81 58.15 18.66 58 18.66 57.82ZM42.8 57.48C42.8 57.15 43.07 56.88 43.4 56.88C43.74 56.88 44.01 57.15 44.01 57.48C44.01 57.82 43.74 58.09 43.4 58.09C43.07 58.09 42.8 57.82 42.8 57.48ZM21.69 57.48C21.36 57.48 21.08 57.22 21.08 56.88C21.08 56.65 21.22 56.46 21.41 56.35C21.39 56.32 21.39 56.29 21.39 56.25C21.39 56.06 21.53 55.91 21.72 55.91C21.9 55.91 22.05 56.06 22.05 56.25C22.05 56.3 22.05 56.34 22.03 56.38C22.19 56.49 22.29 56.67 22.29 56.88C22.29 57.22 22.02 57.48 21.69 57.48L21.69 57.48ZM34.15 56.34C34.15 56.01 34.42 55.73 34.75 55.73C35.09 55.73 35.36 56.01 35.36 56.34C35.36 56.67 35.09 56.94 34.75 56.94C34.42 56.94 34.15 56.67 34.15 56.34ZM23.61 56.72C23.49 56.73 23.47 56.22 23.68 55.12C23.91 53.85 24.14 52.58 24.28 51.3C24.44 49.72 24.54 48.13 24.48 46.55C24.42 45.36 24.34 44.18 24.14 43C24.01 42.21 23.88 41.42 23.68 40.64C23.58 40.34 23.53 40.04 23.39 39.75C22.31 37.44 22.97 37.06 24.02 39.39C24.14 39.68 24.21 39.99 24.3 40.29C24.5 41.07 24.62 41.86 24.74 42.65C24.95 43.83 25.02 45.01 25.08 46.2C25.13 47.79 25.03 49.38 24.87 50.96C24.73 52.24 24.5 53.51 24.26 54.78C24.03 56.03 23.75 56.71 23.61 56.72L23.61 56.72ZM36.2 56.37C36.2 56.18 36.35 56.04 36.54 56.04C36.72 56.04 36.87 56.18 36.87 56.37C36.87 56.55 36.72 56.7 36.54 56.7C36.35 56.7 36.2 56.55 36.2 56.37ZM26.28 56.13C26.28 55.94 26.43 55.79 26.62 55.79C26.8 55.79 26.95 55.94 26.95 56.13C26.95 56.31 26.8 56.46 26.62 56.46C26.43 56.46 26.28 56.31 26.28 56.13ZM29.98 54.76C29.98 54.43 30.25 54.16 30.58 54.16C30.92 54.16 31.18 54.43 31.18 54.76C31.18 55.1 30.92 55.37 30.58 55.37C30.25 55.37 29.98 55.1 29.98 54.76ZM46.85 54.28C46.85 53.95 47.13 53.67 47.46 53.67C47.79 53.67 48.06 53.95 48.06 54.28C48.06 54.62 47.79 54.88 47.46 54.88C47.13 54.88 46.85 54.62 46.85 54.28ZM53.93 53.16C53.93 52.97 54.08 52.83 54.26 52.83C54.44 52.83 54.59 52.97 54.59 53.16C54.59 53.34 54.44 53.49 54.26 53.49C54.08 53.49 53.93 53.34 53.93 53.16ZM42.14 50.05C42.14 49.71 42.4 49.44 42.74 49.44C43.07 49.44 43.34 49.71 43.34 50.05C43.34 50.38 43.07 50.65 42.74 50.65C42.4 50.65 42.14 50.38 42.14 50.05ZM48.85 49.35C48.85 49.16 48.99 49.01 49.18 49.01C49.36 49.01 49.52 49.16 49.52 49.35C49.52 49.53 49.36 49.68 49.18 49.68C48.99 49.68 48.85 49.53 48.85 49.35ZM19.15 48.65C19.15 48.32 19.42 48.05 19.75 48.05C20.09 48.05 20.36 48.32 20.36 48.65C20.36 48.99 20.09 49.26 19.75 49.26C19.42 49.26 19.15 48.99 19.15 48.65ZM35.06 49.01C34.72 49.01 34.45 48.75 34.45 48.41C34.45 48.08 34.72 47.81 35.06 47.81C35.39 47.81 35.66 48.08 35.66 48.41C35.66 48.75 35.39 49.01 35.06 49.01ZM58.04 47.96C58.04 47.78 58.19 47.63 58.38 47.63C58.56 47.63 58.71 47.78 58.71 47.96C58.71 48.14 58.56 48.29 58.38 48.29C58.19 48.29 58.04 48.14 58.04 47.96ZM57.01 47.2C57.01 46.87 57.29 46.6 57.62 46.6C57.95 46.6 58.23 46.87 58.23 47.2C58.23 47.54 57.95 47.81 57.62 47.81C57.29 47.81 57.01 47.54 57.01 47.2ZM38.2 47.02C38.2 46.69 38.47 46.41 38.81 46.41C39.14 46.41 39.41 46.69 39.41 47.02C39.41 47.35 39.14 47.63 38.81 47.63C38.47 47.63 38.2 47.35 38.2 47.02ZM28.22 46.36C28.22 46.02 28.49 45.75 28.82 45.75C29.16 45.75 29.43 46.02 29.43 46.36C29.43 46.69 29.16 46.96 28.82 46.96C28.49 46.96 28.22 46.69 28.22 46.36ZM22.17 44.02C22.17 43.84 22.32 43.69 22.5 43.69C22.69 43.69 22.83 43.84 22.83 44.02C22.83 44.21 22.69 44.36 22.5 44.36C22.32 44.36 22.17 44.21 22.17 44.02ZM25.38 43.63C25.38 43.3 25.65 43.03 25.98 43.03C26.31 43.03 26.59 43.3 26.59 43.63C26.59 43.97 26.31 44.24 25.98 44.24C25.65 44.23 25.38 43.97 25.38 43.63ZM52.06 43.45C52.06 43.12 52.32 42.85 52.66 42.85C52.99 42.85 53.26 43.12 53.26 43.45C53.26 43.78 52.99 44.06 52.66 44.06C52.32 44.06 52.06 43.78 52.06 43.45ZM29.37 43.12C29.37 42.93 29.52 42.79 29.71 42.79C29.89 42.79 30.04 42.93 30.04 43.12C30.04 43.3 29.89 43.45 29.71 43.45C29.52 43.45 29.37 43.3 29.37 43.12ZM37.48 40.3C37.48 39.97 37.75 39.7 38.08 39.7C38.42 39.7 38.69 39.97 38.69 40.3C38.69 40.64 38.42 40.91 38.08 40.91C37.75 40.91 37.48 40.64 37.48 40.3ZM44.62 40.25C44.62 39.91 44.88 39.64 45.22 39.64C45.55 39.64 45.83 39.91 45.83 40.25C45.83 40.58 45.55 40.85 45.22 40.85C44.88 40.85 44.62 40.58 44.62 40.25ZM57.2 39.58C57.2 39.25 57.47 38.98 57.8 38.98C58.14 38.98 58.4 39.25 58.4 39.58C58.4 39.92 58.14 40.18 57.8 40.18C57.47 40.18 57.2 39.92 57.2 39.58ZM26.95 39.1C26.95 38.76 27.22 38.49 27.56 38.49C27.89 38.49 28.16 38.76 28.16 39.1C28.16 39.43 27.89 39.7 27.56 39.7C27.22 39.7 26.95 39.43 26.95 39.1ZM42.31 39.04C42.31 38.7 42.59 38.43 42.92 38.43C43.25 38.43 43.53 38.7 43.53 39.04C43.53 39.37 43.25 39.64 42.92 39.64C42.59 39.64 42.31 39.37 42.31 39.04ZM30.8 38.31C30.61 38.31 30.46 38.16 30.46 37.98C30.46 37.79 30.61 37.65 30.8 37.65C30.98 37.65 31.13 37.79 31.13 37.98C31.13 38.16 30.98 38.31 30.8 38.31ZM22.08 37.34C21.89 37.34 21.75 37.19 21.75 37.01C21.75 36.83 21.89 36.68 22.08 36.68C22.26 36.68 22.42 36.83 22.42 37.01C22.42 37.19 22.26 37.34 22.08 37.34ZM44.04 37.22C43.85 37.22 43.71 37.07 43.71 36.89C43.71 36.71 43.85 36.56 44.04 36.56C44.22 36.56 44.37 36.71 44.37 36.89C44.37 37.07 44.22 37.22 44.04 37.22ZM53.75 36.68C53.41 36.68 53.14 36.4 53.14 36.07C53.14 35.74 53.41 35.47 53.75 35.47C54.08 35.47 54.35 35.74 54.35 36.07C54.35 36.4 54.08 36.68 53.75 36.68ZM37.36 36.1C37.36 35.92 37.51 35.77 37.69 35.77C37.87 35.77 38.02 35.92 38.02 36.1C38.02 36.29 37.87 36.44 37.69 36.44C37.51 36.44 37.36 36.29 37.36 36.1ZM61.13 35.56C61.13 35.38 61.27 35.23 61.46 35.23C61.64 35.23 61.79 35.38 61.79 35.56C61.79 35.74 61.64 35.89 61.46 35.89C61.27 35.89 61.13 35.74 61.13 35.56ZM38.45 35.77C38.11 35.77 37.84 35.5 37.84 35.16C37.84 34.83 38.11 34.56 38.45 34.56C38.78 34.56 39.05 34.83 39.05 35.16C39.05 35.5 38.78 35.77 38.45 35.77ZM47.52 34.98C47.52 34.65 47.79 34.38 48.12 34.38C48.46 34.38 48.73 34.65 48.73 34.98C48.73 35.31 48.46 35.59 48.12 35.59C47.79 35.59 47.52 35.31 47.52 34.98ZM51.94 34.41C51.94 34.22 52.08 34.08 52.27 34.08C52.45 34.08 52.6 34.22 52.6 34.41C52.6 34.59 52.45 34.74 52.27 34.74C52.08 34.74 51.94 34.59 51.94 34.41ZM60.7 33.96C60.7 33.62 60.98 33.35 61.31 33.35C61.64 33.35 61.91 33.62 61.91 33.96C61.91 34.29 61.64 34.56 61.31 34.56C60.98 34.56 60.7 34.29 60.7 33.96ZM29.22 34.56C29.04 34.56 28.89 34.41 28.89 34.22C28.89 34.04 29.04 33.89 29.22 33.89C29.4 33.89 29.55 34.04 29.55 34.22C29.55 34.38 29.44 34.53 29.29 34.56L29.22 34.56ZM56.77 33.26C56.77 33.08 56.92 32.92 57.1 32.92C57.29 32.92 57.44 33.08 57.44 33.26C57.44 33.45 57.29 33.59 57.1 33.59C56.92 33.59 56.77 33.45 56.77 33.26ZM32.27 32.38C32.27 32.04 32.55 31.78 32.88 31.78C33.22 31.78 33.48 32.04 33.48 32.38C33.48 32.71 33.22 32.99 32.88 32.99C32.55 32.99 32.27 32.71 32.27 32.38ZM53.02 32.17C53.02 31.99 53.17 31.83 53.36 31.83C53.54 31.83 53.69 31.99 53.69 32.17C53.69 32.36 53.54 32.51 53.36 32.51C53.17 32.51 53.02 32.36 53.02 32.17ZM43.4 31.66C43.07 31.66 42.8 31.38 42.8 31.05C42.8 30.72 43.07 30.45 43.4 30.45C43.57 30.45 43.73 30.52 43.84 30.63C43.88 30.49 44.01 30.38 44.16 30.38C44.34 30.38 44.49 30.53 44.49 30.72C44.49 30.9 44.34 31.05 44.16 31.05C44.1 31.05 44.05 31.04 44 31.01C44 31.03 44.01 31.04 44.01 31.05C44.01 31.38 43.74 31.66 43.4 31.66L43.4 31.66ZM49.57 30.6C49.57 30.41 49.72 30.26 49.91 30.26C50.09 30.26 50.24 30.41 50.24 30.6C50.24 30.78 50.09 30.93 49.91 30.93C49.72 30.93 49.57 30.78 49.57 30.6ZM59.86 30.48C59.86 30.29 60.01 30.14 60.19 30.14C60.38 30.14 60.53 30.29 60.53 30.48C60.53 30.66 60.38 30.81 60.19 30.81C60.01 30.81 59.86 30.66 59.86 30.48ZM57.62 30.75C57.29 30.75 57.01 30.48 57.01 30.14C57.01 29.81 57.29 29.54 57.62 29.54C57.95 29.54 58.23 29.81 58.23 30.14C58.23 30.48 57.95 30.75 57.62 30.75ZM31.73 29.96C31.73 29.63 32 29.36 32.34 29.36C32.67 29.36 32.94 29.63 32.94 29.96C32.94 30.29 32.67 30.57 32.34 30.57C32 30.57 31.73 30.29 31.73 29.96ZM37.48 29.9C37.26 29.9 37.07 29.78 36.96 29.6C36.87 29.54 36.81 29.44 36.81 29.32C36.81 29.23 36.85 29.15 36.91 29.09C37 28.86 37.22 28.7 37.48 28.7C37.81 28.7 38.08 28.96 38.08 29.3C38.08 29.63 37.81 29.9 37.48 29.9L37.48 29.9ZM51.02 29.36C50.69 29.36 50.42 29.09 50.42 28.75C50.42 28.42 50.69 28.15 51.02 28.15C51.36 28.15 51.63 28.42 51.63 28.75C51.63 29.09 51.36 29.36 51.02 29.36ZM28.7 28.75C28.37 28.75 28.1 28.48 28.1 28.15C28.1 27.82 28.37 27.54 28.7 27.54C29.04 27.54 29.31 27.82 29.31 28.15C29.31 28.48 29.04 28.75 28.7 28.75ZM38.57 26.55C38.57 26.36 38.71 26.21 38.9 26.21C39.08 26.21 39.23 26.36 39.23 26.55C39.23 26.73 39.08 26.88 38.9 26.88C38.71 26.88 38.57 26.73 38.57 26.55ZM58.95 26.43C58.95 26.24 59.1 26.09 59.28 26.09C59.46 26.09 59.61 26.24 59.61 26.43C59.61 26.61 59.46 26.76 59.28 26.76C59.1 26.76 58.95 26.61 58.95 26.43ZM31.3 26.36C31.3 26.18 31.45 26.03 31.64 26.03C31.82 26.03 31.97 26.18 31.97 26.36C31.97 26.55 31.82 26.69 31.64 26.69C31.45 26.69 31.3 26.55 31.3 26.36ZM54.71 24.97C54.71 24.79 54.86 24.64 55.05 24.64C55.23 24.64 55.38 24.79 55.38 24.97C55.38 25.15 55.23 25.3 55.05 25.3C54.86 25.3 54.71 25.15 54.71 24.97ZM55.75 24.21C55.75 23.88 56.01 23.61 56.35 23.61C56.68 23.61 56.96 23.88 56.96 24.21C56.96 24.55 56.68 24.82 56.35 24.82C56.01 24.82 55.75 24.55 55.75 24.21ZM34.27 23.76C34.27 23.58 34.42 23.43 34.61 23.43C34.79 23.43 34.94 23.58 34.94 23.76C34.94 23.94 34.79 24.09 34.61 24.09C34.42 24.09 34.27 23.94 34.27 23.76ZM36.75 23.25C36.75 22.92 37.02 22.64 37.36 22.64C37.69 22.64 37.96 22.92 37.96 23.25C37.96 23.59 37.69 23.85 37.36 23.85C37.02 23.85 36.75 23.59 36.75 23.25ZM31.55 22.28C31.55 21.95 31.82 21.67 32.15 21.67C32.49 21.67 32.76 21.95 32.76 22.28C32.76 22.62 32.49 22.88 32.15 22.88C31.82 22.88 31.55 22.62 31.55 22.28ZM49.27 22.37C49.27 22.18 49.42 22.03 49.6 22.03C49.79 22.03 49.93 22.18 49.93 22.37C49.93 22.55 49.79 22.71 49.6 22.71C49.42 22.71 49.27 22.55 49.27 22.37ZM41.17 22.04C41.17 21.7 41.43 21.43 41.77 21.43C42.1 21.43 42.38 21.7 42.38 22.04C42.38 22.37 42.1 22.64 41.77 22.64C41.43 22.64 41.17 22.37 41.17 22.04ZM51.87 21.7C51.87 21.52 52.02 21.37 52.2 21.37C52.39 21.37 52.54 21.52 52.54 21.7C52.54 21.89 52.39 22.04 52.2 22.04C52.02 22.04 51.87 21.89 51.87 21.7ZM40.2 20.32C40.2 20.13 40.35 19.98 40.53 19.98C40.71 19.98 40.86 20.13 40.86 20.32C40.86 20.5 40.71 20.65 40.53 20.65C40.35 20.65 40.2 20.5 40.2 20.32ZM26.95 19.86C26.95 19.52 27.22 19.26 27.56 19.26C27.89 19.26 28.16 19.52 28.16 19.86C28.16 20.19 27.89 20.47 27.56 20.47C27.22 20.47 26.95 20.19 26.95 19.86ZM50 18.68C50 18.5 50.15 18.35 50.33 18.35C50.51 18.35 50.66 18.5 50.66 18.68C50.66 18.87 50.51 19.02 50.33 19.02C50.15 19.02 50 18.87 50 18.68ZM51.87 17.98C51.87 17.65 52.15 17.38 52.48 17.38C52.81 17.38 53.08 17.65 53.08 17.98C53.08 18.32 52.81 18.59 52.48 18.59C52.15 18.59 51.87 18.32 51.87 17.98ZM26.41 17.35C26.41 17.16 26.55 17.02 26.74 17.02C26.92 17.02 27.07 17.16 27.07 17.35C27.07 17.53 26.92 17.68 26.74 17.68C26.55 17.68 26.41 17.53 26.41 17.35ZM52.18 16.08C52.18 15.9 52.32 15.75 52.51 15.75C52.69 15.75 52.84 15.9 52.84 16.08C52.84 16.27 52.69 16.41 52.51 16.41C52.32 16.41 52.18 16.27 52.18 16.08ZM35.54 15.17C35.54 14.99 35.69 14.84 35.87 14.84C36.06 14.84 36.2 14.99 36.2 15.17C36.2 15.35 36.06 15.5 35.87 15.5C35.69 15.5 35.54 15.35 35.54 15.17ZM27.01 13.54C27.01 13.35 27.16 13.2 27.35 13.2C27.53 13.2 27.68 13.35 27.68 13.54C27.68 13.72 27.53 13.87 27.35 13.87C27.16 13.87 27.01 13.72 27.01 13.54ZM28.7 12.33C28.7 12.14 28.85 12 29.04 12C29.22 12 29.37 12.14 29.37 12.33C29.37 12.51 29.22 12.66 29.04 12.66C28.85 12.66 28.7 12.51 28.7 12.33Z" />
		<path id="Layer" fill-rule="evenodd" class="shp8" d="M46.67 29.92C47.61 31.55 47.98 32.91 48.25 33.6C48.51 34.3 48.6 34.7 48.41 35.18C48.22 35.66 48.09 35.87 48.49 36.49C48.89 37.1 49 37.08 49.24 37.48C49.48 37.88 49.74 38.33 49.98 38.57C50.22 38.81 50.63 39.24 50.87 39.78C51.11 40.31 51.16 40.5 50.95 40.82C50.73 41.14 50.39 41.11 49.85 41.22C49.32 41.32 48.97 41.59 48.78 42.13C48.6 42.66 48.68 42.79 48.81 43.14C48.94 43.49 48.81 43.73 48.68 43.78C48.54 43.84 48.09 43.92 48.17 44.02C48.25 44.13 48.51 44.24 48.51 44.61C48.51 44.99 48.33 44.99 48.22 45.17C48.11 45.36 47.82 45.79 47.9 45.97C47.98 46.16 48.57 46.59 48.57 47.39C48.57 48.19 48.27 48.94 47.58 49.23C46.89 49.53 46.43 49.37 45.52 49.5C44.61 49.63 43.2 49.79 42.58 50.17C41.97 50.54 41.57 50.86 41.22 51.74C40.87 52.63 40.69 53.13 40.31 53.48C39.94 53.83 39.19 54.47 38.84 55.27C38.5 56.07 37.83 57.11 37.8 58.37C37.77 59.63 37.85 59.65 38.01 59.89C38.18 60.13 38.42 60.86 38.8 61.16C39.54 61.78 39.97 62.17 39.86 63.17C39.78 63.7 39.52 64.07 39.7 64.26C39.89 64.45 40.04 64.68 39.97 65.06C39.89 66.84 41.95 68.66 42.92 70.08C43.18 70.61 43.86 71.03 43.78 72.27L43.71 73.48C43.64 74.66 43.9 75.33 43.71 76.62C43.52 77.9 38.05 75.85 33.24 72.58C26.8 68.19 22.24 58.94 22.93 57.5C23.58 56.14 23.39 56.34 23.4 56.11C23.26 55.71 23.77 55.69 23.83 55.38C23.83 55.23 23.79 54.98 23.93 54.91C24.35 54.78 24.43 54.4 24.67 54.07C24.47 53.7 24.76 53.16 25.27 52.78C25.19 52.63 24.4 51.53 24.29 51.04C24.17 50.55 24.02 49.68 24.02 49.68C24.02 49.68 23.91 48.66 23.42 48.43C22.93 48.2 23.31 47.68 23.31 47.68C23.31 47.68 23.34 47.18 22.51 46.69C21.68 46.2 22.1 45.6 22.1 44.62C22.1 43.63 24.26 34.49 24.68 32.35C25.11 30.21 27.67 26.68 30.24 25.29C32.8 23.9 35.58 24.23 37.72 24.44C39.86 24.65 42.64 25.08 44.45 26.15C46.27 27.22 46.8 27.75 47.87 29.46C48.94 31.17 49.05 32.99 49.05 33.74C48.94 32.57 48.08 30.57 46.67 29.92L46.67 29.92Z" />
		<path id="Layer" class="shp9" d="M17.17 10.19C15.78 10.19 14.65 11.54 14.65 13.21C14.65 13.9 14.85 14.59 15.19 15.17C14.62 14.77 13.92 14.53 13.22 14.53C11.67 14.53 10.42 15.76 10.42 17.26C10.42 18.76 11.67 19.98 13.22 19.98C14.61 19.98 16.04 18.92 16.29 17.6C16.49 18.28 16.59 19.03 16.59 19.8C16.59 21.6 16.02 23.22 15.09 24.4L19.37 24.4C18.4 23.21 17.79 21.55 17.79 19.69C17.79 18.95 17.89 18.24 18.07 17.57C18.22 18.96 19.71 19.98 21.17 19.98C22.71 19.98 23.96 18.76 23.96 17.26C23.96 15.76 22.71 14.53 21.17 14.53C20.44 14.53 19.71 14.82 19.14 15.28C19.48 14.68 19.68 13.94 19.68 13.21C19.68 11.54 18.56 10.19 17.17 10.19L17.17 10.19Z" />
		<path id="Layer" class="shp10" d="M61.91 7.02C61.91 6.21 62.03 6.09 62.93 6.03L62.93 5.81L59.75 5.81L59.75 6.03C60.65 6.09 60.78 6.21 60.78 7.02L60.78 12.16C60.78 12.66 60.64 12.89 60.36 12.89C60.2 12.89 60.13 12.8 60.06 12.52C59.94 12.14 59.77 11.96 59.48 11.96C59.18 11.96 58.94 12.21 58.94 12.51C58.94 12.98 59.39 13.31 60.03 13.31C61.23 13.31 61.91 12.51 61.91 11.13L61.91 7.02" />
	</g>
</svg>