<svg xmlns="http://www.w3.org/2000/svg" viewBox="0 0 73 102" width="73" height="102">
	<defs>
		<filter x="-50%" y="-50%" width="200%" height="200%" id="flt1"> <feGaussianBlur stdDeviation="0.85" /> </filter>
		<linearGradient id="grd1" gradientUnits="userSpaceOnUse"  x1="41.751" y1="26.195" x2="43.896" y2="-90.187">
			<stop offset="0" stop-color="#f3f3f3"  />
			<stop offset="1" stop-color="#8f8f8f"  />
		</linearGradient>
		<radialGradient id="grd2" gradientUnits="userSpaceOnUse"  cx="11.049" cy="91.497" r="13.273">
			<stop offset="0" stop-color="#ffffff"  />
			<stop offset="1" stop-color="#ffffff" stop-opacity="0" />
		</radialGradient>
		<radialGradient id="grd3" gradientUnits="userSpaceOnUse"  cx="62.627" cy="12.355" r="14.287">
			<stop offset="0" stop-color="#ffffff"  />
			<stop offset="1" stop-color="#ffffff" stop-opacity="0" />
		</radialGradient>
		<radialGradient id="grd4" gradientUnits="userSpaceOnUse"  cx="18.483" cy="73.636" r="25.374">
			<stop offset="0" stop-color="#ffffff"  />
			<stop offset="1" stop-color="#ffffff" stop-opacity="0" />
		</radialGradient>
		<linearGradient id="grd5" gradientUnits="userSpaceOnUse"  x1="-59.472" y1="90.666" x2="-59.472" y2="87.19">
			<stop offset="0" stop-color="#000000"  />
			<stop offset="1" stop-color="#555753"  />
		</linearGradient>
		<radialGradient id="grd6" gradientUnits="userSpaceOnUse"  cx="20.617" cy="77.82" r="9.813">
			<stop offset="0" stop-color="#ffffff"  />
			<stop offset="1" stop-color="#ffffff" stop-opacity="0" />
		</radialGradient>
		<linearGradient id="grd7" gradientUnits="userSpaceOnUse"  x1="-127.742" y1="80.9" x2="-127.742" y2="73.683">
			<stop offset="0" stop-color="#000000"  />
			<stop offset="1" stop-color="#6f6f6f"  />
		</linearGradient>
		<radialGradient id="grd8" gradientUnits="userSpaceOnUse"  cx="53.607" cy="77.82" r="9.813">
			<stop offset="0" stop-color="#ffffff"  />
			<stop offset="1" stop-color="#ffffff" stop-opacity="0" />
		</radialGradient>
		<linearGradient id="grd9" gradientUnits="userSpaceOnUse"  x1="-94.752" y1="80.9" x2="-94.752" y2="73.683">
			<stop offset="0" stop-color="#000000"  />
			<stop offset="1" stop-color="#6f6f6f"  />
		</linearGradient>
		<radialGradient id="grd10" gradientUnits="userSpaceOnUse"  cx="20.617" cy="24.357" r="9.813">
			<stop offset="0" stop-color="#ffffff"  />
			<stop offset="1" stop-color="#ffffff" stop-opacity="0" />
		</radialGradient>
		<linearGradient id="grd11" gradientUnits="userSpaceOnUse"  x1="-127.742" y1="27.434" x2="-127.742" y2="20.217">
			<stop offset="0" stop-color="#000000"  />
			<stop offset="1" stop-color="#6f6f6f"  />
		</linearGradient>
		<radialGradient id="grd12" gradientUnits="userSpaceOnUse"  cx="53.607" cy="23.907" r="9.813">
			<stop offset="0" stop-color="#ffffff"  />
			<stop offset="1" stop-color="#ffffff" stop-opacity="0" />
		</radialGradient>
		<linearGradient id="grd13" gradientUnits="userSpaceOnUse"  x1="-94.752" y1="26.988" x2="-94.752" y2="19.771">
			<stop offset="0" stop-color="#000000"  />
			<stop offset="1" stop-color="#6f6f6f"  />
		</linearGradient>
		<linearGradient id="grd14" gradientUnits="userSpaceOnUse"  x1="63.978" y1="13.711" x2="64.248" y2="10.778">
			<stop offset="0" stop-color="#000000"  />
			<stop offset="1" stop-color="#555753"  />
		</linearGradient>
	</defs>
	<style>
		tspan { white-space:pre }
		.shp0 { filter: url(#flt1);fill: #000000 } 
		.shp1 { fill: url(#grd1);stroke: #000000;stroke-width: 0.226 } 
		.shp2 { opacity: 0.31;fill: url(#grd2) } 
		.shp3 { opacity: 0.318;fill: url(#grd3) } 
		.shp4 { fill: none;stroke: #000000;stroke-width: 0.226 } 
		.shp5 { fill: url(#grd4) } 
		.shp6 { fill: url(#grd5);stroke: #1d1d1d;stroke-linejoin:round;stroke-width: 0.166 } 
		.shp7 { opacity: 0.4;fill: url(#grd6) } 
		.shp8 { fill: url(#grd7);stroke: #0f0f0f;stroke-linejoin:round;stroke-width: 0.346 } 
		.shp9 { opacity: 0.4;fill: url(#grd8) } 
		.shp10 { fill: url(#grd9);stroke: #0f0f0f;stroke-linejoin:round;stroke-width: 0.346 } 
		.shp11 { opacity: 0.4;fill: url(#grd10) } 
		.shp12 { fill: url(#grd11);stroke: #0f0f0f;stroke-linejoin:round;stroke-width: 0.346 } 
		.shp13 { opacity: 0.4;fill: url(#grd12) } 
		.shp14 { fill: url(#grd13);stroke: #0f0f0f;stroke-linejoin:round;stroke-width: 0.346 } 
		.shp15 { fill: url(#grd14) } 
	</style>
	<g id="-e-Club4">
		<g id="Layer">
			<path id="Layer" fill-rule="evenodd" class="shp0" d="M5.31 1.37L68.39 1.37C68.86 1.37 69.32 1.47 69.75 1.64C70.18 1.82 70.57 2.08 70.9 2.41C71.22 2.74 71.48 3.13 71.66 3.56C71.84 3.99 71.93 4.45 71.93 4.91L71.93 97.02C71.93 97.49 71.84 97.95 71.66 98.38C71.48 98.81 71.22 99.2 70.9 99.52C70.57 99.85 70.18 100.11 69.75 100.29C69.32 100.47 68.86 100.56 68.39 100.56L5.31 100.56C4.85 100.56 4.39 100.47 3.96 100.29C3.53 100.11 3.14 99.85 2.81 99.52C2.49 99.2 2.23 98.81 2.05 98.38C1.87 97.95 1.78 97.49 1.78 97.02L1.78 4.91C1.78 4.45 1.87 3.99 2.05 3.56C2.23 3.13 2.49 2.74 2.81 2.41C3.14 2.08 3.53 1.82 3.96 1.64C4.39 1.47 4.85 1.37 5.31 1.37" />
			<path id="Layer" fill-rule="evenodd" class="shp1" d="M6.24 0.8L68.28 0.8C68.81 0.8 69.34 0.9 69.83 1.11C70.32 1.31 70.77 1.61 71.15 1.98C71.52 2.36 71.82 2.81 72.03 3.3C72.23 3.79 72.34 4.32 72.34 4.85L72.34 95.93C72.34 96.46 72.23 96.99 72.03 97.48C71.82 97.97 71.52 98.42 71.15 98.8C70.77 99.17 70.32 99.47 69.83 99.67C69.34 99.88 68.81 99.98 68.28 99.98L6.24 99.98C5.7 99.98 5.18 99.88 4.69 99.67C4.19 99.47 3.75 99.17 3.37 98.8C2.99 98.42 2.7 97.97 2.49 97.48C2.29 96.99 2.18 96.46 2.18 95.93L2.18 4.85C2.18 4.32 2.29 3.79 2.49 3.3C2.7 2.81 2.99 2.36 3.37 1.98C3.75 1.61 4.19 1.31 4.69 1.11C5.18 0.9 5.7 0.8 6.24 0.8" />
			<path id="Layer" class="shp2" d="M32.43 96.56L5.88 96.56L5.88 72.28L32.43 72.28L32.43 96.56Z" />
			<path id="Layer" class="shp3" d="M41.1 4.22L67.6 4.22C67.74 4.22 67.87 4.24 68 4.3C68.12 4.35 68.24 4.42 68.33 4.52C68.43 4.62 68.5 4.73 68.56 4.86C68.61 4.98 68.63 5.12 68.63 5.25L68.63 48.46C68.63 48.59 68.61 48.73 68.56 48.85C68.5 48.98 68.43 49.09 68.33 49.19C68.24 49.28 68.12 49.36 68 49.41C67.87 49.46 67.74 49.49 67.6 49.49L41.1 49.49C40.96 49.49 40.82 49.46 40.7 49.41C40.57 49.36 40.46 49.28 40.36 49.19C40.27 49.09 40.19 48.98 40.14 48.85C40.09 48.73 40.06 48.59 40.06 48.46L40.06 5.25C40.06 5.12 40.09 4.98 40.14 4.86C40.19 4.73 40.27 4.62 40.36 4.52C40.46 4.42 40.57 4.35 40.7 4.3C40.82 4.24 40.96 4.22 41.1 4.22" />
			<path id="Layer" class="shp4" d="M20.61 92.49L65.33 92.49L65.33 18.89" />
			<path id="Layer" class="shp4" d="M53.75 8.28L9.2 8.28L9.2 81.47" />
		</g>
		<path id="Layer" fill-rule="evenodd" class="shp5" d="M18.38 89.26C18.38 89.26 18.38 89.26 18.38 89.25C18.38 89.26 18.38 89.26 18.39 89.26L18.38 89.26ZM18.38 89.25C16.08 83.48 14.51 83.65 12.52 83.08L15.49 83.08C15.51 82.98 15.53 82.88 15.55 82.78C15.61 82.53 15.68 82.28 15.75 82.04C15.75 81.71 15.75 81.38 15.75 81.05C15.76 80.33 15.86 79.62 15.96 78.91C15.98 78.73 16 78.55 16.03 78.37C15.93 78.29 15.96 77.75 16.21 76.68C16.26 76.47 16.3 76.25 16.35 76.03C16.43 75.53 16.54 75.04 16.65 74.54C16.77 73.95 16.97 73.38 17.15 72.8C17.39 72.12 17.68 71.46 17.97 70.79C18.32 69.97 18.68 69.16 19.03 68.35C19.52 67.25 20.07 66.19 20.61 65.12C21.3 63.81 21.91 62.46 22.49 61.1C23.19 59.45 23.87 57.79 24.56 56.13C25.31 54.37 26.02 52.58 26.7 50.78C26.74 50.66 26.78 50.55 26.82 50.43C26.81 50.4 26.8 50.35 26.8 50.31C26.8 50.19 26.87 50.08 26.97 50.02C27.56 48.34 28.11 46.65 28.63 44.95C29.28 42.8 29.84 40.62 30.28 38.42C30.72 35.87 30.83 33.27 30.81 30.68C30.74 28.57 30.52 26.46 30.28 24.37C30.17 24.46 30.04 24.51 29.89 24.51C29.55 24.51 29.28 24.25 29.28 23.91C29.28 23.58 29.55 23.31 29.89 23.31C29.99 23.31 30.08 23.33 30.16 23.38L30.09 22.81C30 22.07 29.9 21.33 29.79 20.59C29.73 20.7 29.62 20.77 29.49 20.77C29.31 20.77 29.16 20.62 29.16 20.43C29.16 20.25 29.31 20.1 29.49 20.1C29.58 20.1 29.66 20.13 29.72 20.19C29.62 19.49 29.51 18.8 29.41 18.1C29.24 17.03 29.27 16.39 29.38 16.22C29.28 16.11 29.22 15.96 29.22 15.8C29.22 15.47 29.49 15.2 29.82 15.2C30.16 15.2 30.43 15.47 30.43 15.8C30.43 16.14 30.16 16.41 29.82 16.41C29.75 16.41 29.69 16.4 29.63 16.38C29.75 16.62 29.88 17.07 29.99 17.77C30.23 19.34 30.47 20.9 30.66 22.48C30.98 25.09 31.29 27.71 31.37 30.35C31.4 32.94 31.3 35.53 30.85 38.09C30.42 40.29 29.86 42.46 29.21 44.61C28.64 46.45 28.06 48.3 27.4 50.12C27.45 50.17 27.47 50.24 27.47 50.31C27.47 50.47 27.36 50.6 27.21 50.64C26.56 52.37 25.87 54.09 25.15 55.79C24.46 57.45 23.78 59.11 23.08 60.76C22.5 62.12 21.9 63.46 21.21 64.77C20.67 65.84 20.13 66.91 19.64 68C19.29 68.81 18.92 69.62 18.57 70.43C18.29 71.1 18.01 71.76 17.77 72.45C17.59 73.02 17.39 73.6 17.27 74.19C17.25 74.26 17.24 74.33 17.22 74.4C17.41 73.98 17.6 73.55 17.8 73.14C17.96 72.83 18.13 72.52 18.29 72.22C18.29 72.21 18.3 72.2 18.3 72.19C18.38 71.95 18.51 71.72 18.62 71.49C18.78 71.14 19 70.82 19.2 70.48C19.39 70.17 19.59 69.86 19.81 69.56C20.39 68.56 21.04 67.62 21.72 66.68C22.25 65.95 22.86 65.3 23.48 64.67C23.5 64.52 23.61 64.41 23.76 64.38L24.27 63.87C25.28 62.92 26.31 62.01 27.32 61.07C28.5 59.95 29.65 58.81 30.8 57.65C32.11 56.34 33.31 54.94 34.42 53.46C35.66 51.75 36.71 49.91 37.71 48.05C38.05 47.45 38.36 46.84 38.65 46.22L38.53 46.23C38.2 46.23 37.93 45.96 37.93 45.63C37.93 45.29 38.2 45.02 38.53 45.02C38.76 45.02 38.95 45.15 39.06 45.33C39.54 44.22 39.98 43.09 40.36 41.93L40.43 41.7C40.4 41.43 40.38 41.04 40.39 40.49C40.42 39.55 40.44 38.61 40.41 37.67C40.36 35.99 40.25 34.3 40.02 32.63C39.84 31.49 39.66 30.35 39.33 29.24C39.16 28.68 39.01 28.1 38.76 27.58C38.67 27.43 38.62 27.26 38.49 27.14C36.57 25.45 37.21 25.07 39.11 26.78C39.24 26.89 39.29 27.08 39.38 27.22C39.63 27.75 39.78 28.32 39.95 28.88C40.27 30 40.44 31.14 40.63 32.28C40.84 33.96 40.95 35.64 41 37.33C41.02 38.04 41.01 38.75 40.99 39.46C41.31 37.97 41.55 36.46 41.74 34.95C41.79 34.28 41.82 33.61 41.83 32.94C41.77 32.97 41.7 32.98 41.62 32.98C41.29 32.98 41.01 32.71 41.01 32.38C41.01 32.04 41.29 31.78 41.62 31.78C41.71 31.78 41.78 31.79 41.86 31.82C41.86 30.79 41.84 29.75 41.81 28.71C41.56 28.64 41.38 28.42 41.38 28.15C41.38 27.89 41.54 27.67 41.77 27.58C41.77 27.47 41.76 27.37 41.76 27.26C41.74 26.84 41.73 26.42 41.71 26.01C41.63 23.66 42.2 23.33 42.29 25.67C42.3 26.09 42.31 26.51 42.33 26.93C42.34 27.17 42.34 27.42 42.35 27.67C42.49 27.78 42.59 27.95 42.59 28.15C42.59 28.33 42.51 28.49 42.39 28.6C42.44 30.61 42.46 32.62 42.31 34.62C42.02 36.97 41.63 39.33 40.94 41.6C40.24 43.72 39.38 45.77 38.29 47.72C37.29 49.57 36.25 51.41 35 53.12C33.89 54.6 32.7 56 31.39 57.31C30.25 58.47 29.1 59.61 27.91 60.72C26.91 61.66 25.88 62.58 24.87 63.52C24.57 63.82 24.27 64.12 23.97 64.43C24.05 64.47 24.1 64.54 24.12 64.63C24.88 63.86 25.69 63.12 26.49 62.4L29.3 59.91C30.29 59.02 31.29 58.15 32.28 57.27C33.41 56.29 34.5 55.28 35.58 54.26C36.79 53.1 37.99 51.91 39.16 50.72C40.41 49.46 41.59 48.14 42.74 46.79C43.61 45.74 44.45 44.66 45.26 43.57C45.26 43.53 45.25 43.49 45.25 43.45C45.25 43.14 45.49 42.89 45.79 42.85L46.4 42.01C47.48 40.53 48.46 38.97 49.39 37.38C49.35 37.39 49.31 37.4 49.27 37.4C49.09 37.4 48.94 37.25 48.94 37.07C48.94 36.89 49.09 36.73 49.27 36.73C49.43 36.73 49.57 36.85 49.6 37C49.68 36.85 49.77 36.7 49.86 36.55C50.94 34.55 51.97 32.5 52.65 30.32C53.17 28.42 53.47 26.47 53.78 24.53C54.15 22.2 54.73 21.86 54.36 24.19C54.05 26.13 53.75 28.08 53.23 29.99C52.55 32.16 51.52 34.21 50.45 36.22C49.39 38.1 48.26 39.93 46.99 41.67C46.69 42.08 46.4 42.49 46.1 42.9C46.31 42.99 46.46 43.2 46.46 43.45C46.46 43.78 46.19 44.06 45.86 44.06C45.67 44.06 45.5 43.97 45.39 43.84C44.72 44.72 44.04 45.6 43.33 46.45C42.18 47.8 41 49.12 39.75 50.38C39.18 50.96 38.61 51.53 38.03 52.1C38.2 51.94 38.51 51.66 38.96 51.27C40.07 50.33 41.18 49.41 42.34 48.53C43.42 47.71 44.52 46.93 45.74 46.33C45.84 46.13 46.05 45.99 46.28 45.99C46.34 45.99 46.39 45.99 46.44 46.01C46.62 45.94 46.81 45.89 47.01 45.87C49.43 45.72 48.97 46.04 46.73 46.21C46.82 46.31 46.88 46.44 46.88 46.59C46.88 46.93 46.62 47.2 46.28 47.2C45.95 47.2 45.67 46.93 45.67 46.59C45.67 46.53 45.69 46.47 45.71 46.42L45.21 46.64C44.8 46.79 43.76 47.57 42.94 48.19C41.78 49.07 40.66 49.99 39.55 50.94C38.41 51.91 37.75 52.41 37.87 52.26C37.31 52.82 36.74 53.37 36.17 53.91C35.09 54.94 34.01 55.95 32.88 56.92C31.89 57.8 30.89 58.67 29.9 59.56C28.97 60.39 28.04 61.22 27.1 62.05C26.24 62.83 25.37 63.62 24.56 64.45C23.84 65.19 23.11 65.93 22.44 66.71C21.92 67.32 21.39 67.94 20.9 68.58L20.38 69.28C20.36 69.32 20.33 69.37 20.3 69.42C19.85 70.19 19.39 70.96 18.96 71.74L18.93 71.83C18.88 71.96 18.84 72.09 18.79 72.21C18.43 72.98 18.13 73.52 17.92 73.84C17.59 74.55 17.3 75.28 17.09 76.03C16.87 76.87 16.65 77.7 16.57 78.56C16.49 79.16 16.41 79.77 16.38 80.38L16.52 80.08C16.85 79.47 17.23 78.89 17.61 78.32C17.92 77.84 18.27 77.4 18.63 76.96C18.56 76.86 18.51 76.73 18.51 76.6C18.51 76.27 18.78 75.99 19.12 75.99C19.23 75.99 19.33 76.02 19.42 76.08C20 75.47 20.62 74.92 21.25 74.36C22.05 73.61 22.91 72.93 23.78 72.25C24.81 71.45 25.91 70.74 27 70.02C28.26 69.21 29.53 68.44 30.81 67.67L31.11 67.5C30.86 67.43 30.67 67.2 30.67 66.92C30.67 66.59 30.94 66.31 31.28 66.31C31.61 66.31 31.88 66.59 31.88 66.92C31.88 67.25 31.61 67.52 31.28 67.52C31.23 67.52 31.18 67.52 31.13 67.51C30.08 68.14 29.03 68.78 28 69.45C26.91 70.16 25.82 70.87 24.79 71.67C23.92 72.35 23.06 73.03 22.26 73.77C21.52 74.43 20.78 75.08 20.12 75.82L19.67 76.35C19.7 76.43 19.73 76.51 19.73 76.6C19.73 76.93 19.45 77.2 19.12 77.2C19.08 77.2 19.05 77.2 19.01 77.19C18.88 77.37 18.76 77.55 18.64 77.73C18.25 78.3 17.87 78.87 17.55 79.48C17.33 79.96 17.09 80.42 16.95 80.93C16.88 81.15 16.8 81.38 16.74 81.61C16.82 81.67 16.88 81.77 16.88 81.89C16.88 82.06 16.74 82.21 16.57 82.22C16.52 82.52 16.44 82.82 16.45 83.13C16.46 83.3 16.45 83.48 16.49 83.65C16.51 83.75 16.51 83.86 16.54 83.95C16.81 85.16 18.91 88.35 18.38 89.25ZM18.64 84.25C18.64 84.07 18.79 83.92 18.97 83.92C19.15 83.92 19.3 84.07 19.3 84.25C19.3 84.43 19.15 84.58 18.97 84.58C18.79 84.58 18.64 84.43 18.64 84.25ZM13.74 82.28C13.74 81.95 14 81.68 14.34 81.68C14.67 81.68 14.95 81.95 14.95 82.28C14.95 82.62 14.67 82.89 14.34 82.89C14 82.89 13.74 82.62 13.74 82.28ZM17 81.56C17 81.22 17.27 80.96 17.61 80.96C17.94 80.96 18.21 81.22 18.21 81.56C18.21 81.89 17.94 82.16 17.61 82.16C17.27 82.16 17 81.89 17 81.56ZM13.01 80.13C13.01 79.95 13.16 79.8 13.34 79.8C13.53 79.8 13.67 79.95 13.67 80.13C13.67 80.32 13.53 80.47 13.34 80.47C13.16 80.47 13.01 80.32 13.01 80.13ZM14.52 79.59C14.52 79.41 14.67 79.26 14.85 79.26C15.04 79.26 15.19 79.41 15.19 79.59C15.19 79.77 15.04 79.92 14.85 79.92C14.67 79.92 14.52 79.77 14.52 79.59ZM19.97 78.59C19.97 78.26 20.23 77.99 20.57 77.99C20.9 77.99 21.18 78.26 21.18 78.59C21.18 78.93 20.9 79.2 20.57 79.2C20.23 79.2 19.97 78.93 19.97 78.59ZM21.66 77.84C21.66 77.65 21.8 77.5 21.99 77.5C22.17 77.5 22.32 77.65 22.32 77.84C22.32 78.02 22.17 78.17 21.99 78.17C21.8 78.17 21.66 78.02 21.66 77.84ZM13.07 76.9C13.07 76.57 13.34 76.3 13.67 76.3C14.01 76.3 14.28 76.57 14.28 76.9C14.28 77.24 14.01 77.5 13.67 77.5C13.34 77.5 13.07 77.24 13.07 76.9ZM14.46 75.14C14.46 74.81 14.73 74.54 15.07 74.54C15.4 74.54 15.67 74.81 15.67 75.14C15.67 75.48 15.4 75.75 15.07 75.75C14.73 75.75 14.46 75.48 14.46 75.14ZM22.57 75.18C22.57 75 22.72 74.85 22.9 74.85C23.08 74.85 23.23 75 23.23 75.18C23.23 75.36 23.08 75.51 22.9 75.51C22.72 75.51 22.57 75.36 22.57 75.18ZM26.68 74.36C26.68 74.02 26.95 73.76 27.28 73.76C27.62 73.76 27.89 74.02 27.89 74.36C27.89 74.69 27.62 74.97 27.28 74.97C26.95 74.97 26.68 74.69 26.68 74.36ZM20.21 73.64C20.21 73.3 20.48 73.03 20.81 73.03C21.15 73.03 21.42 73.3 21.42 73.64C21.42 73.97 21.15 74.24 20.81 74.24C20.48 74.24 20.21 73.97 20.21 73.64ZM23.18 74.09C23.16 74.09 23.53 73.79 24.4 73.16C24.87 72.81 25.34 72.44 25.84 72.13C26.96 71.47 28.08 70.8 29.26 70.26C30.11 69.88 30.96 69.5 31.83 69.17C32.44 68.92 33.04 68.68 33.65 68.45L34.43 68.15C36.82 67.24 36.2 67.6 33.81 68.51L33.03 68.8C32.42 69.03 31.82 69.28 31.21 69.52C30.68 69.73 30.15 69.96 29.62 70.19C29.93 70.21 30.19 70.47 30.19 70.79C30.19 71.12 29.92 71.4 29.58 71.4C29.25 71.4 28.98 71.12 28.98 70.79C28.98 70.64 29.03 70.51 29.12 70.41L28.66 70.61C27.99 70.87 26.66 71.66 26.45 71.79C25.95 72.09 25.48 72.46 25.01 72.81C23.89 73.63 23.21 74.1 23.18 74.09L23.18 74.09ZM14.15 72.85C14.15 72.51 14.43 72.24 14.76 72.24C15.1 72.24 15.37 72.51 15.37 72.85C15.37 73.18 15.1 73.45 14.76 73.45C14.43 73.45 14.15 73.18 14.15 72.85ZM27.64 72.46C27.64 72.27 27.79 72.12 27.98 72.12C28.16 72.12 28.31 72.27 28.31 72.46C28.31 72.64 28.16 72.79 27.98 72.79C27.79 72.79 27.64 72.64 27.64 72.46ZM16.4 71.33C16.4 71 16.67 70.73 17 70.73C17.34 70.73 17.61 71 17.61 71.33C17.61 71.67 17.34 71.94 17 71.94C16.67 71.94 16.4 71.67 16.4 71.33ZM19.66 71.16C19.66 70.82 19.94 70.55 20.27 70.55C20.6 70.55 20.87 70.82 20.87 71.16C20.87 71.49 20.6 71.76 20.27 71.76C19.94 71.76 19.66 71.49 19.66 71.16ZM11.74 70.94C11.74 70.76 11.89 70.61 12.07 70.61C12.25 70.61 12.4 70.76 12.4 70.94C12.4 71.13 12.25 71.28 12.07 71.28C11.89 71.28 11.74 71.13 11.74 70.94ZM32.85 69.79C32.85 69.61 33 69.46 33.18 69.46C33.36 69.46 33.51 69.61 33.51 69.79C33.51 69.97 33.36 70.12 33.18 70.12C33 70.12 32.85 69.98 32.85 69.79ZM25.35 69.46C25.35 69.13 25.62 68.86 25.95 68.86C26.29 68.86 26.56 69.13 26.56 69.46C26.56 69.79 26.29 70.07 25.95 70.07C25.62 70.07 25.35 69.79 25.35 69.46ZM36.63 69.52C36.45 69.52 36.3 69.37 36.3 69.19C36.3 69.13 36.32 69.06 36.35 69.01C36.29 69.03 36.24 69.03 36.18 69.03C35.84 69.03 35.57 68.77 35.57 68.43C35.57 68.1 35.84 67.83 36.18 67.83C36.51 67.83 36.78 68.1 36.78 68.43C36.78 68.6 36.71 68.75 36.6 68.86L36.63 68.86C36.81 68.86 36.96 69.01 36.96 69.19C36.96 69.37 36.81 69.52 36.63 69.52L36.63 69.52ZM38.11 67.52C38.11 67.19 38.38 66.92 38.72 66.92C39.05 66.92 39.32 67.19 39.32 67.52C39.32 67.86 39.05 68.13 38.72 68.13C38.38 68.13 38.11 67.86 38.11 67.52ZM17.48 67.52C17.48 67.19 17.76 66.92 18.09 66.92C18.43 66.92 18.69 67.19 18.69 67.52C18.69 67.86 18.43 68.13 18.09 68.13C17.76 68.13 17.48 67.86 17.48 67.52ZM22.26 67.47C22.26 67.13 22.53 66.86 22.87 66.86C23.2 66.86 23.47 67.13 23.47 67.47C23.47 67.8 23.2 68.07 22.87 68.07C22.53 68.07 22.26 67.8 22.26 67.47ZM39.93 67.68C39.93 67.49 40.07 67.35 40.26 67.35C40.44 67.35 40.59 67.49 40.59 67.68C40.59 67.86 40.44 68.01 40.26 68.01C40.07 68.01 39.93 67.86 39.93 67.68ZM26.92 67.25C26.92 67.07 27.07 66.92 27.26 66.92C27.44 66.92 27.59 67.07 27.59 67.25C27.59 67.44 27.44 67.59 27.26 67.59C27.07 67.59 26.92 67.44 26.92 67.25ZM21.72 67.19C21.72 67.19 21.72 67.19 21.72 67.19C21.72 67.19 21.72 67.19 21.72 67.19L21.72 67.19ZM21.72 67.19C21.76 67.15 21.79 67.1 21.83 67.06C22.43 66.36 23.08 65.69 23.73 65.03C23.64 65.01 23.57 64.96 23.52 64.88C23.1 65.34 22.69 65.82 22.32 66.33C22.12 66.62 21.92 66.9 21.72 67.19ZM33.22 66.28C33.23 66.27 33.23 66.27 33.24 66.27C33.23 66.27 33.23 66.27 33.22 66.28L33.22 66.28ZM33.24 66.27C34.21 65.71 35.19 65.16 36.17 64.61C36.29 64.54 36.48 64.44 36.64 64.35C36.41 64.26 36.23 64.04 36.23 63.77C36.23 63.44 36.51 63.17 36.84 63.17C37.18 63.17 37.44 63.44 37.44 63.77C37.44 63.82 37.44 63.87 37.43 63.91L39.5 62.74C38.81 63.14 38.12 63.54 37.42 63.93C37.35 64.19 37.12 64.38 36.84 64.38C36.78 64.38 36.73 64.37 36.67 64.35C36.18 64.63 35.68 64.9 35.18 65.17C34.48 65.57 33.82 65.94 33.24 66.27ZM40.65 65.86C40.65 65.68 40.8 65.53 40.99 65.53C41.17 65.53 41.32 65.68 41.32 65.86C41.32 66.04 41.17 66.19 40.99 66.19C40.8 66.19 40.65 66.04 40.65 65.86ZM17.85 65.29C17.51 65.29 17.24 65.01 17.24 64.68C17.24 64.35 17.51 64.08 17.85 64.08C17.96 64.08 18.06 64.11 18.15 64.16C18.16 63.98 18.3 63.83 18.48 63.83C18.67 63.83 18.81 63.99 18.81 64.17C18.81 64.35 18.67 64.5 18.48 64.5C18.46 64.5 18.44 64.5 18.42 64.5C18.44 64.55 18.45 64.61 18.45 64.68C18.45 65.01 18.18 65.29 17.85 65.29ZM15.55 64.89C15.55 64.71 15.7 64.56 15.88 64.56C16.06 64.56 16.21 64.71 16.21 64.89C16.21 65.08 16.06 65.22 15.88 65.22C15.7 65.22 15.55 65.08 15.55 64.89ZM19.48 62.33C19.48 61.99 19.75 61.72 20.09 61.72C20.42 61.72 20.69 61.99 20.69 62.33C20.69 62.66 20.42 62.93 20.09 62.93C19.75 62.93 19.48 62.66 19.48 62.33ZM45.31 62.47C45.31 62.29 45.46 62.14 45.65 62.14C45.83 62.14 45.98 62.29 45.98 62.47C45.98 62.66 45.83 62.81 45.65 62.81C45.46 62.81 45.31 62.66 45.31 62.47ZM39.74 62.6L39.76 62.59C39.75 62.6 39.75 62.6 39.74 62.6L39.74 62.6ZM39.76 62.59C41.24 61.73 42.65 60.75 44.01 59.72C45.06 58.91 46.06 58.04 47.02 57.14C47.02 57.12 47.02 57.11 47.02 57.1C46.54 57.51 46.04 57.9 45.55 58.3C43.64 59.82 43.04 60.17 44.95 58.64C45.49 58.21 46.05 57.78 46.57 57.32C47.29 56.69 48.02 56.06 48.73 55.43C50 54.07 51.11 52.58 52.16 51.05C53.41 49.27 54.33 47.31 55.08 45.29C55.87 43.08 56.19 40.76 56.36 38.44C56.57 36.35 56.39 34.29 56.13 32.22C55.64 28.37 56.59 27.82 57.08 31.68C57.35 33.74 57.54 35.8 57.32 37.88C57.18 39.9 56.92 41.91 56.34 43.85C56.44 43.75 56.59 43.69 56.75 43.69C57.08 43.69 57.35 43.96 57.35 44.3C57.35 44.63 57.08 44.9 56.75 44.9C56.45 44.9 56.21 44.69 56.15 44.42C56.12 44.52 56.09 44.63 56.05 44.73C55.3 46.75 54.38 48.71 53.13 50.48C52.44 51.5 51.72 52.49 50.94 53.45C51.5 52.94 52.05 52.43 52.6 51.92L53.27 51.23C53.33 51.08 53.43 50.97 53.57 50.9C54.02 50.41 54.45 49.9 54.81 49.34C55.38 48.5 55.94 47.65 56.49 46.8C57.03 45.95 57.57 45.09 58.1 44.23C58.54 43.48 59 42.73 59.4 41.96C59.62 41.49 59.85 41.02 60.01 40.53C60.08 40.34 60.13 40.15 60.22 39.97C60.45 39.51 60.65 39.15 60.83 38.85C60.63 38.75 60.49 38.55 60.49 38.31C60.49 37.99 60.75 37.73 61.07 37.71C60.98 37.65 60.92 37.55 60.92 37.43C60.92 37.25 61.07 37.1 61.25 37.1C61.43 37.1 61.58 37.25 61.58 37.43C61.58 37.59 61.48 37.71 61.33 37.75C61.55 37.84 61.7 38.06 61.7 38.31C61.7 38.61 61.48 38.86 61.19 38.9C61.1 39.1 60.99 39.34 60.85 39.61C60.75 39.79 60.71 39.98 60.63 40.17C60.47 40.67 60.23 41.13 60.01 41.6L59.77 42.05C59.88 41.94 60.02 41.88 60.19 41.88C60.52 41.88 60.8 42.15 60.8 42.48C60.8 42.81 60.52 43.09 60.19 43.09C59.85 43.09 59.59 42.81 59.59 42.48C59.59 42.44 59.59 42.4 59.6 42.36C59.31 42.87 59.01 43.37 58.7 43.87C58.18 44.74 57.64 45.59 57.1 46.45C56.55 47.3 55.99 48.14 55.42 48.98C54.98 49.66 54.46 50.26 53.91 50.84C54.21 50.87 54.45 51.13 54.45 51.44C54.45 51.77 54.17 52.04 53.84 52.04C53.53 52.04 53.28 51.82 53.24 51.52L53.2 51.57C52.24 52.47 51.27 53.34 50.3 54.22L50.25 54.27C49.93 54.62 49.61 54.98 49.27 55.32C48.81 55.79 48.34 56.24 47.87 56.69C48.07 56.79 48.21 57 48.21 57.24C48.21 57.58 47.94 57.84 47.61 57.84C47.35 57.84 47.13 57.68 47.04 57.45C46.38 58.04 45.7 58.6 44.99 59.14C43.6 60.2 42.16 61.2 40.65 62.08L39.76 62.59ZM36.06 62.11C36.06 61.93 36.21 61.78 36.39 61.78C36.57 61.78 36.72 61.93 36.72 62.11C36.72 62.3 36.57 62.45 36.39 62.45C36.21 62.45 36.06 62.3 36.06 62.11ZM42.44 62.2L42.38 62.2C42.2 62.2 42.05 62.05 42.05 61.87C42.05 61.68 42.2 61.53 42.38 61.53C42.56 61.53 42.71 61.68 42.71 61.87C42.71 62.03 42.59 62.17 42.44 62.2ZM28.44 61.41C28.44 61.08 28.7 60.81 29.04 60.81C29.37 60.81 29.65 61.08 29.65 61.41C29.65 61.75 29.37 62.02 29.04 62.02C28.7 62.02 28.44 61.75 28.44 61.41ZM30.55 61.51C30.55 61.32 30.7 61.17 30.88 61.17C31.07 61.17 31.22 61.32 31.22 61.51C31.22 61.69 31.07 61.84 30.88 61.84C30.7 61.84 30.55 61.69 30.55 61.51ZM39.32 59.99C39.32 59.81 39.47 59.66 39.66 59.66C39.84 59.66 39.99 59.81 39.99 59.99C39.99 60.18 39.84 60.32 39.66 60.32C39.47 60.32 39.32 60.18 39.32 59.99ZM42.05 59.54C42.05 59.21 42.31 58.93 42.65 58.93C42.98 58.93 43.26 59.21 43.26 59.54C43.26 59.87 42.98 60.15 42.65 60.15C42.31 60.15 42.05 59.87 42.05 59.54ZM20.69 59.3C20.69 58.97 20.96 58.69 21.3 58.69C21.63 58.69 21.9 58.97 21.9 59.3C21.9 59.63 21.63 59.9 21.3 59.9C20.96 59.9 20.69 59.63 20.69 59.3ZM49.6 58.97C49.6 58.78 49.75 58.63 49.94 58.63C50.12 58.63 50.27 58.78 50.27 58.97C50.27 59.15 50.12 59.3 49.94 59.3C49.75 59.3 49.6 59.15 49.6 58.97ZM28.01 58.57C28.01 58.24 28.28 57.97 28.61 57.97C28.95 57.97 29.22 58.24 29.22 58.57C29.22 58.91 28.95 59.18 28.61 59.18C28.28 59.18 28.01 58.91 28.01 58.57ZM19.24 57.81C19.24 57.63 19.39 57.48 19.57 57.48C19.75 57.48 19.9 57.63 19.9 57.81C19.9 58 19.75 58.15 19.57 58.15C19.39 58.15 19.24 58 19.24 57.81ZM43.38 57.48C43.38 57.15 43.64 56.88 43.98 56.88C44.31 56.88 44.58 57.15 44.58 57.48C44.58 57.82 44.31 58.09 43.98 58.09C43.64 58.09 43.38 57.82 43.38 57.48ZM22.26 57.48C21.93 57.48 21.66 57.22 21.66 56.88C21.66 56.65 21.79 56.45 21.98 56.35C21.97 56.32 21.96 56.28 21.96 56.25C21.96 56.06 22.11 55.91 22.29 55.91C22.48 55.91 22.62 56.06 22.62 56.25C22.62 56.29 22.62 56.34 22.6 56.38C22.76 56.49 22.87 56.67 22.87 56.88C22.87 57.22 22.6 57.48 22.26 57.48L22.26 57.48ZM34.72 56.34C34.72 56 35 55.73 35.33 55.73C35.66 55.73 35.93 56 35.93 56.34C35.93 56.67 35.66 56.94 35.33 56.94C35 56.94 34.72 56.67 34.72 56.34ZM24.19 56.72C24.06 56.73 24.04 56.22 24.25 55.11C24.49 53.85 24.72 52.58 24.86 51.3C25.02 49.72 25.11 48.13 25.06 46.54C24.99 45.36 24.92 44.18 24.71 43C24.58 42.21 24.46 41.42 24.25 40.64C24.16 40.34 24.1 40.04 23.97 39.75C22.88 37.44 23.54 37.06 24.59 39.39C24.72 39.68 24.78 39.99 24.87 40.29C25.07 41.07 25.19 41.86 25.32 42.65C25.52 43.82 25.6 45.01 25.66 46.2C25.71 47.79 25.61 49.38 25.45 50.96C25.3 52.24 25.08 53.51 24.84 54.77C24.6 56.02 24.33 56.71 24.19 56.72L24.19 56.72ZM36.78 56.37C36.78 56.18 36.93 56.03 37.11 56.03C37.3 56.03 37.44 56.18 37.44 56.37C37.44 56.55 37.3 56.7 37.11 56.7C36.93 56.7 36.78 56.55 36.78 56.37ZM26.86 56.12C26.86 55.94 27.01 55.79 27.19 55.79C27.38 55.79 27.52 55.94 27.52 56.12C27.52 56.31 27.38 56.46 27.19 56.46C27.01 56.46 26.86 56.31 26.86 56.12ZM30.55 54.76C30.55 54.43 30.82 54.16 31.16 54.16C31.49 54.16 31.76 54.43 31.76 54.76C31.76 55.09 31.49 55.37 31.16 55.37C30.82 55.37 30.55 55.09 30.55 54.76ZM47.43 54.28C47.43 53.95 47.7 53.67 48.03 53.67C48.37 53.67 48.64 53.95 48.64 54.28C48.64 54.61 48.37 54.88 48.03 54.88C47.7 54.88 47.43 54.61 47.43 54.28ZM54.5 53.16C54.5 52.97 54.65 52.82 54.84 52.82C55.02 52.82 55.17 52.97 55.17 53.16C55.17 53.34 55.02 53.49 54.84 53.49C54.65 53.49 54.5 53.34 54.5 53.16ZM42.71 50.04C42.71 49.71 42.98 49.44 43.31 49.44C43.65 49.44 43.92 49.71 43.92 50.04C43.92 50.38 43.65 50.65 43.31 50.65C42.98 50.65 42.71 50.38 42.71 50.04ZM49.42 49.34C49.42 49.16 49.57 49.01 49.75 49.01C49.94 49.01 50.09 49.16 50.09 49.34C50.09 49.53 49.94 49.68 49.75 49.68C49.57 49.68 49.42 49.53 49.42 49.34ZM19.73 48.65C19.73 48.32 19.99 48.04 20.33 48.04C20.66 48.04 20.94 48.32 20.94 48.65C20.94 48.99 20.66 49.26 20.33 49.26C19.99 49.26 19.73 48.99 19.73 48.65ZM35.63 49.01C35.3 49.01 35.03 48.75 35.03 48.41C35.03 48.08 35.3 47.8 35.63 47.8C35.97 47.8 36.23 48.08 36.23 48.41C36.23 48.75 35.97 49.01 35.63 49.01ZM58.62 47.96C58.62 47.78 58.77 47.63 58.95 47.63C59.13 47.63 59.28 47.78 59.28 47.96C59.28 48.14 59.13 48.29 58.95 48.29C58.77 48.29 58.62 48.14 58.62 47.96ZM57.59 47.2C57.59 46.87 57.86 46.59 58.19 46.59C58.53 46.59 58.8 46.87 58.8 47.2C58.8 47.54 58.53 47.8 58.19 47.8C57.86 47.8 57.59 47.54 57.59 47.2ZM38.78 47.02C38.78 46.68 39.05 46.41 39.38 46.41C39.71 46.41 39.99 46.68 39.99 47.02C39.99 47.35 39.71 47.63 39.38 47.63C39.05 47.63 38.78 47.35 38.78 47.02ZM28.8 46.35C28.8 46.02 29.06 45.75 29.4 45.75C29.73 45.75 30.01 46.02 30.01 46.35C30.01 46.69 29.73 46.95 29.4 46.95C29.06 46.95 28.8 46.69 28.8 46.35ZM22.75 44.02C22.75 43.84 22.89 43.69 23.08 43.69C23.26 43.69 23.41 43.84 23.41 44.02C23.41 44.2 23.26 44.36 23.08 44.36C22.89 44.36 22.75 44.2 22.75 44.02ZM25.95 43.63C25.95 43.3 26.22 43.02 26.56 43.02C26.89 43.02 27.16 43.3 27.16 43.63C27.16 43.97 26.89 44.23 26.56 44.23C26.22 44.23 25.95 43.97 25.95 43.63ZM52.63 43.45C52.63 43.11 52.9 42.85 53.23 42.85C53.57 42.85 53.84 43.11 53.84 43.45C53.84 43.78 53.57 44.06 53.23 44.06C52.9 44.06 52.63 43.78 52.63 43.45ZM29.94 43.12C29.94 42.93 30.1 42.78 30.28 42.78C30.47 42.78 30.61 42.93 30.61 43.12C30.61 43.3 30.47 43.45 30.28 43.45C30.1 43.45 29.94 43.3 29.94 43.12ZM38.05 40.3C38.05 39.97 38.33 39.7 38.66 39.7C38.99 39.7 39.26 39.97 39.26 40.3C39.26 40.64 38.99 40.91 38.66 40.91C38.33 40.91 38.05 40.64 38.05 40.3ZM45.19 40.25C45.19 39.91 45.46 39.64 45.79 39.64C46.13 39.64 46.4 39.91 46.4 40.25C46.4 40.58 46.13 40.85 45.79 40.85C45.46 40.85 45.19 40.58 45.19 40.25ZM57.77 39.58C57.77 39.25 58.04 38.97 58.38 38.97C58.71 38.97 58.98 39.25 58.98 39.58C58.98 39.91 58.71 40.18 58.38 40.18C58.04 40.18 57.77 39.91 57.77 39.58ZM27.52 39.09C27.52 38.76 27.8 38.49 28.13 38.49C28.47 38.49 28.73 38.76 28.73 39.09C28.73 39.43 28.47 39.7 28.13 39.7C27.8 39.7 27.52 39.43 27.52 39.09ZM42.89 39.04C42.89 38.7 43.16 38.43 43.5 38.43C43.83 38.43 44.1 38.7 44.1 39.04C44.1 39.37 43.83 39.64 43.5 39.64C43.16 39.64 42.89 39.37 42.89 39.04ZM31.03 37.98C31.03 37.79 31.19 37.64 31.37 37.64C31.55 37.64 31.7 37.79 31.7 37.98C31.7 38.16 31.55 38.31 31.37 38.31C31.19 38.31 31.03 38.16 31.03 37.98ZM22.32 37.01C22.32 36.82 22.47 36.68 22.65 36.68C22.84 36.68 22.99 36.82 22.99 37.01C22.99 37.19 22.84 37.34 22.65 37.34C22.47 37.34 22.32 37.19 22.32 37.01ZM44.28 36.89C44.28 36.7 44.43 36.55 44.61 36.55C44.8 36.55 44.95 36.7 44.95 36.89C44.95 37.07 44.8 37.22 44.61 37.22C44.43 37.22 44.28 37.07 44.28 36.89ZM53.72 36.07C53.72 35.73 53.99 35.47 54.32 35.47C54.65 35.47 54.93 35.73 54.93 36.07C54.93 36.4 54.65 36.68 54.32 36.68C53.99 36.68 53.72 36.4 53.72 36.07ZM37.93 36.1C37.93 35.92 38.08 35.77 38.26 35.77C38.45 35.77 38.6 35.92 38.6 36.1C38.6 36.29 38.45 36.43 38.26 36.43C38.08 36.43 37.93 36.29 37.93 36.1ZM61.7 35.56C61.7 35.37 61.85 35.23 62.03 35.23C62.22 35.23 62.37 35.37 62.37 35.56C62.37 35.74 62.22 35.89 62.03 35.89C61.85 35.89 61.7 35.74 61.7 35.56ZM38.41 35.16C38.41 34.83 38.69 34.55 39.02 34.55C39.35 34.55 39.62 34.83 39.62 35.16C39.62 35.5 39.35 35.77 39.02 35.77C38.69 35.77 38.41 35.5 38.41 35.16ZM48.7 35.59C48.37 35.59 48.09 35.31 48.09 34.98C48.09 34.64 48.37 34.38 48.7 34.38C49.03 34.38 49.3 34.64 49.3 34.98C49.3 35.31 49.03 35.59 48.7 35.59ZM52.51 34.41C52.51 34.22 52.66 34.07 52.84 34.07C53.03 34.07 53.17 34.22 53.17 34.41C53.17 34.59 53.03 34.74 52.84 34.74C52.66 34.74 52.51 34.59 52.51 34.41ZM61.28 33.95C61.28 33.62 61.55 33.35 61.89 33.35C62.22 33.35 62.49 33.62 62.49 33.95C62.49 34.29 62.22 34.55 61.89 34.55C61.55 34.55 61.28 34.29 61.28 33.95ZM29.79 34.55C29.61 34.55 29.46 34.41 29.46 34.22C29.46 34.04 29.61 33.89 29.79 33.89C29.98 33.89 30.13 34.04 30.13 34.22C30.13 34.38 30.02 34.52 29.86 34.55L29.79 34.55ZM57.35 33.26C57.35 33.08 57.49 32.92 57.68 32.92C57.86 32.92 58.01 33.08 58.01 33.26C58.01 33.44 57.86 33.59 57.68 33.59C57.49 33.59 57.35 33.44 57.35 33.26ZM32.85 32.38C32.85 32.04 33.12 31.78 33.46 31.78C33.79 31.78 34.06 32.04 34.06 32.38C34.06 32.71 33.79 32.98 33.46 32.98C33.12 32.98 32.85 32.71 32.85 32.38ZM53.6 32.17C53.6 31.99 53.75 31.83 53.93 31.83C54.11 31.83 54.26 31.99 54.26 32.17C54.26 32.36 54.11 32.5 53.93 32.5C53.75 32.5 53.6 32.36 53.6 32.17ZM43.38 31.05C43.38 30.71 43.64 30.45 43.98 30.45C44.15 30.45 44.31 30.52 44.42 30.63C44.45 30.49 44.58 30.38 44.73 30.38C44.92 30.38 45.07 30.53 45.07 30.72C45.07 30.9 44.92 31.05 44.73 31.05C44.68 31.05 44.62 31.04 44.58 31.01C44.58 31.02 44.58 31.03 44.58 31.05C44.58 31.38 44.31 31.66 43.98 31.66C43.64 31.66 43.38 31.38 43.38 31.05ZM50.15 30.59C50.15 30.41 50.3 30.26 50.48 30.26C50.66 30.26 50.81 30.41 50.81 30.59C50.81 30.78 50.66 30.93 50.48 30.93C50.3 30.93 50.15 30.78 50.15 30.59ZM60.44 30.47C60.44 30.29 60.58 30.14 60.77 30.14C60.95 30.14 61.1 30.29 61.1 30.47C61.1 30.66 60.95 30.81 60.77 30.81C60.58 30.81 60.44 30.66 60.44 30.47ZM58.19 30.74C57.86 30.74 57.59 30.48 57.59 30.14C57.59 29.81 57.86 29.53 58.19 29.53C58.53 29.53 58.8 29.81 58.8 30.14C58.8 30.48 58.53 30.74 58.19 30.74ZM32.3 29.96C32.3 29.62 32.58 29.36 32.91 29.36C33.25 29.36 33.51 29.62 33.51 29.96C33.51 30.29 33.25 30.57 32.91 30.57C32.58 30.57 32.3 30.29 32.3 29.96ZM37.54 29.6C37.45 29.54 37.39 29.44 37.39 29.32C37.39 29.23 37.43 29.15 37.49 29.09C37.57 28.86 37.79 28.69 38.05 28.69C38.39 28.69 38.66 28.96 38.66 29.29C38.66 29.63 38.39 29.9 38.05 29.9C37.83 29.9 37.64 29.78 37.54 29.6ZM51.6 29.36C51.26 29.36 51 29.08 51 28.75C51 28.42 51.26 28.15 51.6 28.15C51.93 28.15 52.21 28.42 52.21 28.75C52.21 29.08 51.93 29.36 51.6 29.36ZM29.28 28.75C28.94 28.75 28.68 28.48 28.68 28.15C28.68 27.81 28.94 27.54 29.28 27.54C29.61 27.54 29.89 27.81 29.89 28.15C29.89 28.48 29.61 28.75 29.28 28.75ZM39.14 26.54C39.14 26.36 39.29 26.21 39.47 26.21C39.66 26.21 39.81 26.36 39.81 26.54C39.81 26.73 39.66 26.88 39.47 26.88C39.29 26.88 39.14 26.73 39.14 26.54ZM59.52 26.42C59.52 26.24 59.67 26.09 59.86 26.09C60.04 26.09 60.19 26.24 60.19 26.42C60.19 26.61 60.04 26.76 59.86 26.76C59.67 26.76 59.52 26.61 59.52 26.42ZM31.88 26.36C31.88 26.18 32.03 26.03 32.21 26.03C32.4 26.03 32.54 26.18 32.54 26.36C32.54 26.54 32.4 26.69 32.21 26.69C32.03 26.69 31.88 26.54 31.88 26.36ZM55.29 24.97C55.29 24.78 55.44 24.63 55.62 24.63C55.8 24.63 55.95 24.78 55.95 24.97C55.95 25.15 55.8 25.3 55.62 25.3C55.44 25.3 55.29 25.15 55.29 24.97ZM56.32 24.21C56.32 23.88 56.59 23.61 56.92 23.61C57.26 23.61 57.53 23.88 57.53 24.21C57.53 24.54 57.26 24.82 56.92 24.82C56.59 24.82 56.32 24.54 56.32 24.21ZM34.84 23.76C34.84 23.57 35 23.43 35.18 23.43C35.37 23.43 35.51 23.57 35.51 23.76C35.51 23.94 35.37 24.09 35.18 24.09C35 24.09 34.84 23.94 34.84 23.76ZM37.32 23.25C37.32 22.92 37.6 22.64 37.93 22.64C38.27 22.64 38.53 22.92 38.53 23.25C38.53 23.58 38.27 23.85 37.93 23.85C37.6 23.85 37.32 23.58 37.32 23.25ZM32.12 22.28C32.12 21.95 32.39 21.67 32.73 21.67C33.06 21.67 33.34 21.95 33.34 22.28C33.34 22.61 33.06 22.88 32.73 22.88C32.39 22.88 32.12 22.61 32.12 22.28ZM49.85 22.37C49.85 22.18 49.99 22.03 50.18 22.03C50.36 22.03 50.51 22.18 50.51 22.37C50.51 22.55 50.36 22.7 50.18 22.7C49.99 22.7 49.85 22.55 49.85 22.37ZM41.74 22.03C41.74 21.7 42.01 21.43 42.34 21.43C42.68 21.43 42.95 21.7 42.95 22.03C42.95 22.37 42.68 22.64 42.34 22.64C42.01 22.64 41.74 22.37 41.74 22.03ZM52.45 21.7C52.45 21.52 52.6 21.37 52.78 21.37C52.96 21.37 53.11 21.52 53.11 21.7C53.11 21.88 52.96 22.03 52.78 22.03C52.6 22.03 52.45 21.88 52.45 21.7ZM40.77 20.31C40.77 20.13 40.92 19.98 41.11 19.98C41.29 19.98 41.44 20.13 41.44 20.31C41.44 20.5 41.29 20.65 41.11 20.65C40.92 20.65 40.77 20.5 40.77 20.31ZM27.52 19.86C27.52 19.52 27.8 19.25 28.13 19.25C28.47 19.25 28.73 19.52 28.73 19.86C28.73 20.19 28.47 20.46 28.13 20.46C27.8 20.46 27.52 20.19 27.52 19.86ZM50.57 18.68C50.57 18.5 50.72 18.35 50.91 18.35C51.09 18.35 51.24 18.5 51.24 18.68C51.24 18.87 51.09 19.01 50.91 19.01C50.72 19.01 50.57 18.87 50.57 18.68ZM52.45 17.98C52.45 17.65 52.72 17.38 53.05 17.38C53.39 17.38 53.66 17.65 53.66 17.98C53.66 18.32 53.39 18.59 53.05 18.59C52.72 18.59 52.45 18.32 52.45 17.98ZM26.98 17.35C26.98 17.16 27.13 17.01 27.31 17.01C27.5 17.01 27.64 17.16 27.64 17.35C27.64 17.53 27.5 17.68 27.31 17.68C27.13 17.68 26.98 17.53 26.98 17.35ZM52.75 16.08C52.75 15.9 52.9 15.75 53.08 15.75C53.27 15.75 53.42 15.9 53.42 16.08C53.42 16.26 53.27 16.41 53.08 16.41C52.9 16.41 52.75 16.26 52.75 16.08ZM36.11 15.17C36.11 14.98 36.26 14.84 36.45 14.84C36.63 14.84 36.78 14.98 36.78 15.17C36.78 15.35 36.63 15.5 36.45 15.5C36.26 15.5 36.11 15.35 36.11 15.17ZM27.59 13.53C27.59 13.35 27.74 13.2 27.92 13.2C28.1 13.2 28.25 13.35 28.25 13.53C28.25 13.72 28.1 13.87 27.92 13.87C27.74 13.87 27.59 13.72 27.59 13.53ZM29.28 12.33C29.28 12.14 29.43 11.99 29.61 11.99C29.79 11.99 29.94 12.14 29.94 12.33C29.94 12.51 29.79 12.66 29.61 12.66C29.43 12.66 29.28 12.51 29.28 12.33Z" />
		<g id="Layer">
			<path id="Layer" class="shp6" d="M11.97 85.76C11.3 85.76 10.76 86.41 10.76 87.22C10.76 87.55 10.86 87.88 11.02 88.16C10.75 87.97 10.41 87.85 10.07 87.85C9.33 87.85 8.72 88.44 8.72 89.17C8.72 89.89 9.33 90.48 10.07 90.48C10.74 90.48 11.43 89.96 11.55 89.33C11.65 89.66 11.7 90.02 11.7 90.39C11.7 91.26 11.42 92.04 10.98 92.6L13.04 92.6C12.57 92.04 12.27 91.23 12.27 90.34C12.27 89.98 12.32 89.64 12.41 89.32C12.48 89.98 13.2 90.48 13.9 90.48C14.65 90.48 15.25 89.89 15.25 89.17C15.25 88.44 14.65 87.85 13.9 87.85C13.55 87.85 13.2 87.99 12.92 88.21C13.09 87.92 13.19 87.57 13.19 87.22C13.19 86.41 12.64 85.76 11.97 85.76L11.97 85.76Z" />
		</g>
		<path id="Layer" class="shp7" d="M30.43 77.82C30.43 83.24 26.03 87.63 20.61 87.63C15.2 87.63 10.8 83.24 10.8 77.82C10.8 72.4 15.2 68.01 20.61 68.01C26.03 68.01 30.43 72.4 30.43 77.82Z" />
		<g id="Layer">
			<path id="Layer" class="shp8" d="M20.59 70.72C19.2 70.72 18.07 72.07 18.07 73.74C18.07 74.43 18.28 75.12 18.61 75.7C18.05 75.3 17.34 75.06 16.64 75.06C15.1 75.06 13.84 76.28 13.84 77.79C13.84 79.29 15.1 80.51 16.64 80.51C18.04 80.51 19.46 79.44 19.72 78.12C19.91 78.81 20.02 79.55 20.02 80.33C20.02 82.12 19.45 83.75 18.52 84.92L22.8 84.92C21.82 83.74 21.21 82.07 21.21 80.22C21.21 79.48 21.32 78.77 21.5 78.1C21.65 79.49 23.13 80.51 24.6 80.51C26.14 80.51 27.39 79.29 27.39 77.79C27.39 76.28 26.14 75.06 24.6 75.06C23.87 75.06 23.14 75.34 22.56 75.8C22.91 75.21 23.11 74.47 23.11 73.74C23.11 72.07 21.98 70.72 20.59 70.72L20.59 70.72Z" />
		</g>
		<path id="Layer" class="shp9" d="M63.42 77.82C63.42 83.24 59.02 87.63 53.6 87.63C48.19 87.63 43.79 83.24 43.79 77.82C43.79 72.4 48.19 68.01 53.6 68.01C59.02 68.01 63.42 72.4 63.42 77.82Z" />
		<g id="Layer">
			<path id="Layer" class="shp10" d="M53.58 70.72C52.19 70.72 51.06 72.07 51.06 73.74C51.06 74.43 51.27 75.12 51.6 75.7C51.04 75.3 50.33 75.06 49.63 75.06C48.09 75.06 46.83 76.28 46.83 77.79C46.83 79.29 48.09 80.51 49.63 80.51C51.03 80.51 52.45 79.44 52.71 78.12C52.9 78.81 53.01 79.55 53.01 80.33C53.01 82.12 52.44 83.75 51.51 84.92L55.79 84.92C54.81 83.74 54.2 82.07 54.2 80.22C54.2 79.48 54.31 78.77 54.49 78.1C54.64 79.49 56.12 80.51 57.59 80.51C59.13 80.51 60.38 79.29 60.38 77.79C60.38 76.28 59.13 75.06 57.59 75.06C56.86 75.06 56.13 75.34 55.55 75.8C55.9 75.21 56.1 74.47 56.1 73.74C56.1 72.07 54.97 70.72 53.58 70.72L53.58 70.72Z" />
		</g>
		<path id="Layer" class="shp11" d="M30.43 24.36C30.43 29.78 26.03 34.17 20.61 34.17C15.2 34.17 10.8 29.78 10.8 24.36C10.8 18.94 15.2 14.54 20.61 14.54C26.03 14.54 30.43 18.94 30.43 24.36Z" />
		<g id="Layer">
			<path id="Layer" class="shp12" d="M20.59 17.25C19.2 17.25 18.07 18.61 18.07 20.27C18.07 20.96 18.28 21.65 18.61 22.23C18.05 21.83 17.34 21.59 16.64 21.59C15.1 21.59 13.84 22.82 13.84 24.32C13.84 25.82 15.1 27.04 16.64 27.04C18.04 27.04 19.46 25.98 19.72 24.66C19.91 25.35 20.02 26.09 20.02 26.86C20.02 28.66 19.45 30.28 18.52 31.46L22.8 31.46C21.82 30.28 21.21 28.61 21.21 26.76C21.21 26.01 21.32 25.3 21.5 24.64C21.65 26.02 23.13 27.04 24.6 27.04C26.14 27.04 27.39 25.82 27.39 24.32C27.39 22.82 26.14 21.59 24.6 21.59C23.87 21.59 23.14 21.88 22.56 22.34C22.91 21.74 23.11 21.01 23.11 20.27C23.11 18.61 21.98 17.25 20.59 17.25L20.59 17.25Z" />
		</g>
		<path id="Layer" class="shp13" d="M63.42 23.91C63.42 29.33 59.02 33.72 53.6 33.72C48.19 33.72 43.79 29.33 43.79 23.91C43.79 18.49 48.19 14.09 53.6 14.09C59.02 14.09 63.42 18.49 63.42 23.91Z" />
		<g id="Layer">
			<path id="Layer" class="shp14" d="M53.58 16.81C52.19 16.81 51.06 18.16 51.06 19.83C51.06 20.52 51.27 21.21 51.6 21.79C51.04 21.39 50.33 21.15 49.63 21.15C48.09 21.15 46.83 22.37 46.83 23.87C46.83 25.38 48.09 26.6 49.63 26.6C51.03 26.6 52.45 25.53 52.71 24.21C52.9 24.9 53.01 25.64 53.01 26.42C53.01 28.21 52.44 29.84 51.51 31.01L55.79 31.01C54.81 29.83 54.2 28.16 54.2 26.31C54.2 25.57 54.31 24.85 54.49 24.19C54.64 25.57 56.12 26.6 57.59 26.6C59.13 26.6 60.38 25.38 60.38 23.87C60.38 22.37 59.13 21.15 57.59 21.15C56.86 21.15 56.13 21.43 55.55 21.89C55.9 21.29 56.1 20.56 56.1 19.83C56.1 18.16 54.97 16.81 53.58 16.81L53.58 16.81Z" />
		</g>
		<path id="Layer" fill-rule="evenodd" class="shp15" d="M65.45 13.17L65.45 13.88L64.32 13.88L64.32 15.73L63.47 15.73L63.47 13.88L60.35 13.88L60.35 13.17L63.84 8.24L64.32 8.24L64.32 13.17L65.45 13.17M63.46 9.37L60.8 13.17L63.46 13.17L63.46 9.37Z" />
	</g>
</svg>