<svg version="1.2" baseProfile="tiny-ps" xmlns="http://www.w3.org/2000/svg" viewBox="0 0 73 102" width="73" height="102">
	<title>-e-Diamond12</title>
	<defs>
		<filter x="-50%" y="-50%" width="200%" height="200%" id="flt1"> <feGaussianBlur stdDeviation="0.85" /> </filter>
		<linearGradient id="grd1" gradientUnits="userSpaceOnUse"  x1="41.804" y1="26.467" x2="43.949" y2="-89.916">
			<stop offset="0" stop-color="#f3f3f3"  />
			<stop offset="1" stop-color="#8f8f8f"  />
		</linearGradient>
		<radialGradient id="grd2" gradientUnits="userSpaceOnUse"  cx="10.857" cy="91.726" r="13.273">
			<stop offset="0" stop-color="#ffffff"  />
			<stop offset="1" stop-color="#ffffff" stop-opacity="0" />
		</radialGradient>
		<radialGradient id="grd3" gradientUnits="userSpaceOnUse"  cx="62.924" cy="12.67" r="14.287">
			<stop offset="0" stop-color="#ffffff"  />
			<stop offset="1" stop-color="#ffffff" stop-opacity="0" />
		</radialGradient>
		<radialGradient id="grd4" gradientUnits="userSpaceOnUse"  cx="37.308" cy="50.663" r="22.382">
			<stop offset="0" stop-color="#ffffff"  />
			<stop offset="1" stop-color="#ffffff" stop-opacity="0" />
		</radialGradient>
		<linearGradient id="grd5" gradientUnits="userSpaceOnUse"  x1="-6.156" y1="90.923" x2="-6.156" y2="87.583">
			<stop offset="0" stop-color="#d90000"  />
			<stop offset="1" stop-color="#950000"  />
		</linearGradient>
		<linearGradient id="grd6" gradientUnits="userSpaceOnUse"  x1="43.845" y1="12.923" x2="43.845" y2="9.583">
			<stop offset="0" stop-color="#d90000"  />
			<stop offset="1" stop-color="#950000"  />
		</linearGradient>
		<radialGradient id="grd7" gradientUnits="userSpaceOnUse"  cx="17.907" cy="73.912" r="153.364">
			<stop offset="0" stop-color="#9c0f0f"  />
			<stop offset="1" stop-color="#9c0f0f" stop-opacity="0" />
		</radialGradient>
		<linearGradient id="grd8" gradientUnits="userSpaceOnUse"  x1="-684.605" y1="55.382" x2="-684.605" y2="43.883">
			<stop offset="0" stop-color="#d90000"  />
			<stop offset="1" stop-color="#950000"  />
		</linearGradient>
		<linearGradient id="grd9" gradientUnits="userSpaceOnUse"  x1="-857.689" y1="79.68" x2="-857.689" y2="37.838">
			<stop offset="0" stop-color="#d90000"  />
			<stop offset="1" stop-color="#950000"  />
		</linearGradient>
		<linearGradient id="grd10" gradientUnits="userSpaceOnUse"  x1="-2992.453" y1="31.792" x2="-2992.453" y2="0.151">
			<stop offset="0" stop-color="#d90000"  />
			<stop offset="1" stop-color="#950000"  />
		</linearGradient>
	</defs>
	<style>
		tspan { white-space:pre }
		.shp0 { filter: url(#flt1);fill: #000000 } 
		.shp1 { fill: url(#grd1);stroke: #000000;stroke-width: 0.226 } 
		.shp2 { opacity: 0.467;fill: url(#grd2) } 
		.shp3 { opacity: 0.396;fill: url(#grd3) } 
		.shp4 { fill: none;stroke: #000000;stroke-width: 0.226 } 
		.shp5 { opacity: 0.455;fill: url(#grd4) } 
		.shp6 { fill: url(#grd5);stroke: #a40000;stroke-linejoin:round;stroke-width: 0.17 } 
		.shp7 { fill: url(#grd6);stroke: #a40000;stroke-linejoin:round;stroke-width: 0.17 } 
		.shp8 { fill: url(#grd7) } 
		.shp9 { fill: url(#grd8);stroke: #890000;stroke-linejoin:round;stroke-width: 0.586 } 
		.shp10 { fill: url(#grd9);stroke: #a30000;stroke-width: 0.402 } 
		.shp11 { fill: url(#grd10) } 
	</style>
	<g >
		<g >
			<path fill-rule="evenodd" class="shp0" d="M4.85 1.65L68.96 1.65C69.36 1.65 69.75 1.72 70.12 1.88C70.49 2.03 70.82 2.25 71.1 2.53C71.38 2.81 71.6 3.14 71.75 3.51C71.9 3.88 71.98 4.27 71.98 4.66L71.98 97.81C71.98 98.21 71.9 98.6 71.75 98.97C71.6 99.34 71.38 99.67 71.1 99.95C70.82 100.23 70.49 100.45 70.12 100.6C69.75 100.75 69.36 100.83 68.96 100.83L4.85 100.83C4.45 100.83 4.06 100.75 3.7 100.6C3.33 100.45 3 100.23 2.72 99.95C2.44 99.67 2.21 99.34 2.06 98.97C1.91 98.6 1.83 98.21 1.83 97.81L1.83 4.66C1.83 4.27 1.91 3.88 2.06 3.51C2.21 3.14 2.44 2.81 2.72 2.53C3 2.25 3.33 2.03 3.7 1.88C4.06 1.72 4.45 1.65 4.85 1.65" />
			<path fill-rule="evenodd" class="shp1" d="M6.12 1.07L68.51 1.07C69.02 1.07 69.52 1.17 69.99 1.36C70.46 1.56 70.89 1.85 71.25 2.21C71.61 2.57 71.9 2.99 72.09 3.46C72.29 3.94 72.39 4.44 72.39 4.95L72.39 96.37C72.39 96.88 72.29 97.39 72.09 97.86C71.9 98.33 71.61 98.76 71.25 99.12C70.89 99.48 70.46 99.76 69.99 99.96C69.52 100.15 69.02 100.25 68.51 100.25L6.12 100.25C5.61 100.25 5.1 100.15 4.63 99.96C4.16 99.76 3.73 99.48 3.37 99.12C3.01 98.76 2.73 98.33 2.53 97.86C2.34 97.39 2.24 96.88 2.24 96.37L2.24 4.95C2.24 4.44 2.34 3.94 2.53 3.46C2.73 2.99 3.01 2.57 3.37 2.21C3.73 1.85 4.16 1.56 4.63 1.36C5.1 1.17 5.61 1.07 6.12 1.07" />
			<path class="shp2" d="M31.26 96.79L6.67 96.79C6.54 96.79 6.41 96.77 6.3 96.72C6.18 96.67 6.07 96.6 5.98 96.51C5.89 96.41 5.82 96.31 5.77 96.19C5.72 96.07 5.69 95.94 5.69 95.82L5.69 73.49C5.69 73.36 5.72 73.23 5.77 73.12C5.82 73 5.89 72.89 5.98 72.8C6.07 72.71 6.18 72.64 6.3 72.59C6.41 72.54 6.54 72.51 6.67 72.51L31.26 72.51C31.39 72.51 31.52 72.54 31.64 72.59C31.76 72.64 31.86 72.71 31.95 72.8C32.04 72.89 32.12 73 32.17 73.12C32.21 73.23 32.24 73.36 32.24 73.49L32.24 95.82C32.24 95.94 32.21 96.07 32.17 96.19C32.12 96.31 32.04 96.41 31.95 96.51C31.86 96.6 31.76 96.67 31.64 96.72C31.52 96.77 31.39 96.79 31.26 96.79" />
			<path class="shp3" d="M41.39 4.53L67.89 4.53C68.03 4.53 68.17 4.56 68.29 4.61C68.42 4.66 68.53 4.74 68.63 4.84C68.72 4.93 68.8 5.05 68.85 5.17C68.9 5.3 68.93 5.43 68.93 5.57L68.93 48.77C68.93 48.9 68.9 49.04 68.85 49.16C68.8 49.29 68.72 49.4 68.63 49.5C68.53 49.6 68.42 49.67 68.29 49.73C68.17 49.78 68.03 49.8 67.89 49.8L41.39 49.8C41.26 49.8 41.12 49.78 41 49.73C40.87 49.67 40.76 49.6 40.66 49.5C40.57 49.4 40.49 49.29 40.44 49.16C40.38 49.04 40.36 48.9 40.36 48.77L40.36 5.57C40.36 5.43 40.38 5.3 40.44 5.17C40.49 5.05 40.57 4.93 40.66 4.84C40.76 4.74 40.87 4.66 41 4.61C41.12 4.56 41.26 4.53 41.39 4.53" />
			<path class="shp4" d="M20.66 92.77L65.38 92.77L65.38 19.16" />
			<path class="shp4" d="M53.81 8.56L9.25 8.56L9.25 81.74" />
			<path class="shp5" d="M59.68 50.66C59.68 72.55 49.66 90.3 37.3 90.3C24.94 90.3 14.92 72.55 14.92 50.66C14.92 28.77 24.94 11.03 37.3 11.03C49.66 11.03 59.68 28.77 59.68 50.66Z" />
		</g>
		<g >
			<path class="shp6" d="M12.88 85.77C12.88 85.77 13.55 86.76 14.32 87.64C15.1 88.52 15.99 89.28 15.99 89.28C15.99 89.28 15.11 90.04 14.34 90.92C13.57 91.79 12.91 92.78 12.91 92.78C12.91 92.78 12.24 91.78 11.46 90.9C10.68 90.02 9.78 89.25 9.78 89.25C9.78 89.25 10.67 88.5 11.44 87.63C12.22 86.76 12.88 85.77 12.88 85.77L12.88 85.77Z" />
			<path class="shp7" d="M62.88 7.77C62.88 7.77 63.55 8.76 64.32 9.64C65.1 10.52 65.99 11.28 65.99 11.28C65.99 11.28 65.11 12.04 64.34 12.92C63.57 13.79 62.91 14.78 62.91 14.78C62.91 14.78 62.24 13.78 61.46 12.9C60.68 12.02 59.78 11.25 59.78 11.25C59.78 11.25 60.67 10.5 61.44 9.63C62.22 8.76 62.88 7.77 62.88 7.77L62.88 7.77Z" />
		</g>
		<g >
			<path fill-rule="evenodd" class="shp8" d="M17.81 89.53C17.81 89.53 17.81 89.53 17.81 89.53C17.81 89.53 17.81 89.53 17.81 89.53L17.81 89.53ZM17.81 89.53C15.5 83.76 13.94 83.92 11.95 83.35L14.92 83.35C14.94 83.25 14.96 83.15 14.97 83.05C15.03 82.8 15.1 82.55 15.18 82.31C15.18 81.98 15.18 81.65 15.18 81.32C15.19 80.6 15.29 79.89 15.38 79.18C15.4 79 15.42 78.82 15.45 78.64C15.36 78.56 15.38 78.02 15.64 76.96C15.69 76.74 15.73 76.52 15.77 76.31C15.86 75.81 15.97 75.31 16.08 74.81C16.2 74.22 16.39 73.65 16.58 73.07C16.82 72.39 17.11 71.73 17.39 71.06C17.74 70.25 18.1 69.43 18.46 68.62C18.95 67.52 19.49 66.46 20.03 65.39C20.72 64.08 21.33 62.73 21.92 61.37C22.61 59.72 23.3 58.06 23.99 56.4C24.74 54.64 25.45 52.85 26.12 51.05C26.16 50.94 26.21 50.82 26.25 50.7C26.24 50.67 26.23 50.63 26.23 50.58C26.23 50.46 26.29 50.35 26.39 50.29C26.99 48.62 27.53 46.92 28.05 45.22C28.71 43.07 29.26 40.89 29.7 38.69C30.15 36.14 30.25 33.54 30.23 30.95C30.17 28.84 29.95 26.73 29.7 24.64C29.59 24.73 29.46 24.79 29.31 24.79C28.98 24.79 28.7 24.52 28.7 24.18C28.7 23.85 28.98 23.58 29.31 23.58C29.41 23.58 29.5 23.6 29.59 23.65L29.52 23.08C29.42 22.34 29.32 21.6 29.21 20.86C29.16 20.97 29.04 21.04 28.92 21.04C28.73 21.04 28.58 20.89 28.58 20.71C28.58 20.52 28.73 20.37 28.92 20.37C29 20.37 29.09 20.4 29.15 20.46C29.05 19.76 28.94 19.07 28.83 18.37C28.66 17.3 28.69 16.66 28.81 16.49C28.71 16.38 28.65 16.24 28.65 16.08C28.65 15.74 28.91 15.47 29.25 15.47C29.58 15.47 29.86 15.74 29.86 16.08C29.86 16.41 29.58 16.68 29.25 16.68C29.18 16.68 29.12 16.67 29.06 16.65C29.17 16.89 29.3 17.34 29.41 18.04C29.65 19.61 29.89 21.18 30.09 22.75C30.41 25.36 30.72 27.98 30.8 30.62C30.82 33.21 30.72 35.8 30.28 38.36C29.84 40.56 29.28 42.73 28.63 44.88C28.07 46.73 27.49 48.57 26.83 50.39C26.87 50.44 26.89 50.51 26.89 50.58C26.89 50.74 26.78 50.87 26.64 50.91C25.99 52.64 25.3 54.36 24.57 56.06C23.89 57.72 23.2 59.38 22.51 61.03C21.93 62.39 21.32 63.73 20.64 65.04C20.1 66.11 19.55 67.18 19.07 68.27C18.71 69.08 18.35 69.89 18 70.71C17.71 71.37 17.43 72.04 17.19 72.72C17.01 73.29 16.81 73.87 16.69 74.46C16.68 74.53 16.66 74.6 16.65 74.67C16.84 74.25 17.03 73.83 17.23 73.41C17.38 73.1 17.55 72.79 17.72 72.49C17.72 72.48 17.72 72.47 17.72 72.47C17.8 72.22 17.93 71.99 18.04 71.76C18.21 71.41 18.42 71.09 18.62 70.76C18.81 70.44 19.02 70.14 19.24 69.84C19.81 68.84 20.47 67.89 21.14 66.95C21.67 66.23 22.28 65.57 22.91 64.94C22.93 64.79 23.04 64.68 23.18 64.65L23.7 64.14C24.7 63.19 25.74 62.28 26.74 61.34C27.93 60.23 29.08 59.08 30.22 57.92C31.53 56.61 32.73 55.21 33.84 53.73C35.09 52.02 36.13 50.18 37.14 48.32C37.47 47.72 37.78 47.11 38.08 46.49L37.96 46.5C37.62 46.5 37.36 46.23 37.36 45.9C37.36 45.56 37.62 45.3 37.96 45.3C38.18 45.3 38.38 45.42 38.48 45.6C38.97 44.49 39.4 43.36 39.79 42.21L39.86 41.97C39.82 41.7 39.8 41.31 39.82 40.76C39.84 39.82 39.86 38.88 39.84 37.94C39.78 36.26 39.67 34.57 39.45 32.9C39.26 31.76 39.09 30.62 38.76 29.51C38.59 28.95 38.44 28.38 38.18 27.85C38.09 27.7 38.05 27.53 37.91 27.42C35.99 25.73 36.63 25.34 38.54 27.05C38.67 27.17 38.72 27.35 38.81 27.49C39.05 28.03 39.21 28.59 39.37 29.15C39.7 30.27 39.87 31.41 40.05 32.56C40.27 34.23 40.37 35.91 40.42 37.6C40.44 38.31 40.43 39.02 40.42 39.73C40.74 38.24 40.97 36.73 41.16 35.22C41.21 34.55 41.24 33.88 41.26 33.21C41.19 33.24 41.12 33.26 41.05 33.26C40.71 33.26 40.44 32.98 40.44 32.65C40.44 32.31 40.71 32.05 41.05 32.05C41.13 32.05 41.21 32.07 41.28 32.1C41.28 31.06 41.26 30.02 41.23 28.99C40.98 28.91 40.81 28.69 40.81 28.42C40.81 28.16 40.97 27.94 41.2 27.85C41.19 27.75 41.18 27.64 41.18 27.53C41.17 27.11 41.15 26.69 41.14 26.28C41.05 23.93 41.63 23.6 41.71 25.95C41.73 26.36 41.74 26.78 41.75 27.2C41.76 27.44 41.77 27.69 41.78 27.94C41.92 28.05 42.02 28.22 42.02 28.42C42.02 28.6 41.94 28.76 41.81 28.87C41.87 30.88 41.89 32.89 41.73 34.89C41.44 37.24 41.06 39.6 40.37 41.87C39.66 43.99 38.81 46.04 37.72 47.99C36.71 49.84 35.67 51.68 34.43 53.39C33.32 54.87 32.12 56.28 30.82 57.58C29.68 58.74 28.52 59.88 27.34 60.99C26.33 61.93 25.3 62.85 24.3 63.79C23.99 64.09 23.69 64.39 23.39 64.7C23.47 64.74 23.53 64.81 23.55 64.9C24.31 64.13 25.11 63.4 25.92 62.67L28.72 60.18C29.71 59.29 30.71 58.42 31.71 57.54C32.83 56.57 33.92 55.56 35 54.53C36.22 53.37 37.41 52.19 38.59 50.99C39.84 49.73 41.02 48.41 42.16 47.06C43.04 46.01 43.87 44.93 44.69 43.84C44.68 43.8 44.67 43.76 44.67 43.72C44.67 43.41 44.91 43.16 45.22 43.13L45.83 42.28C46.91 40.8 47.89 39.24 48.81 37.65C48.77 37.67 48.74 37.67 48.7 37.67C48.51 37.67 48.36 37.53 48.36 37.34C48.36 37.16 48.51 37 48.7 37C48.86 37 48.99 37.12 49.02 37.27C49.11 37.12 49.2 36.98 49.28 36.83C50.36 34.82 51.39 32.77 52.08 30.59C52.59 28.69 52.89 26.74 53.2 24.8C53.57 22.47 54.15 22.13 53.78 24.46C53.47 26.4 53.17 28.36 52.66 30.26C51.97 32.44 50.95 34.49 49.87 36.49C48.82 38.37 47.68 40.2 46.41 41.94C46.12 42.35 45.82 42.76 45.52 43.17C45.73 43.26 45.88 43.47 45.88 43.72C45.88 44.05 45.62 44.33 45.28 44.33C45.1 44.33 44.93 44.24 44.82 44.11C44.15 44.99 43.46 45.87 42.75 46.72C41.6 48.07 40.42 49.39 39.17 50.65C38.6 51.23 38.03 51.8 37.46 52.37C37.63 52.21 37.93 51.93 38.39 51.55C39.49 50.61 40.61 49.68 41.76 48.8C42.84 47.99 43.95 47.2 45.17 46.6C45.27 46.4 45.47 46.26 45.71 46.26C45.76 46.26 45.81 46.27 45.86 46.28C46.05 46.21 46.23 46.16 46.43 46.14C48.86 45.99 48.39 46.31 46.16 46.48C46.25 46.58 46.31 46.72 46.31 46.87C46.31 47.2 46.04 47.47 45.71 47.47C45.37 47.47 45.1 47.2 45.1 46.87C45.1 46.8 45.12 46.75 45.13 46.69L44.63 46.91C44.22 47.07 43.19 47.84 42.36 48.46C41.2 49.34 40.08 50.26 38.98 51.21C37.83 52.18 37.18 52.68 37.29 52.54C36.73 53.09 36.17 53.64 35.6 54.18C34.52 55.21 33.43 56.22 32.31 57.2C31.31 58.07 30.31 58.94 29.32 59.83C28.39 60.67 27.46 61.49 26.52 62.32C25.66 63.1 24.8 63.89 23.99 64.72C23.26 65.46 22.54 66.2 21.87 66.98C21.34 67.59 20.82 68.21 20.32 68.85L19.81 69.55C19.78 69.59 19.75 69.64 19.72 69.69C19.27 70.46 18.82 71.23 18.39 72.01L18.35 72.11C18.31 72.23 18.27 72.36 18.21 72.48C17.85 73.25 17.55 73.79 17.34 74.11C17.02 74.82 16.72 75.55 16.51 76.31C16.29 77.14 16.08 77.97 15.99 78.83C15.91 79.44 15.83 80.04 15.81 80.65L15.95 80.35C16.27 79.74 16.65 79.16 17.04 78.59C17.35 78.11 17.69 77.67 18.05 77.23C17.98 77.13 17.93 77.01 17.93 76.87C17.93 76.54 18.21 76.26 18.54 76.26C18.65 76.26 18.76 76.3 18.85 76.35C19.43 75.75 20.05 75.19 20.67 74.63C21.48 73.89 22.34 73.2 23.2 72.52C24.23 71.72 25.33 71.01 26.43 70.3C27.68 69.48 28.95 68.71 30.24 67.94L30.53 67.77C30.28 67.7 30.1 67.47 30.1 67.19C30.1 66.86 30.37 66.58 30.7 66.58C31.04 66.58 31.3 66.86 31.3 67.19C31.3 67.53 31.04 67.79 30.7 67.79C30.65 67.79 30.6 67.79 30.55 67.78C29.5 68.41 28.45 69.06 27.42 69.72C26.33 70.44 25.24 71.14 24.21 71.94C23.35 72.62 22.49 73.3 21.68 74.04C20.95 74.7 20.21 75.35 19.55 76.09L19.09 76.62C19.13 76.7 19.15 76.78 19.15 76.87C19.15 77.2 18.88 77.47 18.54 77.47C18.51 77.47 18.47 77.47 18.44 77.47C18.31 77.64 18.18 77.82 18.06 78C17.68 78.57 17.29 79.15 16.97 79.76C16.75 80.23 16.51 80.69 16.37 81.2C16.3 81.43 16.23 81.66 16.16 81.88C16.25 81.94 16.3 82.04 16.3 82.16C16.3 82.33 16.17 82.48 16 82.49C15.95 82.79 15.87 83.09 15.87 83.4C15.88 83.57 15.88 83.75 15.91 83.92C15.93 84.02 15.93 84.13 15.97 84.22C16.24 85.43 18.34 88.62 17.81 89.53ZM18.06 84.52C18.06 84.34 18.21 84.19 18.39 84.19C18.58 84.19 18.73 84.34 18.73 84.52C18.73 84.7 18.58 84.85 18.39 84.85C18.21 84.85 18.06 84.7 18.06 84.52ZM13.16 82.56C13.16 82.22 13.43 81.95 13.76 81.95C14.1 81.95 14.37 82.22 14.37 82.56C14.37 82.89 14.1 83.16 13.76 83.16C13.43 83.16 13.16 82.89 13.16 82.56ZM16.43 81.83C16.43 81.49 16.7 81.23 17.03 81.23C17.36 81.23 17.64 81.49 17.64 81.83C17.64 82.16 17.36 82.44 17.03 82.44C16.7 82.44 16.43 82.16 16.43 81.83ZM12.43 80.41C12.43 80.22 12.58 80.07 12.77 80.07C12.95 80.07 13.1 80.22 13.1 80.41C13.1 80.59 12.95 80.74 12.77 80.74C12.58 80.74 12.43 80.59 12.43 80.41ZM13.95 79.86C13.95 79.68 14.1 79.53 14.28 79.53C14.46 79.53 14.61 79.68 14.61 79.86C14.61 80.05 14.46 80.19 14.28 80.19C14.1 80.19 13.95 80.05 13.95 79.86ZM19.39 78.87C19.39 78.53 19.66 78.26 19.99 78.26C20.33 78.26 20.6 78.53 20.6 78.87C20.6 79.2 20.33 79.47 19.99 79.47C19.66 79.47 19.39 79.2 19.39 78.87ZM21.08 78.11C21.08 77.92 21.23 77.78 21.41 77.78C21.6 77.78 21.75 77.92 21.75 78.11C21.75 78.29 21.6 78.44 21.41 78.44C21.23 78.44 21.08 78.29 21.08 78.11ZM12.49 77.18C12.49 76.84 12.76 76.57 13.1 76.57C13.43 76.57 13.71 76.84 13.71 77.18C13.71 77.51 13.43 77.78 13.1 77.78C12.76 77.78 12.49 77.51 12.49 77.18ZM13.88 75.41C13.88 75.08 14.16 74.81 14.49 74.81C14.83 74.81 15.09 75.08 15.09 75.41C15.09 75.75 14.83 76.02 14.49 76.02C14.16 76.02 13.88 75.75 13.88 75.41ZM21.99 75.45C21.99 75.27 22.14 75.12 22.33 75.12C22.51 75.12 22.66 75.27 22.66 75.45C22.66 75.63 22.51 75.78 22.33 75.78C22.14 75.78 21.99 75.63 21.99 75.45ZM26.1 74.63C26.1 74.3 26.37 74.03 26.71 74.03C27.04 74.03 27.32 74.3 27.32 74.63C27.32 74.96 27.04 75.24 26.71 75.24C26.37 75.24 26.1 74.96 26.1 74.63ZM19.63 73.91C19.63 73.57 19.91 73.3 20.24 73.3C20.57 73.3 20.84 73.57 20.84 73.91C20.84 74.24 20.57 74.51 20.24 74.51C19.91 74.51 19.63 74.24 19.63 73.91ZM22.61 74.36C22.59 74.36 22.96 74.06 23.82 73.43C24.3 73.08 24.76 72.71 25.27 72.4C26.38 71.74 27.5 71.07 28.69 70.54C29.54 70.16 30.39 69.77 31.25 69.44C31.86 69.2 32.46 68.95 33.07 68.72L33.86 68.42C36.24 67.51 35.62 67.87 33.23 68.78L32.46 69.07C31.85 69.31 31.24 69.55 30.64 69.79C30.1 70 29.57 70.23 29.04 70.47C29.36 70.48 29.61 70.74 29.61 71.06C29.61 71.39 29.34 71.67 29.01 71.67C28.67 71.67 28.41 71.39 28.41 71.06C28.41 70.91 28.46 70.78 28.55 70.68L28.08 70.88C27.41 71.15 26.08 71.93 25.87 72.06C25.37 72.36 24.91 72.73 24.43 73.08C23.32 73.9 22.64 74.37 22.61 74.36L22.61 74.36ZM13.58 73.12C13.58 72.78 13.85 72.52 14.19 72.52C14.52 72.52 14.8 72.78 14.8 73.12C14.8 73.45 14.52 73.73 14.19 73.73C13.85 73.73 13.58 73.45 13.58 73.12ZM27.07 72.73C27.07 72.54 27.22 72.4 27.4 72.4C27.59 72.4 27.73 72.54 27.73 72.73C27.73 72.91 27.59 73.06 27.4 73.06C27.22 73.06 27.07 72.91 27.07 72.73ZM15.82 71.6C15.82 71.27 16.09 71 16.43 71C16.76 71 17.03 71.27 17.03 71.6C17.03 71.94 16.76 72.21 16.43 72.21C16.09 72.21 15.82 71.94 15.82 71.6ZM19.09 71.43C19.09 71.09 19.36 70.82 19.7 70.82C20.03 70.82 20.3 71.09 20.3 71.43C20.3 71.76 20.03 72.03 19.7 72.03C19.36 72.03 19.09 71.76 19.09 71.43ZM11.16 71.22C11.16 71.03 11.31 70.88 11.49 70.88C11.68 70.88 11.83 71.03 11.83 71.22C11.83 71.4 11.68 71.55 11.49 71.55C11.31 71.55 11.16 71.4 11.16 71.22ZM32.27 70.06C32.27 69.88 32.42 69.73 32.61 69.73C32.79 69.73 32.94 69.88 32.94 70.06C32.94 70.25 32.79 70.4 32.61 70.4C32.42 70.4 32.27 70.25 32.27 70.06ZM24.77 69.73C24.77 69.4 25.05 69.13 25.38 69.13C25.71 69.13 25.98 69.4 25.98 69.73C25.98 70.06 25.71 70.34 25.38 70.34C25.05 70.34 24.77 70.06 24.77 69.73ZM36.06 69.79C35.87 69.79 35.72 69.65 35.72 69.46C35.72 69.4 35.74 69.34 35.77 69.29C35.72 69.3 35.66 69.31 35.6 69.31C35.27 69.31 34.99 69.04 34.99 68.71C34.99 68.37 35.27 68.1 35.6 68.1C35.94 68.1 36.2 68.37 36.2 68.71C36.2 68.87 36.14 69.02 36.03 69.13L36.06 69.13C36.24 69.13 36.39 69.28 36.39 69.46C36.39 69.65 36.24 69.79 36.06 69.79L36.06 69.79ZM37.53 67.79C37.53 67.46 37.81 67.19 38.14 67.19C38.47 67.19 38.75 67.46 38.75 67.79C38.75 68.13 38.47 68.4 38.14 68.4C37.81 68.4 37.53 68.13 37.53 67.79ZM16.91 67.79C16.91 67.46 17.18 67.19 17.52 67.19C17.85 67.19 18.12 67.46 18.12 67.79C18.12 68.13 17.85 68.4 17.52 68.4C17.18 68.4 16.91 68.13 16.91 67.79ZM21.69 67.74C21.69 67.4 21.96 67.13 22.29 67.13C22.62 67.13 22.9 67.4 22.9 67.74C22.9 68.07 22.62 68.34 22.29 68.34C21.96 68.34 21.69 68.07 21.69 67.74ZM39.35 67.95C39.35 67.77 39.5 67.62 39.68 67.62C39.87 67.62 40.01 67.76 40.01 67.95C40.01 68.13 39.87 68.28 39.68 68.28C39.5 68.28 39.35 68.13 39.35 67.95ZM26.35 67.52C26.35 67.34 26.5 67.19 26.68 67.19C26.86 67.19 27.01 67.34 27.01 67.52C27.01 67.71 26.86 67.86 26.68 67.86C26.5 67.86 26.35 67.71 26.35 67.52ZM21.14 67.46C21.14 67.46 21.14 67.46 21.15 67.46C21.14 67.46 21.14 67.46 21.14 67.46L21.14 67.46ZM21.15 67.46C21.18 67.42 21.21 67.38 21.25 67.33C21.86 66.63 22.5 65.97 23.15 65.3C23.07 65.28 22.99 65.23 22.95 65.16C22.52 65.62 22.11 66.1 21.75 66.61C21.54 66.89 21.34 67.17 21.15 67.46ZM32.65 66.55C32.66 66.54 32.66 66.54 32.67 66.54C32.66 66.54 32.66 66.54 32.65 66.55L32.65 66.55ZM32.67 66.54C33.64 65.98 34.62 65.43 35.6 64.88C35.72 64.82 35.91 64.71 36.07 64.62C35.83 64.54 35.66 64.31 35.66 64.05C35.66 63.71 35.93 63.44 36.27 63.44C36.6 63.44 36.87 63.71 36.87 64.05C36.87 64.09 36.86 64.14 36.85 64.18L38.93 63.01C38.24 63.41 37.54 63.81 36.85 64.2C36.78 64.46 36.55 64.65 36.27 64.65C36.21 64.65 36.15 64.64 36.1 64.63C35.6 64.9 35.1 65.18 34.61 65.45C33.91 65.84 33.25 66.21 32.67 66.54ZM40.08 66.13C40.08 65.95 40.23 65.8 40.41 65.8C40.59 65.8 40.74 65.95 40.74 66.13C40.74 66.32 40.59 66.46 40.41 66.46C40.23 66.46 40.08 66.32 40.08 66.13ZM17.27 65.56C16.94 65.56 16.67 65.28 16.67 64.95C16.67 64.62 16.94 64.35 17.27 64.35C17.38 64.35 17.49 64.38 17.57 64.43C17.58 64.25 17.72 64.1 17.91 64.1C18.09 64.1 18.24 64.26 18.24 64.44C18.24 64.63 18.09 64.77 17.91 64.77C17.88 64.77 17.86 64.77 17.84 64.77C17.86 64.83 17.88 64.89 17.88 64.95C17.88 65.28 17.6 65.56 17.27 65.56L17.27 65.56ZM14.97 65.16C14.97 64.98 15.12 64.83 15.3 64.83C15.49 64.83 15.64 64.98 15.64 65.16C15.64 65.35 15.49 65.5 15.3 65.5C15.12 65.5 14.97 65.35 14.97 65.16ZM18.9 62.6C18.9 62.26 19.18 61.99 19.51 61.99C19.85 61.99 20.11 62.26 20.11 62.6C20.11 62.93 19.85 63.2 19.51 63.2C19.18 63.2 18.9 62.93 18.9 62.6ZM44.74 62.75C44.74 62.56 44.89 62.41 45.07 62.41C45.25 62.41 45.4 62.56 45.4 62.75C45.4 62.93 45.25 63.08 45.07 63.08C44.89 63.08 44.74 62.93 44.74 62.75ZM39.17 62.87L39.2 62.85C39.19 62.86 39.18 62.87 39.17 62.87L39.17 62.87ZM39.2 62.85C40.67 61.99 42.08 61.02 43.44 59.99C44.48 59.18 45.48 58.31 46.44 57.41C46.44 57.4 46.45 57.38 46.45 57.37C45.97 57.79 45.47 58.17 44.97 58.57C43.06 60.09 42.46 60.44 44.37 58.91C44.92 58.48 45.47 58.05 46 57.59C46.72 56.96 47.44 56.33 48.16 55.7C49.43 54.34 50.54 52.85 51.59 51.32C52.84 49.55 53.76 47.59 54.51 45.56C55.3 43.35 55.62 41.03 55.79 38.71C55.99 36.63 55.82 34.56 55.55 32.49C55.06 28.64 56.01 28.09 56.51 31.95C56.77 34.01 56.96 36.08 56.75 38.16C56.6 40.17 56.34 42.18 55.76 44.12C55.87 44.02 56.01 43.96 56.17 43.96C56.5 43.96 56.77 44.23 56.77 44.57C56.77 44.9 56.5 45.18 56.17 45.18C55.88 45.18 55.63 44.96 55.58 44.69C55.54 44.79 55.51 44.9 55.48 45C54.73 47.03 53.81 48.98 52.56 50.75C51.86 51.77 51.14 52.76 50.37 53.72C50.92 53.21 51.48 52.71 52.02 52.19L52.7 51.5C52.75 51.35 52.86 51.24 53 51.17C53.44 50.68 53.87 50.17 54.23 49.61C54.8 48.77 55.37 47.93 55.92 47.07C56.46 46.22 57 45.36 57.52 44.5C57.97 43.75 58.42 43 58.82 42.23C59.04 41.76 59.28 41.3 59.44 40.8C59.51 40.61 59.56 40.42 59.65 40.24C59.88 39.78 60.08 39.42 60.26 39.12C60.06 39.03 59.92 38.82 59.92 38.58C59.92 38.26 60.17 38 60.49 37.98C60.4 37.92 60.34 37.82 60.34 37.7C60.34 37.52 60.49 37.37 60.67 37.37C60.86 37.37 61.01 37.52 61.01 37.7C61.01 37.86 60.9 37.98 60.76 38.02C60.98 38.11 61.13 38.33 61.13 38.58C61.13 38.88 60.91 39.13 60.62 39.17C60.53 39.37 60.41 39.61 60.27 39.88C60.18 40.06 60.13 40.25 60.06 40.44C59.9 40.94 59.66 41.4 59.44 41.87L59.2 42.32C59.3 42.21 59.45 42.15 59.61 42.15C59.95 42.15 60.22 42.42 60.22 42.75C60.22 43.08 59.95 43.36 59.61 43.36C59.28 43.36 59.01 43.08 59.01 42.75C59.01 42.71 59.02 42.67 59.03 42.63C58.74 43.14 58.43 43.64 58.13 44.14C57.61 45.01 57.07 45.86 56.52 46.72C55.98 47.57 55.41 48.42 54.84 49.26C54.41 49.93 53.88 50.53 53.33 51.11C53.63 51.14 53.87 51.4 53.87 51.71C53.87 52.04 53.6 52.31 53.26 52.31C52.96 52.31 52.7 52.09 52.66 51.79L52.62 51.84C51.67 52.75 50.7 53.61 49.72 54.49L49.67 54.54C49.36 54.9 49.03 55.25 48.7 55.59C48.24 56.06 47.77 56.51 47.29 56.96C47.5 57.06 47.64 57.27 47.64 57.51C47.64 57.85 47.37 58.11 47.04 58.11C46.77 58.11 46.55 57.95 46.47 57.72C45.81 58.31 45.12 58.87 44.42 59.42C43.02 60.47 41.59 61.47 40.07 62.35L39.2 62.85ZM35.48 62.38C35.48 62.2 35.63 62.05 35.82 62.05C36 62.05 36.15 62.2 36.15 62.38C36.15 62.57 36 62.72 35.82 62.72C35.63 62.72 35.48 62.57 35.48 62.38ZM41.87 62.47L41.8 62.47C41.62 62.47 41.47 62.32 41.47 62.14C41.47 61.95 41.62 61.8 41.8 61.8C41.99 61.8 42.14 61.95 42.14 62.14C42.14 62.3 42.02 62.44 41.87 62.47ZM27.86 61.68C27.86 61.35 28.13 61.08 28.46 61.08C28.8 61.08 29.07 61.35 29.07 61.68C29.07 62.02 28.8 62.29 28.46 62.29C28.13 62.29 27.86 62.02 27.86 61.68ZM29.98 61.78C29.98 61.59 30.12 61.44 30.31 61.44C30.49 61.44 30.64 61.59 30.64 61.78C30.64 61.96 30.49 62.11 30.31 62.11C30.12 62.11 29.98 61.96 29.98 61.78ZM38.75 60.26C38.75 60.08 38.9 59.93 39.08 59.93C39.27 59.93 39.41 60.08 39.41 60.26C39.41 60.45 39.27 60.6 39.08 60.6C38.9 60.6 38.75 60.45 38.75 60.26ZM41.47 59.81C41.47 59.48 41.74 59.2 42.07 59.2C42.41 59.2 42.68 59.48 42.68 59.81C42.68 60.15 42.41 60.42 42.07 60.42C41.74 60.42 41.47 60.15 41.47 59.81ZM20.11 59.57C20.11 59.24 20.39 58.96 20.72 58.96C21.05 58.96 21.33 59.24 21.33 59.57C21.33 59.9 21.05 60.17 20.72 60.17C20.39 60.17 20.11 59.9 20.11 59.57ZM49.03 59.24C49.03 59.05 49.18 58.91 49.36 58.91C49.54 58.91 49.69 59.05 49.69 59.24C49.69 59.42 49.54 59.57 49.36 59.57C49.18 59.57 49.03 59.42 49.03 59.24ZM27.44 58.84C27.44 58.51 27.7 58.24 28.04 58.24C28.37 58.24 28.65 58.51 28.65 58.84C28.65 59.18 28.37 59.45 28.04 59.45C27.7 59.45 27.44 59.18 27.44 58.84ZM18.66 58.09C18.66 57.9 18.81 57.75 19 57.75C19.18 57.75 19.33 57.9 19.33 58.09C19.33 58.27 19.18 58.42 19 58.42C18.81 58.42 18.66 58.27 18.66 58.09ZM42.8 57.75C42.8 57.42 43.07 57.15 43.4 57.15C43.74 57.15 44.01 57.42 44.01 57.75C44.01 58.09 43.74 58.36 43.4 58.36C43.07 58.36 42.8 58.09 42.8 57.75ZM21.69 57.75C21.35 57.75 21.08 57.49 21.08 57.15C21.08 56.92 21.22 56.72 21.41 56.62C21.39 56.59 21.38 56.55 21.38 56.52C21.38 56.33 21.53 56.18 21.72 56.18C21.9 56.18 22.05 56.33 22.05 56.52C22.05 56.56 22.05 56.61 22.03 56.65C22.19 56.76 22.29 56.94 22.29 57.15C22.29 57.49 22.02 57.75 21.69 57.75L21.69 57.75ZM34.15 56.61C34.15 56.27 34.42 56 34.75 56C35.09 56 35.36 56.27 35.36 56.61C35.36 56.94 35.09 57.21 34.75 57.21C34.42 57.21 34.15 56.94 34.15 56.61ZM23.61 56.99C23.49 57 23.47 56.49 23.68 55.39C23.91 54.12 24.14 52.85 24.28 51.57C24.44 49.99 24.54 48.4 24.48 46.82C24.42 45.63 24.34 44.45 24.14 43.27C24.01 42.48 23.88 41.69 23.68 40.91C23.58 40.61 23.53 40.31 23.39 40.02C22.31 37.71 22.97 37.33 24.01 39.66C24.14 39.95 24.21 40.26 24.3 40.56C24.5 41.34 24.62 42.13 24.74 42.92C24.95 44.09 25.02 45.28 25.08 46.47C25.13 48.06 25.03 49.65 24.87 51.23C24.73 52.51 24.5 53.78 24.26 55.05C24.03 56.29 23.75 56.98 23.61 56.99L23.61 56.99ZM36.2 56.64C36.2 56.45 36.35 56.3 36.54 56.3C36.72 56.3 36.87 56.45 36.87 56.64C36.87 56.82 36.72 56.97 36.54 56.97C36.35 56.97 36.2 56.82 36.2 56.64ZM26.28 56.4C26.28 56.21 26.43 56.06 26.62 56.06C26.8 56.06 26.95 56.21 26.95 56.4C26.95 56.58 26.8 56.73 26.62 56.73C26.43 56.73 26.28 56.58 26.28 56.4ZM29.98 55.03C29.98 54.7 30.25 54.43 30.58 54.43C30.92 54.43 31.18 54.7 31.18 55.03C31.18 55.37 30.92 55.64 30.58 55.64C30.25 55.64 29.98 55.37 29.98 55.03ZM46.85 54.55C46.85 54.22 47.13 53.94 47.46 53.94C47.79 53.94 48.06 54.22 48.06 54.55C48.06 54.88 47.79 55.15 47.46 55.15C47.13 55.15 46.85 54.88 46.85 54.55ZM53.93 53.43C53.93 53.24 54.08 53.09 54.26 53.09C54.44 53.09 54.59 53.24 54.59 53.43C54.59 53.61 54.44 53.76 54.26 53.76C54.08 53.76 53.93 53.61 53.93 53.43ZM42.14 50.32C42.14 49.98 42.4 49.71 42.74 49.71C43.07 49.71 43.34 49.98 43.34 50.32C43.34 50.65 43.07 50.92 42.74 50.92C42.4 50.92 42.14 50.65 42.14 50.32ZM48.85 49.62C48.85 49.43 48.99 49.28 49.18 49.28C49.36 49.28 49.52 49.43 49.52 49.62C49.52 49.8 49.36 49.95 49.18 49.95C48.99 49.95 48.85 49.8 48.85 49.62ZM19.15 48.92C19.15 48.59 19.42 48.32 19.75 48.32C20.09 48.32 20.36 48.59 20.36 48.92C20.36 49.26 20.09 49.53 19.75 49.53C19.42 49.53 19.15 49.26 19.15 48.92ZM34.45 48.68C34.45 48.35 34.72 48.07 35.06 48.07C35.39 48.07 35.66 48.35 35.66 48.68C35.66 49.02 35.39 49.28 35.06 49.28C34.72 49.28 34.45 49.02 34.45 48.68ZM58.04 48.23C58.04 48.05 58.19 47.9 58.38 47.9C58.56 47.9 58.71 48.05 58.71 48.23C58.71 48.41 58.56 48.56 58.38 48.56C58.19 48.56 58.04 48.41 58.04 48.23ZM57.01 47.47C57.01 47.14 57.29 46.87 57.62 46.87C57.95 46.87 58.23 47.14 58.23 47.47C58.23 47.81 57.95 48.07 57.62 48.07C57.29 48.07 57.01 47.81 57.01 47.47ZM38.2 47.29C38.2 46.96 38.47 46.68 38.81 46.68C39.14 46.68 39.41 46.96 39.41 47.29C39.41 47.62 39.14 47.9 38.81 47.9C38.47 47.9 38.2 47.62 38.2 47.29ZM28.22 46.63C28.22 46.29 28.49 46.02 28.82 46.02C29.16 46.02 29.43 46.29 29.43 46.63C29.43 46.96 29.16 47.23 28.82 47.23C28.49 47.23 28.22 46.96 28.22 46.63ZM22.17 44.29C22.17 44.11 22.32 43.96 22.5 43.96C22.69 43.96 22.83 44.11 22.83 44.29C22.83 44.48 22.69 44.63 22.5 44.63C22.32 44.63 22.17 44.48 22.17 44.29ZM25.38 43.9C25.38 43.57 25.65 43.3 25.98 43.3C26.31 43.3 26.59 43.57 26.59 43.9C26.59 44.24 26.31 44.5 25.98 44.5C25.65 44.5 25.38 44.24 25.38 43.9ZM52.05 43.72C52.05 43.39 52.32 43.12 52.66 43.12C52.99 43.12 53.26 43.39 53.26 43.72C53.26 44.05 52.99 44.33 52.66 44.33C52.32 44.33 52.05 44.05 52.05 43.72ZM29.37 43.39C29.37 43.2 29.52 43.05 29.71 43.05C29.89 43.05 30.04 43.2 30.04 43.39C30.04 43.57 29.89 43.72 29.71 43.72C29.52 43.72 29.37 43.57 29.37 43.39ZM37.48 40.57C37.48 40.24 37.75 39.97 38.08 39.97C38.42 39.97 38.69 40.24 38.69 40.57C38.69 40.91 38.42 41.18 38.08 41.18C37.75 41.18 37.48 40.91 37.48 40.57ZM44.62 40.52C44.62 40.18 44.88 39.91 45.22 39.91C45.55 39.91 45.83 40.18 45.83 40.52C45.83 40.85 45.55 41.12 45.22 41.12C44.88 41.12 44.62 40.85 44.62 40.52ZM57.19 39.85C57.19 39.52 57.47 39.24 57.8 39.24C58.14 39.24 58.4 39.52 58.4 39.85C58.4 40.19 58.14 40.45 57.8 40.45C57.47 40.45 57.19 40.19 57.19 39.85ZM26.95 39.36C26.95 39.03 27.22 38.76 27.56 38.76C27.89 38.76 28.16 39.03 28.16 39.36C28.16 39.7 27.89 39.97 27.56 39.97C27.22 39.97 26.95 39.7 26.95 39.36ZM42.31 39.31C42.31 38.97 42.59 38.7 42.92 38.7C43.25 38.7 43.53 38.97 43.53 39.31C43.53 39.64 43.25 39.91 42.92 39.91C42.59 39.91 42.31 39.64 42.31 39.31ZM30.46 38.25C30.46 38.06 30.61 37.92 30.8 37.92C30.98 37.92 31.13 38.06 31.13 38.25C31.13 38.43 30.98 38.58 30.8 38.58C30.61 38.58 30.46 38.43 30.46 38.25ZM21.75 37.28C21.75 37.1 21.89 36.95 22.08 36.95C22.26 36.95 22.42 37.1 22.42 37.28C22.42 37.46 22.26 37.61 22.08 37.61C21.89 37.61 21.75 37.46 21.75 37.28ZM43.71 37.16C43.71 36.97 43.85 36.83 44.04 36.83C44.22 36.83 44.37 36.97 44.37 37.16C44.37 37.34 44.22 37.49 44.04 37.49C43.85 37.49 43.71 37.34 43.71 37.16ZM53.14 36.34C53.14 36 53.41 35.74 53.74 35.74C54.08 35.74 54.35 36 54.35 36.34C54.35 36.67 54.08 36.95 53.74 36.95C53.41 36.95 53.14 36.67 53.14 36.34ZM37.36 36.37C37.36 36.19 37.5 36.04 37.69 36.04C37.87 36.04 38.02 36.19 38.02 36.37C38.02 36.56 37.87 36.71 37.69 36.71C37.5 36.71 37.36 36.56 37.36 36.37ZM61.13 35.83C61.13 35.65 61.27 35.5 61.46 35.5C61.64 35.5 61.79 35.65 61.79 35.83C61.79 36.01 61.64 36.16 61.46 36.16C61.27 36.16 61.13 36.01 61.13 35.83ZM37.84 35.43C37.84 35.1 38.11 34.83 38.45 34.83C38.78 34.83 39.05 35.1 39.05 35.43C39.05 35.77 38.78 36.04 38.45 36.04C38.11 36.04 37.84 35.77 37.84 35.43ZM47.52 35.25C47.52 34.92 47.79 34.65 48.12 34.65C48.46 34.65 48.73 34.92 48.73 35.25C48.73 35.58 48.46 35.86 48.12 35.86C47.79 35.86 47.52 35.58 47.52 35.25ZM51.93 34.68C51.93 34.49 52.08 34.34 52.27 34.34C52.45 34.34 52.6 34.49 52.6 34.68C52.6 34.86 52.45 35.01 52.27 35.01C52.08 35.01 51.93 34.86 51.93 34.68ZM60.7 34.22C60.7 33.89 60.98 33.62 61.31 33.62C61.64 33.62 61.91 33.89 61.91 34.22C61.91 34.56 61.64 34.83 61.31 34.83C60.98 34.83 60.7 34.56 60.7 34.22ZM29.22 34.83C29.03 34.83 28.89 34.68 28.89 34.49C28.89 34.31 29.03 34.16 29.22 34.16C29.4 34.16 29.55 34.31 29.55 34.49C29.55 34.65 29.44 34.79 29.29 34.83L29.22 34.83ZM56.77 33.53C56.77 33.35 56.92 33.19 57.1 33.19C57.29 33.19 57.44 33.35 57.44 33.53C57.44 33.72 57.29 33.86 57.1 33.86C56.92 33.86 56.77 33.72 56.77 33.53ZM32.27 32.65C32.27 32.31 32.55 32.05 32.88 32.05C33.21 32.05 33.48 32.31 33.48 32.65C33.48 32.98 33.21 33.26 32.88 33.26C32.55 33.26 32.27 32.98 32.27 32.65ZM53.02 32.44C53.02 32.26 53.17 32.1 53.36 32.1C53.54 32.1 53.69 32.26 53.69 32.44C53.69 32.63 53.54 32.78 53.36 32.78C53.17 32.78 53.02 32.63 53.02 32.44ZM43.4 31.93C43.07 31.93 42.8 31.65 42.8 31.32C42.8 30.98 43.07 30.72 43.4 30.72C43.57 30.72 43.73 30.79 43.84 30.9C43.88 30.76 44 30.65 44.16 30.65C44.34 30.65 44.49 30.8 44.49 30.99C44.49 31.17 44.34 31.32 44.16 31.32C44.1 31.32 44.05 31.31 44 31.28C44 31.3 44.01 31.31 44.01 31.32C44.01 31.65 43.74 31.93 43.4 31.93ZM49.57 30.87C49.57 30.68 49.72 30.53 49.91 30.53C50.09 30.53 50.24 30.68 50.24 30.87C50.24 31.05 50.09 31.2 49.91 31.2C49.72 31.2 49.57 31.05 49.57 30.87ZM59.86 30.75C59.86 30.56 60.01 30.41 60.19 30.41C60.38 30.41 60.53 30.56 60.53 30.75C60.53 30.93 60.38 31.08 60.19 31.08C60.01 31.08 59.86 30.93 59.86 30.75ZM57.01 30.41C57.01 30.08 57.29 29.81 57.62 29.81C57.95 29.81 58.23 30.08 58.23 30.41C58.23 30.75 57.95 31.01 57.62 31.01C57.29 31.01 57.01 30.75 57.01 30.41ZM31.73 30.23C31.73 29.9 32 29.63 32.34 29.63C32.67 29.63 32.94 29.9 32.94 30.23C32.94 30.56 32.67 30.84 32.34 30.84C32 30.84 31.73 30.56 31.73 30.23ZM37.48 30.17C37.25 30.17 37.07 30.05 36.96 29.87C36.87 29.81 36.81 29.71 36.81 29.59C36.81 29.5 36.85 29.42 36.91 29.36C37 29.13 37.22 28.96 37.48 28.96C37.81 28.96 38.08 29.23 38.08 29.57C38.08 29.9 37.81 30.17 37.48 30.17L37.48 30.17ZM50.42 29.02C50.42 28.69 50.69 28.42 51.02 28.42C51.36 28.42 51.63 28.69 51.63 29.02C51.63 29.35 51.36 29.63 51.02 29.63C50.69 29.63 50.42 29.35 50.42 29.02ZM28.1 28.42C28.1 28.09 28.37 27.81 28.7 27.81C29.04 27.81 29.31 28.09 29.31 28.42C29.31 28.75 29.04 29.02 28.7 29.02C28.37 29.02 28.1 28.75 28.1 28.42ZM38.57 26.82C38.57 26.63 38.71 26.48 38.9 26.48C39.08 26.48 39.23 26.63 39.23 26.82C39.23 27 39.08 27.15 38.9 27.15C38.71 27.15 38.57 27 38.57 26.82ZM58.95 26.69C58.95 26.51 59.1 26.36 59.28 26.36C59.46 26.36 59.61 26.51 59.61 26.69C59.61 26.88 59.46 27.03 59.28 27.03C59.1 27.03 58.95 26.88 58.95 26.69ZM31.3 26.63C31.3 26.45 31.45 26.3 31.64 26.3C31.82 26.3 31.97 26.45 31.97 26.63C31.97 26.81 31.82 26.96 31.64 26.96C31.45 26.96 31.3 26.81 31.3 26.63ZM54.71 25.24C54.71 25.05 54.86 24.91 55.05 24.91C55.23 24.91 55.38 25.05 55.38 25.24C55.38 25.42 55.23 25.57 55.05 25.57C54.86 25.57 54.71 25.42 54.71 25.24ZM55.75 24.48C55.75 24.15 56.01 23.88 56.35 23.88C56.68 23.88 56.95 24.15 56.95 24.48C56.95 24.82 56.68 25.09 56.35 25.09C56.01 25.09 55.75 24.82 55.75 24.48ZM34.27 24.03C34.27 23.85 34.42 23.7 34.61 23.7C34.79 23.7 34.94 23.85 34.94 24.03C34.94 24.21 34.79 24.36 34.61 24.36C34.42 24.36 34.27 24.21 34.27 24.03ZM36.75 23.52C36.75 23.19 37.02 22.91 37.36 22.91C37.69 22.91 37.96 23.19 37.96 23.52C37.96 23.85 37.69 24.12 37.36 24.12C37.02 24.12 36.75 23.85 36.75 23.52ZM31.54 22.55C31.54 22.22 31.82 21.94 32.15 21.94C32.49 21.94 32.76 22.22 32.76 22.55C32.76 22.89 32.49 23.15 32.15 23.15C31.82 23.15 31.54 22.89 31.54 22.55ZM49.27 22.64C49.27 22.45 49.42 22.3 49.6 22.3C49.79 22.3 49.93 22.45 49.93 22.64C49.93 22.82 49.79 22.98 49.6 22.98C49.42 22.98 49.27 22.82 49.27 22.64ZM41.17 22.3C41.17 21.97 41.43 21.7 41.77 21.7C42.1 21.7 42.38 21.97 42.38 22.3C42.38 22.64 42.1 22.91 41.77 22.91C41.43 22.91 41.17 22.64 41.17 22.3ZM51.87 21.97C51.87 21.79 52.02 21.64 52.2 21.64C52.39 21.64 52.54 21.79 52.54 21.97C52.54 22.16 52.39 22.3 52.2 22.3C52.02 22.3 51.87 22.16 51.87 21.97ZM40.2 20.59C40.2 20.4 40.35 20.25 40.53 20.25C40.71 20.25 40.86 20.4 40.86 20.59C40.86 20.77 40.71 20.92 40.53 20.92C40.35 20.92 40.2 20.77 40.2 20.59ZM26.95 20.13C26.95 19.79 27.22 19.53 27.56 19.53C27.89 19.53 28.16 19.79 28.16 20.13C28.16 20.46 27.89 20.73 27.56 20.73C27.22 20.73 26.95 20.46 26.95 20.13ZM50 18.95C50 18.77 50.15 18.62 50.33 18.62C50.51 18.62 50.66 18.77 50.66 18.95C50.66 19.14 50.51 19.29 50.33 19.29C50.15 19.29 50 19.14 50 18.95ZM51.87 18.25C51.87 17.92 52.15 17.65 52.48 17.65C52.81 17.65 53.08 17.92 53.08 18.25C53.08 18.59 52.81 18.86 52.48 18.86C52.15 18.86 51.87 18.59 51.87 18.25ZM26.4 17.62C26.4 17.43 26.55 17.28 26.74 17.28C26.92 17.28 27.07 17.43 27.07 17.62C27.07 17.8 26.92 17.95 26.74 17.95C26.55 17.95 26.4 17.8 26.4 17.62ZM52.18 16.35C52.18 16.17 52.32 16.02 52.51 16.02C52.69 16.02 52.84 16.17 52.84 16.35C52.84 16.54 52.69 16.68 52.51 16.68C52.32 16.68 52.18 16.53 52.18 16.35ZM35.54 15.44C35.54 15.26 35.69 15.11 35.87 15.11C36.06 15.11 36.2 15.26 36.2 15.44C36.2 15.62 36.06 15.77 35.87 15.77C35.69 15.77 35.54 15.62 35.54 15.44ZM27.01 13.81C27.01 13.62 27.16 13.47 27.35 13.47C27.53 13.47 27.68 13.62 27.68 13.81C27.68 13.99 27.53 14.14 27.35 14.14C27.16 14.14 27.01 13.99 27.01 13.81ZM28.7 12.6C28.7 12.41 28.85 12.26 29.03 12.26C29.22 12.26 29.37 12.41 29.37 12.6C29.37 12.78 29.22 12.93 29.03 12.93C28.85 12.93 28.7 12.78 28.7 12.6Z" />
			<path class="shp9" d="M22.21 37.63C22.21 37.63 24.49 41.06 27.17 44.09C29.85 47.12 32.91 49.74 32.91 49.74C32.91 49.74 29.87 52.35 27.22 55.36C24.56 58.37 22.3 61.79 22.3 61.79C22.3 61.79 19.99 58.35 17.3 55.31C14.6 52.27 11.52 49.63 11.52 49.63C11.52 49.63 14.58 47.04 17.25 44.03C19.92 41.03 22.21 37.63 22.21 37.63L22.21 37.63Z" />
		</g>
		<path fill-rule="evenodd" class="shp10" d="M54.02 28.09C54.03 28.09 54.04 28.11 54.04 28.11L54.61 31.96L54.58 33.08C54.67 33.67 54.42 34.21 54.14 34.32L54.45 34.37C58.89 35.13 60.52 38.81 60.84 40.11C61.17 41.41 61.02 42.73 60.94 42.47C60.87 42.2 60.37 41.47 60.48 41.81C60.6 42.16 60.71 42.69 60.94 43C61.17 43.31 61.06 43.35 60.94 43.65C60.83 43.96 60.65 43.93 60.79 44.41L61.05 44.97C61.21 44.9 61.32 44.82 61.39 44.66C61.45 44.53 61.5 44.51 61.54 44.48C61.47 44.56 61.37 44.72 61.4 44.77C61.46 44.68 61.59 44.62 61.66 44.59C61.58 44.63 61.5 44.74 61.49 44.75C61.43 44.84 61.53 44.91 61.66 44.85C61.8 44.8 61.5 44.99 61.4 45.02C61.31 45.05 61.25 45.17 61.37 45.17C61.5 45.17 61.53 45.13 61.64 45.2C61.75 45.27 61.47 45.17 61.32 45.21C61.27 45.22 61.22 45.23 61.17 45.22C61.34 45.53 61.49 45.67 61.84 45.93C62.41 46.33 63.31 47.09 63.74 47.47C64.17 47.85 64.98 48.42 65.07 48.88C65.15 49.34 64.93 49.83 64.47 50.18C64.01 50.53 63.28 50.77 63.17 50.96C63.06 51.15 62.84 51.5 62.93 52.13C63.01 52.75 63.06 52.88 63.06 53.16C63.06 53.43 62.6 53.73 62.63 53.83C62.66 53.94 63.06 54.13 63.09 54.43C63.12 54.73 62.98 55.13 62.84 55.21C62.71 55.3 62.47 55.43 62.44 56C62.41 56.57 62.52 56.73 62.79 57.43C63.06 58.14 63.04 58.92 62.55 59.57C62.06 60.22 61.3 60.33 60.79 60.39C60.27 60.44 56.84 60.55 56.32 60.87C55.81 61.2 54.72 62.74 53.72 64.2C52.72 65.66 50.53 69.18 50.47 69.56C50.42 69.94 50.85 70.35 51.42 71.84C51.99 73.33 53.45 75.82 54.34 77.31C55.24 78.8 61.82 88.84 61.82 90.9C61.82 92.95 48.28 91.44 42.43 82.02C36.58 72.6 30.84 75.84 31.28 74C31.71 72.16 34.2 69.45 34.74 68.8C35.28 68.15 35.93 67.4 36.48 67.61C37.02 67.83 37.88 64.91 39.18 63.61C40.48 62.31 41.24 62.09 41.67 61.33C42.11 60.57 42 60.79 41.35 60.58C40.7 60.36 40.48 59.49 40.27 58.84C40.05 58.19 40.05 56.89 37.99 56.03C35.94 55.16 34.2 51.8 34.53 47.69C34.85 43.57 36.26 39.78 37.23 39.13C38.21 38.48 37.99 37.51 39.51 36.97C39.95 36.81 40.18 36.7 40.35 36.59L40.18 36.62C39.88 36.67 39.42 36.22 39.32 35.58L38.92 34.48L38.58 32.28C38.58 32.28 38.58 32.26 38.6 32.25C38.62 32.24 38.67 32.28 38.79 32.53C38.94 32.82 39.34 33.52 39.6 33.96L42.06 33.55C42.06 33.55 42.05 33.28 42.04 32.93L41.7 32.97C41.62 32.98 41.53 32.95 41.48 32.88C41.43 32.82 41.42 32.73 41.45 32.65C41.48 32.57 41.56 32.52 41.64 32.51L42.03 32.46C42.03 31.94 42.05 31.44 42.16 31.42C42.26 31.4 42.44 31.89 42.61 32.38L42.95 32.34L42.96 32.34C43.09 32.32 43.2 32.42 43.22 32.55C43.23 32.68 43.13 32.79 43.01 32.8L42.74 32.83C42.84 33.16 42.91 33.42 42.91 33.42L46.12 32.89C46.12 32.89 46.11 32.61 46.11 32.25L45.75 32.29C45.66 32.31 45.57 32.27 45.52 32.2C45.46 32.13 45.45 32.03 45.48 31.95C45.52 31.86 45.6 31.81 45.69 31.8L46.11 31.75C46.13 31.19 46.17 30.63 46.32 30.61C46.46 30.59 46.7 31.12 46.9 31.65L47.29 31.61L47.31 31.6C47.44 31.6 47.56 31.7 47.57 31.83C47.58 31.96 47.48 32.08 47.35 32.1L47.07 32.13C47.18 32.45 47.26 32.7 47.26 32.7L50.39 32.19C50.39 32.19 50.37 31.9 50.36 31.53L49.95 31.58C49.87 31.6 49.78 31.56 49.73 31.5C49.68 31.43 49.67 31.34 49.7 31.26C49.74 31.18 49.81 31.13 49.89 31.12L50.35 31.06C50.35 30.57 50.38 30.09 50.48 30.08C50.58 30.06 50.75 30.51 50.91 30.99L51.2 30.95L51.21 30.95C51.34 30.94 51.46 31.03 51.47 31.16C51.48 31.29 51.39 31.4 51.26 31.41L51.05 31.44C51.15 31.78 51.23 32.05 51.23 32.05L53.81 31.62C53.92 31.11 53.87 28.73 53.91 28.42C53.95 28.14 53.99 28.09 54.02 28.09L54.02 28.09ZM61.58 44.44C61.57 44.46 61.56 44.47 61.54 44.48C61.57 44.44 61.59 44.42 61.58 44.44Z" />
		<path fill-rule="evenodd" class="shp11" d="M36.07 37.37L36.07 37.97L35.85 37.97C35.43 38 35.09 38 34.53 38C28.55 38 24.01 36.57 21.45 33.95L19.68 32.13C17.01 31.33 15.81 30.66 14.35 29.27C12.13 27.15 11 24.42 11 21.17C11 14.43 16.11 9.65 23.29 9.65C30.47 9.65 35.58 14.43 35.58 21.11C35.58 24.79 34.16 27.81 31.37 30C29.64 31.33 28.29 31.89 25.74 32.32C28.78 35.81 31.79 37.27 36.07 37.37M23.4 10.85C21.22 10.85 19.46 11.55 17.92 13.01C16.37 14.53 15.28 17.79 15.28 20.97C15.28 24.86 16.49 28.17 18.48 29.73C19.83 30.8 21.49 31.36 23.29 31.36C25.36 31.36 27.31 30.6 28.7 29.24C30.21 27.71 31.3 24.32 31.3 21.04C31.3 17.29 30.09 14.1 28.07 12.51C26.75 11.48 25.02 10.85 23.4 10.85L23.4 10.85Z" />
	</g>
</svg>