<svg xmlns="http://www.w3.org/2000/svg" viewBox="0 0 73 102" width="73" height="102">
	<defs>
		<filter x="-50%" y="-50%" width="200%" height="200%" id="flt1"> <feGaussianBlur stdDeviation="0.85" /> </filter>
		<linearGradient id="grd1" gradientUnits="userSpaceOnUse"  x1="41.377" y1="26.29" x2="43.522" y2="-90.093">
			<stop offset="0" stop-color="#f3f3f3"  />
			<stop offset="1" stop-color="#8f8f8f"  />
		</linearGradient>
		<radialGradient id="grd2" gradientUnits="userSpaceOnUse"  cx="10.53" cy="91.421" r="13.273">
			<stop offset="0" stop-color="#ffffff"  />
			<stop offset="1" stop-color="#ffffff" stop-opacity="0" />
		</radialGradient>
		<radialGradient id="grd3" gradientUnits="userSpaceOnUse"  cx="62.449" cy="12.364" r="14.639">
			<stop offset="0" stop-color="#ffffff"  />
			<stop offset="1" stop-color="#ffffff" stop-opacity="0" />
		</radialGradient>
		<linearGradient id="grd4" gradientUnits="userSpaceOnUse"  x1="-319.454" y1="90.433" x2="-319.454" y2="87.093">
			<stop offset="0" stop-color="#d90000"  />
			<stop offset="1" stop-color="#950000"  />
		</linearGradient>
		<linearGradient id="grd5" gradientUnits="userSpaceOnUse"  x1="-319.454" y1="14.253" x2="-319.454" y2="10.803">
			<stop offset="0" stop-color="#d90000"  />
			<stop offset="1" stop-color="#950000"  />
		</linearGradient>
		<radialGradient id="grd6" gradientUnits="userSpaceOnUse"  cx="18.119" cy="73.735" r="25.374">
			<stop offset="0" stop-color="#ffffff"  />
			<stop offset="1" stop-color="#ffffff" stop-opacity="0" />
		</radialGradient>
		<radialGradient id="grd7" gradientUnits="userSpaceOnUse"  cx="52.677" cy="77.45" r="9.813">
			<stop offset="0" stop-color="#ffffff"  />
			<stop offset="1" stop-color="#ffffff" stop-opacity="0" />
		</radialGradient>
		<linearGradient id="grd8" gradientUnits="userSpaceOnUse"  x1="-373.302" y1="80.863" x2="-373.302" y2="73.933">
			<stop offset="0" stop-color="#d90000"  />
			<stop offset="1" stop-color="#950000"  />
		</linearGradient>
		<radialGradient id="grd9" gradientUnits="userSpaceOnUse"  cx="21.428" cy="77.45" r="9.813">
			<stop offset="0" stop-color="#ffffff"  />
			<stop offset="1" stop-color="#ffffff" stop-opacity="0" />
		</radialGradient>
		<linearGradient id="grd10" gradientUnits="userSpaceOnUse"  x1="-404.551" y1="80.863" x2="-404.551" y2="73.933">
			<stop offset="0" stop-color="#d90000"  />
			<stop offset="1" stop-color="#950000"  />
		</linearGradient>
		<radialGradient id="grd11" gradientUnits="userSpaceOnUse"  cx="21.428" cy="23.99" r="9.813">
			<stop offset="0" stop-color="#ffffff"  />
			<stop offset="1" stop-color="#ffffff" stop-opacity="0" />
		</radialGradient>
		<linearGradient id="grd12" gradientUnits="userSpaceOnUse"  x1="-404.551" y1="27.403" x2="-404.551" y2="20.473">
			<stop offset="0" stop-color="#d90000"  />
			<stop offset="1" stop-color="#950000"  />
		</linearGradient>
		<radialGradient id="grd13" gradientUnits="userSpaceOnUse"  cx="52.677" cy="23.99" r="9.813">
			<stop offset="0" stop-color="#ffffff"  />
			<stop offset="1" stop-color="#ffffff" stop-opacity="0" />
		</radialGradient>
		<linearGradient id="grd14" gradientUnits="userSpaceOnUse"  x1="-373.302" y1="27.403" x2="-373.302" y2="20.473">
			<stop offset="0" stop-color="#d90000"  />
			<stop offset="1" stop-color="#950000"  />
		</linearGradient>
		<radialGradient id="grd15" gradientUnits="userSpaceOnUse"  cx="36.051" cy="50.72" r="9.813">
			<stop offset="0" stop-color="#ffffff"  />
			<stop offset="1" stop-color="#ffffff" stop-opacity="0" />
		</radialGradient>
		<linearGradient id="grd16" gradientUnits="userSpaceOnUse"  x1="-389.928" y1="54.133" x2="-389.928" y2="47.203">
			<stop offset="0" stop-color="#d90000"  />
			<stop offset="1" stop-color="#950000"  />
		</linearGradient>
	</defs>
	<style>
		tspan { white-space:pre }
		.shp0 { filter: url(#flt1);fill: #000000 } 
		.shp1 { fill: url(#grd1);stroke: #000000;stroke-width: 0.226 } 
		.shp2 { opacity: 0.467;fill: url(#grd2) } 
		.shp3 { opacity: 0.396;fill: url(#grd3) } 
		.shp4 { fill: none;stroke: #000000;stroke-width: 0.226 } 
		.shp5 { fill: url(#grd4);stroke: #a40000;stroke-linejoin:round;stroke-width: 0.17 } 
		.shp6 { fill: url(#grd5) } 
		.shp7 { fill: url(#grd6) } 
		.shp8 { opacity: 0.4;fill: url(#grd7) } 
		.shp9 { fill: url(#grd8);stroke: #890000;stroke-linejoin:round;stroke-width: 0.353 } 
		.shp10 { opacity: 0.4;fill: url(#grd9) } 
		.shp11 { fill: url(#grd10);stroke: #890000;stroke-linejoin:round;stroke-width: 0.353 } 
		.shp12 { opacity: 0.4;fill: url(#grd11) } 
		.shp13 { fill: url(#grd12);stroke: #890000;stroke-linejoin:round;stroke-width: 0.353 } 
		.shp14 { opacity: 0.4;fill: url(#grd13) } 
		.shp15 { fill: url(#grd14);stroke: #890000;stroke-linejoin:round;stroke-width: 0.353 } 
		.shp16 { opacity: 0.4;fill: url(#grd15) } 
		.shp17 { fill: url(#grd16);stroke: #890000;stroke-linejoin:round;stroke-width: 0.353 } 
	</style>
	<g id="-e-Diamond5">
		<g id="Layer">
			<path id="Layer" fill-rule="evenodd" class="shp0" d="M4.85 1.47L68.11 1.47C68.56 1.47 69.01 1.56 69.43 1.73C69.85 1.91 70.23 2.16 70.55 2.48C70.87 2.8 71.12 3.18 71.29 3.6C71.47 4.02 71.56 4.47 71.56 4.92L71.56 97.21C71.56 97.66 71.47 98.11 71.29 98.53C71.12 98.95 70.87 99.33 70.55 99.65C70.23 99.97 69.85 100.22 69.43 100.39C69.01 100.57 68.56 100.66 68.11 100.66L4.85 100.66C4.4 100.66 3.95 100.57 3.53 100.39C3.12 100.22 2.74 99.97 2.41 99.65C2.09 99.33 1.84 98.95 1.67 98.53C1.49 98.11 1.4 97.66 1.4 97.21L1.4 4.92C1.4 4.47 1.49 4.02 1.67 3.6C1.84 3.18 2.09 2.8 2.41 2.48C2.74 2.16 3.12 1.91 3.53 1.73C3.95 1.56 4.4 1.47 4.85 1.47" />
			<path id="Layer" fill-rule="evenodd" class="shp1" d="M5.78 0.89L67.99 0.89C68.51 0.89 69.03 0.99 69.51 1.19C69.99 1.39 70.43 1.69 70.8 2.05C71.17 2.42 71.46 2.86 71.66 3.34C71.86 3.82 71.96 4.34 71.96 4.86L71.96 96.11C71.96 96.63 71.86 97.15 71.66 97.63C71.46 98.11 71.17 98.55 70.8 98.92C70.43 99.29 69.99 99.58 69.51 99.78C69.03 99.98 68.51 100.08 67.99 100.08L5.78 100.08C5.26 100.08 4.74 99.98 4.26 99.78C3.78 99.58 3.34 99.29 2.97 98.92C2.6 98.55 2.31 98.11 2.11 97.63C1.91 97.15 1.81 96.63 1.81 96.11L1.81 4.86C1.81 4.34 1.91 3.82 2.11 3.34C2.31 2.86 2.6 2.42 2.97 2.05C3.34 1.69 3.78 1.39 4.26 1.19C4.74 0.99 5.26 0.89 5.78 0.89" />
			<path id="Layer" class="shp2" d="M30.88 96.49L6.4 96.49C6.27 96.49 6.13 96.46 6.01 96.41C5.88 96.35 5.77 96.28 5.67 96.18C5.57 96.09 5.5 95.97 5.44 95.85C5.39 95.72 5.37 95.58 5.37 95.45L5.37 73.24C5.37 73.11 5.39 72.97 5.44 72.85C5.5 72.72 5.57 72.61 5.67 72.51C5.77 72.41 5.88 72.34 6.01 72.29C6.13 72.23 6.27 72.21 6.4 72.21L30.88 72.21C31.01 72.21 31.15 72.23 31.27 72.29C31.4 72.34 31.51 72.41 31.61 72.51C31.7 72.61 31.78 72.72 31.83 72.85C31.89 72.97 31.91 73.11 31.91 73.24L31.91 95.45C31.91 95.58 31.89 95.72 31.83 95.85C31.78 95.97 31.7 96.09 31.61 96.18C31.51 96.28 31.4 96.35 31.27 96.41C31.15 96.46 31.01 96.49 30.88 96.49" />
			<path id="Layer" class="shp3" d="M39.33 4.23L68.61 4.23L68.61 49.5L39.33 49.5L39.33 4.23Z" />
			<path id="Layer" class="shp4" d="M20.23 92.59L64.95 92.59L64.95 18.98" />
			<path id="Layer" class="shp4" d="M53.38 8.38L8.82 8.38L8.82 81.56" />
		</g>
		<path id="Layer" class="shp5" d="M12.15 85.28C12.15 85.28 12.82 86.28 13.59 87.16C14.37 88.03 15.26 88.8 15.26 88.8C15.26 88.8 14.38 89.55 13.61 90.43C12.84 91.3 12.18 92.29 12.18 92.29C12.18 92.29 11.51 91.29 10.73 90.41C9.95 89.53 9.05 88.77 9.05 88.77C9.05 88.77 9.94 88.01 10.72 87.14C11.49 86.27 12.15 85.28 12.15 85.28L12.15 85.28Z" />
		<path id="Layer" class="shp6" d="M62.19 9.46L64.36 9.46C64.54 9.46 64.58 9.43 64.62 9.36L65.04 8.37L64.94 8.29C64.77 8.52 64.66 8.58 64.43 8.58L62.11 8.58L60.9 11.21C60.89 11.23 60.89 11.24 60.89 11.26C60.89 11.32 60.94 11.35 61.02 11.35C61.38 11.35 61.82 11.43 62.28 11.57C63.55 11.98 64.14 12.67 64.14 13.77C64.14 14.83 63.46 15.67 62.6 15.67C62.38 15.67 62.19 15.59 61.86 15.34C61.5 15.09 61.25 14.98 61.01 14.98C60.69 14.98 60.54 15.11 60.54 15.39C60.54 15.81 61.06 16.08 61.89 16.08C62.82 16.08 63.62 15.78 64.17 15.21C64.68 14.71 64.92 14.08 64.92 13.24C64.92 12.44 64.71 11.93 64.15 11.37C63.66 10.89 63.03 10.63 61.72 10.4L62.19 9.46" />
		<path id="Layer" fill-rule="evenodd" class="shp7" d="M18.02 89.35C18.02 89.35 18.02 89.35 18.02 89.35C18.02 89.35 18.02 89.35 18.02 89.35L18.02 89.35ZM18.02 89.35C15.71 83.58 14.15 83.75 12.15 83.17L15.12 83.17C15.14 83.07 15.16 82.97 15.18 82.87C15.24 82.62 15.31 82.38 15.39 82.13C15.39 81.8 15.38 81.47 15.39 81.14C15.4 80.42 15.5 79.71 15.59 79.01C15.61 78.82 15.63 78.64 15.66 78.46C15.56 78.38 15.59 77.84 15.84 76.78C15.9 76.56 15.93 76.35 15.98 76.13C16.07 75.63 16.18 75.13 16.28 74.64C16.41 74.04 16.6 73.47 16.78 72.9C17.02 72.21 17.31 71.55 17.6 70.88C17.95 70.07 18.31 69.25 18.67 68.44C19.15 67.35 19.7 66.28 20.24 65.21C20.93 63.9 21.54 62.56 22.12 61.2C22.82 59.54 23.51 57.88 24.19 56.23C24.95 54.46 25.66 52.67 26.33 50.87C26.37 50.76 26.41 50.64 26.46 50.53C26.44 50.49 26.44 50.45 26.44 50.41C26.44 50.28 26.5 50.17 26.6 50.12C27.2 48.44 27.74 46.74 28.26 45.04C28.91 42.89 29.47 40.72 29.91 38.52C30.36 35.96 30.46 33.36 30.44 30.77C30.37 28.66 30.16 26.56 29.91 24.46C29.8 24.55 29.67 24.61 29.52 24.61C29.18 24.61 28.91 24.34 28.91 24.01C28.91 23.67 29.18 23.4 29.52 23.4C29.62 23.4 29.71 23.43 29.79 23.47L29.72 22.9C29.63 22.16 29.53 21.42 29.42 20.68C29.36 20.79 29.25 20.86 29.12 20.86C28.94 20.86 28.79 20.71 28.79 20.53C28.79 20.35 28.94 20.2 29.12 20.2C29.21 20.2 29.3 20.23 29.36 20.28C29.25 19.59 29.15 18.89 29.04 18.2C28.87 17.12 28.9 16.48 29.02 16.32C28.91 16.21 28.85 16.06 28.85 15.9C28.85 15.56 29.12 15.3 29.45 15.3C29.79 15.3 30.06 15.56 30.06 15.9C30.06 16.23 29.79 16.51 29.45 16.51C29.39 16.51 29.32 16.49 29.26 16.47C29.38 16.71 29.51 17.16 29.62 17.86C29.86 19.43 30.1 21 30.3 22.57C30.62 25.19 30.92 27.81 31 30.44C31.03 33.03 30.93 35.63 30.49 38.18C30.05 40.38 29.49 42.55 28.84 44.7C28.28 46.55 27.69 48.39 27.04 50.21C27.08 50.26 27.1 50.33 27.1 50.41C27.1 50.56 26.99 50.7 26.85 50.73C26.19 52.46 25.51 54.18 24.78 55.89C24.09 57.54 23.41 59.2 22.72 60.86C22.14 62.21 21.53 63.56 20.84 64.87C20.31 65.93 19.76 67 19.27 68.1C18.92 68.91 18.56 69.72 18.21 70.53C17.92 71.2 17.64 71.86 17.4 72.54C17.22 73.12 17.02 73.69 16.9 74.28C16.88 74.35 16.87 74.42 16.86 74.49C17.04 74.07 17.24 73.65 17.44 73.23C17.59 72.92 17.76 72.61 17.92 72.31C17.93 72.3 17.93 72.3 17.93 72.29C18.01 72.04 18.14 71.82 18.25 71.58C18.41 71.23 18.63 70.91 18.83 70.58C19.02 70.26 19.22 69.96 19.44 69.66C20.02 68.66 20.68 67.71 21.35 66.77C21.88 66.05 22.49 65.4 23.11 64.76C23.13 64.62 23.24 64.5 23.39 64.48L23.9 63.96C24.91 63.02 25.95 62.1 26.95 61.16C28.14 60.05 29.29 58.9 30.43 57.75C31.74 56.44 32.94 55.03 34.05 53.55C35.3 51.85 36.34 50 37.34 48.14C37.68 47.54 37.99 46.93 38.28 46.31L38.16 46.33C37.83 46.33 37.56 46.05 37.56 45.72C37.56 45.39 37.83 45.12 38.16 45.12C38.39 45.12 38.58 45.24 38.69 45.42C39.18 44.31 39.61 43.18 40 42.03L40.07 41.8C40.03 41.53 40.01 41.13 40.02 40.58C40.05 39.64 40.07 38.7 40.05 37.77C39.99 36.08 39.88 34.4 39.66 32.72C39.47 31.58 39.29 30.44 38.96 29.33C38.8 28.77 38.64 28.2 38.39 27.67C38.3 27.53 38.25 27.35 38.12 27.24C36.2 25.55 36.84 25.16 38.74 26.87C38.88 26.99 38.93 27.17 39.01 27.32C39.26 27.85 39.41 28.42 39.58 28.98C39.9 30.09 40.08 31.24 40.26 32.38C40.48 34.05 40.58 35.73 40.63 37.42C40.65 38.13 40.64 38.84 40.62 39.55C40.95 38.07 41.18 36.55 41.37 35.04C41.42 34.38 41.45 33.7 41.47 33.04C41.4 33.06 41.33 33.08 41.25 33.08C40.92 33.08 40.65 32.8 40.65 32.47C40.65 32.14 40.92 31.87 41.25 31.87C41.34 31.87 41.42 31.89 41.49 31.92C41.49 30.88 41.47 29.85 41.44 28.81C41.19 28.73 41.01 28.51 41.01 28.24C41.01 27.98 41.17 27.76 41.4 27.68C41.4 27.57 41.39 27.46 41.39 27.35C41.37 26.93 41.36 26.52 41.35 26.1C41.26 23.76 41.83 23.43 41.92 25.77C41.93 26.19 41.95 26.6 41.96 27.02C41.97 27.27 41.97 27.51 41.98 27.76C42.13 27.87 42.22 28.05 42.22 28.24C42.22 28.42 42.14 28.58 42.02 28.69C42.08 30.7 42.1 32.71 41.94 34.71C41.65 37.07 41.27 39.42 40.58 41.7C39.87 43.81 39.01 45.87 37.92 47.81C36.92 49.67 35.88 51.51 34.64 53.21C33.53 54.69 32.33 56.1 31.02 57.41C29.88 58.56 28.73 59.7 27.55 60.81C26.54 61.76 25.51 62.67 24.51 63.61C24.2 63.91 23.9 64.21 23.6 64.52C23.68 64.56 23.73 64.64 23.76 64.72C24.52 63.95 25.32 63.22 26.12 62.49L28.93 60C29.92 59.11 30.92 58.24 31.91 57.36C33.04 56.39 34.13 55.38 35.21 54.35C36.43 53.2 37.62 52.01 38.79 50.81C40.04 49.55 41.22 48.23 42.37 46.88C43.25 45.83 44.08 44.76 44.9 43.66C44.89 43.62 44.88 43.58 44.88 43.54C44.88 43.23 45.12 42.98 45.43 42.95L46.03 42.11C47.12 40.62 48.1 39.07 49.02 37.48C48.98 37.49 48.94 37.5 48.9 37.5C48.72 37.5 48.57 37.35 48.57 37.16C48.57 36.98 48.72 36.83 48.9 36.83C49.06 36.83 49.2 36.94 49.23 37.09C49.31 36.94 49.41 36.8 49.49 36.65C50.57 34.64 51.6 32.59 52.28 30.41C52.8 28.51 53.1 26.57 53.41 24.62C53.78 22.29 54.36 21.95 53.99 24.28C53.68 26.23 53.38 28.18 52.86 30.08C52.18 32.26 51.16 34.31 50.08 36.32C49.02 38.19 47.89 40.03 46.62 41.77C46.33 42.18 46.03 42.58 45.73 42.99C45.94 43.08 46.09 43.3 46.09 43.54C46.09 43.88 45.82 44.15 45.49 44.15C45.3 44.15 45.13 44.06 45.02 43.93C44.35 44.81 43.67 45.69 42.96 46.54C41.81 47.89 40.63 49.21 39.38 50.47C38.81 51.05 38.24 51.62 37.66 52.2C37.84 52.03 38.14 51.76 38.6 51.37C39.7 50.43 40.81 49.5 41.97 48.63C43.05 47.81 44.16 47.02 45.38 46.42C45.48 46.22 45.68 46.09 45.91 46.09C45.97 46.09 46.02 46.09 46.07 46.1C46.25 46.03 46.44 45.98 46.64 45.97C49.06 45.81 48.6 46.14 46.37 46.3C46.46 46.41 46.51 46.54 46.51 46.69C46.51 47.02 46.25 47.3 45.91 47.3C45.58 47.3 45.31 47.02 45.31 46.69C45.31 46.63 45.32 46.57 45.34 46.51L44.84 46.73C44.43 46.89 43.39 47.66 42.57 48.29C41.41 49.17 40.29 50.09 39.18 51.03C38.04 52 37.39 52.5 37.5 52.36C36.94 52.91 36.37 53.46 35.8 54.01C34.73 55.03 33.64 56.04 32.52 57.02C31.52 57.9 30.52 58.77 29.53 59.66C28.6 60.49 27.67 61.32 26.73 62.14C25.87 62.93 25 63.71 24.19 64.55C23.47 65.28 22.75 66.02 22.07 66.8C21.55 67.42 21.03 68.03 20.53 68.67L20.02 69.37C19.99 69.42 19.96 69.46 19.93 69.51C19.48 70.28 19.03 71.05 18.59 71.84L18.56 71.93C18.51 72.05 18.47 72.18 18.42 72.3C18.06 73.07 17.76 73.62 17.55 73.93C17.23 74.64 16.93 75.37 16.72 76.13C16.5 76.96 16.29 77.79 16.2 78.65C16.12 79.26 16.04 79.87 16.01 80.48L16.16 80.17C16.48 79.56 16.86 78.99 17.24 78.41C17.56 77.94 17.9 77.49 18.26 77.05C18.19 76.95 18.14 76.83 18.14 76.69C18.14 76.36 18.42 76.09 18.75 76.09C18.86 76.09 18.96 76.12 19.05 76.17C19.63 75.57 20.26 75.01 20.88 74.45C21.69 73.71 22.54 73.02 23.41 72.35C24.44 71.54 25.54 70.83 26.63 70.12C27.89 69.31 29.16 68.53 30.44 67.76L30.74 67.59C30.49 67.52 30.3 67.29 30.3 67.01C30.3 66.68 30.58 66.41 30.91 66.41C31.24 66.41 31.51 66.68 31.51 67.01C31.51 67.35 31.24 67.62 30.91 67.62C30.86 67.62 30.81 67.61 30.76 67.6C29.71 68.24 28.66 68.88 27.63 69.55C26.54 70.26 25.45 70.97 24.42 71.77C23.56 72.44 22.7 73.12 21.89 73.87C21.16 74.52 20.42 75.18 19.75 75.91L19.3 76.45C19.33 76.52 19.36 76.61 19.36 76.69C19.36 77.03 19.08 77.29 18.75 77.29C18.71 77.29 18.68 77.29 18.64 77.29C18.52 77.46 18.39 77.64 18.27 77.83C17.89 78.4 17.5 78.97 17.18 79.58C16.96 80.05 16.72 80.51 16.58 81.02C16.51 81.25 16.44 81.48 16.37 81.71C16.46 81.77 16.51 81.87 16.51 81.98C16.51 82.16 16.38 82.3 16.2 82.31C16.15 82.61 16.07 82.91 16.08 83.22C16.09 83.39 16.08 83.57 16.12 83.74C16.14 83.84 16.14 83.95 16.18 84.05C16.45 85.25 18.55 88.45 18.02 89.35ZM18.27 84.34C18.27 84.16 18.42 84.01 18.6 84.01C18.79 84.01 18.93 84.16 18.93 84.34C18.93 84.53 18.79 84.68 18.6 84.68C18.42 84.68 18.27 84.53 18.27 84.34ZM13.37 82.38C13.37 82.04 13.64 81.77 13.97 81.77C14.3 81.77 14.58 82.04 14.58 82.38C14.58 82.71 14.3 82.99 13.97 82.99C13.64 82.99 13.37 82.71 13.37 82.38ZM16.64 81.65C16.64 81.32 16.9 81.05 17.24 81.05C17.57 81.05 17.85 81.32 17.85 81.65C17.85 81.98 17.57 82.26 17.24 82.26C16.9 82.26 16.64 81.98 16.64 81.65ZM12.64 80.23C12.64 80.05 12.79 79.9 12.97 79.9C13.16 79.9 13.31 80.05 13.31 80.23C13.31 80.41 13.16 80.56 12.97 80.56C12.79 80.56 12.64 80.41 12.64 80.23ZM14.15 79.68C14.15 79.5 14.3 79.35 14.49 79.35C14.67 79.35 14.82 79.5 14.82 79.68C14.82 79.87 14.67 80.02 14.49 80.02C14.3 80.02 14.15 79.87 14.15 79.68ZM19.6 78.69C19.6 78.35 19.87 78.09 20.2 78.09C20.53 78.09 20.81 78.35 20.81 78.69C20.81 79.02 20.53 79.3 20.2 79.3C19.87 79.3 19.6 79.02 19.6 78.69ZM21.29 77.93C21.29 77.75 21.44 77.6 21.62 77.6C21.8 77.6 21.95 77.75 21.95 77.93C21.95 78.11 21.8 78.26 21.62 78.26C21.44 78.26 21.29 78.11 21.29 77.93ZM12.7 77C12.7 76.66 12.97 76.39 13.31 76.39C13.64 76.39 13.91 76.66 13.91 77C13.91 77.33 13.64 77.6 13.31 77.6C12.97 77.6 12.7 77.33 12.7 77ZM14.09 75.24C14.09 74.9 14.36 74.64 14.7 74.64C15.03 74.64 15.3 74.9 15.3 75.24C15.3 75.57 15.03 75.85 14.7 75.85C14.36 75.85 14.09 75.57 14.09 75.24ZM22.2 75.27C22.2 75.09 22.35 74.94 22.53 74.94C22.72 74.94 22.86 75.09 22.86 75.27C22.86 75.46 22.72 75.61 22.53 75.61C22.35 75.61 22.2 75.46 22.2 75.27ZM26.31 74.45C26.31 74.12 26.58 73.85 26.92 73.85C27.25 73.85 27.52 74.12 27.52 74.45C27.52 74.79 27.25 75.06 26.92 75.06C26.58 75.06 26.31 74.79 26.31 74.45ZM19.84 73.73C19.84 73.4 20.11 73.12 20.45 73.12C20.78 73.12 21.05 73.4 21.05 73.73C21.05 74.07 20.78 74.33 20.45 74.33C20.11 74.33 19.84 74.07 19.84 73.73ZM22.82 74.18C22.79 74.18 23.16 73.89 24.03 73.25C24.51 72.9 24.97 72.53 25.47 72.23C26.59 71.56 27.71 70.89 28.9 70.36C29.74 69.98 30.59 69.6 31.46 69.26C32.07 69.02 32.67 68.78 33.28 68.54L34.06 68.25C36.45 67.33 35.83 67.7 33.44 68.61L32.66 68.9C32.06 69.13 31.45 69.37 30.85 69.62C30.31 69.82 29.78 70.06 29.25 70.29C29.57 70.31 29.82 70.56 29.82 70.88C29.82 71.22 29.55 71.49 29.21 71.49C28.88 71.49 28.61 71.22 28.61 70.88C28.61 70.73 28.67 70.61 28.75 70.5L28.29 70.71C27.62 70.97 26.29 71.76 26.08 71.88C25.58 72.19 25.12 72.56 24.64 72.9C23.52 73.72 22.84 74.19 22.82 74.18L22.82 74.18ZM13.79 72.94C13.79 72.61 14.06 72.34 14.39 72.34C14.73 72.34 15 72.61 15 72.94C15 73.27 14.73 73.55 14.39 73.55C14.06 73.55 13.79 73.27 13.79 72.94ZM27.28 72.55C27.28 72.37 27.43 72.22 27.61 72.22C27.79 72.22 27.94 72.37 27.94 72.55C27.94 72.73 27.79 72.88 27.61 72.88C27.43 72.88 27.28 72.73 27.28 72.55ZM16.03 71.43C16.03 71.09 16.3 70.83 16.64 70.83C16.97 70.83 17.24 71.09 17.24 71.43C17.24 71.76 16.97 72.03 16.64 72.03C16.3 72.03 16.03 71.76 16.03 71.43ZM19.29 71.25C19.29 70.92 19.57 70.64 19.9 70.64C20.24 70.64 20.5 70.92 20.5 71.25C20.5 71.58 20.24 71.85 19.9 71.85C19.57 71.85 19.29 71.58 19.29 71.25ZM11.37 71.04C11.37 70.85 11.52 70.71 11.7 70.71C11.88 70.71 12.03 70.85 12.03 71.04C12.03 71.22 11.88 71.37 11.7 71.37C11.52 71.37 11.37 71.22 11.37 71.04ZM32.48 69.89C32.48 69.7 32.63 69.55 32.81 69.55C33 69.55 33.14 69.7 33.14 69.89C33.14 70.07 33 70.22 32.81 70.22C32.63 70.22 32.48 70.07 32.48 69.89ZM24.98 69.55C24.98 69.22 25.25 68.95 25.59 68.95C25.92 68.95 26.19 69.22 26.19 69.55C26.19 69.89 25.92 70.16 25.59 70.16C25.25 70.16 24.98 69.89 24.98 69.55ZM36.26 69.62C36.08 69.62 35.93 69.47 35.93 69.28C35.93 69.22 35.95 69.16 35.98 69.11C35.93 69.12 35.87 69.13 35.81 69.13C35.48 69.13 35.2 68.86 35.2 68.53C35.2 68.19 35.48 67.92 35.81 67.92C36.14 67.92 36.41 68.19 36.41 68.53C36.41 68.69 36.34 68.84 36.23 68.95L36.26 68.95C36.45 68.95 36.59 69.1 36.59 69.28C36.59 69.47 36.45 69.62 36.26 69.62L36.26 69.62ZM37.74 67.62C37.74 67.28 38.01 67.01 38.35 67.01C38.68 67.01 38.96 67.28 38.96 67.62C38.96 67.95 38.68 68.22 38.35 68.22C38.01 68.22 37.74 67.95 37.74 67.62ZM17.12 67.62C17.12 67.28 17.39 67.01 17.72 67.01C18.06 67.01 18.33 67.28 18.33 67.62C18.33 67.95 18.06 68.22 17.72 68.22C17.39 68.22 17.12 67.95 17.12 67.62ZM21.9 67.56C21.9 67.23 22.16 66.95 22.5 66.95C22.83 66.95 23.11 67.23 23.11 67.56C23.11 67.89 22.83 68.16 22.5 68.16C22.16 68.16 21.9 67.89 21.9 67.56ZM39.56 67.77C39.56 67.59 39.71 67.44 39.89 67.44C40.07 67.44 40.22 67.59 40.22 67.77C40.22 67.96 40.07 68.1 39.89 68.1C39.71 68.1 39.56 67.95 39.56 67.77ZM26.56 67.35C26.56 67.16 26.7 67.01 26.89 67.01C27.07 67.01 27.22 67.16 27.22 67.35C27.22 67.53 27.07 67.68 26.89 67.68C26.7 67.68 26.56 67.53 26.56 67.35ZM21.35 67.28C21.35 67.28 21.35 67.28 21.35 67.28C21.35 67.28 21.35 67.28 21.35 67.28L21.35 67.28ZM21.35 67.28C21.39 67.24 21.42 67.2 21.46 67.16C22.06 66.45 22.71 65.79 23.36 65.13C23.27 65.11 23.2 65.05 23.15 64.98C22.73 65.44 22.32 65.92 21.95 66.43C21.75 66.71 21.55 67 21.35 67.28ZM32.85 66.37C32.86 66.37 32.87 66.36 32.87 66.36C32.87 66.36 32.86 66.37 32.85 66.37L32.85 66.37ZM32.87 66.36C33.85 65.8 34.82 65.25 35.8 64.7C35.92 64.64 36.12 64.53 36.28 64.44C36.04 64.36 35.87 64.13 35.87 63.87C35.87 63.53 36.14 63.26 36.47 63.26C36.81 63.26 37.08 63.53 37.08 63.87C37.08 63.92 37.07 63.96 37.06 64L39.13 62.84C38.44 63.24 37.75 63.63 37.05 64.02C36.98 64.28 36.75 64.47 36.47 64.47C36.41 64.47 36.36 64.46 36.31 64.45C35.81 64.73 35.31 65 34.81 65.27C34.11 65.66 33.45 66.03 32.87 66.36ZM40.29 65.95C40.29 65.77 40.43 65.62 40.62 65.62C40.8 65.62 40.95 65.77 40.95 65.95C40.95 66.14 40.8 66.29 40.62 66.29C40.43 66.29 40.29 66.14 40.29 65.95ZM17.48 65.38C17.14 65.38 16.88 65.11 16.88 64.77C16.88 64.44 17.14 64.17 17.48 64.17C17.59 64.17 17.69 64.2 17.78 64.25C17.79 64.07 17.93 63.93 18.11 63.93C18.3 63.93 18.45 64.08 18.45 64.26C18.45 64.45 18.3 64.6 18.11 64.6C18.09 64.6 18.07 64.59 18.05 64.59C18.07 64.65 18.09 64.71 18.09 64.77C18.09 65.11 17.81 65.38 17.48 65.38L17.48 65.38ZM15.18 64.99C15.18 64.8 15.33 64.65 15.51 64.65C15.7 64.65 15.84 64.8 15.84 64.99C15.84 65.17 15.7 65.32 15.51 65.32C15.33 65.32 15.18 65.17 15.18 64.99ZM19.11 62.42C19.11 62.09 19.38 61.81 19.72 61.81C20.05 61.81 20.32 62.09 20.32 62.42C20.32 62.75 20.05 63.02 19.72 63.02C19.38 63.02 19.11 62.75 19.11 62.42ZM44.94 62.57C44.94 62.38 45.09 62.24 45.28 62.24C45.46 62.24 45.61 62.38 45.61 62.57C45.61 62.75 45.46 62.9 45.28 62.9C45.09 62.9 44.94 62.75 44.94 62.57ZM39.37 62.7L39.4 62.68C39.39 62.68 39.38 62.69 39.37 62.7L39.37 62.7ZM39.4 62.68C40.88 61.81 42.28 60.84 43.64 59.81C44.69 59.01 45.69 58.14 46.65 57.23C46.65 57.22 46.65 57.21 46.66 57.19C46.18 57.61 45.67 57.99 45.18 58.39C43.27 59.91 42.67 60.26 44.58 58.74C45.12 58.3 45.68 57.88 46.2 57.41C46.93 56.79 47.65 56.15 48.37 55.52C49.63 54.16 50.75 52.67 51.8 51.14C53.05 49.37 53.96 47.41 54.72 45.38C55.51 43.17 55.82 40.86 56 38.53C56.2 36.45 56.02 34.38 55.76 32.32C55.27 28.46 56.22 27.92 56.72 31.77C56.98 33.83 57.17 35.9 56.96 37.98C56.81 40 56.55 42.01 55.97 43.95C56.07 43.85 56.22 43.78 56.38 43.78C56.71 43.78 56.98 44.06 56.98 44.39C56.98 44.72 56.71 45 56.38 45C56.09 45 55.84 44.79 55.78 44.51C55.75 44.61 55.72 44.72 55.68 44.82C54.93 46.85 54.02 48.8 52.76 50.58C52.07 51.59 51.35 52.59 50.57 53.54C51.13 53.04 51.68 52.53 52.23 52.01L52.91 51.32C52.96 51.17 53.07 51.06 53.2 50.99C53.65 50.5 54.08 50 54.44 49.43C55.01 48.59 55.58 47.75 56.12 46.89C56.66 46.04 57.21 45.19 57.73 44.32C58.18 43.57 58.63 42.83 59.03 42.05C59.25 41.58 59.49 41.12 59.64 40.62C59.71 40.44 59.77 40.24 59.86 40.06C60.09 39.6 60.28 39.24 60.46 38.95C60.26 38.85 60.12 38.64 60.12 38.4C60.12 38.08 60.38 37.82 60.7 37.8C60.61 37.74 60.55 37.64 60.55 37.53C60.55 37.34 60.7 37.19 60.88 37.19C61.06 37.19 61.21 37.34 61.21 37.53C61.21 37.68 61.11 37.81 60.97 37.84C61.18 37.94 61.33 38.15 61.33 38.4C61.33 38.7 61.11 38.95 60.82 39C60.73 39.2 60.62 39.43 60.48 39.7C60.39 39.88 60.34 40.07 60.27 40.26C60.11 40.76 59.87 41.23 59.64 41.7L59.4 42.14C59.51 42.04 59.66 41.97 59.82 41.97C60.15 41.97 60.43 42.24 60.43 42.57C60.43 42.91 60.15 43.18 59.82 43.18C59.49 43.18 59.22 42.91 59.22 42.57C59.22 42.53 59.23 42.49 59.23 42.45C58.94 42.96 58.64 43.46 58.34 43.97C57.81 44.83 57.27 45.69 56.73 46.54C56.18 47.4 55.62 48.24 55.05 49.08C54.61 49.75 54.09 50.35 53.54 50.93C53.84 50.97 54.08 51.22 54.08 51.53C54.08 51.87 53.81 52.13 53.47 52.13C53.17 52.13 52.91 51.91 52.87 51.62L52.83 51.67C51.88 52.57 50.9 53.44 49.93 54.32L49.88 54.36C49.56 54.72 49.24 55.07 48.9 55.41C48.44 55.88 47.98 56.34 47.5 56.78C47.7 56.88 47.84 57.09 47.84 57.34C47.84 57.67 47.58 57.94 47.24 57.94C46.98 57.94 46.76 57.77 46.68 57.54C46.01 58.13 45.33 58.7 44.63 59.24C43.23 60.29 41.79 61.29 40.28 62.17L39.4 62.68ZM35.69 62.21C35.69 62.02 35.84 61.88 36.02 61.88C36.21 61.88 36.35 62.02 36.35 62.21C36.35 62.39 36.21 62.54 36.02 62.54C35.84 62.54 35.69 62.39 35.69 62.21ZM42.07 62.29L42.01 62.29C41.83 62.29 41.68 62.14 41.68 61.96C41.68 61.78 41.83 61.63 42.01 61.63C42.19 61.63 42.34 61.78 42.34 61.96C42.34 62.12 42.23 62.26 42.07 62.29ZM28.07 61.51C28.07 61.17 28.34 60.91 28.67 60.91C29 60.91 29.28 61.17 29.28 61.51C29.28 61.84 29 62.12 28.67 62.12C28.34 62.12 28.07 61.84 28.07 61.51ZM30.18 61.6C30.18 61.42 30.33 61.27 30.51 61.27C30.7 61.27 30.85 61.42 30.85 61.6C30.85 61.78 30.7 61.93 30.51 61.93C30.33 61.93 30.18 61.78 30.18 61.6ZM38.96 60.09C38.96 59.9 39.11 59.75 39.29 59.75C39.47 59.75 39.62 59.9 39.62 60.09C39.62 60.27 39.47 60.42 39.29 60.42C39.11 60.42 38.96 60.27 38.96 60.09ZM41.68 59.63C41.68 59.3 41.95 59.03 42.28 59.03C42.61 59.03 42.89 59.3 42.89 59.63C42.89 59.97 42.61 60.24 42.28 60.24C41.95 60.24 41.68 59.97 41.68 59.63ZM20.32 59.39C20.32 59.06 20.59 58.79 20.93 58.79C21.26 58.79 21.54 59.06 21.54 59.39C21.54 59.73 21.26 59.99 20.93 59.99C20.59 59.99 20.32 59.73 20.32 59.39ZM49.24 59.06C49.24 58.88 49.39 58.73 49.57 58.73C49.75 58.73 49.9 58.88 49.9 59.06C49.9 59.24 49.75 59.39 49.57 59.39C49.39 59.39 49.24 59.24 49.24 59.06ZM27.64 58.67C27.64 58.33 27.91 58.06 28.25 58.06C28.58 58.06 28.85 58.33 28.85 58.67C28.85 59 28.58 59.27 28.25 59.27C27.91 59.27 27.64 59 27.64 58.67ZM18.87 57.91C18.87 57.73 19.02 57.58 19.2 57.58C19.39 57.58 19.53 57.73 19.53 57.91C19.53 58.09 19.39 58.24 19.2 58.24C19.02 58.24 18.87 58.09 18.87 57.91ZM43.01 57.58C43.01 57.24 43.27 56.98 43.61 56.98C43.94 56.98 44.22 57.24 44.22 57.58C44.22 57.91 43.94 58.18 43.61 58.18C43.27 58.18 43.01 57.91 43.01 57.58ZM21.9 57.58C21.56 57.58 21.29 57.31 21.29 56.98C21.29 56.74 21.42 56.55 21.61 56.45C21.6 56.41 21.59 56.38 21.59 56.34C21.59 56.16 21.74 56.01 21.92 56.01C22.11 56.01 22.26 56.16 22.26 56.34C22.26 56.39 22.25 56.43 22.24 56.47C22.4 56.58 22.5 56.77 22.5 56.98C22.5 57.31 22.23 57.58 21.9 57.58L21.9 57.58ZM34.35 56.43C34.35 56.1 34.63 55.82 34.96 55.82C35.3 55.82 35.56 56.1 35.56 56.43C35.56 56.76 35.3 57.03 34.96 57.03C34.63 57.03 34.35 56.76 34.35 56.43ZM23.82 56.81C23.7 56.82 23.68 56.31 23.88 55.21C24.12 53.94 24.35 52.67 24.49 51.39C24.65 49.81 24.74 48.23 24.69 46.64C24.62 45.45 24.55 44.27 24.34 43.1C24.21 42.31 24.09 41.51 23.88 40.74C23.79 40.44 23.73 40.13 23.6 39.84C22.51 37.53 23.18 37.15 24.22 39.48C24.35 39.77 24.42 40.08 24.51 40.38C24.71 41.16 24.82 41.95 24.95 42.74C25.15 43.92 25.23 45.1 25.29 46.29C25.34 47.88 25.24 49.47 25.08 51.05C24.94 52.33 24.71 53.6 24.47 54.87C24.23 56.12 23.96 56.8 23.82 56.81L23.82 56.81ZM36.41 56.46C36.41 56.28 36.56 56.13 36.74 56.13C36.93 56.13 37.08 56.28 37.08 56.46C37.08 56.64 36.93 56.79 36.74 56.79C36.56 56.79 36.41 56.64 36.41 56.46ZM26.49 56.22C26.49 56.04 26.64 55.89 26.82 55.89C27.01 55.89 27.16 56.04 27.16 56.22C27.16 56.4 27.01 56.55 26.82 56.55C26.64 56.55 26.49 56.4 26.49 56.22ZM30.18 54.85C30.18 54.52 30.46 54.25 30.79 54.25C31.12 54.25 31.39 54.52 31.39 54.85C31.39 55.19 31.12 55.46 30.79 55.46C30.46 55.46 30.18 55.19 30.18 54.85ZM47.06 54.37C47.06 54.04 47.33 53.77 47.67 53.77C48 53.77 48.27 54.04 48.27 54.37C48.27 54.71 48 54.97 47.67 54.97C47.33 54.97 47.06 54.71 47.06 54.37ZM54.14 53.25C54.14 53.07 54.28 52.92 54.47 52.92C54.65 52.92 54.8 53.07 54.8 53.25C54.8 53.43 54.65 53.58 54.47 53.58C54.28 53.58 54.14 53.43 54.14 53.25ZM42.34 50.14C42.34 49.8 42.61 49.53 42.94 49.53C43.28 49.53 43.55 49.8 43.55 50.14C43.55 50.47 43.28 50.74 42.94 50.74C42.61 50.74 42.34 50.47 42.34 50.14ZM49.05 49.44C49.05 49.25 49.2 49.11 49.38 49.11C49.57 49.11 49.72 49.26 49.72 49.44C49.72 49.62 49.57 49.77 49.38 49.77C49.2 49.77 49.05 49.62 49.05 49.44ZM19.36 48.75C19.36 48.41 19.63 48.14 19.96 48.14C20.29 48.14 20.57 48.41 20.57 48.75C20.57 49.08 20.29 49.35 19.96 49.35C19.63 49.35 19.36 49.08 19.36 48.75ZM34.66 48.51C34.66 48.17 34.93 47.9 35.27 47.9C35.6 47.9 35.87 48.17 35.87 48.51C35.87 48.84 35.6 49.11 35.27 49.11C34.93 49.11 34.66 48.84 34.66 48.51ZM58.25 48.05C58.25 47.87 58.4 47.72 58.58 47.72C58.77 47.72 58.92 47.87 58.92 48.05C58.92 48.24 58.77 48.39 58.58 48.39C58.4 48.39 58.25 48.24 58.25 48.05ZM57.22 47.3C57.22 46.96 57.49 46.69 57.83 46.69C58.16 46.69 58.43 46.96 58.43 47.3C58.43 47.63 58.16 47.9 57.83 47.9C57.49 47.9 57.22 47.63 57.22 47.3ZM38.41 47.11C38.41 46.78 38.68 46.5 39.01 46.5C39.35 46.5 39.62 46.78 39.62 47.11C39.62 47.45 39.35 47.72 39.01 47.72C38.68 47.72 38.41 47.45 38.41 47.11ZM28.43 46.45C28.43 46.11 28.7 45.84 29.03 45.84C29.36 45.84 29.64 46.11 29.64 46.45C29.64 46.78 29.36 47.05 29.03 47.05C28.7 47.05 28.43 46.78 28.43 46.45ZM22.38 44.11C22.38 43.93 22.53 43.78 22.71 43.78C22.89 43.78 23.04 43.93 23.04 44.11C23.04 44.3 22.89 44.45 22.71 44.45C22.53 44.45 22.38 44.3 22.38 44.11ZM25.59 43.73C25.59 43.39 25.85 43.12 26.19 43.12C26.52 43.12 26.8 43.39 26.8 43.73C26.8 44.06 26.52 44.33 26.19 44.33C25.85 44.33 25.59 44.06 25.59 43.73ZM52.26 43.54C52.26 43.21 52.53 42.94 52.86 42.94C53.2 42.94 53.47 43.21 53.47 43.54C53.47 43.88 53.2 44.15 52.86 44.15C52.53 44.15 52.26 43.88 52.26 43.54ZM29.57 43.21C29.57 43.03 29.73 42.88 29.91 42.88C30.1 42.88 30.25 43.03 30.25 43.21C30.25 43.39 30.1 43.54 29.91 43.54C29.73 43.54 29.57 43.39 29.57 43.21ZM37.68 40.4C37.68 40.06 37.96 39.8 38.29 39.8C38.63 39.8 38.89 40.06 38.89 40.4C38.89 40.73 38.63 41 38.29 41C37.96 41 37.68 40.73 37.68 40.4ZM44.82 40.34C44.82 40.01 45.09 39.73 45.43 39.73C45.76 39.73 46.03 40.01 46.03 40.34C46.03 40.67 45.76 40.94 45.43 40.94C45.09 40.94 44.82 40.67 44.82 40.34ZM57.4 39.67C57.4 39.34 57.68 39.07 58.01 39.07C58.34 39.07 58.61 39.34 58.61 39.67C58.61 40.01 58.34 40.28 58.01 40.28C57.68 40.28 57.4 40.01 57.4 39.67ZM27.16 39.19C27.16 38.85 27.43 38.59 27.76 38.59C28.1 38.59 28.37 38.85 28.37 39.19C28.37 39.52 28.1 39.8 27.76 39.8C27.43 39.8 27.16 39.52 27.16 39.19ZM42.52 39.13C42.52 38.8 42.79 38.52 43.13 38.52C43.46 38.52 43.74 38.8 43.74 39.13C43.74 39.46 43.46 39.73 43.13 39.73C42.79 39.73 42.52 39.46 42.52 39.13ZM30.66 38.07C30.66 37.89 30.82 37.74 31 37.74C31.19 37.74 31.33 37.89 31.33 38.07C31.33 38.25 31.19 38.4 31 38.4C30.82 38.4 30.66 38.25 30.66 38.07ZM21.95 37.1C21.95 36.92 22.1 36.77 22.29 36.77C22.47 36.77 22.62 36.92 22.62 37.1C22.62 37.29 22.47 37.43 22.29 37.43C22.1 37.43 21.95 37.28 21.95 37.1ZM43.91 36.98C43.91 36.8 44.06 36.65 44.24 36.65C44.43 36.65 44.58 36.8 44.58 36.98C44.58 37.16 44.43 37.31 44.24 37.31C44.06 37.31 43.91 37.16 43.91 36.98ZM53.35 36.16C53.35 35.83 53.62 35.56 53.95 35.56C54.29 35.56 54.56 35.83 54.56 36.16C54.56 36.49 54.29 36.77 53.95 36.77C53.62 36.77 53.35 36.49 53.35 36.16ZM37.56 36.2C37.56 36.01 37.71 35.86 37.9 35.86C38.08 35.86 38.23 36.01 38.23 36.2C38.23 36.38 38.08 36.53 37.9 36.53C37.71 36.53 37.56 36.38 37.56 36.2ZM61.33 35.65C61.33 35.47 61.48 35.32 61.67 35.32C61.85 35.32 62 35.47 62 35.65C62 35.84 61.85 35.98 61.67 35.98C61.48 35.98 61.33 35.84 61.33 35.65ZM38.04 35.26C38.04 34.92 38.32 34.65 38.65 34.65C38.99 34.65 39.25 34.92 39.25 35.26C39.25 35.59 38.99 35.86 38.65 35.86C38.32 35.86 38.04 35.59 38.04 35.26ZM47.72 35.07C47.72 34.74 48 34.47 48.33 34.47C48.67 34.47 48.93 34.74 48.93 35.07C48.93 35.41 48.67 35.68 48.33 35.68C48 35.68 47.72 35.41 47.72 35.07ZM52.14 34.5C52.14 34.32 52.29 34.17 52.47 34.17C52.66 34.17 52.81 34.32 52.81 34.5C52.81 34.68 52.66 34.83 52.47 34.83C52.29 34.83 52.14 34.68 52.14 34.5ZM60.91 34.05C60.91 33.71 61.18 33.44 61.52 33.44C61.85 33.44 62.12 33.71 62.12 34.05C62.12 34.38 61.85 34.65 61.52 34.65C61.18 34.65 60.91 34.38 60.91 34.05ZM29.43 34.65C29.24 34.65 29.09 34.5 29.09 34.32C29.09 34.13 29.24 33.98 29.43 33.98C29.61 33.98 29.76 34.13 29.76 34.32C29.76 34.48 29.65 34.62 29.5 34.65L29.43 34.65ZM56.98 33.35C56.98 33.17 57.13 33.01 57.31 33.01C57.49 33.01 57.64 33.17 57.64 33.35C57.64 33.54 57.49 33.69 57.31 33.69C57.13 33.69 56.98 33.54 56.98 33.35ZM32.48 32.47C32.48 32.14 32.75 31.87 33.09 31.87C33.42 31.87 33.69 32.14 33.69 32.47C33.69 32.8 33.42 33.08 33.09 33.08C32.75 33.08 32.48 32.8 32.48 32.47ZM53.23 32.27C53.23 32.08 53.38 31.93 53.56 31.93C53.75 31.93 53.9 32.08 53.9 32.27C53.9 32.45 53.75 32.6 53.56 32.6C53.38 32.6 53.23 32.45 53.23 32.27ZM43.01 31.14C43.01 30.81 43.27 30.54 43.61 30.54C43.78 30.54 43.94 30.61 44.05 30.72C44.09 30.58 44.21 30.48 44.37 30.48C44.55 30.48 44.7 30.63 44.7 30.81C44.7 30.99 44.55 31.14 44.37 31.14C44.31 31.14 44.26 31.13 44.21 31.11C44.21 31.12 44.22 31.13 44.22 31.14C44.22 31.48 43.94 31.75 43.61 31.75C43.27 31.75 43.01 31.48 43.01 31.14ZM49.78 30.69C49.78 30.51 49.93 30.36 50.11 30.36C50.3 30.36 50.45 30.51 50.45 30.69C50.45 30.87 50.3 31.02 50.11 31.02C49.93 31.02 49.78 30.87 49.78 30.69ZM60.07 30.57C60.07 30.39 60.22 30.24 60.4 30.24C60.58 30.24 60.73 30.38 60.73 30.57C60.73 30.75 60.58 30.9 60.4 30.9C60.22 30.9 60.07 30.75 60.07 30.57ZM57.22 30.24C57.22 29.9 57.49 29.63 57.83 29.63C58.16 29.63 58.43 29.9 58.43 30.24C58.43 30.57 58.16 30.84 57.83 30.84C57.49 30.84 57.22 30.57 57.22 30.24ZM31.94 30.05C31.94 29.72 32.21 29.45 32.54 29.45C32.88 29.45 33.14 29.72 33.14 30.05C33.14 30.39 32.88 30.66 32.54 30.66C32.21 30.66 31.94 30.39 31.94 30.05ZM37.68 30C37.46 30 37.27 29.87 37.17 29.69C37.08 29.63 37.02 29.53 37.02 29.42C37.02 29.32 37.06 29.24 37.12 29.18C37.2 28.95 37.42 28.79 37.68 28.79C38.02 28.79 38.29 29.05 38.29 29.39C38.29 29.72 38.02 30 37.68 30L37.68 30ZM50.63 28.84C50.63 28.51 50.9 28.24 51.23 28.24C51.56 28.24 51.84 28.51 51.84 28.84C51.84 29.18 51.56 29.45 51.23 29.45C50.9 29.45 50.63 29.18 50.63 28.84ZM28.31 28.24C28.31 27.91 28.58 27.63 28.91 27.63C29.24 27.63 29.52 27.91 29.52 28.24C29.52 28.58 29.24 28.84 28.91 28.84C28.58 28.84 28.31 28.58 28.31 28.24ZM38.77 26.64C38.77 26.45 38.92 26.31 39.11 26.31C39.29 26.31 39.44 26.45 39.44 26.64C39.44 26.82 39.29 26.97 39.11 26.97C38.92 26.97 38.77 26.82 38.77 26.64ZM59.16 26.52C59.16 26.33 59.3 26.19 59.49 26.19C59.67 26.19 59.82 26.33 59.82 26.52C59.82 26.7 59.67 26.85 59.49 26.85C59.3 26.85 59.16 26.7 59.16 26.52ZM31.51 26.45C31.51 26.27 31.66 26.12 31.84 26.12C32.03 26.12 32.18 26.27 32.18 26.45C32.18 26.64 32.03 26.79 31.84 26.79C31.66 26.79 31.51 26.64 31.51 26.45ZM54.92 25.06C54.92 24.88 55.07 24.73 55.25 24.73C55.44 24.73 55.59 24.88 55.59 25.06C55.59 25.24 55.44 25.39 55.25 25.39C55.07 25.39 54.92 25.24 54.92 25.06ZM55.95 24.3C55.95 23.97 56.22 23.7 56.55 23.7C56.89 23.7 57.16 23.97 57.16 24.3C57.16 24.64 56.89 24.91 56.55 24.91C56.22 24.91 55.95 24.64 55.95 24.3ZM34.47 23.85C34.47 23.67 34.63 23.52 34.81 23.52C35 23.52 35.15 23.67 35.15 23.85C35.15 24.04 35 24.18 34.81 24.18C34.63 24.18 34.47 24.04 34.47 23.85ZM36.96 23.34C36.96 23.01 37.23 22.74 37.56 22.74C37.9 22.74 38.16 23.01 38.16 23.34C38.16 23.68 37.9 23.94 37.56 23.94C37.23 23.94 36.96 23.68 36.96 23.34ZM31.75 22.37C31.75 22.04 32.03 21.77 32.36 21.77C32.69 21.77 32.97 22.04 32.97 22.37C32.97 22.71 32.69 22.98 32.36 22.98C32.03 22.98 31.75 22.71 31.75 22.37ZM49.48 22.46C49.48 22.28 49.63 22.13 49.81 22.13C49.99 22.13 50.14 22.28 50.14 22.46C50.14 22.64 49.99 22.8 49.81 22.8C49.63 22.8 49.48 22.64 49.48 22.46ZM41.37 22.13C41.37 21.79 41.64 21.53 41.98 21.53C42.31 21.53 42.58 21.79 42.58 22.13C42.58 22.46 42.31 22.73 41.98 22.73C41.64 22.73 41.37 22.46 41.37 22.13ZM52.08 21.79C52.08 21.61 52.23 21.46 52.41 21.46C52.59 21.46 52.74 21.61 52.74 21.79C52.74 21.98 52.59 22.13 52.41 22.13C52.23 22.13 52.08 21.98 52.08 21.79ZM40.41 20.41C40.41 20.23 40.55 20.08 40.74 20.08C40.92 20.08 41.07 20.23 41.07 20.41C41.07 20.59 40.92 20.74 40.74 20.74C40.55 20.74 40.41 20.59 40.41 20.41ZM27.16 19.95C27.16 19.62 27.43 19.35 27.76 19.35C28.1 19.35 28.37 19.62 28.37 19.95C28.37 20.28 28.1 20.56 27.76 20.56C27.43 20.56 27.16 20.28 27.16 19.95ZM50.21 18.78C50.21 18.59 50.35 18.44 50.54 18.44C50.72 18.44 50.87 18.59 50.87 18.78C50.87 18.96 50.72 19.11 50.54 19.11C50.35 19.11 50.21 18.96 50.21 18.78ZM52.08 18.08C52.08 17.74 52.35 17.48 52.69 17.47C53.02 17.47 53.29 17.74 53.29 18.08C53.29 18.41 53.02 18.68 52.69 18.68C52.35 18.68 52.08 18.41 52.08 18.08ZM26.61 17.44C26.61 17.26 26.76 17.11 26.94 17.11C27.13 17.11 27.28 17.26 27.28 17.44C27.28 17.62 27.13 17.77 26.94 17.77C26.76 17.77 26.61 17.62 26.61 17.44ZM52.38 16.17C52.38 15.99 52.53 15.84 52.72 15.84C52.9 15.84 53.05 15.99 53.05 16.17C53.05 16.36 52.9 16.51 52.72 16.51C52.53 16.51 52.38 16.36 52.38 16.17ZM35.75 15.26C35.75 15.08 35.9 14.93 36.08 14.93C36.26 14.93 36.41 15.08 36.41 15.26C36.41 15.45 36.26 15.59 36.08 15.59C35.9 15.59 35.75 15.45 35.75 15.26ZM27.22 13.63C27.22 13.45 27.37 13.3 27.55 13.3C27.74 13.3 27.88 13.45 27.88 13.63C27.88 13.81 27.74 13.96 27.55 13.96C27.37 13.96 27.22 13.81 27.22 13.63ZM28.91 12.42C28.91 12.24 29.06 12.09 29.24 12.09C29.43 12.09 29.57 12.24 29.57 12.42C29.57 12.6 29.43 12.75 29.24 12.75C29.06 12.75 28.91 12.6 28.91 12.42Z" />
		<g id="Layer">
			<path id="Layer" class="shp8" d="M62.49 77.45C62.49 82.87 58.09 87.26 52.67 87.26C47.26 87.26 42.86 82.87 42.86 77.45C42.86 72.03 47.26 67.64 52.67 67.64C58.09 67.64 62.49 72.03 62.49 77.45Z" />
			<path id="Layer" class="shp9" d="M52.67 70.16C52.67 70.16 54.05 72.23 55.66 74.06C57.27 75.88 59.12 77.46 59.12 77.46C59.12 77.46 57.29 79.04 55.69 80.85C54.09 82.67 52.72 84.72 52.72 84.72C52.72 84.72 51.33 82.65 49.71 80.82C48.09 78.99 46.23 77.4 46.23 77.4C46.23 77.4 48.07 75.83 49.68 74.02C51.29 72.21 52.67 70.16 52.67 70.16L52.67 70.16Z" />
		</g>
		<g id="Layer">
			<path id="Layer" class="shp10" d="M31.24 77.45C31.24 82.87 26.85 87.26 21.43 87.26C16.01 87.26 11.61 82.87 11.61 77.45C11.61 72.03 16.01 67.64 21.43 67.64C26.85 67.64 31.24 72.03 31.24 77.45Z" />
			<path id="Layer" class="shp11" d="M21.42 70.16C21.42 70.16 22.8 72.23 24.41 74.06C26.02 75.88 27.87 77.46 27.87 77.46C27.87 77.46 26.04 79.04 24.44 80.85C22.84 82.67 21.47 84.72 21.47 84.72C21.47 84.72 20.08 82.65 18.46 80.82C16.84 78.99 14.98 77.4 14.98 77.4C14.98 77.4 16.82 75.83 18.43 74.02C20.04 72.21 21.42 70.16 21.42 70.16L21.42 70.16Z" />
		</g>
		<g id="Layer">
			<path id="Layer" class="shp12" d="M31.24 23.99C31.24 29.41 26.85 33.8 21.43 33.8C16.01 33.8 11.61 29.41 11.61 23.99C11.61 18.57 16.01 14.18 21.43 14.18C26.85 14.18 31.24 18.57 31.24 23.99Z" />
			<path id="Layer" class="shp13" d="M21.42 16.7C21.42 16.7 22.8 18.77 24.41 20.6C26.02 22.42 27.87 24 27.87 24C27.87 24 26.04 25.58 24.44 27.39C22.84 29.21 21.47 31.26 21.47 31.26C21.47 31.26 20.08 29.19 18.46 27.36C16.84 25.53 14.98 23.94 14.98 23.94C14.98 23.94 16.82 22.37 18.43 20.56C20.04 18.75 21.42 16.7 21.42 16.7L21.42 16.7Z" />
		</g>
		<g id="Layer">
			<path id="Layer" class="shp14" d="M62.49 23.99C62.49 29.41 58.09 33.8 52.67 33.8C47.26 33.8 42.86 29.41 42.86 23.99C42.86 18.57 47.26 14.18 52.67 14.18C58.09 14.18 62.49 18.57 62.49 23.99Z" />
			<path id="Layer" class="shp15" d="M52.67 16.7C52.67 16.7 54.05 18.77 55.66 20.6C57.27 22.42 59.12 24 59.12 24C59.12 24 57.29 25.58 55.69 27.39C54.09 29.21 52.72 31.26 52.72 31.26C52.72 31.26 51.33 29.19 49.71 27.36C48.09 25.53 46.23 23.94 46.23 23.94C46.23 23.94 48.07 22.37 49.68 20.56C51.29 18.75 52.67 16.7 52.67 16.7L52.67 16.7Z" />
		</g>
		<g id="Layer">
			<path id="Layer" class="shp16" d="M45.86 50.72C45.86 56.14 41.47 60.53 36.05 60.53C30.63 60.53 26.24 56.14 26.24 50.72C26.24 45.3 30.63 40.91 36.05 40.91C41.47 40.91 45.86 45.3 45.86 50.72Z" />
			<path id="Layer" class="shp17" d="M36.04 43.43C36.04 43.43 37.42 45.5 39.03 47.33C40.65 49.15 42.49 50.73 42.49 50.73C42.49 50.73 40.66 52.31 39.06 54.12C37.46 55.94 36.1 57.99 36.1 57.99C36.1 57.99 34.71 55.92 33.08 54.09C31.46 52.26 29.6 50.67 29.6 50.67C29.6 50.67 31.45 49.1 33.06 47.29C34.67 45.48 36.04 43.43 36.04 43.43L36.04 43.43Z" />
		</g>
	</g>
</svg>