<svg xmlns="http://www.w3.org/2000/svg" viewBox="0 0 73 102" width="73" height="102">
	<defs>
		<filter x="-50%" y="-50%" width="200%" height="200%" id="flt1"> <feGaussianBlur stdDeviation="0.85" /> </filter>
		<linearGradient id="grd1" gradientUnits="userSpaceOnUse"  x1="41.804" y1="26.29" x2="43.949" y2="-90.092">
			<stop offset="0" stop-color="#f3f3f3"  />
			<stop offset="1" stop-color="#8f8f8f"  />
		</linearGradient>
		<radialGradient id="grd2" gradientUnits="userSpaceOnUse"  cx="10.857" cy="91.549" r="13.273">
			<stop offset="0" stop-color="#ffffff"  />
			<stop offset="1" stop-color="#ffffff" stop-opacity="0" />
		</radialGradient>
		<radialGradient id="grd3" gradientUnits="userSpaceOnUse"  cx="62.924" cy="12.493" r="14.287">
			<stop offset="0" stop-color="#ffffff"  />
			<stop offset="1" stop-color="#ffffff" stop-opacity="0" />
		</radialGradient>
		<radialGradient id="grd4" gradientUnits="userSpaceOnUse"  cx="37.308" cy="50.486" r="22.382">
			<stop offset="0" stop-color="#ffffff"  />
			<stop offset="1" stop-color="#ffffff" stop-opacity="0" />
		</radialGradient>
		<linearGradient id="grd5" gradientUnits="userSpaceOnUse"  x1="-867.311" y1="90.433" x2="-867.311" y2="87.093">
			<stop offset="0" stop-color="#d90000"  />
			<stop offset="1" stop-color="#950000"  />
		</linearGradient>
		<radialGradient id="grd6" gradientUnits="userSpaceOnUse"  cx="18.536" cy="73.735" r="25.374">
			<stop offset="0" stop-color="#9c0f0f"  />
			<stop offset="1" stop-color="#9c0f0f" stop-opacity="0" />
		</radialGradient>
		<linearGradient id="grd7" gradientUnits="userSpaceOnUse"  x1="-867.309" y1="70.503" x2="-867.309" y2="28.663">
			<stop offset="0" stop-color="#d90000"  />
			<stop offset="1" stop-color="#950000"  />
		</linearGradient>
		<linearGradient id="grd8" gradientUnits="userSpaceOnUse"  x1="-867.302" y1="15.953" x2="-867.302" y2="4.903">
			<stop offset="0" stop-color="#d90000"  />
			<stop offset="1" stop-color="#950000"  />
		</linearGradient>
		<linearGradient id="grd9" gradientUnits="userSpaceOnUse"  x1="-867.31" y1="20.963" x2="-867.31" y2="14.033">
			<stop offset="0" stop-color="#d90000"  />
			<stop offset="1" stop-color="#950000"  />
		</linearGradient>
	</defs>
	<style>
		tspan { white-space:pre }
		.shp0 { filter: url(#flt1);fill: #000000 } 
		.shp1 { fill: url(#grd1);stroke: #000000;stroke-width: 0.226 } 
		.shp2 { opacity: 0.467;fill: url(#grd2) } 
		.shp3 { opacity: 0.396;fill: url(#grd3) } 
		.shp4 { fill: none;stroke: #000000;stroke-width: 0.226 } 
		.shp5 { opacity: 0.455;fill: url(#grd4) } 
		.shp6 { fill: url(#grd5);stroke: #a40000;stroke-linejoin:round;stroke-width: 0.17 } 
		.shp7 { fill: url(#grd6) } 
		.shp8 { fill: url(#grd7);stroke: #a30000;stroke-width: 0.402 } 
		.shp9 { fill: url(#grd8) } 
		.shp10 { fill: url(#grd9);stroke: #a00000;stroke-linejoin:round;stroke-width: 0.353 } 
	</style>
	<g id="-e-Diamond12">
		<g id="Layer">
			<path id="Layer" fill-rule="evenodd" class="shp0" d="M4.85 1.47L68.96 1.47C69.36 1.47 69.75 1.55 70.12 1.7C70.49 1.85 70.82 2.07 71.1 2.35C71.38 2.63 71.6 2.97 71.75 3.33C71.9 3.7 71.98 4.09 71.98 4.49L71.98 97.64C71.98 98.03 71.9 98.43 71.75 98.79C71.6 99.16 71.38 99.49 71.1 99.77C70.82 100.05 70.49 100.27 70.12 100.43C69.75 100.58 69.36 100.66 68.96 100.66L4.85 100.66C4.45 100.66 4.06 100.58 3.7 100.43C3.33 100.27 3 100.05 2.72 99.77C2.44 99.49 2.21 99.16 2.06 98.79C1.91 98.43 1.83 98.03 1.83 97.64L1.83 4.49C1.83 4.09 1.91 3.7 2.06 3.33C2.21 2.97 2.44 2.63 2.72 2.35C3 2.07 3.33 1.85 3.7 1.7C4.06 1.55 4.45 1.47 4.85 1.47" />
			<path id="Layer" fill-rule="evenodd" class="shp1" d="M6.12 0.89L68.51 0.89C69.02 0.89 69.52 0.99 69.99 1.19C70.46 1.38 70.89 1.67 71.25 2.03C71.61 2.39 71.9 2.82 72.09 3.29C72.29 3.76 72.39 4.26 72.39 4.77L72.39 96.2C72.39 96.71 72.29 97.21 72.09 97.68C71.9 98.15 71.61 98.58 71.25 98.94C70.89 99.3 70.46 99.59 69.99 99.78C69.52 99.98 69.02 100.08 68.51 100.08L6.12 100.08C5.61 100.08 5.1 99.98 4.63 99.78C4.16 99.59 3.73 99.3 3.37 98.94C3.01 98.58 2.73 98.15 2.53 97.68C2.34 97.21 2.24 96.71 2.24 96.2L2.24 4.77C2.24 4.26 2.34 3.76 2.53 3.29C2.73 2.82 3.01 2.39 3.37 2.03C3.73 1.67 4.16 1.38 4.63 1.19C5.1 0.99 5.61 0.89 6.12 0.89" />
			<path id="Layer" class="shp2" d="M31.26 96.61L6.67 96.61C6.54 96.61 6.41 96.59 6.3 96.54C6.18 96.49 6.07 96.42 5.98 96.33C5.89 96.24 5.82 96.13 5.77 96.01C5.72 95.89 5.69 95.77 5.69 95.64L5.69 73.31C5.69 73.18 5.72 73.06 5.77 72.94C5.82 72.82 5.89 72.71 5.98 72.62C6.07 72.53 6.18 72.46 6.3 72.41C6.41 72.36 6.54 72.34 6.67 72.34L31.26 72.34C31.39 72.34 31.52 72.36 31.64 72.41C31.76 72.46 31.86 72.53 31.95 72.62C32.04 72.71 32.12 72.82 32.17 72.94C32.21 73.06 32.24 73.18 32.24 73.31L32.24 95.64C32.24 95.77 32.21 95.89 32.17 96.01C32.12 96.13 32.04 96.24 31.95 96.33C31.86 96.42 31.76 96.49 31.64 96.54C31.52 96.59 31.39 96.61 31.26 96.61" />
			<path id="Layer" class="shp3" d="M41.39 4.36L67.89 4.36C68.03 4.36 68.17 4.38 68.29 4.43C68.42 4.49 68.53 4.56 68.63 4.66C68.72 4.76 68.8 4.87 68.85 5C68.9 5.12 68.93 5.26 68.93 5.39L68.93 48.59C68.93 48.73 68.9 48.86 68.85 48.99C68.8 49.11 68.72 49.23 68.63 49.32C68.53 49.42 68.42 49.5 68.29 49.55C68.17 49.6 68.03 49.63 67.89 49.63L41.39 49.63C41.26 49.63 41.12 49.6 41 49.55C40.87 49.5 40.76 49.42 40.66 49.32C40.57 49.23 40.49 49.11 40.44 48.99C40.38 48.86 40.36 48.73 40.36 48.59L40.36 5.39C40.36 5.26 40.38 5.12 40.44 5C40.49 4.87 40.57 4.76 40.66 4.66C40.76 4.56 40.87 4.49 41 4.43C41.12 4.38 41.26 4.36 41.39 4.36" />
			<path id="Layer" class="shp4" d="M20.66 92.59L65.38 92.59L65.38 18.98" />
			<path id="Layer" class="shp4" d="M53.81 8.38L9.25 8.38L9.25 81.56" />
			<path id="Layer" class="shp5" d="M59.68 50.49C59.68 72.38 49.66 90.12 37.3 90.12C24.94 90.12 14.92 72.38 14.92 50.49C14.92 28.6 24.94 10.85 37.3 10.85C49.66 10.85 59.68 28.6 59.68 50.49Z" />
		</g>
		<path id="Layer" class="shp6" d="M12.44 85.28C12.44 85.28 13.11 86.28 13.88 87.16C14.66 88.03 15.55 88.8 15.55 88.8C15.55 88.8 14.67 89.55 13.9 90.43C13.13 91.3 12.47 92.29 12.47 92.29C12.47 92.29 11.8 91.29 11.02 90.41C10.24 89.53 9.34 88.77 9.34 88.77C9.34 88.77 10.23 88.01 11.01 87.14C11.78 86.27 12.44 85.28 12.44 85.28L12.44 85.28Z" />
		<path id="Layer" fill-rule="evenodd" class="shp7" d="M18.44 89.35C18.44 89.35 18.44 89.35 18.44 89.35C18.44 89.35 18.44 89.35 18.44 89.35L18.44 89.35ZM18.44 89.35C16.13 83.58 14.57 83.75 12.58 83.17L15.55 83.17C15.57 83.07 15.59 82.97 15.61 82.87C15.66 82.62 15.73 82.38 15.81 82.13C15.81 81.8 15.81 81.47 15.81 81.14C15.82 80.42 15.92 79.71 16.02 79.01C16.03 78.82 16.06 78.64 16.09 78.46C15.99 78.38 16.01 77.84 16.27 76.78C16.32 76.56 16.36 76.35 16.4 76.13C16.49 75.63 16.6 75.13 16.71 74.64C16.83 74.04 17.03 73.47 17.21 72.9C17.45 72.21 17.74 71.55 18.02 70.88C18.37 70.07 18.73 69.25 19.09 68.44C19.58 67.35 20.13 66.28 20.67 65.21C21.36 63.9 21.96 62.56 22.55 61.2C23.25 59.54 23.93 57.88 24.62 56.23C25.37 54.46 26.08 52.67 26.75 50.87C26.8 50.76 26.84 50.64 26.88 50.53C26.87 50.49 26.86 50.45 26.86 50.41C26.86 50.28 26.92 50.17 27.02 50.12C27.62 48.44 28.16 46.74 28.68 45.04C29.34 42.89 29.89 40.72 30.33 38.52C30.78 35.96 30.89 33.36 30.86 30.77C30.8 28.66 30.58 26.56 30.33 24.46C30.23 24.55 30.09 24.61 29.94 24.61C29.61 24.61 29.34 24.34 29.34 24.01C29.34 23.67 29.61 23.4 29.94 23.4C30.04 23.4 30.14 23.43 30.22 23.47L30.15 22.9C30.05 22.16 29.95 21.42 29.84 20.68C29.79 20.79 29.67 20.86 29.55 20.86C29.36 20.86 29.22 20.71 29.22 20.53C29.22 20.35 29.36 20.2 29.55 20.2C29.64 20.2 29.72 20.23 29.78 20.28C29.68 19.59 29.57 18.89 29.46 18.2C29.29 17.12 29.32 16.48 29.44 16.32C29.34 16.21 29.28 16.06 29.28 15.9C29.28 15.56 29.55 15.3 29.88 15.3C30.21 15.3 30.49 15.56 30.49 15.9C30.49 16.23 30.21 16.51 29.88 16.51C29.81 16.51 29.75 16.49 29.69 16.47C29.81 16.71 29.93 17.16 30.04 17.86C30.29 19.43 30.52 21 30.72 22.57C31.04 25.19 31.35 27.81 31.43 30.44C31.45 33.03 31.35 35.63 30.91 38.18C30.48 40.38 29.92 42.55 29.26 44.7C28.7 46.55 28.12 48.39 27.46 50.21C27.5 50.26 27.53 50.33 27.53 50.41C27.53 50.56 27.42 50.7 27.27 50.73C26.62 52.46 25.93 54.18 25.21 55.89C24.52 57.54 23.84 59.2 23.14 60.86C22.56 62.21 21.95 63.56 21.27 64.87C20.73 65.93 20.18 67 19.7 68.1C19.34 68.91 18.98 69.72 18.63 70.53C18.35 71.2 18.06 71.86 17.82 72.54C17.64 73.12 17.45 73.69 17.32 74.28C17.31 74.35 17.3 74.42 17.28 74.49C17.47 74.07 17.66 73.65 17.86 73.23C18.02 72.92 18.18 72.61 18.35 72.31C18.35 72.3 18.35 72.3 18.36 72.29C18.43 72.04 18.57 71.82 18.67 71.58C18.84 71.23 19.06 70.91 19.25 70.58C19.44 70.26 19.65 69.96 19.87 69.66C20.44 68.66 21.1 67.71 21.78 66.77C22.3 66.05 22.91 65.4 23.54 64.76C23.56 64.62 23.67 64.5 23.81 64.48L24.33 63.96C25.33 63.02 26.37 62.1 27.38 61.16C28.56 60.05 29.71 58.9 30.85 57.75C32.16 56.44 33.36 55.03 34.47 53.55C35.72 51.85 36.76 50 37.77 48.14C38.11 47.54 38.42 46.93 38.71 46.31L38.59 46.33C38.26 46.33 37.99 46.05 37.99 45.72C37.99 45.39 38.26 45.12 38.59 45.12C38.81 45.12 39.01 45.24 39.11 45.42C39.6 44.31 40.04 43.18 40.42 42.03L40.49 41.8C40.45 41.53 40.43 41.13 40.45 40.58C40.48 39.64 40.5 38.7 40.47 37.77C40.42 36.08 40.31 34.4 40.08 32.72C39.9 31.58 39.72 30.44 39.39 29.33C39.22 28.77 39.07 28.2 38.82 27.67C38.73 27.53 38.68 27.35 38.55 27.24C36.62 25.55 37.26 25.16 39.17 26.87C39.3 26.99 39.35 27.17 39.44 27.32C39.69 27.85 39.84 28.42 40 28.98C40.33 30.09 40.5 31.24 40.68 32.38C40.9 34.05 41 35.73 41.06 37.42C41.08 38.13 41.07 38.84 41.05 39.55C41.37 38.07 41.6 36.55 41.79 35.04C41.85 34.38 41.87 33.7 41.89 33.04C41.82 33.06 41.75 33.08 41.68 33.08C41.35 33.08 41.07 32.8 41.07 32.47C41.07 32.14 41.35 31.87 41.68 31.87C41.76 31.87 41.84 31.89 41.91 31.92C41.92 30.88 41.89 29.85 41.86 28.81C41.62 28.73 41.44 28.51 41.44 28.24C41.44 27.98 41.6 27.76 41.83 27.68C41.82 27.57 41.82 27.46 41.81 27.35C41.8 26.93 41.79 26.52 41.77 26.1C41.68 23.76 42.26 23.43 42.34 25.77C42.36 26.19 42.37 26.6 42.39 27.02C42.39 27.27 42.4 27.51 42.41 27.76C42.55 27.87 42.65 28.05 42.65 28.24C42.65 28.42 42.57 28.58 42.44 28.69C42.5 30.7 42.52 32.71 42.36 34.71C42.07 37.07 41.69 39.42 41 41.7C40.29 43.81 39.44 45.87 38.35 47.81C37.34 49.67 36.31 51.51 35.06 53.21C33.95 54.69 32.76 56.1 31.45 57.41C30.31 58.56 29.15 59.7 27.97 60.81C26.97 61.76 25.93 62.67 24.93 63.61C24.63 63.91 24.32 64.21 24.03 64.52C24.1 64.56 24.16 64.64 24.18 64.72C24.94 63.95 25.75 63.22 26.55 62.49L29.36 60C30.34 59.11 31.34 58.24 32.34 57.36C33.46 56.39 34.55 55.38 35.63 54.35C36.85 53.2 38.04 52.01 39.22 50.81C40.47 49.55 41.65 48.23 42.8 46.88C43.67 45.83 44.51 44.76 45.32 43.66C45.31 43.62 45.31 43.58 45.31 43.54C45.31 43.23 45.55 42.98 45.85 42.95L46.46 42.11C47.54 40.62 48.52 39.07 49.44 37.48C49.41 37.49 49.37 37.5 49.33 37.5C49.15 37.5 49 37.35 49 37.16C49 36.98 49.15 36.83 49.33 36.83C49.49 36.83 49.62 36.94 49.65 37.09C49.74 36.94 49.83 36.8 49.92 36.65C50.99 34.64 52.02 32.59 52.71 30.41C53.23 28.51 53.52 26.57 53.83 24.62C54.2 22.29 54.78 21.95 54.41 24.28C54.1 26.23 53.8 28.18 53.29 30.08C52.61 32.26 51.58 34.31 50.5 36.32C49.45 38.19 48.31 40.03 47.05 41.77C46.75 42.18 46.45 42.58 46.15 42.99C46.37 43.08 46.52 43.3 46.52 43.54C46.52 43.88 46.25 44.15 45.91 44.15C45.73 44.15 45.56 44.06 45.45 43.93C44.78 44.81 44.09 45.69 43.38 46.54C42.24 47.89 41.06 49.21 39.81 50.47C39.24 51.05 38.66 51.62 38.09 52.2C38.26 52.03 38.56 51.76 39.02 51.37C40.12 50.43 41.24 49.5 42.39 48.63C43.48 47.81 44.58 47.02 45.8 46.42C45.9 46.22 46.1 46.09 46.34 46.09C46.39 46.09 46.44 46.09 46.49 46.1C46.68 46.03 46.86 45.98 47.07 45.97C49.49 45.81 49.03 46.14 46.79 46.3C46.88 46.41 46.94 46.54 46.94 46.69C46.94 47.02 46.67 47.3 46.34 47.3C46 47.3 45.73 47.02 45.73 46.69C45.73 46.63 45.75 46.57 45.77 46.51L45.26 46.73C44.86 46.89 43.82 47.66 42.99 48.29C41.84 49.17 40.71 50.09 39.61 51.03C38.47 52 37.81 52.5 37.92 52.36C37.36 52.91 36.8 53.46 36.23 54.01C35.15 55.03 34.06 56.04 32.94 57.02C31.95 57.9 30.94 58.77 29.96 59.66C29.03 60.49 28.09 61.32 27.16 62.14C26.29 62.93 25.43 63.71 24.62 64.55C23.9 65.28 23.17 66.02 22.5 66.8C21.98 67.42 21.45 68.03 20.96 68.67L20.44 69.37C20.41 69.42 20.38 69.46 20.36 69.51C19.9 70.28 19.45 71.05 19.02 71.84L18.98 71.93C18.94 72.05 18.9 72.18 18.84 72.3C18.49 73.07 18.19 73.62 17.97 73.93C17.65 74.64 17.36 75.37 17.15 76.13C16.92 76.96 16.71 77.79 16.62 78.65C16.54 79.26 16.47 79.87 16.44 80.48L16.58 80.17C16.9 79.56 17.29 78.99 17.67 78.41C17.98 77.94 18.33 77.49 18.69 77.05C18.61 76.95 18.57 76.83 18.57 76.69C18.57 76.36 18.84 76.09 19.18 76.09C19.29 76.09 19.39 76.12 19.48 76.17C20.06 75.57 20.68 75.01 21.3 74.45C22.11 73.71 22.97 73.02 23.83 72.35C24.87 71.54 25.96 70.83 27.06 70.12C28.31 69.31 29.59 68.53 30.87 67.76L31.17 67.59C30.91 67.52 30.73 67.29 30.73 67.01C30.73 66.68 31 66.41 31.34 66.41C31.67 66.41 31.94 66.68 31.94 67.01C31.94 67.35 31.67 67.62 31.34 67.62C31.29 67.62 31.23 67.61 31.19 67.6C30.13 68.24 29.09 68.88 28.06 69.55C26.96 70.26 25.87 70.97 24.85 71.77C23.98 72.44 23.12 73.12 22.31 73.87C21.58 74.52 20.84 75.18 20.18 75.91L19.73 76.45C19.76 76.52 19.78 76.61 19.78 76.69C19.78 77.03 19.51 77.29 19.18 77.29C19.14 77.29 19.1 77.29 19.07 77.29C18.94 77.46 18.81 77.64 18.69 77.83C18.31 78.4 17.93 78.97 17.61 79.58C17.38 80.05 17.15 80.51 17 81.02C16.93 81.25 16.86 81.48 16.79 81.71C16.88 81.77 16.93 81.87 16.93 81.98C16.93 82.16 16.8 82.3 16.63 82.31C16.58 82.61 16.5 82.91 16.5 83.22C16.52 83.39 16.51 83.57 16.54 83.74C16.56 83.84 16.57 83.95 16.6 84.05C16.87 85.25 18.97 88.45 18.44 89.35ZM18.69 84.34C18.69 84.16 18.84 84.01 19.03 84.01C19.21 84.01 19.36 84.16 19.36 84.34C19.36 84.53 19.21 84.68 19.03 84.68C18.84 84.68 18.69 84.53 18.69 84.34ZM13.79 82.38C13.79 82.04 14.06 81.77 14.4 81.77C14.73 81.77 15 82.04 15 82.38C15 82.71 14.73 82.99 14.4 82.99C14.06 82.99 13.79 82.71 13.79 82.38ZM17.06 81.65C17.06 81.32 17.33 81.05 17.66 81.05C18 81.05 18.27 81.32 18.27 81.65C18.27 81.98 18 82.26 17.66 82.26C17.33 82.26 17.06 81.98 17.06 81.65ZM13.07 80.23C13.07 80.05 13.22 79.9 13.4 79.9C13.58 79.9 13.73 80.05 13.73 80.23C13.73 80.41 13.58 80.56 13.4 80.56C13.22 80.56 13.07 80.41 13.07 80.23ZM14.58 79.68C14.58 79.5 14.73 79.35 14.91 79.35C15.1 79.35 15.24 79.5 15.24 79.68C15.24 79.87 15.1 80.02 14.91 80.02C14.73 80.02 14.58 79.87 14.58 79.68ZM20.02 78.69C20.02 78.35 20.29 78.09 20.62 78.09C20.96 78.09 21.23 78.35 21.23 78.69C21.23 79.02 20.96 79.3 20.62 79.3C20.29 79.3 20.02 79.02 20.02 78.69ZM21.71 77.93C21.71 77.75 21.86 77.6 22.05 77.6C22.23 77.6 22.38 77.75 22.38 77.93C22.38 78.11 22.23 78.26 22.05 78.26C21.86 78.26 21.71 78.11 21.71 77.93ZM13.12 77C13.12 76.66 13.4 76.39 13.73 76.39C14.06 76.39 14.34 76.66 14.34 77C14.34 77.33 14.06 77.6 13.73 77.6C13.4 77.6 13.12 77.33 13.12 77ZM14.52 75.24C14.52 74.9 14.79 74.64 15.12 74.64C15.46 74.64 15.72 74.9 15.72 75.24C15.72 75.57 15.46 75.85 15.12 75.85C14.79 75.85 14.52 75.57 14.52 75.24ZM22.63 75.27C22.63 75.09 22.77 74.94 22.96 74.94C23.14 74.94 23.29 75.09 23.29 75.27C23.29 75.46 23.14 75.61 22.96 75.61C22.77 75.61 22.63 75.46 22.63 75.27ZM26.73 74.45C26.73 74.12 27.01 73.85 27.34 73.85C27.67 73.85 27.95 74.12 27.95 74.45C27.95 74.79 27.67 75.06 27.34 75.06C27.01 75.06 26.73 74.79 26.73 74.45ZM20.26 73.73C20.26 73.4 20.54 73.12 20.87 73.12C21.21 73.12 21.47 73.4 21.47 73.73C21.47 74.07 21.21 74.33 20.87 74.33C20.54 74.33 20.26 74.07 20.26 73.73ZM23.24 74.18C23.22 74.18 23.59 73.89 24.46 73.25C24.93 72.9 25.39 72.53 25.9 72.23C27.02 71.56 28.13 70.89 29.32 70.36C30.17 69.98 31.02 69.6 31.89 69.26C32.49 69.02 33.09 68.78 33.7 68.54L34.49 68.25C36.87 67.33 36.25 67.7 33.87 68.61L33.09 68.9C32.48 69.13 31.88 69.37 31.27 69.62C30.73 69.82 30.2 70.06 29.67 70.29C29.99 70.31 30.25 70.56 30.25 70.88C30.25 71.22 29.97 71.49 29.64 71.49C29.3 71.49 29.04 71.22 29.04 70.88C29.04 70.73 29.09 70.61 29.18 70.5L28.71 70.71C28.04 70.97 26.72 71.76 26.51 71.88C26 72.19 25.54 72.56 25.06 72.9C23.95 73.72 23.27 74.19 23.24 74.18L23.24 74.18ZM14.21 72.94C14.21 72.61 14.49 72.34 14.82 72.34C15.15 72.34 15.43 72.61 15.43 72.94C15.43 73.27 15.15 73.55 14.82 73.55C14.49 73.55 14.21 73.27 14.21 72.94ZM27.7 72.55C27.7 72.37 27.85 72.22 28.03 72.22C28.22 72.22 28.37 72.37 28.37 72.55C28.37 72.73 28.22 72.88 28.03 72.88C27.85 72.88 27.7 72.73 27.7 72.55ZM16.45 71.43C16.45 71.09 16.73 70.83 17.06 70.83C17.39 70.83 17.66 71.09 17.66 71.43C17.66 71.76 17.39 72.03 17.06 72.03C16.73 72.03 16.45 71.76 16.45 71.43ZM19.72 71.25C19.72 70.92 19.99 70.64 20.33 70.64C20.66 70.64 20.93 70.92 20.93 71.25C20.93 71.58 20.66 71.85 20.33 71.85C19.99 71.85 19.72 71.58 19.72 71.25ZM11.79 71.04C11.79 70.85 11.94 70.71 12.13 70.71C12.31 70.71 12.46 70.85 12.46 71.04C12.46 71.22 12.31 71.37 12.13 71.37C11.94 71.37 11.79 71.22 11.79 71.04ZM32.91 69.89C32.91 69.7 33.05 69.55 33.24 69.55C33.42 69.55 33.57 69.7 33.57 69.89C33.57 70.07 33.42 70.22 33.24 70.22C33.05 70.22 32.91 70.07 32.91 69.89ZM25.4 69.55C25.4 69.22 25.68 68.95 26.01 68.95C26.35 68.95 26.61 69.22 26.61 69.55C26.61 69.89 26.35 70.16 26.01 70.16C25.68 70.16 25.4 69.89 25.4 69.55ZM36.69 69.62C36.5 69.62 36.36 69.47 36.36 69.28C36.36 69.22 36.37 69.16 36.4 69.11C36.35 69.12 36.3 69.13 36.24 69.13C35.9 69.13 35.63 68.86 35.63 68.53C35.63 68.19 35.9 67.92 36.24 67.92C36.57 67.92 36.84 68.19 36.84 68.53C36.84 68.69 36.77 68.84 36.66 68.95L36.69 68.95C36.87 68.95 37.02 69.1 37.02 69.28C37.02 69.47 36.87 69.62 36.69 69.62L36.69 69.62ZM38.17 67.62C38.17 67.28 38.44 67.01 38.77 67.01C39.11 67.01 39.38 67.28 39.38 67.62C39.38 67.95 39.11 68.22 38.77 68.22C38.44 68.22 38.17 67.95 38.17 67.62ZM17.54 67.62C17.54 67.28 17.82 67.01 18.15 67.01C18.48 67.01 18.75 67.28 18.75 67.62C18.75 67.95 18.48 68.22 18.15 68.22C17.82 68.22 17.54 67.95 17.54 67.62ZM22.32 67.56C22.32 67.23 22.59 66.95 22.92 66.95C23.26 66.95 23.53 67.23 23.53 67.56C23.53 67.89 23.26 68.16 22.92 68.16C22.59 68.16 22.32 67.89 22.32 67.56ZM39.98 67.77C39.98 67.59 40.13 67.44 40.31 67.44C40.5 67.44 40.65 67.59 40.65 67.77C40.65 67.96 40.5 68.1 40.31 68.1C40.13 68.1 39.98 67.95 39.98 67.77ZM26.98 67.35C26.98 67.16 27.13 67.01 27.31 67.01C27.5 67.01 27.65 67.16 27.65 67.35C27.65 67.53 27.5 67.68 27.31 67.68C27.13 67.68 26.98 67.53 26.98 67.35ZM21.78 67.28C21.78 67.28 21.78 67.28 21.78 67.28C21.78 67.28 21.78 67.28 21.78 67.28L21.78 67.28ZM21.78 67.28C21.81 67.24 21.85 67.2 21.88 67.16C22.49 66.45 23.13 65.79 23.78 65.13C23.7 65.11 23.62 65.05 23.58 64.98C23.15 65.44 22.75 65.92 22.38 66.43C22.17 66.71 21.98 67 21.78 67.28ZM33.28 66.37C33.29 66.37 33.29 66.36 33.3 66.36C33.29 66.36 33.29 66.37 33.28 66.37L33.28 66.37ZM33.3 66.36C34.27 65.8 35.25 65.25 36.23 64.7C36.35 64.64 36.54 64.53 36.7 64.44C36.47 64.36 36.29 64.13 36.29 63.87C36.29 63.53 36.57 63.26 36.9 63.26C37.23 63.26 37.5 63.53 37.5 63.87C37.5 63.92 37.5 63.96 37.49 64L39.56 62.84C38.87 63.24 38.17 63.63 37.48 64.02C37.41 64.28 37.18 64.47 36.9 64.47C36.84 64.47 36.78 64.46 36.73 64.45C36.24 64.73 35.74 65 35.24 65.27C34.54 65.66 33.87 66.03 33.3 66.36ZM40.71 65.95C40.71 65.77 40.86 65.62 41.04 65.62C41.23 65.62 41.38 65.77 41.38 65.95C41.38 66.14 41.23 66.29 41.04 66.29C40.86 66.29 40.71 66.14 40.71 65.95ZM17.9 65.38C17.57 65.38 17.3 65.11 17.3 64.77C17.3 64.44 17.57 64.17 17.9 64.17C18.01 64.17 18.12 64.2 18.21 64.25C18.21 64.07 18.36 63.93 18.54 63.93C18.72 63.93 18.87 64.08 18.87 64.26C18.87 64.45 18.72 64.6 18.54 64.6C18.52 64.6 18.5 64.59 18.48 64.59C18.49 64.65 18.51 64.71 18.51 64.77C18.51 65.11 18.24 65.38 17.9 65.38L17.9 65.38ZM15.6 64.99C15.6 64.8 15.75 64.65 15.94 64.65C16.12 64.65 16.27 64.8 16.27 64.99C16.27 65.17 16.12 65.32 15.94 65.32C15.75 65.32 15.6 65.17 15.6 64.99ZM19.54 62.42C19.54 62.09 19.81 61.81 20.14 61.81C20.48 61.81 20.74 62.09 20.74 62.42C20.74 62.75 20.48 63.02 20.14 63.02C19.81 63.02 19.54 62.75 19.54 62.42ZM45.37 62.57C45.37 62.38 45.52 62.24 45.7 62.24C45.89 62.24 46.03 62.38 46.03 62.57C46.03 62.75 45.89 62.9 45.7 62.9C45.52 62.9 45.37 62.75 45.37 62.57ZM39.8 62.7L39.83 62.68C39.82 62.68 39.81 62.69 39.8 62.7L39.8 62.7ZM39.83 62.68C41.3 61.81 42.71 60.84 44.07 59.81C45.12 59.01 46.12 58.14 47.07 57.23C47.08 57.22 47.08 57.21 47.08 57.19C46.6 57.61 46.1 57.99 45.6 58.39C43.7 59.91 43.09 60.26 45 58.74C45.55 58.3 46.1 57.88 46.63 57.41C47.35 56.79 48.08 56.15 48.79 55.52C50.06 54.16 51.17 52.67 52.22 51.14C53.47 49.37 54.39 47.41 55.14 45.38C55.93 43.17 56.25 40.86 56.42 38.53C56.63 36.45 56.45 34.38 56.19 32.32C55.7 28.46 56.65 27.92 57.14 31.77C57.41 33.83 57.59 35.9 57.38 37.98C57.23 40 56.97 42.01 56.39 43.95C56.5 43.85 56.64 43.78 56.8 43.78C57.14 43.78 57.4 44.06 57.4 44.39C57.4 44.72 57.14 45 56.8 45C56.51 45 56.26 44.79 56.21 44.51C56.17 44.61 56.15 44.72 56.11 44.82C55.36 46.85 54.44 48.8 53.19 50.58C52.49 51.59 51.77 52.59 51 53.54C51.55 53.04 52.11 52.53 52.65 52.01L53.33 51.32C53.38 51.17 53.49 51.06 53.63 50.99C54.08 50.5 54.5 50 54.87 49.43C55.44 48.59 56 47.75 56.55 46.89C57.09 46.04 57.63 45.19 58.15 44.32C58.6 43.57 59.05 42.83 59.45 42.05C59.67 41.58 59.91 41.12 60.07 40.62C60.14 40.44 60.19 40.24 60.28 40.06C60.51 39.6 60.71 39.24 60.89 38.95C60.69 38.85 60.55 38.64 60.55 38.4C60.55 38.08 60.8 37.82 61.12 37.8C61.03 37.74 60.97 37.64 60.97 37.53C60.97 37.34 61.12 37.19 61.31 37.19C61.49 37.19 61.64 37.34 61.64 37.53C61.64 37.68 61.53 37.81 61.39 37.84C61.61 37.94 61.76 38.15 61.76 38.4C61.76 38.7 61.54 38.95 61.25 39C61.16 39.2 61.04 39.43 60.9 39.7C60.81 39.88 60.76 40.07 60.69 40.26C60.53 40.76 60.29 41.23 60.07 41.7L59.83 42.14C59.94 42.04 60.08 41.97 60.25 41.97C60.58 41.97 60.85 42.24 60.85 42.57C60.85 42.91 60.58 43.18 60.25 43.18C59.91 43.18 59.64 42.91 59.64 42.57C59.64 42.53 59.65 42.49 59.66 42.45C59.37 42.96 59.06 43.46 58.76 43.97C58.24 44.83 57.7 45.69 57.16 46.54C56.61 47.4 56.04 48.24 55.47 49.08C55.04 49.75 54.52 50.35 53.97 50.93C54.27 50.97 54.5 51.22 54.5 51.53C54.5 51.87 54.23 52.13 53.9 52.13C53.59 52.13 53.34 51.91 53.3 51.62L53.25 51.67C52.3 52.57 51.33 53.44 50.35 54.32L50.3 54.36C49.99 54.72 49.66 55.07 49.33 55.41C48.87 55.88 48.4 56.34 47.92 56.78C48.13 56.88 48.27 57.09 48.27 57.34C48.27 57.67 48 57.94 47.67 57.94C47.41 57.94 47.19 57.77 47.1 57.54C46.44 58.13 45.76 58.7 45.05 59.24C43.66 60.29 42.22 61.29 40.7 62.17L39.83 62.68ZM36.12 62.21C36.12 62.02 36.26 61.88 36.45 61.88C36.63 61.88 36.78 62.02 36.78 62.21C36.78 62.39 36.63 62.54 36.45 62.54C36.26 62.54 36.12 62.39 36.12 62.21ZM42.5 62.29L42.44 62.29C42.25 62.29 42.1 62.14 42.1 61.96C42.1 61.78 42.25 61.63 42.44 61.63C42.62 61.63 42.77 61.78 42.77 61.96C42.77 62.12 42.65 62.26 42.5 62.29ZM28.49 61.51C28.49 61.17 28.76 60.91 29.09 60.91C29.43 60.91 29.7 61.17 29.7 61.51C29.7 61.84 29.43 62.12 29.09 62.12C28.76 62.12 28.49 61.84 28.49 61.51ZM30.61 61.6C30.61 61.42 30.76 61.27 30.94 61.27C31.12 61.27 31.27 61.42 31.27 61.6C31.27 61.78 31.12 61.93 30.94 61.93C30.76 61.93 30.61 61.78 30.61 61.6ZM39.38 60.09C39.38 59.9 39.53 59.75 39.71 59.75C39.9 59.75 40.05 59.9 40.05 60.09C40.05 60.27 39.9 60.42 39.71 60.42C39.53 60.42 39.38 60.27 39.38 60.09ZM42.1 59.63C42.1 59.3 42.37 59.03 42.7 59.03C43.04 59.03 43.31 59.3 43.31 59.63C43.31 59.97 43.04 60.24 42.7 60.24C42.37 60.24 42.1 59.97 42.1 59.63ZM20.74 59.39C20.74 59.06 21.02 58.79 21.35 58.79C21.69 58.79 21.96 59.06 21.96 59.39C21.96 59.73 21.69 59.99 21.35 59.99C21.02 59.99 20.74 59.73 20.74 59.39ZM49.66 59.06C49.66 58.88 49.81 58.73 49.99 58.73C50.18 58.73 50.33 58.88 50.33 59.06C50.33 59.24 50.18 59.39 49.99 59.39C49.81 59.39 49.66 59.24 49.66 59.06ZM28.07 58.67C28.07 58.33 28.34 58.06 28.67 58.06C29 58.06 29.28 58.33 29.28 58.67C29.28 59 29 59.27 28.67 59.27C28.34 59.27 28.07 59 28.07 58.67ZM19.3 57.91C19.3 57.73 19.44 57.58 19.63 57.58C19.81 57.58 19.96 57.73 19.96 57.91C19.96 58.09 19.81 58.24 19.63 58.24C19.44 58.24 19.3 58.09 19.3 57.91ZM43.43 57.58C43.43 57.24 43.7 56.98 44.03 56.98C44.37 56.98 44.64 57.24 44.64 57.58C44.64 57.91 44.37 58.18 44.03 58.18C43.7 58.18 43.43 57.91 43.43 57.58ZM22.32 57.58C21.99 57.58 21.71 57.31 21.71 56.98C21.71 56.74 21.85 56.55 22.04 56.45C22.03 56.41 22.02 56.38 22.02 56.34C22.02 56.16 22.17 56.01 22.35 56.01C22.53 56.01 22.68 56.16 22.68 56.34C22.68 56.39 22.68 56.43 22.66 56.47C22.82 56.58 22.92 56.77 22.92 56.98C22.92 57.31 22.66 57.58 22.32 57.58L22.32 57.58ZM34.78 56.43C34.78 56.1 35.05 55.82 35.39 55.82C35.72 55.82 35.99 56.1 35.99 56.43C35.99 56.76 35.72 57.03 35.39 57.03C35.05 57.03 34.78 56.76 34.78 56.43ZM24.24 56.81C24.12 56.82 24.1 56.31 24.31 55.21C24.55 53.94 24.78 52.67 24.92 51.39C25.07 49.81 25.17 48.23 25.11 46.64C25.05 45.45 24.97 44.27 24.77 43.1C24.64 42.31 24.51 41.51 24.31 40.74C24.22 40.44 24.16 40.13 24.03 39.84C22.94 37.53 23.6 37.15 24.65 39.48C24.78 39.77 24.84 40.08 24.93 40.38C25.13 41.16 25.25 41.95 25.38 42.74C25.58 43.92 25.65 45.1 25.71 46.29C25.77 47.88 25.66 49.47 25.5 51.05C25.36 52.33 25.13 53.6 24.89 54.87C24.66 56.12 24.38 56.8 24.24 56.81L24.24 56.81ZM36.84 56.46C36.84 56.28 36.98 56.13 37.17 56.13C37.35 56.13 37.5 56.28 37.5 56.46C37.5 56.64 37.35 56.79 37.17 56.79C36.98 56.79 36.84 56.64 36.84 56.46ZM26.92 56.22C26.92 56.04 27.07 55.89 27.25 55.89C27.43 55.89 27.58 56.04 27.58 56.22C27.58 56.4 27.43 56.55 27.25 56.55C27.07 56.55 26.92 56.4 26.92 56.22ZM30.61 54.85C30.61 54.52 30.88 54.25 31.22 54.25C31.55 54.25 31.82 54.52 31.82 54.85C31.82 55.19 31.55 55.46 31.22 55.46C30.88 55.46 30.61 55.19 30.61 54.85ZM47.48 54.37C47.48 54.04 47.76 53.77 48.09 53.77C48.43 53.77 48.69 54.04 48.69 54.37C48.69 54.71 48.43 54.97 48.09 54.97C47.76 54.97 47.48 54.71 47.48 54.37ZM54.56 53.25C54.56 53.07 54.71 52.92 54.89 52.92C55.08 52.92 55.23 53.07 55.23 53.25C55.23 53.43 55.08 53.58 54.89 53.58C54.71 53.58 54.56 53.43 54.56 53.25ZM42.77 50.14C42.77 49.8 43.03 49.53 43.37 49.53C43.7 49.53 43.98 49.8 43.98 50.14C43.98 50.47 43.7 50.74 43.37 50.74C43.04 50.74 42.77 50.47 42.77 50.14ZM49.48 49.44C49.48 49.25 49.63 49.11 49.81 49.11C49.99 49.11 50.15 49.26 50.15 49.44C50.15 49.62 49.99 49.77 49.81 49.77C49.63 49.77 49.48 49.62 49.48 49.44ZM19.78 48.75C19.78 48.41 20.05 48.14 20.38 48.14C20.72 48.14 20.99 48.41 20.99 48.75C20.99 49.08 20.72 49.35 20.38 49.35C20.05 49.35 19.78 49.08 19.78 48.75ZM35.08 48.51C35.08 48.17 35.36 47.9 35.69 47.9C36.02 47.9 36.29 48.17 36.29 48.51C36.29 48.84 36.02 49.11 35.69 49.11C35.36 49.11 35.08 48.84 35.08 48.51ZM58.68 48.05C58.68 47.87 58.82 47.72 59.01 47.72C59.19 47.72 59.34 47.87 59.34 48.05C59.34 48.24 59.19 48.39 59.01 48.39C58.82 48.39 58.68 48.24 58.68 48.05ZM57.64 47.3C57.64 46.96 57.92 46.69 58.25 46.69C58.59 46.69 58.86 46.96 58.86 47.3C58.86 47.63 58.59 47.9 58.25 47.9C57.92 47.9 57.64 47.63 57.64 47.3ZM38.84 47.11C38.84 46.78 39.1 46.5 39.44 46.5C39.77 46.5 40.05 46.78 40.05 47.11C40.05 47.45 39.77 47.72 39.44 47.72C39.1 47.72 38.84 47.45 38.84 47.11ZM28.85 46.45C28.85 46.11 29.12 45.84 29.45 45.84C29.79 45.84 30.06 46.11 30.06 46.45C30.06 46.78 29.79 47.05 29.45 47.05C29.12 47.05 28.85 46.78 28.85 46.45ZM22.8 44.11C22.8 43.93 22.95 43.78 23.13 43.78C23.32 43.78 23.47 43.93 23.47 44.11C23.47 44.3 23.32 44.45 23.13 44.45C22.95 44.45 22.8 44.3 22.8 44.11ZM26.01 43.73C26.01 43.39 26.28 43.12 26.61 43.12C26.95 43.12 27.22 43.39 27.22 43.73C27.22 44.06 26.95 44.33 26.61 44.33C26.28 44.33 26.01 44.06 26.01 43.73ZM52.69 43.54C52.69 43.21 52.95 42.94 53.29 42.94C53.62 42.94 53.9 43.21 53.9 43.54C53.9 43.88 53.62 44.15 53.29 44.15C52.95 44.15 52.69 43.88 52.69 43.54ZM30 43.21C30 43.03 30.16 42.88 30.34 42.88C30.52 42.88 30.67 43.03 30.67 43.21C30.67 43.39 30.52 43.54 30.34 43.54C30.16 43.54 30 43.39 30 43.21ZM38.11 40.4C38.11 40.06 38.38 39.8 38.72 39.8C39.05 39.8 39.32 40.06 39.32 40.4C39.32 40.73 39.05 41 38.72 41C38.38 41 38.11 40.73 38.11 40.4ZM45.25 40.34C45.25 40.01 45.52 39.73 45.85 39.73C46.18 39.73 46.46 40.01 46.46 40.34C46.46 40.67 46.18 40.94 45.85 40.94C45.52 40.94 45.25 40.67 45.25 40.34ZM57.83 39.67C57.83 39.34 58.1 39.07 58.44 39.07C58.77 39.07 59.04 39.34 59.04 39.67C59.04 40.01 58.77 40.28 58.44 40.28C58.1 40.28 57.83 40.01 57.83 39.67ZM27.58 39.19C27.58 38.85 27.86 38.59 28.19 38.59C28.52 38.59 28.79 38.85 28.79 39.19C28.79 39.52 28.52 39.8 28.19 39.8C27.86 39.8 27.58 39.52 27.58 39.19ZM42.94 39.13C42.94 38.8 43.22 38.52 43.55 38.52C43.89 38.52 44.16 38.8 44.16 39.13C44.16 39.46 43.89 39.73 43.55 39.73C43.22 39.73 42.94 39.46 42.94 39.13ZM31.09 38.07C31.09 37.89 31.24 37.74 31.43 37.74C31.61 37.74 31.76 37.89 31.76 38.07C31.76 38.25 31.61 38.4 31.43 38.4C31.24 38.4 31.09 38.25 31.09 38.07ZM22.38 37.1C22.38 36.92 22.53 36.77 22.71 36.77C22.89 36.77 23.05 36.92 23.05 37.1C23.05 37.29 22.89 37.43 22.71 37.43C22.53 37.43 22.38 37.28 22.38 37.1ZM44.34 36.98C44.34 36.8 44.49 36.65 44.67 36.65C44.85 36.65 45 36.8 45 36.98C45 37.16 44.85 37.31 44.67 37.31C44.49 37.31 44.34 37.16 44.34 36.98ZM53.78 36.16C53.78 35.83 54.04 35.56 54.38 35.56C54.71 35.56 54.99 35.83 54.99 36.16C54.99 36.49 54.71 36.77 54.38 36.77C54.04 36.77 53.78 36.49 53.78 36.16ZM37.99 36.2C37.99 36.01 38.14 35.86 38.32 35.86C38.5 35.86 38.65 36.01 38.65 36.2C38.65 36.38 38.5 36.53 38.32 36.53C38.14 36.53 37.99 36.38 37.99 36.2ZM61.76 35.65C61.76 35.47 61.91 35.32 62.09 35.32C62.27 35.32 62.42 35.47 62.42 35.65C62.42 35.84 62.27 35.98 62.09 35.98C61.91 35.98 61.76 35.84 61.76 35.65ZM38.47 35.26C38.47 34.92 38.74 34.65 39.08 34.65C39.41 34.65 39.68 34.92 39.68 35.26C39.68 35.59 39.41 35.86 39.08 35.86C38.74 35.86 38.47 35.59 38.47 35.26ZM48.15 35.07C48.15 34.74 48.42 34.47 48.76 34.47C49.09 34.47 49.36 34.74 49.36 35.07C49.36 35.41 49.09 35.68 48.76 35.68C48.42 35.68 48.15 35.41 48.15 35.07ZM52.57 34.5C52.57 34.32 52.72 34.17 52.9 34.17C53.08 34.17 53.23 34.32 53.23 34.5C53.23 34.68 53.08 34.83 52.9 34.83C52.72 34.83 52.57 34.68 52.57 34.5ZM61.33 34.05C61.33 33.71 61.61 33.44 61.94 33.44C62.28 33.44 62.54 33.71 62.54 34.05C62.54 34.38 62.28 34.65 61.94 34.65C61.61 34.65 61.33 34.38 61.33 34.05ZM29.85 34.65C29.67 34.65 29.52 34.5 29.52 34.32C29.52 34.13 29.67 33.98 29.85 33.98C30.03 33.98 30.18 34.13 30.18 34.32C30.18 34.48 30.07 34.62 29.92 34.65L29.85 34.65ZM57.4 33.35C57.4 33.17 57.55 33.01 57.74 33.01C57.92 33.01 58.07 33.17 58.07 33.35C58.07 33.54 57.92 33.69 57.74 33.69C57.55 33.69 57.4 33.54 57.4 33.35ZM32.91 32.47C32.91 32.14 33.18 31.87 33.51 31.87C33.85 31.87 34.11 32.14 34.11 32.47C34.11 32.8 33.85 33.08 33.51 33.08C33.18 33.08 32.91 32.8 32.91 32.47ZM53.66 32.27C53.66 32.08 53.8 31.93 53.99 31.93C54.17 31.93 54.32 32.08 54.32 32.27C54.32 32.45 54.17 32.6 53.99 32.6C53.8 32.6 53.66 32.45 53.66 32.27ZM43.43 31.14C43.43 30.81 43.7 30.54 44.03 30.54C44.2 30.54 44.36 30.61 44.47 30.72C44.51 30.58 44.64 30.48 44.79 30.48C44.97 30.48 45.12 30.63 45.12 30.81C45.12 30.99 44.97 31.14 44.79 31.14C44.73 31.14 44.68 31.13 44.63 31.11C44.64 31.12 44.64 31.13 44.64 31.14C44.64 31.48 44.37 31.75 44.03 31.75C43.7 31.75 43.43 31.48 43.43 31.14ZM50.21 30.69C50.21 30.51 50.35 30.36 50.54 30.36C50.72 30.36 50.87 30.51 50.87 30.69C50.87 30.87 50.72 31.02 50.54 31.02C50.35 31.02 50.21 30.87 50.21 30.69ZM60.49 30.57C60.49 30.39 60.64 30.24 60.83 30.24C61.01 30.24 61.16 30.38 61.16 30.57C61.16 30.75 61.01 30.9 60.83 30.9C60.64 30.9 60.49 30.75 60.49 30.57ZM57.64 30.24C57.64 29.9 57.92 29.63 58.25 29.63C58.59 29.63 58.86 29.9 58.86 30.24C58.86 30.57 58.59 30.84 58.25 30.84C57.92 30.84 57.64 30.57 57.64 30.24ZM32.36 30.05C32.36 29.72 32.64 29.45 32.97 29.45C33.3 29.45 33.57 29.72 33.57 30.05C33.57 30.39 33.3 30.66 32.97 30.66C32.64 30.66 32.36 30.39 32.36 30.05ZM38.11 30C37.89 30 37.7 29.87 37.59 29.69C37.5 29.63 37.44 29.53 37.44 29.42C37.44 29.32 37.48 29.24 37.54 29.18C37.63 28.95 37.85 28.79 38.11 28.79C38.44 28.79 38.72 29.05 38.72 29.39C38.72 29.72 38.44 30 38.11 30L38.11 30ZM51.05 28.84C51.05 28.51 51.32 28.24 51.66 28.24C51.99 28.24 52.26 28.51 52.26 28.84C52.26 29.18 51.99 29.45 51.66 29.45C51.32 29.45 51.05 29.18 51.05 28.84ZM28.73 28.24C28.73 27.91 29 27.63 29.33 27.63C29.67 27.63 29.94 27.91 29.94 28.24C29.94 28.58 29.67 28.84 29.33 28.84C29 28.84 28.73 28.58 28.73 28.24ZM39.2 26.64C39.2 26.45 39.35 26.31 39.53 26.31C39.71 26.31 39.86 26.45 39.86 26.64C39.86 26.82 39.71 26.97 39.53 26.97C39.35 26.97 39.2 26.82 39.2 26.64ZM59.58 26.52C59.58 26.33 59.73 26.19 59.91 26.19C60.1 26.19 60.25 26.33 60.25 26.52C60.25 26.7 60.1 26.85 59.91 26.85C59.73 26.85 59.58 26.7 59.58 26.52ZM31.94 26.45C31.94 26.27 32.09 26.12 32.27 26.12C32.45 26.12 32.6 26.27 32.6 26.45C32.6 26.64 32.45 26.79 32.27 26.79C32.09 26.79 31.94 26.64 31.94 26.45ZM55.35 25.06C55.35 24.88 55.49 24.73 55.68 24.73C55.86 24.73 56.01 24.88 56.01 25.06C56.01 25.24 55.86 25.39 55.68 25.39C55.49 25.39 55.35 25.24 55.35 25.06ZM56.38 24.3C56.38 23.97 56.65 23.7 56.98 23.7C57.31 23.7 57.59 23.97 57.59 24.3C57.59 24.64 57.31 24.91 56.98 24.91C56.65 24.91 56.38 24.64 56.38 24.3ZM34.9 23.85C34.9 23.67 35.06 23.52 35.24 23.52C35.42 23.52 35.57 23.67 35.57 23.85C35.57 24.04 35.42 24.18 35.24 24.18C35.05 24.18 34.9 24.04 34.9 23.85ZM37.38 23.34C37.38 23.01 37.66 22.74 37.99 22.74C38.32 22.74 38.59 23.01 38.59 23.34C38.59 23.68 38.32 23.94 37.99 23.94C37.66 23.94 37.38 23.68 37.38 23.34ZM32.18 22.37C32.18 22.04 32.45 21.77 32.79 21.77C33.12 21.77 33.39 22.04 33.39 22.37C33.39 22.71 33.12 22.98 32.79 22.98C32.45 22.98 32.18 22.71 32.18 22.37ZM49.9 22.46C49.9 22.28 50.05 22.13 50.23 22.13C50.42 22.13 50.57 22.28 50.57 22.46C50.57 22.64 50.42 22.8 50.23 22.8C50.05 22.8 49.9 22.64 49.9 22.46ZM41.8 22.13C41.8 21.79 42.07 21.53 42.4 21.53C42.73 21.53 43.01 21.79 43.01 22.13C43.01 22.46 42.73 22.73 42.4 22.73C42.07 22.73 41.8 22.46 41.8 22.13ZM52.5 21.79C52.5 21.61 52.65 21.46 52.84 21.46C53.02 21.46 53.17 21.61 53.17 21.79C53.17 21.98 53.02 22.13 52.84 22.13C52.65 22.13 52.5 21.98 52.5 21.79ZM40.83 20.41C40.83 20.23 40.98 20.08 41.16 20.08C41.35 20.08 41.5 20.23 41.5 20.41C41.5 20.59 41.35 20.74 41.16 20.74C40.98 20.74 40.83 20.59 40.83 20.41ZM27.58 19.95C27.58 19.62 27.86 19.35 28.19 19.35C28.52 19.35 28.79 19.62 28.79 19.95C28.79 20.28 28.52 20.56 28.19 20.56C27.86 20.56 27.58 20.28 27.58 19.95ZM50.63 18.78C50.63 18.59 50.78 18.44 50.96 18.44C51.15 18.44 51.29 18.59 51.29 18.78C51.29 18.96 51.15 19.11 50.96 19.11C50.78 19.11 50.63 18.96 50.63 18.78ZM52.5 18.08C52.5 17.74 52.78 17.48 53.11 17.47C53.45 17.47 53.71 17.74 53.71 18.08C53.71 18.41 53.45 18.68 53.11 18.68C52.78 18.68 52.5 18.41 52.5 18.08ZM27.04 17.44C27.04 17.26 27.19 17.11 27.37 17.11C27.55 17.11 27.7 17.26 27.7 17.44C27.7 17.62 27.55 17.77 27.37 17.77C27.19 17.77 27.04 17.62 27.04 17.44ZM52.81 16.17C52.81 15.99 52.96 15.84 53.14 15.84C53.32 15.84 53.47 15.99 53.47 16.17C53.47 16.36 53.32 16.51 53.14 16.51C52.96 16.51 52.81 16.36 52.81 16.17ZM36.17 15.26C36.17 15.08 36.32 14.93 36.5 14.93C36.69 14.93 36.84 15.08 36.84 15.26C36.84 15.45 36.69 15.59 36.5 15.59C36.32 15.59 36.17 15.45 36.17 15.26ZM27.65 13.63C27.65 13.45 27.79 13.3 27.98 13.3C28.16 13.3 28.31 13.45 28.31 13.63C28.31 13.81 28.16 13.96 27.98 13.96C27.79 13.96 27.65 13.81 27.65 13.63ZM29.34 12.42C29.34 12.24 29.48 12.09 29.67 12.09C29.85 12.09 30 12.24 30 12.42C30 12.6 29.85 12.75 29.67 12.75C29.48 12.75 29.34 12.6 29.34 12.42Z" />
		<path id="Layer" fill-rule="evenodd" class="shp8" d="M43.02 18.91C43.03 18.91 43.04 18.93 43.04 18.93L43.61 22.78L43.58 23.9C43.67 24.49 43.42 25.03 43.14 25.14L43.45 25.19C47.89 25.95 49.52 29.63 49.84 30.93C50.17 32.23 50.02 33.56 49.94 33.29C49.87 33.02 49.37 32.29 49.48 32.64C49.6 32.98 49.71 33.52 49.94 33.82C50.17 34.13 50.06 34.17 49.94 34.47C49.83 34.78 49.65 34.75 49.79 35.23L50.05 35.8C50.21 35.72 50.32 35.64 50.39 35.48C50.45 35.35 50.5 35.33 50.54 35.3C50.47 35.39 50.37 35.55 50.4 35.59C50.46 35.5 50.59 35.44 50.66 35.41C50.58 35.46 50.5 35.56 50.49 35.57C50.43 35.66 50.53 35.73 50.66 35.68C50.8 35.62 50.5 35.81 50.4 35.84C50.31 35.87 50.25 35.99 50.37 35.99C50.5 35.99 50.53 35.95 50.64 36.02C50.75 36.09 50.47 35.99 50.32 36.03C50.27 36.05 50.22 36.05 50.17 36.04C50.34 36.36 50.49 36.5 50.84 36.75C51.41 37.16 52.31 37.91 52.74 38.29C53.17 38.67 53.98 39.24 54.07 39.7C54.15 40.16 53.93 40.65 53.47 41C53.01 41.35 52.28 41.6 52.17 41.79C52.06 41.98 51.84 42.33 51.93 42.95C52.01 43.57 52.06 43.71 52.06 43.98C52.06 44.25 51.6 44.55 51.63 44.66C51.65 44.76 52.06 44.95 52.09 45.25C52.12 45.55 51.98 45.95 51.84 46.04C51.71 46.12 51.47 46.25 51.44 46.82C51.41 47.39 51.52 47.55 51.79 48.26C52.06 48.96 52.04 49.75 51.55 50.4C51.06 51.05 50.3 51.15 49.79 51.21C49.27 51.26 45.84 51.37 45.32 51.7C44.81 52.02 43.72 53.56 42.72 55.02C41.72 56.49 39.53 60.01 39.47 60.38C39.42 60.76 39.85 61.17 40.42 62.66C40.99 64.15 42.45 66.64 43.34 68.13C44.24 69.62 50.82 79.66 50.82 81.72C50.82 83.78 37.28 82.26 31.43 72.84C25.58 63.42 19.84 66.67 20.28 64.83C20.71 62.98 23.2 60.28 23.74 59.63C24.28 58.98 24.93 58.22 25.48 58.44C26.02 58.65 26.88 55.73 28.18 54.43C29.48 53.13 30.24 52.91 30.67 52.15C31.11 51.4 31 51.61 30.35 51.4C29.7 51.18 29.48 50.31 29.27 49.67C29.05 49.02 29.05 47.72 26.99 46.85C24.94 45.98 23.2 42.63 23.53 38.51C23.85 34.4 25.26 30.6 26.23 29.95C27.21 29.31 26.99 28.33 28.51 27.79C28.95 27.63 29.18 27.52 29.35 27.41L29.18 27.44C28.88 27.49 28.42 27.04 28.32 26.4L27.92 25.3L27.58 23.1C27.58 23.1 27.58 23.08 27.59 23.07C27.62 23.07 27.67 23.1 27.79 23.35C27.94 23.64 28.34 24.34 28.6 24.78L31.06 24.38C31.06 24.38 31.05 24.1 31.04 23.75L30.7 23.79C30.62 23.8 30.53 23.77 30.48 23.7C30.43 23.64 30.42 23.55 30.45 23.47C30.48 23.39 30.56 23.34 30.64 23.33L31.03 23.28C31.03 22.76 31.05 22.26 31.16 22.24C31.26 22.23 31.44 22.71 31.61 23.2L31.95 23.16L31.96 23.16C32.09 23.15 32.2 23.24 32.22 23.37C32.23 23.5 32.13 23.61 32.01 23.62L31.74 23.66C31.84 23.98 31.91 24.24 31.91 24.24L35.12 23.71C35.12 23.71 35.11 23.43 35.11 23.07L34.75 23.12C34.66 23.13 34.57 23.09 34.52 23.02C34.46 22.95 34.45 22.85 34.48 22.77C34.52 22.69 34.6 22.63 34.69 22.62L35.11 22.57C35.13 22.01 35.17 21.45 35.32 21.43C35.46 21.41 35.7 21.94 35.9 22.48L36.29 22.43L36.31 22.43C36.44 22.42 36.56 22.52 36.57 22.65C36.58 22.79 36.48 22.91 36.35 22.92L36.07 22.95C36.18 23.27 36.26 23.52 36.26 23.52L39.39 23.01C39.39 23.01 39.37 22.72 39.36 22.35L38.95 22.41C38.87 22.42 38.78 22.39 38.73 22.32C38.68 22.25 38.67 22.16 38.7 22.08C38.73 22.01 38.81 21.95 38.89 21.94L39.35 21.88C39.35 21.39 39.38 20.92 39.48 20.9C39.58 20.88 39.75 21.34 39.91 21.81L40.2 21.77L40.21 21.77C40.34 21.76 40.46 21.86 40.47 21.98C40.48 22.11 40.39 22.23 40.26 22.24L40.05 22.27C40.15 22.6 40.23 22.87 40.23 22.87L42.81 22.45C42.92 21.94 42.87 19.55 42.91 19.24C42.95 18.96 42.99 18.91 43.02 18.91L43.02 18.91ZM50.58 35.26C50.57 35.28 50.56 35.29 50.54 35.3C50.57 35.26 50.59 35.24 50.58 35.26Z" />
		<path id="Layer" fill-rule="evenodd" class="shp9" d="M64.61 17.9L64.61 18.11L64.54 18.11C64.41 18.12 64.3 18.12 64.13 18.12C62.29 18.12 60.89 17.62 60.1 16.71L59.55 16.07C58.73 15.79 58.36 15.56 57.91 15.08C57.22 14.33 56.88 13.38 56.88 12.25C56.88 9.89 58.45 8.23 60.67 8.23C62.88 8.23 64.46 9.89 64.46 12.22C64.46 13.51 64.02 14.57 63.16 15.33C62.62 15.79 62.21 15.99 61.42 16.14C62.36 17.36 63.28 17.87 64.61 17.9M60.7 8.64C60.03 8.64 59.48 8.89 59.01 9.4C58.53 9.93 58.2 11.06 58.2 12.18C58.2 13.53 58.57 14.69 59.18 15.24C59.6 15.61 60.11 15.81 60.67 15.81C61.3 15.81 61.91 15.54 62.33 15.06C62.8 14.53 63.13 13.35 63.13 12.2C63.13 10.89 62.76 9.78 62.14 9.22C61.73 8.86 61.2 8.64 60.7 8.64L60.7 8.64Z" />
		<path id="Layer" class="shp10" d="M17.55 10.26C17.55 10.26 18.93 12.33 20.54 14.16C22.16 15.98 24 17.56 24 17.56C24 17.56 22.17 19.14 20.57 20.95C18.97 22.77 17.61 24.82 17.61 24.82C17.61 24.82 16.22 22.75 14.59 20.92C12.97 19.09 11.11 17.5 11.11 17.5C11.11 17.5 12.96 15.93 14.57 14.12C16.18 12.31 17.55 10.26 17.55 10.26L17.55 10.26Z" />
	</g>
</svg>