<svg xmlns="http://www.w3.org/2000/svg" viewBox="0 0 73 102" width="73" height="102">
	<defs>
		<filter x="-50%" y="-50%" width="200%" height="200%" id="flt1"> <feGaussianBlur stdDeviation="0.85" /> </filter>
		<linearGradient id="grd1" gradientUnits="userSpaceOnUse"  x1="41.546" y1="26.29" x2="43.691" y2="-90.093">
			<stop offset="0" stop-color="#f3f3f3"  />
			<stop offset="1" stop-color="#8f8f8f"  />
		</linearGradient>
		<radialGradient id="grd2" gradientUnits="userSpaceOnUse"  cx="10.699" cy="91.421" r="13.273">
			<stop offset="0" stop-color="#ffffff"  />
			<stop offset="1" stop-color="#ffffff" stop-opacity="0" />
		</radialGradient>
		<radialGradient id="grd3" gradientUnits="userSpaceOnUse"  cx="62.618" cy="12.364" r="14.639">
			<stop offset="0" stop-color="#ffffff"  />
			<stop offset="1" stop-color="#ffffff" stop-opacity="0" />
		</radialGradient>
		<linearGradient id="grd4" gradientUnits="userSpaceOnUse"  x1="-708.779" y1="90.433" x2="-708.779" y2="87.093">
			<stop offset="0" stop-color="#d90000"  />
			<stop offset="1" stop-color="#950000"  />
		</linearGradient>
		<linearGradient id="grd5" gradientUnits="userSpaceOnUse"  x1="-708.777" y1="12.743" x2="-708.777" y2="8.083">
			<stop offset="0" stop-color="#d90000"  />
			<stop offset="1" stop-color="#950000"  />
		</linearGradient>
		<radialGradient id="grd6" gradientUnits="userSpaceOnUse"  cx="18.278" cy="73.735" r="25.374">
			<stop offset="0" stop-color="#ffffff"  />
			<stop offset="1" stop-color="#ffffff" stop-opacity="0" />
		</radialGradient>
		<radialGradient id="grd7" gradientUnits="userSpaceOnUse"  cx="36.902" cy="70.27" r="9.813">
			<stop offset="0" stop-color="#ffffff"  />
			<stop offset="1" stop-color="#ffffff" stop-opacity="0" />
		</radialGradient>
		<linearGradient id="grd8" gradientUnits="userSpaceOnUse"  x1="-389.077" y1="73.683" x2="-389.077" y2="66.753">
			<stop offset="0" stop-color="#d90000"  />
			<stop offset="1" stop-color="#950000"  />
		</linearGradient>
		<radialGradient id="grd9" gradientUnits="userSpaceOnUse"  cx="52.932" cy="81.06" r="9.813">
			<stop offset="0" stop-color="#ffffff"  />
			<stop offset="1" stop-color="#ffffff" stop-opacity="0" />
		</radialGradient>
		<linearGradient id="grd10" gradientUnits="userSpaceOnUse"  x1="-373.047" y1="84.473" x2="-373.047" y2="77.543">
			<stop offset="0" stop-color="#d90000"  />
			<stop offset="1" stop-color="#950000"  />
		</linearGradient>
		<radialGradient id="grd11" gradientUnits="userSpaceOnUse"  cx="52.932" cy="61.16" r="9.813">
			<stop offset="0" stop-color="#ffffff"  />
			<stop offset="1" stop-color="#ffffff" stop-opacity="0" />
		</radialGradient>
		<linearGradient id="grd12" gradientUnits="userSpaceOnUse"  x1="-373.047" y1="64.573" x2="-373.047" y2="57.643">
			<stop offset="0" stop-color="#d90000"  />
			<stop offset="1" stop-color="#950000"  />
		</linearGradient>
		<radialGradient id="grd13" gradientUnits="userSpaceOnUse"  cx="20.762" cy="81.06" r="9.813">
			<stop offset="0" stop-color="#ffffff"  />
			<stop offset="1" stop-color="#ffffff" stop-opacity="0" />
		</radialGradient>
		<linearGradient id="grd14" gradientUnits="userSpaceOnUse"  x1="-405.217" y1="84.473" x2="-405.217" y2="77.543">
			<stop offset="0" stop-color="#d90000"  />
			<stop offset="1" stop-color="#950000"  />
		</linearGradient>
		<radialGradient id="grd15" gradientUnits="userSpaceOnUse"  cx="20.762" cy="61.16" r="9.813">
			<stop offset="0" stop-color="#ffffff"  />
			<stop offset="1" stop-color="#ffffff" stop-opacity="0" />
		</radialGradient>
		<linearGradient id="grd16" gradientUnits="userSpaceOnUse"  x1="-405.217" y1="64.573" x2="-405.217" y2="57.643">
			<stop offset="0" stop-color="#d90000"  />
			<stop offset="1" stop-color="#950000"  />
		</linearGradient>
		<radialGradient id="grd17" gradientUnits="userSpaceOnUse"  cx="52.932" cy="40.63" r="9.813">
			<stop offset="0" stop-color="#ffffff"  />
			<stop offset="1" stop-color="#ffffff" stop-opacity="0" />
		</radialGradient>
		<linearGradient id="grd18" gradientUnits="userSpaceOnUse"  x1="-373.047" y1="44.043" x2="-373.047" y2="37.113">
			<stop offset="0" stop-color="#d90000"  />
			<stop offset="1" stop-color="#950000"  />
		</linearGradient>
		<radialGradient id="grd19" gradientUnits="userSpaceOnUse"  cx="20.762" cy="40.63" r="9.813">
			<stop offset="0" stop-color="#ffffff"  />
			<stop offset="1" stop-color="#ffffff" stop-opacity="0" />
		</radialGradient>
		<linearGradient id="grd20" gradientUnits="userSpaceOnUse"  x1="-405.217" y1="44.043" x2="-405.217" y2="37.113">
			<stop offset="0" stop-color="#d90000"  />
			<stop offset="1" stop-color="#950000"  />
		</linearGradient>
		<radialGradient id="grd21" gradientUnits="userSpaceOnUse"  cx="36.902" cy="31.59" r="9.813">
			<stop offset="0" stop-color="#ffffff"  />
			<stop offset="1" stop-color="#ffffff" stop-opacity="0" />
		</radialGradient>
		<linearGradient id="grd22" gradientUnits="userSpaceOnUse"  x1="-389.077" y1="35.003" x2="-389.077" y2="28.073">
			<stop offset="0" stop-color="#d90000"  />
			<stop offset="1" stop-color="#950000"  />
		</linearGradient>
		<radialGradient id="grd23" gradientUnits="userSpaceOnUse"  cx="52.932" cy="20.34" r="9.813">
			<stop offset="0" stop-color="#ffffff"  />
			<stop offset="1" stop-color="#ffffff" stop-opacity="0" />
		</radialGradient>
		<linearGradient id="grd24" gradientUnits="userSpaceOnUse"  x1="-373.047" y1="23.753" x2="-373.047" y2="16.823">
			<stop offset="0" stop-color="#d90000"  />
			<stop offset="1" stop-color="#950000"  />
		</linearGradient>
		<radialGradient id="grd25" gradientUnits="userSpaceOnUse"  cx="20.762" cy="20.34" r="9.813">
			<stop offset="0" stop-color="#ffffff"  />
			<stop offset="1" stop-color="#ffffff" stop-opacity="0" />
		</radialGradient>
		<linearGradient id="grd26" gradientUnits="userSpaceOnUse"  x1="-405.217" y1="23.753" x2="-405.217" y2="16.823">
			<stop offset="0" stop-color="#d90000"  />
			<stop offset="1" stop-color="#950000"  />
		</linearGradient>
	</defs>
	<style>
		tspan { white-space:pre }
		.shp0 { filter: url(#flt1);fill: #000000 } 
		.shp1 { fill: url(#grd1);stroke: #000000;stroke-width: 0.226 } 
		.shp2 { opacity: 0.467;fill: url(#grd2) } 
		.shp3 { opacity: 0.396;fill: url(#grd3) } 
		.shp4 { fill: none;stroke: #000000;stroke-width: 0.226 } 
		.shp5 { fill: url(#grd4);stroke: #a40000;stroke-linejoin:round;stroke-width: 0.17 } 
		.shp6 { fill: url(#grd5) } 
		.shp7 { fill: url(#grd6) } 
		.shp8 { opacity: 0.4;fill: url(#grd7) } 
		.shp9 { fill: url(#grd8);stroke: #890000;stroke-linejoin:round;stroke-width: 0.353 } 
		.shp10 { opacity: 0.4;fill: url(#grd9) } 
		.shp11 { fill: url(#grd10);stroke: #890000;stroke-linejoin:round;stroke-width: 0.353 } 
		.shp12 { opacity: 0.4;fill: url(#grd11) } 
		.shp13 { fill: url(#grd12);stroke: #890000;stroke-linejoin:round;stroke-width: 0.353 } 
		.shp14 { opacity: 0.4;fill: url(#grd13) } 
		.shp15 { fill: url(#grd14);stroke: #890000;stroke-linejoin:round;stroke-width: 0.353 } 
		.shp16 { opacity: 0.4;fill: url(#grd15) } 
		.shp17 { fill: url(#grd16);stroke: #890000;stroke-linejoin:round;stroke-width: 0.353 } 
		.shp18 { opacity: 0.4;fill: url(#grd17) } 
		.shp19 { fill: url(#grd18);stroke: #890000;stroke-linejoin:round;stroke-width: 0.353 } 
		.shp20 { opacity: 0.4;fill: url(#grd19) } 
		.shp21 { fill: url(#grd20);stroke: #890000;stroke-linejoin:round;stroke-width: 0.353 } 
		.shp22 { opacity: 0.4;fill: url(#grd21) } 
		.shp23 { fill: url(#grd22);stroke: #890000;stroke-linejoin:round;stroke-width: 0.353 } 
		.shp24 { opacity: 0.4;fill: url(#grd23) } 
		.shp25 { fill: url(#grd24);stroke: #890000;stroke-linejoin:round;stroke-width: 0.353 } 
		.shp26 { opacity: 0.4;fill: url(#grd25) } 
		.shp27 { fill: url(#grd26);stroke: #890000;stroke-linejoin:round;stroke-width: 0.353 } 
	</style>
	<g id="-e-Diamond10">
		<g id="Layer">
			<path id="Layer" fill-rule="evenodd" class="shp0" d="M5.02 1.47L68.28 1.47C68.73 1.47 69.18 1.56 69.6 1.73C70.01 1.91 70.39 2.16 70.71 2.48C71.04 2.8 71.29 3.18 71.46 3.6C71.64 4.02 71.73 4.47 71.73 4.92L71.73 97.21C71.73 97.66 71.64 98.11 71.46 98.53C71.29 98.95 71.04 99.33 70.71 99.65C70.39 99.97 70.01 100.22 69.6 100.39C69.18 100.57 68.73 100.66 68.28 100.66L5.02 100.66C4.57 100.66 4.12 100.57 3.7 100.39C3.28 100.22 2.9 99.97 2.58 99.65C2.26 99.33 2.01 98.95 1.84 98.53C1.66 98.11 1.57 97.66 1.57 97.21L1.57 4.92C1.57 4.47 1.66 4.02 1.84 3.6C2.01 3.18 2.26 2.8 2.58 2.48C2.9 2.16 3.28 1.91 3.7 1.73C4.12 1.56 4.57 1.47 5.02 1.47" />
			<path id="Layer" fill-rule="evenodd" class="shp1" d="M5.95 0.89L68.16 0.89C68.68 0.89 69.2 0.99 69.68 1.19C70.16 1.39 70.6 1.69 70.97 2.05C71.34 2.42 71.63 2.86 71.83 3.34C72.03 3.82 72.13 4.34 72.13 4.86L72.13 96.11C72.13 96.63 72.03 97.15 71.83 97.63C71.63 98.11 71.34 98.55 70.97 98.92C70.6 99.29 70.16 99.58 69.68 99.78C69.2 99.98 68.68 100.08 68.16 100.08L5.95 100.08C5.42 100.08 4.91 99.98 4.43 99.78C3.95 99.58 3.51 99.29 3.14 98.92C2.77 98.55 2.48 98.11 2.28 97.63C2.08 97.15 1.98 96.63 1.98 96.11L1.98 4.86C1.98 4.34 2.08 3.82 2.28 3.34C2.48 2.86 2.77 2.42 3.14 2.05C3.51 1.69 3.95 1.39 4.43 1.19C4.91 0.99 5.42 0.89 5.95 0.89" />
			<path id="Layer" class="shp2" d="M31.04 96.49L6.57 96.49C6.44 96.49 6.3 96.46 6.18 96.41C6.05 96.35 5.94 96.28 5.84 96.18C5.74 96.09 5.67 95.97 5.61 95.85C5.56 95.72 5.53 95.58 5.53 95.45L5.53 73.24C5.53 73.11 5.56 72.97 5.61 72.85C5.67 72.72 5.74 72.61 5.84 72.51C5.94 72.41 6.05 72.34 6.18 72.29C6.3 72.23 6.44 72.21 6.57 72.21L31.04 72.21C31.18 72.21 31.32 72.23 31.44 72.29C31.57 72.34 31.68 72.41 31.78 72.51C31.87 72.61 31.95 72.72 32 72.85C32.05 72.97 32.08 73.11 32.08 73.24L32.08 95.45C32.08 95.58 32.05 95.72 32 95.85C31.95 95.97 31.87 96.09 31.78 96.18C31.68 96.28 31.57 96.35 31.44 96.41C31.32 96.46 31.18 96.49 31.04 96.49" />
			<path id="Layer" class="shp3" d="M39.49 4.23L68.77 4.23L68.77 49.5L39.49 49.5L39.49 4.23Z" />
			<path id="Layer" class="shp4" d="M20.4 92.59L65.12 92.59L65.12 18.98" />
			<path id="Layer" class="shp4" d="M53.55 8.38L8.99 8.38L8.99 81.56" />
		</g>
		<path id="Layer" class="shp5" d="M12.18 85.28C12.18 85.28 12.85 86.28 13.62 87.16C14.4 88.03 15.29 88.8 15.29 88.8C15.29 88.8 14.41 89.55 13.64 90.43C12.87 91.3 12.21 92.29 12.21 92.29C12.21 92.29 11.54 91.29 10.76 90.41C9.98 89.53 9.08 88.77 9.08 88.77C9.08 88.77 9.97 88.01 10.75 87.14C11.52 86.27 12.18 85.28 12.18 85.28L12.18 85.28Z" />
		<path id="Layer" fill-rule="evenodd" class="shp6" d="M59.71 6.33L59.8 6.35L59.8 13C59.8 13.53 59.98 13.65 60.85 13.66L60.85 13.82L57.79 13.82L57.79 13.66C58.26 13.65 58.41 13.61 58.58 13.51C58.76 13.41 58.85 13.16 58.85 12.79L58.85 7.77C58.85 7.41 58.75 7.25 58.51 7.25C58.4 7.25 58.21 7.29 58.01 7.37C57.97 7.39 57.85 7.44 57.71 7.49L57.71 7.34L59.71 6.33M64.84 6.33C66.3 6.33 67.31 7.89 67.31 10.16C67.31 11.51 66.88 12.79 66.24 13.4C65.84 13.79 65.37 13.98 64.8 13.98C64.16 13.98 63.59 13.71 63.18 13.22C62.66 12.6 62.29 11.31 62.29 10.1C62.29 8.8 62.72 7.52 63.36 6.9C63.77 6.52 64.23 6.33 64.84 6.33L64.84 6.33ZM64.81 6.62C63.86 6.62 63.36 7.85 63.36 10.2C63.36 12.5 63.85 13.69 64.8 13.69C65.75 13.69 66.24 12.5 66.24 10.19C66.24 7.87 65.74 6.62 64.81 6.62Z" />
		<path id="Layer" fill-rule="evenodd" class="shp7" d="M18.18 89.35C18.18 89.35 18.18 89.35 18.18 89.35C18.18 89.35 18.18 89.35 18.18 89.35L18.18 89.35ZM18.18 89.35C15.87 83.58 14.31 83.75 12.32 83.17L15.28 83.17C15.3 83.07 15.32 82.97 15.34 82.87C15.4 82.62 15.47 82.38 15.55 82.13C15.55 81.8 15.54 81.47 15.55 81.14C15.56 80.42 15.66 79.71 15.75 79.01C15.77 78.82 15.79 78.64 15.82 78.46C15.72 78.38 15.75 77.84 16.01 76.78C16.06 76.56 16.1 76.35 16.14 76.13C16.23 75.63 16.34 75.13 16.44 74.64C16.57 74.04 16.76 73.47 16.95 72.9C17.18 72.21 17.47 71.55 17.76 70.88C18.11 70.07 18.47 69.25 18.83 68.44C19.31 67.35 19.86 66.28 20.4 65.21C21.09 63.9 21.7 62.56 22.28 61.2C22.98 59.54 23.67 57.88 24.36 56.23C25.11 54.46 25.82 52.67 26.49 50.87C26.53 50.76 26.58 50.64 26.62 50.53C26.6 50.49 26.6 50.45 26.6 50.41C26.6 50.28 26.66 50.17 26.76 50.12C27.36 48.44 27.9 46.74 28.42 45.04C29.07 42.89 29.63 40.72 30.07 38.52C30.52 35.96 30.62 33.36 30.6 30.77C30.53 28.66 30.32 26.56 30.07 24.46C29.96 24.55 29.83 24.61 29.68 24.61C29.35 24.61 29.07 24.34 29.07 24.01C29.07 23.67 29.35 23.4 29.68 23.4C29.78 23.4 29.87 23.43 29.95 23.47L29.88 22.9C29.79 22.16 29.69 21.42 29.58 20.68C29.52 20.79 29.41 20.86 29.28 20.86C29.1 20.86 28.95 20.71 28.95 20.53C28.95 20.35 29.1 20.2 29.28 20.2C29.37 20.2 29.46 20.23 29.52 20.28C29.41 19.59 29.31 18.89 29.2 18.2C29.03 17.12 29.06 16.48 29.18 16.32C29.08 16.21 29.01 16.06 29.01 15.9C29.01 15.56 29.28 15.3 29.62 15.3C29.95 15.3 30.22 15.56 30.22 15.9C30.22 16.23 29.95 16.51 29.62 16.51C29.55 16.51 29.49 16.49 29.42 16.47C29.54 16.71 29.67 17.16 29.78 17.86C30.02 19.43 30.26 21 30.46 22.57C30.78 25.19 31.08 27.81 31.16 30.44C31.19 33.03 31.09 35.63 30.65 38.18C30.21 40.38 29.65 42.55 29 44.7C28.44 46.55 27.85 48.39 27.2 50.21C27.24 50.26 27.26 50.33 27.26 50.41C27.26 50.56 27.15 50.7 27.01 50.73C26.35 52.46 25.67 54.18 24.94 55.89C24.25 57.54 23.57 59.2 22.88 60.86C22.3 62.21 21.69 63.56 21 64.87C20.47 65.93 19.92 67 19.43 68.1C19.08 68.91 18.72 69.72 18.37 70.53C18.08 71.2 17.8 71.86 17.56 72.54C17.38 73.12 17.18 73.69 17.06 74.28C17.04 74.35 17.03 74.42 17.02 74.49C17.2 74.07 17.4 73.65 17.6 73.23C17.75 72.92 17.92 72.61 18.08 72.31C18.09 72.3 18.09 72.3 18.09 72.29C18.17 72.04 18.3 71.82 18.41 71.58C18.58 71.23 18.79 70.91 18.99 70.58C19.18 70.26 19.39 69.96 19.6 69.66C20.18 68.66 20.84 67.71 21.51 66.77C22.04 66.05 22.65 65.4 23.27 64.76C23.29 64.62 23.41 64.5 23.55 64.48L24.07 63.96C25.07 63.02 26.11 62.1 27.11 61.16C28.3 60.05 29.45 58.9 30.59 57.75C31.9 56.44 33.1 55.03 34.21 53.55C35.46 51.85 36.5 50 37.51 48.14C37.84 47.54 38.15 46.93 38.45 46.31L38.33 46.33C37.99 46.33 37.72 46.05 37.72 45.72C37.72 45.39 37.99 45.12 38.33 45.12C38.55 45.12 38.74 45.24 38.85 45.42C39.34 44.31 39.77 43.18 40.16 42.03L40.23 41.8C40.19 41.53 40.17 41.13 40.18 40.58C40.21 39.64 40.23 38.7 40.21 37.77C40.15 36.08 40.04 34.4 39.82 32.72C39.63 31.58 39.46 30.44 39.12 29.33C38.96 28.77 38.81 28.2 38.55 27.67C38.46 27.53 38.42 27.35 38.28 27.24C36.36 25.55 37 25.16 38.91 26.87C39.04 26.99 39.09 27.17 39.17 27.32C39.42 27.85 39.57 28.42 39.74 28.98C40.07 30.09 40.24 31.24 40.42 32.38C40.64 34.05 40.74 35.73 40.79 37.42C40.81 38.13 40.8 38.84 40.79 39.55C41.11 38.07 41.34 36.55 41.53 35.04C41.58 34.38 41.61 33.7 41.63 33.04C41.56 33.06 41.49 33.08 41.42 33.08C41.08 33.08 40.81 32.8 40.81 32.47C40.81 32.14 41.08 31.87 41.42 31.87C41.5 31.87 41.58 31.89 41.65 31.92C41.65 30.88 41.63 29.85 41.6 28.81C41.35 28.73 41.17 28.51 41.17 28.24C41.17 27.98 41.34 27.76 41.56 27.68C41.56 27.57 41.55 27.46 41.55 27.35C41.53 26.93 41.52 26.52 41.51 26.1C41.42 23.76 41.99 23.43 42.08 25.77C42.09 26.19 42.11 26.6 42.12 27.02C42.13 27.27 42.14 27.51 42.14 27.76C42.29 27.87 42.38 28.05 42.38 28.24C42.38 28.42 42.3 28.58 42.18 28.69C42.24 30.7 42.26 32.71 42.1 34.71C41.81 37.07 41.43 39.42 40.74 41.7C40.03 43.81 39.17 45.87 38.09 47.81C37.08 49.67 36.04 51.51 34.8 53.21C33.69 54.69 32.49 56.1 31.18 57.41C30.04 58.56 28.89 59.7 27.71 60.81C26.7 61.76 25.67 62.67 24.67 63.61C24.36 63.91 24.06 64.21 23.76 64.52C23.84 64.56 23.89 64.64 23.92 64.72C24.68 63.95 25.48 63.22 26.29 62.49L29.09 60C30.08 59.11 31.08 58.24 32.08 57.36C33.2 56.39 34.29 55.38 35.37 54.35C36.59 53.2 37.78 52.01 38.95 50.81C40.21 49.55 41.38 48.23 42.53 46.88C43.41 45.83 44.24 44.76 45.06 43.66C45.05 43.62 45.04 43.58 45.04 43.54C45.04 43.23 45.28 42.98 45.59 42.95L46.19 42.11C47.28 40.62 48.26 39.07 49.18 37.48C49.14 37.49 49.1 37.5 49.06 37.5C48.88 37.5 48.73 37.35 48.73 37.16C48.73 36.98 48.88 36.83 49.06 36.83C49.23 36.83 49.36 36.94 49.39 37.09C49.48 36.94 49.57 36.8 49.65 36.65C50.73 34.64 51.76 32.59 52.44 30.41C52.96 28.51 53.26 26.57 53.57 24.62C53.94 22.29 54.52 21.95 54.15 24.28C53.84 26.23 53.54 28.18 53.02 30.08C52.34 32.26 51.32 34.31 50.24 36.32C49.18 38.19 48.05 40.03 46.78 41.77C46.49 42.18 46.19 42.58 45.89 42.99C46.1 43.08 46.25 43.3 46.25 43.54C46.25 43.88 45.98 44.15 45.65 44.15C45.46 44.15 45.29 44.06 45.18 43.93C44.51 44.81 43.83 45.69 43.12 46.54C41.97 47.89 40.79 49.21 39.54 50.47C38.97 51.05 38.4 51.62 37.82 52.2C38 52.03 38.3 51.76 38.76 51.37C39.86 50.43 40.98 49.5 42.13 48.63C43.21 47.81 44.32 47.02 45.54 46.42C45.64 46.22 45.84 46.09 46.07 46.09C46.13 46.09 46.18 46.09 46.23 46.1C46.41 46.03 46.6 45.98 46.8 45.97C49.22 45.81 48.76 46.14 46.53 46.3C46.62 46.41 46.68 46.54 46.68 46.69C46.68 47.02 46.41 47.3 46.07 47.3C45.74 47.3 45.47 47.02 45.47 46.69C45.47 46.63 45.48 46.57 45.5 46.51L45 46.73C44.59 46.89 43.55 47.66 42.73 48.29C41.57 49.17 40.45 50.09 39.34 51.03C38.2 52 37.55 52.5 37.66 52.36C37.1 52.91 36.54 53.46 35.96 54.01C34.89 55.03 33.8 56.04 32.68 57.02C31.68 57.9 30.68 58.77 29.69 59.66C28.76 60.49 27.83 61.32 26.89 62.14C26.03 62.93 25.17 63.71 24.35 64.55C23.63 65.28 22.91 66.02 22.23 66.8C21.71 67.42 21.19 68.03 20.69 68.67L20.18 69.37C20.15 69.42 20.12 69.46 20.09 69.51C19.64 70.28 19.19 71.05 18.76 71.84L18.72 71.93C18.67 72.05 18.63 72.18 18.58 72.3C18.22 73.07 17.92 73.62 17.71 73.93C17.39 74.64 17.09 75.37 16.88 76.13C16.66 76.96 16.45 77.79 16.36 78.65C16.28 79.26 16.2 79.87 16.17 80.48L16.32 80.17C16.64 79.56 17.02 78.99 17.41 78.41C17.72 77.94 18.06 77.49 18.42 77.05C18.35 76.95 18.3 76.83 18.3 76.69C18.3 76.36 18.58 76.09 18.91 76.09C19.02 76.09 19.13 76.12 19.22 76.17C19.8 75.57 20.42 75.01 21.04 74.45C21.85 73.71 22.7 73.02 23.57 72.35C24.6 71.54 25.7 70.83 26.79 70.12C28.05 69.31 29.32 68.53 30.6 67.76L30.9 67.59C30.65 67.52 30.46 67.29 30.46 67.01C30.46 66.68 30.74 66.41 31.07 66.41C31.41 66.41 31.67 66.68 31.67 67.01C31.67 67.35 31.41 67.62 31.07 67.62C31.02 67.62 30.97 67.61 30.92 67.6C29.87 68.24 28.82 68.88 27.79 69.55C26.7 70.26 25.61 70.97 24.58 71.77C23.72 72.44 22.86 73.12 22.05 73.87C21.32 74.52 20.58 75.18 19.91 75.91L19.46 76.45C19.5 76.52 19.52 76.61 19.52 76.69C19.52 77.03 19.24 77.29 18.91 77.29C18.87 77.29 18.84 77.29 18.8 77.29C18.68 77.46 18.55 77.64 18.43 77.83C18.05 78.4 17.66 78.97 17.34 79.58C17.12 80.05 16.88 80.51 16.74 81.02C16.67 81.25 16.6 81.48 16.53 81.71C16.62 81.77 16.67 81.87 16.67 81.98C16.67 82.16 16.54 82.3 16.37 82.31C16.32 82.61 16.23 82.91 16.24 83.22C16.25 83.39 16.25 83.57 16.28 83.74C16.3 83.84 16.3 83.95 16.34 84.05C16.61 85.25 18.71 88.45 18.18 89.35ZM18.43 84.34C18.43 84.16 18.58 84.01 18.76 84.01C18.95 84.01 19.09 84.16 19.09 84.34C19.09 84.53 18.95 84.68 18.76 84.68C18.58 84.68 18.43 84.53 18.43 84.34ZM13.53 82.38C13.53 82.04 13.8 81.77 14.13 81.77C14.47 81.77 14.74 82.04 14.74 82.38C14.74 82.71 14.47 82.99 14.13 82.99C13.8 82.99 13.53 82.71 13.53 82.38ZM16.8 81.65C16.8 81.32 17.06 81.05 17.4 81.05C17.73 81.05 18.01 81.32 18.01 81.65C18.01 81.98 17.73 82.26 17.4 82.26C17.06 82.26 16.8 81.98 16.8 81.65ZM12.8 80.23C12.8 80.05 12.95 79.9 13.13 79.9C13.32 79.9 13.47 80.05 13.47 80.23C13.47 80.41 13.32 80.56 13.13 80.56C12.95 80.56 12.8 80.41 12.8 80.23ZM14.32 79.68C14.32 79.5 14.46 79.35 14.65 79.35C14.83 79.35 14.98 79.5 14.98 79.68C14.98 79.87 14.83 80.02 14.65 80.02C14.46 80.02 14.32 79.87 14.32 79.68ZM19.76 78.69C19.76 78.35 20.03 78.09 20.36 78.09C20.69 78.09 20.97 78.35 20.97 78.69C20.97 79.02 20.69 79.3 20.36 79.3C20.03 79.3 19.76 79.02 19.76 78.69ZM21.45 77.93C21.45 77.75 21.6 77.6 21.78 77.6C21.96 77.6 22.11 77.75 22.11 77.93C22.11 78.11 21.97 78.26 21.78 78.26C21.6 78.26 21.45 78.11 21.45 77.93ZM12.86 77C12.86 76.66 13.13 76.39 13.47 76.39C13.8 76.39 14.07 76.66 14.07 77C14.07 77.33 13.8 77.6 13.47 77.6C13.13 77.6 12.86 77.33 12.86 77ZM14.25 75.24C14.25 74.9 14.53 74.64 14.86 74.64C15.19 74.64 15.46 74.9 15.46 75.24C15.46 75.57 15.19 75.85 14.86 75.85C14.53 75.85 14.25 75.57 14.25 75.24ZM22.36 75.27C22.36 75.09 22.51 74.94 22.69 74.94C22.88 74.94 23.03 75.09 23.03 75.27C23.03 75.46 22.88 75.61 22.69 75.61C22.51 75.61 22.36 75.46 22.36 75.27ZM26.47 74.45C26.47 74.12 26.74 73.85 27.08 73.85C27.41 73.85 27.68 74.12 27.68 74.45C27.68 74.79 27.41 75.06 27.08 75.06C26.74 75.06 26.47 74.79 26.47 74.45ZM20 73.73C20 73.4 20.27 73.12 20.61 73.12C20.94 73.12 21.21 73.4 21.21 73.73C21.21 74.07 20.94 74.33 20.61 74.33C20.27 74.33 20 74.07 20 73.73ZM22.98 74.18C22.95 74.18 23.33 73.89 24.19 73.25C24.67 72.9 25.13 72.53 25.63 72.23C26.75 71.56 27.87 70.89 29.06 70.36C29.9 69.98 30.76 69.6 31.62 69.26C32.23 69.02 32.83 68.78 33.44 68.54L34.22 68.25C36.61 67.33 35.99 67.7 33.6 68.61L32.82 68.9C32.22 69.13 31.61 69.37 31.01 69.62C30.47 69.82 29.94 70.06 29.41 70.29C29.73 70.31 29.98 70.56 29.98 70.88C29.98 71.22 29.71 71.49 29.37 71.49C29.04 71.49 28.77 71.22 28.77 70.88C28.77 70.73 28.83 70.61 28.92 70.5L28.45 70.71C27.78 70.97 26.45 71.76 26.24 71.88C25.74 72.19 25.28 72.56 24.8 72.9C23.69 73.72 23 74.19 22.98 74.18L22.98 74.18ZM13.95 72.94C13.95 72.61 14.22 72.34 14.56 72.34C14.89 72.34 15.16 72.61 15.16 72.94C15.16 73.27 14.89 73.55 14.56 73.55C14.22 73.55 13.95 73.27 13.95 72.94ZM27.44 72.55C27.44 72.37 27.59 72.22 27.77 72.22C27.95 72.22 28.1 72.37 28.1 72.55C28.1 72.73 27.95 72.88 27.77 72.88C27.59 72.88 27.44 72.73 27.44 72.55ZM16.19 71.43C16.19 71.09 16.46 70.83 16.8 70.83C17.13 70.83 17.4 71.09 17.4 71.43C17.4 71.76 17.13 72.03 16.8 72.03C16.46 72.03 16.19 71.76 16.19 71.43ZM19.46 71.25C19.46 70.92 19.73 70.64 20.06 70.64C20.4 70.64 20.66 70.92 20.66 71.25C20.66 71.58 20.4 71.85 20.06 71.85C19.73 71.85 19.46 71.58 19.46 71.25ZM11.53 71.04C11.53 70.85 11.68 70.71 11.86 70.71C12.05 70.71 12.19 70.85 12.19 71.04C12.19 71.22 12.05 71.37 11.86 71.37C11.68 71.37 11.53 71.22 11.53 71.04ZM32.64 69.89C32.64 69.7 32.79 69.55 32.97 69.55C33.16 69.55 33.31 69.7 33.31 69.89C33.31 70.07 33.16 70.22 32.97 70.22C32.79 70.22 32.64 70.07 32.64 69.89ZM25.14 69.55C25.14 69.22 25.41 68.95 25.75 68.95C26.08 68.95 26.35 69.22 26.35 69.55C26.35 69.89 26.08 70.16 25.75 70.16C25.41 70.16 25.14 69.89 25.14 69.55ZM36.42 69.62C36.24 69.62 36.09 69.47 36.09 69.28C36.09 69.22 36.11 69.16 36.14 69.11C36.09 69.12 36.03 69.13 35.97 69.13C35.64 69.13 35.36 68.86 35.36 68.53C35.36 68.19 35.64 67.92 35.97 67.92C36.3 67.92 36.57 68.19 36.57 68.53C36.57 68.69 36.5 68.84 36.4 68.95L36.42 68.95C36.61 68.95 36.76 69.1 36.76 69.28C36.76 69.47 36.61 69.62 36.42 69.62L36.42 69.62ZM37.9 67.62C37.9 67.28 38.18 67.01 38.51 67.01C38.84 67.01 39.12 67.28 39.12 67.62C39.12 67.95 38.84 68.22 38.51 68.22C38.18 68.22 37.9 67.95 37.9 67.62ZM17.28 67.62C17.28 67.28 17.55 67.01 17.89 67.01C18.22 67.01 18.49 67.28 18.49 67.62C18.49 67.95 18.22 68.22 17.89 68.22C17.55 68.22 17.28 67.95 17.28 67.62ZM22.06 67.56C22.06 67.23 22.32 66.95 22.66 66.95C22.99 66.95 23.27 67.23 23.27 67.56C23.27 67.89 22.99 68.16 22.66 68.16C22.32 68.16 22.06 67.89 22.06 67.56ZM39.72 67.77C39.72 67.59 39.87 67.44 40.05 67.44C40.23 67.44 40.38 67.59 40.38 67.77C40.38 67.96 40.23 68.1 40.05 68.1C39.87 68.1 39.72 67.95 39.72 67.77ZM26.72 67.35C26.72 67.16 26.87 67.01 27.05 67.01C27.23 67.01 27.38 67.16 27.38 67.35C27.38 67.53 27.23 67.68 27.05 67.68C26.87 67.68 26.72 67.53 26.72 67.35ZM21.51 67.28C21.51 67.28 21.51 67.28 21.51 67.28C21.51 67.28 21.51 67.28 21.51 67.28L21.51 67.28ZM21.51 67.28C21.55 67.24 21.58 67.2 21.62 67.16C22.22 66.45 22.87 65.79 23.52 65.13C23.44 65.11 23.36 65.05 23.32 64.98C22.89 65.44 22.48 65.92 22.11 66.43C21.91 66.71 21.71 67 21.51 67.28ZM33.02 66.37C33.02 66.37 33.03 66.36 33.03 66.36C33.03 66.36 33.02 66.37 33.02 66.37L33.02 66.37ZM33.03 66.36C34.01 65.8 34.98 65.25 35.96 64.7C36.09 64.64 36.28 64.53 36.44 64.44C36.2 64.36 36.03 64.13 36.03 63.87C36.03 63.53 36.3 63.26 36.64 63.26C36.97 63.26 37.24 63.53 37.24 63.87C37.24 63.92 37.23 63.96 37.22 64L39.29 62.84C38.6 63.24 37.91 63.63 37.22 64.02C37.15 64.28 36.91 64.47 36.64 64.47C36.58 64.47 36.52 64.46 36.47 64.45C35.97 64.73 35.47 65 34.97 65.27C34.27 65.66 33.61 66.03 33.03 66.36ZM40.45 65.95C40.45 65.77 40.6 65.62 40.78 65.62C40.96 65.62 41.11 65.77 41.11 65.95C41.11 66.14 40.96 66.29 40.78 66.29C40.6 66.29 40.45 66.14 40.45 65.95ZM17.64 65.38C17.3 65.38 17.04 65.11 17.04 64.77C17.04 64.44 17.3 64.17 17.64 64.17C17.75 64.17 17.85 64.2 17.94 64.25C17.95 64.07 18.09 63.93 18.27 63.93C18.46 63.93 18.61 64.08 18.61 64.26C18.61 64.45 18.46 64.6 18.27 64.6C18.25 64.6 18.23 64.59 18.21 64.59C18.23 64.65 18.25 64.71 18.25 64.77C18.25 65.11 17.97 65.38 17.64 65.38L17.64 65.38ZM15.34 64.99C15.34 64.8 15.49 64.65 15.67 64.65C15.86 64.65 16.01 64.8 16.01 64.99C16.01 65.17 15.86 65.32 15.67 65.32C15.49 65.32 15.34 65.17 15.34 64.99ZM19.27 62.42C19.27 62.09 19.55 61.81 19.88 61.81C20.21 61.81 20.48 62.09 20.48 62.42C20.48 62.75 20.21 63.02 19.88 63.02C19.55 63.02 19.27 62.75 19.27 62.42ZM45.11 62.57C45.11 62.38 45.25 62.24 45.44 62.24C45.62 62.24 45.77 62.38 45.77 62.57C45.77 62.75 45.62 62.9 45.44 62.9C45.25 62.9 45.11 62.75 45.11 62.57ZM39.53 62.7L39.56 62.68C39.55 62.68 39.54 62.69 39.53 62.7L39.53 62.7ZM39.56 62.68C41.04 61.81 42.44 60.84 43.8 59.81C44.85 59.01 45.85 58.14 46.81 57.23C46.81 57.22 46.81 57.21 46.82 57.19C46.34 57.61 45.83 57.99 45.34 58.39C43.43 59.91 42.83 60.26 44.74 58.74C45.28 58.3 45.84 57.88 46.36 57.41C47.09 56.79 47.81 56.15 48.53 55.52C49.8 54.16 50.91 52.67 51.96 51.14C53.21 49.37 54.12 47.41 54.88 45.38C55.67 43.17 55.98 40.86 56.16 38.53C56.36 36.45 56.19 34.38 55.92 32.32C55.43 28.46 56.38 27.92 56.88 31.77C57.14 33.83 57.33 35.9 57.12 37.98C56.97 40 56.71 42.01 56.13 43.95C56.24 43.85 56.38 43.78 56.54 43.78C56.87 43.78 57.14 44.06 57.14 44.39C57.14 44.72 56.87 45 56.54 45C56.25 45 56 44.79 55.94 44.51C55.91 44.61 55.88 44.72 55.85 44.82C55.09 46.85 54.18 48.8 52.93 50.58C52.23 51.59 51.51 52.59 50.73 53.54C51.29 53.04 51.84 52.53 52.39 52.01L53.07 51.32C53.12 51.17 53.23 51.06 53.36 50.99C53.81 50.5 54.24 50 54.6 49.43C55.17 48.59 55.74 47.75 56.28 46.89C56.83 46.04 57.37 45.19 57.89 44.32C58.34 43.57 58.79 42.83 59.19 42.05C59.41 41.58 59.65 41.12 59.8 40.62C59.87 40.44 59.93 40.24 60.02 40.06C60.25 39.6 60.45 39.24 60.62 38.95C60.42 38.85 60.29 38.64 60.29 38.4C60.29 38.08 60.54 37.82 60.86 37.8C60.77 37.74 60.71 37.64 60.71 37.53C60.71 37.34 60.86 37.19 61.04 37.19C61.23 37.19 61.37 37.34 61.37 37.53C61.37 37.68 61.27 37.81 61.13 37.84C61.34 37.94 61.49 38.15 61.49 38.4C61.49 38.7 61.27 38.95 60.99 39C60.89 39.2 60.78 39.43 60.64 39.7C60.55 39.88 60.5 40.07 60.43 40.26C60.27 40.76 60.03 41.23 59.8 41.7L59.56 42.14C59.67 42.04 59.82 41.97 59.98 41.97C60.31 41.97 60.59 42.24 60.59 42.57C60.59 42.91 60.31 43.18 59.98 43.18C59.65 43.18 59.38 42.91 59.38 42.57C59.38 42.53 59.39 42.49 59.39 42.45C59.1 42.96 58.8 43.46 58.5 43.97C57.97 44.83 57.43 45.69 56.89 46.54C56.34 47.4 55.78 48.24 55.21 49.08C54.77 49.75 54.25 50.35 53.7 50.93C54 50.97 54.24 51.22 54.24 51.53C54.24 51.87 53.97 52.13 53.63 52.13C53.33 52.13 53.07 51.91 53.03 51.62L52.99 51.67C52.04 52.57 51.06 53.44 50.09 54.32L50.04 54.36C49.73 54.72 49.4 55.07 49.06 55.41C48.6 55.88 48.14 56.34 47.66 56.78C47.86 56.88 48 57.09 48 57.34C48 57.67 47.74 57.94 47.4 57.94C47.14 57.94 46.92 57.77 46.84 57.54C46.18 58.13 45.49 58.7 44.79 59.24C43.39 60.29 41.96 61.29 40.44 62.17L39.56 62.68ZM35.85 62.21C35.85 62.02 36 61.88 36.18 61.88C36.37 61.88 36.52 62.02 36.52 62.21C36.52 62.39 36.37 62.54 36.18 62.54C36 62.54 35.85 62.39 35.85 62.21ZM42.24 62.29L42.17 62.29C41.99 62.29 41.84 62.14 41.84 61.96C41.84 61.78 41.99 61.63 42.17 61.63C42.36 61.63 42.5 61.78 42.5 61.96C42.5 62.12 42.39 62.26 42.24 62.29ZM28.23 61.51C28.23 61.17 28.5 60.91 28.83 60.91C29.16 60.91 29.44 61.17 29.44 61.51C29.44 61.84 29.16 62.12 28.83 62.12C28.5 62.12 28.23 61.84 28.23 61.51ZM30.34 61.6C30.34 61.42 30.49 61.27 30.68 61.27C30.86 61.27 31.01 61.42 31.01 61.6C31.01 61.78 30.86 61.93 30.68 61.93C30.49 61.93 30.34 61.78 30.34 61.6ZM39.12 60.09C39.12 59.9 39.27 59.75 39.45 59.75C39.63 59.75 39.78 59.9 39.78 60.09C39.78 60.27 39.63 60.42 39.45 60.42C39.27 60.42 39.12 60.27 39.12 60.09ZM41.84 59.63C41.84 59.3 42.11 59.03 42.44 59.03C42.77 59.03 43.05 59.3 43.05 59.63C43.05 59.97 42.77 60.24 42.44 60.24C42.11 60.24 41.84 59.97 41.84 59.63ZM20.48 59.39C20.48 59.06 20.75 58.79 21.09 58.79C21.42 58.79 21.7 59.06 21.7 59.39C21.7 59.73 21.42 59.99 21.09 59.99C20.75 59.99 20.48 59.73 20.48 59.39ZM49.4 59.06C49.4 58.88 49.55 58.73 49.73 58.73C49.91 58.73 50.06 58.88 50.06 59.06C50.06 59.24 49.91 59.39 49.73 59.39C49.55 59.39 49.4 59.24 49.4 59.06ZM27.81 58.67C27.81 58.33 28.07 58.06 28.41 58.06C28.74 58.06 29.01 58.33 29.01 58.67C29.01 59 28.74 59.27 28.41 59.27C28.07 59.27 27.81 59 27.81 58.67ZM19.03 57.91C19.03 57.73 19.18 57.58 19.36 57.58C19.55 57.58 19.7 57.73 19.7 57.91C19.7 58.09 19.55 58.24 19.36 58.24C19.18 58.24 19.03 58.09 19.03 57.91ZM43.17 57.58C43.17 57.24 43.44 56.98 43.77 56.98C44.1 56.98 44.38 57.24 44.38 57.58C44.38 57.91 44.1 58.18 43.77 58.18C43.44 58.18 43.17 57.91 43.17 57.58ZM22.06 57.58C21.72 57.58 21.45 57.31 21.45 56.98C21.45 56.74 21.58 56.55 21.77 56.45C21.76 56.41 21.75 56.38 21.75 56.34C21.75 56.16 21.9 56.01 22.09 56.01C22.27 56.01 22.42 56.16 22.42 56.34C22.42 56.39 22.41 56.43 22.4 56.47C22.56 56.58 22.66 56.77 22.66 56.98C22.66 57.31 22.39 57.58 22.06 57.58L22.06 57.58ZM34.51 56.43C34.51 56.1 34.79 55.82 35.12 55.82C35.46 55.82 35.72 56.1 35.72 56.43C35.72 56.76 35.46 57.03 35.12 57.03C34.79 57.03 34.51 56.76 34.51 56.43ZM23.98 56.81C23.86 56.82 23.84 56.31 24.04 55.21C24.28 53.94 24.51 52.67 24.65 51.39C24.81 49.81 24.9 48.23 24.85 46.64C24.79 45.45 24.71 44.27 24.5 43.1C24.37 42.31 24.25 41.51 24.04 40.74C23.95 40.44 23.9 40.13 23.76 39.84C22.67 37.53 23.34 37.15 24.38 39.48C24.51 39.77 24.58 40.08 24.67 40.38C24.87 41.16 24.99 41.95 25.11 42.74C25.31 43.92 25.39 45.1 25.45 46.29C25.5 47.88 25.4 49.47 25.24 51.05C25.1 52.33 24.87 53.6 24.63 54.87C24.4 56.12 24.12 56.8 23.98 56.81L23.98 56.81ZM36.57 56.46C36.57 56.28 36.72 56.13 36.9 56.13C37.09 56.13 37.24 56.28 37.24 56.46C37.24 56.64 37.09 56.79 36.9 56.79C36.72 56.79 36.57 56.64 36.57 56.46ZM26.65 56.22C26.65 56.04 26.8 55.89 26.99 55.89C27.17 55.89 27.32 56.04 27.32 56.22C27.32 56.4 27.17 56.55 26.99 56.55C26.8 56.55 26.65 56.4 26.65 56.22ZM30.34 54.85C30.34 54.52 30.62 54.25 30.95 54.25C31.29 54.25 31.55 54.52 31.55 54.85C31.55 55.19 31.29 55.46 30.95 55.46C30.62 55.46 30.34 55.19 30.34 54.85ZM47.22 54.37C47.22 54.04 47.49 53.77 47.83 53.77C48.16 53.77 48.43 54.04 48.43 54.37C48.43 54.71 48.16 54.97 47.83 54.97C47.49 54.97 47.22 54.71 47.22 54.37ZM54.3 53.25C54.3 53.07 54.45 52.92 54.63 52.92C54.81 52.92 54.96 53.07 54.96 53.25C54.96 53.43 54.81 53.58 54.63 53.58C54.45 53.58 54.3 53.43 54.3 53.25ZM42.5 50.14C42.5 49.8 42.77 49.53 43.1 49.53C43.44 49.53 43.71 49.8 43.71 50.14C43.71 50.47 43.44 50.74 43.1 50.74C42.77 50.74 42.5 50.47 42.5 50.14ZM49.21 49.44C49.21 49.25 49.36 49.11 49.55 49.11C49.73 49.11 49.89 49.26 49.89 49.44C49.89 49.62 49.73 49.77 49.55 49.77C49.36 49.77 49.21 49.62 49.21 49.44ZM19.52 48.75C19.52 48.41 19.79 48.14 20.12 48.14C20.45 48.14 20.73 48.41 20.73 48.75C20.73 49.08 20.45 49.35 20.12 49.35C19.79 49.35 19.52 49.08 19.52 48.75ZM34.82 48.51C34.82 48.17 35.09 47.9 35.43 47.9C35.76 47.9 36.03 48.17 36.03 48.51C36.03 48.84 35.76 49.11 35.43 49.11C35.09 49.11 34.82 48.84 34.82 48.51ZM58.41 48.05C58.41 47.87 58.56 47.72 58.74 47.72C58.93 47.72 59.08 47.87 59.08 48.05C59.08 48.24 58.93 48.39 58.74 48.39C58.56 48.39 58.41 48.24 58.41 48.05ZM57.38 47.3C57.38 46.96 57.65 46.69 57.99 46.69C58.32 46.69 58.6 46.96 58.6 47.3C58.6 47.63 58.32 47.9 57.99 47.9C57.65 47.9 57.38 47.63 57.38 47.3ZM38.57 47.11C38.57 46.78 38.84 46.5 39.17 46.5C39.51 46.5 39.78 46.78 39.78 47.11C39.78 47.45 39.51 47.72 39.17 47.72C38.84 47.72 38.57 47.45 38.57 47.11ZM28.59 46.45C28.59 46.11 28.86 45.84 29.19 45.84C29.52 45.84 29.8 46.11 29.8 46.45C29.8 46.78 29.52 47.05 29.19 47.05C28.86 47.05 28.59 46.78 28.59 46.45ZM22.54 44.11C22.54 43.93 22.69 43.78 22.87 43.78C23.05 43.78 23.2 43.93 23.2 44.11C23.2 44.3 23.05 44.45 22.87 44.45C22.69 44.45 22.54 44.3 22.54 44.11ZM25.75 43.73C25.75 43.39 26.01 43.12 26.35 43.12C26.68 43.12 26.96 43.39 26.96 43.73C26.96 44.06 26.68 44.33 26.35 44.33C26.01 44.33 25.75 44.06 25.75 43.73ZM52.42 43.54C52.42 43.21 52.69 42.94 53.02 42.94C53.36 42.94 53.63 43.21 53.63 43.54C53.63 43.88 53.36 44.15 53.02 44.15C52.69 44.15 52.42 43.88 52.42 43.54ZM29.74 43.21C29.74 43.03 29.89 42.88 30.07 42.88C30.26 42.88 30.41 43.03 30.41 43.21C30.41 43.39 30.26 43.54 30.07 43.54C29.89 43.54 29.74 43.39 29.74 43.21ZM37.84 40.4C37.84 40.06 38.12 39.8 38.45 39.8C38.79 39.8 39.05 40.06 39.05 40.4C39.05 40.73 38.79 41 38.45 41C38.12 41 37.84 40.73 37.84 40.4ZM44.99 40.34C44.99 40.01 45.25 39.73 45.59 39.73C45.92 39.73 46.19 40.01 46.19 40.34C46.19 40.67 45.92 40.94 45.59 40.94C45.25 40.94 44.99 40.67 44.99 40.34ZM57.56 39.67C57.56 39.34 57.84 39.07 58.17 39.07C58.51 39.07 58.77 39.34 58.77 39.67C58.77 40.01 58.51 40.28 58.17 40.28C57.84 40.28 57.56 40.01 57.56 39.67ZM27.32 39.19C27.32 38.85 27.59 38.59 27.93 38.59C28.26 38.59 28.53 38.85 28.53 39.19C28.53 39.52 28.26 39.8 27.93 39.8C27.59 39.8 27.32 39.52 27.32 39.19ZM42.68 39.13C42.68 38.8 42.95 38.52 43.29 38.52C43.62 38.52 43.9 38.8 43.9 39.13C43.9 39.46 43.62 39.73 43.29 39.73C42.95 39.73 42.68 39.46 42.68 39.13ZM30.82 38.07C30.82 37.89 30.98 37.74 31.16 37.74C31.35 37.74 31.5 37.89 31.5 38.07C31.5 38.25 31.35 38.4 31.16 38.4C30.98 38.4 30.82 38.25 30.82 38.07ZM22.11 37.1C22.11 36.92 22.26 36.77 22.45 36.77C22.63 36.77 22.79 36.92 22.79 37.1C22.79 37.29 22.63 37.43 22.45 37.43C22.26 37.43 22.11 37.28 22.11 37.1ZM44.07 36.98C44.07 36.8 44.22 36.65 44.41 36.65C44.59 36.65 44.74 36.8 44.74 36.98C44.74 37.16 44.59 37.31 44.41 37.31C44.22 37.31 44.07 37.16 44.07 36.98ZM53.51 36.16C53.51 35.83 53.78 35.56 54.11 35.56C54.45 35.56 54.72 35.83 54.72 36.16C54.72 36.49 54.45 36.77 54.11 36.77C53.78 36.77 53.51 36.49 53.51 36.16ZM37.72 36.2C37.72 36.01 37.87 35.86 38.06 35.86C38.24 35.86 38.39 36.01 38.39 36.2C38.39 36.38 38.24 36.53 38.06 36.53C37.87 36.53 37.72 36.38 37.72 36.2ZM61.49 35.65C61.49 35.47 61.64 35.32 61.83 35.32C62.01 35.32 62.16 35.47 62.16 35.65C62.16 35.84 62.01 35.98 61.83 35.98C61.64 35.98 61.49 35.84 61.49 35.65ZM38.21 35.26C38.21 34.92 38.48 34.65 38.81 34.65C39.15 34.65 39.41 34.92 39.41 35.26C39.41 35.59 39.15 35.86 38.81 35.86C38.48 35.86 38.21 35.59 38.21 35.26ZM47.88 35.07C47.88 34.74 48.16 34.47 48.49 34.47C48.83 34.47 49.09 34.74 49.09 35.07C49.09 35.41 48.83 35.68 48.49 35.68C48.16 35.68 47.88 35.41 47.88 35.07ZM52.3 34.5C52.3 34.32 52.45 34.17 52.64 34.17C52.82 34.17 52.97 34.32 52.97 34.5C52.97 34.68 52.82 34.83 52.64 34.83C52.45 34.83 52.3 34.68 52.3 34.5ZM61.07 34.05C61.07 33.71 61.34 33.44 61.68 33.44C62.01 33.44 62.28 33.71 62.28 34.05C62.28 34.38 62.01 34.65 61.68 34.65C61.34 34.65 61.07 34.38 61.07 34.05ZM29.59 34.65C29.4 34.65 29.25 34.5 29.25 34.32C29.25 34.13 29.4 33.98 29.59 33.98C29.77 33.98 29.92 34.13 29.92 34.32C29.92 34.48 29.81 34.62 29.66 34.65L29.59 34.65ZM57.14 33.35C57.14 33.17 57.29 33.01 57.47 33.01C57.66 33.01 57.8 33.17 57.8 33.35C57.8 33.54 57.66 33.69 57.47 33.69C57.29 33.69 57.14 33.54 57.14 33.35ZM32.64 32.47C32.64 32.14 32.92 31.87 33.25 31.87C33.58 31.87 33.85 32.14 33.85 32.47C33.85 32.8 33.58 33.08 33.25 33.08C32.92 33.08 32.64 32.8 32.64 32.47ZM53.39 32.27C53.39 32.08 53.54 31.93 53.72 31.93C53.91 31.93 54.06 32.08 54.06 32.27C54.06 32.45 53.91 32.6 53.72 32.6C53.54 32.6 53.39 32.45 53.39 32.27ZM43.17 31.14C43.17 30.81 43.44 30.54 43.77 30.54C43.94 30.54 44.1 30.61 44.21 30.72C44.25 30.58 44.37 30.48 44.53 30.48C44.71 30.48 44.86 30.63 44.86 30.81C44.86 30.99 44.71 31.14 44.53 31.14C44.47 31.14 44.42 31.13 44.37 31.11C44.37 31.12 44.38 31.13 44.38 31.14C44.38 31.48 44.1 31.75 43.77 31.75C43.44 31.75 43.17 31.48 43.17 31.14ZM49.94 30.69C49.94 30.51 50.09 30.36 50.27 30.36C50.46 30.36 50.61 30.51 50.61 30.69C50.61 30.87 50.46 31.02 50.27 31.02C50.09 31.02 49.94 30.87 49.94 30.69ZM60.23 30.57C60.23 30.39 60.38 30.24 60.56 30.24C60.74 30.24 60.89 30.38 60.89 30.57C60.89 30.75 60.74 30.9 60.56 30.9C60.38 30.9 60.23 30.75 60.23 30.57ZM57.38 30.24C57.38 29.9 57.65 29.63 57.99 29.63C58.32 29.63 58.6 29.9 58.6 30.24C58.6 30.57 58.32 30.84 57.99 30.84C57.65 30.84 57.38 30.57 57.38 30.24ZM32.1 30.05C32.1 29.72 32.37 29.45 32.7 29.45C33.04 29.45 33.31 29.72 33.31 30.05C33.31 30.39 33.04 30.66 32.7 30.66C32.37 30.66 32.1 30.39 32.1 30.05ZM37.84 30C37.62 30 37.43 29.87 37.33 29.69C37.24 29.63 37.18 29.53 37.18 29.42C37.18 29.32 37.22 29.24 37.28 29.18C37.36 28.95 37.58 28.79 37.84 28.79C38.18 28.79 38.45 29.05 38.45 29.39C38.45 29.72 38.18 30 37.84 30L37.84 30ZM50.79 28.84C50.79 28.51 51.06 28.24 51.39 28.24C51.73 28.24 52 28.51 52 28.84C52 29.18 51.73 29.45 51.39 29.45C51.06 29.45 50.79 29.18 50.79 28.84ZM28.47 28.24C28.47 27.91 28.74 27.63 29.07 27.63C29.4 27.63 29.68 27.91 29.68 28.24C29.68 28.58 29.4 28.84 29.07 28.84C28.74 28.84 28.47 28.58 28.47 28.24ZM38.93 26.64C38.93 26.45 39.08 26.31 39.27 26.31C39.45 26.31 39.6 26.45 39.6 26.64C39.6 26.82 39.45 26.97 39.27 26.97C39.08 26.97 38.93 26.82 38.93 26.64ZM59.32 26.52C59.32 26.33 59.47 26.19 59.65 26.19C59.83 26.19 59.98 26.33 59.98 26.52C59.98 26.7 59.83 26.85 59.65 26.85C59.47 26.85 59.32 26.7 59.32 26.52ZM31.67 26.45C31.67 26.27 31.82 26.12 32.01 26.12C32.19 26.12 32.34 26.27 32.34 26.45C32.34 26.64 32.19 26.79 32.01 26.79C31.82 26.79 31.67 26.64 31.67 26.45ZM55.08 25.06C55.08 24.88 55.23 24.73 55.41 24.73C55.6 24.73 55.75 24.88 55.75 25.06C55.75 25.24 55.6 25.39 55.41 25.39C55.23 25.39 55.08 25.24 55.08 25.06ZM56.11 24.3C56.11 23.97 56.38 23.7 56.72 23.7C57.05 23.7 57.32 23.97 57.32 24.3C57.32 24.64 57.05 24.91 56.72 24.91C56.38 24.91 56.11 24.64 56.11 24.3ZM34.64 23.85C34.64 23.67 34.79 23.52 34.97 23.52C35.16 23.52 35.31 23.67 35.31 23.85C35.31 24.04 35.16 24.18 34.97 24.18C34.79 24.18 34.64 24.04 34.64 23.85ZM37.12 23.34C37.12 23.01 37.39 22.74 37.72 22.74C38.06 22.74 38.33 23.01 38.33 23.34C38.33 23.68 38.06 23.94 37.72 23.94C37.39 23.94 37.12 23.68 37.12 23.34ZM31.91 22.37C31.91 22.04 32.19 21.77 32.52 21.77C32.86 21.77 33.13 22.04 33.13 22.37C33.13 22.71 32.86 22.98 32.52 22.98C32.19 22.98 31.91 22.71 31.91 22.37ZM49.64 22.46C49.64 22.28 49.79 22.13 49.97 22.13C50.15 22.13 50.3 22.28 50.3 22.46C50.3 22.64 50.15 22.8 49.97 22.8C49.79 22.8 49.64 22.64 49.64 22.46ZM41.54 22.13C41.54 21.79 41.8 21.53 42.14 21.53C42.47 21.53 42.74 21.79 42.74 22.13C42.74 22.46 42.47 22.73 42.14 22.73C41.8 22.73 41.54 22.46 41.54 22.13ZM52.24 21.79C52.24 21.61 52.39 21.46 52.57 21.46C52.76 21.46 52.9 21.61 52.9 21.79C52.9 21.98 52.76 22.13 52.57 22.13C52.39 22.13 52.24 21.98 52.24 21.79ZM40.57 20.41C40.57 20.23 40.72 20.08 40.9 20.08C41.08 20.08 41.23 20.23 41.23 20.41C41.23 20.59 41.08 20.74 40.9 20.74C40.72 20.74 40.57 20.59 40.57 20.41ZM27.32 19.95C27.32 19.62 27.59 19.35 27.93 19.35C28.26 19.35 28.53 19.62 28.53 19.95C28.53 20.28 28.26 20.56 27.93 20.56C27.59 20.56 27.32 20.28 27.32 19.95ZM50.37 18.78C50.37 18.59 50.51 18.44 50.7 18.44C50.88 18.44 51.03 18.59 51.03 18.78C51.03 18.96 50.88 19.11 50.7 19.11C50.51 19.11 50.37 18.96 50.37 18.78ZM52.24 18.08C52.24 17.74 52.51 17.48 52.85 17.47C53.18 17.47 53.45 17.74 53.45 18.08C53.45 18.41 53.18 18.68 52.85 18.68C52.51 18.68 52.24 18.41 52.24 18.08ZM26.77 17.44C26.77 17.26 26.92 17.11 27.11 17.11C27.29 17.11 27.44 17.26 27.44 17.44C27.44 17.62 27.29 17.77 27.11 17.77C26.92 17.77 26.77 17.62 26.77 17.44ZM52.54 16.17C52.54 15.99 52.69 15.84 52.88 15.84C53.06 15.84 53.21 15.99 53.21 16.17C53.21 16.36 53.06 16.51 52.88 16.51C52.69 16.51 52.54 16.36 52.54 16.17ZM35.91 15.26C35.91 15.08 36.06 14.93 36.24 14.93C36.42 14.93 36.57 15.08 36.57 15.26C36.57 15.45 36.42 15.59 36.24 15.59C36.06 15.59 35.91 15.45 35.91 15.26ZM27.38 13.63C27.38 13.45 27.53 13.3 27.71 13.3C27.9 13.3 28.05 13.45 28.05 13.63C28.05 13.81 27.9 13.96 27.71 13.96C27.53 13.96 27.38 13.81 27.38 13.63ZM29.07 12.42C29.07 12.24 29.22 12.09 29.4 12.09C29.59 12.09 29.74 12.24 29.74 12.42C29.74 12.6 29.59 12.75 29.4 12.75C29.22 12.75 29.07 12.6 29.07 12.42Z" />
		<g id="Layer">
			<path id="Layer" class="shp8" d="M46.71 70.27C46.71 75.69 42.32 80.08 36.9 80.08C31.48 80.08 27.09 75.69 27.09 70.27C27.09 64.85 31.48 60.46 36.9 60.46C42.32 60.46 46.71 64.85 46.71 70.27Z" />
			<path id="Layer" class="shp9" d="M36.89 62.98C36.89 62.98 38.27 65.05 39.88 66.88C41.5 68.7 43.34 70.28 43.34 70.28C43.34 70.28 41.51 71.86 39.91 73.67C38.31 75.49 36.95 77.54 36.95 77.54C36.95 77.54 35.56 75.47 33.93 73.64C32.31 71.81 30.45 70.22 30.45 70.22C30.45 70.22 32.3 68.65 33.91 66.84C35.52 65.03 36.89 62.98 36.89 62.98L36.89 62.98Z" />
		</g>
		<g id="Layer">
			<path id="Layer" class="shp10" d="M62.74 81.06C62.74 86.48 58.35 90.87 52.93 90.87C47.51 90.87 43.12 86.48 43.12 81.06C43.12 75.64 47.51 71.25 52.93 71.25C58.35 71.25 62.74 75.64 62.74 81.06Z" />
			<path id="Layer" class="shp11" d="M52.92 73.77C52.92 73.77 54.3 75.84 55.91 77.67C57.53 79.49 59.37 81.07 59.37 81.07C59.37 81.07 57.54 82.65 55.94 84.46C54.34 86.28 52.98 88.33 52.98 88.33C52.98 88.33 51.59 86.26 49.96 84.43C48.34 82.6 46.48 81.01 46.48 81.01C46.48 81.01 48.33 79.44 49.94 77.63C51.55 75.82 52.92 73.77 52.92 73.77L52.92 73.77Z" />
		</g>
		<g id="Layer">
			<path id="Layer" class="shp12" d="M62.74 61.16C62.74 66.58 58.35 70.97 52.93 70.97C47.51 70.97 43.12 66.58 43.12 61.16C43.12 55.74 47.51 51.35 52.93 51.35C58.35 51.35 62.74 55.74 62.74 61.16Z" />
			<path id="Layer" class="shp13" d="M52.92 53.87C52.92 53.87 54.3 55.94 55.91 57.77C57.53 59.59 59.37 61.17 59.37 61.17C59.37 61.17 57.54 62.75 55.94 64.56C54.34 66.38 52.98 68.43 52.98 68.43C52.98 68.43 51.59 66.36 49.96 64.53C48.34 62.7 46.48 61.11 46.48 61.11C46.48 61.11 48.33 59.54 49.94 57.73C51.55 55.92 52.92 53.87 52.92 53.87L52.92 53.87Z" />
		</g>
		<g id="Layer">
			<path id="Layer" class="shp14" d="M30.57 81.06C30.57 86.48 26.18 90.87 20.76 90.87C15.34 90.87 10.95 86.48 10.95 81.06C10.95 75.64 15.34 71.25 20.76 71.25C26.18 71.25 30.57 75.64 30.57 81.06Z" />
			<path id="Layer" class="shp15" d="M20.75 73.77C20.75 73.77 22.13 75.84 23.74 77.67C25.36 79.49 27.2 81.07 27.2 81.07C27.2 81.07 25.37 82.65 23.77 84.46C22.17 86.28 20.81 88.33 20.81 88.33C20.81 88.33 19.42 86.26 17.79 84.43C16.17 82.6 14.31 81.01 14.31 81.01C14.31 81.01 16.16 79.44 17.77 77.63C19.38 75.82 20.75 73.77 20.75 73.77L20.75 73.77Z" />
		</g>
		<g id="Layer">
			<path id="Layer" class="shp16" d="M30.57 61.16C30.57 66.58 26.18 70.97 20.76 70.97C15.34 70.97 10.95 66.58 10.95 61.16C10.95 55.74 15.34 51.35 20.76 51.35C26.18 51.35 30.57 55.74 30.57 61.16Z" />
			<path id="Layer" class="shp17" d="M20.75 53.87C20.75 53.87 22.13 55.94 23.74 57.77C25.36 59.59 27.2 61.17 27.2 61.17C27.2 61.17 25.37 62.75 23.77 64.56C22.17 66.38 20.81 68.43 20.81 68.43C20.81 68.43 19.42 66.36 17.79 64.53C16.17 62.7 14.31 61.11 14.31 61.11C14.31 61.11 16.16 59.54 17.77 57.73C19.38 55.92 20.75 53.87 20.75 53.87L20.75 53.87Z" />
		</g>
		<g id="Layer">
			<path id="Layer" class="shp18" d="M62.74 40.63C62.74 46.05 58.35 50.44 52.93 50.44C47.51 50.44 43.12 46.05 43.12 40.63C43.12 35.21 47.51 30.82 52.93 30.82C58.35 30.82 62.74 35.21 62.74 40.63Z" />
			<path id="Layer" class="shp19" d="M52.92 33.34C52.92 33.34 54.3 35.41 55.91 37.24C57.53 39.06 59.37 40.64 59.37 40.64C59.37 40.64 57.54 42.22 55.94 44.03C54.34 45.85 52.98 47.9 52.98 47.9C52.98 47.9 51.59 45.83 49.96 44C48.34 42.17 46.48 40.58 46.48 40.58C46.48 40.58 48.33 39.01 49.94 37.2C51.55 35.39 52.92 33.34 52.92 33.34L52.92 33.34Z" />
		</g>
		<g id="Layer">
			<path id="Layer" class="shp20" d="M30.57 40.63C30.57 46.05 26.18 50.44 20.76 50.44C15.34 50.44 10.95 46.05 10.95 40.63C10.95 35.21 15.34 30.82 20.76 30.82C26.18 30.82 30.57 35.21 30.57 40.63Z" />
			<path id="Layer" class="shp21" d="M20.75 33.34C20.75 33.34 22.13 35.41 23.74 37.24C25.36 39.06 27.2 40.64 27.2 40.64C27.2 40.64 25.37 42.22 23.77 44.03C22.17 45.85 20.81 47.9 20.81 47.9C20.81 47.9 19.42 45.83 17.79 44C16.17 42.17 14.31 40.58 14.31 40.58C14.31 40.58 16.16 39.01 17.77 37.2C19.38 35.39 20.75 33.34 20.75 33.34L20.75 33.34Z" />
		</g>
		<g id="Layer">
			<path id="Layer" class="shp22" d="M46.71 31.59C46.71 37.01 42.32 41.4 36.9 41.4C31.48 41.4 27.09 37.01 27.09 31.59C27.09 26.17 31.48 21.78 36.9 21.78C42.32 21.78 46.71 26.17 46.71 31.59Z" />
			<path id="Layer" class="shp23" d="M36.89 24.3C36.89 24.3 38.27 26.37 39.88 28.2C41.5 30.02 43.34 31.6 43.34 31.6C43.34 31.6 41.51 33.18 39.91 34.99C38.31 36.81 36.95 38.86 36.95 38.86C36.95 38.86 35.56 36.79 33.93 34.96C32.31 33.13 30.45 31.54 30.45 31.54C30.45 31.54 32.3 29.97 33.91 28.16C35.52 26.35 36.89 24.3 36.89 24.3L36.89 24.3Z" />
		</g>
		<g id="Layer">
			<path id="Layer" class="shp24" d="M62.74 20.34C62.74 25.76 58.35 30.15 52.93 30.15C47.51 30.15 43.12 25.76 43.12 20.34C43.12 14.92 47.51 10.53 52.93 10.53C58.35 10.53 62.74 14.92 62.74 20.34Z" />
			<path id="Layer" class="shp25" d="M52.92 13.05C52.92 13.05 54.3 15.12 55.91 16.95C57.53 18.77 59.37 20.35 59.37 20.35C59.37 20.35 57.54 21.93 55.94 23.74C54.34 25.56 52.98 27.61 52.98 27.61C52.98 27.61 51.59 25.54 49.96 23.71C48.34 21.88 46.48 20.29 46.48 20.29C46.48 20.29 48.33 18.72 49.94 16.91C51.55 15.1 52.92 13.05 52.92 13.05L52.92 13.05Z" />
		</g>
		<g id="Layer">
			<path id="Layer" class="shp26" d="M30.57 20.34C30.57 25.76 26.18 30.15 20.76 30.15C15.34 30.15 10.95 25.76 10.95 20.34C10.95 14.92 15.34 10.53 20.76 10.53C26.18 10.53 30.57 14.92 30.57 20.34Z" />
			<path id="Layer" class="shp27" d="M20.75 13.05C20.75 13.05 22.13 15.12 23.74 16.95C25.36 18.77 27.2 20.35 27.2 20.35C27.2 20.35 25.37 21.93 23.77 23.74C22.17 25.56 20.81 27.61 20.81 27.61C20.81 27.61 19.42 25.54 17.79 23.71C16.17 21.88 14.31 20.29 14.31 20.29C14.31 20.29 16.16 18.72 17.77 16.91C19.38 15.1 20.75 13.05 20.75 13.05L20.75 13.05Z" />
		</g>
	</g>
</svg>