<svg xmlns="http://www.w3.org/2000/svg" viewBox="0 0 73 102" width="73" height="102">
	<defs>
		<filter x="-50%" y="-50%" width="200%" height="200%" id="flt1"> <feGaussianBlur stdDeviation="0.85" /> </filter>
		<linearGradient id="grd1" gradientUnits="userSpaceOnUse"  x1="41.175" y1="26.29" x2="43.32" y2="-90.092">
			<stop offset="0" stop-color="#f3f3f3"  />
			<stop offset="1" stop-color="#8f8f8f"  />
		</linearGradient>
		<radialGradient id="grd2" gradientUnits="userSpaceOnUse"  cx="10.228" cy="91.549" r="13.273">
			<stop offset="0" stop-color="#ffffff"  />
			<stop offset="1" stop-color="#ffffff" stop-opacity="0" />
		</radialGradient>
		<radialGradient id="grd3" gradientUnits="userSpaceOnUse"  cx="62.295" cy="12.493" r="14.287">
			<stop offset="0" stop-color="#ffffff"  />
			<stop offset="1" stop-color="#ffffff" stop-opacity="0" />
		</radialGradient>
		<radialGradient id="grd4" gradientUnits="userSpaceOnUse"  cx="36.679" cy="50.486" r="22.382">
			<stop offset="0" stop-color="#ffffff"  />
			<stop offset="1" stop-color="#ffffff" stop-opacity="0" />
		</radialGradient>
		<linearGradient id="grd5" gradientUnits="userSpaceOnUse"  x1="-791.43" y1="90.433" x2="-791.43" y2="87.093">
			<stop offset="0" stop-color="#d90000"  />
			<stop offset="1" stop-color="#950000"  />
		</linearGradient>
		<radialGradient id="grd6" gradientUnits="userSpaceOnUse"  cx="17.907" cy="73.735" r="25.374">
			<stop offset="0" stop-color="#9c0f0f"  />
			<stop offset="1" stop-color="#9c0f0f" stop-opacity="0" />
		</radialGradient>
		<linearGradient id="grd7" gradientUnits="userSpaceOnUse"  x1="-791.428" y1="68.703" x2="-791.428" y2="30.943">
			<stop offset="0" stop-color="#d90000"  />
			<stop offset="1" stop-color="#950000"  />
		</linearGradient>
		<linearGradient id="grd8" gradientUnits="userSpaceOnUse"  x1="-791.424" y1="16.143" x2="-791.424" y2="5.563">
			<stop offset="0" stop-color="#d90000"  />
			<stop offset="1" stop-color="#950000"  />
		</linearGradient>
		<linearGradient id="grd9" gradientUnits="userSpaceOnUse"  x1="-791.425" y1="21.413" x2="-791.425" y2="14.483">
			<stop offset="0" stop-color="#d90000"  />
			<stop offset="1" stop-color="#950000"  />
		</linearGradient>
	</defs>
	<style>
		tspan { white-space:pre }
		.shp0 { filter: url(#flt1);fill: #000000 } 
		.shp1 { fill: url(#grd1);stroke: #000000;stroke-width: 0.226 } 
		.shp2 { opacity: 0.467;fill: url(#grd2) } 
		.shp3 { opacity: 0.396;fill: url(#grd3) } 
		.shp4 { fill: none;stroke: #000000;stroke-width: 0.226 } 
		.shp5 { opacity: 0.455;fill: url(#grd4) } 
		.shp6 { fill: url(#grd5);stroke: #a40000;stroke-linejoin:round;stroke-width: 0.17 } 
		.shp7 { fill: url(#grd6) } 
		.shp8 { fill: url(#grd7);stroke: #a30000;stroke-width: 0.385 } 
		.shp9 { fill: url(#grd8) } 
		.shp10 { fill: url(#grd9);stroke: #a00000;stroke-linejoin:round;stroke-width: 0.353 } 
	</style>
	<g id="-e-Diamond11">
		<g id="Layer">
			<path id="Layer" fill-rule="evenodd" class="shp0" d="M4.22 1.47L68.34 1.47C68.73 1.47 69.12 1.55 69.49 1.7C69.86 1.85 70.19 2.07 70.47 2.35C70.75 2.63 70.97 2.97 71.12 3.33C71.28 3.7 71.35 4.09 71.35 4.49L71.35 97.64C71.35 98.03 71.28 98.43 71.12 98.79C70.97 99.16 70.75 99.49 70.47 99.77C70.19 100.05 69.86 100.27 69.49 100.43C69.12 100.58 68.73 100.66 68.34 100.66L4.22 100.66C3.82 100.66 3.43 100.58 3.07 100.43C2.7 100.27 2.37 100.05 2.09 99.77C1.81 99.49 1.58 99.16 1.43 98.79C1.28 98.43 1.2 98.03 1.2 97.64L1.2 4.49C1.2 4.09 1.28 3.7 1.43 3.33C1.58 2.97 1.81 2.63 2.09 2.35C2.37 2.07 2.7 1.85 3.07 1.7C3.43 1.55 3.82 1.47 4.22 1.47" />
			<path id="Layer" fill-rule="evenodd" class="shp1" d="M5.49 0.89L67.88 0.89C68.39 0.89 68.89 0.99 69.36 1.19C69.83 1.38 70.26 1.67 70.62 2.03C70.98 2.39 71.27 2.82 71.46 3.29C71.66 3.76 71.76 4.26 71.76 4.77L71.76 96.2C71.76 96.71 71.66 97.21 71.46 97.68C71.27 98.15 70.98 98.58 70.62 98.94C70.26 99.3 69.83 99.59 69.36 99.78C68.89 99.98 68.39 100.08 67.88 100.08L5.49 100.08C4.98 100.08 4.47 99.98 4 99.78C3.53 99.59 3.1 99.3 2.74 98.94C2.38 98.58 2.1 98.15 1.9 97.68C1.71 97.21 1.61 96.71 1.61 96.2L1.61 4.77C1.61 4.26 1.71 3.76 1.9 3.29C2.1 2.82 2.38 2.39 2.74 2.03C3.1 1.67 3.53 1.38 4 1.19C4.47 0.99 4.98 0.89 5.49 0.89" />
			<path id="Layer" class="shp2" d="M30.63 96.61L6.04 96.61C5.91 96.61 5.79 96.59 5.67 96.54C5.55 96.49 5.44 96.42 5.35 96.33C5.26 96.24 5.19 96.13 5.14 96.01C5.09 95.89 5.06 95.77 5.06 95.64L5.06 73.31C5.06 73.18 5.09 73.06 5.14 72.94C5.19 72.82 5.26 72.71 5.35 72.62C5.44 72.53 5.55 72.46 5.67 72.41C5.79 72.36 5.91 72.34 6.04 72.34L30.63 72.34C30.76 72.34 30.89 72.36 31.01 72.41C31.13 72.46 31.23 72.53 31.32 72.62C31.42 72.71 31.49 72.82 31.54 72.94C31.59 73.06 31.61 73.18 31.61 73.31L31.61 95.64C31.61 95.77 31.59 95.89 31.54 96.01C31.49 96.13 31.42 96.24 31.32 96.33C31.23 96.42 31.13 96.49 31.01 96.54C30.89 96.59 30.76 96.61 30.63 96.61" />
			<path id="Layer" class="shp3" d="M40.77 4.36L67.27 4.36C67.4 4.36 67.54 4.38 67.66 4.43C67.79 4.49 67.9 4.56 68 4.66C68.09 4.76 68.17 4.87 68.22 5C68.28 5.12 68.3 5.26 68.3 5.39L68.3 48.59C68.3 48.73 68.28 48.86 68.22 48.99C68.17 49.11 68.09 49.23 68 49.32C67.9 49.42 67.79 49.5 67.66 49.55C67.54 49.6 67.4 49.63 67.27 49.63L40.77 49.63C40.63 49.63 40.49 49.6 40.37 49.55C40.24 49.5 40.13 49.42 40.03 49.32C39.94 49.23 39.86 49.11 39.81 48.99C39.76 48.86 39.73 48.73 39.73 48.59L39.73 5.39C39.73 5.26 39.76 5.12 39.81 5C39.86 4.87 39.94 4.76 40.03 4.66C40.13 4.56 40.24 4.49 40.37 4.43C40.49 4.38 40.63 4.36 40.77 4.36" />
			<path id="Layer" class="shp4" d="M20.03 92.59L64.75 92.59L64.75 18.98" />
			<path id="Layer" class="shp4" d="M53.18 8.38L8.62 8.38L8.62 81.56" />
			<path id="Layer" class="shp5" d="M59.06 50.49C59.06 72.38 49.03 90.12 36.67 90.12C24.31 90.12 14.29 72.38 14.29 50.49C14.29 28.6 24.31 10.85 36.67 10.85C49.03 10.85 59.06 28.6 59.06 50.49Z" />
		</g>
		<path id="Layer" class="shp6" d="M11.66 85.28C11.66 85.28 12.33 86.28 13.1 87.16C13.88 88.03 14.77 88.8 14.77 88.8C14.77 88.8 13.89 89.55 13.12 90.43C12.35 91.3 11.69 92.29 11.69 92.29C11.69 92.29 11.02 91.29 10.24 90.41C9.46 89.53 8.56 88.77 8.56 88.77C8.56 88.77 9.45 88.01 10.22 87.14C11 86.27 11.66 85.28 11.66 85.28L11.66 85.28Z" />
		<path id="Layer" fill-rule="evenodd" class="shp7" d="M17.81 89.35C17.81 89.35 17.81 89.35 17.81 89.35C17.81 89.35 17.81 89.35 17.81 89.35L17.81 89.35ZM17.81 89.35C15.5 83.58 13.94 83.75 11.95 83.17L14.92 83.17C14.94 83.07 14.96 82.97 14.97 82.87C15.03 82.62 15.1 82.38 15.18 82.13C15.18 81.8 15.18 81.47 15.18 81.14C15.19 80.42 15.29 79.71 15.38 79.01C15.4 78.82 15.42 78.64 15.45 78.46C15.36 78.38 15.38 77.84 15.64 76.78C15.69 76.56 15.73 76.35 15.77 76.13C15.86 75.63 15.97 75.13 16.08 74.64C16.2 74.04 16.4 73.47 16.58 72.9C16.82 72.21 17.11 71.55 17.39 70.88C17.74 70.07 18.1 69.25 18.46 68.44C18.95 67.35 19.5 66.28 20.04 65.21C20.72 63.9 21.33 62.56 21.92 61.2C22.61 59.54 23.3 57.88 23.99 56.23C24.74 54.46 25.45 52.67 26.12 50.87C26.17 50.76 26.21 50.64 26.25 50.53C26.24 50.49 26.23 50.45 26.23 50.41C26.23 50.28 26.29 50.17 26.39 50.12C26.99 48.44 27.53 46.74 28.05 45.04C28.71 42.89 29.26 40.72 29.7 38.52C30.15 35.96 30.26 33.36 30.23 30.77C30.17 28.66 29.95 26.56 29.7 24.46C29.59 24.55 29.46 24.61 29.31 24.61C28.98 24.61 28.7 24.34 28.7 24.01C28.7 23.67 28.98 23.4 29.31 23.4C29.41 23.4 29.5 23.43 29.59 23.47L29.52 22.9C29.42 22.16 29.32 21.42 29.21 20.68C29.16 20.79 29.04 20.86 28.92 20.86C28.73 20.86 28.58 20.71 28.58 20.53C28.58 20.35 28.73 20.2 28.92 20.2C29 20.2 29.09 20.23 29.15 20.28C29.05 19.59 28.94 18.89 28.83 18.2C28.66 17.12 28.69 16.48 28.81 16.32C28.71 16.21 28.65 16.06 28.65 15.9C28.65 15.56 28.91 15.3 29.25 15.3C29.58 15.3 29.86 15.56 29.86 15.9C29.86 16.23 29.58 16.51 29.25 16.51C29.18 16.51 29.12 16.49 29.06 16.47C29.17 16.71 29.3 17.16 29.41 17.86C29.65 19.43 29.89 21 30.09 22.57C30.41 25.19 30.72 27.81 30.8 30.44C30.82 33.03 30.72 35.63 30.28 38.18C29.84 40.38 29.28 42.55 28.63 44.7C28.07 46.55 27.49 48.39 26.83 50.21C26.87 50.26 26.89 50.33 26.89 50.41C26.89 50.56 26.78 50.7 26.64 50.73C25.99 52.46 25.3 54.18 24.57 55.89C23.89 57.54 23.2 59.2 22.51 60.86C21.93 62.21 21.32 63.56 20.64 64.87C20.1 65.93 19.55 67 19.07 68.1C18.71 68.91 18.35 69.72 18 70.53C17.72 71.2 17.43 71.86 17.19 72.54C17.01 73.12 16.81 73.69 16.69 74.28C16.68 74.35 16.66 74.42 16.65 74.49C16.84 74.07 17.03 73.65 17.23 73.23C17.38 72.92 17.55 72.61 17.72 72.31C17.72 72.3 17.72 72.3 17.72 72.29C17.8 72.04 17.93 71.82 18.04 71.58C18.21 71.23 18.42 70.91 18.62 70.58C18.81 70.26 19.02 69.96 19.24 69.66C19.81 68.66 20.47 67.71 21.14 66.77C21.67 66.05 22.28 65.4 22.91 64.76C22.93 64.62 23.04 64.5 23.18 64.48L23.7 63.96C24.7 63.02 25.74 62.1 26.74 61.16C27.93 60.05 29.08 58.9 30.22 57.75C31.53 56.44 32.73 55.03 33.84 53.55C35.09 51.85 36.13 50 37.14 48.14C37.47 47.54 37.78 46.93 38.08 46.31L37.96 46.33C37.62 46.33 37.36 46.05 37.36 45.72C37.36 45.39 37.62 45.12 37.96 45.12C38.18 45.12 38.38 45.24 38.48 45.42C38.97 44.31 39.4 43.18 39.79 42.03L39.86 41.8C39.82 41.53 39.8 41.13 39.82 40.58C39.84 39.64 39.86 38.7 39.84 37.77C39.78 36.08 39.67 34.4 39.45 32.72C39.26 31.58 39.09 30.44 38.76 29.33C38.59 28.77 38.44 28.2 38.18 27.67C38.09 27.53 38.05 27.35 37.91 27.24C35.99 25.55 36.63 25.16 38.54 26.87C38.67 26.99 38.72 27.17 38.81 27.32C39.05 27.85 39.21 28.42 39.37 28.98C39.7 30.09 39.87 31.24 40.05 32.38C40.27 34.05 40.37 35.73 40.42 37.42C40.44 38.13 40.43 38.84 40.42 39.55C40.74 38.07 40.97 36.55 41.16 35.04C41.21 34.38 41.24 33.7 41.26 33.04C41.19 33.06 41.12 33.08 41.05 33.08C40.71 33.08 40.44 32.8 40.44 32.47C40.44 32.14 40.71 31.87 41.05 31.87C41.13 31.87 41.21 31.89 41.28 31.92C41.28 30.88 41.26 29.85 41.23 28.81C40.99 28.73 40.81 28.51 40.81 28.24C40.81 27.98 40.97 27.76 41.2 27.68C41.19 27.57 41.18 27.46 41.18 27.35C41.17 26.93 41.15 26.52 41.14 26.1C41.05 23.76 41.63 23.43 41.71 25.77C41.73 26.19 41.74 26.6 41.75 27.02C41.76 27.27 41.77 27.51 41.78 27.76C41.92 27.87 42.02 28.05 42.02 28.24C42.02 28.42 41.94 28.58 41.81 28.69C41.87 30.7 41.89 32.71 41.73 34.71C41.44 37.07 41.06 39.42 40.37 41.7C39.66 43.81 38.81 45.87 37.72 47.81C36.71 49.67 35.67 51.51 34.43 53.21C33.32 54.69 32.12 56.1 30.82 57.41C29.68 58.56 28.52 59.7 27.34 60.81C26.33 61.76 25.3 62.67 24.3 63.61C23.99 63.91 23.69 64.21 23.39 64.52C23.47 64.56 23.53 64.64 23.55 64.72C24.31 63.95 25.11 63.22 25.92 62.49L28.72 60C29.71 59.11 30.71 58.24 31.71 57.36C32.83 56.39 33.92 55.38 35 54.35C36.22 53.2 37.41 52.01 38.59 50.81C39.84 49.55 41.02 48.23 42.16 46.88C43.04 45.83 43.87 44.76 44.69 43.66C44.68 43.62 44.67 43.58 44.67 43.54C44.67 43.23 44.91 42.98 45.22 42.95L45.83 42.11C46.91 40.62 47.89 39.07 48.81 37.48C48.77 37.49 48.74 37.5 48.7 37.5C48.51 37.5 48.36 37.35 48.36 37.16C48.36 36.98 48.51 36.83 48.7 36.83C48.86 36.83 48.99 36.94 49.02 37.09C49.11 36.94 49.2 36.8 49.28 36.65C50.36 34.64 51.39 32.59 52.08 30.41C52.59 28.51 52.89 26.57 53.2 24.62C53.57 22.29 54.15 21.95 53.78 24.28C53.47 26.23 53.17 28.18 52.66 30.08C51.97 32.26 50.95 34.31 49.87 36.32C48.82 38.19 47.68 40.03 46.41 41.77C46.12 42.18 45.82 42.58 45.52 42.99C45.73 43.08 45.88 43.3 45.88 43.54C45.88 43.88 45.62 44.15 45.28 44.15C45.1 44.15 44.93 44.06 44.82 43.93C44.15 44.81 43.46 45.69 42.75 46.54C41.6 47.89 40.42 49.21 39.17 50.47C38.6 51.05 38.03 51.62 37.46 52.2C37.63 52.03 37.93 51.76 38.39 51.37C39.49 50.43 40.61 49.5 41.76 48.63C42.84 47.81 43.95 47.02 45.17 46.42C45.27 46.22 45.47 46.09 45.71 46.09C45.76 46.09 45.81 46.09 45.86 46.1C46.05 46.03 46.23 45.98 46.43 45.97C48.86 45.81 48.39 46.14 46.16 46.3C46.25 46.41 46.31 46.54 46.31 46.69C46.31 47.02 46.04 47.3 45.71 47.3C45.37 47.3 45.1 47.02 45.1 46.69C45.1 46.63 45.12 46.57 45.13 46.51L44.63 46.73C44.22 46.89 43.19 47.66 42.36 48.29C41.2 49.17 40.08 50.09 38.98 51.03C37.83 52 37.18 52.5 37.29 52.36C36.73 52.91 36.17 53.46 35.6 54.01C34.52 55.03 33.43 56.04 32.31 57.02C31.31 57.9 30.31 58.77 29.32 59.66C28.39 60.49 27.46 61.32 26.53 62.14C25.66 62.93 24.8 63.71 23.99 64.55C23.26 65.28 22.54 66.02 21.87 66.8C21.34 67.42 20.82 68.03 20.32 68.67L19.81 69.37C19.78 69.42 19.75 69.46 19.72 69.51C19.27 70.28 18.82 71.05 18.39 71.84L18.35 71.93C18.31 72.05 18.27 72.18 18.21 72.3C17.85 73.07 17.55 73.62 17.34 73.93C17.02 74.64 16.72 75.37 16.51 76.13C16.29 76.96 16.08 77.79 15.99 78.65C15.91 79.26 15.83 79.87 15.81 80.48L15.95 80.17C16.27 79.56 16.65 78.99 17.04 78.41C17.35 77.94 17.69 77.49 18.06 77.05C17.98 76.95 17.94 76.83 17.94 76.69C17.94 76.36 18.21 76.09 18.54 76.09C18.65 76.09 18.76 76.12 18.85 76.17C19.43 75.57 20.05 75.01 20.67 74.45C21.48 73.71 22.34 73.02 23.2 72.35C24.23 71.54 25.33 70.83 26.43 70.12C27.68 69.31 28.95 68.53 30.24 67.76L30.53 67.59C30.28 67.52 30.1 67.29 30.1 67.01C30.1 66.68 30.37 66.41 30.7 66.41C31.04 66.41 31.3 66.68 31.3 67.01C31.3 67.35 31.04 67.62 30.7 67.62C30.65 67.62 30.6 67.61 30.56 67.6C29.5 68.24 28.46 68.88 27.42 69.55C26.33 70.26 25.24 70.97 24.21 71.77C23.35 72.44 22.49 73.12 21.68 73.87C20.95 74.52 20.21 75.18 19.55 75.91L19.09 76.45C19.13 76.52 19.15 76.61 19.15 76.69C19.15 77.03 18.88 77.29 18.54 77.29C18.51 77.29 18.47 77.29 18.44 77.29C18.31 77.46 18.18 77.64 18.06 77.83C17.68 78.4 17.29 78.97 16.97 79.58C16.75 80.05 16.51 80.51 16.37 81.02C16.3 81.25 16.23 81.48 16.16 81.71C16.25 81.77 16.3 81.87 16.3 81.98C16.3 82.16 16.17 82.3 16 82.31C15.95 82.61 15.87 82.91 15.87 83.22C15.88 83.39 15.88 83.57 15.91 83.74C15.93 83.84 15.93 83.95 15.97 84.05C16.24 85.25 18.34 88.45 17.81 89.35ZM18.06 84.34C18.06 84.16 18.21 84.01 18.39 84.01C18.58 84.01 18.73 84.16 18.73 84.34C18.73 84.53 18.58 84.68 18.39 84.68C18.21 84.68 18.06 84.53 18.06 84.34ZM13.16 82.38C13.16 82.04 13.43 81.77 13.76 81.77C14.1 81.77 14.37 82.04 14.37 82.38C14.37 82.71 14.1 82.99 13.76 82.99C13.43 82.99 13.16 82.71 13.16 82.38ZM16.43 81.65C16.43 81.32 16.7 81.05 17.03 81.05C17.36 81.05 17.64 81.32 17.64 81.65C17.64 81.98 17.36 82.26 17.03 82.26C16.7 82.26 16.43 81.98 16.43 81.65ZM12.43 80.23C12.43 80.05 12.58 79.9 12.77 79.9C12.95 79.9 13.1 80.05 13.1 80.23C13.1 80.41 12.95 80.56 12.77 80.56C12.58 80.56 12.43 80.41 12.43 80.23ZM13.95 79.68C13.95 79.5 14.1 79.35 14.28 79.35C14.46 79.35 14.61 79.5 14.61 79.68C14.61 79.87 14.46 80.02 14.28 80.02C14.1 80.02 13.95 79.87 13.95 79.68ZM19.39 78.69C19.39 78.35 19.66 78.09 19.99 78.09C20.33 78.09 20.6 78.35 20.6 78.69C20.6 79.02 20.33 79.3 19.99 79.3C19.66 79.3 19.39 79.02 19.39 78.69ZM21.08 77.93C21.08 77.75 21.23 77.6 21.41 77.6C21.6 77.6 21.75 77.75 21.75 77.93C21.75 78.11 21.6 78.26 21.41 78.26C21.23 78.26 21.08 78.11 21.08 77.93ZM12.49 77C12.49 76.66 12.77 76.39 13.1 76.39C13.43 76.39 13.71 76.66 13.71 77C13.71 77.33 13.43 77.6 13.1 77.6C12.77 77.6 12.49 77.33 12.49 77ZM13.88 75.24C13.88 74.9 14.16 74.64 14.49 74.64C14.83 74.64 15.09 74.9 15.09 75.24C15.09 75.57 14.83 75.85 14.49 75.85C14.16 75.85 13.88 75.57 13.88 75.24ZM21.99 75.27C21.99 75.09 22.14 74.94 22.33 74.94C22.51 74.94 22.66 75.09 22.66 75.27C22.66 75.46 22.51 75.61 22.33 75.61C22.14 75.61 21.99 75.46 21.99 75.27ZM26.1 74.45C26.1 74.12 26.37 73.85 26.71 73.85C27.04 73.85 27.32 74.12 27.32 74.45C27.32 74.79 27.04 75.06 26.71 75.06C26.37 75.06 26.1 74.79 26.1 74.45ZM19.63 73.73C19.63 73.4 19.91 73.12 20.24 73.12C20.57 73.12 20.84 73.4 20.84 73.73C20.84 74.07 20.57 74.33 20.24 74.33C19.91 74.33 19.63 74.07 19.63 73.73ZM22.61 74.18C22.59 74.18 22.96 73.89 23.82 73.25C24.3 72.9 24.76 72.53 25.27 72.23C26.38 71.56 27.5 70.89 28.69 70.36C29.54 69.98 30.39 69.6 31.25 69.26C31.86 69.02 32.46 68.78 33.07 68.54L33.86 68.25C36.24 67.33 35.62 67.7 33.23 68.61L32.46 68.9C31.85 69.13 31.24 69.37 30.64 69.62C30.1 69.82 29.57 70.06 29.04 70.29C29.36 70.31 29.61 70.56 29.61 70.88C29.61 71.22 29.34 71.49 29.01 71.49C28.67 71.49 28.41 71.22 28.41 70.88C28.41 70.73 28.46 70.61 28.55 70.5L28.08 70.71C27.41 70.97 26.08 71.76 25.87 71.88C25.37 72.19 24.91 72.56 24.43 72.9C23.32 73.72 22.64 74.19 22.61 74.18L22.61 74.18ZM13.58 72.94C13.58 72.61 13.85 72.34 14.19 72.34C14.52 72.34 14.8 72.61 14.8 72.94C14.8 73.27 14.52 73.55 14.19 73.55C13.85 73.55 13.58 73.27 13.58 72.94ZM27.07 72.55C27.07 72.37 27.22 72.22 27.4 72.22C27.59 72.22 27.73 72.37 27.73 72.55C27.73 72.73 27.59 72.88 27.4 72.88C27.22 72.88 27.07 72.73 27.07 72.55ZM15.82 71.43C15.82 71.09 16.1 70.83 16.43 70.83C16.76 70.83 17.03 71.09 17.03 71.43C17.03 71.76 16.76 72.03 16.43 72.03C16.1 72.03 15.82 71.76 15.82 71.43ZM19.09 71.25C19.09 70.92 19.36 70.64 19.7 70.64C20.03 70.64 20.3 70.92 20.3 71.25C20.3 71.58 20.03 71.85 19.7 71.85C19.36 71.85 19.09 71.58 19.09 71.25ZM11.16 71.04C11.16 70.85 11.31 70.71 11.49 70.71C11.68 70.71 11.83 70.85 11.83 71.04C11.83 71.22 11.68 71.37 11.49 71.37C11.31 71.37 11.16 71.22 11.16 71.04ZM32.27 69.89C32.27 69.7 32.42 69.55 32.61 69.55C32.79 69.55 32.94 69.7 32.94 69.89C32.94 70.07 32.79 70.22 32.61 70.22C32.42 70.22 32.27 70.07 32.27 69.89ZM24.77 69.55C24.77 69.22 25.05 68.95 25.38 68.95C25.71 68.95 25.98 69.22 25.98 69.55C25.98 69.89 25.71 70.16 25.38 70.16C25.05 70.16 24.77 69.89 24.77 69.55ZM36.06 69.62C35.87 69.62 35.72 69.47 35.72 69.28C35.72 69.22 35.74 69.16 35.77 69.11C35.72 69.12 35.66 69.13 35.6 69.13C35.27 69.13 35 68.86 35 68.53C35 68.19 35.27 67.92 35.6 67.92C35.94 67.92 36.2 68.19 36.2 68.53C36.2 68.69 36.14 68.84 36.03 68.95L36.06 68.95C36.24 68.95 36.39 69.1 36.39 69.28C36.39 69.47 36.24 69.62 36.06 69.62L36.06 69.62ZM37.53 67.62C37.53 67.28 37.81 67.01 38.14 67.01C38.48 67.01 38.75 67.28 38.75 67.62C38.75 67.95 38.48 68.22 38.14 68.22C37.81 68.22 37.53 67.95 37.53 67.62ZM16.91 67.62C16.91 67.28 17.18 67.01 17.52 67.01C17.85 67.01 18.12 67.28 18.12 67.62C18.12 67.95 17.85 68.22 17.52 68.22C17.18 68.22 16.91 67.95 16.91 67.62ZM21.69 67.56C21.69 67.23 21.96 66.95 22.29 66.95C22.62 66.95 22.9 67.23 22.9 67.56C22.9 67.89 22.62 68.16 22.29 68.16C21.96 68.16 21.69 67.89 21.69 67.56ZM39.35 67.77C39.35 67.59 39.5 67.44 39.68 67.44C39.87 67.44 40.01 67.59 40.01 67.77C40.01 67.96 39.87 68.1 39.68 68.1C39.5 68.1 39.35 67.95 39.35 67.77ZM26.35 67.35C26.35 67.16 26.5 67.01 26.68 67.01C26.86 67.01 27.01 67.16 27.01 67.35C27.01 67.53 26.86 67.68 26.68 67.68C26.5 67.68 26.35 67.53 26.35 67.35ZM21.14 67.28C21.14 67.28 21.15 67.28 21.15 67.28C21.15 67.28 21.14 67.28 21.14 67.28L21.14 67.28ZM21.15 67.28C21.18 67.24 21.21 67.2 21.25 67.16C21.86 66.45 22.5 65.79 23.15 65.13C23.07 65.11 22.99 65.05 22.95 64.98C22.52 65.44 22.11 65.92 21.75 66.43C21.54 66.71 21.35 67 21.15 67.28ZM32.65 66.37C32.65 66.37 32.66 66.36 32.67 66.36C32.66 66.36 32.65 66.37 32.65 66.37L32.65 66.37ZM32.67 66.36C33.64 65.8 34.62 65.25 35.6 64.7C35.72 64.64 35.91 64.53 36.07 64.44C35.83 64.36 35.66 64.13 35.66 63.87C35.66 63.53 35.93 63.26 36.27 63.26C36.6 63.26 36.87 63.53 36.87 63.87C36.87 63.92 36.86 63.96 36.85 64L38.93 62.84C38.24 63.24 37.54 63.63 36.85 64.02C36.78 64.28 36.55 64.47 36.27 64.47C36.21 64.47 36.15 64.46 36.1 64.45C35.6 64.73 35.1 65 34.61 65.27C33.91 65.66 33.24 66.03 32.67 66.36ZM40.08 65.95C40.08 65.77 40.23 65.62 40.41 65.62C40.59 65.62 40.74 65.77 40.74 65.95C40.74 66.14 40.59 66.29 40.41 66.29C40.23 66.29 40.08 66.14 40.08 65.95ZM17.27 65.38C16.94 65.38 16.67 65.11 16.67 64.77C16.67 64.44 16.94 64.17 17.27 64.17C17.38 64.17 17.49 64.2 17.57 64.25C17.58 64.07 17.72 63.93 17.91 63.93C18.09 63.93 18.24 64.08 18.24 64.26C18.24 64.45 18.09 64.6 17.91 64.6C17.88 64.6 17.86 64.59 17.84 64.59C17.86 64.65 17.88 64.71 17.88 64.77C17.88 65.11 17.6 65.38 17.27 65.38L17.27 65.38ZM14.97 64.99C14.97 64.8 15.12 64.65 15.3 64.65C15.49 64.65 15.64 64.8 15.64 64.99C15.64 65.17 15.49 65.32 15.3 65.32C15.12 65.32 14.97 65.17 14.97 64.99ZM18.9 62.42C18.9 62.09 19.18 61.81 19.51 61.81C19.85 61.81 20.11 62.09 20.11 62.42C20.11 62.75 19.85 63.02 19.51 63.02C19.18 63.02 18.9 62.75 18.9 62.42ZM44.74 62.57C44.74 62.38 44.89 62.24 45.07 62.24C45.25 62.24 45.4 62.38 45.4 62.57C45.4 62.75 45.25 62.9 45.07 62.9C44.89 62.9 44.74 62.75 44.74 62.57ZM39.17 62.7L39.2 62.68C39.19 62.68 39.18 62.69 39.17 62.7L39.17 62.7ZM39.2 62.68C40.67 61.81 42.07 60.84 43.44 59.81C44.48 59.01 45.48 58.14 46.44 57.23C46.44 57.22 46.45 57.21 46.45 57.19C45.97 57.61 45.47 57.99 44.97 58.39C43.06 59.91 42.46 60.26 44.37 58.74C44.92 58.3 45.47 57.88 46 57.41C46.72 56.79 47.44 56.15 48.16 55.52C49.43 54.16 50.54 52.67 51.59 51.14C52.84 49.37 53.76 47.41 54.51 45.38C55.3 43.17 55.62 40.86 55.79 38.53C55.99 36.45 55.82 34.38 55.55 32.32C55.06 28.46 56.01 27.92 56.51 31.77C56.77 33.83 56.96 35.9 56.75 37.98C56.6 40 56.34 42.01 55.76 43.95C55.87 43.85 56.01 43.78 56.17 43.78C56.5 43.78 56.77 44.06 56.77 44.39C56.77 44.72 56.5 45 56.17 45C55.88 45 55.63 44.79 55.58 44.51C55.54 44.61 55.51 44.72 55.48 44.82C54.73 46.85 53.81 48.8 52.56 50.58C51.86 51.59 51.14 52.59 50.37 53.54C50.92 53.04 51.48 52.53 52.02 52.01L52.7 51.32C52.75 51.17 52.86 51.06 53 50.99C53.45 50.5 53.87 50 54.23 49.43C54.8 48.59 55.37 47.75 55.92 46.89C56.46 46.04 57 45.19 57.52 44.32C57.97 43.57 58.42 42.83 58.82 42.05C59.04 41.58 59.28 41.12 59.44 40.62C59.51 40.44 59.56 40.24 59.65 40.06C59.88 39.6 60.08 39.24 60.26 38.95C60.06 38.85 59.92 38.64 59.92 38.4C59.92 38.08 60.17 37.82 60.49 37.8C60.4 37.74 60.34 37.64 60.34 37.53C60.34 37.34 60.49 37.19 60.67 37.19C60.86 37.19 61.01 37.34 61.01 37.53C61.01 37.68 60.9 37.81 60.76 37.84C60.98 37.94 61.13 38.15 61.13 38.4C61.13 38.7 60.91 38.95 60.62 39C60.53 39.2 60.41 39.43 60.27 39.7C60.18 39.88 60.13 40.07 60.06 40.26C59.9 40.76 59.66 41.23 59.44 41.7L59.2 42.14C59.3 42.04 59.45 41.97 59.61 41.97C59.95 41.97 60.22 42.24 60.22 42.57C60.22 42.91 59.95 43.18 59.61 43.18C59.28 43.18 59.01 42.91 59.01 42.57C59.01 42.53 59.02 42.49 59.03 42.45C58.74 42.96 58.43 43.46 58.13 43.97C57.61 44.83 57.07 45.69 56.52 46.54C55.98 47.4 55.41 48.24 54.84 49.08C54.41 49.75 53.88 50.35 53.33 50.93C53.63 50.97 53.87 51.22 53.87 51.53C53.87 51.87 53.6 52.13 53.26 52.13C52.96 52.13 52.71 51.91 52.66 51.62L52.62 51.67C51.67 52.57 50.7 53.44 49.72 54.32L49.67 54.36C49.36 54.72 49.03 55.07 48.7 55.41C48.24 55.88 47.77 56.34 47.29 56.78C47.5 56.88 47.64 57.09 47.64 57.34C47.64 57.67 47.37 57.94 47.04 57.94C46.77 57.94 46.55 57.77 46.47 57.54C45.81 58.13 45.12 58.7 44.42 59.24C43.02 60.29 41.59 61.29 40.07 62.17L39.2 62.68ZM35.48 62.21C35.48 62.02 35.63 61.88 35.82 61.88C36 61.88 36.15 62.02 36.15 62.21C36.15 62.39 36 62.54 35.82 62.54C35.63 62.54 35.48 62.39 35.48 62.21ZM41.87 62.29L41.8 62.29C41.62 62.29 41.47 62.14 41.47 61.96C41.47 61.78 41.62 61.63 41.8 61.63C41.99 61.63 42.14 61.78 42.14 61.96C42.14 62.12 42.02 62.26 41.87 62.29ZM27.86 61.51C27.86 61.17 28.13 60.91 28.46 60.91C28.8 60.91 29.07 61.17 29.07 61.51C29.07 61.84 28.8 62.12 28.46 62.12C28.13 62.12 27.86 61.84 27.86 61.51ZM29.98 61.6C29.98 61.42 30.12 61.27 30.31 61.27C30.49 61.27 30.64 61.42 30.64 61.6C30.64 61.78 30.49 61.93 30.31 61.93C30.12 61.93 29.98 61.78 29.98 61.6ZM38.75 60.09C38.75 59.9 38.9 59.75 39.08 59.75C39.27 59.75 39.41 59.9 39.41 60.09C39.41 60.27 39.27 60.42 39.08 60.42C38.9 60.42 38.75 60.27 38.75 60.09ZM41.47 59.63C41.47 59.3 41.74 59.03 42.07 59.03C42.41 59.03 42.68 59.3 42.68 59.63C42.68 59.97 42.41 60.24 42.07 60.24C41.74 60.24 41.47 59.97 41.47 59.63ZM20.11 59.39C20.11 59.06 20.39 58.79 20.72 58.79C21.05 58.79 21.33 59.06 21.33 59.39C21.33 59.73 21.05 59.99 20.72 59.99C20.39 59.99 20.11 59.73 20.11 59.39ZM49.03 59.06C49.03 58.88 49.18 58.73 49.36 58.73C49.55 58.73 49.69 58.88 49.69 59.06C49.69 59.24 49.55 59.39 49.36 59.39C49.18 59.39 49.03 59.24 49.03 59.06ZM27.44 58.67C27.44 58.33 27.7 58.06 28.04 58.06C28.37 58.06 28.65 58.33 28.65 58.67C28.65 59 28.37 59.27 28.04 59.27C27.7 59.27 27.44 59 27.44 58.67ZM18.66 57.91C18.66 57.73 18.81 57.58 19 57.58C19.18 57.58 19.33 57.73 19.33 57.91C19.33 58.09 19.18 58.24 19 58.24C18.81 58.24 18.66 58.09 18.66 57.91ZM42.8 57.58C42.8 57.24 43.07 56.98 43.4 56.98C43.74 56.98 44.01 57.24 44.01 57.58C44.01 57.91 43.74 58.18 43.4 58.18C43.07 58.18 42.8 57.91 42.8 57.58ZM21.69 57.58C21.36 57.58 21.08 57.31 21.08 56.98C21.08 56.74 21.22 56.55 21.41 56.45C21.39 56.41 21.39 56.38 21.39 56.34C21.39 56.16 21.53 56.01 21.72 56.01C21.9 56.01 22.05 56.16 22.05 56.34C22.05 56.39 22.05 56.43 22.03 56.47C22.19 56.58 22.29 56.77 22.29 56.98C22.29 57.31 22.02 57.58 21.69 57.58L21.69 57.58ZM34.15 56.43C34.15 56.1 34.42 55.82 34.75 55.82C35.09 55.82 35.36 56.1 35.36 56.43C35.36 56.76 35.09 57.03 34.75 57.03C34.42 57.03 34.15 56.76 34.15 56.43ZM23.61 56.81C23.49 56.82 23.47 56.31 23.68 55.21C23.91 53.94 24.14 52.67 24.28 51.39C24.44 49.81 24.54 48.23 24.48 46.64C24.42 45.45 24.34 44.27 24.14 43.1C24.01 42.31 23.88 41.51 23.68 40.74C23.58 40.44 23.53 40.13 23.39 39.84C22.31 37.53 22.97 37.15 24.02 39.48C24.14 39.77 24.21 40.08 24.3 40.38C24.5 41.16 24.62 41.95 24.74 42.74C24.95 43.92 25.02 45.1 25.08 46.29C25.13 47.88 25.03 49.47 24.87 51.05C24.73 52.33 24.5 53.6 24.26 54.87C24.03 56.12 23.75 56.8 23.61 56.81L23.61 56.81ZM36.2 56.46C36.2 56.28 36.35 56.13 36.54 56.13C36.72 56.13 36.87 56.28 36.87 56.46C36.87 56.64 36.72 56.79 36.54 56.79C36.35 56.79 36.2 56.64 36.2 56.46ZM26.28 56.22C26.28 56.04 26.43 55.89 26.62 55.89C26.8 55.89 26.95 56.04 26.95 56.22C26.95 56.4 26.8 56.55 26.62 56.55C26.43 56.55 26.28 56.4 26.28 56.22ZM29.98 54.85C29.98 54.52 30.25 54.25 30.58 54.25C30.92 54.25 31.18 54.52 31.18 54.85C31.18 55.19 30.92 55.46 30.58 55.46C30.25 55.46 29.98 55.19 29.98 54.85ZM46.85 54.37C46.85 54.04 47.13 53.77 47.46 53.77C47.79 53.77 48.06 54.04 48.06 54.37C48.06 54.71 47.79 54.97 47.46 54.97C47.13 54.97 46.85 54.71 46.85 54.37ZM53.93 53.25C53.93 53.07 54.08 52.92 54.26 52.92C54.44 52.92 54.59 53.07 54.59 53.25C54.59 53.43 54.44 53.58 54.26 53.58C54.08 53.58 53.93 53.43 53.93 53.25ZM42.14 50.14C42.14 49.8 42.4 49.53 42.74 49.53C43.07 49.53 43.34 49.8 43.34 50.14C43.34 50.47 43.07 50.74 42.74 50.74C42.4 50.74 42.14 50.47 42.14 50.14ZM48.85 49.44C48.85 49.25 48.99 49.11 49.18 49.11C49.36 49.11 49.52 49.26 49.52 49.44C49.52 49.62 49.36 49.77 49.18 49.77C48.99 49.77 48.85 49.62 48.85 49.44ZM19.15 48.75C19.15 48.41 19.42 48.14 19.75 48.14C20.09 48.14 20.36 48.41 20.36 48.75C20.36 49.08 20.09 49.35 19.75 49.35C19.42 49.35 19.15 49.08 19.15 48.75ZM34.45 48.51C34.45 48.17 34.72 47.9 35.06 47.9C35.39 47.9 35.66 48.17 35.66 48.51C35.66 48.84 35.39 49.11 35.06 49.11C34.72 49.11 34.45 48.84 34.45 48.51ZM58.04 48.05C58.04 47.87 58.19 47.72 58.38 47.72C58.56 47.72 58.71 47.87 58.71 48.05C58.71 48.24 58.56 48.39 58.38 48.39C58.19 48.39 58.04 48.24 58.04 48.05ZM57.01 47.3C57.01 46.96 57.29 46.69 57.62 46.69C57.95 46.69 58.23 46.96 58.23 47.3C58.23 47.63 57.95 47.9 57.62 47.9C57.29 47.9 57.01 47.63 57.01 47.3ZM38.2 47.11C38.2 46.78 38.47 46.5 38.81 46.5C39.14 46.5 39.41 46.78 39.41 47.11C39.41 47.45 39.14 47.72 38.81 47.72C38.47 47.72 38.2 47.45 38.2 47.11ZM28.22 46.45C28.22 46.11 28.49 45.84 28.82 45.84C29.16 45.84 29.43 46.11 29.43 46.45C29.43 46.78 29.16 47.05 28.82 47.05C28.49 47.05 28.22 46.78 28.22 46.45ZM22.17 44.11C22.17 43.93 22.32 43.78 22.5 43.78C22.69 43.78 22.83 43.93 22.83 44.11C22.83 44.3 22.69 44.45 22.5 44.45C22.32 44.45 22.17 44.3 22.17 44.11ZM25.38 43.73C25.38 43.39 25.65 43.12 25.98 43.12C26.31 43.12 26.59 43.39 26.59 43.73C26.59 44.06 26.31 44.33 25.98 44.33C25.65 44.33 25.38 44.06 25.38 43.73ZM52.06 43.54C52.06 43.21 52.32 42.94 52.66 42.94C52.99 42.94 53.26 43.21 53.26 43.54C53.26 43.88 52.99 44.15 52.66 44.15C52.32 44.15 52.06 43.88 52.06 43.54ZM29.37 43.21C29.37 43.03 29.52 42.88 29.71 42.88C29.89 42.88 30.04 43.03 30.04 43.21C30.04 43.39 29.89 43.54 29.71 43.54C29.52 43.54 29.37 43.39 29.37 43.21ZM37.48 40.4C37.48 40.06 37.75 39.8 38.08 39.8C38.42 39.8 38.69 40.06 38.69 40.4C38.69 40.73 38.42 41 38.08 41C37.75 41 37.48 40.73 37.48 40.4ZM44.62 40.34C44.62 40.01 44.88 39.73 45.22 39.73C45.55 39.73 45.83 40.01 45.83 40.34C45.83 40.67 45.55 40.94 45.22 40.94C44.88 40.94 44.62 40.67 44.62 40.34ZM57.2 39.67C57.2 39.34 57.47 39.07 57.8 39.07C58.14 39.07 58.4 39.34 58.4 39.67C58.4 40.01 58.14 40.28 57.8 40.28C57.47 40.28 57.2 40.01 57.2 39.67ZM26.95 39.19C26.95 38.85 27.22 38.59 27.56 38.59C27.89 38.59 28.16 38.85 28.16 39.19C28.16 39.52 27.89 39.8 27.56 39.8C27.22 39.8 26.95 39.52 26.95 39.19ZM42.31 39.13C42.31 38.8 42.59 38.52 42.92 38.52C43.25 38.52 43.53 38.8 43.53 39.13C43.53 39.46 43.25 39.73 42.92 39.73C42.59 39.73 42.31 39.46 42.31 39.13ZM30.46 38.07C30.46 37.89 30.61 37.74 30.8 37.74C30.98 37.74 31.13 37.89 31.13 38.07C31.13 38.25 30.98 38.4 30.8 38.4C30.61 38.4 30.46 38.25 30.46 38.07ZM21.75 37.1C21.75 36.92 21.89 36.77 22.08 36.77C22.26 36.77 22.42 36.92 22.42 37.1C22.42 37.29 22.26 37.43 22.08 37.43C21.89 37.43 21.75 37.28 21.75 37.1ZM43.71 36.98C43.71 36.8 43.85 36.65 44.04 36.65C44.22 36.65 44.37 36.8 44.37 36.98C44.37 37.16 44.22 37.31 44.04 37.31C43.85 37.31 43.71 37.16 43.71 36.98ZM53.14 36.16C53.14 35.83 53.41 35.56 53.75 35.56C54.08 35.56 54.35 35.83 54.35 36.16C54.35 36.49 54.08 36.77 53.75 36.77C53.41 36.77 53.14 36.49 53.14 36.16ZM37.36 36.2C37.36 36.01 37.51 35.86 37.69 35.86C37.87 35.86 38.02 36.01 38.02 36.2C38.02 36.38 37.87 36.53 37.69 36.53C37.51 36.53 37.36 36.38 37.36 36.2ZM61.13 35.65C61.13 35.47 61.27 35.32 61.46 35.32C61.64 35.32 61.79 35.47 61.79 35.65C61.79 35.84 61.64 35.98 61.46 35.98C61.27 35.98 61.13 35.84 61.13 35.65ZM37.84 35.26C37.84 34.92 38.11 34.65 38.45 34.65C38.78 34.65 39.05 34.92 39.05 35.26C39.05 35.59 38.78 35.86 38.45 35.86C38.11 35.86 37.84 35.59 37.84 35.26ZM47.52 35.07C47.52 34.74 47.79 34.47 48.12 34.47C48.46 34.47 48.73 34.74 48.73 35.07C48.73 35.41 48.46 35.68 48.12 35.68C47.79 35.68 47.52 35.41 47.52 35.07ZM51.94 34.5C51.94 34.32 52.08 34.17 52.27 34.17C52.45 34.17 52.6 34.32 52.6 34.5C52.6 34.68 52.45 34.83 52.27 34.83C52.08 34.83 51.94 34.68 51.94 34.5ZM60.7 34.05C60.7 33.71 60.98 33.44 61.31 33.44C61.64 33.44 61.91 33.71 61.91 34.05C61.91 34.38 61.64 34.65 61.31 34.65C60.98 34.65 60.7 34.38 60.7 34.05ZM29.22 34.65C29.04 34.65 28.89 34.5 28.89 34.32C28.89 34.13 29.04 33.98 29.22 33.98C29.4 33.98 29.55 34.13 29.55 34.32C29.55 34.48 29.44 34.62 29.29 34.65L29.22 34.65ZM56.77 33.35C56.77 33.17 56.92 33.01 57.1 33.01C57.29 33.01 57.44 33.17 57.44 33.35C57.44 33.54 57.29 33.69 57.1 33.69C56.92 33.69 56.77 33.54 56.77 33.35ZM32.27 32.47C32.27 32.14 32.55 31.87 32.88 31.87C33.22 31.87 33.48 32.14 33.48 32.47C33.48 32.8 33.22 33.08 32.88 33.08C32.55 33.08 32.27 32.8 32.27 32.47ZM53.02 32.27C53.02 32.08 53.17 31.93 53.36 31.93C53.54 31.93 53.69 32.08 53.69 32.27C53.69 32.45 53.54 32.6 53.36 32.6C53.17 32.6 53.02 32.45 53.02 32.27ZM42.8 31.14C42.8 30.81 43.07 30.54 43.4 30.54C43.57 30.54 43.73 30.61 43.84 30.72C43.88 30.58 44.01 30.48 44.16 30.48C44.34 30.48 44.49 30.63 44.49 30.81C44.49 30.99 44.34 31.14 44.16 31.14C44.1 31.14 44.05 31.13 44 31.11C44 31.12 44.01 31.13 44.01 31.14C44.01 31.48 43.74 31.75 43.4 31.75C43.07 31.75 42.8 31.48 42.8 31.14ZM49.57 30.69C49.57 30.51 49.72 30.36 49.91 30.36C50.09 30.36 50.24 30.51 50.24 30.69C50.24 30.87 50.09 31.02 49.91 31.02C49.72 31.02 49.57 30.87 49.57 30.69ZM59.86 30.57C59.86 30.39 60.01 30.24 60.19 30.24C60.38 30.24 60.53 30.38 60.53 30.57C60.53 30.75 60.38 30.9 60.19 30.9C60.01 30.9 59.86 30.75 59.86 30.57ZM57.01 30.24C57.01 29.9 57.29 29.63 57.62 29.63C57.95 29.63 58.23 29.9 58.23 30.24C58.23 30.57 57.95 30.84 57.62 30.84C57.29 30.84 57.01 30.57 57.01 30.24ZM31.73 30.05C31.73 29.72 32 29.45 32.34 29.45C32.67 29.45 32.94 29.72 32.94 30.05C32.94 30.39 32.67 30.66 32.34 30.66C32 30.66 31.73 30.39 31.73 30.05ZM37.48 30C37.26 30 37.07 29.87 36.96 29.69C36.87 29.63 36.81 29.53 36.81 29.42C36.81 29.32 36.85 29.24 36.91 29.18C37 28.95 37.22 28.79 37.48 28.79C37.81 28.79 38.08 29.05 38.08 29.39C38.08 29.72 37.81 30 37.48 30L37.48 30ZM50.42 28.84C50.42 28.51 50.69 28.24 51.02 28.24C51.36 28.24 51.63 28.51 51.63 28.84C51.63 29.18 51.36 29.45 51.02 29.45C50.69 29.45 50.42 29.18 50.42 28.84ZM28.1 28.24C28.1 27.91 28.37 27.63 28.7 27.63C29.04 27.63 29.31 27.91 29.31 28.24C29.31 28.58 29.04 28.84 28.7 28.84C28.37 28.84 28.1 28.58 28.1 28.24ZM38.57 26.64C38.57 26.45 38.71 26.31 38.9 26.31C39.08 26.31 39.23 26.45 39.23 26.64C39.23 26.82 39.08 26.97 38.9 26.97C38.71 26.97 38.57 26.82 38.57 26.64ZM58.95 26.52C58.95 26.33 59.1 26.19 59.28 26.19C59.46 26.19 59.61 26.33 59.61 26.52C59.61 26.7 59.46 26.85 59.28 26.85C59.1 26.85 58.95 26.7 58.95 26.52ZM31.3 26.45C31.3 26.27 31.45 26.12 31.64 26.12C31.82 26.12 31.97 26.27 31.97 26.45C31.97 26.64 31.82 26.79 31.64 26.79C31.45 26.79 31.3 26.64 31.3 26.45ZM54.71 25.06C54.71 24.88 54.86 24.73 55.05 24.73C55.23 24.73 55.38 24.88 55.38 25.06C55.38 25.24 55.23 25.39 55.05 25.39C54.86 25.39 54.71 25.24 54.71 25.06ZM55.75 24.3C55.75 23.97 56.01 23.7 56.35 23.7C56.68 23.7 56.96 23.97 56.96 24.3C56.96 24.64 56.68 24.91 56.35 24.91C56.01 24.91 55.75 24.64 55.75 24.3ZM34.27 23.85C34.27 23.67 34.42 23.52 34.61 23.52C34.79 23.52 34.94 23.67 34.94 23.85C34.94 24.04 34.79 24.18 34.61 24.18C34.42 24.18 34.27 24.04 34.27 23.85ZM36.75 23.34C36.75 23.01 37.02 22.74 37.36 22.74C37.69 22.74 37.96 23.01 37.96 23.34C37.96 23.68 37.69 23.94 37.36 23.94C37.02 23.94 36.75 23.68 36.75 23.34ZM31.55 22.37C31.55 22.04 31.82 21.77 32.15 21.77C32.49 21.77 32.76 22.04 32.76 22.37C32.76 22.71 32.49 22.98 32.15 22.98C31.82 22.98 31.55 22.71 31.55 22.37ZM49.27 22.46C49.27 22.28 49.42 22.13 49.6 22.13C49.79 22.13 49.93 22.28 49.93 22.46C49.93 22.64 49.79 22.8 49.6 22.8C49.42 22.8 49.27 22.64 49.27 22.46ZM41.17 22.13C41.17 21.79 41.43 21.53 41.77 21.53C42.1 21.53 42.38 21.79 42.38 22.13C42.38 22.46 42.1 22.73 41.77 22.73C41.43 22.73 41.17 22.46 41.17 22.13ZM51.87 21.79C51.87 21.61 52.02 21.46 52.2 21.46C52.39 21.46 52.54 21.61 52.54 21.79C52.54 21.98 52.39 22.13 52.2 22.13C52.02 22.13 51.87 21.98 51.87 21.79ZM40.2 20.41C40.2 20.23 40.35 20.08 40.53 20.08C40.71 20.08 40.86 20.23 40.86 20.41C40.86 20.59 40.71 20.74 40.53 20.74C40.35 20.74 40.2 20.59 40.2 20.41ZM26.95 19.95C26.95 19.62 27.22 19.35 27.56 19.35C27.89 19.35 28.16 19.62 28.16 19.95C28.16 20.28 27.89 20.56 27.56 20.56C27.22 20.56 26.95 20.28 26.95 19.95ZM50 18.78C50 18.59 50.15 18.44 50.33 18.44C50.51 18.44 50.66 18.59 50.66 18.78C50.66 18.96 50.51 19.11 50.33 19.11C50.15 19.11 50 18.96 50 18.78ZM51.87 18.08C51.87 17.74 52.15 17.48 52.48 17.47C52.81 17.47 53.08 17.74 53.08 18.08C53.08 18.41 52.81 18.68 52.48 18.68C52.15 18.68 51.87 18.41 51.87 18.08ZM26.41 17.44C26.41 17.26 26.55 17.11 26.74 17.11C26.92 17.11 27.07 17.26 27.07 17.44C27.07 17.62 26.92 17.77 26.74 17.77C26.55 17.77 26.41 17.62 26.41 17.44ZM52.18 16.17C52.18 15.99 52.32 15.84 52.51 15.84C52.69 15.84 52.84 15.99 52.84 16.17C52.84 16.36 52.69 16.51 52.51 16.51C52.32 16.51 52.18 16.36 52.18 16.17ZM35.54 15.26C35.54 15.08 35.69 14.93 35.87 14.93C36.06 14.93 36.2 15.08 36.2 15.26C36.2 15.45 36.06 15.59 35.87 15.59C35.69 15.59 35.54 15.45 35.54 15.26ZM27.01 13.63C27.01 13.45 27.16 13.3 27.35 13.3C27.53 13.3 27.68 13.45 27.68 13.63C27.68 13.81 27.53 13.96 27.35 13.96C27.16 13.96 27.01 13.81 27.01 13.63ZM28.7 12.42C28.7 12.24 28.85 12.09 29.04 12.09C29.22 12.09 29.37 12.24 29.37 12.42C29.37 12.6 29.22 12.75 29.04 12.75C28.85 12.75 28.7 12.6 28.7 12.42Z" />
		<path id="Layer" fill-rule="evenodd" class="shp8" d="M46.67 30.01C47.61 31.64 47.98 33 48.25 33.7C48.51 34.39 48.59 34.79 48.41 35.27C48.22 35.75 48.09 35.97 48.49 36.58C48.89 37.2 49 37.17 49.24 37.57C49.48 37.97 49.74 38.42 49.98 38.66C50.22 38.91 50.63 39.33 50.87 39.87C51.11 40.4 51.16 40.59 50.95 40.91C50.73 41.23 50.39 41.2 49.85 41.31C49.32 41.42 48.97 41.68 48.78 42.22C48.6 42.75 48.68 42.89 48.81 43.23C48.94 43.58 48.81 43.82 48.68 43.87C48.54 43.93 48.09 44.01 48.17 44.12C48.25 44.22 48.51 44.33 48.51 44.7C48.51 45.08 48.33 45.08 48.22 45.26C48.11 45.45 47.82 45.88 47.9 46.07C47.98 46.25 48.57 46.68 48.57 47.48C48.57 48.28 48.27 49.03 47.58 49.33C46.89 49.62 46.43 49.46 45.52 49.59C44.61 49.73 43.2 49.89 42.58 50.26C41.97 50.63 41.57 50.96 41.22 51.84C40.87 52.72 40.69 53.23 40.31 53.57C39.94 53.92 39.19 54.56 38.84 55.36C38.5 56.16 37.83 57.21 37.8 58.46C37.77 59.72 37.85 59.75 38.01 59.99C38.18 60.23 38.42 60.95 38.8 61.26C39.54 61.87 39.97 62.26 39.86 63.26C39.78 63.79 39.52 64.17 39.7 64.36C39.89 64.54 40.04 64.77 39.97 65.15C39.89 66.94 41.95 68.75 42.92 70.17C43.18 70.7 43.86 71.12 43.78 72.37L43.71 73.57C43.64 74.75 43.9 75.43 43.71 76.71C43.52 78 38.05 75.94 33.24 72.67C26.8 68.28 22.24 59.03 22.93 57.59C23.58 56.24 23.39 56.43 23.4 56.2C23.26 55.8 23.77 55.78 23.83 55.48C23.83 55.32 23.79 55.07 23.93 55C24.35 54.87 24.43 54.49 24.67 54.16C24.47 53.79 24.76 53.25 25.27 52.87C25.19 52.72 24.4 51.62 24.29 51.13C24.17 50.64 24.02 49.77 24.02 49.77C24.02 49.77 23.91 48.75 23.42 48.52C22.93 48.3 23.31 47.77 23.31 47.77C23.31 47.77 23.34 47.28 22.51 46.79C21.68 46.29 22.1 45.69 22.1 44.71C22.1 43.72 24.26 34.58 24.68 32.44C25.11 30.3 27.67 26.78 30.24 25.39C32.8 24 35.58 24.32 37.72 24.53C39.86 24.74 42.64 25.17 44.45 26.24C46.27 27.31 46.8 27.84 47.87 29.55C48.94 31.26 49.05 33.08 49.05 33.83C48.94 32.66 48.08 30.66 46.67 30.01L46.67 30.01Z" />
		<path id="Layer" class="shp9" d="M63.83 10.11C63.83 9.3 63.96 9.18 64.85 9.11L64.85 8.9L61.67 8.9L61.67 9.11C62.58 9.18 62.7 9.3 62.7 10.11L62.7 15.24C62.7 15.74 62.57 15.97 62.28 15.97C62.13 15.97 62.06 15.88 61.98 15.61C61.87 15.22 61.69 15.04 61.41 15.04C61.11 15.04 60.86 15.3 60.86 15.6C60.86 16.06 61.32 16.39 61.96 16.39C63.16 16.39 63.83 15.6 63.83 14.21L63.83 10.11" />
		<path id="Layer" class="shp10" d="M17.07 10.71C17.07 10.71 18.45 12.78 20.06 14.61C21.68 16.43 23.52 18.01 23.52 18.01C23.52 18.01 21.69 19.59 20.09 21.4C18.49 23.22 17.13 25.27 17.13 25.27C17.13 25.27 15.74 23.2 14.11 21.37C12.49 19.54 10.63 17.95 10.63 17.95C10.63 17.95 12.48 16.38 14.09 14.57C15.7 12.76 17.07 10.71 17.07 10.71L17.07 10.71Z" />
	</g>
</svg>