<svg xmlns="http://www.w3.org/2000/svg" viewBox="0 0 73 102" width="73" height="102">
	<defs>
		<filter x="-50%" y="-50%" width="200%" height="200%" id="flt1"> <feGaussianBlur stdDeviation="0.85" /> </filter>
		<linearGradient id="grd1" gradientUnits="userSpaceOnUse"  x1="41.643" y1="26.474" x2="43.788" y2="-89.909">
			<stop offset="0" stop-color="#f3f3f3"  />
			<stop offset="1" stop-color="#8f8f8f"  />
		</linearGradient>
		<radialGradient id="grd2" gradientUnits="userSpaceOnUse"  cx="10.796" cy="91.605" r="13.273">
			<stop offset="0" stop-color="#ffffff"  />
			<stop offset="1" stop-color="#ffffff" stop-opacity="0" />
		</radialGradient>
		<radialGradient id="grd3" gradientUnits="userSpaceOnUse"  cx="62.715" cy="12.548" r="14.639">
			<stop offset="0" stop-color="#ffffff"  />
			<stop offset="1" stop-color="#ffffff" stop-opacity="0" />
		</radialGradient>
		<linearGradient id="grd4" gradientUnits="userSpaceOnUse"  x1="-58.18" y1="89.377" x2="-58.18" y2="85.691">
			<stop offset="0" stop-color="#d90000"  />
			<stop offset="1" stop-color="#950000"  />
		</linearGradient>
		<linearGradient id="grd5" gradientUnits="userSpaceOnUse"  x1="-474.575" y1="13.734" x2="-474.575" y2="10.111">
			<stop offset="0" stop-color="#d90000"  />
			<stop offset="1" stop-color="#950000"  />
		</linearGradient>
		<radialGradient id="grd6" gradientUnits="userSpaceOnUse"  cx="18.375" cy="73.919" r="25.374">
			<stop offset="0" stop-color="#ffffff"  />
			<stop offset="1" stop-color="#ffffff" stop-opacity="0" />
		</radialGradient>
		<radialGradient id="grd7" gradientUnits="userSpaceOnUse"  cx="20.509" cy="20.08" r="9.813">
			<stop offset="0" stop-color="#ffffff"  />
			<stop offset="1" stop-color="#ffffff" stop-opacity="0" />
		</radialGradient>
		<linearGradient id="grd8" gradientUnits="userSpaceOnUse"  x1="-474.569" y1="22.459" x2="-474.569" y2="14.806">
			<stop offset="0" stop-color="#d90000"  />
			<stop offset="1" stop-color="#950000"  />
		</linearGradient>
		<radialGradient id="grd9" gradientUnits="userSpaceOnUse"  cx="53.979" cy="20.08" r="9.813">
			<stop offset="0" stop-color="#ffffff"  />
			<stop offset="1" stop-color="#ffffff" stop-opacity="0" />
		</radialGradient>
		<linearGradient id="grd10" gradientUnits="userSpaceOnUse"  x1="-474.57" y1="22.459" x2="-474.57" y2="14.806">
			<stop offset="0" stop-color="#d90000"  />
			<stop offset="1" stop-color="#950000"  />
		</linearGradient>
		<radialGradient id="grd11" gradientUnits="userSpaceOnUse"  cx="20.509" cy="50.903" r="9.813">
			<stop offset="0" stop-color="#ffffff"  />
			<stop offset="1" stop-color="#ffffff" stop-opacity="0" />
		</radialGradient>
		<linearGradient id="grd12" gradientUnits="userSpaceOnUse"  x1="-474.569" y1="53.28" x2="-474.569" y2="45.63">
			<stop offset="0" stop-color="#d90000"  />
			<stop offset="1" stop-color="#950000"  />
		</linearGradient>
		<radialGradient id="grd13" gradientUnits="userSpaceOnUse"  cx="37.009" cy="67.852" r="9.813">
			<stop offset="0" stop-color="#ffffff"  />
			<stop offset="1" stop-color="#ffffff" stop-opacity="0" />
		</radialGradient>
		<linearGradient id="grd14" gradientUnits="userSpaceOnUse"  x1="-474.571" y1="70.23" x2="-474.571" y2="62.58">
			<stop offset="0" stop-color="#d90000"  />
			<stop offset="1" stop-color="#950000"  />
		</linearGradient>
		<radialGradient id="grd15" gradientUnits="userSpaceOnUse"  cx="53.979" cy="50.903" r="9.813">
			<stop offset="0" stop-color="#ffffff"  />
			<stop offset="1" stop-color="#ffffff" stop-opacity="0" />
		</radialGradient>
		<linearGradient id="grd16" gradientUnits="userSpaceOnUse"  x1="-474.57" y1="53.28" x2="-474.57" y2="45.63">
			<stop offset="0" stop-color="#d90000"  />
			<stop offset="1" stop-color="#950000"  />
		</linearGradient>
		<radialGradient id="grd17" gradientUnits="userSpaceOnUse"  cx="55.439" cy="80.789" r="9.813">
			<stop offset="0" stop-color="#ffffff"  />
			<stop offset="1" stop-color="#ffffff" stop-opacity="0" />
		</radialGradient>
		<linearGradient id="grd18" gradientUnits="userSpaceOnUse"  x1="-474.571" y1="83.17" x2="-474.571" y2="75.51">
			<stop offset="0" stop-color="#d90000"  />
			<stop offset="1" stop-color="#950000"  />
		</linearGradient>
		<radialGradient id="grd19" gradientUnits="userSpaceOnUse"  cx="19.049" cy="80.789" r="9.813">
			<stop offset="0" stop-color="#ffffff"  />
			<stop offset="1" stop-color="#ffffff" stop-opacity="0" />
		</radialGradient>
		<linearGradient id="grd20" gradientUnits="userSpaceOnUse"  x1="-474.569" y1="83.17" x2="-474.569" y2="75.51">
			<stop offset="0" stop-color="#d90000"  />
			<stop offset="1" stop-color="#950000"  />
		</linearGradient>
	</defs>
	<style>
		tspan { white-space:pre }
		.shp0 { filter: url(#flt1);fill: #000000 } 
		.shp1 { fill: url(#grd1);stroke: #000000;stroke-width: 0.226 } 
		.shp2 { opacity: 0.467;fill: url(#grd2) } 
		.shp3 { opacity: 0.396;fill: url(#grd3) } 
		.shp4 { fill: none;stroke: #000000;stroke-width: 0.226 } 
		.shp5 { fill: url(#grd4);stroke: #a40000;stroke-linejoin:round;stroke-width: 0.165 } 
		.shp6 { fill: url(#grd5) } 
		.shp7 { fill: url(#grd6) } 
		.shp8 { opacity: 0.4;fill: url(#grd7) } 
		.shp9 { fill: url(#grd8);stroke: #a50000;stroke-linejoin:round;stroke-width: 0.343 } 
		.shp10 { opacity: 0.4;fill: url(#grd9) } 
		.shp11 { fill: url(#grd10);stroke: #a50000;stroke-linejoin:round;stroke-width: 0.343 } 
		.shp12 { opacity: 0.4;fill: url(#grd11) } 
		.shp13 { fill: url(#grd12);stroke: #a50000;stroke-linejoin:round;stroke-width: 0.343 } 
		.shp14 { opacity: 0.4;fill: url(#grd13) } 
		.shp15 { fill: url(#grd14);stroke: #a50000;stroke-linejoin:round;stroke-width: 0.343 } 
		.shp16 { opacity: 0.4;fill: url(#grd15) } 
		.shp17 { fill: url(#grd16);stroke: #a50000;stroke-linejoin:round;stroke-width: 0.343 } 
		.shp18 { opacity: 0.4;fill: url(#grd17) } 
		.shp19 { fill: url(#grd18);stroke: #a50000;stroke-linejoin:round;stroke-width: 0.343 } 
		.shp20 { opacity: 0.4;fill: url(#grd19) } 
		.shp21 { fill: url(#grd20);stroke: #a50000;stroke-linejoin:round;stroke-width: 0.343 } 
	</style>
	<g id="-e-Heart7">
		<g id="Layer">
			<path id="Layer" fill-rule="evenodd" class="shp0" d="M5.12 1.65L68.37 1.65C68.83 1.65 69.27 1.74 69.69 1.92C70.11 2.09 70.49 2.34 70.81 2.66C71.13 2.98 71.39 3.36 71.56 3.78C71.73 4.2 71.82 4.65 71.82 5.1L71.82 97.39C71.82 97.84 71.73 98.29 71.56 98.71C71.39 99.13 71.13 99.51 70.81 99.83C70.49 100.15 70.11 100.4 69.69 100.58C69.27 100.75 68.83 100.84 68.37 100.84L5.12 100.84C4.67 100.84 4.22 100.75 3.8 100.58C3.38 100.4 3 100.15 2.68 99.83C2.36 99.51 2.11 99.13 1.93 98.71C1.76 98.29 1.67 97.84 1.67 97.39L1.67 5.1C1.67 4.65 1.76 4.2 1.93 3.78C2.11 3.36 2.36 2.98 2.68 2.66C3 2.34 3.38 2.09 3.8 1.92C4.22 1.74 4.67 1.65 5.12 1.65" />
			<path id="Layer" fill-rule="evenodd" class="shp1" d="M6.04 1.08L68.26 1.08C68.78 1.08 69.3 1.18 69.78 1.38C70.26 1.58 70.7 1.87 71.06 2.24C71.43 2.61 71.73 3.04 71.92 3.53C72.12 4.01 72.23 4.52 72.23 5.04L72.23 96.3C72.23 96.82 72.12 97.33 71.92 97.81C71.73 98.3 71.43 98.73 71.06 99.1C70.7 99.47 70.26 99.76 69.78 99.96C69.3 100.16 68.78 100.26 68.26 100.26L6.04 100.26C5.52 100.26 5.01 100.16 4.52 99.96C4.04 99.76 3.61 99.47 3.24 99.1C2.87 98.73 2.58 98.3 2.38 97.81C2.18 97.33 2.07 96.82 2.07 96.3L2.07 5.04C2.07 4.52 2.18 4.01 2.38 3.53C2.58 3.04 2.87 2.61 3.24 2.24C3.61 1.87 4.04 1.58 4.52 1.38C5.01 1.18 5.52 1.08 6.04 1.08" />
			<path id="Layer" class="shp2" d="M31.14 96.67L6.67 96.67C6.53 96.67 6.4 96.64 6.27 96.59C6.15 96.54 6.03 96.46 5.94 96.37C5.84 96.27 5.76 96.16 5.71 96.03C5.66 95.9 5.63 95.77 5.63 95.63L5.63 73.43C5.63 73.29 5.66 73.16 5.71 73.03C5.76 72.91 5.84 72.79 5.94 72.69C6.03 72.6 6.15 72.52 6.27 72.47C6.4 72.42 6.53 72.39 6.67 72.39L31.14 72.39C31.28 72.39 31.41 72.42 31.54 72.47C31.66 72.52 31.78 72.6 31.87 72.69C31.97 72.79 32.05 72.91 32.1 73.03C32.15 73.16 32.18 73.29 32.18 73.43L32.18 95.63C32.18 95.77 32.15 95.9 32.1 96.03C32.05 96.16 31.97 96.27 31.87 96.37C31.78 96.46 31.66 96.54 31.54 96.59C31.41 96.64 31.28 96.67 31.14 96.67" />
			<path id="Layer" class="shp3" d="M39.59 4.41L68.87 4.41L68.87 49.68L39.59 49.68L39.59 4.41Z" />
			<path id="Layer" class="shp4" d="M20.5 92.77L65.22 92.77L65.22 19.17" />
			<path id="Layer" class="shp4" d="M53.64 8.56L9.09 8.56L9.09 81.75" />
		</g>
		<g id="Layer">
			<path id="Layer" class="shp5" d="M9.32 87.34C8.96 86.43 9.21 85.28 9.95 84.9C10.68 84.51 11.6 84.93 11.99 85.83C12.1 86.08 12.16 86.36 12.18 86.65C12.2 86.36 12.27 86.08 12.38 85.83C12.77 84.93 13.68 84.51 14.42 84.9C15.15 85.28 15.36 86.42 15.05 87.34C14.51 88.94 12.9 89.87 12.18 91.71C11.59 89.87 9.95 88.91 9.32 87.34L9.32 87.34Z" />
		</g>
		<path id="Layer" class="shp6" d="M65.31 8.47L61.2 8.47L60.55 10.1L60.74 10.19C61.22 9.43 61.41 9.29 62.02 9.29L64.43 9.29L62.24 15.9L62.96 15.9L65.31 8.64L65.31 8.47Z" />
		<path id="Layer" fill-rule="evenodd" class="shp7" d="M18.28 89.53C18.28 89.53 18.28 89.53 18.28 89.53C18.28 89.53 18.28 89.53 18.28 89.53L18.28 89.53ZM18.28 89.53C15.97 83.76 14.41 83.93 12.42 83.35L15.39 83.35C15.41 83.25 15.43 83.16 15.44 83.06C15.5 82.81 15.57 82.56 15.65 82.32C15.65 81.99 15.65 81.65 15.65 81.33C15.66 80.61 15.76 79.9 15.85 79.19C15.87 79.01 15.9 78.83 15.92 78.65C15.83 78.57 15.85 78.03 16.11 76.96C16.16 76.75 16.2 76.53 16.24 76.31C16.33 75.81 16.44 75.32 16.55 74.82C16.67 74.23 16.87 73.66 17.05 73.08C17.29 72.4 17.58 71.73 17.86 71.07C18.21 70.25 18.57 69.44 18.93 68.63C19.42 67.53 19.97 66.47 20.51 65.4C21.19 64.09 21.8 62.74 22.39 61.38C23.08 59.73 23.77 58.07 24.46 56.41C25.21 54.64 25.92 52.86 26.59 51.06C26.64 50.94 26.68 50.83 26.72 50.71C26.71 50.68 26.7 50.63 26.7 50.59C26.7 50.47 26.76 50.36 26.86 50.3C27.46 48.62 28 46.93 28.52 45.23C29.18 43.08 29.73 40.9 30.17 38.7C30.62 36.14 30.73 33.55 30.7 30.96C30.64 28.85 30.42 26.74 30.17 24.64C30.07 24.74 29.93 24.79 29.78 24.79C29.45 24.79 29.17 24.53 29.17 24.19C29.17 23.86 29.45 23.58 29.78 23.58C29.88 23.58 29.97 23.61 30.06 23.65L29.99 23.09C29.89 22.35 29.79 21.61 29.68 20.87C29.63 20.97 29.51 21.05 29.39 21.05C29.2 21.05 29.05 20.9 29.05 20.71C29.05 20.53 29.2 20.38 29.39 20.38C29.47 20.38 29.56 20.41 29.62 20.47C29.52 19.77 29.41 19.07 29.3 18.38C29.13 17.31 29.16 16.66 29.28 16.5C29.18 16.39 29.12 16.24 29.12 16.08C29.12 15.75 29.38 15.48 29.72 15.48C30.05 15.48 30.33 15.75 30.33 16.08C30.33 16.42 30.05 16.69 29.72 16.69C29.65 16.69 29.59 16.68 29.53 16.66C29.64 16.89 29.77 17.35 29.88 18.05C30.13 19.61 30.36 21.18 30.56 22.76C30.88 25.37 31.19 27.99 31.27 30.63C31.29 33.21 31.19 35.81 30.75 38.37C30.32 40.57 29.75 42.74 29.1 44.89C28.54 46.73 27.96 48.58 27.3 50.39C27.34 50.45 27.36 50.52 27.36 50.59C27.36 50.75 27.25 50.88 27.11 50.92C26.46 52.65 25.77 54.37 25.05 56.07C24.36 57.73 23.68 59.39 22.98 61.04C22.4 62.4 21.79 63.74 21.11 65.05C20.57 66.12 20.02 67.19 19.54 68.28C19.18 69.09 18.82 69.9 18.47 70.71C18.19 71.38 17.9 72.04 17.66 72.73C17.48 73.3 17.29 73.88 17.16 74.47C17.15 74.54 17.13 74.61 17.12 74.68C17.31 74.25 17.5 73.83 17.7 73.41C17.86 73.1 18.02 72.8 18.19 72.49C18.19 72.49 18.19 72.48 18.19 72.47C18.27 72.23 18.41 72 18.51 71.77C18.68 71.42 18.9 71.09 19.09 70.76C19.28 70.44 19.49 70.14 19.71 69.84C20.28 68.84 20.94 67.89 21.62 66.96C22.14 66.23 22.75 65.58 23.38 64.94C23.4 64.8 23.51 64.68 23.65 64.66L24.17 64.15C25.17 63.2 26.21 62.29 27.22 61.35C28.4 60.23 29.55 59.09 30.69 57.93C32 56.62 33.2 55.22 34.31 53.74C35.56 52.03 36.6 50.18 37.61 48.33C37.94 47.73 38.25 47.12 38.55 46.5L38.43 46.51C38.09 46.51 37.83 46.24 37.83 45.9C37.83 45.57 38.09 45.3 38.43 45.3C38.65 45.3 38.85 45.42 38.95 45.61C39.44 44.5 39.87 43.37 40.26 42.21L40.33 41.98C40.29 41.71 40.27 41.31 40.29 40.76C40.32 39.83 40.34 38.89 40.31 37.95C40.25 36.27 40.14 34.58 39.92 32.91C39.74 31.77 39.56 30.63 39.23 29.52C39.06 28.96 38.91 28.38 38.65 27.85C38.57 27.71 38.52 27.54 38.39 27.42C36.46 25.73 37.1 25.35 39.01 27.06C39.14 27.17 39.19 27.36 39.28 27.5C39.53 28.03 39.68 28.6 39.84 29.16C40.17 30.28 40.34 31.42 40.52 32.56C40.74 34.24 40.84 35.92 40.9 37.6C40.91 38.31 40.91 39.03 40.89 39.74C41.21 38.25 41.44 36.74 41.63 35.23C41.68 34.56 41.71 33.89 41.73 33.22C41.66 33.25 41.59 33.26 41.52 33.26C41.18 33.26 40.91 32.99 40.91 32.65C40.91 32.32 41.18 32.05 41.52 32.05C41.6 32.05 41.68 32.07 41.75 32.1C41.76 31.07 41.73 30.03 41.7 28.99C41.46 28.92 41.28 28.7 41.28 28.43C41.28 28.17 41.44 27.95 41.67 27.86C41.66 27.75 41.66 27.64 41.65 27.54C41.64 27.12 41.63 26.7 41.61 26.28C41.52 23.94 42.1 23.61 42.18 25.95C42.2 26.37 42.21 26.79 42.23 27.2C42.23 27.45 42.24 27.7 42.25 27.95C42.39 28.06 42.49 28.23 42.49 28.43C42.49 28.61 42.41 28.77 42.28 28.88C42.34 30.89 42.36 32.89 42.2 34.9C41.91 37.25 41.53 39.61 40.84 41.88C40.13 43.99 39.28 46.05 38.19 48C37.18 49.85 36.14 51.69 34.9 53.4C33.79 54.88 32.6 56.28 31.29 57.59C30.15 58.75 28.99 59.89 27.81 61C26.8 61.94 25.77 62.86 24.77 63.8C24.47 64.1 24.16 64.4 23.86 64.7C23.94 64.75 24 64.82 24.02 64.91C24.78 64.14 25.58 63.4 26.39 62.67L29.19 60.19C30.18 59.3 31.18 58.43 32.18 57.55C33.3 56.57 34.39 55.56 35.47 54.54C36.69 53.38 37.88 52.19 39.06 50.99C40.31 49.74 41.49 48.41 42.64 47.06C43.51 46.02 44.35 44.94 45.16 43.85C45.15 43.81 45.15 43.77 45.15 43.73C45.15 43.41 45.38 43.16 45.69 43.13L46.3 42.29C47.38 40.81 48.36 39.25 49.28 37.66C49.25 37.67 49.21 37.68 49.17 37.68C48.98 37.68 48.84 37.53 48.84 37.35C48.84 37.17 48.98 37.01 49.17 37.01C49.33 37.01 49.46 37.13 49.49 37.28C49.58 37.13 49.67 36.98 49.75 36.83C50.83 34.83 51.86 32.78 52.55 30.6C53.06 28.7 53.36 26.75 53.67 24.81C54.04 22.47 54.62 22.13 54.25 24.47C53.94 26.41 53.64 28.36 53.13 30.27C52.45 32.44 51.42 34.49 50.34 36.5C49.29 38.38 48.15 40.21 46.88 41.95C46.59 42.36 46.29 42.77 45.99 43.18C46.21 43.27 46.35 43.48 46.35 43.73C46.35 44.06 46.09 44.33 45.75 44.33C45.57 44.33 45.4 44.25 45.29 44.12C44.62 45 43.93 45.87 43.22 46.72C42.07 48.08 40.89 49.4 39.64 50.66C39.08 51.24 38.5 51.81 37.93 52.38C38.1 52.22 38.4 51.94 38.86 51.55C39.96 50.61 41.08 49.69 42.23 48.81C43.31 47.99 44.42 47.21 45.64 46.6C45.74 46.41 45.94 46.27 46.18 46.27C46.23 46.27 46.28 46.27 46.33 46.29C46.52 46.21 46.7 46.17 46.91 46.15C49.33 45.99 48.87 46.32 46.63 46.48C46.72 46.59 46.78 46.72 46.78 46.87C46.78 47.21 46.51 47.48 46.18 47.48C45.84 47.48 45.57 47.21 45.57 46.87C45.57 46.81 45.59 46.75 45.6 46.7L45.1 46.92C44.7 47.07 43.66 47.85 42.83 48.47C41.68 49.35 40.55 50.27 39.45 51.21C38.31 52.19 37.65 52.69 37.76 52.54C37.2 53.1 36.64 53.65 36.07 54.19C34.99 55.22 33.9 56.23 32.78 57.2C31.78 58.08 30.78 58.95 29.8 59.84C28.87 60.67 27.93 61.5 27 62.33C26.13 63.11 25.27 63.89 24.46 64.73C23.74 65.47 23.01 66.2 22.34 66.99C21.81 67.6 21.29 68.22 20.8 68.85L20.28 69.55C20.25 69.6 20.22 69.65 20.19 69.7C19.74 70.47 19.29 71.24 18.86 72.02L18.82 72.11C18.78 72.24 18.74 72.37 18.68 72.49C18.33 73.26 18.02 73.8 17.81 74.11C17.49 74.83 17.19 75.55 16.99 76.31C16.76 77.14 16.55 77.98 16.46 78.84C16.38 79.44 16.31 80.05 16.28 80.66L16.42 80.36C16.74 79.75 17.12 79.17 17.51 78.6C17.82 78.12 18.16 77.67 18.53 77.24C18.45 77.14 18.41 77.01 18.41 76.88C18.41 76.54 18.68 76.27 19.01 76.27C19.13 76.27 19.23 76.3 19.32 76.36C19.9 75.75 20.52 75.2 21.14 74.64C21.95 73.89 22.81 73.21 23.67 72.53C24.71 71.73 25.8 71.02 26.9 70.3C28.15 69.49 29.43 68.71 30.71 67.95L31 67.78C30.75 67.71 30.57 67.48 30.57 67.2C30.57 66.87 30.84 66.59 31.17 66.59C31.51 66.59 31.78 66.87 31.78 67.2C31.78 67.53 31.51 67.8 31.17 67.8C31.13 67.8 31.07 67.8 31.03 67.79C29.97 68.42 28.93 69.06 27.89 69.73C26.8 70.44 25.71 71.15 24.68 71.95C23.82 72.62 22.96 73.31 22.15 74.05C21.42 74.71 20.68 75.36 20.02 76.09L19.57 76.63C19.6 76.71 19.62 76.79 19.62 76.88C19.62 77.21 19.35 77.48 19.01 77.48C18.98 77.48 18.94 77.48 18.91 77.47C18.78 77.65 18.65 77.83 18.53 78.01C18.15 78.58 17.76 79.15 17.44 79.76C17.22 80.24 16.99 80.7 16.84 81.21C16.77 81.43 16.7 81.66 16.63 81.89C16.72 81.95 16.77 82.05 16.77 82.17C16.77 82.34 16.64 82.49 16.47 82.5C16.42 82.8 16.34 83.1 16.34 83.4C16.35 83.58 16.35 83.75 16.38 83.93C16.4 84.03 16.41 84.13 16.44 84.23C16.71 85.44 18.81 88.63 18.28 89.53ZM18.53 84.53C18.53 84.34 18.68 84.2 18.87 84.2C19.05 84.2 19.2 84.34 19.2 84.53C19.2 84.71 19.05 84.86 18.87 84.86C18.68 84.86 18.53 84.71 18.53 84.53ZM13.63 82.56C13.63 82.23 13.9 81.95 14.23 81.95C14.57 81.95 14.84 82.23 14.84 82.56C14.84 82.9 14.57 83.17 14.23 83.17C13.9 83.17 13.63 82.9 13.63 82.56ZM16.9 81.83C16.9 81.5 17.17 81.23 17.5 81.23C17.83 81.23 18.11 81.5 18.11 81.83C18.11 82.17 17.83 82.44 17.5 82.44C17.17 82.44 16.9 82.17 16.9 81.83ZM12.91 80.41C12.91 80.23 13.05 80.08 13.24 80.08C13.42 80.08 13.57 80.23 13.57 80.41C13.57 80.6 13.42 80.75 13.24 80.75C13.05 80.75 12.91 80.6 12.91 80.41ZM14.42 79.87C14.42 79.69 14.57 79.54 14.75 79.54C14.93 79.54 15.08 79.69 15.08 79.87C15.08 80.05 14.93 80.2 14.75 80.2C14.57 80.2 14.42 80.05 14.42 79.87ZM19.86 78.87C19.86 78.54 20.13 78.27 20.46 78.27C20.8 78.27 21.07 78.54 21.07 78.87C21.07 79.21 20.8 79.48 20.46 79.48C20.13 79.48 19.86 79.21 19.86 78.87ZM21.55 78.12C21.55 77.93 21.7 77.78 21.88 77.78C22.07 77.78 22.22 77.93 22.22 78.12C22.22 78.3 22.07 78.45 21.88 78.45C21.7 78.45 21.55 78.3 21.55 78.12ZM12.96 77.18C12.96 76.85 13.24 76.57 13.57 76.57C13.9 76.57 14.18 76.85 14.18 77.18C14.18 77.52 13.9 77.78 13.57 77.78C13.24 77.78 12.96 77.52 12.96 77.18ZM14.35 75.42C14.35 75.09 14.63 74.82 14.96 74.82C15.3 74.82 15.56 75.09 15.56 75.42C15.56 75.76 15.3 76.03 14.96 76.03C14.63 76.03 14.35 75.76 14.35 75.42ZM22.46 75.46C22.46 75.27 22.61 75.13 22.8 75.13C22.98 75.13 23.13 75.27 23.13 75.46C23.13 75.64 22.98 75.79 22.8 75.79C22.61 75.79 22.46 75.64 22.46 75.46ZM26.57 74.64C26.57 74.3 26.85 74.04 27.18 74.04C27.51 74.04 27.79 74.3 27.79 74.64C27.79 74.97 27.51 75.25 27.18 75.25C26.85 75.25 26.57 74.97 26.57 74.64ZM20.1 73.92C20.1 73.58 20.38 73.31 20.71 73.31C21.04 73.31 21.31 73.58 21.31 73.92C21.31 74.25 21.04 74.52 20.71 74.52C20.38 74.52 20.1 74.25 20.1 73.92ZM23.08 74.37C23.06 74.36 23.43 74.07 24.3 73.44C24.77 73.09 25.23 72.72 25.74 72.41C26.85 71.74 27.97 71.08 29.16 70.54C30.01 70.16 30.86 69.78 31.73 69.45C32.33 69.2 32.93 68.96 33.54 68.73L34.33 68.43C36.71 67.52 36.09 67.88 33.71 68.79L32.93 69.08C32.32 69.31 31.71 69.56 31.11 69.8C30.57 70.01 30.04 70.24 29.51 70.47C29.83 70.49 30.09 70.75 30.09 71.07C30.09 71.4 29.81 71.68 29.48 71.68C29.14 71.68 28.88 71.4 28.88 71.07C28.88 70.92 28.93 70.79 29.02 70.69L28.55 70.89C27.88 71.15 26.55 71.94 26.35 72.06C25.84 72.37 25.38 72.74 24.9 73.09C23.79 73.91 23.11 74.37 23.08 74.37L23.08 74.37ZM14.05 73.12C14.05 72.79 14.32 72.52 14.66 72.52C14.99 72.52 15.27 72.79 15.27 73.12C15.27 73.46 14.99 73.73 14.66 73.73C14.32 73.73 14.05 73.46 14.05 73.12ZM27.54 72.74C27.54 72.55 27.69 72.4 27.87 72.4C28.06 72.4 28.21 72.55 28.21 72.74C28.21 72.92 28.06 73.07 27.87 73.07C27.69 73.07 27.54 72.92 27.54 72.74ZM16.29 71.61C16.29 71.28 16.57 71.01 16.9 71.01C17.23 71.01 17.5 71.28 17.5 71.61C17.5 71.95 17.23 72.22 16.9 72.22C16.57 72.22 16.29 71.95 16.29 71.61ZM19.56 71.43C19.56 71.1 19.83 70.83 20.17 70.83C20.5 70.83 20.77 71.1 20.77 71.43C20.77 71.77 20.5 72.04 20.17 72.04C19.83 72.04 19.56 71.77 19.56 71.43ZM11.63 71.22C11.63 71.04 11.78 70.89 11.97 70.89C12.15 70.89 12.3 71.04 12.3 71.22C12.3 71.41 12.15 71.55 11.97 71.55C11.78 71.55 11.63 71.41 11.63 71.22ZM32.74 70.07C32.74 69.89 32.89 69.74 33.08 69.74C33.26 69.74 33.41 69.89 33.41 70.07C33.41 70.25 33.26 70.4 33.08 70.4C32.89 70.4 32.74 70.25 32.74 70.07ZM25.24 69.74C25.24 69.4 25.52 69.14 25.85 69.14C26.18 69.14 26.45 69.4 26.45 69.74C26.45 70.07 26.18 70.35 25.85 70.35C25.52 70.35 25.24 70.07 25.24 69.74ZM36.53 69.8C36.34 69.8 36.19 69.65 36.19 69.47C36.19 69.41 36.21 69.34 36.24 69.29C36.19 69.31 36.13 69.31 36.07 69.31C35.74 69.31 35.47 69.05 35.47 68.71C35.47 68.38 35.74 68.1 36.07 68.1C36.41 68.1 36.68 68.38 36.68 68.71C36.68 68.88 36.61 69.03 36.5 69.14L36.53 69.14C36.71 69.14 36.86 69.29 36.86 69.47C36.86 69.65 36.71 69.8 36.53 69.8L36.53 69.8ZM38 67.8C38 67.47 38.28 67.2 38.61 67.2C38.95 67.2 39.22 67.47 39.22 67.8C39.22 68.13 38.95 68.41 38.61 68.41C38.28 68.41 38 68.13 38 67.8ZM17.38 67.8C17.38 67.47 17.66 67.2 17.99 67.2C18.32 67.2 18.59 67.47 18.59 67.8C18.59 68.13 18.32 68.41 17.99 68.41C17.66 68.41 17.38 68.13 17.38 67.8ZM22.16 67.74C22.16 67.41 22.43 67.14 22.76 67.14C23.1 67.14 23.37 67.41 23.37 67.74C23.37 68.08 23.1 68.35 22.76 68.35C22.43 68.35 22.16 68.08 22.16 67.74ZM39.82 67.96C39.82 67.77 39.97 67.62 40.15 67.62C40.34 67.62 40.49 67.77 40.49 67.96C40.49 68.14 40.34 68.29 40.15 68.29C39.97 68.29 39.82 68.14 39.82 67.96ZM26.82 67.53C26.82 67.35 26.97 67.2 27.15 67.2C27.34 67.2 27.48 67.35 27.48 67.53C27.48 67.72 27.34 67.86 27.15 67.86C26.97 67.86 26.82 67.72 26.82 67.53ZM21.62 67.47C21.62 67.47 21.62 67.47 21.62 67.47C21.62 67.47 21.62 67.47 21.62 67.47L21.62 67.47ZM21.62 67.47C21.65 67.43 21.69 67.38 21.72 67.34C22.33 66.64 22.97 65.97 23.62 65.31C23.54 65.29 23.46 65.24 23.42 65.16C22.99 65.62 22.59 66.1 22.22 66.61C22.01 66.9 21.82 67.18 21.62 67.47ZM33.12 66.56C33.12 66.55 33.13 66.55 33.14 66.55C33.13 66.55 33.12 66.55 33.12 66.56L33.12 66.56ZM33.14 66.55C34.11 65.99 35.09 65.44 36.07 64.89C36.19 64.82 36.38 64.71 36.54 64.63C36.31 64.54 36.13 64.32 36.13 64.05C36.13 63.72 36.4 63.45 36.74 63.45C37.07 63.45 37.34 63.72 37.34 64.05C37.34 64.1 37.34 64.14 37.33 64.19L39.4 63.02C38.71 63.42 38.01 63.82 37.32 64.21C37.25 64.47 37.02 64.65 36.74 64.65C36.68 64.65 36.62 64.65 36.57 64.63C36.07 64.91 35.57 65.18 35.08 65.45C34.38 65.84 33.71 66.22 33.14 66.55ZM40.55 66.14C40.55 65.96 40.7 65.81 40.88 65.81C41.07 65.81 41.21 65.96 41.21 66.14C41.21 66.32 41.07 66.47 40.88 66.47C40.7 66.47 40.55 66.32 40.55 66.14ZM17.74 65.57C17.41 65.57 17.14 65.29 17.14 64.96C17.14 64.62 17.41 64.36 17.74 64.36C17.85 64.36 17.96 64.38 18.05 64.44C18.05 64.26 18.19 64.11 18.38 64.11C18.56 64.11 18.71 64.27 18.71 64.45C18.71 64.63 18.56 64.78 18.38 64.78C18.35 64.78 18.34 64.78 18.31 64.77C18.33 64.83 18.35 64.89 18.35 64.96C18.35 65.29 18.08 65.57 17.74 65.57L17.74 65.57ZM15.44 65.17C15.44 64.99 15.59 64.84 15.78 64.84C15.96 64.84 16.11 64.99 16.11 65.17C16.11 65.35 15.96 65.5 15.78 65.5C15.59 65.5 15.44 65.35 15.44 65.17ZM19.37 62.6C19.37 62.27 19.65 62 19.98 62C20.32 62 20.58 62.27 20.58 62.6C20.58 62.94 20.32 63.21 19.98 63.21C19.65 63.21 19.37 62.94 19.37 62.6ZM45.21 62.75C45.21 62.57 45.36 62.42 45.54 62.42C45.72 62.42 45.87 62.57 45.87 62.75C45.87 62.94 45.72 63.08 45.54 63.08C45.36 63.08 45.21 62.94 45.21 62.75ZM39.64 62.88L39.67 62.86C39.66 62.87 39.65 62.87 39.64 62.88L39.64 62.88ZM39.67 62.86C41.14 62 42.55 61.03 43.91 60C44.96 59.19 45.95 58.32 46.91 57.41C46.91 57.4 46.92 57.39 46.92 57.38C46.44 57.79 45.94 58.18 45.44 58.57C43.53 60.1 42.93 60.45 44.84 58.92C45.39 58.48 45.94 58.06 46.47 57.6C47.19 56.97 47.91 56.34 48.63 55.7C49.9 54.35 51.01 52.86 52.06 51.33C53.31 49.55 54.23 47.59 54.98 45.57C55.77 43.36 56.09 41.04 56.26 38.71C56.46 36.63 56.29 34.56 56.03 32.5C55.54 28.65 56.48 28.1 56.98 31.96C57.25 34.02 57.43 36.08 57.22 38.16C57.07 40.18 56.81 42.19 56.23 44.13C56.34 44.03 56.48 43.97 56.64 43.97C56.98 43.97 57.24 44.24 57.24 44.58C57.24 44.91 56.98 45.18 56.64 45.18C56.35 45.18 56.1 44.97 56.05 44.7C56.01 44.8 55.99 44.9 55.95 45.01C55.2 47.03 54.28 48.99 53.03 50.76C52.33 51.78 51.61 52.77 50.84 53.72C51.39 53.22 51.95 52.71 52.49 52.2L53.17 51.5C53.22 51.36 53.33 51.25 53.47 51.18C53.92 50.69 54.34 50.18 54.7 49.62C55.27 48.78 55.84 47.93 56.39 47.08C56.93 46.23 57.47 45.37 57.99 44.5C58.44 43.76 58.89 43.01 59.29 42.24C59.51 41.77 59.75 41.3 59.91 40.81C59.98 40.62 60.03 40.43 60.12 40.25C60.35 39.79 60.55 39.43 60.73 39.13C60.53 39.03 60.39 38.83 60.39 38.59C60.39 38.26 60.64 38 60.96 37.99C60.87 37.93 60.81 37.83 60.81 37.71C60.81 37.53 60.96 37.38 61.14 37.38C61.33 37.38 61.48 37.53 61.48 37.71C61.48 37.87 61.37 37.99 61.23 38.03C61.45 38.12 61.6 38.34 61.6 38.59C61.6 38.89 61.38 39.14 61.09 39.18C61 39.38 60.88 39.61 60.74 39.89C60.65 40.07 60.6 40.26 60.53 40.45C60.37 40.94 60.13 41.41 59.91 41.88L59.67 42.33C59.78 42.22 59.92 42.16 60.08 42.16C60.42 42.16 60.69 42.42 60.69 42.76C60.69 43.09 60.42 43.37 60.08 43.37C59.75 43.37 59.48 43.09 59.48 42.76C59.48 42.72 59.49 42.68 59.5 42.64C59.21 43.15 58.9 43.65 58.6 44.15C58.08 45.02 57.54 45.87 56.99 46.72C56.45 47.58 55.88 48.42 55.31 49.26C54.88 49.94 54.35 50.54 53.81 51.12C54.11 51.15 54.34 51.41 54.34 51.72C54.34 52.05 54.07 52.32 53.74 52.32C53.43 52.32 53.18 52.09 53.13 51.8L53.09 51.85C52.14 52.75 51.17 53.62 50.19 54.5L50.14 54.54C49.83 54.9 49.5 55.26 49.17 55.6C48.71 56.07 48.24 56.52 47.76 56.97C47.97 57.07 48.11 57.28 48.11 57.52C48.11 57.85 47.84 58.12 47.51 58.12C47.25 58.12 47.03 57.96 46.94 57.73C46.28 58.32 45.6 58.88 44.89 59.42C43.49 60.48 42.06 61.48 40.54 62.36L39.67 62.86ZM35.95 62.39C35.95 62.21 36.1 62.06 36.29 62.06C36.47 62.06 36.62 62.21 36.62 62.39C36.62 62.58 36.47 62.72 36.29 62.72C36.1 62.72 35.95 62.58 35.95 62.39ZM42.34 62.48L42.27 62.48C42.09 62.48 41.94 62.33 41.94 62.14C41.94 61.96 42.09 61.81 42.27 61.81C42.46 61.81 42.61 61.96 42.61 62.14C42.61 62.31 42.49 62.45 42.34 62.48ZM28.33 61.69C28.33 61.36 28.6 61.09 28.93 61.09C29.27 61.09 29.54 61.36 29.54 61.69C29.54 62.03 29.27 62.3 28.93 62.3C28.6 62.3 28.33 62.03 28.33 61.69ZM30.45 61.78C30.45 61.6 30.6 61.45 30.78 61.45C30.96 61.45 31.11 61.6 31.11 61.78C31.11 61.97 30.96 62.12 30.78 62.12C30.6 62.12 30.45 61.97 30.45 61.78ZM39.22 60.27C39.22 60.09 39.37 59.94 39.55 59.94C39.74 59.94 39.89 60.09 39.89 60.27C39.89 60.45 39.74 60.6 39.55 60.6C39.37 60.6 39.22 60.45 39.22 60.27ZM41.94 59.82C41.94 59.48 42.21 59.21 42.54 59.21C42.88 59.21 43.15 59.48 43.15 59.82C43.15 60.15 42.88 60.43 42.54 60.43C42.21 60.43 41.94 60.15 41.94 59.82ZM20.58 59.58C20.58 59.24 20.86 58.97 21.19 58.97C21.53 58.97 21.8 59.24 21.8 59.58C21.8 59.91 21.53 60.18 21.19 60.18C20.86 60.18 20.58 59.91 20.58 59.58ZM49.5 59.25C49.5 59.06 49.65 58.91 49.83 58.91C50.02 58.91 50.16 59.06 50.16 59.25C50.16 59.43 50.02 59.58 49.83 59.58C49.65 59.58 49.5 59.43 49.5 59.25ZM27.91 58.85C27.91 58.52 28.18 58.25 28.51 58.25C28.84 58.25 29.12 58.52 29.12 58.85C29.12 59.18 28.84 59.46 28.51 59.46C28.18 59.46 27.91 59.18 27.91 58.85ZM19.13 58.09C19.13 57.91 19.28 57.76 19.47 57.76C19.65 57.76 19.8 57.91 19.8 58.09C19.8 58.28 19.65 58.43 19.47 58.43C19.28 58.43 19.13 58.28 19.13 58.09ZM43.27 57.76C43.27 57.43 43.54 57.16 43.87 57.16C44.21 57.16 44.48 57.43 44.48 57.76C44.48 58.1 44.21 58.37 43.87 58.37C43.54 58.37 43.27 58.1 43.27 57.76ZM22.16 57.76C21.83 57.76 21.55 57.49 21.55 57.16C21.55 56.93 21.69 56.73 21.88 56.63C21.87 56.6 21.86 56.56 21.86 56.52C21.86 56.34 22 56.19 22.19 56.19C22.37 56.19 22.52 56.34 22.52 56.52C22.52 56.57 22.52 56.62 22.5 56.66C22.66 56.77 22.76 56.95 22.76 57.16C22.76 57.49 22.49 57.76 22.16 57.76L22.16 57.76ZM34.62 56.62C34.62 56.28 34.89 56.01 35.23 56.01C35.56 56.01 35.83 56.28 35.83 56.62C35.83 56.95 35.56 57.22 35.23 57.22C34.89 57.22 34.62 56.95 34.62 56.62ZM24.08 57C23.96 57.01 23.94 56.49 24.15 55.39C24.38 54.13 24.62 52.86 24.75 51.57C24.91 50 25.01 48.41 24.95 46.82C24.89 45.64 24.81 44.45 24.61 43.28C24.48 42.49 24.35 41.69 24.15 40.92C24.06 40.62 24 40.32 23.86 40.03C22.78 37.71 23.44 37.34 24.49 39.67C24.62 39.96 24.68 40.26 24.77 40.57C24.97 41.34 25.09 42.14 25.21 42.93C25.42 44.1 25.49 45.29 25.55 46.48C25.6 48.07 25.5 49.65 25.34 51.24C25.2 52.52 24.97 53.79 24.73 55.05C24.5 56.3 24.22 56.99 24.08 57L24.08 57ZM36.68 56.64C36.68 56.46 36.82 56.31 37.01 56.31C37.19 56.31 37.34 56.46 37.34 56.64C37.34 56.83 37.19 56.98 37.01 56.98C36.82 56.98 36.68 56.83 36.68 56.64ZM26.76 56.4C26.76 56.22 26.9 56.07 27.09 56.07C27.27 56.07 27.42 56.22 27.42 56.4C27.42 56.59 27.27 56.74 27.09 56.74C26.9 56.74 26.76 56.59 26.76 56.4ZM30.45 55.04C30.45 54.71 30.72 54.44 31.05 54.44C31.39 54.44 31.66 54.71 31.66 55.04C31.66 55.37 31.39 55.65 31.05 55.65C30.72 55.65 30.45 55.37 30.45 55.04ZM47.32 54.56C47.32 54.22 47.6 53.95 47.93 53.95C48.26 53.95 48.53 54.22 48.53 54.56C48.53 54.89 48.26 55.16 47.93 55.16C47.6 55.16 47.32 54.89 47.32 54.56ZM54.4 53.43C54.4 53.25 54.55 53.1 54.73 53.1C54.92 53.1 55.06 53.25 55.06 53.43C55.06 53.62 54.92 53.77 54.73 53.77C54.55 53.77 54.4 53.62 54.4 53.43ZM42.61 50.32C42.61 49.99 42.87 49.72 43.21 49.72C43.54 49.72 43.82 49.99 43.82 50.32C43.82 50.66 43.54 50.92 43.21 50.92C42.87 50.92 42.61 50.66 42.61 50.32ZM49.32 49.62C49.32 49.44 49.47 49.29 49.65 49.29C49.83 49.29 49.99 49.44 49.99 49.62C49.99 49.81 49.83 49.96 49.65 49.96C49.47 49.96 49.32 49.81 49.32 49.62ZM19.62 48.93C19.62 48.6 19.89 48.32 20.22 48.32C20.56 48.32 20.83 48.6 20.83 48.93C20.83 49.26 20.56 49.54 20.22 49.54C19.89 49.54 19.62 49.26 19.62 48.93ZM34.92 48.69C34.92 48.36 35.2 48.08 35.53 48.08C35.86 48.08 36.13 48.36 36.13 48.69C36.13 49.02 35.86 49.29 35.53 49.29C35.2 49.29 34.92 49.02 34.92 48.69ZM58.51 48.24C58.51 48.05 58.66 47.91 58.85 47.91C59.03 47.91 59.18 48.05 59.18 48.24C59.18 48.42 59.03 48.57 58.85 48.57C58.66 48.57 58.51 48.42 58.51 48.24ZM57.48 47.48C57.48 47.15 57.76 46.87 58.09 46.87C58.42 46.87 58.7 47.15 58.7 47.48C58.7 47.82 58.42 48.08 58.09 48.08C57.76 48.08 57.48 47.82 57.48 47.48ZM38.68 47.3C38.68 46.96 38.94 46.69 39.28 46.69C39.61 46.69 39.88 46.96 39.88 47.3C39.88 47.63 39.61 47.91 39.28 47.91C38.94 47.91 38.68 47.63 38.68 47.3ZM28.69 46.63C28.69 46.3 28.96 46.02 29.29 46.02C29.63 46.02 29.9 46.3 29.9 46.63C29.9 46.97 29.63 47.23 29.29 47.23C28.96 47.23 28.69 46.97 28.69 46.63ZM22.64 44.3C22.64 44.12 22.79 43.97 22.97 43.97C23.16 43.97 23.31 44.12 23.31 44.3C23.31 44.48 23.16 44.64 22.97 44.64C22.79 44.64 22.64 44.48 22.64 44.3ZM25.85 43.91C25.85 43.58 26.12 43.3 26.45 43.3C26.79 43.3 27.06 43.58 27.06 43.91C27.06 44.24 26.79 44.51 26.45 44.51C26.12 44.51 25.85 44.24 25.85 43.91ZM52.53 43.73C52.53 43.39 52.79 43.13 53.13 43.13C53.46 43.13 53.74 43.39 53.74 43.73C53.74 44.06 53.46 44.33 53.13 44.33C52.79 44.33 52.53 44.06 52.53 43.73ZM29.84 43.39C29.84 43.21 29.99 43.06 30.18 43.06C30.36 43.06 30.51 43.21 30.51 43.39C30.51 43.58 30.36 43.73 30.18 43.73C29.99 43.73 29.84 43.58 29.84 43.39ZM37.95 40.58C37.95 40.25 38.22 39.98 38.56 39.98C38.89 39.98 39.16 40.25 39.16 40.58C39.16 40.91 38.89 41.19 38.56 41.19C38.22 41.19 37.95 40.91 37.95 40.58ZM45.09 40.52C45.09 40.19 45.36 39.92 45.69 39.92C46.02 39.92 46.3 40.19 46.3 40.52C46.3 40.86 46.02 41.13 45.69 41.13C45.36 41.13 45.09 40.86 45.09 40.52ZM57.67 39.86C57.67 39.53 57.94 39.25 58.27 39.25C58.61 39.25 58.88 39.53 58.88 39.86C58.88 40.19 58.61 40.46 58.27 40.46C57.94 40.46 57.67 40.19 57.67 39.86ZM27.42 39.37C27.42 39.04 27.69 38.77 28.03 38.77C28.36 38.77 28.63 39.04 28.63 39.37C28.63 39.71 28.36 39.98 28.03 39.98C27.69 39.98 27.42 39.71 27.42 39.37ZM42.78 39.32C42.78 38.98 43.06 38.71 43.39 38.71C43.73 38.71 44 38.98 44 39.32C44 39.65 43.73 39.92 43.39 39.92C43.06 39.92 42.78 39.65 42.78 39.32ZM30.93 38.25C30.93 38.07 31.08 37.92 31.27 37.92C31.45 37.92 31.6 38.07 31.6 38.25C31.6 38.44 31.45 38.59 31.27 38.59C31.08 38.59 30.93 38.44 30.93 38.25ZM22.22 37.29C22.22 37.1 22.37 36.95 22.55 36.95C22.73 36.95 22.89 37.1 22.89 37.29C22.89 37.47 22.73 37.62 22.55 37.62C22.37 37.62 22.22 37.47 22.22 37.29ZM44.18 37.17C44.18 36.98 44.33 36.83 44.51 36.83C44.69 36.83 44.84 36.98 44.84 37.17C44.84 37.35 44.69 37.5 44.51 37.5C44.33 37.5 44.18 37.35 44.18 37.17ZM53.62 36.35C53.62 36.01 53.88 35.75 54.22 35.74C54.55 35.74 54.82 36.01 54.82 36.35C54.82 36.68 54.55 36.95 54.22 36.95C53.88 36.95 53.62 36.68 53.62 36.35ZM37.83 36.38C37.83 36.2 37.98 36.05 38.16 36.05C38.34 36.05 38.49 36.2 38.49 36.38C38.49 36.56 38.34 36.71 38.16 36.71C37.98 36.71 37.83 36.56 37.83 36.38ZM61.6 35.84C61.6 35.65 61.75 35.5 61.93 35.5C62.11 35.5 62.26 35.65 62.26 35.84C62.26 36.02 62.11 36.17 61.93 36.17C61.75 36.17 61.6 36.02 61.6 35.84ZM38.31 35.44C38.31 35.11 38.58 34.83 38.92 34.83C39.25 34.83 39.52 35.11 39.52 35.44C39.52 35.77 39.25 36.05 38.92 36.05C38.58 36.05 38.31 35.77 38.31 35.44ZM47.99 35.26C47.99 34.92 48.26 34.66 48.6 34.66C48.93 34.66 49.2 34.92 49.2 35.26C49.2 35.59 48.93 35.87 48.6 35.87C48.26 35.87 47.99 35.59 47.99 35.26ZM52.41 34.68C52.41 34.5 52.55 34.35 52.74 34.35C52.92 34.35 53.07 34.5 53.07 34.68C53.07 34.87 52.92 35.02 52.74 35.02C52.55 35.02 52.41 34.87 52.41 34.68ZM61.17 34.23C61.17 33.9 61.45 33.62 61.78 33.62C62.12 33.62 62.38 33.9 62.38 34.23C62.38 34.57 62.12 34.83 61.78 34.83C61.45 34.83 61.17 34.57 61.17 34.23ZM29.69 34.83C29.51 34.83 29.36 34.68 29.36 34.5C29.36 34.32 29.51 34.17 29.69 34.17C29.87 34.17 30.02 34.32 30.02 34.5C30.02 34.66 29.91 34.8 29.76 34.83L29.69 34.83ZM57.24 33.54C57.24 33.36 57.39 33.2 57.57 33.2C57.76 33.2 57.91 33.36 57.91 33.54C57.91 33.72 57.76 33.87 57.57 33.87C57.39 33.87 57.24 33.72 57.24 33.54ZM32.74 32.66C32.74 32.32 33.02 32.05 33.35 32.05C33.69 32.05 33.95 32.32 33.95 32.66C33.95 32.99 33.69 33.26 33.35 33.26C33.02 33.26 32.74 32.99 32.74 32.66ZM53.5 32.45C53.5 32.27 53.64 32.11 53.83 32.11C54.01 32.11 54.16 32.27 54.16 32.45C54.16 32.63 54.01 32.78 53.83 32.78C53.64 32.78 53.5 32.63 53.5 32.45ZM43.87 31.93C43.54 31.93 43.27 31.66 43.27 31.33C43.27 30.99 43.54 30.73 43.87 30.73C44.04 30.73 44.2 30.8 44.31 30.91C44.35 30.77 44.48 30.66 44.63 30.66C44.81 30.66 44.96 30.81 44.96 30.99C44.96 31.18 44.81 31.33 44.63 31.33C44.57 31.33 44.52 31.32 44.47 31.29C44.47 31.3 44.48 31.31 44.48 31.33C44.48 31.66 44.21 31.93 43.87 31.93ZM50.04 30.87C50.04 30.69 50.19 30.54 50.38 30.54C50.56 30.54 50.71 30.69 50.71 30.87C50.71 31.06 50.56 31.21 50.38 31.21C50.19 31.21 50.04 31.06 50.04 30.87ZM60.33 30.75C60.33 30.57 60.48 30.42 60.66 30.42C60.85 30.42 61 30.57 61 30.75C61 30.94 60.85 31.09 60.66 31.09C60.48 31.09 60.33 30.94 60.33 30.75ZM57.48 30.42C57.48 30.09 57.76 29.81 58.09 29.81C58.42 29.81 58.7 30.09 58.7 30.42C58.7 30.76 58.42 31.02 58.09 31.02C57.76 31.02 57.48 30.76 57.48 30.42ZM32.2 30.24C32.2 29.9 32.47 29.64 32.81 29.64C33.14 29.64 33.41 29.9 33.41 30.24C33.41 30.57 33.14 30.85 32.81 30.85C32.47 30.85 32.2 30.57 32.2 30.24ZM37.95 30.18C37.73 30.18 37.54 30.06 37.43 29.88C37.34 29.82 37.28 29.72 37.28 29.6C37.28 29.51 37.32 29.43 37.38 29.37C37.47 29.14 37.69 28.97 37.95 28.97C38.28 28.97 38.56 29.24 38.56 29.57C38.56 29.91 38.28 30.18 37.95 30.18L37.95 30.18ZM50.89 29.03C50.89 28.69 51.16 28.43 51.49 28.43C51.83 28.43 52.1 28.69 52.1 29.03C52.1 29.36 51.83 29.64 51.49 29.64C51.16 29.64 50.89 29.36 50.89 29.03ZM28.57 28.43C28.57 28.09 28.84 27.82 29.17 27.82C29.51 27.82 29.78 28.09 29.78 28.43C29.78 28.76 29.51 29.03 29.17 29.03C28.84 29.03 28.57 28.76 28.57 28.43ZM39.04 26.82C39.04 26.64 39.19 26.49 39.37 26.49C39.55 26.49 39.7 26.64 39.7 26.82C39.7 27.01 39.55 27.15 39.37 27.15C39.19 27.15 39.04 27.01 39.04 26.82ZM59.42 26.7C59.42 26.52 59.57 26.37 59.75 26.37C59.94 26.37 60.08 26.52 60.08 26.7C60.08 26.89 59.94 27.03 59.75 27.03C59.57 27.03 59.42 26.89 59.42 26.7ZM31.78 26.64C31.78 26.45 31.92 26.31 32.11 26.31C32.29 26.31 32.44 26.45 32.44 26.64C32.44 26.82 32.29 26.97 32.11 26.97C31.92 26.97 31.78 26.82 31.78 26.64ZM55.18 25.25C55.18 25.06 55.33 24.91 55.52 24.91C55.7 24.91 55.85 25.06 55.85 25.25C55.85 25.43 55.7 25.58 55.52 25.58C55.33 25.58 55.18 25.43 55.18 25.25ZM56.22 24.49C56.22 24.16 56.48 23.89 56.82 23.89C57.15 23.89 57.43 24.16 57.43 24.49C57.43 24.82 57.15 25.1 56.82 25.1C56.48 25.1 56.22 24.82 56.22 24.49ZM34.74 24.04C34.74 23.85 34.89 23.7 35.08 23.7C35.26 23.7 35.41 23.85 35.41 24.04C35.41 24.22 35.26 24.37 35.08 24.37C34.89 24.37 34.74 24.22 34.74 24.04ZM37.22 23.53C37.22 23.19 37.49 22.92 37.83 22.92C38.16 22.92 38.43 23.19 38.43 23.53C38.43 23.86 38.16 24.13 37.83 24.13C37.49 24.13 37.22 23.86 37.22 23.53ZM32.02 22.56C32.02 22.23 32.29 21.95 32.62 21.95C32.96 21.95 33.23 22.23 33.23 22.56C33.23 22.89 32.96 23.16 32.62 23.16C32.29 23.16 32.02 22.89 32.02 22.56ZM49.74 22.64C49.74 22.46 49.89 22.31 50.07 22.31C50.26 22.31 50.41 22.46 50.41 22.64C50.41 22.83 50.26 22.98 50.07 22.98C49.89 22.98 49.74 22.83 49.74 22.64ZM41.64 22.31C41.64 21.98 41.91 21.71 42.24 21.71C42.57 21.71 42.85 21.98 42.85 22.31C42.85 22.65 42.57 22.92 42.24 22.92C41.91 22.92 41.64 22.65 41.64 22.31ZM52.34 21.98C52.34 21.8 52.49 21.65 52.68 21.65C52.86 21.65 53.01 21.8 53.01 21.98C53.01 22.16 52.86 22.31 52.68 22.31C52.49 22.31 52.34 22.16 52.34 21.98ZM40.67 20.59C40.67 20.41 40.82 20.26 41 20.26C41.19 20.26 41.33 20.41 41.33 20.59C41.33 20.78 41.19 20.93 41 20.93C40.82 20.93 40.67 20.78 40.67 20.59ZM27.42 20.13C27.42 19.8 27.69 19.53 28.03 19.53C28.36 19.53 28.63 19.8 28.63 20.13C28.63 20.47 28.36 20.74 28.03 20.74C27.69 20.74 27.42 20.47 27.42 20.13ZM50.47 18.96C50.47 18.78 50.62 18.63 50.8 18.63C50.99 18.63 51.13 18.78 51.13 18.96C51.13 19.14 50.99 19.29 50.8 19.29C50.62 19.29 50.47 19.14 50.47 18.96ZM52.34 18.26C52.34 17.93 52.62 17.66 52.95 17.66C53.28 17.66 53.55 17.93 53.55 18.26C53.55 18.59 53.28 18.87 52.95 18.87C52.62 18.87 52.34 18.59 52.34 18.26ZM26.88 17.62C26.88 17.44 27.02 17.29 27.21 17.29C27.39 17.29 27.54 17.44 27.54 17.62C27.54 17.81 27.39 17.96 27.21 17.96C27.02 17.96 26.88 17.81 26.88 17.62ZM52.65 16.36C52.65 16.18 52.8 16.03 52.98 16.03C53.16 16.03 53.31 16.17 53.31 16.36C53.31 16.54 53.16 16.69 52.98 16.69C52.8 16.69 52.65 16.54 52.65 16.36ZM36.01 15.45C36.01 15.26 36.16 15.11 36.34 15.11C36.53 15.11 36.68 15.26 36.68 15.45C36.68 15.63 36.53 15.78 36.34 15.78C36.16 15.78 36.01 15.63 36.01 15.45ZM27.48 13.81C27.48 13.63 27.63 13.48 27.82 13.48C28 13.48 28.15 13.63 28.15 13.81C28.15 14 28 14.15 27.82 14.15C27.63 14.15 27.48 14 27.48 13.81ZM29.17 12.6C29.17 12.42 29.32 12.27 29.51 12.27C29.69 12.27 29.84 12.42 29.84 12.6C29.84 12.79 29.69 12.94 29.51 12.94C29.32 12.94 29.17 12.79 29.17 12.6Z" />
		<path id="Layer" class="shp8" d="M30.32 20.08C30.32 25.5 25.93 29.89 20.51 29.89C15.09 29.89 10.69 25.5 10.69 20.08C10.69 14.66 15.09 10.27 20.51 10.27C25.93 10.27 30.32 14.66 30.32 20.08Z" />
		<path id="Layer" class="shp9" d="M14.59 18.23C13.84 16.34 14.37 13.96 15.9 13.16C17.43 12.35 19.32 13.22 20.13 15.09C20.36 15.62 20.49 16.2 20.54 16.79C20.58 16.2 20.71 15.62 20.95 15.09C21.75 13.22 23.65 12.35 25.18 13.16C26.71 13.96 27.13 16.31 26.48 18.23C25.37 21.55 22.02 23.47 20.54 27.3C19.31 23.49 15.89 21.5 14.59 18.23L14.59 18.23Z" />
		<path id="Layer" class="shp10" d="M63.79 20.08C63.79 25.5 59.4 29.89 53.98 29.89C48.56 29.89 44.16 25.5 44.16 20.08C44.16 14.66 48.56 10.27 53.98 10.27C59.4 10.27 63.79 14.66 63.79 20.08Z" />
		<path id="Layer" class="shp11" d="M48.06 18.23C47.3 16.34 47.83 13.96 49.36 13.16C50.89 12.35 52.79 13.22 53.6 15.09C53.83 15.62 53.96 16.2 54 16.79C54.04 16.2 54.18 15.62 54.41 15.09C55.22 13.22 57.11 12.35 58.64 13.16C60.17 13.96 60.59 16.31 59.95 18.23C58.83 21.55 55.49 23.47 54 27.3C52.77 23.49 49.36 21.5 48.06 18.23L48.06 18.23Z" />
		<path id="Layer" class="shp12" d="M30.32 50.9C30.32 56.32 25.93 60.72 20.51 60.72C15.09 60.72 10.69 56.32 10.69 50.9C10.69 45.48 15.09 41.09 20.51 41.09C25.93 41.09 30.32 45.48 30.32 50.9Z" />
		<path id="Layer" class="shp13" d="M14.59 49.05C13.84 47.17 14.37 44.78 15.9 43.98C17.43 43.18 19.32 44.04 20.13 45.91C20.36 46.44 20.49 47.03 20.54 47.61C20.58 47.03 20.71 46.44 20.95 45.91C21.75 44.04 23.65 43.18 25.18 43.98C26.71 44.78 27.13 47.13 26.48 49.05C25.37 52.37 22.02 54.3 20.54 58.13C19.31 54.31 15.89 52.32 14.59 49.05L14.59 49.05Z" />
		<path id="Layer" class="shp14" d="M46.82 67.85C46.82 73.27 42.43 77.66 37.01 77.66C31.59 77.66 27.19 73.27 27.19 67.85C27.19 62.43 31.59 58.04 37.01 58.04C42.43 58.04 46.82 62.43 46.82 67.85Z" />
		<path id="Layer" class="shp15" d="M31.08 66C30.33 64.11 30.86 61.73 32.39 60.93C33.92 60.13 35.82 60.99 36.62 62.86C36.85 63.39 36.99 63.98 37.03 64.56C37.07 63.98 37.21 63.39 37.44 62.86C38.25 60.99 40.14 60.13 41.67 60.93C43.2 61.73 43.62 64.08 42.98 66C41.86 69.32 38.51 71.24 37.03 75.08C35.8 71.26 32.39 69.27 31.08 66L31.08 66Z" />
		<path id="Layer" class="shp16" d="M63.79 50.9C63.79 56.32 59.4 60.72 53.98 60.72C48.56 60.72 44.16 56.32 44.16 50.9C44.16 45.48 48.56 41.09 53.98 41.09C59.4 41.09 63.79 45.48 63.79 50.9Z" />
		<path id="Layer" class="shp17" d="M48.06 49.05C47.3 47.17 47.83 44.78 49.36 43.98C50.89 43.18 52.79 44.04 53.6 45.91C53.83 46.44 53.96 47.03 54 47.61C54.04 47.03 54.18 46.44 54.41 45.91C55.22 44.04 57.11 43.18 58.64 43.98C60.17 44.78 60.59 47.13 59.95 49.05C58.83 52.37 55.49 54.3 54 58.13C52.77 54.31 49.36 52.32 48.06 49.05L48.06 49.05Z" />
		<path id="Layer" class="shp18" d="M65.25 80.79C65.25 86.21 60.86 90.6 55.44 90.6C50.02 90.6 45.62 86.21 45.62 80.79C45.62 75.37 50.02 70.98 55.44 70.98C60.86 70.98 65.25 75.37 65.25 80.79Z" />
		<path id="Layer" class="shp19" d="M49.52 78.94C48.77 77.05 49.3 74.66 50.83 73.86C52.36 73.06 54.25 73.93 55.06 75.79C55.29 76.33 55.42 76.91 55.46 77.5C55.51 76.91 55.64 76.33 55.87 75.79C56.68 73.93 58.58 73.06 60.11 73.86C61.64 74.66 62.06 77.02 61.41 78.94C60.3 82.25 56.95 84.18 55.46 88.01C54.24 84.2 50.82 82.21 49.52 78.94L49.52 78.94Z" />
		<path id="Layer" class="shp20" d="M28.86 80.79C28.86 86.21 24.47 90.6 19.05 90.6C13.63 90.6 9.23 86.21 9.23 80.79C9.23 75.37 13.63 70.98 19.05 70.98C24.47 70.98 28.86 75.37 28.86 80.79Z" />
		<path id="Layer" class="shp21" d="M13.13 78.94C12.37 77.05 12.9 74.66 14.43 73.86C15.96 73.06 17.86 73.93 18.67 75.79C18.9 76.33 19.03 76.91 19.07 77.5C19.11 76.91 19.25 76.33 19.48 75.79C20.29 73.93 22.18 73.06 23.71 73.86C25.24 74.66 25.67 77.02 25.02 78.94C23.91 82.25 20.56 84.18 19.07 88.01C17.84 84.2 14.43 82.21 13.13 78.94L13.13 78.94Z" />
	</g>
</svg>