<svg xmlns="http://www.w3.org/2000/svg" viewBox="0 0 73 102" width="73" height="102">
	<defs>
		<filter x="-50%" y="-50%" width="200%" height="200%" id="flt1"> <feGaussianBlur stdDeviation="0.85" /> </filter>
		<linearGradient id="grd1" gradientUnits="userSpaceOnUse"  x1="41.436" y1="26.467" x2="43.581" y2="-89.915">
			<stop offset="0" stop-color="#f3f3f3"  />
			<stop offset="1" stop-color="#8f8f8f"  />
		</linearGradient>
		<radialGradient id="grd2" gradientUnits="userSpaceOnUse"  cx="10.489" cy="91.726" r="13.273">
			<stop offset="0" stop-color="#ffffff"  />
			<stop offset="1" stop-color="#ffffff" stop-opacity="0" />
		</radialGradient>
		<radialGradient id="grd3" gradientUnits="userSpaceOnUse"  cx="62.556" cy="12.67" r="14.287">
			<stop offset="0" stop-color="#ffffff"  />
			<stop offset="1" stop-color="#ffffff" stop-opacity="0" />
		</radialGradient>
		<radialGradient id="grd4" gradientUnits="userSpaceOnUse"  cx="36.94" cy="50.663" r="22.382">
			<stop offset="0" stop-color="#ffffff"  />
			<stop offset="1" stop-color="#ffffff" stop-opacity="0" />
		</radialGradient>
		<linearGradient id="grd5" gradientUnits="userSpaceOnUse"  x1="-58.137" y1="89.327" x2="-58.137" y2="85.641">
			<stop offset="0" stop-color="#d90000"  />
			<stop offset="1" stop-color="#950000"  />
		</linearGradient>
		<radialGradient id="grd6" gradientUnits="userSpaceOnUse"  cx="18.168" cy="73.912" r="25.374">
			<stop offset="0" stop-color="#9c0f0f"  />
			<stop offset="1" stop-color="#9c0f0f" stop-opacity="0" />
		</radialGradient>
		<linearGradient id="grd7" gradientUnits="userSpaceOnUse"  x1="-943.337" y1="78.43" x2="-943.337" y2="21.497">
			<stop offset="0" stop-color="#d90000"  />
			<stop offset="1" stop-color="#950000"  />
		</linearGradient>
		<linearGradient id="grd8" gradientUnits="userSpaceOnUse"  x1="-943.331" y1="16.627" x2="-943.331" y2="5.566">
			<stop offset="0" stop-color="#d90000"  />
			<stop offset="1" stop-color="#950000"  />
		</linearGradient>
		<linearGradient id="grd9" gradientUnits="userSpaceOnUse"  x1="-943.338" y1="20.056" x2="-943.338" y2="12.404">
			<stop offset="0" stop-color="#d90000"  />
			<stop offset="1" stop-color="#950000"  />
		</linearGradient>
	</defs>
	<style>
		tspan { white-space:pre }
		.shp0 { filter: url(#flt1);fill: #000000 } 
		.shp1 { fill: url(#grd1);stroke: #000000;stroke-width: 0.226 } 
		.shp2 { opacity: 0.467;fill: url(#grd2) } 
		.shp3 { opacity: 0.396;fill: url(#grd3) } 
		.shp4 { fill: none;stroke: #000000;stroke-width: 0.226 } 
		.shp5 { opacity: 0.455;fill: url(#grd4) } 
		.shp6 { fill: url(#grd5);stroke: #a40000;stroke-linejoin:round;stroke-width: 0.165 } 
		.shp7 { fill: url(#grd6) } 
		.shp8 { fill: url(#grd7);stroke: #a30000;stroke-width: 0.488 } 
		.shp9 { fill: url(#grd8) } 
		.shp10 { fill: url(#grd9);stroke: #a00000;stroke-linejoin:round;stroke-width: 0.343 } 
	</style>
	<g id="-e-Heart13">
		<g id="Layer">
			<path id="Layer" fill-rule="evenodd" class="shp0" d="M4.48 1.65L68.6 1.65C68.99 1.65 69.39 1.72 69.75 1.88C70.12 2.03 70.45 2.25 70.73 2.53C71.01 2.81 71.23 3.14 71.38 3.51C71.54 3.88 71.61 4.27 71.61 4.66L71.61 97.81C71.61 98.21 71.54 98.6 71.38 98.97C71.23 99.34 71.01 99.67 70.73 99.95C70.45 100.23 70.12 100.45 69.75 100.6C69.39 100.75 68.99 100.83 68.6 100.83L4.48 100.83C4.09 100.83 3.69 100.75 3.33 100.6C2.96 100.45 2.63 100.23 2.35 99.95C2.07 99.67 1.85 99.34 1.69 98.97C1.54 98.6 1.46 98.21 1.46 97.81L1.46 4.66C1.46 4.27 1.54 3.88 1.69 3.51C1.85 3.14 2.07 2.81 2.35 2.53C2.63 2.25 2.96 2.03 3.33 1.88C3.69 1.72 4.09 1.65 4.48 1.65" />
			<path id="Layer" fill-rule="evenodd" class="shp1" d="M5.75 1.07L68.14 1.07C68.65 1.07 69.15 1.17 69.62 1.36C70.09 1.56 70.52 1.85 70.88 2.21C71.24 2.57 71.53 2.99 71.72 3.46C71.92 3.94 72.02 4.44 72.02 4.95L72.02 96.37C72.02 96.88 71.92 97.39 71.72 97.86C71.53 98.33 71.24 98.76 70.88 99.12C70.52 99.48 70.09 99.76 69.62 99.96C69.15 100.15 68.65 100.25 68.14 100.25L5.75 100.25C5.24 100.25 4.73 100.15 4.26 99.96C3.79 99.76 3.36 99.48 3 99.12C2.64 98.76 2.36 98.33 2.16 97.86C1.97 97.39 1.87 96.88 1.87 96.37L1.87 4.95C1.87 4.44 1.97 3.94 2.16 3.46C2.36 2.99 2.64 2.57 3 2.21C3.36 1.85 3.79 1.56 4.26 1.36C4.73 1.17 5.24 1.07 5.75 1.07" />
			<path id="Layer" class="shp2" d="M30.9 96.79L6.3 96.79C6.17 96.79 6.05 96.77 5.93 96.72C5.81 96.67 5.7 96.6 5.61 96.51C5.52 96.41 5.45 96.31 5.4 96.19C5.35 96.07 5.33 95.94 5.33 95.82L5.33 73.49C5.33 73.36 5.35 73.23 5.4 73.12C5.45 73 5.52 72.89 5.61 72.8C5.7 72.71 5.81 72.64 5.93 72.59C6.05 72.54 6.17 72.51 6.3 72.51L30.9 72.51C31.02 72.51 31.15 72.54 31.27 72.59C31.39 72.64 31.5 72.71 31.59 72.8C31.68 72.89 31.75 73 31.8 73.12C31.85 73.23 31.87 73.36 31.87 73.49L31.87 95.82C31.87 95.94 31.85 96.07 31.8 96.19C31.75 96.31 31.68 96.41 31.59 96.51C31.5 96.6 31.39 96.67 31.27 96.72C31.15 96.77 31.02 96.79 30.9 96.79" />
			<path id="Layer" class="shp3" d="M41.03 4.53L67.53 4.53C67.66 4.53 67.8 4.56 67.92 4.61C68.05 4.66 68.16 4.74 68.26 4.84C68.36 4.93 68.43 5.05 68.48 5.17C68.54 5.3 68.56 5.43 68.56 5.57L68.56 48.77C68.56 48.9 68.54 49.04 68.48 49.16C68.43 49.29 68.36 49.4 68.26 49.5C68.16 49.6 68.05 49.67 67.92 49.73C67.8 49.78 67.66 49.8 67.53 49.8L41.03 49.8C40.89 49.8 40.76 49.78 40.63 49.73C40.5 49.67 40.39 49.6 40.29 49.5C40.2 49.4 40.12 49.29 40.07 49.16C40.02 49.04 39.99 48.9 39.99 48.77L39.99 5.57C39.99 5.43 40.02 5.3 40.07 5.17C40.12 5.05 40.2 4.93 40.29 4.84C40.39 4.74 40.5 4.66 40.63 4.61C40.76 4.56 40.89 4.53 41.03 4.53" />
			<path id="Layer" class="shp4" d="M20.29 92.77L65.01 92.77L65.01 19.16" />
			<path id="Layer" class="shp4" d="M53.44 8.56L8.88 8.56L8.88 81.74" />
			<path id="Layer" class="shp5" d="M59.32 50.66C59.32 72.55 49.3 90.3 36.93 90.3C24.57 90.3 14.55 72.55 14.55 50.66C14.55 28.77 24.57 11.03 36.93 11.03C49.3 11.03 59.32 28.77 59.32 50.66Z" />
		</g>
		<g id="Layer">
			<path id="Layer" class="shp6" d="M9.36 87.29C9 86.38 9.25 85.23 9.99 84.85C10.73 84.46 11.64 84.88 12.03 85.78C12.14 86.03 12.2 86.31 12.22 86.6C12.25 86.31 12.31 86.03 12.42 85.78C12.81 84.88 13.72 84.46 14.46 84.85C15.2 85.23 15.4 86.37 15.09 87.29C14.55 88.89 12.94 89.82 12.22 91.66C11.63 89.82 9.99 88.86 9.36 87.29L9.36 87.29Z" />
		</g>
		<path id="Layer" fill-rule="evenodd" class="shp7" d="M18.07 89.53C18.07 89.53 18.07 89.53 18.07 89.53C18.07 89.53 18.07 89.53 18.07 89.53L18.07 89.53ZM18.07 89.53C15.77 83.76 14.2 83.92 12.21 83.35L15.18 83.35C15.2 83.25 15.22 83.15 15.24 83.05C15.3 82.8 15.37 82.55 15.44 82.31C15.44 81.98 15.44 81.65 15.44 81.32C15.45 80.6 15.55 79.89 15.65 79.18C15.67 79 15.69 78.82 15.72 78.64C15.62 78.56 15.65 78.02 15.9 76.96C15.95 76.74 15.99 76.52 16.04 76.31C16.12 75.81 16.23 75.31 16.34 74.81C16.46 74.22 16.66 73.65 16.84 73.07C17.08 72.39 17.37 71.73 17.66 71.06C18.01 70.25 18.37 69.43 18.72 68.62C19.21 67.52 19.76 66.46 20.3 65.39C20.99 64.08 21.6 62.73 22.18 61.37C22.88 59.72 23.56 58.06 24.25 56.4C25 54.64 25.71 52.85 26.39 51.05C26.43 50.94 26.47 50.82 26.51 50.7C26.5 50.67 26.49 50.63 26.49 50.58C26.49 50.46 26.56 50.35 26.66 50.29C27.25 48.62 27.8 46.92 28.32 45.22C28.97 43.07 29.53 40.89 29.96 38.69C30.41 36.14 30.52 33.54 30.49 30.95C30.43 28.84 30.21 26.73 29.96 24.64C29.86 24.73 29.73 24.79 29.58 24.79C29.24 24.79 28.97 24.52 28.97 24.18C28.97 23.85 29.24 23.58 29.58 23.58C29.68 23.58 29.77 23.6 29.85 23.65L29.78 23.08C29.69 22.34 29.58 21.6 29.48 20.86C29.42 20.97 29.31 21.04 29.18 21.04C29 21.04 28.85 20.89 28.85 20.71C28.85 20.52 29 20.37 29.18 20.37C29.27 20.37 29.35 20.4 29.41 20.46C29.31 19.76 29.2 19.07 29.09 18.37C28.93 17.3 28.96 16.66 29.07 16.49C28.97 16.38 28.91 16.24 28.91 16.08C28.91 15.74 29.18 15.47 29.51 15.47C29.85 15.47 30.12 15.74 30.12 16.08C30.12 16.41 29.85 16.68 29.51 16.68C29.44 16.68 29.38 16.67 29.32 16.65C29.44 16.89 29.57 17.34 29.67 18.04C29.92 19.61 30.16 21.18 30.35 22.75C30.67 25.36 30.98 27.98 31.06 30.62C31.09 33.21 30.99 35.81 30.54 38.36C30.11 40.56 29.55 42.73 28.9 44.88C28.33 46.73 27.75 48.57 27.09 50.39C27.14 50.44 27.16 50.51 27.16 50.58C27.16 50.74 27.05 50.87 26.9 50.91C26.25 52.64 25.56 54.36 24.84 56.06C24.15 57.72 23.47 59.38 22.77 61.03C22.19 62.39 21.59 63.73 20.9 65.04C20.36 66.11 19.82 67.18 19.33 68.27C18.98 69.08 18.61 69.89 18.26 70.71C17.98 71.37 17.7 72.04 17.46 72.72C17.28 73.29 17.08 73.87 16.96 74.46C16.94 74.53 16.93 74.6 16.91 74.67C17.1 74.25 17.29 73.83 17.49 73.41C17.65 73.1 17.81 72.79 17.98 72.49C17.98 72.48 17.98 72.47 17.99 72.47C18.07 72.22 18.2 71.99 18.31 71.76C18.47 71.41 18.69 71.09 18.89 70.76C19.08 70.44 19.28 70.14 19.5 69.84C20.08 68.84 20.73 67.89 21.41 66.95C21.94 66.23 22.54 65.57 23.17 64.94C23.19 64.79 23.3 64.68 23.45 64.65L23.96 64.14C24.97 63.19 26 62.28 27.01 61.34C28.19 60.23 29.34 59.08 30.49 57.92C31.8 56.61 32.99 55.21 34.11 53.73C35.35 52.02 36.4 50.18 37.4 48.32C37.74 47.72 38.05 47.11 38.34 46.49L38.22 46.5C37.89 46.5 37.62 46.23 37.62 45.9C37.62 45.56 37.89 45.3 38.22 45.3C38.45 45.3 38.64 45.42 38.75 45.6C39.23 44.49 39.67 43.36 40.05 42.21L40.12 41.97C40.08 41.7 40.07 41.31 40.08 40.76C40.11 39.82 40.13 38.88 40.1 37.94C40.05 36.26 39.94 34.57 39.71 32.9C39.53 31.76 39.35 30.62 39.02 29.51C38.85 28.95 38.7 28.38 38.45 27.85C38.36 27.7 38.31 27.53 38.18 27.42C36.26 25.73 36.9 25.34 38.8 27.05C38.93 27.17 38.98 27.35 39.07 27.49C39.32 28.03 39.47 28.59 39.64 29.15C39.96 30.27 40.13 31.41 40.31 32.56C40.53 34.23 40.64 35.91 40.69 37.6C40.71 38.31 40.7 39.02 40.68 39.73C41 38.24 41.24 36.73 41.42 35.22C41.48 34.55 41.51 33.88 41.52 33.21C41.46 33.24 41.39 33.26 41.31 33.26C40.98 33.26 40.7 32.98 40.7 32.65C40.7 32.31 40.98 32.05 41.31 32.05C41.4 32.05 41.47 32.07 41.54 32.1C41.55 31.06 41.53 30.02 41.5 28.99C41.25 28.91 41.07 28.69 41.07 28.42C41.07 28.16 41.23 27.94 41.46 27.85C41.46 27.75 41.45 27.64 41.45 27.53C41.43 27.11 41.42 26.7 41.4 26.28C41.32 23.93 41.89 23.6 41.98 25.95C41.99 26.36 42 26.78 42.02 27.2C42.03 27.44 42.03 27.69 42.04 27.94C42.18 28.05 42.28 28.22 42.28 28.42C42.28 28.6 42.2 28.76 42.08 28.87C42.13 30.88 42.15 32.89 42 34.89C41.71 37.24 41.32 39.6 40.63 41.87C39.93 43.99 39.07 46.04 37.98 47.99C36.98 49.84 35.94 51.68 34.69 53.39C33.58 54.87 32.39 56.28 31.08 57.58C29.94 58.74 28.79 59.88 27.6 60.99C26.6 61.93 25.57 62.85 24.56 63.79C24.26 64.09 23.96 64.39 23.66 64.7C23.73 64.74 23.79 64.81 23.81 64.9C24.57 64.13 25.38 63.4 26.18 62.67L28.99 60.18C29.97 59.29 30.98 58.42 31.97 57.54C33.1 56.57 34.19 55.56 35.27 54.53C36.48 53.37 37.68 52.19 38.85 50.99C40.1 49.73 41.28 48.41 42.43 47.06C43.3 46.01 44.14 44.93 44.95 43.84C44.94 43.8 44.94 43.76 44.94 43.72C44.94 43.41 45.18 43.16 45.48 43.13L46.09 42.28C47.17 40.8 48.15 39.24 49.07 37.65C49.04 37.67 49 37.67 48.96 37.67C48.78 37.67 48.63 37.53 48.63 37.34C48.63 37.16 48.78 37 48.96 37C49.12 37 49.26 37.12 49.29 37.27C49.37 37.12 49.46 36.98 49.55 36.83C50.63 34.82 51.66 32.77 52.34 30.59C52.86 28.69 53.16 26.74 53.47 24.8C53.84 22.47 54.42 22.13 54.04 24.46C53.74 26.4 53.44 28.36 52.92 30.26C52.24 32.44 51.21 34.49 50.14 36.49C49.08 38.37 47.95 40.2 46.68 41.95C46.38 42.35 46.09 42.76 45.79 43.17C46 43.26 46.15 43.47 46.15 43.72C46.15 44.05 45.88 44.33 45.55 44.33C45.36 44.33 45.19 44.24 45.08 44.11C44.41 44.99 43.73 45.87 43.02 46.72C41.87 48.07 40.69 49.39 39.44 50.65C38.87 51.23 38.3 51.8 37.72 52.37C37.89 52.21 38.2 51.93 38.65 51.55C39.76 50.61 40.87 49.68 42.03 48.8C43.11 47.99 44.21 47.2 45.43 46.6C45.53 46.4 45.73 46.26 45.97 46.26C46.03 46.26 46.08 46.27 46.13 46.28C46.31 46.21 46.5 46.16 46.7 46.14C49.12 45.99 48.66 46.31 46.42 46.48C46.51 46.58 46.57 46.72 46.57 46.87C46.57 47.2 46.3 47.47 45.97 47.47C45.64 47.47 45.36 47.2 45.36 46.87C45.36 46.8 45.38 46.75 45.4 46.69L44.9 46.91C44.49 47.07 43.45 47.84 42.63 48.46C41.47 49.34 40.35 50.26 39.24 51.21C38.1 52.18 37.44 52.68 37.56 52.54C37 53.09 36.43 53.64 35.86 54.18C34.78 55.21 33.7 56.22 32.57 57.2C31.58 58.07 30.58 58.94 29.59 59.83C28.66 60.67 27.73 61.49 26.79 62.32C25.93 63.1 25.06 63.89 24.25 64.72C23.53 65.46 22.8 66.2 22.13 66.98C21.61 67.59 21.08 68.21 20.59 68.85L20.07 69.55C20.05 69.59 20.02 69.64 19.99 69.69C19.54 70.46 19.08 71.23 18.65 72.01L18.62 72.11C18.57 72.23 18.53 72.36 18.48 72.48C18.12 73.25 17.82 73.79 17.61 74.11C17.28 74.82 16.99 75.55 16.78 76.31C16.55 77.14 16.34 77.97 16.26 78.83C16.18 79.44 16.1 80.04 16.07 80.65L16.21 80.35C16.54 79.74 16.92 79.16 17.3 78.59C17.61 78.11 17.96 77.67 18.32 77.23C18.25 77.13 18.2 77.01 18.2 76.87C18.2 76.54 18.47 76.26 18.81 76.26C18.92 76.26 19.02 76.3 19.11 76.35C19.69 75.75 20.31 75.19 20.94 74.63C21.74 73.89 22.6 73.2 23.47 72.52C24.5 71.72 25.6 71.01 26.69 70.3C27.94 69.48 29.22 68.71 30.5 67.94L30.8 67.77C30.55 67.7 30.36 67.47 30.36 67.19C30.36 66.86 30.63 66.58 30.97 66.58C31.3 66.58 31.57 66.86 31.57 67.19C31.57 67.53 31.3 67.79 30.97 67.79C30.92 67.79 30.87 67.79 30.82 67.78C29.77 68.41 28.72 69.06 27.69 69.72C26.6 70.44 25.51 71.14 24.48 71.94C23.61 72.62 22.75 73.3 21.95 74.04C21.21 74.7 20.47 75.35 19.81 76.09L19.36 76.62C19.39 76.7 19.42 76.78 19.42 76.87C19.42 77.21 19.14 77.47 18.81 77.47C18.77 77.47 18.74 77.47 18.7 77.47C18.57 77.64 18.45 77.82 18.33 78C17.94 78.57 17.56 79.15 17.24 79.76C17.02 80.23 16.78 80.69 16.64 81.2C16.57 81.43 16.49 81.66 16.42 81.88C16.51 81.94 16.57 82.04 16.57 82.16C16.57 82.33 16.43 82.48 16.26 82.49C16.21 82.79 16.13 83.09 16.14 83.4C16.15 83.57 16.14 83.75 16.18 83.92C16.2 84.02 16.2 84.13 16.23 84.22C16.5 85.43 18.6 88.62 18.07 89.53ZM18.33 84.52C18.33 84.34 18.48 84.19 18.66 84.19C18.84 84.19 18.99 84.34 18.99 84.52C18.99 84.7 18.84 84.85 18.66 84.85C18.48 84.85 18.33 84.7 18.33 84.52ZM13.43 82.56C13.43 82.22 13.69 81.95 14.03 81.95C14.36 81.95 14.64 82.22 14.64 82.56C14.64 82.89 14.36 83.16 14.03 83.16C13.69 83.16 13.43 82.89 13.43 82.56ZM16.69 81.83C16.69 81.49 16.96 81.23 17.29 81.23C17.63 81.23 17.9 81.49 17.9 81.83C17.9 82.16 17.63 82.44 17.29 82.44C16.96 82.44 16.69 82.16 16.69 81.83ZM12.7 80.41C12.7 80.22 12.85 80.07 13.03 80.07C13.21 80.07 13.36 80.22 13.36 80.41C13.36 80.59 13.21 80.74 13.03 80.74C12.85 80.74 12.7 80.59 12.7 80.41ZM14.21 79.86C14.21 79.68 14.36 79.53 14.54 79.53C14.73 79.53 14.88 79.68 14.88 79.86C14.88 80.05 14.73 80.19 14.54 80.19C14.36 80.19 14.21 80.05 14.21 79.86ZM19.66 78.87C19.66 78.53 19.92 78.26 20.26 78.26C20.59 78.26 20.86 78.53 20.86 78.87C20.86 79.2 20.59 79.47 20.26 79.47C19.92 79.47 19.66 79.2 19.66 78.87ZM21.35 78.11C21.35 77.93 21.49 77.78 21.68 77.78C21.86 77.78 22.01 77.93 22.01 78.11C22.01 78.29 21.86 78.44 21.68 78.44C21.49 78.44 21.35 78.29 21.35 78.11ZM12.76 77.18C12.76 76.84 13.03 76.57 13.36 76.57C13.7 76.57 13.97 76.84 13.97 77.18C13.97 77.51 13.7 77.78 13.36 77.78C13.03 77.78 12.76 77.51 12.76 77.18ZM14.15 75.41C14.15 75.08 14.42 74.81 14.76 74.81C15.09 74.81 15.36 75.08 15.36 75.41C15.36 75.75 15.09 76.02 14.76 76.02C14.42 76.02 14.15 75.75 14.15 75.41ZM22.26 75.45C22.26 75.27 22.41 75.12 22.59 75.12C22.77 75.12 22.92 75.27 22.92 75.45C22.92 75.63 22.77 75.78 22.59 75.78C22.41 75.78 22.26 75.63 22.26 75.45ZM26.37 74.63C26.37 74.3 26.64 74.03 26.97 74.03C27.31 74.03 27.58 74.3 27.58 74.63C27.58 74.96 27.31 75.24 26.97 75.24C26.64 75.24 26.37 74.96 26.37 74.63ZM19.9 73.91C19.9 73.58 20.17 73.3 20.5 73.3C20.84 73.3 21.11 73.58 21.11 73.91C21.11 74.24 20.84 74.51 20.5 74.51C20.17 74.51 19.9 74.24 19.9 73.91ZM22.87 74.36C22.85 74.36 23.22 74.06 24.09 73.43C24.56 73.08 25.03 72.71 25.53 72.4C26.65 71.74 27.76 71.07 28.95 70.54C29.8 70.16 30.65 69.77 31.52 69.44C32.13 69.2 32.73 68.95 33.34 68.72L34.12 68.42C36.51 67.51 35.89 67.87 33.5 68.78L32.72 69.07C32.11 69.31 31.51 69.55 30.9 69.79C30.36 70 29.84 70.23 29.31 70.47C29.62 70.48 29.88 70.74 29.88 71.06C29.88 71.39 29.61 71.67 29.27 71.67C28.94 71.67 28.67 71.39 28.67 71.06C28.67 70.91 28.72 70.78 28.81 70.68L28.35 70.88C27.68 71.15 26.35 71.93 26.14 72.06C25.63 72.36 25.17 72.73 24.7 73.08C23.58 73.9 22.9 74.37 22.87 74.36L22.87 74.36ZM13.84 73.12C13.84 72.78 14.12 72.52 14.45 72.52C14.79 72.52 15.06 72.78 15.06 73.12C15.06 73.45 14.79 73.73 14.45 73.73C14.12 73.73 13.84 73.45 13.84 73.12ZM27.33 72.73C27.33 72.54 27.48 72.4 27.67 72.4C27.85 72.4 28 72.54 28 72.73C28 72.91 27.85 73.06 27.67 73.06C27.48 73.06 27.33 72.91 27.33 72.73ZM16.09 71.6C16.09 71.27 16.36 71 16.69 71C17.03 71 17.29 71.27 17.29 71.6C17.29 71.94 17.03 72.21 16.69 72.21C16.36 72.21 16.09 71.94 16.09 71.6ZM19.35 71.43C19.35 71.09 19.63 70.82 19.96 70.82C20.29 70.82 20.56 71.09 20.56 71.43C20.56 71.76 20.29 72.03 19.96 72.03C19.63 72.03 19.35 71.76 19.35 71.43ZM11.43 71.22C11.43 71.03 11.57 70.88 11.76 70.88C11.94 70.88 12.09 71.03 12.09 71.22C12.09 71.4 11.94 71.55 11.76 71.55C11.57 71.55 11.43 71.4 11.43 71.22ZM32.54 70.06C32.54 69.88 32.69 69.73 32.87 69.73C33.05 69.73 33.2 69.88 33.2 70.06C33.2 70.25 33.05 70.4 32.87 70.4C32.69 70.4 32.54 70.25 32.54 70.06ZM25.04 69.73C25.04 69.4 25.31 69.13 25.64 69.13C25.98 69.13 26.25 69.4 26.25 69.73C26.25 70.06 25.98 70.34 25.64 70.34C25.31 70.34 25.04 70.06 25.04 69.73ZM36.32 69.79C36.14 69.79 35.99 69.65 35.99 69.46C35.99 69.4 36.01 69.34 36.04 69.29C35.98 69.3 35.93 69.31 35.87 69.31C35.53 69.31 35.26 69.04 35.26 68.71C35.26 68.37 35.53 68.1 35.87 68.1C36.2 68.1 36.47 68.37 36.47 68.71C36.47 68.87 36.4 69.02 36.29 69.13L36.32 69.13C36.5 69.13 36.65 69.28 36.65 69.46C36.65 69.65 36.5 69.79 36.32 69.79L36.32 69.79ZM37.8 67.79C37.8 67.46 38.07 67.19 38.41 67.19C38.74 67.19 39.01 67.46 39.01 67.79C39.01 68.13 38.74 68.4 38.41 68.4C38.07 68.4 37.8 68.13 37.8 67.79ZM17.17 67.79C17.17 67.46 17.45 67.19 17.78 67.19C18.12 67.19 18.38 67.46 18.38 67.79C18.38 68.13 18.12 68.4 17.78 68.4C17.45 68.4 17.17 68.13 17.17 67.79ZM21.95 67.74C21.95 67.4 22.22 67.13 22.55 67.13C22.89 67.13 23.16 67.4 23.16 67.74C23.16 68.07 22.89 68.34 22.55 68.34C22.22 68.34 21.95 68.07 21.95 67.74ZM39.61 67.95C39.61 67.77 39.76 67.62 39.95 67.62C40.13 67.62 40.28 67.77 40.28 67.95C40.28 68.13 40.13 68.28 39.95 68.28C39.76 68.28 39.61 68.13 39.61 67.95ZM26.61 67.52C26.61 67.34 26.76 67.19 26.95 67.19C27.13 67.19 27.28 67.34 27.28 67.52C27.28 67.71 27.13 67.86 26.95 67.86C26.76 67.86 26.61 67.71 26.61 67.52ZM21.41 67.46C21.41 67.46 21.41 67.46 21.41 67.46C21.41 67.46 21.41 67.46 21.41 67.46L21.41 67.46ZM21.41 67.46C21.45 67.42 21.48 67.38 21.52 67.33C22.12 66.63 22.77 65.97 23.42 65.3C23.33 65.28 23.26 65.23 23.21 65.16C22.79 65.62 22.38 66.1 22.01 66.61C21.81 66.89 21.61 67.17 21.41 67.46ZM32.91 66.55C32.92 66.55 32.92 66.54 32.93 66.54C32.92 66.54 32.92 66.55 32.91 66.55L32.91 66.55ZM32.93 66.54C33.9 65.98 34.88 65.43 35.86 64.88C35.98 64.82 36.17 64.71 36.33 64.62C36.1 64.54 35.92 64.31 35.92 64.05C35.92 63.71 36.2 63.44 36.53 63.44C36.87 63.44 37.13 63.71 37.13 64.05C37.13 64.09 37.13 64.14 37.12 64.18L39.19 63.01C38.5 63.41 37.81 63.81 37.11 64.2C37.04 64.46 36.81 64.65 36.53 64.65C36.47 64.65 36.42 64.64 36.36 64.63C35.87 64.9 35.37 65.18 34.87 65.45C34.17 65.84 33.51 66.21 32.93 66.54ZM40.34 66.13C40.34 65.95 40.49 65.8 40.68 65.8C40.86 65.8 41.01 65.95 41.01 66.13C41.01 66.32 40.86 66.46 40.68 66.46C40.49 66.46 40.34 66.32 40.34 66.13ZM17.53 65.56C17.2 65.56 16.93 65.29 16.93 64.95C16.93 64.62 17.2 64.35 17.53 64.35C17.65 64.35 17.75 64.38 17.84 64.43C17.85 64.25 17.99 64.1 18.17 64.1C18.35 64.1 18.5 64.26 18.5 64.44C18.5 64.63 18.35 64.77 18.17 64.77C18.15 64.77 18.13 64.77 18.11 64.77C18.13 64.83 18.14 64.89 18.14 64.95C18.14 65.29 17.87 65.56 17.53 65.56L17.53 65.56ZM15.24 65.16C15.24 64.98 15.39 64.83 15.57 64.83C15.75 64.83 15.9 64.98 15.9 65.16C15.9 65.35 15.75 65.5 15.57 65.5C15.39 65.5 15.24 65.35 15.24 65.16ZM19.17 62.6C19.17 62.26 19.44 61.99 19.78 61.99C20.11 61.99 20.38 62.26 20.38 62.6C20.38 62.93 20.11 63.2 19.78 63.2C19.44 63.2 19.17 62.93 19.17 62.6ZM45 62.75C45 62.56 45.15 62.41 45.33 62.41C45.52 62.41 45.67 62.56 45.67 62.75C45.67 62.93 45.52 63.08 45.33 63.08C45.15 63.08 45 62.93 45 62.75ZM39.43 62.87L39.45 62.86C39.44 62.87 39.44 62.87 39.43 62.87L39.43 62.87ZM39.45 62.86C40.93 62 42.34 61.02 43.7 59.99C44.75 59.18 45.75 58.31 46.71 57.41C46.71 57.4 46.71 57.38 46.71 57.37C46.23 57.79 45.73 58.17 45.24 58.57C43.33 60.09 42.73 60.44 44.63 58.91C45.18 58.48 45.74 58.05 46.26 57.59C46.98 56.96 47.71 56.33 48.42 55.7C49.69 54.34 50.8 52.85 51.85 51.32C53.1 49.55 54.02 47.59 54.77 45.56C55.56 43.35 55.88 41.03 56.05 38.71C56.26 36.63 56.08 34.56 55.82 32.49C55.33 28.64 56.28 28.09 56.77 31.95C57.04 34.01 57.22 36.08 57.01 38.16C56.86 40.17 56.61 42.18 56.02 44.12C56.13 44.02 56.28 43.96 56.43 43.96C56.77 43.96 57.04 44.23 57.04 44.57C57.04 44.9 56.77 45.18 56.43 45.18C56.14 45.18 55.9 44.96 55.84 44.69C55.81 44.79 55.78 44.9 55.74 45C54.99 47.03 54.07 48.98 52.82 50.75C52.13 51.77 51.41 52.76 50.63 53.72C51.19 53.21 51.74 52.71 52.28 52.19L52.96 51.5C53.02 51.35 53.12 51.24 53.26 51.17C53.71 50.68 54.13 50.17 54.5 49.61C55.07 48.77 55.63 47.93 56.18 47.07C56.72 46.22 57.26 45.36 57.78 44.5C58.23 43.75 58.69 43 59.09 42.23C59.31 41.76 59.54 41.3 59.7 40.8C59.77 40.61 59.82 40.42 59.91 40.24C60.14 39.78 60.34 39.42 60.52 39.12C60.32 39.03 60.18 38.82 60.18 38.58C60.18 38.26 60.44 38 60.75 37.98C60.67 37.92 60.61 37.82 60.61 37.7C60.61 37.52 60.75 37.37 60.94 37.37C61.12 37.37 61.27 37.52 61.27 37.7C61.27 37.86 61.17 37.98 61.02 38.02C61.24 38.11 61.39 38.33 61.39 38.58C61.39 38.88 61.17 39.13 60.88 39.17C60.79 39.37 60.68 39.61 60.54 39.88C60.44 40.06 60.39 40.25 60.32 40.44C60.16 40.94 59.92 41.4 59.7 41.87L59.46 42.32C59.57 42.21 59.71 42.15 59.88 42.15C60.21 42.15 60.49 42.42 60.49 42.75C60.49 43.08 60.21 43.36 59.88 43.36C59.54 43.36 59.28 43.08 59.28 42.75C59.28 42.71 59.28 42.67 59.29 42.63C59 43.14 58.7 43.64 58.39 44.14C57.87 45.01 57.33 45.86 56.79 46.72C56.24 47.57 55.68 48.42 55.11 49.26C54.67 49.93 54.15 50.53 53.6 51.11C53.9 51.14 54.14 51.4 54.14 51.71C54.14 52.04 53.86 52.31 53.53 52.31C53.22 52.31 52.97 52.09 52.93 51.79L52.89 51.84C51.93 52.75 50.96 53.61 49.99 54.49L49.94 54.54C49.62 54.9 49.3 55.25 48.96 55.59C48.5 56.06 48.03 56.51 47.55 56.96C47.76 57.06 47.9 57.27 47.9 57.51C47.9 57.85 47.63 58.11 47.3 58.11C47.04 58.11 46.82 57.95 46.73 57.72C46.07 58.31 45.39 58.87 44.68 59.42C43.29 60.47 41.85 61.47 40.34 62.35L39.45 62.86ZM35.75 62.38C35.75 62.2 35.9 62.05 36.08 62.05C36.26 62.05 36.41 62.2 36.41 62.38C36.41 62.57 36.26 62.72 36.08 62.72C35.9 62.72 35.75 62.57 35.75 62.38ZM42.13 62.47L42.07 62.47C41.88 62.47 41.74 62.32 41.74 62.14C41.74 61.95 41.88 61.81 42.07 61.81C42.25 61.81 42.4 61.95 42.4 62.14C42.4 62.3 42.28 62.44 42.13 62.47ZM28.13 61.68C28.13 61.35 28.39 61.08 28.73 61.08C29.06 61.08 29.33 61.35 29.33 61.68C29.33 62.02 29.06 62.29 28.73 62.29C28.39 62.29 28.13 62.02 28.13 61.68ZM30.24 61.78C30.24 61.59 30.39 61.44 30.57 61.44C30.76 61.44 30.9 61.59 30.9 61.78C30.9 61.96 30.76 62.11 30.57 62.11C30.39 62.11 30.24 61.96 30.24 61.78ZM39.01 60.26C39.01 60.08 39.16 59.93 39.35 59.93C39.53 59.93 39.68 60.08 39.68 60.26C39.68 60.45 39.53 60.6 39.35 60.6C39.16 60.6 39.01 60.45 39.01 60.26ZM41.74 59.81C41.74 59.48 42 59.2 42.34 59.2C42.67 59.2 42.94 59.48 42.94 59.81C42.94 60.15 42.67 60.42 42.34 60.42C42 60.42 41.74 60.15 41.74 59.81ZM20.38 59.57C20.38 59.24 20.65 58.96 20.99 58.96C21.32 58.96 21.59 59.24 21.59 59.57C21.59 59.9 21.32 60.17 20.99 60.17C20.65 60.17 20.38 59.9 20.38 59.57ZM49.29 59.24C49.29 59.05 49.44 58.91 49.63 58.91C49.81 58.91 49.96 59.05 49.96 59.24C49.96 59.42 49.81 59.57 49.63 59.57C49.44 59.57 49.29 59.42 49.29 59.24ZM27.7 58.84C27.7 58.51 27.97 58.24 28.3 58.24C28.64 58.24 28.91 58.51 28.91 58.84C28.91 59.18 28.64 59.45 28.3 59.45C27.97 59.45 27.7 59.18 27.7 58.84ZM18.93 58.09C18.93 57.9 19.08 57.75 19.26 57.75C19.44 57.75 19.59 57.9 19.59 58.09C19.59 58.27 19.44 58.42 19.26 58.42C19.08 58.42 18.93 58.27 18.93 58.09ZM43.07 57.75C43.07 57.42 43.33 57.15 43.67 57.15C44 57.15 44.27 57.42 44.27 57.75C44.27 58.09 44 58.36 43.67 58.36C43.33 58.36 43.06 58.09 43.07 57.75ZM21.95 57.75C21.62 57.75 21.35 57.49 21.35 57.15C21.35 56.92 21.48 56.72 21.67 56.62C21.66 56.59 21.65 56.55 21.65 56.52C21.65 56.33 21.8 56.18 21.98 56.18C22.17 56.18 22.31 56.33 22.31 56.52C22.31 56.56 22.31 56.61 22.29 56.65C22.45 56.76 22.55 56.94 22.55 57.15C22.55 57.49 22.29 57.75 21.95 57.75L21.95 57.75ZM34.41 56.61C34.41 56.27 34.69 56 35.02 56C35.35 56 35.62 56.27 35.62 56.61C35.62 56.94 35.35 57.21 35.02 57.21C34.69 57.21 34.41 56.94 34.41 56.61ZM23.88 56.99C23.75 57 23.73 56.49 23.94 55.39C24.18 54.12 24.41 52.85 24.55 51.57C24.71 49.99 24.8 48.4 24.75 46.82C24.68 45.63 24.61 44.45 24.4 43.27C24.27 42.48 24.15 41.69 23.94 40.91C23.85 40.61 23.79 40.31 23.66 40.02C22.57 37.71 23.23 37.33 24.28 39.66C24.41 39.95 24.47 40.26 24.56 40.56C24.76 41.34 24.88 42.13 25.01 42.92C25.21 44.09 25.29 45.28 25.35 46.47C25.4 48.06 25.3 49.65 25.14 51.23C24.99 52.51 24.77 53.78 24.53 55.05C24.29 56.29 24.02 56.98 23.88 56.99L23.88 56.99ZM36.47 56.64C36.47 56.45 36.62 56.3 36.8 56.3C36.98 56.3 37.13 56.45 37.13 56.64C37.13 56.82 36.98 56.97 36.8 56.97C36.62 56.97 36.47 56.82 36.47 56.64ZM26.55 56.4C26.55 56.21 26.7 56.06 26.88 56.06C27.07 56.06 27.21 56.21 27.21 56.4C27.21 56.58 27.07 56.73 26.88 56.73C26.7 56.73 26.55 56.58 26.55 56.4ZM30.24 55.03C30.24 54.7 30.51 54.43 30.85 54.43C31.18 54.43 31.45 54.7 31.45 55.03C31.45 55.37 31.18 55.64 30.85 55.64C30.51 55.64 30.24 55.37 30.24 55.03ZM47.12 54.55C47.12 54.22 47.39 53.94 47.72 53.94C48.06 53.94 48.33 54.22 48.33 54.55C48.33 54.88 48.06 55.15 47.72 55.15C47.39 55.15 47.12 54.88 47.12 54.55ZM54.19 53.43C54.19 53.24 54.34 53.09 54.53 53.09C54.71 53.09 54.86 53.24 54.86 53.43C54.86 53.61 54.71 53.76 54.53 53.76C54.34 53.76 54.19 53.61 54.19 53.43ZM42.4 50.32C42.4 49.98 42.67 49.71 43 49.71C43.34 49.71 43.61 49.98 43.61 50.32C43.61 50.65 43.34 50.92 43 50.92C42.67 50.92 42.4 50.65 42.4 50.32ZM49.11 49.62C49.11 49.43 49.26 49.28 49.44 49.28C49.63 49.28 49.78 49.43 49.78 49.62C49.78 49.8 49.63 49.95 49.44 49.95C49.26 49.95 49.11 49.8 49.11 49.62ZM19.42 48.92C19.42 48.59 19.68 48.32 20.02 48.32C20.35 48.32 20.62 48.59 20.62 48.92C20.62 49.26 20.35 49.53 20.02 49.53C19.68 49.53 19.42 49.26 19.42 48.92ZM34.72 48.68C34.72 48.35 34.99 48.07 35.32 48.07C35.66 48.07 35.92 48.35 35.92 48.68C35.92 49.02 35.66 49.28 35.32 49.28C34.99 49.28 34.72 49.02 34.72 48.68ZM58.31 48.23C58.31 48.05 58.46 47.9 58.64 47.9C58.82 47.9 58.97 48.05 58.97 48.23C58.97 48.41 58.82 48.56 58.64 48.56C58.46 48.56 58.31 48.41 58.31 48.23ZM57.28 47.47C57.28 47.14 57.55 46.87 57.88 46.87C58.22 46.87 58.49 47.14 58.49 47.47C58.49 47.81 58.22 48.07 57.88 48.07C57.55 48.07 57.28 47.81 57.28 47.47ZM38.47 47.29C38.47 46.96 38.74 46.68 39.07 46.68C39.4 46.68 39.68 46.96 39.68 47.29C39.68 47.62 39.4 47.9 39.07 47.9C38.74 47.9 38.47 47.62 38.47 47.29ZM28.49 46.63C28.49 46.29 28.75 46.02 29.09 46.02C29.42 46.02 29.7 46.29 29.7 46.63C29.7 46.96 29.42 47.23 29.09 47.23C28.75 47.23 28.49 46.96 28.49 46.63ZM22.43 44.29C22.43 44.11 22.58 43.96 22.77 43.96C22.95 43.96 23.1 44.11 23.1 44.29C23.1 44.48 22.95 44.63 22.77 44.63C22.58 44.63 22.43 44.48 22.43 44.29ZM25.64 43.9C25.64 43.57 25.91 43.3 26.25 43.3C26.58 43.3 26.85 43.57 26.85 43.9C26.85 44.24 26.58 44.5 26.25 44.5C25.91 44.5 25.64 44.24 25.64 43.9ZM52.32 43.72C52.32 43.39 52.59 43.12 52.92 43.12C53.25 43.12 53.53 43.39 53.53 43.72C53.53 44.05 53.25 44.33 52.92 44.33C52.59 44.33 52.32 44.05 52.32 43.72ZM29.63 43.39C29.63 43.2 29.79 43.06 29.97 43.06C30.15 43.06 30.3 43.2 30.3 43.39C30.3 43.57 30.15 43.72 29.97 43.72C29.79 43.72 29.63 43.57 29.63 43.39ZM37.74 40.57C37.74 40.24 38.02 39.97 38.35 39.97C38.68 39.97 38.95 40.24 38.95 40.57C38.95 40.91 38.68 41.18 38.35 41.18C38.02 41.18 37.74 40.91 37.74 40.57ZM44.88 40.52C44.88 40.18 45.15 39.91 45.48 39.91C45.82 39.91 46.09 40.18 46.09 40.52C46.09 40.85 45.82 41.12 45.48 41.12C45.15 41.12 44.88 40.85 44.88 40.52ZM57.46 39.85C57.46 39.52 57.73 39.24 58.07 39.24C58.4 39.24 58.67 39.52 58.67 39.85C58.67 40.19 58.4 40.45 58.07 40.45C57.73 40.45 57.46 40.19 57.46 39.85ZM27.21 39.36C27.21 39.03 27.49 38.76 27.82 38.76C28.16 38.76 28.42 39.03 28.42 39.36C28.42 39.7 28.16 39.97 27.82 39.97C27.49 39.97 27.21 39.7 27.21 39.36ZM42.58 39.31C42.58 38.97 42.85 38.7 43.19 38.7C43.52 38.7 43.79 38.97 43.79 39.31C43.79 39.64 43.52 39.91 43.19 39.91C42.85 39.91 42.58 39.64 42.58 39.31ZM30.72 38.25C30.72 38.06 30.88 37.92 31.06 37.92C31.24 37.92 31.39 38.06 31.39 38.25C31.39 38.43 31.24 38.58 31.06 38.58C30.88 38.58 30.72 38.43 30.72 38.25ZM22.01 37.28C22.01 37.1 22.16 36.95 22.34 36.95C22.53 36.95 22.68 37.1 22.68 37.28C22.68 37.46 22.53 37.61 22.34 37.61C22.16 37.61 22.01 37.46 22.01 37.28ZM43.97 37.16C43.97 36.98 44.12 36.83 44.3 36.83C44.49 36.83 44.63 36.98 44.63 37.16C44.63 37.34 44.49 37.49 44.3 37.49C44.12 37.49 43.97 37.34 43.97 37.16ZM53.41 36.34C53.41 36 53.68 35.74 54.01 35.74C54.34 35.74 54.62 36 54.62 36.34C54.62 36.67 54.34 36.95 54.01 36.95C53.68 36.95 53.41 36.67 53.41 36.34ZM37.62 36.37C37.62 36.19 37.77 36.04 37.95 36.04C38.14 36.04 38.29 36.19 38.29 36.37C38.29 36.56 38.14 36.71 37.95 36.71C37.77 36.71 37.62 36.56 37.62 36.37ZM61.39 35.83C61.39 35.65 61.54 35.5 61.72 35.5C61.91 35.5 62.06 35.65 62.06 35.83C62.06 36.01 61.91 36.16 61.72 36.16C61.54 36.16 61.39 36.01 61.39 35.83ZM38.1 35.43C38.1 35.1 38.38 34.83 38.71 34.83C39.04 34.83 39.31 35.1 39.31 35.43C39.31 35.77 39.04 36.04 38.71 36.04C38.38 36.04 38.1 35.77 38.1 35.43ZM47.78 35.25C47.78 34.92 48.05 34.65 48.39 34.65C48.72 34.65 48.99 34.92 48.99 35.25C48.99 35.58 48.72 35.86 48.39 35.86C48.05 35.86 47.78 35.58 47.78 35.25ZM52.2 34.68C52.2 34.49 52.35 34.34 52.53 34.34C52.72 34.34 52.86 34.49 52.86 34.68C52.86 34.86 52.72 35.01 52.53 35.01C52.35 35.01 52.2 34.86 52.2 34.68ZM60.97 34.22C60.97 33.89 61.24 33.62 61.57 33.62C61.91 33.62 62.18 33.89 62.18 34.22C62.18 34.56 61.91 34.83 61.57 34.83C61.24 34.83 60.97 34.56 60.97 34.22ZM29.48 34.83C29.3 34.83 29.15 34.68 29.15 34.49C29.15 34.31 29.3 34.16 29.48 34.16C29.67 34.16 29.82 34.31 29.82 34.49C29.82 34.65 29.71 34.79 29.55 34.83L29.48 34.83ZM57.04 33.53C57.04 33.35 57.18 33.19 57.37 33.19C57.55 33.19 57.7 33.35 57.7 33.53C57.7 33.72 57.55 33.86 57.37 33.86C57.18 33.86 57.04 33.72 57.04 33.53ZM32.54 32.65C32.54 32.31 32.81 32.05 33.15 32.05C33.48 32.05 33.75 32.31 33.75 32.65C33.75 32.98 33.48 33.26 33.15 33.26C32.81 33.26 32.54 32.98 32.54 32.65ZM53.29 32.44C53.29 32.26 53.44 32.1 53.62 32.1C53.8 32.1 53.95 32.26 53.95 32.44C53.95 32.63 53.8 32.78 53.62 32.78C53.44 32.78 53.29 32.63 53.29 32.44ZM43.67 31.93C43.33 31.93 43.06 31.65 43.07 31.32C43.07 30.98 43.33 30.72 43.67 30.72C43.84 30.72 43.99 30.79 44.1 30.9C44.14 30.76 44.27 30.65 44.42 30.65C44.61 30.65 44.75 30.8 44.75 30.99C44.75 31.17 44.61 31.32 44.42 31.32C44.37 31.32 44.31 31.31 44.27 31.28C44.27 31.3 44.27 31.31 44.27 31.32C44.27 31.65 44 31.93 43.67 31.93ZM49.84 30.87C49.84 30.68 49.99 30.53 50.17 30.53C50.35 30.53 50.5 30.68 50.5 30.87C50.5 31.05 50.35 31.2 50.17 31.2C49.99 31.2 49.84 31.05 49.84 30.87ZM60.13 30.75C60.13 30.56 60.27 30.41 60.46 30.41C60.64 30.41 60.79 30.56 60.79 30.75C60.79 30.93 60.64 31.08 60.46 31.08C60.27 31.08 60.13 30.93 60.13 30.75ZM57.28 30.41C57.28 30.08 57.55 29.81 57.88 29.81C58.22 29.81 58.49 30.08 58.49 30.41C58.49 30.75 58.22 31.01 57.88 31.01C57.55 31.01 57.28 30.75 57.28 30.41ZM31.99 30.23C31.99 29.9 32.27 29.63 32.6 29.63C32.94 29.63 33.2 29.9 33.2 30.23C33.2 30.56 32.94 30.84 32.6 30.84C32.27 30.84 31.99 30.56 31.99 30.23ZM37.74 30.17C37.52 30.17 37.33 30.05 37.23 29.87C37.14 29.81 37.08 29.71 37.08 29.59C37.08 29.5 37.12 29.42 37.18 29.36C37.26 29.13 37.48 28.96 37.74 28.96C38.08 28.96 38.35 29.23 38.35 29.57C38.35 29.9 38.08 30.17 37.74 30.17L37.74 30.17ZM50.69 29.02C50.69 28.69 50.95 28.42 51.29 28.42C51.62 28.42 51.9 28.69 51.9 29.02C51.9 29.35 51.62 29.63 51.29 29.63C50.95 29.63 50.69 29.35 50.69 29.02ZM28.37 28.42C28.37 28.09 28.63 27.81 28.97 27.81C29.3 27.81 29.58 28.09 29.58 28.42C29.58 28.75 29.3 29.02 28.97 29.02C28.63 29.02 28.37 28.75 28.37 28.42ZM38.83 26.81C38.83 26.63 38.98 26.48 39.16 26.48C39.35 26.48 39.49 26.63 39.49 26.81C39.49 27 39.35 27.15 39.16 27.15C38.98 27.15 38.83 27 38.83 26.81ZM59.21 26.69C59.21 26.51 59.36 26.36 59.55 26.36C59.73 26.36 59.88 26.51 59.88 26.69C59.88 26.88 59.73 27.03 59.55 27.03C59.36 27.03 59.21 26.88 59.21 26.69ZM31.57 26.63C31.57 26.45 31.72 26.3 31.9 26.3C32.08 26.3 32.23 26.45 32.23 26.63C32.23 26.81 32.08 26.96 31.9 26.96C31.72 26.96 31.57 26.81 31.57 26.63ZM54.98 25.24C54.98 25.05 55.13 24.91 55.31 24.91C55.49 24.91 55.64 25.05 55.64 25.24C55.64 25.42 55.49 25.57 55.31 25.57C55.13 25.57 54.98 25.42 54.98 25.24ZM56.01 24.48C56.01 24.15 56.28 23.88 56.61 23.88C56.95 23.88 57.22 24.15 57.22 24.48C57.22 24.82 56.95 25.09 56.61 25.09C56.28 25.09 56.01 24.82 56.01 24.48ZM34.53 24.03C34.53 23.85 34.69 23.7 34.87 23.7C35.05 23.7 35.2 23.85 35.2 24.03C35.2 24.21 35.05 24.36 34.87 24.36C34.69 24.36 34.53 24.21 34.53 24.03ZM37.01 23.52C37.01 23.19 37.29 22.91 37.62 22.91C37.95 22.91 38.22 23.19 38.22 23.52C38.22 23.85 37.96 24.12 37.62 24.12C37.29 24.12 37.01 23.85 37.01 23.52ZM31.81 22.55C31.81 22.22 32.08 21.94 32.42 21.94C32.75 21.94 33.03 22.22 33.03 22.55C33.03 22.89 32.75 23.15 32.42 23.15C32.08 23.15 31.81 22.89 31.81 22.55ZM49.53 22.64C49.53 22.45 49.68 22.3 49.87 22.3C50.05 22.3 50.2 22.45 50.2 22.64C50.2 22.82 50.05 22.98 49.87 22.98C49.68 22.98 49.53 22.82 49.53 22.64ZM41.43 22.3C41.43 21.97 41.7 21.7 42.03 21.7C42.37 21.7 42.64 21.97 42.64 22.3C42.64 22.64 42.37 22.91 42.03 22.91C41.7 22.91 41.43 22.64 41.43 22.3ZM52.14 21.97C52.14 21.79 52.28 21.64 52.47 21.64C52.65 21.64 52.8 21.79 52.8 21.97C52.8 22.16 52.65 22.3 52.47 22.3C52.28 22.3 52.14 22.16 52.14 21.97ZM40.46 20.59C40.46 20.4 40.61 20.25 40.8 20.25C40.98 20.25 41.13 20.4 41.13 20.59C41.13 20.77 40.98 20.92 40.8 20.92C40.61 20.92 40.46 20.77 40.46 20.59ZM27.21 20.13C27.21 19.79 27.49 19.53 27.82 19.53C28.16 19.53 28.42 19.79 28.42 20.13C28.42 20.46 28.16 20.73 27.82 20.73C27.49 20.73 27.21 20.46 27.21 20.13ZM50.26 18.95C50.26 18.77 50.41 18.62 50.59 18.62C50.78 18.62 50.93 18.77 50.93 18.95C50.93 19.14 50.78 19.29 50.59 19.29C50.41 19.29 50.26 19.14 50.26 18.95ZM52.14 18.25C52.14 17.92 52.41 17.65 52.74 17.65C53.08 17.65 53.34 17.92 53.34 18.25C53.34 18.59 53.08 18.86 52.74 18.86C52.41 18.86 52.14 18.59 52.14 18.25ZM26.67 17.62C26.67 17.43 26.82 17.28 27 17.28C27.19 17.28 27.33 17.43 27.33 17.62C27.33 17.8 27.19 17.95 27 17.95C26.82 17.95 26.67 17.8 26.67 17.62ZM52.44 16.35C52.44 16.17 52.59 16.02 52.77 16.02C52.96 16.02 53.1 16.17 53.1 16.35C53.1 16.53 52.96 16.68 52.77 16.68C52.59 16.68 52.44 16.53 52.44 16.35ZM35.8 15.44C35.8 15.26 35.95 15.11 36.14 15.11C36.32 15.11 36.47 15.26 36.47 15.44C36.47 15.62 36.32 15.77 36.14 15.77C35.95 15.77 35.8 15.62 35.8 15.44ZM27.28 13.81C27.28 13.62 27.43 13.47 27.61 13.47C27.79 13.47 27.94 13.62 27.94 13.81C27.94 13.99 27.79 14.14 27.61 14.14C27.43 14.14 27.28 13.99 27.28 13.81ZM28.97 12.6C28.97 12.41 29.12 12.26 29.3 12.26C29.48 12.26 29.63 12.41 29.63 12.6C29.63 12.78 29.48 12.93 29.3 12.93C29.12 12.93 28.97 12.78 28.97 12.6Z" />
		<path id="Layer" fill-rule="evenodd" class="shp8" d="M28.94 17.84C29.75 17.83 30.66 17.95 31.59 18.13C32.09 17.93 32.64 17.85 33.03 17.84C33.86 17.83 34.87 18.19 35.78 18.67C35.99 18.08 36.37 17.85 36.61 17.84C37.04 17.82 37.59 18.57 38 19.32C38.17 19.17 38.39 19.08 38.63 19.08C38.87 19.08 39.1 19.17 39.26 19.32C39.65 18.6 40.19 17.88 40.61 17.84C40.86 17.82 41.27 18.05 41.49 18.67C42.35 18.21 43.3 17.87 44.1 17.84C44.54 17.83 45.16 17.91 45.7 18.13C46.53 17.96 47.35 17.85 48.1 17.84C49.7 17.81 50.96 18.21 51.31 19.37C52.24 22.51 49.7 23.93 47 25.47L47.21 25.47C47.64 25.47 47.99 25.82 47.99 26.25L47.99 27.75C47.99 28.14 47.71 28.45 47.34 28.51C49.02 29.36 49.91 30.3 49.81 31C49.69 31.83 49.45 32.19 49.17 32.03C49.81 33.34 50.06 33.89 50.23 34.65C50.4 35.41 50.4 35.66 50.86 36.76C51.32 37.85 51.54 38.61 51.54 39.37C51.54 40.13 51.24 40.3 51.87 41.11C52.51 41.91 52.97 42.88 53.35 43.64C53.73 44.4 54.07 45.16 54.19 45.62C54.32 46.08 54.11 46.42 53.94 46.63C53.77 46.84 53.06 47.18 52.68 47.22C52.3 47.27 51.58 47.1 51.45 47.43C51.33 47.77 51.54 48.11 51.37 48.74C51.2 49.38 50.86 49.55 50.86 49.55C50.86 49.55 51.24 49.71 51.33 50.09C51.41 50.47 51.37 50.77 51.2 50.9C51.03 51.02 50.82 51.32 50.82 51.49C50.82 51.66 50.74 51.7 50.9 51.99C51.07 52.29 51.83 53.68 51.37 54.78C50.9 55.88 49.81 56.09 48.88 56.21C47.95 56.34 46.3 56.85 45.37 57.18C44.45 57.52 44.02 57.69 43.69 58.37C43.35 59.04 42.63 59.97 42.38 60.14C42.12 60.31 41.7 60.64 41.91 60.9C42.13 61.15 43.18 62.29 43.43 62.63C43.69 62.97 44.53 63.81 44.53 64.02C44.53 64.23 44.02 64.61 44.07 64.99C44.11 65.37 44.53 65.25 43.56 67.74C42.59 70.23 42.17 71.11 42.46 71.7C42.76 72.29 45.28 78.27 46.11 80.78C46.95 83.29 41.34 84.84 39.19 83.4C37.04 81.97 28.68 66.33 23.67 65.14C18.66 63.95 19.13 62.63 19.73 61.68C20.33 60.72 21.64 59.05 22.71 58.58C23.79 58.1 24.98 58.22 24.86 57.62C24.74 57.02 25.82 56.31 26.06 55.71C26.3 55.11 26.29 53.92 27.37 53.8C28.44 53.68 28.68 52.73 28.56 52.13C28.45 51.53 27.25 47.47 25.7 43.41C24.15 39.36 24.74 35.3 27.61 30.88C28.24 29.91 29 29.14 29.84 28.52C29.43 28.5 29.1 28.17 29.1 27.75L29.1 26.25C29.1 25.82 29.45 25.47 29.87 25.47L30.26 25.47C27.57 23.93 25.02 22.51 25.95 19.37C26.28 18.27 27.45 17.85 28.94 17.84L28.94 17.84ZM30.58 18.84C30.04 18.85 29.5 18.93 29.01 19.08C26.2 19.95 29.26 23.69 30.93 25.47L33.32 25.47C31.64 23.94 29.86 22.27 30.35 19.37C30.39 19.17 30.47 18.99 30.58 18.84L30.58 18.84ZM35.64 19.34C35.65 19.29 35.65 19.24 35.66 19.18C35.19 19 34.71 18.86 34.24 18.84C34.74 19 35.21 19.17 35.64 19.34ZM43.02 18.84C43.02 18.84 43.02 18.84 43.02 18.84C43.02 18.84 43.02 18.84 43.02 18.84L43.02 18.84ZM43.02 18.84C42.55 18.86 42.07 18.99 41.61 19.18C41.61 19.23 41.62 19.29 41.62 19.34C42.06 19.17 42.53 19 43.02 18.84ZM46.69 18.84C46.8 18.99 46.87 19.17 46.91 19.37C47.41 22.27 45.62 23.94 43.94 25.47L46.33 25.47C48 23.69 51.07 19.95 48.26 19.08C47.76 18.93 47.23 18.85 46.69 18.84L46.69 18.84ZM44.2 19.09C43.29 19.28 42.41 19.55 41.64 19.82C41.73 22.33 41.18 24.01 40.64 25.47L43.25 25.47C44.23 23.48 45.72 19.92 44.2 19.09ZM34.01 25.47L36.63 25.47C36.08 24.01 35.53 22.33 35.62 19.81C34.85 19.55 33.97 19.28 33.06 19.09C31.55 19.92 33.03 23.49 34.01 25.47ZM40.32 19.85C40.14 19.96 39.97 20.06 39.82 20.17C39.98 20.07 40.17 19.98 40.38 19.88L40.32 19.85ZM37.18 20.03L37.44 20.16L37.2 20.01L37.18 20.03ZM40.67 20.17C40.67 20.17 40.67 20.17 40.67 20.17C40.67 20.17 40.67 20.17 40.67 20.17L40.67 20.17ZM40.67 20.17C40.06 20.41 39.58 20.6 39.33 20.69C39.15 20.87 38.91 20.99 38.63 20.99C38.35 20.99 38.11 20.87 37.93 20.68C37.73 20.62 37.39 20.48 36.95 20.31C36.51 21.16 36.76 23.75 36.98 25.47L40.39 25.47C40.73 23.69 41.14 20.98 40.67 20.17Z" />
		<path id="Layer" class="shp9" d="M61.3 9.27L61.6 9.28C61.95 9.31 62.09 9.4 62.09 9.63C62.09 9.89 61.83 10.23 61.19 10.83L59.13 12.69L59.13 10.32C59.13 9.47 59.26 9.34 60.2 9.27L60.2 9.05L56.91 9.05L56.91 9.27C57.81 9.34 57.95 9.49 57.95 10.32L57.95 15.34C57.95 16.3 57.82 16.45 56.91 16.51L56.91 16.73L60.18 16.73L60.18 16.51C59.27 16.45 59.13 16.31 59.13 15.47L59.13 13.3L59.43 13.05L60.66 14.27C61.55 15.14 62.17 15.97 62.17 16.25C62.17 16.41 62.01 16.49 61.69 16.5C61.63 16.5 61.5 16.5 61.36 16.51L61.36 16.73L64.9 16.73L64.9 16.51C64.3 16.5 64.13 16.38 63.08 15.26L60.37 12.36L62.58 10.18C63.37 9.42 63.55 9.33 64.34 9.27L64.34 9.05L61.3 9.05L61.3 9.27" />
		<path id="Layer" class="shp10" d="M11.01 15.83C10.26 13.94 10.79 11.55 12.32 10.75C13.85 9.95 15.74 10.82 16.55 12.68C16.78 13.22 16.91 13.8 16.96 14.38C17 13.8 17.13 13.22 17.37 12.68C18.17 10.82 20.07 9.95 21.6 10.75C23.13 11.55 23.55 13.91 22.9 15.83C21.79 19.14 18.44 21.07 16.96 24.9C15.73 21.09 12.31 19.09 11.01 15.83L11.01 15.83Z" />
	</g>
</svg>