<svg xmlns="http://www.w3.org/2000/svg" viewBox="0 0 73 102" width="73" height="102">
	<defs>
		<filter x="-50%" y="-50%" width="200%" height="200%" id="flt1"> <feGaussianBlur stdDeviation="0.85" /> </filter>
		<linearGradient id="grd1" gradientUnits="userSpaceOnUse"  x1="41.546" y1="26.474" x2="43.691" y2="-89.909">
			<stop offset="0" stop-color="#f3f3f3"  />
			<stop offset="1" stop-color="#8f8f8f"  />
		</linearGradient>
		<radialGradient id="grd2" gradientUnits="userSpaceOnUse"  cx="10.699" cy="91.605" r="13.273">
			<stop offset="0" stop-color="#ffffff"  />
			<stop offset="1" stop-color="#ffffff" stop-opacity="0" />
		</radialGradient>
		<radialGradient id="grd3" gradientUnits="userSpaceOnUse"  cx="62.618" cy="12.548" r="14.639">
			<stop offset="0" stop-color="#ffffff"  />
			<stop offset="1" stop-color="#ffffff" stop-opacity="0" />
		</radialGradient>
		<linearGradient id="grd4" gradientUnits="userSpaceOnUse"  x1="-58.257" y1="89.377" x2="-58.257" y2="85.691">
			<stop offset="0" stop-color="#d90000"  />
			<stop offset="1" stop-color="#950000"  />
		</linearGradient>
		<linearGradient id="grd5" gradientUnits="userSpaceOnUse"  x1="-708.777" y1="11.941" x2="-708.777" y2="7.283">
			<stop offset="0" stop-color="#d90000"  />
			<stop offset="1" stop-color="#950000"  />
		</linearGradient>
		<radialGradient id="grd6" gradientUnits="userSpaceOnUse"  cx="18.278" cy="73.919" r="25.374">
			<stop offset="0" stop-color="#ffffff"  />
			<stop offset="1" stop-color="#ffffff" stop-opacity="0" />
		</radialGradient>
		<radialGradient id="grd7" gradientUnits="userSpaceOnUse"  cx="20.762" cy="61.337" r="9.813">
			<stop offset="0" stop-color="#ffffff"  />
			<stop offset="1" stop-color="#ffffff" stop-opacity="0" />
		</radialGradient>
		<linearGradient id="grd8" gradientUnits="userSpaceOnUse"  x1="-708.778" y1="63.72" x2="-708.778" y2="56.06">
			<stop offset="0" stop-color="#d90000"  />
			<stop offset="1" stop-color="#950000"  />
		</linearGradient>
		<radialGradient id="grd9" gradientUnits="userSpaceOnUse"  cx="20.762" cy="20.522" r="9.813">
			<stop offset="0" stop-color="#ffffff"  />
			<stop offset="1" stop-color="#ffffff" stop-opacity="0" />
		</radialGradient>
		<linearGradient id="grd10" gradientUnits="userSpaceOnUse"  x1="-708.778" y1="22.9" x2="-708.778" y2="15.248">
			<stop offset="0" stop-color="#d90000"  />
			<stop offset="1" stop-color="#950000"  />
		</linearGradient>
		<radialGradient id="grd11" gradientUnits="userSpaceOnUse"  cx="20.762" cy="40.807" r="9.813">
			<stop offset="0" stop-color="#ffffff"  />
			<stop offset="1" stop-color="#ffffff" stop-opacity="0" />
		</radialGradient>
		<linearGradient id="grd12" gradientUnits="userSpaceOnUse"  x1="-708.778" y1="43.19" x2="-708.778" y2="35.53">
			<stop offset="0" stop-color="#d90000"  />
			<stop offset="1" stop-color="#950000"  />
		</linearGradient>
		<radialGradient id="grd13" gradientUnits="userSpaceOnUse"  cx="36.902" cy="31.867" r="9.813">
			<stop offset="0" stop-color="#ffffff"  />
			<stop offset="1" stop-color="#ffffff" stop-opacity="0" />
		</radialGradient>
		<linearGradient id="grd14" gradientUnits="userSpaceOnUse"  x1="-708.777" y1="34.25" x2="-708.777" y2="26.593">
			<stop offset="0" stop-color="#d90000"  />
			<stop offset="1" stop-color="#950000"  />
		</linearGradient>
		<radialGradient id="grd15" gradientUnits="userSpaceOnUse"  cx="52.932" cy="40.807" r="9.813">
			<stop offset="0" stop-color="#ffffff"  />
			<stop offset="1" stop-color="#ffffff" stop-opacity="0" />
		</radialGradient>
		<linearGradient id="grd16" gradientUnits="userSpaceOnUse"  x1="-708.778" y1="43.19" x2="-708.778" y2="35.53">
			<stop offset="0" stop-color="#d90000"  />
			<stop offset="1" stop-color="#950000"  />
		</linearGradient>
		<radialGradient id="grd17" gradientUnits="userSpaceOnUse"  cx="52.932" cy="20.522" r="9.813">
			<stop offset="0" stop-color="#ffffff"  />
			<stop offset="1" stop-color="#ffffff" stop-opacity="0" />
		</radialGradient>
		<linearGradient id="grd18" gradientUnits="userSpaceOnUse"  x1="-708.778" y1="22.9" x2="-708.778" y2="15.248">
			<stop offset="0" stop-color="#d90000"  />
			<stop offset="1" stop-color="#950000"  />
		</linearGradient>
		<radialGradient id="grd19" gradientUnits="userSpaceOnUse"  cx="52.932" cy="61.337" r="9.813">
			<stop offset="0" stop-color="#ffffff"  />
			<stop offset="1" stop-color="#ffffff" stop-opacity="0" />
		</radialGradient>
		<linearGradient id="grd20" gradientUnits="userSpaceOnUse"  x1="-708.778" y1="63.72" x2="-708.778" y2="56.06">
			<stop offset="0" stop-color="#d90000"  />
			<stop offset="1" stop-color="#950000"  />
		</linearGradient>
		<radialGradient id="grd21" gradientUnits="userSpaceOnUse"  cx="20.762" cy="81.285" r="9.813">
			<stop offset="0" stop-color="#ffffff"  />
			<stop offset="1" stop-color="#ffffff" stop-opacity="0" />
		</radialGradient>
		<linearGradient id="grd22" gradientUnits="userSpaceOnUse"  x1="-708.778" y1="83.66" x2="-708.778" y2="76.01">
			<stop offset="0" stop-color="#d90000"  />
			<stop offset="1" stop-color="#950000"  />
		</linearGradient>
		<radialGradient id="grd23" gradientUnits="userSpaceOnUse"  cx="36.902" cy="70.694" r="9.813">
			<stop offset="0" stop-color="#ffffff"  />
			<stop offset="1" stop-color="#ffffff" stop-opacity="0" />
		</radialGradient>
		<linearGradient id="grd24" gradientUnits="userSpaceOnUse"  x1="-708.777" y1="73.07" x2="-708.777" y2="65.42">
			<stop offset="0" stop-color="#d90000"  />
			<stop offset="1" stop-color="#950000"  />
		</linearGradient>
		<radialGradient id="grd25" gradientUnits="userSpaceOnUse"  cx="52.932" cy="81.285" r="9.813">
			<stop offset="0" stop-color="#ffffff"  />
			<stop offset="1" stop-color="#ffffff" stop-opacity="0" />
		</radialGradient>
		<linearGradient id="grd26" gradientUnits="userSpaceOnUse"  x1="-708.778" y1="83.66" x2="-708.778" y2="76.01">
			<stop offset="0" stop-color="#d90000"  />
			<stop offset="1" stop-color="#950000"  />
		</linearGradient>
	</defs>
	<style>
		tspan { white-space:pre }
		.shp0 { filter: url(#flt1);fill: #000000 } 
		.shp1 { fill: url(#grd1);stroke: #000000;stroke-width: 0.226 } 
		.shp2 { opacity: 0.467;fill: url(#grd2) } 
		.shp3 { opacity: 0.396;fill: url(#grd3) } 
		.shp4 { fill: none;stroke: #000000;stroke-width: 0.226 } 
		.shp5 { fill: url(#grd4);stroke: #a40000;stroke-linejoin:round;stroke-width: 0.165 } 
		.shp6 { fill: url(#grd5) } 
		.shp7 { fill: url(#grd6) } 
		.shp8 { opacity: 0.4;fill: url(#grd7) } 
		.shp9 { fill: url(#grd8);stroke: #a50000;stroke-linejoin:round;stroke-width: 0.343 } 
		.shp10 { opacity: 0.4;fill: url(#grd9) } 
		.shp11 { fill: url(#grd10);stroke: #a50000;stroke-linejoin:round;stroke-width: 0.343 } 
		.shp12 { opacity: 0.4;fill: url(#grd11) } 
		.shp13 { fill: url(#grd12);stroke: #a50000;stroke-linejoin:round;stroke-width: 0.343 } 
		.shp14 { opacity: 0.4;fill: url(#grd13) } 
		.shp15 { fill: url(#grd14);stroke: #a50000;stroke-linejoin:round;stroke-width: 0.343 } 
		.shp16 { opacity: 0.4;fill: url(#grd15) } 
		.shp17 { fill: url(#grd16);stroke: #a50000;stroke-linejoin:round;stroke-width: 0.343 } 
		.shp18 { opacity: 0.4;fill: url(#grd17) } 
		.shp19 { fill: url(#grd18);stroke: #a50000;stroke-linejoin:round;stroke-width: 0.343 } 
		.shp20 { opacity: 0.4;fill: url(#grd19) } 
		.shp21 { fill: url(#grd20);stroke: #a50000;stroke-linejoin:round;stroke-width: 0.343 } 
		.shp22 { opacity: 0.4;fill: url(#grd21) } 
		.shp23 { fill: url(#grd22);stroke: #a50000;stroke-linejoin:round;stroke-width: 0.343 } 
		.shp24 { opacity: 0.4;fill: url(#grd23) } 
		.shp25 { fill: url(#grd24);stroke: #a50000;stroke-linejoin:round;stroke-width: 0.343 } 
		.shp26 { opacity: 0.4;fill: url(#grd25) } 
		.shp27 { fill: url(#grd26);stroke: #a50000;stroke-linejoin:round;stroke-width: 0.343 } 
	</style>
	<g id="-e-Heart10">
		<g id="Layer">
			<path id="Layer" fill-rule="evenodd" class="shp0" d="M5.02 1.65L68.28 1.65C68.73 1.65 69.18 1.74 69.6 1.92C70.01 2.09 70.39 2.34 70.71 2.66C71.04 2.98 71.29 3.36 71.46 3.78C71.64 4.2 71.73 4.65 71.73 5.1L71.73 97.39C71.73 97.84 71.64 98.29 71.46 98.71C71.29 99.13 71.04 99.51 70.71 99.83C70.39 100.15 70.01 100.4 69.6 100.58C69.18 100.75 68.73 100.84 68.28 100.84L5.02 100.84C4.57 100.84 4.12 100.75 3.7 100.58C3.28 100.4 2.9 100.15 2.58 99.83C2.26 99.51 2.01 99.13 1.84 98.71C1.66 98.29 1.57 97.84 1.57 97.39L1.57 5.1C1.57 4.65 1.66 4.2 1.84 3.78C2.01 3.36 2.26 2.98 2.58 2.66C2.9 2.34 3.28 2.09 3.7 1.92C4.12 1.74 4.57 1.65 5.02 1.65" />
			<path id="Layer" fill-rule="evenodd" class="shp1" d="M5.95 1.08L68.16 1.08C68.68 1.08 69.2 1.18 69.68 1.38C70.16 1.58 70.6 1.87 70.97 2.24C71.34 2.61 71.63 3.04 71.83 3.53C72.03 4.01 72.13 4.52 72.13 5.04L72.13 96.3C72.13 96.82 72.03 97.33 71.83 97.81C71.63 98.3 71.34 98.73 70.97 99.1C70.6 99.47 70.16 99.76 69.68 99.96C69.2 100.16 68.68 100.26 68.16 100.26L5.95 100.26C5.42 100.26 4.91 100.16 4.43 99.96C3.95 99.76 3.51 99.47 3.14 99.1C2.77 98.73 2.48 98.3 2.28 97.81C2.08 97.33 1.98 96.82 1.98 96.3L1.98 5.04C1.98 4.52 2.08 4.01 2.28 3.53C2.48 3.04 2.77 2.61 3.14 2.24C3.51 1.87 3.95 1.58 4.43 1.38C4.91 1.18 5.42 1.08 5.95 1.08" />
			<path id="Layer" class="shp2" d="M31.04 96.67L6.57 96.67C6.44 96.67 6.3 96.64 6.18 96.59C6.05 96.54 5.94 96.46 5.84 96.37C5.74 96.27 5.67 96.16 5.61 96.03C5.56 95.9 5.53 95.77 5.53 95.63L5.53 73.43C5.53 73.29 5.56 73.16 5.61 73.03C5.67 72.91 5.74 72.79 5.84 72.69C5.94 72.6 6.05 72.52 6.18 72.47C6.3 72.42 6.44 72.39 6.57 72.39L31.04 72.39C31.18 72.39 31.32 72.42 31.44 72.47C31.57 72.52 31.68 72.6 31.78 72.69C31.87 72.79 31.95 72.91 32 73.03C32.05 73.16 32.08 73.29 32.08 73.43L32.08 95.63C32.08 95.77 32.05 95.9 32 96.03C31.95 96.16 31.87 96.27 31.78 96.37C31.68 96.46 31.57 96.54 31.44 96.59C31.32 96.64 31.18 96.67 31.04 96.67" />
			<path id="Layer" class="shp3" d="M39.49 4.41L68.77 4.41L68.77 49.68L39.49 49.68L39.49 4.41Z" />
			<path id="Layer" class="shp4" d="M20.4 92.77L65.12 92.77L65.12 19.17" />
			<path id="Layer" class="shp4" d="M53.55 8.56L8.99 8.56L8.99 81.75" />
		</g>
		<g id="Layer">
			<path id="Layer" class="shp5" d="M9.24 87.34C8.88 86.43 9.13 85.28 9.87 84.9C10.61 84.51 11.52 84.93 11.91 85.83C12.02 86.08 12.08 86.36 12.1 86.65C12.13 86.36 12.19 86.08 12.3 85.83C12.69 84.93 13.6 84.51 14.34 84.9C15.08 85.28 15.28 86.42 14.97 87.34C14.43 88.94 12.82 89.87 12.1 91.71C11.51 89.87 9.87 88.91 9.24 87.34L9.24 87.34Z" />
		</g>
		<path id="Layer" fill-rule="evenodd" class="shp6" d="M59.66 5.53L59.75 5.55L59.75 12.2C59.75 12.74 59.93 12.85 60.81 12.86L60.81 13.02L57.75 13.02L57.75 12.86C58.21 12.85 58.37 12.81 58.53 12.71C58.71 12.61 58.8 12.36 58.8 11.99L58.8 6.97C58.8 6.61 58.7 6.45 58.47 6.45C58.36 6.45 58.17 6.49 57.97 6.57C57.92 6.59 57.8 6.64 57.67 6.69L57.67 6.54L59.66 5.53M64.8 5.53C66.25 5.53 67.26 7.09 67.26 9.36C67.26 10.71 66.84 11.99 66.2 12.6C65.8 12.99 65.32 13.18 64.75 13.18C64.11 13.18 63.55 12.91 63.14 12.43C62.61 11.8 62.25 10.51 62.25 9.3C62.25 8 62.67 6.73 63.31 6.1C63.72 5.72 64.19 5.53 64.8 5.53L64.8 5.53ZM64.77 5.82C63.81 5.82 63.31 7.05 63.31 9.4C63.31 11.7 63.8 12.89 64.75 12.89C65.71 12.89 66.2 11.7 66.2 9.39C66.2 7.07 65.7 5.82 64.77 5.82Z" />
		<path id="Layer" fill-rule="evenodd" class="shp7" d="M18.18 89.53C18.18 89.53 18.18 89.53 18.18 89.53C18.18 89.53 18.18 89.53 18.18 89.53L18.18 89.53ZM18.18 89.53C15.87 83.76 14.31 83.93 12.32 83.35L15.28 83.35C15.3 83.25 15.32 83.16 15.34 83.06C15.4 82.81 15.47 82.56 15.55 82.32C15.55 81.99 15.54 81.65 15.55 81.33C15.56 80.61 15.66 79.9 15.75 79.19C15.77 79.01 15.79 78.83 15.82 78.65C15.72 78.57 15.75 78.03 16.01 76.96C16.06 76.75 16.1 76.53 16.14 76.31C16.23 75.81 16.34 75.32 16.44 74.82C16.57 74.23 16.76 73.66 16.95 73.08C17.18 72.4 17.47 71.73 17.76 71.07C18.11 70.25 18.47 69.44 18.83 68.63C19.31 67.53 19.86 66.47 20.4 65.4C21.09 64.09 21.7 62.74 22.28 61.38C22.98 59.73 23.67 58.07 24.36 56.41C25.11 54.64 25.82 52.86 26.49 51.06C26.53 50.94 26.58 50.83 26.62 50.71C26.6 50.68 26.6 50.63 26.6 50.59C26.6 50.47 26.66 50.36 26.76 50.3C27.36 48.62 27.9 46.93 28.42 45.23C29.07 43.08 29.63 40.9 30.07 38.7C30.52 36.14 30.62 33.55 30.6 30.96C30.53 28.85 30.32 26.74 30.07 24.64C29.96 24.74 29.83 24.79 29.68 24.79C29.35 24.79 29.07 24.53 29.07 24.19C29.07 23.86 29.35 23.58 29.68 23.58C29.78 23.58 29.87 23.61 29.95 23.65L29.88 23.09C29.79 22.35 29.69 21.61 29.58 20.87C29.52 20.97 29.41 21.05 29.28 21.05C29.1 21.05 28.95 20.9 28.95 20.71C28.95 20.53 29.1 20.38 29.28 20.38C29.37 20.38 29.46 20.41 29.52 20.47C29.41 19.77 29.31 19.07 29.2 18.38C29.03 17.31 29.06 16.66 29.18 16.5C29.08 16.39 29.01 16.24 29.01 16.08C29.01 15.75 29.28 15.48 29.62 15.48C29.95 15.48 30.22 15.75 30.22 16.08C30.22 16.42 29.95 16.69 29.62 16.69C29.55 16.69 29.49 16.68 29.42 16.66C29.54 16.89 29.67 17.35 29.78 18.05C30.02 19.61 30.26 21.18 30.46 22.76C30.78 25.37 31.08 27.99 31.16 30.63C31.19 33.21 31.09 35.81 30.65 38.37C30.21 40.57 29.65 42.74 29 44.89C28.44 46.73 27.85 48.58 27.2 50.39C27.24 50.45 27.26 50.52 27.26 50.59C27.26 50.75 27.15 50.88 27.01 50.92C26.35 52.65 25.67 54.37 24.94 56.07C24.25 57.73 23.57 59.39 22.88 61.04C22.3 62.4 21.69 63.74 21 65.05C20.47 66.12 19.92 67.19 19.43 68.28C19.08 69.09 18.72 69.9 18.37 70.71C18.08 71.38 17.8 72.04 17.56 72.73C17.38 73.3 17.18 73.88 17.06 74.47C17.04 74.54 17.03 74.61 17.02 74.68C17.2 74.25 17.4 73.83 17.6 73.41C17.75 73.1 17.92 72.8 18.08 72.49C18.09 72.49 18.09 72.48 18.09 72.47C18.17 72.23 18.3 72 18.41 71.77C18.58 71.42 18.79 71.09 18.99 70.76C19.18 70.44 19.39 70.14 19.6 69.84C20.18 68.84 20.84 67.89 21.51 66.96C22.04 66.23 22.65 65.58 23.27 64.94C23.29 64.8 23.41 64.68 23.55 64.66L24.07 64.15C25.07 63.2 26.11 62.29 27.11 61.35C28.3 60.23 29.45 59.09 30.59 57.93C31.9 56.62 33.1 55.22 34.21 53.74C35.46 52.03 36.5 50.18 37.51 48.33C37.84 47.73 38.15 47.12 38.45 46.5L38.33 46.51C37.99 46.51 37.72 46.24 37.72 45.9C37.72 45.57 37.99 45.3 38.33 45.3C38.55 45.3 38.74 45.42 38.85 45.61C39.34 44.5 39.77 43.37 40.16 42.21L40.23 41.98C40.19 41.71 40.17 41.31 40.18 40.76C40.21 39.83 40.23 38.89 40.21 37.95C40.15 36.27 40.04 34.58 39.82 32.91C39.63 31.77 39.46 30.63 39.12 29.52C38.96 28.96 38.81 28.38 38.55 27.85C38.46 27.71 38.42 27.54 38.28 27.42C36.36 25.73 37 25.35 38.91 27.06C39.04 27.17 39.09 27.36 39.17 27.5C39.42 28.03 39.57 28.6 39.74 29.16C40.07 30.28 40.24 31.42 40.42 32.56C40.64 34.24 40.74 35.92 40.79 37.6C40.81 38.31 40.8 39.03 40.79 39.74C41.11 38.25 41.34 36.74 41.53 35.23C41.58 34.56 41.61 33.89 41.63 33.22C41.56 33.25 41.49 33.26 41.42 33.26C41.08 33.26 40.81 32.99 40.81 32.65C40.81 32.32 41.08 32.05 41.42 32.05C41.5 32.05 41.58 32.07 41.65 32.1C41.65 31.07 41.63 30.03 41.6 28.99C41.35 28.92 41.17 28.7 41.17 28.43C41.17 28.17 41.34 27.95 41.56 27.86C41.56 27.75 41.55 27.64 41.55 27.54C41.53 27.12 41.52 26.7 41.51 26.28C41.42 23.94 41.99 23.61 42.08 25.95C42.09 26.37 42.11 26.79 42.12 27.2C42.13 27.45 42.14 27.7 42.14 27.95C42.29 28.06 42.38 28.23 42.38 28.43C42.38 28.61 42.3 28.77 42.18 28.88C42.24 30.89 42.26 32.89 42.1 34.9C41.81 37.25 41.43 39.61 40.74 41.88C40.03 43.99 39.17 46.05 38.09 48C37.08 49.85 36.04 51.69 34.8 53.4C33.69 54.88 32.49 56.28 31.18 57.59C30.04 58.75 28.89 59.89 27.71 61C26.7 61.94 25.67 62.86 24.67 63.8C24.36 64.1 24.06 64.4 23.76 64.7C23.84 64.75 23.89 64.82 23.92 64.91C24.68 64.14 25.48 63.4 26.29 62.67L29.09 60.19C30.08 59.3 31.08 58.43 32.08 57.55C33.2 56.57 34.29 55.56 35.37 54.54C36.59 53.38 37.78 52.19 38.95 50.99C40.21 49.74 41.38 48.41 42.53 47.06C43.41 46.02 44.24 44.94 45.06 43.85C45.05 43.81 45.04 43.77 45.04 43.73C45.04 43.41 45.28 43.16 45.59 43.13L46.19 42.29C47.28 40.81 48.26 39.25 49.18 37.66C49.14 37.67 49.1 37.68 49.06 37.68C48.88 37.68 48.73 37.53 48.73 37.35C48.73 37.17 48.88 37.01 49.06 37.01C49.23 37.01 49.36 37.13 49.39 37.28C49.48 37.13 49.57 36.98 49.65 36.83C50.73 34.83 51.76 32.78 52.44 30.6C52.96 28.7 53.26 26.75 53.57 24.81C53.94 22.47 54.52 22.13 54.15 24.47C53.84 26.41 53.54 28.36 53.02 30.27C52.34 32.44 51.32 34.49 50.24 36.5C49.18 38.38 48.05 40.21 46.78 41.95C46.49 42.36 46.19 42.77 45.89 43.18C46.1 43.27 46.25 43.48 46.25 43.73C46.25 44.06 45.98 44.33 45.65 44.33C45.46 44.33 45.29 44.25 45.18 44.12C44.51 45 43.83 45.87 43.12 46.72C41.97 48.08 40.79 49.4 39.54 50.66C38.97 51.24 38.4 51.81 37.82 52.38C38 52.22 38.3 51.94 38.76 51.55C39.86 50.61 40.98 49.69 42.13 48.81C43.21 47.99 44.32 47.21 45.54 46.6C45.64 46.41 45.84 46.27 46.07 46.27C46.13 46.27 46.18 46.27 46.23 46.29C46.41 46.21 46.6 46.17 46.8 46.15C49.22 45.99 48.76 46.32 46.53 46.48C46.62 46.59 46.68 46.72 46.68 46.87C46.68 47.21 46.41 47.48 46.07 47.48C45.74 47.48 45.47 47.21 45.47 46.87C45.47 46.81 45.48 46.75 45.5 46.7L45 46.92C44.59 47.07 43.55 47.85 42.73 48.47C41.57 49.35 40.45 50.27 39.34 51.21C38.2 52.19 37.55 52.69 37.66 52.54C37.1 53.1 36.54 53.65 35.96 54.19C34.89 55.22 33.8 56.23 32.68 57.2C31.68 58.08 30.68 58.95 29.69 59.84C28.76 60.67 27.83 61.5 26.89 62.33C26.03 63.11 25.17 63.89 24.35 64.73C23.63 65.47 22.91 66.2 22.23 66.99C21.71 67.6 21.19 68.22 20.69 68.85L20.18 69.55C20.15 69.6 20.12 69.65 20.09 69.7C19.64 70.47 19.19 71.24 18.76 72.02L18.72 72.11C18.67 72.24 18.63 72.37 18.58 72.49C18.22 73.26 17.92 73.8 17.71 74.11C17.39 74.83 17.09 75.55 16.88 76.31C16.66 77.14 16.45 77.98 16.36 78.84C16.28 79.44 16.2 80.05 16.17 80.66L16.32 80.36C16.64 79.75 17.02 79.17 17.41 78.6C17.72 78.12 18.06 77.67 18.42 77.24C18.35 77.14 18.3 77.01 18.3 76.88C18.3 76.54 18.58 76.27 18.91 76.27C19.02 76.27 19.13 76.3 19.22 76.36C19.8 75.75 20.42 75.2 21.04 74.64C21.85 73.89 22.7 73.21 23.57 72.53C24.6 71.73 25.7 71.02 26.79 70.3C28.05 69.49 29.32 68.71 30.6 67.95L30.9 67.78C30.65 67.71 30.46 67.48 30.46 67.2C30.46 66.87 30.74 66.59 31.07 66.59C31.41 66.59 31.67 66.87 31.67 67.2C31.67 67.53 31.41 67.8 31.07 67.8C31.02 67.8 30.97 67.8 30.92 67.79C29.87 68.42 28.82 69.06 27.79 69.73C26.7 70.44 25.61 71.15 24.58 71.95C23.72 72.62 22.86 73.31 22.05 74.05C21.32 74.71 20.58 75.36 19.91 76.09L19.46 76.63C19.5 76.71 19.52 76.79 19.52 76.88C19.52 77.21 19.24 77.48 18.91 77.48C18.87 77.48 18.84 77.48 18.8 77.47C18.68 77.65 18.55 77.83 18.43 78.01C18.05 78.58 17.66 79.15 17.34 79.76C17.12 80.24 16.88 80.7 16.74 81.21C16.67 81.43 16.6 81.66 16.53 81.89C16.62 81.95 16.67 82.05 16.67 82.17C16.67 82.34 16.54 82.49 16.37 82.5C16.32 82.8 16.23 83.1 16.24 83.4C16.25 83.58 16.25 83.75 16.28 83.93C16.3 84.03 16.3 84.13 16.34 84.23C16.61 85.44 18.71 88.63 18.18 89.53ZM18.43 84.53C18.43 84.34 18.58 84.2 18.76 84.2C18.95 84.2 19.09 84.34 19.09 84.53C19.09 84.71 18.95 84.86 18.76 84.86C18.58 84.86 18.43 84.71 18.43 84.53ZM13.53 82.56C13.53 82.23 13.8 81.95 14.13 81.95C14.47 81.95 14.74 82.23 14.74 82.56C14.74 82.9 14.47 83.17 14.13 83.17C13.8 83.17 13.53 82.9 13.53 82.56ZM16.8 81.83C16.8 81.5 17.06 81.23 17.4 81.23C17.73 81.23 18.01 81.5 18.01 81.83C18.01 82.17 17.73 82.44 17.4 82.44C17.06 82.44 16.8 82.17 16.8 81.83ZM12.8 80.41C12.8 80.23 12.95 80.08 13.13 80.08C13.32 80.08 13.47 80.23 13.47 80.41C13.47 80.6 13.32 80.75 13.13 80.75C12.95 80.75 12.8 80.6 12.8 80.41ZM14.32 79.87C14.32 79.69 14.46 79.54 14.65 79.54C14.83 79.54 14.98 79.69 14.98 79.87C14.98 80.05 14.83 80.2 14.65 80.2C14.46 80.2 14.32 80.05 14.32 79.87ZM19.76 78.87C19.76 78.54 20.03 78.27 20.36 78.27C20.69 78.27 20.97 78.54 20.97 78.87C20.97 79.21 20.69 79.48 20.36 79.48C20.03 79.48 19.76 79.21 19.76 78.87ZM21.45 78.12C21.45 77.93 21.6 77.78 21.78 77.78C21.96 77.78 22.11 77.93 22.11 78.12C22.11 78.3 21.97 78.45 21.78 78.45C21.6 78.45 21.45 78.3 21.45 78.12ZM12.86 77.18C12.86 76.85 13.13 76.57 13.47 76.57C13.8 76.57 14.07 76.85 14.07 77.18C14.07 77.52 13.8 77.78 13.47 77.78C13.13 77.78 12.86 77.52 12.86 77.18ZM14.25 75.42C14.25 75.09 14.53 74.82 14.86 74.82C15.19 74.82 15.46 75.09 15.46 75.42C15.46 75.76 15.19 76.03 14.86 76.03C14.53 76.03 14.25 75.76 14.25 75.42ZM22.36 75.46C22.36 75.27 22.51 75.13 22.69 75.13C22.88 75.13 23.03 75.27 23.03 75.46C23.03 75.64 22.88 75.79 22.69 75.79C22.51 75.79 22.36 75.64 22.36 75.46ZM26.47 74.64C26.47 74.3 26.74 74.04 27.08 74.04C27.41 74.04 27.68 74.3 27.68 74.64C27.68 74.97 27.41 75.25 27.08 75.25C26.74 75.25 26.47 74.97 26.47 74.64ZM20 73.92C20 73.58 20.27 73.31 20.61 73.31C20.94 73.31 21.21 73.58 21.21 73.92C21.21 74.25 20.94 74.52 20.61 74.52C20.27 74.52 20 74.25 20 73.92ZM22.98 74.37C22.95 74.36 23.33 74.07 24.19 73.44C24.67 73.09 25.13 72.72 25.63 72.41C26.75 71.74 27.87 71.08 29.06 70.54C29.9 70.16 30.76 69.78 31.62 69.45C32.23 69.2 32.83 68.96 33.44 68.73L34.22 68.43C36.61 67.52 35.99 67.88 33.6 68.79L32.82 69.08C32.22 69.31 31.61 69.56 31.01 69.8C30.47 70.01 29.94 70.24 29.41 70.47C29.73 70.49 29.98 70.75 29.98 71.07C29.98 71.4 29.71 71.68 29.37 71.68C29.04 71.68 28.77 71.4 28.77 71.07C28.77 70.92 28.83 70.79 28.92 70.69L28.45 70.89C27.78 71.15 26.45 71.94 26.24 72.06C25.74 72.37 25.28 72.74 24.8 73.09C23.69 73.91 23 74.37 22.98 74.37L22.98 74.37ZM13.95 73.12C13.95 72.79 14.22 72.52 14.56 72.52C14.89 72.52 15.16 72.79 15.16 73.12C15.16 73.46 14.89 73.73 14.56 73.73C14.22 73.73 13.95 73.46 13.95 73.12ZM27.44 72.74C27.44 72.55 27.59 72.4 27.77 72.4C27.95 72.4 28.1 72.55 28.1 72.74C28.1 72.92 27.95 73.07 27.77 73.07C27.59 73.07 27.44 72.92 27.44 72.74ZM16.19 71.61C16.19 71.28 16.46 71.01 16.8 71.01C17.13 71.01 17.4 71.28 17.4 71.61C17.4 71.95 17.13 72.22 16.8 72.22C16.46 72.22 16.19 71.95 16.19 71.61ZM19.46 71.43C19.46 71.1 19.73 70.83 20.06 70.83C20.4 70.83 20.66 71.1 20.66 71.43C20.66 71.77 20.4 72.04 20.06 72.04C19.73 72.04 19.46 71.77 19.46 71.43ZM11.53 71.22C11.53 71.04 11.68 70.89 11.86 70.89C12.05 70.89 12.19 71.04 12.19 71.22C12.19 71.41 12.05 71.55 11.86 71.55C11.68 71.55 11.53 71.41 11.53 71.22ZM32.64 70.07C32.64 69.89 32.79 69.74 32.97 69.74C33.16 69.74 33.31 69.89 33.31 70.07C33.31 70.25 33.16 70.4 32.97 70.4C32.79 70.4 32.64 70.25 32.64 70.07ZM25.14 69.74C25.14 69.4 25.41 69.14 25.75 69.14C26.08 69.14 26.35 69.4 26.35 69.74C26.35 70.07 26.08 70.35 25.75 70.35C25.41 70.35 25.14 70.07 25.14 69.74ZM36.42 69.8C36.24 69.8 36.09 69.65 36.09 69.47C36.09 69.41 36.11 69.34 36.14 69.29C36.09 69.31 36.03 69.31 35.97 69.31C35.64 69.31 35.36 69.05 35.36 68.71C35.36 68.38 35.64 68.1 35.97 68.1C36.3 68.1 36.57 68.38 36.57 68.71C36.57 68.88 36.5 69.03 36.4 69.14L36.42 69.14C36.61 69.14 36.76 69.29 36.76 69.47C36.76 69.65 36.61 69.8 36.42 69.8L36.42 69.8ZM37.9 67.8C37.9 67.47 38.18 67.2 38.51 67.2C38.84 67.2 39.12 67.47 39.12 67.8C39.12 68.13 38.84 68.41 38.51 68.41C38.18 68.41 37.9 68.13 37.9 67.8ZM17.28 67.8C17.28 67.47 17.55 67.2 17.89 67.2C18.22 67.2 18.49 67.47 18.49 67.8C18.49 68.13 18.22 68.41 17.89 68.41C17.55 68.41 17.28 68.13 17.28 67.8ZM22.06 67.74C22.06 67.41 22.32 67.14 22.66 67.14C22.99 67.14 23.27 67.41 23.27 67.74C23.27 68.08 22.99 68.35 22.66 68.35C22.32 68.35 22.06 68.08 22.06 67.74ZM39.72 67.96C39.72 67.77 39.87 67.62 40.05 67.62C40.23 67.62 40.38 67.77 40.38 67.96C40.38 68.14 40.23 68.29 40.05 68.29C39.87 68.29 39.72 68.14 39.72 67.96ZM26.72 67.53C26.72 67.35 26.87 67.2 27.05 67.2C27.23 67.2 27.38 67.35 27.38 67.53C27.38 67.72 27.23 67.86 27.05 67.86C26.87 67.86 26.72 67.72 26.72 67.53ZM21.51 67.47C21.51 67.47 21.51 67.47 21.51 67.47C21.51 67.47 21.51 67.47 21.51 67.47L21.51 67.47ZM21.51 67.47C21.55 67.43 21.58 67.38 21.62 67.34C22.22 66.64 22.87 65.97 23.52 65.31C23.44 65.29 23.36 65.24 23.32 65.16C22.89 65.62 22.48 66.1 22.11 66.61C21.91 66.9 21.71 67.18 21.51 67.47ZM33.02 66.56C33.02 66.55 33.03 66.55 33.03 66.55C33.03 66.55 33.02 66.55 33.02 66.56L33.02 66.56ZM33.03 66.55C34.01 65.99 34.98 65.44 35.96 64.89C36.09 64.82 36.28 64.71 36.44 64.63C36.2 64.54 36.03 64.32 36.03 64.05C36.03 63.72 36.3 63.45 36.64 63.45C36.97 63.45 37.24 63.72 37.24 64.05C37.24 64.1 37.23 64.14 37.22 64.19L39.29 63.02C38.6 63.42 37.91 63.82 37.22 64.21C37.15 64.47 36.91 64.65 36.64 64.65C36.58 64.65 36.52 64.65 36.47 64.63C35.97 64.91 35.47 65.18 34.97 65.45C34.27 65.84 33.61 66.22 33.03 66.55ZM40.45 66.14C40.45 65.96 40.6 65.81 40.78 65.81C40.96 65.81 41.11 65.96 41.11 66.14C41.11 66.32 40.96 66.47 40.78 66.47C40.6 66.47 40.45 66.32 40.45 66.14ZM17.64 65.57C17.3 65.57 17.04 65.29 17.04 64.96C17.04 64.62 17.3 64.36 17.64 64.36C17.75 64.36 17.85 64.38 17.94 64.44C17.95 64.26 18.09 64.11 18.27 64.11C18.46 64.11 18.61 64.27 18.61 64.45C18.61 64.63 18.46 64.78 18.27 64.78C18.25 64.78 18.23 64.78 18.21 64.77C18.23 64.83 18.25 64.89 18.25 64.96C18.25 65.29 17.97 65.57 17.64 65.57L17.64 65.57ZM15.34 65.17C15.34 64.99 15.49 64.84 15.67 64.84C15.86 64.84 16.01 64.99 16.01 65.17C16.01 65.35 15.86 65.5 15.67 65.5C15.49 65.5 15.34 65.35 15.34 65.17ZM19.27 62.6C19.27 62.27 19.55 62 19.88 62C20.21 62 20.48 62.27 20.48 62.6C20.48 62.94 20.21 63.21 19.88 63.21C19.55 63.21 19.27 62.94 19.27 62.6ZM45.11 62.75C45.11 62.57 45.25 62.42 45.44 62.42C45.62 62.42 45.77 62.57 45.77 62.75C45.77 62.94 45.62 63.08 45.44 63.08C45.25 63.08 45.11 62.94 45.11 62.75ZM39.53 62.88L39.57 62.86C39.56 62.87 39.55 62.87 39.53 62.88L39.53 62.88ZM39.57 62.86C41.04 62 42.44 61.03 43.8 60C44.85 59.19 45.85 58.32 46.81 57.41C46.81 57.4 46.81 57.39 46.82 57.38C46.34 57.79 45.83 58.18 45.34 58.57C43.43 60.1 42.83 60.45 44.74 58.92C45.28 58.48 45.84 58.06 46.36 57.6C47.09 56.97 47.81 56.34 48.53 55.7C49.8 54.35 50.91 52.86 51.96 51.33C53.21 49.55 54.12 47.59 54.88 45.57C55.67 43.36 55.98 41.04 56.16 38.71C56.36 36.63 56.19 34.56 55.92 32.5C55.43 28.65 56.38 28.1 56.88 31.96C57.14 34.02 57.33 36.08 57.12 38.16C56.97 40.18 56.71 42.19 56.13 44.13C56.24 44.03 56.38 43.97 56.54 43.97C56.87 43.97 57.14 44.24 57.14 44.58C57.14 44.91 56.87 45.18 56.54 45.18C56.25 45.18 56 44.97 55.94 44.7C55.91 44.8 55.88 44.9 55.85 45.01C55.09 47.03 54.18 48.99 52.93 50.76C52.23 51.78 51.51 52.77 50.73 53.72C51.29 53.22 51.84 52.71 52.39 52.2L53.07 51.5C53.12 51.36 53.23 51.25 53.36 51.18C53.81 50.69 54.24 50.18 54.6 49.62C55.17 48.78 55.74 47.93 56.28 47.08C56.83 46.23 57.37 45.37 57.89 44.5C58.34 43.76 58.79 43.01 59.19 42.24C59.41 41.77 59.65 41.3 59.8 40.81C59.87 40.62 59.93 40.43 60.02 40.25C60.25 39.79 60.45 39.43 60.62 39.13C60.42 39.03 60.29 38.83 60.29 38.59C60.29 38.26 60.54 38 60.86 37.99C60.77 37.93 60.71 37.83 60.71 37.71C60.71 37.53 60.86 37.38 61.04 37.38C61.23 37.38 61.37 37.53 61.37 37.71C61.37 37.87 61.27 37.99 61.13 38.03C61.34 38.12 61.49 38.34 61.49 38.59C61.49 38.89 61.27 39.14 60.99 39.18C60.89 39.38 60.78 39.61 60.64 39.89C60.55 40.07 60.5 40.26 60.43 40.45C60.27 40.94 60.03 41.41 59.8 41.88L59.56 42.33C59.67 42.22 59.82 42.16 59.98 42.16C60.31 42.16 60.59 42.42 60.59 42.76C60.59 43.09 60.31 43.37 59.98 43.37C59.65 43.37 59.38 43.09 59.38 42.76C59.38 42.72 59.39 42.68 59.39 42.64C59.1 43.15 58.8 43.65 58.5 44.15C57.97 45.02 57.43 45.87 56.89 46.72C56.34 47.58 55.78 48.42 55.21 49.26C54.77 49.94 54.25 50.54 53.7 51.12C54 51.15 54.24 51.41 54.24 51.72C54.24 52.05 53.97 52.32 53.63 52.32C53.33 52.32 53.07 52.09 53.03 51.8L52.99 51.85C52.04 52.75 51.06 53.62 50.09 54.5L50.04 54.54C49.73 54.9 49.4 55.26 49.06 55.6C48.6 56.07 48.14 56.52 47.66 56.97C47.86 57.07 48 57.28 48 57.52C48 57.85 47.74 58.12 47.4 58.12C47.14 58.12 46.92 57.96 46.84 57.73C46.18 58.32 45.49 58.88 44.79 59.42C43.39 60.48 41.96 61.48 40.44 62.36L39.57 62.86ZM35.85 62.39C35.85 62.21 36 62.06 36.18 62.06C36.37 62.06 36.52 62.21 36.52 62.39C36.52 62.58 36.37 62.72 36.18 62.72C36 62.72 35.85 62.58 35.85 62.39ZM42.24 62.48L42.17 62.48C41.99 62.48 41.84 62.33 41.84 62.14C41.84 61.96 41.99 61.81 42.17 61.81C42.36 61.81 42.5 61.96 42.5 62.14C42.5 62.31 42.39 62.45 42.24 62.48ZM28.23 61.69C28.23 61.36 28.5 61.09 28.83 61.09C29.16 61.09 29.44 61.36 29.44 61.69C29.44 62.03 29.16 62.3 28.83 62.3C28.5 62.3 28.23 62.03 28.23 61.69ZM30.34 61.78C30.34 61.6 30.49 61.45 30.68 61.45C30.86 61.45 31.01 61.6 31.01 61.78C31.01 61.97 30.86 62.12 30.68 62.12C30.49 62.12 30.34 61.97 30.34 61.78ZM39.12 60.27C39.12 60.09 39.27 59.94 39.45 59.94C39.63 59.94 39.78 60.09 39.78 60.27C39.78 60.45 39.63 60.6 39.45 60.6C39.27 60.6 39.12 60.45 39.12 60.27ZM41.84 59.82C41.84 59.48 42.11 59.21 42.44 59.21C42.77 59.21 43.05 59.48 43.05 59.82C43.05 60.15 42.77 60.43 42.44 60.43C42.11 60.43 41.84 60.15 41.84 59.82ZM20.48 59.58C20.48 59.24 20.75 58.97 21.09 58.97C21.42 58.97 21.7 59.24 21.7 59.58C21.7 59.91 21.42 60.18 21.09 60.18C20.75 60.18 20.48 59.91 20.48 59.58ZM49.4 59.25C49.4 59.06 49.55 58.91 49.73 58.91C49.91 58.91 50.06 59.06 50.06 59.25C50.06 59.43 49.91 59.58 49.73 59.58C49.55 59.58 49.4 59.43 49.4 59.25ZM27.81 58.85C27.81 58.52 28.07 58.25 28.41 58.25C28.74 58.25 29.01 58.52 29.01 58.85C29.01 59.18 28.74 59.46 28.41 59.46C28.07 59.46 27.81 59.18 27.81 58.85ZM19.03 58.09C19.03 57.91 19.18 57.76 19.36 57.76C19.55 57.76 19.7 57.91 19.7 58.09C19.7 58.28 19.55 58.43 19.36 58.43C19.18 58.43 19.03 58.28 19.03 58.09ZM43.17 57.76C43.17 57.43 43.44 57.16 43.77 57.16C44.1 57.16 44.38 57.43 44.38 57.76C44.38 58.1 44.1 58.37 43.77 58.37C43.44 58.37 43.17 58.1 43.17 57.76ZM22.06 57.76C21.72 57.76 21.45 57.49 21.45 57.16C21.45 56.93 21.58 56.73 21.77 56.63C21.76 56.6 21.75 56.56 21.75 56.52C21.75 56.34 21.9 56.19 22.09 56.19C22.27 56.19 22.42 56.34 22.42 56.52C22.42 56.57 22.41 56.62 22.4 56.66C22.56 56.77 22.66 56.95 22.66 57.16C22.66 57.49 22.39 57.76 22.06 57.76L22.06 57.76ZM34.51 56.62C34.51 56.28 34.79 56.01 35.12 56.01C35.46 56.01 35.72 56.28 35.72 56.62C35.72 56.95 35.46 57.22 35.12 57.22C34.79 57.22 34.51 56.95 34.51 56.62ZM23.98 57C23.86 57.01 23.84 56.49 24.04 55.39C24.28 54.13 24.51 52.86 24.65 51.57C24.81 50 24.9 48.41 24.85 46.82C24.79 45.64 24.71 44.45 24.5 43.28C24.37 42.49 24.25 41.69 24.04 40.92C23.95 40.62 23.9 40.32 23.76 40.03C22.67 37.71 23.34 37.34 24.38 39.67C24.51 39.96 24.58 40.26 24.67 40.57C24.87 41.34 24.99 42.14 25.11 42.93C25.31 44.1 25.39 45.29 25.45 46.48C25.5 48.07 25.4 49.65 25.24 51.24C25.1 52.52 24.87 53.79 24.63 55.05C24.4 56.3 24.12 56.99 23.98 57L23.98 57ZM36.57 56.64C36.57 56.46 36.72 56.31 36.9 56.31C37.09 56.31 37.24 56.46 37.24 56.64C37.24 56.83 37.09 56.98 36.9 56.98C36.72 56.98 36.57 56.83 36.57 56.64ZM26.65 56.4C26.65 56.22 26.8 56.07 26.99 56.07C27.17 56.07 27.32 56.22 27.32 56.4C27.32 56.59 27.17 56.74 26.99 56.74C26.8 56.74 26.65 56.59 26.65 56.4ZM30.34 55.04C30.34 54.71 30.62 54.44 30.95 54.44C31.29 54.44 31.55 54.71 31.55 55.04C31.55 55.37 31.29 55.65 30.95 55.65C30.62 55.65 30.34 55.37 30.34 55.04ZM47.22 54.56C47.22 54.22 47.49 53.95 47.83 53.95C48.16 53.95 48.43 54.22 48.43 54.56C48.43 54.89 48.16 55.16 47.83 55.16C47.49 55.16 47.22 54.89 47.22 54.56ZM54.3 53.43C54.3 53.25 54.45 53.1 54.63 53.1C54.81 53.1 54.96 53.25 54.96 53.43C54.96 53.62 54.81 53.77 54.63 53.77C54.45 53.77 54.3 53.62 54.3 53.43ZM42.5 50.32C42.5 49.99 42.77 49.72 43.1 49.72C43.44 49.72 43.71 49.99 43.71 50.32C43.71 50.66 43.44 50.92 43.1 50.92C42.77 50.92 42.5 50.66 42.5 50.32ZM49.21 49.62C49.21 49.44 49.36 49.29 49.55 49.29C49.73 49.29 49.89 49.44 49.89 49.62C49.89 49.81 49.73 49.96 49.55 49.96C49.36 49.96 49.21 49.81 49.21 49.62ZM19.52 48.93C19.52 48.6 19.79 48.32 20.12 48.32C20.45 48.32 20.73 48.6 20.73 48.93C20.73 49.26 20.45 49.54 20.12 49.54C19.79 49.54 19.52 49.26 19.52 48.93ZM34.82 48.69C34.82 48.36 35.09 48.08 35.43 48.08C35.76 48.08 36.03 48.36 36.03 48.69C36.03 49.02 35.76 49.29 35.43 49.29C35.09 49.29 34.82 49.02 34.82 48.69ZM58.41 48.24C58.41 48.05 58.56 47.91 58.74 47.91C58.93 47.91 59.08 48.05 59.08 48.24C59.08 48.42 58.93 48.57 58.74 48.57C58.56 48.57 58.41 48.42 58.41 48.24ZM57.38 47.48C57.38 47.15 57.65 46.87 57.99 46.87C58.32 46.87 58.6 47.15 58.6 47.48C58.6 47.82 58.32 48.08 57.99 48.08C57.65 48.08 57.38 47.82 57.38 47.48ZM38.57 47.3C38.57 46.96 38.84 46.69 39.17 46.69C39.51 46.69 39.78 46.96 39.78 47.3C39.78 47.63 39.51 47.91 39.17 47.91C38.84 47.91 38.57 47.63 38.57 47.3ZM28.59 46.63C28.59 46.3 28.86 46.02 29.19 46.02C29.52 46.02 29.8 46.3 29.8 46.63C29.8 46.97 29.52 47.23 29.19 47.23C28.86 47.23 28.59 46.97 28.59 46.63ZM22.54 44.3C22.54 44.12 22.69 43.97 22.87 43.97C23.05 43.97 23.2 44.12 23.2 44.3C23.2 44.48 23.05 44.64 22.87 44.64C22.69 44.64 22.54 44.48 22.54 44.3ZM25.75 43.91C25.75 43.58 26.01 43.3 26.35 43.3C26.68 43.3 26.96 43.58 26.96 43.91C26.96 44.24 26.68 44.51 26.35 44.51C26.01 44.51 25.75 44.24 25.75 43.91ZM52.42 43.73C52.42 43.39 52.69 43.13 53.02 43.13C53.36 43.13 53.63 43.39 53.63 43.73C53.63 44.06 53.36 44.33 53.02 44.33C52.69 44.33 52.42 44.06 52.42 43.73ZM29.74 43.39C29.74 43.21 29.89 43.06 30.07 43.06C30.26 43.06 30.41 43.21 30.41 43.39C30.41 43.58 30.26 43.73 30.07 43.73C29.89 43.73 29.74 43.58 29.74 43.39ZM37.84 40.58C37.84 40.25 38.12 39.98 38.45 39.98C38.79 39.98 39.05 40.25 39.05 40.58C39.05 40.91 38.79 41.19 38.45 41.19C38.12 41.19 37.84 40.91 37.84 40.58ZM44.99 40.52C44.99 40.19 45.25 39.92 45.59 39.92C45.92 39.92 46.19 40.19 46.19 40.52C46.19 40.86 45.92 41.13 45.59 41.13C45.25 41.13 44.99 40.86 44.99 40.52ZM57.56 39.86C57.56 39.53 57.84 39.25 58.17 39.25C58.51 39.25 58.77 39.53 58.77 39.86C58.77 40.19 58.51 40.46 58.17 40.46C57.84 40.46 57.56 40.19 57.56 39.86ZM27.32 39.37C27.32 39.04 27.59 38.77 27.93 38.77C28.26 38.77 28.53 39.04 28.53 39.37C28.53 39.71 28.26 39.98 27.93 39.98C27.59 39.98 27.32 39.71 27.32 39.37ZM42.68 39.32C42.68 38.98 42.95 38.71 43.29 38.71C43.62 38.71 43.9 38.98 43.9 39.32C43.9 39.65 43.62 39.92 43.29 39.92C42.95 39.92 42.68 39.65 42.68 39.32ZM30.82 38.25C30.82 38.07 30.98 37.92 31.16 37.92C31.35 37.92 31.5 38.07 31.5 38.25C31.5 38.44 31.35 38.59 31.16 38.59C30.98 38.59 30.82 38.44 30.82 38.25ZM22.11 37.29C22.11 37.1 22.26 36.95 22.45 36.95C22.63 36.95 22.79 37.1 22.79 37.29C22.79 37.47 22.63 37.62 22.45 37.62C22.26 37.62 22.11 37.47 22.11 37.29ZM44.07 37.17C44.07 36.98 44.22 36.83 44.41 36.83C44.59 36.83 44.74 36.98 44.74 37.17C44.74 37.35 44.59 37.5 44.41 37.5C44.22 37.5 44.07 37.35 44.07 37.17ZM53.51 36.35C53.51 36.01 53.78 35.75 54.11 35.74C54.45 35.74 54.72 36.01 54.72 36.35C54.72 36.68 54.45 36.95 54.11 36.95C53.78 36.95 53.51 36.68 53.51 36.35ZM37.72 36.38C37.72 36.2 37.87 36.05 38.06 36.05C38.24 36.05 38.39 36.2 38.39 36.38C38.39 36.56 38.24 36.71 38.06 36.71C37.87 36.71 37.72 36.56 37.72 36.38ZM61.49 35.84C61.49 35.65 61.64 35.5 61.83 35.5C62.01 35.5 62.16 35.65 62.16 35.84C62.16 36.02 62.01 36.17 61.83 36.17C61.64 36.17 61.49 36.02 61.49 35.84ZM38.21 35.44C38.21 35.11 38.48 34.83 38.81 34.83C39.15 34.83 39.41 35.11 39.41 35.44C39.41 35.77 39.15 36.05 38.81 36.05C38.48 36.05 38.21 35.77 38.21 35.44ZM47.88 35.26C47.88 34.92 48.16 34.66 48.49 34.66C48.83 34.66 49.09 34.92 49.09 35.26C49.09 35.59 48.83 35.87 48.49 35.87C48.16 35.87 47.88 35.59 47.88 35.26ZM52.3 34.68C52.3 34.5 52.45 34.35 52.64 34.35C52.82 34.35 52.97 34.5 52.97 34.68C52.97 34.87 52.82 35.02 52.64 35.02C52.45 35.02 52.3 34.87 52.3 34.68ZM61.07 34.23C61.07 33.9 61.34 33.62 61.68 33.62C62.01 33.62 62.28 33.9 62.28 34.23C62.28 34.57 62.01 34.83 61.68 34.83C61.34 34.83 61.07 34.57 61.07 34.23ZM29.59 34.83C29.4 34.83 29.25 34.68 29.25 34.5C29.25 34.32 29.4 34.17 29.59 34.17C29.77 34.17 29.92 34.32 29.92 34.5C29.92 34.66 29.81 34.8 29.66 34.83L29.59 34.83ZM57.14 33.54C57.14 33.36 57.29 33.2 57.47 33.2C57.66 33.2 57.8 33.36 57.8 33.54C57.8 33.72 57.66 33.87 57.47 33.87C57.29 33.87 57.14 33.72 57.14 33.54ZM32.64 32.66C32.64 32.32 32.92 32.05 33.25 32.05C33.58 32.05 33.85 32.32 33.85 32.66C33.85 32.99 33.58 33.26 33.25 33.26C32.92 33.26 32.64 32.99 32.64 32.66ZM53.39 32.45C53.39 32.27 53.54 32.11 53.72 32.11C53.91 32.11 54.06 32.27 54.06 32.45C54.06 32.63 53.91 32.78 53.72 32.78C53.54 32.78 53.39 32.63 53.39 32.45ZM43.77 31.93C43.44 31.93 43.17 31.66 43.17 31.33C43.17 30.99 43.44 30.73 43.77 30.73C43.94 30.73 44.1 30.8 44.21 30.91C44.25 30.77 44.37 30.66 44.53 30.66C44.71 30.66 44.86 30.81 44.86 30.99C44.86 31.18 44.71 31.33 44.53 31.33C44.47 31.33 44.42 31.32 44.37 31.29C44.37 31.3 44.38 31.31 44.38 31.33C44.38 31.66 44.1 31.93 43.77 31.93ZM49.94 30.87C49.94 30.69 50.09 30.54 50.27 30.54C50.46 30.54 50.61 30.69 50.61 30.87C50.61 31.06 50.46 31.21 50.27 31.21C50.09 31.21 49.94 31.06 49.94 30.87ZM60.23 30.75C60.23 30.57 60.38 30.42 60.56 30.42C60.74 30.42 60.89 30.57 60.89 30.75C60.89 30.94 60.74 31.09 60.56 31.09C60.38 31.09 60.23 30.94 60.23 30.75ZM57.38 30.42C57.38 30.09 57.65 29.81 57.99 29.81C58.32 29.81 58.6 30.09 58.6 30.42C58.6 30.76 58.32 31.02 57.99 31.02C57.65 31.02 57.38 30.76 57.38 30.42ZM32.1 30.24C32.1 29.9 32.37 29.64 32.7 29.64C33.04 29.64 33.31 29.9 33.31 30.24C33.31 30.57 33.04 30.85 32.7 30.85C32.37 30.85 32.1 30.57 32.1 30.24ZM37.84 30.18C37.62 30.18 37.43 30.06 37.33 29.88C37.24 29.82 37.18 29.72 37.18 29.6C37.18 29.51 37.22 29.43 37.28 29.37C37.36 29.14 37.58 28.97 37.84 28.97C38.18 28.97 38.45 29.24 38.45 29.57C38.45 29.91 38.18 30.18 37.84 30.18L37.84 30.18ZM50.79 29.03C50.79 28.69 51.06 28.43 51.39 28.43C51.73 28.43 52 28.69 52 29.03C52 29.36 51.73 29.64 51.39 29.64C51.06 29.64 50.79 29.36 50.79 29.03ZM28.47 28.43C28.47 28.09 28.74 27.82 29.07 27.82C29.4 27.82 29.68 28.09 29.68 28.43C29.68 28.76 29.4 29.03 29.07 29.03C28.74 29.03 28.47 28.76 28.47 28.43ZM38.93 26.82C38.93 26.64 39.08 26.49 39.27 26.49C39.45 26.49 39.6 26.64 39.6 26.82C39.6 27.01 39.45 27.15 39.27 27.15C39.08 27.15 38.93 27.01 38.93 26.82ZM59.32 26.7C59.32 26.52 59.47 26.37 59.65 26.37C59.83 26.37 59.98 26.52 59.98 26.7C59.98 26.89 59.83 27.03 59.65 27.03C59.47 27.03 59.32 26.89 59.32 26.7ZM31.67 26.64C31.67 26.45 31.82 26.31 32.01 26.31C32.19 26.31 32.34 26.45 32.34 26.64C32.34 26.82 32.19 26.97 32.01 26.97C31.82 26.97 31.67 26.82 31.67 26.64ZM55.08 25.25C55.08 25.06 55.23 24.91 55.41 24.91C55.6 24.91 55.75 25.06 55.75 25.25C55.75 25.43 55.6 25.58 55.41 25.58C55.23 25.58 55.08 25.43 55.08 25.25ZM56.11 24.49C56.11 24.16 56.38 23.89 56.72 23.89C57.05 23.89 57.32 24.16 57.32 24.49C57.32 24.82 57.05 25.1 56.72 25.1C56.38 25.1 56.11 24.82 56.11 24.49ZM34.64 24.04C34.64 23.85 34.79 23.7 34.97 23.7C35.16 23.7 35.31 23.85 35.31 24.04C35.31 24.22 35.16 24.37 34.97 24.37C34.79 24.37 34.64 24.22 34.64 24.04ZM37.12 23.53C37.12 23.19 37.39 22.92 37.72 22.92C38.06 22.92 38.33 23.19 38.33 23.53C38.33 23.86 38.06 24.13 37.72 24.13C37.39 24.13 37.12 23.86 37.12 23.53ZM31.91 22.56C31.91 22.23 32.19 21.95 32.52 21.95C32.86 21.95 33.13 22.23 33.13 22.56C33.13 22.89 32.86 23.16 32.52 23.16C32.19 23.16 31.91 22.89 31.91 22.56ZM49.64 22.64C49.64 22.46 49.79 22.31 49.97 22.31C50.15 22.31 50.3 22.46 50.3 22.64C50.3 22.83 50.15 22.98 49.97 22.98C49.79 22.98 49.64 22.83 49.64 22.64ZM41.54 22.31C41.54 21.98 41.8 21.71 42.14 21.71C42.47 21.71 42.74 21.98 42.74 22.31C42.74 22.65 42.47 22.92 42.14 22.92C41.8 22.92 41.54 22.65 41.54 22.31ZM52.24 21.98C52.24 21.8 52.39 21.65 52.57 21.65C52.76 21.65 52.9 21.8 52.9 21.98C52.9 22.16 52.76 22.31 52.57 22.31C52.39 22.31 52.24 22.16 52.24 21.98ZM40.57 20.59C40.57 20.41 40.72 20.26 40.9 20.26C41.08 20.26 41.23 20.41 41.23 20.59C41.23 20.78 41.08 20.93 40.9 20.93C40.72 20.93 40.57 20.78 40.57 20.59ZM27.32 20.13C27.32 19.8 27.59 19.53 27.93 19.53C28.26 19.53 28.53 19.8 28.53 20.13C28.53 20.47 28.26 20.74 27.93 20.74C27.59 20.74 27.32 20.47 27.32 20.13ZM50.37 18.96C50.37 18.78 50.51 18.63 50.7 18.63C50.88 18.63 51.03 18.78 51.03 18.96C51.03 19.14 50.88 19.29 50.7 19.29C50.51 19.29 50.37 19.14 50.37 18.96ZM52.24 18.26C52.24 17.93 52.51 17.66 52.85 17.66C53.18 17.66 53.45 17.93 53.45 18.26C53.45 18.59 53.18 18.87 52.85 18.87C52.51 18.87 52.24 18.59 52.24 18.26ZM26.77 17.62C26.77 17.44 26.92 17.29 27.11 17.29C27.29 17.29 27.44 17.44 27.44 17.62C27.44 17.81 27.29 17.96 27.11 17.96C26.92 17.96 26.77 17.81 26.77 17.62ZM52.54 16.36C52.54 16.18 52.69 16.03 52.88 16.03C53.06 16.03 53.21 16.18 53.21 16.36C53.21 16.54 53.06 16.69 52.88 16.69C52.69 16.69 52.54 16.54 52.54 16.36ZM35.91 15.45C35.91 15.26 36.06 15.11 36.24 15.11C36.42 15.11 36.57 15.26 36.57 15.45C36.57 15.63 36.42 15.78 36.24 15.78C36.06 15.78 35.91 15.63 35.91 15.45ZM27.38 13.81C27.38 13.63 27.53 13.48 27.71 13.48C27.9 13.48 28.05 13.63 28.05 13.81C28.05 14 27.9 14.15 27.71 14.15C27.53 14.15 27.38 14 27.38 13.81ZM29.07 12.6C29.07 12.42 29.22 12.27 29.4 12.27C29.59 12.27 29.74 12.42 29.74 12.6C29.74 12.79 29.59 12.94 29.4 12.94C29.22 12.94 29.07 12.79 29.07 12.6Z" />
		<path id="Layer" class="shp8" d="M30.57 61.34C30.57 66.76 26.18 71.15 20.76 71.15C15.34 71.15 10.95 66.76 10.95 61.34C10.95 55.92 15.34 51.52 20.76 51.52C26.18 51.52 30.57 55.92 30.57 61.34Z" />
		<path id="Layer" class="shp9" d="M14.84 59.49C14.09 57.6 14.62 55.21 16.15 54.41C17.67 53.61 19.57 54.48 20.38 56.34C20.61 56.88 20.74 57.46 20.78 58.04C20.83 57.46 20.96 56.88 21.19 56.34C22 54.48 23.9 53.61 25.43 54.41C26.96 55.21 27.38 57.57 26.73 59.49C25.62 62.8 22.27 64.73 20.78 68.56C19.56 64.75 16.14 62.75 14.84 59.49L14.84 59.49Z" />
		<path id="Layer" class="shp10" d="M30.57 20.52C30.57 25.94 26.18 30.33 20.76 30.33C15.34 30.33 10.95 25.94 10.95 20.52C10.95 15.1 15.34 10.71 20.76 10.71C26.18 10.71 30.57 15.1 30.57 20.52Z" />
		<path id="Layer" class="shp11" d="M14.84 18.67C14.09 16.78 14.62 14.4 16.15 13.6C17.67 12.8 19.57 13.66 20.38 15.53C20.61 16.06 20.74 16.65 20.78 17.23C20.83 16.65 20.96 16.06 21.19 15.53C22 13.66 23.9 12.8 25.43 13.6C26.96 14.4 27.38 16.75 26.73 18.67C25.62 21.99 22.27 23.91 20.78 27.75C19.56 23.93 16.14 21.94 14.84 18.67L14.84 18.67Z" />
		<path id="Layer" class="shp12" d="M30.57 40.81C30.57 46.23 26.18 50.62 20.76 50.62C15.34 50.62 10.95 46.23 10.95 40.81C10.95 35.39 15.34 30.99 20.76 30.99C26.18 30.99 30.57 35.39 30.57 40.81Z" />
		<path id="Layer" class="shp13" d="M14.84 38.96C14.09 37.07 14.62 34.68 16.15 33.88C17.67 33.08 19.57 33.95 20.38 35.81C20.61 36.35 20.74 36.93 20.78 37.51C20.83 36.93 20.96 36.35 21.19 35.81C22 33.95 23.9 33.08 25.43 33.88C26.96 34.68 27.38 37.04 26.73 38.96C25.62 42.27 22.27 44.2 20.78 48.03C19.56 44.22 16.14 42.22 14.84 38.96L14.84 38.96Z" />
		<path id="Layer" class="shp14" d="M46.71 31.87C46.71 37.29 42.32 41.68 36.9 41.68C31.48 41.68 27.09 37.29 27.09 31.87C27.09 26.45 31.48 22.05 36.9 22.05C42.32 22.05 46.71 26.45 46.71 31.87Z" />
		<path id="Layer" class="shp15" d="M30.98 30.02C30.23 28.13 30.76 25.74 32.29 24.94C33.82 24.14 35.71 25 36.52 26.87C36.75 27.41 36.88 27.99 36.93 28.57C36.97 27.99 37.11 27.41 37.34 26.87C38.14 25 40.04 24.14 41.57 24.94C43.1 25.74 43.52 28.1 42.88 30.02C41.76 33.33 38.41 35.26 36.93 39.09C35.7 35.28 32.28 33.28 30.98 30.02L30.98 30.02Z" />
		<path id="Layer" class="shp16" d="M62.74 40.81C62.74 46.23 58.35 50.62 52.93 50.62C47.51 50.62 43.12 46.23 43.12 40.81C43.12 35.39 47.51 30.99 52.93 30.99C58.35 30.99 62.74 35.39 62.74 40.81Z" />
		<path id="Layer" class="shp17" d="M47.01 38.96C46.26 37.07 46.79 34.68 48.32 33.88C49.85 33.08 51.74 33.95 52.55 35.81C52.78 36.35 52.91 36.93 52.96 37.51C53 36.93 53.14 36.35 53.37 35.81C54.18 33.95 56.07 33.08 57.6 33.88C59.13 34.68 59.55 37.04 58.91 38.96C57.79 42.27 54.44 44.2 52.96 48.03C51.73 44.22 48.31 42.22 47.01 38.96L47.01 38.96Z" />
		<path id="Layer" class="shp18" d="M62.74 20.52C62.74 25.94 58.35 30.33 52.93 30.33C47.51 30.33 43.12 25.94 43.12 20.52C43.12 15.1 47.51 10.71 52.93 10.71C58.35 10.71 62.74 15.1 62.74 20.52Z" />
		<path id="Layer" class="shp19" d="M47.01 18.67C46.26 16.78 46.79 14.4 48.32 13.6C49.85 12.8 51.74 13.66 52.55 15.53C52.78 16.06 52.91 16.65 52.96 17.23C53 16.65 53.14 16.06 53.37 15.53C54.18 13.66 56.07 12.8 57.6 13.6C59.13 14.4 59.55 16.75 58.91 18.67C57.79 21.99 54.44 23.91 52.96 27.75C51.73 23.93 48.31 21.94 47.01 18.67L47.01 18.67Z" />
		<path id="Layer" class="shp20" d="M62.74 61.34C62.74 66.76 58.35 71.15 52.93 71.15C47.51 71.15 43.12 66.76 43.12 61.34C43.12 55.92 47.51 51.52 52.93 51.52C58.35 51.52 62.74 55.92 62.74 61.34Z" />
		<path id="Layer" class="shp21" d="M47.01 59.49C46.26 57.6 46.79 55.21 48.32 54.41C49.85 53.61 51.74 54.48 52.55 56.34C52.78 56.88 52.91 57.46 52.96 58.04C53 57.46 53.14 56.88 53.37 56.34C54.18 54.48 56.07 53.61 57.6 54.41C59.13 55.21 59.55 57.57 58.91 59.49C57.79 62.8 54.44 64.73 52.96 68.56C51.73 64.75 48.31 62.75 47.01 59.49L47.01 59.49Z" />
		<path id="Layer" class="shp22" d="M30.57 81.29C30.57 86.7 26.18 91.1 20.76 91.1C15.34 91.1 10.95 86.7 10.95 81.29C10.95 75.87 15.34 71.47 20.76 71.47C26.18 71.47 30.57 75.87 30.57 81.29Z" />
		<path id="Layer" class="shp23" d="M14.84 79.43C14.09 77.55 14.62 75.16 16.15 74.36C17.67 73.56 19.57 74.42 20.38 76.29C20.61 76.82 20.74 77.41 20.78 77.99C20.83 77.41 20.96 76.82 21.19 76.29C22 74.42 23.9 73.56 25.43 74.36C26.96 75.16 27.38 77.52 26.73 79.43C25.62 82.75 22.27 84.68 20.78 88.51C19.56 84.69 16.14 82.7 14.84 79.43L14.84 79.43Z" />
		<path id="Layer" class="shp24" d="M46.71 70.69C46.71 76.11 42.32 80.51 36.9 80.51C31.48 80.51 27.09 76.11 27.09 70.69C27.09 65.27 31.48 60.88 36.9 60.88C42.32 60.88 46.71 65.27 46.71 70.69Z" />
		<path id="Layer" class="shp25" d="M30.98 68.84C30.23 66.96 30.76 64.57 32.29 63.77C33.82 62.97 35.71 63.83 36.52 65.7C36.75 66.23 36.88 66.82 36.93 67.4C36.97 66.82 37.11 66.23 37.34 65.7C38.14 63.83 40.04 62.97 41.57 63.77C43.1 64.57 43.52 66.93 42.88 68.84C41.76 72.16 38.41 74.09 36.93 77.92C35.7 74.1 32.28 72.11 30.98 68.84L30.98 68.84Z" />
		<path id="Layer" class="shp26" d="M62.74 81.29C62.74 86.7 58.35 91.1 52.93 91.1C47.51 91.1 43.12 86.7 43.12 81.29C43.12 75.87 47.51 71.47 52.93 71.47C58.35 71.47 62.74 75.87 62.74 81.29Z" />
		<path id="Layer" class="shp27" d="M47.01 79.43C46.26 77.55 46.79 75.16 48.32 74.36C49.85 73.56 51.74 74.42 52.55 76.29C52.78 76.82 52.91 77.41 52.96 77.99C53 77.41 53.14 76.82 53.37 76.29C54.18 74.42 56.07 73.56 57.6 74.36C59.13 75.16 59.55 77.52 58.91 79.43C57.79 82.75 54.44 84.68 52.96 88.51C51.73 84.69 48.31 82.7 47.01 79.43L47.01 79.43Z" />
	</g>
</svg>