<svg xmlns="http://www.w3.org/2000/svg" viewBox="0 0 73 102" width="73" height="102">
	<defs>
		<filter x="-50%" y="-50%" width="200%" height="200%" id="flt1"> <feGaussianBlur stdDeviation="0.85" /> </filter>
		<linearGradient id="grd1" gradientUnits="userSpaceOnUse"  x1="41.804" y1="26.467" x2="43.949" y2="-89.915">
			<stop offset="0" stop-color="#f3f3f3"  />
			<stop offset="1" stop-color="#8f8f8f"  />
		</linearGradient>
		<radialGradient id="grd2" gradientUnits="userSpaceOnUse"  cx="10.857" cy="91.726" r="13.273">
			<stop offset="0" stop-color="#ffffff"  />
			<stop offset="1" stop-color="#ffffff" stop-opacity="0" />
		</radialGradient>
		<radialGradient id="grd3" gradientUnits="userSpaceOnUse"  cx="62.924" cy="12.67" r="14.287">
			<stop offset="0" stop-color="#ffffff"  />
			<stop offset="1" stop-color="#ffffff" stop-opacity="0" />
		</radialGradient>
		<radialGradient id="grd4" gradientUnits="userSpaceOnUse"  cx="37.308" cy="50.663" r="22.382">
			<stop offset="0" stop-color="#ffffff"  />
			<stop offset="1" stop-color="#ffffff" stop-opacity="0" />
		</radialGradient>
		<linearGradient id="grd5" gradientUnits="userSpaceOnUse"  x1="-57.489" y1="90.017" x2="-57.489" y2="86.331">
			<stop offset="0" stop-color="#d90000"  />
			<stop offset="1" stop-color="#950000"  />
		</linearGradient>
		<radialGradient id="grd6" gradientUnits="userSpaceOnUse"  cx="18.536" cy="73.912" r="25.374">
			<stop offset="0" stop-color="#9c0f0f"  />
			<stop offset="1" stop-color="#9c0f0f" stop-opacity="0" />
		</radialGradient>
		<linearGradient id="grd7" gradientUnits="userSpaceOnUse"  x1="-868.689" y1="70.68" x2="-868.689" y2="28.838">
			<stop offset="0" stop-color="#d90000"  />
			<stop offset="1" stop-color="#950000"  />
		</linearGradient>
		<linearGradient id="grd8" gradientUnits="userSpaceOnUse"  x1="-868.69" y1="16.384" x2="-868.69" y2="5.336">
			<stop offset="0" stop-color="#d90000"  />
			<stop offset="1" stop-color="#950000"  />
		</linearGradient>
		<linearGradient id="grd9" gradientUnits="userSpaceOnUse"  x1="10.711" y1="-70.17" x2="23.571" y2="-70.17">
			<stop offset="0" stop-color="#d90000"  />
			<stop offset="1" stop-color="#950000"  />
		</linearGradient>
	</defs>
	<style>
		tspan { white-space:pre }
		.shp0 { filter: url(#flt1);fill: #000000 } 
		.shp1 { fill: url(#grd1);stroke: #000000;stroke-width: 0.226 } 
		.shp2 { opacity: 0.467;fill: url(#grd2) } 
		.shp3 { opacity: 0.396;fill: url(#grd3) } 
		.shp4 { fill: none;stroke: #000000;stroke-width: 0.226 } 
		.shp5 { opacity: 0.455;fill: url(#grd4) } 
		.shp6 { fill: url(#grd5);stroke: #a40000;stroke-linejoin:round;stroke-width: 0.165 } 
		.shp7 { fill: url(#grd6) } 
		.shp8 { fill: url(#grd7);stroke: #a30000;stroke-width: 0.402 } 
		.shp9 { fill: url(#grd8) } 
		.shp10 { fill: url(#grd9);stroke: #a00000;stroke-linejoin:round;stroke-width: 0.343 } 
	</style>
	<g id="-e-Heart12">
		<g id="Layer">
			<path id="Layer" fill-rule="evenodd" class="shp0" d="M4.85 1.65L68.96 1.65C69.36 1.65 69.75 1.72 70.12 1.88C70.49 2.03 70.82 2.25 71.1 2.53C71.38 2.81 71.6 3.14 71.75 3.51C71.9 3.88 71.98 4.27 71.98 4.66L71.98 97.81C71.98 98.21 71.9 98.6 71.75 98.97C71.6 99.34 71.38 99.67 71.1 99.95C70.82 100.23 70.49 100.45 70.12 100.6C69.75 100.75 69.36 100.83 68.96 100.83L4.85 100.83C4.45 100.83 4.06 100.75 3.7 100.6C3.33 100.45 3 100.23 2.72 99.95C2.44 99.67 2.21 99.34 2.06 98.97C1.91 98.6 1.83 98.21 1.83 97.81L1.83 4.66C1.83 4.27 1.91 3.88 2.06 3.51C2.21 3.14 2.44 2.81 2.72 2.53C3 2.25 3.33 2.03 3.7 1.88C4.06 1.72 4.45 1.65 4.85 1.65" />
			<path id="Layer" fill-rule="evenodd" class="shp1" d="M6.12 1.07L68.51 1.07C69.02 1.07 69.52 1.17 69.99 1.36C70.46 1.56 70.89 1.85 71.25 2.21C71.61 2.57 71.9 2.99 72.09 3.46C72.29 3.94 72.39 4.44 72.39 4.95L72.39 96.37C72.39 96.88 72.29 97.39 72.09 97.86C71.9 98.33 71.61 98.76 71.25 99.12C70.89 99.48 70.46 99.76 69.99 99.96C69.52 100.15 69.02 100.25 68.51 100.25L6.12 100.25C5.61 100.25 5.1 100.15 4.63 99.96C4.16 99.76 3.73 99.48 3.37 99.12C3.01 98.76 2.73 98.33 2.53 97.86C2.34 97.39 2.24 96.88 2.24 96.37L2.24 4.95C2.24 4.44 2.34 3.94 2.53 3.46C2.73 2.99 3.01 2.57 3.37 2.21C3.73 1.85 4.16 1.56 4.63 1.36C5.1 1.17 5.61 1.07 6.12 1.07" />
			<path id="Layer" class="shp2" d="M31.26 96.79L6.67 96.79C6.54 96.79 6.41 96.77 6.3 96.72C6.18 96.67 6.07 96.6 5.98 96.51C5.89 96.41 5.82 96.31 5.77 96.19C5.72 96.07 5.69 95.94 5.69 95.82L5.69 73.49C5.69 73.36 5.72 73.23 5.77 73.12C5.82 73 5.89 72.89 5.98 72.8C6.07 72.71 6.18 72.64 6.3 72.59C6.41 72.54 6.54 72.51 6.67 72.51L31.26 72.51C31.39 72.51 31.52 72.54 31.64 72.59C31.76 72.64 31.86 72.71 31.95 72.8C32.04 72.89 32.12 73 32.17 73.12C32.21 73.23 32.24 73.36 32.24 73.49L32.24 95.82C32.24 95.94 32.21 96.07 32.17 96.19C32.12 96.31 32.04 96.41 31.95 96.51C31.86 96.6 31.76 96.67 31.64 96.72C31.52 96.77 31.39 96.79 31.26 96.79" />
			<path id="Layer" class="shp3" d="M41.39 4.53L67.89 4.53C68.03 4.53 68.17 4.56 68.29 4.61C68.42 4.66 68.53 4.74 68.63 4.84C68.72 4.93 68.8 5.05 68.85 5.17C68.9 5.3 68.93 5.43 68.93 5.57L68.93 48.77C68.93 48.9 68.9 49.04 68.85 49.16C68.8 49.29 68.72 49.4 68.63 49.5C68.53 49.6 68.42 49.67 68.29 49.73C68.17 49.78 68.03 49.8 67.89 49.8L41.39 49.8C41.26 49.8 41.12 49.78 41 49.73C40.87 49.67 40.76 49.6 40.66 49.5C40.57 49.4 40.49 49.29 40.44 49.16C40.38 49.04 40.36 48.9 40.36 48.77L40.36 5.57C40.36 5.43 40.38 5.3 40.44 5.17C40.49 5.05 40.57 4.93 40.66 4.84C40.76 4.74 40.87 4.66 41 4.61C41.12 4.56 41.26 4.53 41.39 4.53" />
			<path id="Layer" class="shp4" d="M20.66 92.77L65.38 92.77L65.38 19.16" />
			<path id="Layer" class="shp4" d="M53.81 8.56L9.25 8.56L9.25 81.74" />
			<path id="Layer" class="shp5" d="M59.68 50.66C59.68 72.55 49.66 90.3 37.3 90.3C24.94 90.3 14.92 72.55 14.92 50.66C14.92 28.77 24.94 11.03 37.3 11.03C49.66 11.03 59.68 28.77 59.68 50.66Z" />
		</g>
		<g id="Layer">
			<path id="Layer" class="shp6" d="M10.01 87.98C9.65 87.07 9.9 85.92 10.64 85.54C11.38 85.15 12.29 85.57 12.68 86.47C12.79 86.72 12.85 87 12.87 87.29C12.89 87 12.96 86.72 13.07 86.47C13.46 85.57 14.37 85.15 15.11 85.54C15.85 85.92 16.05 87.06 15.74 87.98C15.2 89.58 13.59 90.51 12.87 92.35C12.28 90.51 10.64 89.55 10.01 87.98L10.01 87.98Z" />
		</g>
		<path id="Layer" fill-rule="evenodd" class="shp7" d="M18.44 89.53C18.44 89.53 18.44 89.53 18.44 89.53C18.44 89.53 18.44 89.53 18.44 89.53L18.44 89.53ZM18.44 89.53C16.13 83.76 14.57 83.92 12.58 83.35L15.55 83.35C15.57 83.25 15.59 83.15 15.61 83.05C15.66 82.8 15.73 82.55 15.81 82.31C15.81 81.98 15.81 81.65 15.81 81.32C15.82 80.6 15.92 79.89 16.02 79.18C16.03 79 16.06 78.82 16.09 78.64C15.99 78.56 16.01 78.02 16.27 76.96C16.32 76.74 16.36 76.52 16.4 76.31C16.49 75.81 16.6 75.31 16.71 74.81C16.83 74.22 17.03 73.65 17.21 73.07C17.45 72.39 17.74 71.73 18.02 71.06C18.37 70.25 18.73 69.43 19.09 68.62C19.58 67.52 20.13 66.46 20.67 65.39C21.36 64.08 21.97 62.73 22.55 61.37C23.25 59.72 23.93 58.06 24.62 56.4C25.37 54.64 26.08 52.85 26.75 51.05C26.8 50.94 26.84 50.82 26.88 50.7C26.87 50.67 26.86 50.63 26.86 50.58C26.86 50.46 26.92 50.35 27.02 50.29C27.62 48.62 28.16 46.92 28.68 45.22C29.34 43.07 29.89 40.89 30.33 38.69C30.78 36.14 30.89 33.54 30.86 30.95C30.8 28.84 30.58 26.73 30.33 24.64C30.23 24.73 30.09 24.79 29.94 24.79C29.61 24.79 29.34 24.52 29.34 24.18C29.34 23.85 29.61 23.58 29.94 23.58C30.04 23.58 30.14 23.6 30.22 23.65L30.15 23.08C30.05 22.34 29.95 21.6 29.84 20.86C29.79 20.97 29.67 21.04 29.55 21.04C29.36 21.04 29.22 20.89 29.22 20.71C29.22 20.52 29.36 20.37 29.55 20.37C29.64 20.37 29.72 20.4 29.78 20.46C29.68 19.76 29.57 19.07 29.46 18.37C29.29 17.3 29.32 16.66 29.44 16.49C29.34 16.38 29.28 16.24 29.28 16.08C29.28 15.74 29.55 15.47 29.88 15.47C30.21 15.47 30.49 15.74 30.49 16.08C30.49 16.41 30.21 16.68 29.88 16.68C29.81 16.68 29.75 16.67 29.69 16.65C29.81 16.89 29.93 17.34 30.04 18.04C30.29 19.61 30.52 21.18 30.72 22.75C31.04 25.36 31.35 27.98 31.43 30.62C31.45 33.21 31.35 35.8 30.91 38.36C30.48 40.56 29.92 42.73 29.26 44.88C28.7 46.73 28.12 48.57 27.46 50.39C27.5 50.44 27.53 50.51 27.53 50.58C27.53 50.74 27.42 50.87 27.27 50.91C26.62 52.64 25.93 54.36 25.21 56.06C24.52 57.72 23.84 59.38 23.14 61.03C22.56 62.39 21.95 63.73 21.27 65.04C20.73 66.11 20.18 67.18 19.7 68.27C19.34 69.08 18.98 69.89 18.63 70.71C18.35 71.37 18.06 72.04 17.83 72.72C17.64 73.29 17.45 73.87 17.32 74.46C17.31 74.53 17.3 74.6 17.28 74.67C17.47 74.25 17.66 73.83 17.86 73.41C18.02 73.1 18.18 72.79 18.35 72.49C18.35 72.48 18.35 72.47 18.36 72.47C18.43 72.22 18.57 71.99 18.67 71.76C18.84 71.41 19.06 71.09 19.25 70.76C19.44 70.44 19.65 70.14 19.87 69.84C20.44 68.84 21.1 67.89 21.78 66.95C22.3 66.23 22.91 65.57 23.54 64.94C23.56 64.79 23.67 64.68 23.81 64.65L24.33 64.14C25.33 63.19 26.37 62.28 27.38 61.34C28.56 60.23 29.71 59.08 30.85 57.92C32.16 56.61 33.36 55.21 34.47 53.73C35.72 52.02 36.76 50.18 37.77 48.32C38.11 47.72 38.42 47.11 38.71 46.49L38.59 46.5C38.26 46.5 37.99 46.23 37.99 45.9C37.99 45.56 38.26 45.3 38.59 45.3C38.81 45.3 39.01 45.42 39.11 45.6C39.6 44.49 40.04 43.36 40.42 42.21L40.49 41.97C40.45 41.7 40.43 41.31 40.45 40.76C40.48 39.82 40.5 38.88 40.47 37.94C40.42 36.26 40.31 34.57 40.08 32.9C39.9 31.76 39.72 30.62 39.39 29.51C39.22 28.95 39.07 28.38 38.82 27.85C38.73 27.7 38.68 27.53 38.55 27.42C36.62 25.73 37.26 25.34 39.17 27.05C39.3 27.17 39.35 27.35 39.44 27.49C39.69 28.03 39.84 28.59 40 29.15C40.33 30.27 40.5 31.41 40.68 32.56C40.9 34.23 41 35.91 41.06 37.6C41.08 38.31 41.07 39.02 41.05 39.73C41.37 38.24 41.6 36.73 41.79 35.22C41.85 34.55 41.87 33.88 41.89 33.21C41.82 33.24 41.75 33.26 41.68 33.26C41.35 33.26 41.07 32.98 41.07 32.65C41.07 32.31 41.35 32.05 41.68 32.05C41.76 32.05 41.84 32.07 41.91 32.1C41.92 31.06 41.89 30.02 41.86 28.99C41.62 28.91 41.44 28.69 41.44 28.42C41.44 28.16 41.6 27.94 41.83 27.85C41.82 27.75 41.82 27.64 41.81 27.53C41.8 27.11 41.79 26.69 41.77 26.28C41.68 23.93 42.26 23.6 42.34 25.95C42.36 26.36 42.37 26.78 42.39 27.2C42.39 27.44 42.4 27.69 42.41 27.94C42.55 28.05 42.65 28.22 42.65 28.42C42.65 28.6 42.57 28.76 42.44 28.87C42.5 30.88 42.52 32.89 42.37 34.89C42.07 37.24 41.69 39.6 41 41.87C40.3 43.99 39.44 46.04 38.35 47.99C37.34 49.84 36.31 51.68 35.06 53.39C33.95 54.87 32.76 56.28 31.45 57.58C30.31 58.74 29.15 59.88 27.97 60.99C26.97 61.93 25.93 62.85 24.93 63.79C24.63 64.09 24.32 64.39 24.03 64.7C24.1 64.74 24.16 64.81 24.18 64.9C24.94 64.13 25.75 63.4 26.55 62.67L29.36 60.18C30.34 59.29 31.34 58.42 32.34 57.54C33.46 56.57 34.56 55.56 35.63 54.53C36.85 53.37 38.04 52.19 39.22 50.99C40.47 49.73 41.65 48.41 42.8 47.06C43.67 46.01 44.51 44.93 45.32 43.84C45.31 43.8 45.31 43.76 45.31 43.72C45.31 43.41 45.55 43.16 45.85 43.13L46.46 42.28C47.54 40.8 48.52 39.24 49.44 37.65C49.41 37.67 49.37 37.67 49.33 37.67C49.15 37.67 49 37.53 49 37.34C49 37.16 49.15 37 49.33 37C49.49 37 49.62 37.12 49.65 37.27C49.74 37.12 49.83 36.98 49.92 36.83C50.99 34.82 52.02 32.77 52.71 30.59C53.23 28.69 53.52 26.74 53.83 24.8C54.2 22.47 54.78 22.13 54.41 24.46C54.1 26.4 53.8 28.36 53.29 30.26C52.61 32.44 51.58 34.49 50.5 36.49C49.45 38.37 48.31 40.2 47.05 41.94C46.75 42.35 46.45 42.76 46.15 43.17C46.37 43.26 46.52 43.47 46.52 43.72C46.52 44.05 46.25 44.33 45.91 44.33C45.73 44.33 45.56 44.24 45.45 44.11C44.78 44.99 44.09 45.87 43.38 46.72C42.24 48.07 41.06 49.39 39.81 50.65C39.24 51.23 38.66 51.8 38.09 52.37C38.26 52.21 38.56 51.93 39.02 51.55C40.12 50.61 41.24 49.68 42.39 48.8C43.48 47.99 44.58 47.2 45.8 46.6C45.9 46.4 46.1 46.26 46.34 46.26C46.39 46.26 46.44 46.27 46.49 46.28C46.68 46.21 46.86 46.16 47.07 46.14C49.49 45.99 49.03 46.31 46.79 46.48C46.88 46.58 46.94 46.72 46.94 46.87C46.94 47.2 46.67 47.47 46.34 47.47C46 47.47 45.73 47.2 45.73 46.87C45.73 46.8 45.75 46.75 45.77 46.69L45.26 46.91C44.86 47.07 43.82 47.84 42.99 48.46C41.84 49.34 40.71 50.26 39.61 51.21C38.47 52.18 37.81 52.68 37.93 52.54C37.36 53.09 36.8 53.64 36.23 54.18C35.15 55.21 34.06 56.22 32.94 57.2C31.95 58.07 30.94 58.94 29.96 59.83C29.03 60.67 28.09 61.49 27.16 62.32C26.29 63.1 25.43 63.89 24.62 64.72C23.9 65.46 23.17 66.2 22.5 66.98C21.98 67.59 21.45 68.21 20.96 68.85L20.44 69.55C20.41 69.59 20.38 69.64 20.36 69.69C19.9 70.46 19.45 71.23 19.02 72.01L18.98 72.11C18.94 72.23 18.9 72.36 18.84 72.48C18.49 73.25 18.19 73.79 17.97 74.11C17.65 74.82 17.36 75.55 17.15 76.31C16.92 77.14 16.71 77.97 16.62 78.83C16.54 79.44 16.47 80.04 16.44 80.65L16.58 80.35C16.9 79.74 17.29 79.16 17.67 78.59C17.98 78.11 18.33 77.67 18.69 77.23C18.61 77.13 18.57 77.01 18.57 76.87C18.57 76.54 18.84 76.26 19.18 76.26C19.29 76.26 19.39 76.3 19.48 76.35C20.06 75.75 20.68 75.19 21.3 74.63C22.11 73.89 22.97 73.2 23.83 72.52C24.87 71.72 25.97 71.01 27.06 70.3C28.31 69.48 29.59 68.71 30.87 67.94L31.17 67.77C30.91 67.7 30.73 67.47 30.73 67.19C30.73 66.86 31 66.58 31.34 66.58C31.67 66.58 31.94 66.86 31.94 67.19C31.94 67.53 31.67 67.79 31.34 67.79C31.29 67.79 31.23 67.79 31.19 67.78C30.13 68.41 29.09 69.06 28.06 69.72C26.96 70.44 25.87 71.14 24.85 71.94C23.98 72.62 23.12 73.3 22.31 74.04C21.58 74.7 20.84 75.35 20.18 76.09L19.73 76.62C19.76 76.7 19.78 76.78 19.78 76.87C19.78 77.2 19.51 77.47 19.18 77.47C19.14 77.47 19.1 77.47 19.07 77.47C18.94 77.64 18.81 77.82 18.69 78C18.31 78.57 17.93 79.15 17.61 79.76C17.38 80.23 17.15 80.69 17 81.2C16.93 81.43 16.86 81.66 16.79 81.88C16.88 81.94 16.93 82.04 16.93 82.16C16.93 82.33 16.8 82.48 16.63 82.49C16.58 82.79 16.5 83.09 16.5 83.4C16.52 83.57 16.51 83.75 16.55 83.92C16.56 84.02 16.57 84.13 16.6 84.22C16.87 85.43 18.97 88.62 18.44 89.53ZM18.69 84.52C18.69 84.34 18.84 84.19 19.03 84.19C19.21 84.19 19.36 84.34 19.36 84.52C19.36 84.7 19.21 84.85 19.03 84.85C18.84 84.85 18.69 84.7 18.69 84.52ZM13.79 82.56C13.79 82.22 14.06 81.95 14.4 81.95C14.73 81.95 15 82.22 15 82.56C15 82.89 14.73 83.16 14.4 83.16C14.06 83.16 13.79 82.89 13.79 82.56ZM17.06 81.83C17.06 81.49 17.33 81.23 17.66 81.23C18 81.23 18.27 81.49 18.27 81.83C18.27 82.16 18 82.44 17.66 82.44C17.33 82.44 17.06 82.16 17.06 81.83ZM13.07 80.41C13.07 80.22 13.22 80.07 13.4 80.07C13.58 80.07 13.73 80.22 13.73 80.41C13.73 80.59 13.58 80.74 13.4 80.74C13.22 80.74 13.07 80.59 13.07 80.41ZM14.58 79.86C14.58 79.68 14.73 79.53 14.91 79.53C15.1 79.53 15.24 79.68 15.24 79.86C15.24 80.05 15.1 80.19 14.91 80.19C14.73 80.19 14.58 80.05 14.58 79.86ZM20.02 78.87C20.02 78.53 20.29 78.26 20.62 78.26C20.96 78.26 21.23 78.53 21.23 78.87C21.23 79.2 20.96 79.47 20.62 79.47C20.29 79.47 20.02 79.2 20.02 78.87ZM21.71 78.11C21.71 77.92 21.86 77.78 22.05 77.78C22.23 77.78 22.38 77.92 22.38 78.11C22.38 78.29 22.23 78.44 22.05 78.44C21.86 78.44 21.71 78.29 21.71 78.11ZM13.12 77.18C13.12 76.84 13.4 76.57 13.73 76.57C14.07 76.57 14.34 76.84 14.34 77.18C14.34 77.51 14.07 77.78 13.73 77.78C13.4 77.78 13.12 77.51 13.12 77.18ZM14.52 75.41C14.52 75.08 14.79 74.81 15.12 74.81C15.46 74.81 15.72 75.08 15.72 75.41C15.72 75.75 15.46 76.02 15.12 76.02C14.79 76.02 14.52 75.75 14.52 75.41ZM22.63 75.45C22.63 75.27 22.77 75.12 22.96 75.12C23.14 75.12 23.29 75.27 23.29 75.45C23.29 75.63 23.14 75.78 22.96 75.78C22.77 75.78 22.63 75.63 22.63 75.45ZM26.73 74.63C26.73 74.3 27.01 74.03 27.34 74.03C27.67 74.03 27.95 74.3 27.95 74.63C27.95 74.96 27.67 75.24 27.34 75.24C27.01 75.24 26.73 74.96 26.73 74.63ZM20.26 73.91C20.26 73.57 20.54 73.3 20.87 73.3C21.21 73.3 21.47 73.57 21.47 73.91C21.47 74.24 21.21 74.51 20.87 74.51C20.54 74.51 20.26 74.24 20.26 73.91ZM23.24 74.36C23.22 74.36 23.59 74.06 24.46 73.43C24.93 73.08 25.39 72.71 25.9 72.4C27.02 71.74 28.13 71.07 29.32 70.54C30.17 70.16 31.02 69.77 31.89 69.44C32.49 69.2 33.09 68.95 33.7 68.72L34.49 68.42C36.87 67.51 36.25 67.87 33.87 68.78L33.09 69.07C32.48 69.31 31.88 69.55 31.27 69.79C30.73 70 30.2 70.23 29.67 70.47C29.99 70.48 30.25 70.74 30.25 71.06C30.25 71.39 29.97 71.67 29.64 71.67C29.31 71.67 29.04 71.39 29.04 71.06C29.04 70.91 29.09 70.78 29.18 70.68L28.71 70.88C28.04 71.15 26.72 71.93 26.51 72.06C26 72.36 25.54 72.73 25.06 73.08C23.95 73.9 23.27 74.37 23.24 74.36L23.24 74.36ZM14.21 73.12C14.21 72.78 14.49 72.52 14.82 72.52C15.15 72.52 15.43 72.78 15.43 73.12C15.43 73.45 15.15 73.73 14.82 73.73C14.49 73.73 14.21 73.45 14.21 73.12ZM27.7 72.73C27.7 72.54 27.85 72.4 28.03 72.4C28.22 72.4 28.37 72.54 28.37 72.73C28.37 72.91 28.22 73.06 28.03 73.06C27.85 73.06 27.7 72.91 27.7 72.73ZM16.45 71.6C16.45 71.27 16.73 71 17.06 71C17.4 71 17.66 71.27 17.66 71.6C17.66 71.94 17.4 72.21 17.06 72.21C16.73 72.21 16.45 71.94 16.45 71.6ZM19.72 71.43C19.72 71.09 19.99 70.82 20.33 70.82C20.66 70.82 20.93 71.09 20.93 71.43C20.93 71.76 20.66 72.03 20.33 72.03C19.99 72.03 19.72 71.76 19.72 71.43ZM11.79 71.22C11.79 71.03 11.94 70.88 12.13 70.88C12.31 70.88 12.46 71.03 12.46 71.22C12.46 71.4 12.31 71.55 12.13 71.55C11.94 71.55 11.79 71.4 11.79 71.22ZM32.91 70.06C32.91 69.88 33.05 69.73 33.24 69.73C33.42 69.73 33.57 69.88 33.57 70.06C33.57 70.25 33.42 70.4 33.24 70.4C33.05 70.4 32.91 70.25 32.91 70.06ZM25.4 69.73C25.4 69.4 25.68 69.13 26.01 69.13C26.35 69.13 26.61 69.4 26.61 69.73C26.61 70.06 26.35 70.34 26.01 70.34C25.68 70.34 25.4 70.06 25.4 69.73ZM36.69 69.79C36.5 69.79 36.36 69.65 36.36 69.46C36.36 69.4 36.37 69.34 36.4 69.29C36.35 69.3 36.3 69.31 36.24 69.31C35.9 69.31 35.63 69.04 35.63 68.71C35.63 68.37 35.9 68.1 36.24 68.1C36.57 68.1 36.84 68.37 36.84 68.71C36.84 68.87 36.77 69.02 36.66 69.13L36.69 69.13C36.87 69.13 37.02 69.28 37.02 69.46C37.02 69.65 36.87 69.79 36.69 69.79L36.69 69.79ZM38.17 67.79C38.17 67.46 38.44 67.19 38.77 67.19C39.11 67.19 39.38 67.46 39.38 67.79C39.38 68.13 39.11 68.4 38.77 68.4C38.44 68.4 38.17 68.13 38.17 67.79ZM17.54 67.79C17.54 67.46 17.82 67.19 18.15 67.19C18.48 67.19 18.75 67.46 18.75 67.79C18.75 68.13 18.48 68.4 18.15 68.4C17.82 68.4 17.54 68.13 17.54 67.79ZM22.32 67.74C22.32 67.4 22.59 67.13 22.92 67.13C23.26 67.13 23.53 67.4 23.53 67.74C23.53 68.07 23.26 68.34 22.92 68.34C22.59 68.34 22.32 68.07 22.32 67.74ZM39.98 67.95C39.98 67.77 40.13 67.62 40.31 67.62C40.5 67.62 40.65 67.76 40.65 67.95C40.65 68.13 40.5 68.28 40.31 68.28C40.13 68.28 39.98 68.13 39.98 67.95ZM26.98 67.52C26.98 67.34 27.13 67.19 27.31 67.19C27.5 67.19 27.65 67.34 27.65 67.52C27.65 67.71 27.5 67.86 27.31 67.86C27.13 67.86 26.98 67.71 26.98 67.52ZM21.78 67.46C21.78 67.46 21.78 67.46 21.78 67.46C21.78 67.46 21.78 67.46 21.78 67.46L21.78 67.46ZM21.78 67.46C21.81 67.42 21.85 67.38 21.88 67.33C22.49 66.63 23.14 65.97 23.78 65.3C23.7 65.28 23.62 65.23 23.58 65.16C23.15 65.62 22.75 66.1 22.38 66.61C22.17 66.89 21.98 67.17 21.78 67.46ZM33.28 66.55C33.29 66.54 33.3 66.54 33.3 66.54C33.3 66.54 33.29 66.54 33.28 66.55L33.28 66.55ZM33.3 66.54C34.28 65.98 35.25 65.43 36.23 64.88C36.35 64.82 36.54 64.71 36.7 64.62C36.47 64.54 36.29 64.31 36.29 64.05C36.29 63.71 36.57 63.44 36.9 63.44C37.23 63.44 37.5 63.71 37.5 64.05C37.5 64.09 37.5 64.14 37.49 64.18L39.56 63.01C38.87 63.41 38.17 63.81 37.48 64.2C37.41 64.46 37.18 64.65 36.9 64.65C36.84 64.65 36.78 64.64 36.73 64.63C36.24 64.9 35.74 65.18 35.24 65.45C34.54 65.84 33.88 66.21 33.3 66.54ZM40.71 66.13C40.71 65.95 40.86 65.8 41.04 65.8C41.23 65.8 41.38 65.95 41.38 66.13C41.38 66.32 41.23 66.46 41.04 66.46C40.86 66.46 40.71 66.32 40.71 66.13ZM17.9 65.56C17.57 65.56 17.3 65.28 17.3 64.95C17.3 64.62 17.57 64.35 17.9 64.35C18.01 64.35 18.12 64.38 18.21 64.43C18.21 64.25 18.36 64.1 18.54 64.1C18.72 64.1 18.87 64.26 18.87 64.44C18.87 64.63 18.72 64.77 18.54 64.77C18.52 64.77 18.5 64.77 18.48 64.77C18.49 64.83 18.51 64.89 18.51 64.95C18.51 65.28 18.24 65.56 17.9 65.56L17.9 65.56ZM15.6 65.16C15.6 64.98 15.75 64.83 15.94 64.83C16.12 64.83 16.27 64.98 16.27 65.16C16.27 65.35 16.12 65.5 15.94 65.5C15.75 65.5 15.6 65.35 15.6 65.16ZM19.54 62.6C19.54 62.26 19.81 61.99 20.14 61.99C20.48 61.99 20.74 62.26 20.74 62.6C20.74 62.93 20.48 63.2 20.14 63.2C19.81 63.2 19.54 62.93 19.54 62.6ZM45.37 62.75C45.37 62.56 45.52 62.41 45.7 62.41C45.89 62.41 46.03 62.56 46.03 62.75C46.03 62.93 45.89 63.08 45.7 63.08C45.52 63.08 45.37 62.93 45.37 62.75ZM39.8 62.87L39.83 62.85C39.82 62.86 39.81 62.87 39.8 62.87L39.8 62.87ZM39.83 62.85C41.31 61.99 42.71 61.02 44.07 59.99C45.12 59.18 46.12 58.31 47.07 57.41C47.08 57.4 47.08 57.38 47.08 57.37C46.6 57.79 46.1 58.17 45.6 58.57C43.7 60.09 43.09 60.44 45 58.91C45.55 58.48 46.1 58.05 46.63 57.59C47.35 56.96 48.08 56.33 48.79 55.7C50.06 54.34 51.17 52.85 52.22 51.32C53.47 49.55 54.39 47.59 55.14 45.56C55.93 43.35 56.25 41.03 56.42 38.71C56.63 36.63 56.45 34.56 56.19 32.49C55.7 28.64 56.65 28.09 57.14 31.95C57.41 34.01 57.59 36.08 57.38 38.16C57.23 40.17 56.97 42.18 56.39 44.12C56.5 44.02 56.64 43.96 56.8 43.96C57.14 43.96 57.4 44.23 57.4 44.57C57.4 44.9 57.14 45.18 56.8 45.18C56.51 45.18 56.26 44.96 56.21 44.69C56.17 44.79 56.15 44.9 56.11 45C55.36 47.03 54.44 48.98 53.19 50.75C52.49 51.77 51.77 52.76 51 53.72C51.55 53.21 52.11 52.71 52.65 52.19L53.33 51.5C53.38 51.35 53.49 51.24 53.63 51.17C54.08 50.68 54.5 50.17 54.87 49.61C55.44 48.77 56 47.93 56.55 47.07C57.09 46.22 57.63 45.36 58.15 44.5C58.6 43.75 59.05 43 59.45 42.23C59.67 41.76 59.91 41.3 60.07 40.8C60.14 40.61 60.19 40.42 60.28 40.24C60.51 39.78 60.71 39.42 60.89 39.12C60.69 39.03 60.55 38.82 60.55 38.58C60.55 38.26 60.8 38 61.12 37.98C61.03 37.92 60.97 37.82 60.97 37.7C60.97 37.52 61.12 37.37 61.31 37.37C61.49 37.37 61.64 37.52 61.64 37.7C61.64 37.86 61.53 37.98 61.39 38.02C61.61 38.11 61.76 38.33 61.76 38.58C61.76 38.88 61.54 39.13 61.25 39.17C61.16 39.37 61.04 39.61 60.9 39.88C60.81 40.06 60.76 40.25 60.69 40.44C60.53 40.94 60.29 41.4 60.07 41.87L59.83 42.32C59.94 42.21 60.08 42.15 60.25 42.15C60.58 42.15 60.85 42.42 60.85 42.75C60.85 43.08 60.58 43.36 60.25 43.36C59.91 43.36 59.64 43.08 59.64 42.75C59.64 42.71 59.65 42.67 59.66 42.63C59.37 43.14 59.06 43.64 58.76 44.14C58.24 45.01 57.7 45.86 57.16 46.72C56.61 47.57 56.04 48.42 55.47 49.26C55.04 49.93 54.52 50.53 53.97 51.11C54.27 51.14 54.5 51.4 54.5 51.71C54.5 52.04 54.23 52.31 53.9 52.31C53.59 52.31 53.34 52.09 53.3 51.79L53.25 51.84C52.3 52.75 51.33 53.61 50.35 54.49L50.3 54.54C49.99 54.9 49.66 55.25 49.33 55.59C48.87 56.06 48.4 56.51 47.92 56.96C48.13 57.06 48.27 57.27 48.27 57.51C48.27 57.85 48 58.11 47.67 58.11C47.41 58.11 47.19 57.95 47.1 57.72C46.44 58.31 45.76 58.87 45.05 59.42C43.66 60.47 42.22 61.47 40.7 62.35L39.83 62.85ZM36.12 62.38C36.12 62.2 36.26 62.05 36.45 62.05C36.63 62.05 36.78 62.2 36.78 62.38C36.78 62.57 36.63 62.72 36.45 62.72C36.26 62.72 36.12 62.57 36.12 62.38ZM42.5 62.47L42.44 62.47C42.25 62.47 42.1 62.32 42.1 62.14C42.1 61.95 42.25 61.8 42.44 61.8C42.62 61.8 42.77 61.95 42.77 62.14C42.77 62.3 42.65 62.44 42.5 62.47ZM28.49 61.68C28.49 61.35 28.76 61.08 29.09 61.08C29.43 61.08 29.7 61.35 29.7 61.68C29.7 62.02 29.43 62.29 29.09 62.29C28.76 62.29 28.49 62.02 28.49 61.68ZM30.61 61.78C30.61 61.59 30.76 61.44 30.94 61.44C31.12 61.44 31.27 61.59 31.27 61.78C31.27 61.96 31.12 62.11 30.94 62.11C30.76 62.11 30.61 61.96 30.61 61.78ZM39.38 60.26C39.38 60.08 39.53 59.93 39.71 59.93C39.9 59.93 40.05 60.08 40.05 60.26C40.05 60.45 39.9 60.6 39.71 60.6C39.53 60.6 39.38 60.45 39.38 60.26ZM42.1 59.81C42.1 59.48 42.37 59.2 42.7 59.2C43.04 59.2 43.31 59.48 43.31 59.81C43.31 60.15 43.04 60.42 42.7 60.42C42.37 60.42 42.1 60.15 42.1 59.81ZM20.74 59.57C20.74 59.24 21.02 58.96 21.35 58.96C21.69 58.96 21.96 59.24 21.96 59.57C21.96 59.9 21.69 60.17 21.35 60.17C21.02 60.17 20.74 59.9 20.74 59.57ZM49.66 59.24C49.66 59.05 49.81 58.91 49.99 58.91C50.18 58.91 50.33 59.05 50.33 59.24C50.33 59.42 50.18 59.57 49.99 59.57C49.81 59.57 49.66 59.42 49.66 59.24ZM28.07 58.84C28.07 58.51 28.34 58.24 28.67 58.24C29 58.24 29.28 58.51 29.28 58.84C29.28 59.18 29 59.45 28.67 59.45C28.34 59.45 28.07 59.18 28.07 58.84ZM19.3 58.09C19.3 57.9 19.44 57.75 19.63 57.75C19.81 57.75 19.96 57.9 19.96 58.09C19.96 58.27 19.81 58.42 19.63 58.42C19.44 58.42 19.3 58.27 19.3 58.09ZM43.43 57.75C43.43 57.42 43.7 57.15 44.03 57.15C44.37 57.15 44.64 57.42 44.64 57.75C44.64 58.09 44.37 58.36 44.03 58.36C43.7 58.36 43.43 58.09 43.43 57.75ZM22.32 57.75C21.99 57.75 21.71 57.49 21.71 57.15C21.71 56.92 21.85 56.72 22.04 56.62C22.03 56.59 22.02 56.55 22.02 56.52C22.02 56.33 22.17 56.18 22.35 56.18C22.53 56.18 22.68 56.33 22.68 56.52C22.68 56.56 22.68 56.61 22.66 56.65C22.82 56.76 22.92 56.94 22.92 57.15C22.92 57.49 22.66 57.75 22.32 57.75L22.32 57.75ZM34.78 56.61C34.78 56.27 35.05 56 35.39 56C35.72 56 35.99 56.27 35.99 56.61C35.99 56.94 35.72 57.21 35.39 57.21C35.05 57.21 34.78 56.94 34.78 56.61ZM24.24 56.99C24.12 57 24.1 56.49 24.31 55.38C24.55 54.12 24.78 52.85 24.92 51.57C25.07 49.99 25.17 48.4 25.11 46.82C25.05 45.63 24.97 44.45 24.77 43.27C24.64 42.48 24.51 41.69 24.31 40.91C24.22 40.61 24.16 40.31 24.03 40.02C22.94 37.71 23.6 37.33 24.65 39.66C24.78 39.95 24.84 40.26 24.93 40.56C25.13 41.34 25.25 42.13 25.38 42.92C25.58 44.09 25.65 45.28 25.71 46.47C25.77 48.06 25.66 49.65 25.5 51.23C25.36 52.51 25.13 53.78 24.89 55.05C24.66 56.29 24.38 56.98 24.24 56.99L24.24 56.99ZM36.84 56.64C36.84 56.45 36.98 56.3 37.17 56.3C37.35 56.3 37.5 56.45 37.5 56.64C37.5 56.82 37.35 56.97 37.17 56.97C36.98 56.97 36.84 56.82 36.84 56.64ZM26.92 56.4C26.92 56.21 27.07 56.06 27.25 56.06C27.43 56.06 27.58 56.21 27.58 56.4C27.58 56.58 27.43 56.73 27.25 56.73C27.07 56.73 26.92 56.58 26.92 56.4ZM30.61 55.03C30.61 54.7 30.88 54.43 31.22 54.43C31.55 54.43 31.82 54.7 31.82 55.03C31.82 55.37 31.55 55.64 31.22 55.64C30.88 55.64 30.61 55.37 30.61 55.03ZM47.48 54.55C47.48 54.22 47.76 53.94 48.09 53.94C48.43 53.94 48.69 54.22 48.69 54.55C48.69 54.88 48.43 55.15 48.09 55.15C47.76 55.15 47.48 54.88 47.48 54.55ZM54.56 53.43C54.56 53.24 54.71 53.09 54.89 53.09C55.08 53.09 55.23 53.24 55.23 53.43C55.23 53.61 55.08 53.76 54.89 53.76C54.71 53.76 54.56 53.61 54.56 53.43ZM42.77 50.32C42.77 49.98 43.04 49.71 43.37 49.71C43.7 49.71 43.98 49.98 43.98 50.32C43.98 50.65 43.7 50.92 43.37 50.92C43.04 50.92 42.77 50.65 42.77 50.32ZM49.48 49.62C49.48 49.43 49.63 49.28 49.81 49.28C49.99 49.28 50.15 49.43 50.15 49.62C50.15 49.8 49.99 49.95 49.81 49.95C49.63 49.95 49.48 49.8 49.48 49.62ZM19.78 48.92C19.78 48.59 20.05 48.32 20.38 48.32C20.72 48.32 20.99 48.59 20.99 48.92C20.99 49.26 20.72 49.53 20.38 49.53C20.05 49.53 19.78 49.26 19.78 48.92ZM35.08 48.68C35.08 48.35 35.36 48.07 35.69 48.07C36.02 48.07 36.29 48.35 36.29 48.68C36.29 49.02 36.02 49.28 35.69 49.28C35.36 49.28 35.08 49.02 35.08 48.68ZM58.68 48.23C58.68 48.05 58.82 47.9 59.01 47.9C59.19 47.9 59.34 48.05 59.34 48.23C59.34 48.41 59.19 48.56 59.01 48.56C58.82 48.56 58.68 48.41 58.68 48.23ZM57.64 47.47C57.64 47.14 57.92 46.87 58.25 46.87C58.59 46.87 58.86 47.14 58.86 47.47C58.86 47.81 58.59 48.07 58.25 48.07C57.92 48.07 57.64 47.81 57.64 47.47ZM38.84 47.29C38.84 46.96 39.1 46.68 39.44 46.68C39.77 46.68 40.05 46.96 40.05 47.29C40.05 47.62 39.77 47.9 39.44 47.9C39.1 47.9 38.84 47.62 38.84 47.29ZM28.85 46.63C28.85 46.29 29.12 46.02 29.46 46.02C29.79 46.02 30.06 46.29 30.06 46.63C30.06 46.96 29.79 47.23 29.46 47.23C29.12 47.23 28.85 46.96 28.85 46.63ZM22.8 44.29C22.8 44.11 22.95 43.96 23.13 43.96C23.32 43.96 23.47 44.11 23.47 44.29C23.47 44.48 23.32 44.63 23.13 44.63C22.95 44.63 22.8 44.48 22.8 44.29ZM26.01 43.9C26.01 43.57 26.28 43.3 26.61 43.3C26.95 43.3 27.22 43.57 27.22 43.9C27.22 44.24 26.95 44.5 26.61 44.5C26.28 44.5 26.01 44.24 26.01 43.9ZM52.69 43.72C52.69 43.39 52.95 43.12 53.29 43.12C53.62 43.12 53.9 43.39 53.9 43.72C53.9 44.05 53.62 44.33 53.29 44.33C52.95 44.33 52.69 44.05 52.69 43.72ZM30 43.39C30 43.2 30.16 43.05 30.34 43.05C30.52 43.05 30.67 43.2 30.67 43.39C30.67 43.57 30.52 43.72 30.34 43.72C30.16 43.72 30 43.57 30 43.39ZM38.11 40.57C38.11 40.24 38.38 39.97 38.72 39.97C39.05 39.97 39.32 40.24 39.32 40.57C39.32 40.91 39.05 41.18 38.72 41.18C38.38 41.18 38.11 40.91 38.11 40.57ZM45.25 40.52C45.25 40.18 45.52 39.91 45.85 39.91C46.18 39.91 46.46 40.18 46.46 40.52C46.46 40.85 46.18 41.12 45.85 41.12C45.52 41.12 45.25 40.85 45.25 40.52ZM57.83 39.85C57.83 39.52 58.1 39.24 58.44 39.24C58.77 39.24 59.04 39.52 59.04 39.85C59.04 40.19 58.77 40.45 58.44 40.45C58.1 40.45 57.83 40.19 57.83 39.85ZM27.58 39.36C27.58 39.03 27.86 38.76 28.19 38.76C28.52 38.76 28.79 39.03 28.79 39.36C28.79 39.7 28.52 39.97 28.19 39.97C27.86 39.97 27.58 39.7 27.58 39.36ZM42.94 39.31C42.94 38.97 43.22 38.7 43.55 38.7C43.89 38.7 44.16 38.97 44.16 39.31C44.16 39.64 43.89 39.91 43.55 39.91C43.22 39.91 42.94 39.64 42.94 39.31ZM31.09 38.25C31.09 38.06 31.24 37.91 31.43 37.91C31.61 37.91 31.76 38.06 31.76 38.25C31.76 38.43 31.61 38.58 31.43 38.58C31.24 38.58 31.09 38.43 31.09 38.25ZM22.38 37.28C22.38 37.1 22.53 36.95 22.71 36.95C22.89 36.95 23.05 37.09 23.05 37.28C23.05 37.46 22.89 37.61 22.71 37.61C22.53 37.61 22.38 37.46 22.38 37.28ZM44.34 37.16C44.34 36.97 44.49 36.83 44.67 36.83C44.85 36.83 45 36.97 45 37.16C45 37.34 44.85 37.49 44.67 37.49C44.49 37.49 44.34 37.34 44.34 37.16ZM53.78 36.34C53.78 36 54.04 35.74 54.38 35.74C54.71 35.74 54.99 36 54.99 36.34C54.99 36.67 54.71 36.95 54.38 36.95C54.04 36.95 53.78 36.67 53.78 36.34ZM37.99 36.37C37.99 36.19 38.14 36.04 38.32 36.04C38.5 36.04 38.65 36.19 38.65 36.37C38.65 36.56 38.5 36.71 38.32 36.71C38.14 36.71 37.99 36.56 37.99 36.37ZM61.76 35.83C61.76 35.65 61.91 35.5 62.09 35.5C62.27 35.5 62.42 35.65 62.42 35.83C62.42 36.01 62.27 36.16 62.09 36.16C61.91 36.16 61.76 36.01 61.76 35.83ZM38.47 35.43C38.47 35.1 38.74 34.83 39.08 34.83C39.41 34.83 39.68 35.1 39.68 35.43C39.68 35.77 39.41 36.04 39.08 36.04C38.74 36.04 38.47 35.77 38.47 35.43ZM48.15 35.25C48.15 34.92 48.42 34.65 48.76 34.65C49.09 34.65 49.36 34.92 49.36 35.25C49.36 35.58 49.09 35.86 48.76 35.86C48.42 35.86 48.15 35.58 48.15 35.25ZM52.57 34.68C52.57 34.49 52.72 34.34 52.9 34.34C53.08 34.34 53.23 34.49 53.23 34.68C53.23 34.86 53.08 35.01 52.9 35.01C52.72 35.01 52.57 34.86 52.57 34.68ZM61.33 34.22C61.33 33.89 61.61 33.62 61.94 33.62C62.28 33.62 62.54 33.89 62.54 34.22C62.54 34.56 62.28 34.83 61.94 34.83C61.61 34.83 61.33 34.56 61.33 34.22ZM29.85 34.83C29.67 34.83 29.52 34.68 29.52 34.49C29.52 34.31 29.67 34.16 29.85 34.16C30.03 34.16 30.18 34.31 30.18 34.49C30.18 34.65 30.07 34.79 29.92 34.83L29.85 34.83ZM57.4 33.53C57.4 33.35 57.55 33.19 57.74 33.19C57.92 33.19 58.07 33.35 58.07 33.53C58.07 33.72 57.92 33.86 57.74 33.86C57.55 33.86 57.4 33.72 57.4 33.53ZM32.91 32.65C32.91 32.31 33.18 32.05 33.51 32.05C33.85 32.05 34.11 32.31 34.11 32.65C34.11 32.98 33.85 33.26 33.51 33.26C33.18 33.26 32.91 32.98 32.91 32.65ZM53.66 32.44C53.66 32.26 53.8 32.1 53.99 32.1C54.17 32.1 54.32 32.26 54.32 32.44C54.32 32.63 54.17 32.78 53.99 32.78C53.8 32.78 53.66 32.63 53.66 32.44ZM44.03 31.93C43.7 31.93 43.43 31.65 43.43 31.32C43.43 30.98 43.7 30.72 44.03 30.72C44.2 30.72 44.36 30.79 44.47 30.9C44.51 30.76 44.64 30.65 44.79 30.65C44.97 30.65 45.12 30.8 45.12 30.99C45.12 31.17 44.97 31.32 44.79 31.32C44.73 31.32 44.68 31.31 44.63 31.28C44.64 31.3 44.64 31.31 44.64 31.32C44.64 31.65 44.37 31.93 44.03 31.93ZM50.21 30.87C50.21 30.68 50.35 30.53 50.54 30.53C50.72 30.53 50.87 30.68 50.87 30.87C50.87 31.05 50.72 31.2 50.54 31.2C50.35 31.2 50.21 31.05 50.21 30.87ZM60.49 30.75C60.49 30.56 60.64 30.41 60.83 30.41C61.01 30.41 61.16 30.56 61.16 30.75C61.16 30.93 61.01 31.08 60.83 31.08C60.64 31.08 60.49 30.93 60.49 30.75ZM57.64 30.41C57.64 30.08 57.92 29.81 58.25 29.81C58.59 29.81 58.86 30.08 58.86 30.41C58.86 30.75 58.59 31.01 58.25 31.01C57.92 31.01 57.64 30.75 57.64 30.41ZM32.36 30.23C32.36 29.9 32.64 29.63 32.97 29.63C33.3 29.63 33.57 29.9 33.57 30.23C33.57 30.56 33.3 30.84 32.97 30.84C32.64 30.84 32.36 30.56 32.36 30.23ZM37.59 29.87C37.5 29.81 37.44 29.71 37.44 29.59C37.44 29.5 37.48 29.42 37.54 29.36C37.63 29.13 37.85 28.96 38.11 28.96C38.44 28.96 38.72 29.23 38.72 29.57C38.72 29.9 38.44 30.17 38.11 30.17C37.89 30.17 37.7 30.05 37.59 29.87ZM51.05 29.02C51.05 28.69 51.32 28.42 51.66 28.42C51.99 28.42 52.26 28.69 52.26 29.02C52.26 29.35 51.99 29.63 51.66 29.63C51.32 29.63 51.05 29.35 51.05 29.02ZM28.73 28.42C28.73 28.09 29 27.81 29.34 27.81C29.67 27.81 29.94 28.09 29.94 28.42C29.94 28.75 29.67 29.02 29.34 29.02C29 29.02 28.73 28.75 28.73 28.42ZM39.2 26.81C39.2 26.63 39.35 26.48 39.53 26.48C39.71 26.48 39.86 26.63 39.86 26.81C39.86 27 39.71 27.15 39.53 27.15C39.35 27.15 39.2 27 39.2 26.81ZM59.58 26.69C59.58 26.51 59.73 26.36 59.91 26.36C60.1 26.36 60.25 26.51 60.25 26.69C60.25 26.88 60.1 27.03 59.91 27.03C59.73 27.03 59.58 26.88 59.58 26.69ZM31.94 26.63C31.94 26.45 32.09 26.3 32.27 26.3C32.45 26.3 32.6 26.45 32.6 26.63C32.6 26.81 32.45 26.96 32.27 26.96C32.09 26.96 31.94 26.81 31.94 26.63ZM55.35 25.24C55.35 25.05 55.49 24.91 55.68 24.91C55.86 24.91 56.01 25.05 56.01 25.24C56.01 25.42 55.86 25.57 55.68 25.57C55.49 25.57 55.35 25.42 55.35 25.24ZM56.38 24.48C56.38 24.15 56.65 23.88 56.98 23.88C57.31 23.88 57.59 24.15 57.59 24.48C57.59 24.82 57.31 25.09 56.98 25.09C56.65 25.09 56.38 24.82 56.38 24.48ZM34.9 24.03C34.9 23.85 35.06 23.7 35.24 23.7C35.42 23.7 35.57 23.85 35.57 24.03C35.57 24.21 35.42 24.36 35.24 24.36C35.06 24.36 34.9 24.21 34.9 24.03ZM37.38 23.52C37.38 23.19 37.66 22.91 37.99 22.91C38.32 22.91 38.59 23.19 38.59 23.52C38.59 23.85 38.32 24.12 37.99 24.12C37.66 24.12 37.38 23.85 37.38 23.52ZM32.18 22.55C32.18 22.22 32.45 21.94 32.79 21.94C33.12 21.94 33.39 22.22 33.39 22.55C33.39 22.89 33.12 23.15 32.79 23.15C32.45 23.15 32.18 22.89 32.18 22.55ZM49.9 22.64C49.9 22.45 50.05 22.3 50.23 22.3C50.42 22.3 50.57 22.45 50.57 22.64C50.57 22.82 50.42 22.98 50.23 22.98C50.05 22.98 49.9 22.82 49.9 22.64ZM41.8 22.3C41.8 21.97 42.07 21.7 42.4 21.7C42.73 21.7 43.01 21.97 43.01 22.3C43.01 22.64 42.73 22.91 42.4 22.91C42.07 22.91 41.8 22.64 41.8 22.3ZM52.5 21.97C52.5 21.79 52.65 21.64 52.84 21.64C53.02 21.64 53.17 21.79 53.17 21.97C53.17 22.16 53.02 22.3 52.84 22.3C52.65 22.3 52.5 22.16 52.5 21.97ZM40.83 20.59C40.83 20.4 40.98 20.25 41.16 20.25C41.35 20.25 41.5 20.4 41.5 20.59C41.5 20.77 41.35 20.92 41.16 20.92C40.98 20.92 40.83 20.77 40.83 20.59ZM27.58 20.13C27.58 19.79 27.86 19.53 28.19 19.53C28.52 19.53 28.79 19.79 28.79 20.13C28.79 20.46 28.52 20.73 28.19 20.73C27.86 20.73 27.58 20.46 27.58 20.13ZM50.63 18.95C50.63 18.77 50.78 18.62 50.96 18.62C51.15 18.62 51.29 18.77 51.29 18.95C51.29 19.14 51.15 19.29 50.96 19.29C50.78 19.29 50.63 19.14 50.63 18.95ZM52.5 18.25C52.5 17.92 52.78 17.65 53.11 17.65C53.45 17.65 53.71 17.92 53.71 18.25C53.71 18.59 53.45 18.86 53.11 18.86C52.78 18.86 52.5 18.59 52.5 18.25ZM27.04 17.62C27.04 17.43 27.19 17.28 27.37 17.28C27.55 17.28 27.7 17.43 27.7 17.62C27.7 17.8 27.55 17.95 27.37 17.95C27.19 17.95 27.04 17.8 27.04 17.62ZM52.81 16.35C52.81 16.17 52.96 16.02 53.14 16.02C53.32 16.02 53.47 16.17 53.47 16.35C53.47 16.53 53.32 16.68 53.14 16.68C52.96 16.68 52.81 16.53 52.81 16.35ZM36.17 15.44C36.17 15.26 36.32 15.11 36.5 15.11C36.69 15.11 36.84 15.26 36.84 15.44C36.84 15.62 36.69 15.77 36.5 15.77C36.32 15.77 36.17 15.62 36.17 15.44ZM27.65 13.81C27.65 13.62 27.79 13.47 27.98 13.47C28.16 13.47 28.31 13.62 28.31 13.81C28.31 13.99 28.16 14.14 27.98 14.14C27.79 14.14 27.65 13.99 27.65 13.81ZM29.34 12.6C29.34 12.41 29.48 12.26 29.67 12.26C29.85 12.26 30 12.41 30 12.6C30 12.78 29.85 12.93 29.67 12.93C29.48 12.93 29.34 12.78 29.34 12.6Z" />
		<path id="Layer" fill-rule="evenodd" class="shp8" d="M43.02 19.09C43.03 19.09 43.04 19.11 43.04 19.11L43.61 22.96L43.58 24.08C43.67 24.67 43.42 25.21 43.14 25.32L43.45 25.37C47.89 26.13 49.52 29.81 49.84 31.11C50.17 32.41 50.02 33.73 49.94 33.47C49.87 33.2 49.37 32.47 49.48 32.81C49.6 33.16 49.71 33.69 49.94 34C50.17 34.31 50.06 34.35 49.94 34.65C49.83 34.96 49.65 34.93 49.79 35.41L50.05 35.97C50.21 35.9 50.32 35.82 50.39 35.66C50.45 35.53 50.5 35.51 50.54 35.48C50.47 35.56 50.37 35.72 50.4 35.77C50.46 35.68 50.59 35.62 50.66 35.59C50.58 35.63 50.5 35.74 50.49 35.75C50.43 35.84 50.53 35.91 50.66 35.85C50.8 35.8 50.5 35.99 50.4 36.02C50.31 36.05 50.25 36.17 50.37 36.17C50.5 36.17 50.53 36.13 50.64 36.2C50.75 36.27 50.47 36.17 50.32 36.21C50.27 36.22 50.22 36.23 50.17 36.22C50.34 36.53 50.49 36.67 50.84 36.93C51.41 37.33 52.31 38.09 52.74 38.47C53.17 38.85 53.98 39.42 54.07 39.88C54.15 40.34 53.93 40.83 53.47 41.18C53.01 41.53 52.28 41.77 52.17 41.96C52.06 42.15 51.84 42.5 51.93 43.13C52.01 43.75 52.06 43.88 52.06 44.16C52.06 44.43 51.6 44.73 51.63 44.83C51.66 44.94 52.06 45.13 52.09 45.43C52.12 45.73 51.98 46.13 51.84 46.21C51.71 46.3 51.47 46.43 51.44 47C51.41 47.57 51.52 47.73 51.79 48.43C52.06 49.14 52.04 49.92 51.55 50.57C51.06 51.22 50.3 51.33 49.79 51.39C49.27 51.44 45.84 51.55 45.32 51.87C44.81 52.2 43.72 53.74 42.72 55.2C41.72 56.66 39.53 60.18 39.47 60.56C39.42 60.94 39.85 61.35 40.42 62.84C40.99 64.33 42.45 66.82 43.34 68.31C44.24 69.8 50.82 79.84 50.82 81.9C50.82 83.95 37.28 82.44 31.43 73.02C25.58 63.6 19.84 66.84 20.28 65C20.71 63.16 23.2 60.45 23.74 59.8C24.28 59.15 24.93 58.4 25.48 58.61C26.02 58.83 26.88 55.91 28.18 54.61C29.48 53.31 30.24 53.09 30.67 52.33C31.11 51.57 31 51.79 30.35 51.58C29.7 51.36 29.48 50.49 29.27 49.84C29.05 49.19 29.05 47.89 26.99 47.03C24.94 46.16 23.2 42.8 23.53 38.69C23.85 34.57 25.26 30.78 26.23 30.13C27.21 29.48 26.99 28.51 28.51 27.97C28.95 27.81 29.18 27.7 29.35 27.59L29.18 27.62C28.88 27.67 28.42 27.22 28.32 26.58L27.92 25.48L27.58 23.28C27.58 23.28 27.58 23.26 27.6 23.25C27.62 23.24 27.67 23.28 27.79 23.53C27.94 23.82 28.34 24.52 28.6 24.96L31.06 24.55C31.06 24.55 31.05 24.28 31.04 23.93L30.7 23.97C30.62 23.98 30.53 23.95 30.48 23.88C30.43 23.82 30.42 23.73 30.45 23.65C30.48 23.57 30.56 23.52 30.64 23.51L31.03 23.46C31.03 22.94 31.05 22.44 31.16 22.42C31.26 22.4 31.44 22.89 31.61 23.38L31.95 23.34L31.96 23.34C32.09 23.32 32.2 23.42 32.22 23.55C32.23 23.68 32.13 23.79 32.01 23.8L31.74 23.83C31.84 24.16 31.91 24.42 31.91 24.42L35.12 23.89C35.12 23.89 35.11 23.61 35.11 23.25L34.75 23.29C34.66 23.31 34.57 23.27 34.52 23.2C34.46 23.13 34.45 23.03 34.48 22.95C34.52 22.86 34.6 22.81 34.69 22.8L35.11 22.75C35.13 22.19 35.17 21.63 35.32 21.61C35.46 21.59 35.7 22.12 35.9 22.65L36.29 22.61L36.31 22.6C36.44 22.6 36.56 22.7 36.57 22.83C36.58 22.96 36.48 23.08 36.35 23.1L36.07 23.13C36.18 23.45 36.26 23.7 36.26 23.7L39.39 23.19C39.39 23.19 39.37 22.9 39.36 22.53L38.95 22.58C38.87 22.6 38.78 22.56 38.73 22.5C38.68 22.43 38.67 22.34 38.7 22.26C38.74 22.18 38.81 22.13 38.89 22.12L39.35 22.06C39.35 21.57 39.38 21.09 39.48 21.08C39.58 21.06 39.75 21.51 39.91 21.99L40.2 21.95L40.21 21.95C40.34 21.94 40.46 22.03 40.47 22.16C40.48 22.29 40.39 22.4 40.26 22.41L40.05 22.44C40.15 22.78 40.23 23.05 40.23 23.05L42.81 22.62C42.92 22.11 42.87 19.73 42.91 19.42C42.95 19.14 42.99 19.09 43.02 19.09L43.02 19.09ZM50.58 35.44C50.57 35.46 50.56 35.47 50.54 35.48C50.57 35.44 50.59 35.42 50.58 35.44Z" />
		<path id="Layer" fill-rule="evenodd" class="shp9" d="M65.07 18.33L65.07 18.54L65 18.54C64.88 18.55 64.77 18.55 64.6 18.55C62.75 18.55 61.35 18.05 60.56 17.14L60.02 16.5C59.2 16.22 58.83 15.99 58.37 15.5C57.69 14.76 57.34 13.81 57.34 12.68C57.34 10.32 58.92 8.65 61.13 8.65C63.35 8.65 64.92 10.32 64.92 12.65C64.92 13.94 64.48 14.99 63.62 15.76C63.09 16.22 62.67 16.42 61.89 16.57C62.82 17.79 63.75 18.3 65.07 18.33M61.17 9.07C60.49 9.07 59.95 9.31 59.47 9.82C59 10.36 58.66 11.49 58.66 12.61C58.66 13.96 59.03 15.12 59.65 15.67C60.07 16.04 60.58 16.23 61.13 16.23C61.77 16.23 62.37 15.97 62.8 15.49C63.26 14.96 63.6 13.78 63.6 12.63C63.6 11.32 63.23 10.21 62.6 9.65C62.2 9.29 61.66 9.07 61.17 9.07L61.17 9.07Z" />
		<path id="Layer" class="shp10" d="M11.22 15.44C10.47 13.55 11 11.17 12.53 10.37C14.06 9.57 15.95 10.43 16.76 12.3C16.99 12.83 17.12 13.42 17.16 14C17.21 13.42 17.34 12.83 17.57 12.3C18.38 10.43 20.28 9.57 21.81 10.37C23.34 11.17 23.76 13.52 23.11 15.44C22 18.76 18.65 20.68 17.16 24.52C15.94 20.7 12.52 18.71 11.22 15.44L11.22 15.44Z" />
	</g>
</svg>