<svg xmlns="http://www.w3.org/2000/svg" viewBox="0 0 73 102" width="73" height="102">
	<defs>
		<filter x="-50%" y="-50%" width="200%" height="200%" id="flt1"> <feGaussianBlur stdDeviation="0.85" /> </filter>
		<linearGradient id="grd1" gradientUnits="userSpaceOnUse"  x1="41.113" y1="26.474" x2="43.258" y2="-89.909">
			<stop offset="0" stop-color="#f3f3f3"  />
			<stop offset="1" stop-color="#8f8f8f"  />
		</linearGradient>
		<radialGradient id="grd2" gradientUnits="userSpaceOnUse"  cx="10.266" cy="91.605" r="13.273">
			<stop offset="0" stop-color="#ffffff"  />
			<stop offset="1" stop-color="#ffffff" stop-opacity="0" />
		</radialGradient>
		<radialGradient id="grd3" gradientUnits="userSpaceOnUse"  cx="62.184" cy="12.548" r="14.639">
			<stop offset="0" stop-color="#ffffff"  />
			<stop offset="1" stop-color="#ffffff" stop-opacity="0" />
		</radialGradient>
		<linearGradient id="grd4" gradientUnits="userSpaceOnUse"  x1="-58.91" y1="89.377" x2="-58.91" y2="85.691">
			<stop offset="0" stop-color="#d90000"  />
			<stop offset="1" stop-color="#950000"  />
		</linearGradient>
		<linearGradient id="grd5" gradientUnits="userSpaceOnUse"  x1="-162.961" y1="13.718" x2="-162.961" y2="10.44">
			<stop offset="0" stop-color="#d90000"  />
			<stop offset="1" stop-color="#950000"  />
		</linearGradient>
		<radialGradient id="grd6" gradientUnits="userSpaceOnUse"  cx="17.85" cy="73.919" r="25.374">
			<stop offset="0" stop-color="#ffffff"  />
			<stop offset="1" stop-color="#ffffff" stop-opacity="0" />
		</radialGradient>
		<radialGradient id="grd7" gradientUnits="userSpaceOnUse"  cx="36.479" cy="24.17" r="9.813">
			<stop offset="0" stop-color="#ffffff"  />
			<stop offset="1" stop-color="#ffffff" stop-opacity="0" />
		</radialGradient>
		<linearGradient id="grd8" gradientUnits="userSpaceOnUse"  x1="-162.96" y1="26.549" x2="-162.96" y2="18.896">
			<stop offset="0" stop-color="#d90000"  />
			<stop offset="1" stop-color="#950000"  />
		</linearGradient>
		<radialGradient id="grd9" gradientUnits="userSpaceOnUse"  cx="36.479" cy="49.992" r="9.813">
			<stop offset="0" stop-color="#ffffff"  />
			<stop offset="1" stop-color="#ffffff" stop-opacity="0" />
		</radialGradient>
		<linearGradient id="grd10" gradientUnits="userSpaceOnUse"  x1="-162.96" y1="52.37" x2="-162.96" y2="44.72">
			<stop offset="0" stop-color="#d90000"  />
			<stop offset="1" stop-color="#950000"  />
		</linearGradient>
		<radialGradient id="grd11" gradientUnits="userSpaceOnUse"  cx="36.479" cy="77.636" r="9.813">
			<stop offset="0" stop-color="#ffffff"  />
			<stop offset="1" stop-color="#ffffff" stop-opacity="0" />
		</radialGradient>
		<linearGradient id="grd12" gradientUnits="userSpaceOnUse"  x1="-162.96" y1="80.01" x2="-162.96" y2="72.36">
			<stop offset="0" stop-color="#d90000"  />
			<stop offset="1" stop-color="#950000"  />
		</linearGradient>
	</defs>
	<style>
		tspan { white-space:pre }
		.shp0 { filter: url(#flt1);fill: #000000 } 
		.shp1 { fill: url(#grd1);stroke: #000000;stroke-width: 0.226 } 
		.shp2 { opacity: 0.467;fill: url(#grd2) } 
		.shp3 { opacity: 0.396;fill: url(#grd3) } 
		.shp4 { fill: none;stroke: #000000;stroke-width: 0.226 } 
		.shp5 { fill: url(#grd4);stroke: #a40000;stroke-linejoin:round;stroke-width: 0.165 } 
		.shp6 { fill: url(#grd5) } 
		.shp7 { fill: url(#grd6) } 
		.shp8 { opacity: 0.4;fill: url(#grd7) } 
		.shp9 { fill: url(#grd8);stroke: #a50000;stroke-linejoin:round;stroke-width: 0.343 } 
		.shp10 { opacity: 0.4;fill: url(#grd9) } 
		.shp11 { fill: url(#grd10);stroke: #a50000;stroke-linejoin:round;stroke-width: 0.343 } 
		.shp12 { opacity: 0.4;fill: url(#grd11) } 
		.shp13 { fill: url(#grd12);stroke: #a50000;stroke-linejoin:round;stroke-width: 0.343 } 
	</style>
	<g id="-e-Heart3">
		<g id="Layer">
			<path id="Layer" fill-rule="evenodd" class="shp0" d="M4.59 1.65L67.84 1.65C68.3 1.65 68.74 1.74 69.16 1.92C69.58 2.09 69.96 2.34 70.28 2.66C70.6 2.98 70.86 3.36 71.03 3.78C71.2 4.2 71.29 4.65 71.29 5.1L71.29 97.39C71.29 97.84 71.2 98.29 71.03 98.71C70.86 99.13 70.6 99.51 70.28 99.83C69.96 100.15 69.58 100.4 69.16 100.58C68.74 100.75 68.3 100.84 67.84 100.84L4.59 100.84C4.14 100.84 3.69 100.75 3.27 100.58C2.85 100.4 2.47 100.15 2.15 99.83C1.83 99.51 1.58 99.13 1.4 98.71C1.23 98.29 1.14 97.84 1.14 97.39L1.14 5.1C1.14 4.65 1.23 4.2 1.4 3.78C1.58 3.36 1.83 2.98 2.15 2.66C2.47 2.34 2.85 2.09 3.27 1.92C3.69 1.74 4.14 1.65 4.59 1.65" />
			<path id="Layer" fill-rule="evenodd" class="shp1" d="M5.51 1.08L67.73 1.08C68.25 1.08 68.77 1.18 69.25 1.38C69.73 1.58 70.17 1.87 70.53 2.24C70.9 2.61 71.19 3.04 71.39 3.53C71.59 4.01 71.7 4.52 71.7 5.04L71.7 96.3C71.7 96.82 71.59 97.33 71.39 97.81C71.19 98.3 70.9 98.73 70.53 99.1C70.17 99.47 69.73 99.76 69.25 99.96C68.77 100.16 68.25 100.26 67.73 100.26L5.51 100.26C4.99 100.26 4.48 100.16 3.99 99.96C3.51 99.76 3.08 99.47 2.71 99.1C2.34 98.73 2.05 98.3 1.85 97.81C1.65 97.33 1.54 96.82 1.54 96.3L1.54 5.04C1.54 4.52 1.65 4.01 1.85 3.53C2.05 3.04 2.34 2.61 2.71 2.24C3.08 1.87 3.51 1.58 3.99 1.38C4.48 1.18 4.99 1.08 5.51 1.08" />
			<path id="Layer" class="shp2" d="M30.61 96.67L6.14 96.67C6 96.67 5.87 96.64 5.74 96.59C5.62 96.54 5.5 96.46 5.41 96.37C5.31 96.27 5.23 96.16 5.18 96.03C5.13 95.9 5.1 95.77 5.1 95.63L5.1 73.43C5.1 73.29 5.13 73.16 5.18 73.03C5.23 72.91 5.31 72.79 5.41 72.69C5.5 72.6 5.62 72.52 5.74 72.47C5.87 72.42 6 72.39 6.14 72.39L30.61 72.39C30.75 72.39 30.88 72.42 31.01 72.47C31.13 72.52 31.25 72.6 31.34 72.69C31.44 72.79 31.52 72.91 31.57 73.03C31.62 73.16 31.65 73.29 31.65 73.43L31.65 95.63C31.65 95.77 31.62 95.9 31.57 96.03C31.52 96.16 31.44 96.27 31.34 96.37C31.25 96.46 31.13 96.54 31.01 96.59C30.88 96.64 30.75 96.67 30.61 96.67" />
			<path id="Layer" class="shp3" d="M39.06 4.41L68.34 4.41L68.34 49.68L39.06 49.68L39.06 4.41Z" />
			<path id="Layer" class="shp4" d="M19.97 92.77L64.69 92.77L64.69 19.17" />
			<path id="Layer" class="shp4" d="M53.11 8.56L8.56 8.56L8.56 81.75" />
		</g>
		<g id="Layer">
			<path id="Layer" class="shp5" d="M8.59 87.34C8.23 86.43 8.48 85.28 9.22 84.9C9.95 84.51 10.87 84.93 11.26 85.83C11.37 86.08 11.43 86.36 11.45 86.65C11.47 86.36 11.54 86.08 11.65 85.83C12.04 84.93 12.95 84.51 13.69 84.9C14.42 85.28 14.63 86.42 14.32 87.34C13.78 88.94 12.17 89.87 11.45 91.71C10.86 89.87 9.22 88.91 8.59 87.34L8.59 87.34Z" />
		</g>
		<path id="Layer" class="shp6" d="M61.77 12.35C62.43 12.35 62.68 12.37 62.95 12.47C63.64 12.72 64.07 13.35 64.07 14.11C64.07 15.04 63.44 15.76 62.62 15.76C62.32 15.76 62.1 15.69 61.68 15.42C61.35 15.22 61.16 15.14 60.98 15.14C60.72 15.14 60.55 15.3 60.55 15.53C60.55 15.92 61.03 16.16 61.81 16.16C62.66 16.16 63.54 15.88 64.06 15.42C64.58 14.97 64.87 14.32 64.87 13.58C64.87 13.01 64.69 12.49 64.37 12.15C64.15 11.91 63.94 11.77 63.45 11.56C64.21 11.04 64.49 10.63 64.49 10.03C64.49 9.13 63.78 8.51 62.76 8.51C62.21 8.51 61.72 8.7 61.32 9.06C60.99 9.36 60.82 9.64 60.58 10.31L60.74 10.35C61.2 9.54 61.7 9.18 62.39 9.18C63.12 9.18 63.61 9.67 63.61 10.36C63.61 10.76 63.45 11.16 63.17 11.44C62.84 11.77 62.53 11.94 61.77 12.21L61.77 12.35" />
		<path id="Layer" fill-rule="evenodd" class="shp7" d="M17.75 89.53C17.75 89.53 17.75 89.53 17.75 89.53C17.75 89.53 17.75 89.53 17.75 89.53L17.75 89.53ZM17.75 89.53C15.44 83.76 13.88 83.93 11.89 83.35L14.86 83.35C14.88 83.25 14.9 83.16 14.92 83.06C14.97 82.81 15.04 82.56 15.12 82.32C15.12 81.99 15.12 81.65 15.12 81.33C15.13 80.61 15.23 79.9 15.33 79.19C15.34 79.01 15.37 78.83 15.4 78.65C15.3 78.57 15.32 78.03 15.58 76.96C15.63 76.75 15.67 76.53 15.71 76.31C15.8 75.81 15.91 75.32 16.02 74.82C16.14 74.23 16.34 73.66 16.52 73.08C16.76 72.4 17.05 71.73 17.33 71.07C17.68 70.25 18.04 69.44 18.4 68.63C18.89 67.53 19.44 66.47 19.98 65.4C20.67 64.09 21.28 62.74 21.86 61.38C22.56 59.73 23.24 58.07 23.93 56.41C24.68 54.64 25.39 52.86 26.06 51.06C26.11 50.94 26.15 50.83 26.19 50.71C26.18 50.68 26.17 50.63 26.17 50.59C26.17 50.47 26.23 50.36 26.33 50.3C26.93 48.62 27.47 46.93 28 45.23C28.65 43.08 29.2 40.9 29.64 38.7C30.09 36.14 30.2 33.55 30.17 30.96C30.11 28.85 29.89 26.74 29.64 24.64C29.54 24.74 29.4 24.79 29.25 24.79C28.92 24.79 28.65 24.53 28.65 24.19C28.65 23.86 28.92 23.58 29.25 23.58C29.35 23.58 29.45 23.61 29.53 23.65L29.46 23.09C29.36 22.35 29.26 21.61 29.15 20.87C29.1 20.97 28.98 21.05 28.86 21.05C28.67 21.05 28.53 20.9 28.53 20.71C28.53 20.53 28.67 20.38 28.86 20.38C28.95 20.38 29.03 20.41 29.09 20.47C28.99 19.77 28.88 19.07 28.77 18.38C28.6 17.31 28.63 16.66 28.75 16.5C28.65 16.39 28.59 16.24 28.59 16.08C28.59 15.75 28.86 15.48 29.19 15.48C29.52 15.48 29.8 15.75 29.8 16.08C29.8 16.42 29.52 16.69 29.19 16.69C29.12 16.69 29.06 16.68 29 16.66C29.12 16.89 29.24 17.35 29.35 18.05C29.6 19.61 29.83 21.18 30.03 22.76C30.35 25.37 30.66 27.99 30.74 30.63C30.76 33.21 30.66 35.81 30.22 38.37C29.79 40.57 29.23 42.74 28.57 44.89C28.01 46.73 27.43 48.58 26.77 50.39C26.81 50.45 26.84 50.52 26.84 50.59C26.84 50.75 26.73 50.88 26.58 50.92C25.93 52.65 25.24 54.37 24.52 56.07C23.83 57.73 23.15 59.39 22.45 61.04C21.87 62.4 21.26 63.74 20.58 65.05C20.04 66.12 19.49 67.19 19.01 68.28C18.65 69.09 18.29 69.9 17.94 70.71C17.66 71.38 17.37 72.04 17.14 72.73C16.95 73.3 16.76 73.88 16.63 74.47C16.62 74.54 16.61 74.61 16.59 74.68C16.78 74.25 16.97 73.83 17.17 73.41C17.33 73.1 17.49 72.8 17.66 72.49C17.66 72.49 17.66 72.48 17.67 72.47C17.74 72.23 17.88 72 17.98 71.77C18.15 71.42 18.37 71.09 18.56 70.76C18.75 70.44 18.96 70.14 19.18 69.84C19.75 68.84 20.41 67.89 21.09 66.96C21.61 66.23 22.22 65.58 22.85 64.94C22.87 64.8 22.98 64.68 23.12 64.66L23.64 64.15C24.64 63.2 25.68 62.29 26.69 61.35C27.87 60.23 29.02 59.09 30.17 57.93C31.47 56.62 32.67 55.22 33.79 53.74C35.03 52.03 36.07 50.18 37.08 48.33C37.42 47.73 37.73 47.12 38.02 46.5L37.9 46.51C37.57 46.51 37.3 46.24 37.3 45.9C37.3 45.57 37.57 45.3 37.9 45.3C38.13 45.3 38.32 45.42 38.42 45.61C38.91 44.5 39.35 43.37 39.73 42.21L39.8 41.98C39.76 41.71 39.74 41.31 39.76 40.76C39.79 39.83 39.81 38.89 39.78 37.95C39.73 36.27 39.62 34.58 39.39 32.91C39.21 31.77 39.03 30.63 38.7 29.52C38.53 28.96 38.38 28.38 38.13 27.85C38.04 27.71 37.99 27.54 37.86 27.42C35.93 25.73 36.57 25.35 38.48 27.06C38.61 27.17 38.66 27.36 38.75 27.5C39 28.03 39.15 28.6 39.31 29.16C39.64 30.28 39.81 31.42 39.99 32.56C40.21 34.24 40.31 35.92 40.37 37.6C40.39 38.31 40.38 39.03 40.36 39.74C40.68 38.25 40.92 36.74 41.1 35.23C41.16 34.56 41.18 33.89 41.2 33.22C41.13 33.25 41.07 33.26 40.99 33.26C40.66 33.26 40.38 32.99 40.38 32.65C40.38 32.32 40.66 32.05 40.99 32.05C41.07 32.05 41.15 32.07 41.22 32.1C41.23 31.07 41.2 30.03 41.17 28.99C40.93 28.92 40.75 28.7 40.75 28.43C40.75 28.17 40.91 27.95 41.14 27.86C41.13 27.75 41.13 27.64 41.12 27.54C41.11 27.12 41.1 26.7 41.08 26.28C40.99 23.94 41.57 23.61 41.65 25.95C41.67 26.37 41.68 26.79 41.7 27.2C41.7 27.45 41.71 27.7 41.72 27.95C41.86 28.06 41.96 28.23 41.96 28.43C41.96 28.61 41.88 28.77 41.75 28.88C41.81 30.89 41.83 32.89 41.68 34.9C41.38 37.25 41 39.61 40.31 41.88C39.61 43.99 38.75 46.05 37.66 48C36.65 49.85 35.62 51.69 34.37 53.4C33.26 54.88 32.07 56.28 30.76 57.59C29.62 58.75 28.46 59.89 27.28 61C26.28 61.94 25.24 62.86 24.24 63.8C23.94 64.1 23.63 64.4 23.34 64.7C23.41 64.75 23.47 64.82 23.49 64.91C24.25 64.14 25.06 63.4 25.86 62.67L28.67 60.19C29.65 59.3 30.65 58.43 31.65 57.55C32.77 56.57 33.87 55.56 34.94 54.54C36.16 53.38 37.35 52.19 38.53 50.99C39.78 49.74 40.96 48.41 42.11 47.06C42.98 46.02 43.82 44.94 44.63 43.85C44.62 43.81 44.62 43.77 44.62 43.73C44.62 43.41 44.86 43.16 45.16 43.13L45.77 42.29C46.85 40.81 47.83 39.25 48.75 37.66C48.72 37.67 48.68 37.68 48.64 37.68C48.46 37.68 48.31 37.53 48.31 37.35C48.31 37.17 48.46 37.01 48.64 37.01C48.8 37.01 48.93 37.13 48.96 37.28C49.05 37.13 49.14 36.98 49.23 36.83C50.31 34.83 51.33 32.78 52.02 30.6C52.54 28.7 52.83 26.75 53.14 24.81C53.51 22.47 54.09 22.13 53.72 24.47C53.41 26.41 53.11 28.36 52.6 30.27C51.92 32.44 50.89 34.49 49.81 36.5C48.76 38.38 47.63 40.21 46.36 41.95C46.06 42.36 45.76 42.77 45.46 43.18C45.68 43.27 45.83 43.48 45.83 43.73C45.83 44.06 45.56 44.33 45.22 44.33C45.04 44.33 44.87 44.25 44.76 44.12C44.09 45 43.4 45.87 42.69 46.72C41.55 48.08 40.37 49.4 39.12 50.66C38.55 51.24 37.97 51.81 37.4 52.38C37.57 52.22 37.88 51.94 38.33 51.55C39.43 50.61 40.55 49.69 41.7 48.81C42.79 47.99 43.89 47.21 45.11 46.6C45.21 46.41 45.41 46.27 45.65 46.27C45.7 46.27 45.75 46.27 45.8 46.29C45.99 46.21 46.17 46.17 46.38 46.15C48.8 45.99 48.34 46.32 46.1 46.48C46.19 46.59 46.25 46.72 46.25 46.87C46.25 47.21 45.98 47.48 45.65 47.48C45.31 47.48 45.04 47.21 45.04 46.87C45.04 46.81 45.06 46.75 45.08 46.7L44.57 46.92C44.17 47.07 43.13 47.85 42.3 48.47C41.15 49.35 40.02 50.27 38.92 51.21C37.78 52.19 37.12 52.69 37.24 52.54C36.67 53.1 36.11 53.65 35.54 54.19C34.46 55.22 33.37 56.23 32.25 57.2C31.26 58.08 30.25 58.95 29.27 59.84C28.34 60.67 27.4 61.5 26.47 62.33C25.6 63.11 24.74 63.89 23.93 64.73C23.21 65.47 22.48 66.2 21.81 66.99C21.29 67.6 20.76 68.22 20.27 68.85L19.75 69.55C19.72 69.6 19.69 69.65 19.67 69.7C19.21 70.47 18.76 71.24 18.33 72.02L18.29 72.11C18.25 72.24 18.21 72.37 18.15 72.49C17.8 73.26 17.5 73.8 17.28 74.11C16.96 74.83 16.67 75.55 16.46 76.31C16.23 77.14 16.02 77.98 15.93 78.84C15.85 79.44 15.78 80.05 15.75 80.66L15.89 80.36C16.21 79.75 16.6 79.17 16.98 78.6C17.29 78.12 17.64 77.67 18 77.24C17.92 77.14 17.88 77.01 17.88 76.88C17.88 76.54 18.15 76.27 18.49 76.27C18.6 76.27 18.7 76.3 18.79 76.36C19.37 75.75 19.99 75.2 20.61 74.64C21.42 73.89 22.28 73.21 23.14 72.53C24.18 71.73 25.28 71.02 26.37 70.3C27.62 69.49 28.9 68.71 30.18 67.95L30.48 67.78C30.22 67.71 30.04 67.48 30.04 67.2C30.04 66.87 30.31 66.59 30.65 66.59C30.98 66.59 31.25 66.87 31.25 67.2C31.25 67.53 30.98 67.8 30.65 67.8C30.6 67.8 30.54 67.8 30.5 67.79C29.44 68.42 28.4 69.06 27.37 69.73C26.28 70.44 25.18 71.15 24.16 71.95C23.29 72.62 22.43 73.31 21.62 74.05C20.89 74.71 20.15 75.36 19.49 76.09L19.04 76.63C19.07 76.71 19.09 76.79 19.09 76.88C19.09 77.21 18.82 77.48 18.49 77.48C18.45 77.48 18.41 77.48 18.38 77.47C18.25 77.65 18.12 77.83 18 78.01C17.62 78.58 17.24 79.15 16.92 79.76C16.69 80.24 16.46 80.7 16.31 81.21C16.24 81.43 16.17 81.66 16.1 81.89C16.19 81.95 16.24 82.05 16.24 82.17C16.24 82.34 16.11 82.49 15.94 82.5C15.89 82.8 15.81 83.1 15.81 83.4C15.83 83.58 15.82 83.75 15.86 83.93C15.87 84.03 15.88 84.13 15.91 84.23C16.18 85.44 18.28 88.63 17.75 89.53ZM18 84.53C18 84.34 18.15 84.2 18.34 84.2C18.52 84.2 18.67 84.34 18.67 84.53C18.67 84.71 18.52 84.86 18.34 84.86C18.15 84.86 18 84.71 18 84.53ZM13.1 82.56C13.1 82.23 13.37 81.95 13.71 81.95C14.04 81.95 14.31 82.23 14.31 82.56C14.31 82.9 14.04 83.17 13.71 83.17C13.37 83.17 13.1 82.9 13.1 82.56ZM16.37 81.83C16.37 81.5 16.64 81.23 16.97 81.23C17.31 81.23 17.58 81.5 17.58 81.83C17.58 82.17 17.31 82.44 16.97 82.44C16.64 82.44 16.37 82.17 16.37 81.83ZM12.38 80.41C12.38 80.23 12.53 80.08 12.71 80.08C12.89 80.08 13.04 80.23 13.04 80.41C13.04 80.6 12.89 80.75 12.71 80.75C12.53 80.75 12.38 80.6 12.38 80.41ZM13.89 79.87C13.89 79.69 14.04 79.54 14.22 79.54C14.41 79.54 14.55 79.69 14.55 79.87C14.55 80.05 14.41 80.2 14.22 80.2C14.04 80.2 13.89 80.05 13.89 79.87ZM19.33 78.87C19.33 78.54 19.6 78.27 19.93 78.27C20.27 78.27 20.54 78.54 20.54 78.87C20.54 79.21 20.27 79.48 19.93 79.48C19.6 79.48 19.33 79.21 19.33 78.87ZM21.02 78.12C21.02 77.93 21.17 77.78 21.36 77.78C21.54 77.78 21.69 77.93 21.69 78.12C21.69 78.3 21.54 78.45 21.36 78.45C21.17 78.45 21.02 78.3 21.02 78.12ZM12.43 77.18C12.43 76.85 12.71 76.57 13.04 76.57C13.38 76.57 13.65 76.85 13.65 77.18C13.65 77.52 13.38 77.78 13.04 77.78C12.71 77.78 12.43 77.52 12.43 77.18ZM13.83 75.42C13.83 75.09 14.1 74.82 14.43 74.82C14.77 74.82 15.04 75.09 15.04 75.42C15.04 75.76 14.77 76.03 14.43 76.03C14.1 76.03 13.83 75.76 13.83 75.42ZM21.94 75.46C21.94 75.27 22.08 75.13 22.27 75.13C22.45 75.13 22.6 75.27 22.6 75.46C22.6 75.64 22.45 75.79 22.27 75.79C22.08 75.79 21.94 75.64 21.94 75.46ZM26.04 74.64C26.04 74.3 26.32 74.04 26.65 74.04C26.99 74.04 27.26 74.3 27.26 74.64C27.26 74.97 26.99 75.25 26.65 75.25C26.32 75.25 26.04 74.97 26.04 74.64ZM19.57 73.92C19.57 73.58 19.85 73.31 20.18 73.31C20.52 73.31 20.78 73.58 20.78 73.92C20.78 74.25 20.52 74.52 20.18 74.52C19.85 74.52 19.57 74.25 19.57 73.92ZM22.55 74.37C22.53 74.36 22.9 74.07 23.77 73.44C24.24 73.09 24.71 72.72 25.21 72.41C26.33 71.74 27.44 71.08 28.63 70.54C29.48 70.16 30.33 69.78 31.2 69.45C31.8 69.2 32.4 68.96 33.01 68.73L33.8 68.43C36.19 67.52 35.56 67.88 33.18 68.79L32.4 69.08C31.79 69.31 31.19 69.56 30.58 69.8C30.04 70.01 29.51 70.24 28.98 70.47C29.3 70.49 29.56 70.75 29.56 71.07C29.56 71.4 29.28 71.68 28.95 71.68C28.62 71.68 28.35 71.4 28.35 71.07C28.35 70.92 28.4 70.79 28.49 70.69L28.02 70.89C27.35 71.15 26.03 71.94 25.82 72.06C25.31 72.37 24.85 72.74 24.37 73.09C23.26 73.91 22.58 74.37 22.55 74.37L22.55 74.37ZM13.52 73.12C13.52 72.79 13.8 72.52 14.13 72.52C14.46 72.52 14.74 72.79 14.74 73.12C14.74 73.46 14.46 73.73 14.13 73.73C13.8 73.73 13.52 73.46 13.52 73.12ZM27.01 72.74C27.01 72.55 27.16 72.4 27.34 72.4C27.53 72.4 27.68 72.55 27.68 72.74C27.68 72.92 27.53 73.07 27.34 73.07C27.16 73.07 27.01 72.92 27.01 72.74ZM15.76 71.61C15.76 71.28 16.04 71.01 16.37 71.01C16.71 71.01 16.97 71.28 16.97 71.61C16.97 71.95 16.71 72.22 16.37 72.22C16.04 72.22 15.76 71.95 15.76 71.61ZM19.03 71.43C19.03 71.1 19.3 70.83 19.64 70.83C19.97 70.83 20.24 71.1 20.24 71.43C20.24 71.77 19.97 72.04 19.64 72.04C19.3 72.04 19.03 71.77 19.03 71.43ZM11.1 71.22C11.1 71.04 11.25 70.89 11.44 70.89C11.62 70.89 11.77 71.04 11.77 71.22C11.77 71.41 11.62 71.55 11.44 71.55C11.25 71.55 11.1 71.41 11.1 71.22ZM32.22 70.07C32.22 69.89 32.36 69.74 32.55 69.74C32.73 69.74 32.88 69.89 32.88 70.07C32.88 70.25 32.73 70.4 32.55 70.4C32.36 70.4 32.22 70.25 32.22 70.07ZM24.71 69.74C24.71 69.4 24.99 69.14 25.32 69.14C25.66 69.14 25.92 69.4 25.92 69.74C25.92 70.07 25.66 70.35 25.32 70.35C24.99 70.35 24.71 70.07 24.71 69.74ZM36 69.8C35.81 69.8 35.67 69.65 35.67 69.47C35.67 69.41 35.68 69.34 35.72 69.29C35.66 69.31 35.61 69.31 35.55 69.31C35.21 69.31 34.94 69.05 34.94 68.71C34.94 68.38 35.21 68.1 35.55 68.1C35.88 68.1 36.15 68.38 36.15 68.71C36.15 68.88 36.08 69.03 35.97 69.14L36 69.14C36.18 69.14 36.33 69.29 36.33 69.47C36.33 69.65 36.18 69.8 36 69.8L36 69.8ZM37.48 67.8C37.48 67.47 37.75 67.2 38.08 67.2C38.42 67.2 38.69 67.47 38.69 67.8C38.69 68.13 38.42 68.41 38.08 68.41C37.75 68.41 37.48 68.13 37.48 67.8ZM16.85 67.8C16.85 67.47 17.13 67.2 17.46 67.2C17.79 67.2 18.06 67.47 18.06 67.8C18.06 68.13 17.79 68.41 17.46 68.41C17.13 68.41 16.85 68.13 16.85 67.8ZM21.63 67.74C21.63 67.41 21.9 67.14 22.23 67.14C22.57 67.14 22.84 67.41 22.84 67.74C22.84 68.08 22.57 68.35 22.23 68.35C21.9 68.35 21.63 68.08 21.63 67.74ZM39.29 67.96C39.29 67.77 39.44 67.62 39.62 67.62C39.81 67.62 39.96 67.77 39.96 67.96C39.96 68.14 39.81 68.29 39.62 68.29C39.44 68.29 39.29 68.14 39.29 67.96ZM26.29 67.53C26.29 67.35 26.44 67.2 26.62 67.2C26.81 67.2 26.96 67.35 26.96 67.53C26.96 67.72 26.81 67.86 26.62 67.86C26.44 67.86 26.29 67.72 26.29 67.53ZM21.09 67.47C21.09 67.47 21.09 67.47 21.09 67.47C21.09 67.47 21.09 67.47 21.09 67.47L21.09 67.47ZM21.09 67.47C21.12 67.43 21.16 67.38 21.19 67.34C21.8 66.64 22.45 65.97 23.1 65.31C23.01 65.29 22.93 65.24 22.89 65.16C22.46 65.62 22.06 66.1 21.69 66.61C21.48 66.9 21.29 67.18 21.09 67.47ZM32.59 66.56C32.6 66.55 32.6 66.55 32.61 66.55C32.6 66.55 32.6 66.55 32.59 66.56L32.59 66.56ZM32.61 66.55C33.58 65.99 34.56 65.44 35.54 64.89C35.66 64.82 35.85 64.71 36.01 64.63C35.78 64.54 35.6 64.32 35.6 64.05C35.6 63.72 35.88 63.45 36.21 63.45C36.54 63.45 36.81 63.72 36.81 64.05C36.81 64.1 36.81 64.14 36.8 64.19L38.87 63.02C38.18 63.42 37.48 63.82 36.79 64.21C36.72 64.47 36.49 64.65 36.21 64.65C36.15 64.65 36.09 64.65 36.04 64.63C35.55 64.91 35.05 65.18 34.55 65.45C33.85 65.84 33.18 66.22 32.61 66.55ZM40.02 66.14C40.02 65.96 40.17 65.81 40.35 65.81C40.54 65.81 40.69 65.96 40.69 66.14C40.69 66.32 40.54 66.47 40.35 66.47C40.17 66.47 40.02 66.32 40.02 66.14ZM17.21 65.57C16.88 65.57 16.61 65.29 16.61 64.96C16.61 64.62 16.88 64.36 17.21 64.36C17.32 64.36 17.43 64.38 17.52 64.44C17.52 64.26 17.67 64.11 17.85 64.11C18.03 64.11 18.18 64.27 18.18 64.45C18.18 64.63 18.03 64.78 17.85 64.78C17.83 64.78 17.81 64.78 17.79 64.77C17.8 64.83 17.82 64.89 17.82 64.96C17.82 65.29 17.55 65.57 17.21 65.57L17.21 65.57ZM14.91 65.17C14.91 64.99 15.06 64.84 15.25 64.84C15.43 64.84 15.58 64.99 15.58 65.17C15.58 65.35 15.43 65.5 15.25 65.5C15.06 65.5 14.91 65.35 14.91 65.17ZM18.85 62.6C18.85 62.27 19.12 62 19.45 62C19.79 62 20.05 62.27 20.05 62.6C20.05 62.94 19.79 63.21 19.45 63.21C19.12 63.21 18.85 62.94 18.85 62.6ZM44.68 62.75C44.68 62.57 44.83 62.42 45.01 62.42C45.2 62.42 45.34 62.57 45.34 62.75C45.34 62.94 45.2 63.08 45.01 63.08C44.83 63.08 44.68 62.94 44.68 62.75ZM39.11 62.88L39.14 62.86C39.13 62.87 39.12 62.87 39.11 62.88L39.11 62.88ZM39.14 62.86C40.62 62 42.02 61.03 43.38 60C44.43 59.19 45.43 58.32 46.38 57.41C46.39 57.4 46.39 57.39 46.39 57.38C45.91 57.79 45.41 58.18 44.91 58.57C43.01 60.1 42.4 60.45 44.31 58.92C44.86 58.48 45.41 58.06 45.94 57.6C46.66 56.97 47.39 56.34 48.1 55.7C49.37 54.35 50.48 52.86 51.53 51.33C52.78 49.55 53.7 47.59 54.45 45.57C55.24 43.36 55.56 41.04 55.73 38.71C55.94 36.63 55.76 34.56 55.5 32.5C55.01 28.65 55.96 28.1 56.45 31.96C56.72 34.02 56.9 36.08 56.69 38.16C56.54 40.18 56.28 42.19 55.7 44.13C55.81 44.03 55.95 43.97 56.11 43.97C56.45 43.97 56.71 44.24 56.71 44.58C56.71 44.91 56.45 45.18 56.11 45.18C55.82 45.18 55.58 44.97 55.52 44.7C55.48 44.8 55.46 44.9 55.42 45.01C54.67 47.03 53.75 48.99 52.5 50.76C51.8 51.78 51.08 52.77 50.31 53.72C50.86 53.22 51.42 52.71 51.96 52.2L52.64 51.5C52.69 51.36 52.8 51.25 52.94 51.18C53.39 50.69 53.81 50.18 54.18 49.62C54.75 48.78 55.31 47.93 55.86 47.08C56.4 46.23 56.94 45.37 57.46 44.5C57.91 43.76 58.36 43.01 58.76 42.24C58.98 41.77 59.22 41.3 59.38 40.81C59.45 40.62 59.5 40.43 59.59 40.25C59.82 39.79 60.02 39.43 60.2 39.13C60 39.03 59.86 38.83 59.86 38.59C59.86 38.26 60.11 38 60.43 37.99C60.34 37.93 60.28 37.83 60.28 37.71C60.28 37.53 60.43 37.38 60.62 37.38C60.8 37.38 60.95 37.53 60.95 37.71C60.95 37.87 60.84 37.99 60.7 38.03C60.92 38.12 61.07 38.34 61.07 38.59C61.07 38.89 60.85 39.14 60.56 39.18C60.47 39.38 60.35 39.61 60.21 39.89C60.12 40.07 60.07 40.26 60 40.45C59.84 40.94 59.6 41.41 59.38 41.88L59.14 42.33C59.25 42.22 59.39 42.16 59.56 42.16C59.89 42.16 60.16 42.42 60.16 42.76C60.16 43.09 59.89 43.37 59.56 43.37C59.22 43.37 58.95 43.09 58.95 42.76C58.95 42.72 58.96 42.68 58.97 42.64C58.68 43.15 58.37 43.65 58.07 44.15C57.55 45.02 57.01 45.87 56.47 46.72C55.92 47.58 55.35 48.42 54.78 49.26C54.35 49.94 53.83 50.54 53.28 51.12C53.58 51.15 53.81 51.41 53.81 51.72C53.81 52.05 53.54 52.32 53.21 52.32C52.9 52.32 52.65 52.09 52.61 51.8L52.56 51.85C51.61 52.75 50.64 53.62 49.66 54.5L49.61 54.54C49.3 54.9 48.97 55.26 48.64 55.6C48.18 56.07 47.71 56.52 47.23 56.97C47.44 57.07 47.58 57.28 47.58 57.52C47.58 57.85 47.31 58.12 46.98 58.12C46.72 58.12 46.5 57.96 46.41 57.73C45.75 58.32 45.07 58.88 44.36 59.42C42.97 60.48 41.53 61.48 40.01 62.36L39.14 62.86ZM35.43 62.39C35.43 62.21 35.57 62.06 35.76 62.06C35.94 62.06 36.09 62.21 36.09 62.39C36.09 62.58 35.94 62.72 35.76 62.72C35.57 62.72 35.43 62.58 35.43 62.39ZM41.75 62.48C41.56 62.48 41.41 62.33 41.41 62.14C41.41 61.96 41.56 61.81 41.75 61.81C41.93 61.81 42.08 61.96 42.08 62.14C42.08 62.31 41.96 62.45 41.81 62.48L41.75 62.48ZM27.8 61.69C27.8 61.36 28.07 61.09 28.4 61.09C28.74 61.09 29.01 61.36 29.01 61.69C29.01 62.03 28.74 62.3 28.4 62.3C28.07 62.3 27.8 62.03 27.8 61.69ZM29.92 61.78C29.92 61.6 30.07 61.45 30.25 61.45C30.43 61.45 30.58 61.6 30.58 61.78C30.58 61.97 30.43 62.12 30.25 62.12C30.07 62.12 29.92 61.97 29.92 61.78ZM38.69 60.27C38.69 60.09 38.84 59.94 39.02 59.94C39.21 59.94 39.36 60.09 39.36 60.27C39.36 60.45 39.21 60.6 39.02 60.6C38.84 60.6 38.69 60.45 38.69 60.27ZM41.41 59.82C41.41 59.48 41.68 59.21 42.01 59.21C42.35 59.21 42.62 59.48 42.62 59.82C42.62 60.15 42.35 60.43 42.01 60.43C41.68 60.43 41.41 60.15 41.41 59.82ZM20.06 59.58C20.06 59.24 20.33 58.97 20.66 58.97C21 58.97 21.27 59.24 21.27 59.58C21.27 59.91 21 60.18 20.66 60.18C20.33 60.18 20.06 59.91 20.06 59.58ZM48.97 59.25C48.97 59.06 49.12 58.91 49.3 58.91C49.49 58.91 49.64 59.06 49.64 59.25C49.64 59.43 49.49 59.58 49.3 59.58C49.12 59.58 48.97 59.43 48.97 59.25ZM27.38 58.85C27.38 58.52 27.65 58.25 27.98 58.25C28.31 58.25 28.59 58.52 28.59 58.85C28.59 59.18 28.31 59.46 27.98 59.46C27.65 59.46 27.38 59.18 27.38 58.85ZM18.61 58.09C18.61 57.91 18.75 57.76 18.94 57.76C19.12 57.76 19.27 57.91 19.27 58.09C19.27 58.28 19.12 58.43 18.94 58.43C18.75 58.43 18.61 58.28 18.61 58.09ZM42.74 57.76C42.74 57.43 43.01 57.16 43.34 57.16C43.68 57.16 43.95 57.43 43.95 57.76C43.95 58.1 43.68 58.37 43.34 58.37C43.01 58.37 42.74 58.1 42.74 57.76ZM21.63 57.76C21.3 57.76 21.02 57.49 21.02 57.16C21.02 56.93 21.16 56.73 21.35 56.63C21.34 56.6 21.33 56.56 21.33 56.52C21.33 56.34 21.48 56.19 21.66 56.19C21.84 56.19 21.99 56.34 21.99 56.52C21.99 56.57 21.99 56.62 21.97 56.66C22.13 56.77 22.23 56.95 22.23 57.16C22.23 57.49 21.97 57.76 21.63 57.76L21.63 57.76ZM34.09 56.62C34.09 56.28 34.36 56.01 34.7 56.01C35.03 56.01 35.3 56.28 35.3 56.62C35.3 56.95 35.03 57.22 34.7 57.22C34.36 57.22 34.09 56.95 34.09 56.62ZM23.55 57C23.43 57.01 23.41 56.49 23.62 55.39C23.86 54.13 24.09 52.86 24.23 51.57C24.38 50 24.48 48.41 24.42 46.82C24.36 45.64 24.28 44.45 24.08 43.28C23.95 42.49 23.83 41.69 23.62 40.92C23.53 40.62 23.47 40.32 23.34 40.03C22.25 37.71 22.91 37.34 23.96 39.67C24.09 39.96 24.15 40.26 24.24 40.57C24.44 41.34 24.56 42.14 24.69 42.93C24.89 44.1 24.96 45.29 25.03 46.48C25.08 48.07 24.97 49.65 24.81 51.24C24.67 52.52 24.44 53.79 24.21 55.05C23.97 56.3 23.69 56.99 23.55 57L23.55 57ZM36.15 56.64C36.15 56.46 36.3 56.31 36.48 56.31C36.66 56.31 36.81 56.46 36.81 56.64C36.81 56.83 36.66 56.98 36.48 56.98C36.3 56.98 36.15 56.83 36.15 56.64ZM26.23 56.4C26.23 56.22 26.38 56.07 26.56 56.07C26.74 56.07 26.89 56.22 26.89 56.4C26.89 56.59 26.74 56.74 26.56 56.74C26.38 56.74 26.23 56.59 26.23 56.4ZM29.92 55.04C29.92 54.71 30.19 54.44 30.53 54.44C30.86 54.44 31.13 54.71 31.13 55.04C31.13 55.37 30.86 55.65 30.53 55.65C30.19 55.65 29.92 55.37 29.92 55.04ZM46.79 54.56C46.79 54.22 47.07 53.95 47.4 53.95C47.74 53.95 48 54.22 48 54.56C48 54.89 47.74 55.16 47.4 55.16C47.07 55.16 46.79 54.89 46.79 54.56ZM53.87 53.43C53.87 53.25 54.02 53.1 54.2 53.1C54.39 53.1 54.54 53.25 54.54 53.43C54.54 53.62 54.39 53.77 54.2 53.77C54.02 53.77 53.87 53.62 53.87 53.43ZM42.08 50.32C42.08 49.99 42.35 49.72 42.68 49.72C43.01 49.72 43.29 49.99 43.29 50.32C43.29 50.66 43.01 50.92 42.68 50.92C42.35 50.92 42.08 50.66 42.08 50.32ZM48.79 49.62C48.79 49.44 48.94 49.29 49.12 49.29C49.3 49.29 49.46 49.44 49.46 49.62C49.46 49.81 49.3 49.96 49.12 49.96C48.94 49.96 48.79 49.81 48.79 49.62ZM19.09 48.93C19.09 48.6 19.36 48.32 19.69 48.32C20.03 48.32 20.3 48.6 20.3 48.93C20.3 49.26 20.03 49.54 19.69 49.54C19.36 49.54 19.09 49.26 19.09 48.93ZM34.39 48.69C34.39 48.36 34.67 48.08 35 48.08C35.33 48.08 35.6 48.36 35.6 48.69C35.6 49.02 35.33 49.29 35 49.29C34.67 49.29 34.39 49.02 34.39 48.69ZM57.99 48.24C57.99 48.05 58.13 47.91 58.32 47.91C58.5 47.91 58.65 48.05 58.65 48.24C58.65 48.42 58.5 48.57 58.32 48.57C58.13 48.57 57.99 48.42 57.99 48.24ZM56.95 47.48C56.95 47.15 57.23 46.87 57.56 46.87C57.9 46.87 58.17 47.15 58.17 47.48C58.17 47.82 57.9 48.08 57.56 48.08C57.23 48.08 56.95 47.82 56.95 47.48ZM38.15 47.3C38.15 46.96 38.41 46.69 38.75 46.69C39.08 46.69 39.36 46.96 39.36 47.3C39.36 47.63 39.08 47.91 38.75 47.91C38.41 47.91 38.15 47.63 38.15 47.3ZM28.16 46.63C28.16 46.3 28.43 46.02 28.77 46.02C29.1 46.02 29.37 46.3 29.37 46.63C29.37 46.97 29.1 47.23 28.77 47.23C28.43 47.23 28.16 46.97 28.16 46.63ZM22.11 44.3C22.11 44.12 22.26 43.97 22.44 43.97C22.63 43.97 22.78 44.12 22.78 44.3C22.78 44.48 22.63 44.64 22.44 44.64C22.26 44.64 22.11 44.48 22.11 44.3ZM25.32 43.91C25.32 43.58 25.59 43.3 25.92 43.3C26.26 43.3 26.53 43.58 26.53 43.91C26.53 44.24 26.26 44.51 25.92 44.51C25.59 44.51 25.32 44.24 25.32 43.91ZM52 43.73C52 43.39 52.26 43.13 52.6 43.13C52.93 43.13 53.21 43.39 53.21 43.73C53.21 44.06 52.93 44.33 52.6 44.33C52.26 44.33 52 44.06 52 43.73ZM29.31 43.39C29.31 43.21 29.47 43.06 29.65 43.06C29.83 43.06 29.98 43.21 29.98 43.39C29.98 43.58 29.83 43.73 29.65 43.73C29.47 43.73 29.31 43.58 29.31 43.39ZM37.42 40.58C37.42 40.25 37.69 39.98 38.03 39.98C38.36 39.98 38.63 40.25 38.63 40.58C38.63 40.91 38.36 41.19 38.03 41.19C37.69 41.19 37.42 40.91 37.42 40.58ZM44.56 40.52C44.56 40.19 44.83 39.92 45.16 39.92C45.49 39.92 45.77 40.19 45.77 40.52C45.77 40.86 45.49 41.13 45.16 41.13C44.83 41.13 44.56 40.86 44.56 40.52ZM57.14 39.86C57.14 39.53 57.41 39.25 57.75 39.25C58.08 39.25 58.35 39.53 58.35 39.86C58.35 40.19 58.08 40.46 57.75 40.46C57.41 40.46 57.14 40.19 57.14 39.86ZM26.89 39.37C26.89 39.04 27.17 38.77 27.5 38.77C27.83 38.77 28.1 39.04 28.1 39.37C28.1 39.71 27.83 39.98 27.5 39.98C27.17 39.98 26.89 39.71 26.89 39.37ZM42.26 39.32C42.26 38.98 42.53 38.71 42.86 38.71C43.2 38.71 43.47 38.98 43.47 39.32C43.47 39.65 43.2 39.92 42.86 39.92C42.53 39.92 42.26 39.65 42.26 39.32ZM30.4 38.25C30.4 38.07 30.55 37.92 30.74 37.92C30.92 37.92 31.07 38.07 31.07 38.25C31.07 38.44 30.92 38.59 30.74 38.59C30.55 38.59 30.4 38.44 30.4 38.25ZM21.69 37.29C21.69 37.1 21.84 36.95 22.02 36.95C22.2 36.95 22.36 37.1 22.36 37.29C22.36 37.47 22.2 37.62 22.02 37.62C21.84 37.62 21.69 37.47 21.69 37.29ZM43.65 37.17C43.65 36.98 43.8 36.83 43.98 36.83C44.16 36.83 44.31 36.98 44.31 37.17C44.31 37.35 44.16 37.5 43.98 37.5C43.8 37.5 43.65 37.35 43.65 37.17ZM53.09 36.35C53.09 36.01 53.35 35.75 53.69 35.74C54.02 35.74 54.3 36.01 54.3 36.35C54.3 36.68 54.02 36.95 53.69 36.95C53.35 36.95 53.09 36.68 53.09 36.35ZM37.3 36.38C37.3 36.2 37.45 36.05 37.63 36.05C37.81 36.05 37.96 36.2 37.96 36.38C37.96 36.56 37.81 36.71 37.63 36.71C37.45 36.71 37.3 36.56 37.3 36.38ZM61.07 35.84C61.07 35.65 61.22 35.5 61.4 35.5C61.58 35.5 61.73 35.65 61.73 35.84C61.73 36.02 61.58 36.17 61.4 36.17C61.22 36.17 61.07 36.02 61.07 35.84ZM37.78 35.44C37.78 35.11 38.05 34.83 38.39 34.83C38.72 34.83 38.99 35.11 38.99 35.44C38.99 35.77 38.72 36.05 38.39 36.05C38.05 36.05 37.78 35.77 37.78 35.44ZM47.46 35.26C47.46 34.92 47.73 34.66 48.07 34.66C48.4 34.66 48.67 34.92 48.67 35.26C48.67 35.59 48.4 35.87 48.07 35.87C47.73 35.87 47.46 35.59 47.46 35.26ZM51.88 34.68C51.88 34.5 52.03 34.35 52.21 34.35C52.39 34.35 52.54 34.5 52.54 34.68C52.54 34.87 52.39 35.02 52.21 35.02C52.03 35.02 51.88 34.87 51.88 34.68ZM60.64 34.23C60.64 33.9 60.92 33.62 61.25 33.62C61.59 33.62 61.85 33.9 61.85 34.23C61.85 34.57 61.59 34.83 61.25 34.83C60.92 34.83 60.64 34.57 60.64 34.23ZM29.23 34.83L29.16 34.83C28.98 34.83 28.83 34.68 28.83 34.5C28.83 34.32 28.98 34.17 29.16 34.17C29.35 34.17 29.49 34.32 29.49 34.5C29.49 34.66 29.38 34.8 29.23 34.83ZM56.71 33.54C56.71 33.36 56.86 33.2 57.05 33.2C57.23 33.2 57.38 33.36 57.38 33.54C57.38 33.72 57.23 33.87 57.05 33.87C56.86 33.87 56.71 33.72 56.71 33.54ZM32.22 32.66C32.22 32.32 32.49 32.05 32.82 32.05C33.16 32.05 33.42 32.32 33.42 32.66C33.42 32.99 33.16 33.26 32.82 33.26C32.49 33.26 32.22 32.99 32.22 32.66ZM52.97 32.45C52.97 32.27 53.12 32.11 53.3 32.11C53.48 32.11 53.63 32.27 53.63 32.45C53.63 32.63 53.48 32.78 53.3 32.78C53.12 32.78 52.97 32.63 52.97 32.45ZM43.34 31.93C43.01 31.93 42.74 31.66 42.74 31.33C42.74 30.99 43.01 30.73 43.34 30.73C43.51 30.73 43.67 30.8 43.78 30.91C43.82 30.77 43.95 30.66 44.1 30.66C44.28 30.66 44.43 30.81 44.43 30.99C44.43 31.18 44.28 31.33 44.1 31.33C44.04 31.33 43.99 31.32 43.94 31.29C43.95 31.3 43.95 31.31 43.95 31.33C43.95 31.66 43.68 31.93 43.34 31.93ZM49.52 30.87C49.52 30.69 49.66 30.54 49.85 30.54C50.03 30.54 50.18 30.69 50.18 30.87C50.18 31.06 50.03 31.21 49.85 31.21C49.66 31.21 49.52 31.06 49.52 30.87ZM59.8 30.75C59.8 30.57 59.95 30.42 60.14 30.42C60.32 30.42 60.47 30.57 60.47 30.75C60.47 30.94 60.32 31.09 60.14 31.09C59.95 31.09 59.8 30.94 59.8 30.75ZM56.95 30.42C56.95 30.09 57.23 29.81 57.56 29.81C57.9 29.81 58.17 30.09 58.17 30.42C58.17 30.76 57.9 31.02 57.56 31.02C57.23 31.02 56.95 30.76 56.95 30.42ZM31.67 30.24C31.67 29.9 31.95 29.64 32.28 29.64C32.61 29.64 32.88 29.9 32.88 30.24C32.88 30.57 32.61 30.85 32.28 30.85C31.95 30.85 31.67 30.57 31.67 30.24ZM37.42 30.18C37.2 30.18 37.01 30.06 36.9 29.88C36.81 29.82 36.75 29.72 36.75 29.6C36.75 29.51 36.79 29.43 36.85 29.37C36.94 29.14 37.16 28.97 37.42 28.97C37.75 28.97 38.03 29.24 38.03 29.57C38.03 29.91 37.75 30.18 37.42 30.18L37.42 30.18ZM50.36 29.03C50.36 28.69 50.63 28.43 50.97 28.43C51.3 28.43 51.57 28.69 51.57 29.03C51.57 29.36 51.3 29.64 50.97 29.64C50.63 29.64 50.36 29.36 50.36 29.03ZM28.04 28.43C28.04 28.09 28.31 27.82 28.65 27.82C28.98 27.82 29.25 28.09 29.25 28.43C29.25 28.76 28.98 29.03 28.65 29.03C28.31 29.03 28.04 28.76 28.04 28.43ZM38.51 26.82C38.51 26.64 38.66 26.49 38.84 26.49C39.02 26.49 39.17 26.64 39.17 26.82C39.17 27.01 39.02 27.15 38.84 27.15C38.66 27.15 38.51 27.01 38.51 26.82ZM58.89 26.7C58.89 26.52 59.04 26.37 59.22 26.37C59.41 26.37 59.56 26.52 59.56 26.7C59.56 26.89 59.41 27.03 59.22 27.03C59.04 27.03 58.89 26.89 58.89 26.7ZM31.25 26.64C31.25 26.45 31.4 26.31 31.58 26.31C31.76 26.31 31.91 26.45 31.91 26.64C31.91 26.82 31.76 26.97 31.58 26.97C31.4 26.97 31.25 26.82 31.25 26.64ZM54.66 25.25C54.66 25.06 54.8 24.91 54.99 24.91C55.17 24.91 55.32 25.06 55.32 25.25C55.32 25.43 55.17 25.58 54.99 25.58C54.8 25.58 54.66 25.43 54.66 25.25ZM55.69 24.49C55.69 24.16 55.96 23.89 56.29 23.89C56.62 23.89 56.9 24.16 56.9 24.49C56.9 24.82 56.62 25.1 56.29 25.1C55.96 25.1 55.69 24.82 55.69 24.49ZM34.21 24.04C34.21 23.85 34.37 23.7 34.55 23.7C34.73 23.7 34.88 23.85 34.88 24.04C34.88 24.22 34.73 24.37 34.55 24.37C34.37 24.37 34.21 24.22 34.21 24.04ZM36.69 23.53C36.69 23.19 36.97 22.92 37.3 22.92C37.63 22.92 37.9 23.19 37.9 23.53C37.9 23.86 37.63 24.13 37.3 24.13C36.97 24.13 36.69 23.86 36.69 23.53ZM31.49 22.56C31.49 22.23 31.76 21.95 32.1 21.95C32.43 21.95 32.7 22.23 32.7 22.56C32.7 22.89 32.43 23.16 32.1 23.16C31.76 23.16 31.49 22.89 31.49 22.56ZM49.21 22.64C49.21 22.46 49.36 22.31 49.54 22.31C49.73 22.31 49.88 22.46 49.88 22.64C49.88 22.83 49.73 22.98 49.54 22.98C49.36 22.98 49.21 22.83 49.21 22.64ZM41.11 22.31C41.11 21.98 41.38 21.71 41.71 21.71C42.04 21.71 42.32 21.98 42.32 22.31C42.32 22.65 42.04 22.92 41.71 22.92C41.38 22.92 41.11 22.65 41.11 22.31ZM51.81 21.98C51.81 21.8 51.96 21.65 52.15 21.65C52.33 21.65 52.48 21.8 52.48 21.98C52.48 22.16 52.33 22.31 52.15 22.31C51.96 22.31 51.81 22.16 51.81 21.98ZM40.14 20.59C40.14 20.41 40.29 20.26 40.47 20.26C40.66 20.26 40.81 20.41 40.81 20.59C40.81 20.78 40.66 20.93 40.47 20.93C40.29 20.93 40.14 20.78 40.14 20.59ZM26.89 20.13C26.89 19.8 27.17 19.53 27.5 19.53C27.83 19.53 28.1 19.8 28.1 20.13C28.1 20.47 27.83 20.74 27.5 20.74C27.17 20.74 26.89 20.47 26.89 20.13ZM49.94 18.96C49.94 18.78 50.09 18.63 50.27 18.63C50.46 18.63 50.61 18.78 50.61 18.96C50.61 19.14 50.46 19.29 50.27 19.29C50.09 19.29 49.94 19.14 49.94 18.96ZM51.81 18.26C51.81 17.93 52.09 17.66 52.42 17.66C52.76 17.66 53.02 17.93 53.02 18.26C53.02 18.59 52.76 18.87 52.42 18.87C52.09 18.87 51.81 18.59 51.81 18.26ZM26.35 17.62C26.35 17.44 26.5 17.29 26.68 17.29C26.86 17.29 27.01 17.44 27.01 17.62C27.01 17.81 26.86 17.96 26.68 17.96C26.5 17.96 26.35 17.81 26.35 17.62ZM52.12 16.36C52.12 16.18 52.27 16.03 52.45 16.03C52.63 16.03 52.78 16.17 52.78 16.36C52.78 16.54 52.63 16.69 52.45 16.69C52.27 16.69 52.12 16.54 52.12 16.36ZM35.48 15.45C35.48 15.26 35.63 15.11 35.81 15.11C36 15.11 36.15 15.26 36.15 15.45C36.15 15.63 36 15.78 35.81 15.78C35.63 15.78 35.48 15.63 35.48 15.45ZM26.96 13.81C26.96 13.63 27.1 13.48 27.29 13.48C27.47 13.48 27.62 13.63 27.62 13.81C27.62 14 27.47 14.15 27.29 14.15C27.1 14.15 26.96 14 26.96 13.81ZM28.65 12.6C28.65 12.42 28.79 12.27 28.98 12.27C29.16 12.27 29.31 12.42 29.31 12.6C29.31 12.79 29.16 12.94 28.98 12.94C28.79 12.94 28.65 12.79 28.65 12.6Z" />
		<path id="Layer" class="shp8" d="M46.29 24.17C46.29 29.59 41.9 33.98 36.48 33.98C31.06 33.98 26.66 29.59 26.66 24.17C26.66 18.75 31.06 14.36 36.48 14.36C41.9 14.36 46.29 18.75 46.29 24.17Z" />
		<path id="Layer" class="shp9" d="M30.56 22.32C29.8 20.43 30.33 18.05 31.86 17.25C33.39 16.44 35.29 17.31 36.09 19.18C36.33 19.71 36.46 20.29 36.5 20.88C36.54 20.29 36.68 19.71 36.91 19.18C37.72 17.31 39.61 16.44 41.14 17.25C42.67 18.05 43.09 20.4 42.45 22.32C41.33 25.64 37.98 27.56 36.5 31.39C35.27 27.58 31.86 25.59 30.55 22.32L30.56 22.32Z" />
		<path id="Layer" class="shp10" d="M46.29 49.99C46.29 55.41 41.9 59.8 36.48 59.8C31.06 59.8 26.66 55.41 26.66 49.99C26.66 44.57 31.06 40.18 36.48 40.18C41.9 40.18 46.29 44.57 46.29 49.99Z" />
		<path id="Layer" class="shp11" d="M30.56 48.14C29.8 46.25 30.33 43.87 31.86 43.07C33.39 42.27 35.29 43.13 36.09 45C36.33 45.53 36.46 46.12 36.5 46.7C36.54 46.12 36.68 45.53 36.91 45C37.72 43.13 39.61 42.27 41.14 43.07C42.67 43.87 43.09 46.22 42.45 48.14C41.33 51.46 37.98 53.38 36.5 57.22C35.27 53.4 31.86 51.41 30.55 48.14L30.56 48.14Z" />
		<path id="Layer" class="shp12" d="M46.29 77.64C46.29 83.06 41.9 87.45 36.48 87.45C31.06 87.45 26.66 83.06 26.66 77.64C26.66 72.22 31.06 67.82 36.48 67.82C41.9 67.82 46.29 72.22 46.29 77.64Z" />
		<path id="Layer" class="shp13" d="M30.56 75.78C29.8 73.9 30.33 71.51 31.86 70.71C33.39 69.91 35.29 70.77 36.09 72.64C36.33 73.18 36.46 73.76 36.5 74.34C36.54 73.76 36.68 73.18 36.91 72.64C37.72 70.77 39.61 69.91 41.14 70.71C42.67 71.51 43.09 73.87 42.45 75.78C41.33 79.1 37.98 81.03 36.5 84.86C35.27 81.05 31.86 79.05 30.55 75.78L30.56 75.78Z" />
	</g>
</svg>