<svg xmlns="http://www.w3.org/2000/svg" viewBox="0 0 73 102" width="73" height="102">
	<defs>
		<filter x="-50%" y="-50%" width="200%" height="200%" id="flt1"> <feGaussianBlur stdDeviation="0.85" /> </filter>
		<linearGradient id="grd1" gradientUnits="userSpaceOnUse"  x1="41.178" y1="26.385" x2="43.323" y2="-89.997">
			<stop offset="0" stop-color="#f3f3f3"  />
			<stop offset="1" stop-color="#8f8f8f"  />
		</linearGradient>
		<radialGradient id="grd2" gradientUnits="userSpaceOnUse"  cx="10.231" cy="91.644" r="13.273">
			<stop offset="0" stop-color="#ffffff"  />
			<stop offset="1" stop-color="#ffffff" stop-opacity="0" />
		</radialGradient>
		<radialGradient id="grd3" gradientUnits="userSpaceOnUse"  cx="62.298" cy="12.588" r="14.287">
			<stop offset="0" stop-color="#ffffff"  />
			<stop offset="1" stop-color="#ffffff" stop-opacity="0" />
		</radialGradient>
		<radialGradient id="grd4" gradientUnits="userSpaceOnUse"  cx="36.682" cy="50.581" r="22.382">
			<stop offset="0" stop-color="#ffffff"  />
			<stop offset="1" stop-color="#ffffff" stop-opacity="0" />
		</radialGradient>
		<linearGradient id="grd5" gradientUnits="userSpaceOnUse"  x1="-787.125" y1="90.96" x2="-787.125" y2="87.77">
			<stop offset="0" stop-color="#000000"  />
			<stop offset="1" stop-color="#555753"  />
		</linearGradient>
		<radialGradient id="grd6" gradientUnits="userSpaceOnUse"  cx="17.91" cy="73.826" r="25.374">
			<stop offset="0" stop-color="#000000"  />
			<stop offset="1" stop-color="#000000" stop-opacity="0" />
		</radialGradient>
		<linearGradient id="grd7" gradientUnits="userSpaceOnUse"  x1="30.525" y1="24.24" x2="30.775" y2="67.38">
			<stop offset="0" stop-color="#000000"  />
			<stop offset="1" stop-color="#6f6f6f"  />
		</linearGradient>
		<linearGradient id="grd8" gradientUnits="userSpaceOnUse"  x1="-787.121" y1="15.93" x2="-787.121" y2="5.36">
			<stop offset="0" stop-color="#000000"  />
			<stop offset="1" stop-color="#6f6f6f"  />
		</linearGradient>
		<linearGradient id="grd9" gradientUnits="userSpaceOnUse"  x1="10.905" y1="-287.3" x2="23.085" y2="-287.3">
			<stop offset="0" stop-color="#000000"  />
			<stop offset="1" stop-color="#6f6f6f"  />
		</linearGradient>
	</defs>
	<style>
		tspan { white-space:pre }
		.shp0 { filter: url(#flt1);fill: #000000 } 
		.shp1 { fill: url(#grd1);stroke: #000000;stroke-width: 0.226 } 
		.shp2 { opacity: 0.31;fill: url(#grd2) } 
		.shp3 { opacity: 0.318;fill: url(#grd3) } 
		.shp4 { fill: none;stroke: #000000;stroke-width: 0.226 } 
		.shp5 { opacity: 0.325;fill: url(#grd4) } 
		.shp6 { fill: url(#grd5);stroke: #1b1b1b;stroke-linejoin:round;stroke-width: 0.177 } 
		.shp7 { fill: url(#grd6) } 
		.shp8 { fill: url(#grd7);stroke: #0c0c0c;stroke-width: 0.385 } 
		.shp9 { fill: url(#grd8) } 
		.shp10 { fill: url(#grd9);stroke: #0c0c0c;stroke-linejoin:round;stroke-width: 0.368 } 
	</style>
	<g id="-e-Spade11">
		<g id="Layer">
			<path id="Layer" fill-rule="evenodd" class="shp0" d="M4.66 1.56L67.91 1.56C68.36 1.56 68.81 1.65 69.23 1.83C69.65 2 70.03 2.25 70.35 2.57C70.67 2.89 70.92 3.28 71.09 3.69C71.27 4.11 71.36 4.56 71.36 5.01L71.36 97.3C71.36 97.75 71.27 98.2 71.09 98.62C70.92 99.04 70.67 99.42 70.35 99.74C70.03 100.06 69.65 100.32 69.23 100.49C68.81 100.66 68.36 100.75 67.91 100.75L4.66 100.75C4.2 100.75 3.75 100.66 3.34 100.49C2.92 100.32 2.54 100.06 2.22 99.74C1.9 99.42 1.64 99.04 1.47 98.62C1.29 98.2 1.21 97.75 1.21 97.3L1.21 5.01C1.21 4.56 1.29 4.11 1.47 3.69C1.64 3.28 1.9 2.89 2.22 2.57C2.54 2.25 2.92 2 3.34 1.83C3.75 1.65 4.2 1.56 4.66 1.56" />
			<path id="Layer" fill-rule="evenodd" class="shp1" d="M5.66 0.99L67.71 0.99C68.24 0.99 68.77 1.09 69.26 1.3C69.75 1.5 70.2 1.8 70.57 2.17C70.95 2.55 71.25 3 71.45 3.49C71.66 3.98 71.76 4.51 71.76 5.04L71.76 96.12C71.76 96.65 71.66 97.18 71.45 97.67C71.25 98.16 70.95 98.61 70.57 98.99C70.2 99.36 69.75 99.66 69.26 99.87C68.77 100.07 68.24 100.17 67.71 100.17L5.66 100.17C5.13 100.17 4.6 100.07 4.11 99.87C3.62 99.66 3.17 99.36 2.8 98.99C2.42 98.61 2.12 98.16 1.92 97.67C1.71 97.18 1.61 96.65 1.61 96.12L1.61 5.04C1.61 4.51 1.71 3.98 1.92 3.49C2.12 3 2.42 2.55 2.8 2.17C3.17 1.8 3.62 1.5 4.11 1.3C4.6 1.09 5.13 0.99 5.66 0.99" />
			<path id="Layer" class="shp2" d="M30.76 96.71L5.92 96.71C5.81 96.71 5.7 96.69 5.59 96.64C5.49 96.6 5.39 96.54 5.32 96.46C5.24 96.38 5.17 96.29 5.13 96.18C5.09 96.08 5.06 95.97 5.06 95.86L5.06 73.28C5.06 73.17 5.09 73.06 5.13 72.96C5.17 72.85 5.24 72.76 5.32 72.68C5.39 72.6 5.49 72.54 5.59 72.5C5.7 72.45 5.81 72.43 5.92 72.43L30.76 72.43C30.87 72.43 30.98 72.45 31.08 72.5C31.19 72.54 31.28 72.6 31.36 72.68C31.44 72.76 31.5 72.85 31.55 72.96C31.59 73.06 31.61 73.17 31.61 73.28L31.61 95.86C31.61 95.97 31.59 96.08 31.55 96.18C31.5 96.29 31.44 96.38 31.36 96.46C31.28 96.54 31.19 96.6 31.08 96.64C30.98 96.69 30.87 96.71 30.76 96.71" />
			<path id="Layer" class="shp3" d="M40.77 4.45L67.27 4.45C67.4 4.45 67.54 4.48 67.67 4.53C67.79 4.58 67.91 4.66 68 4.75C68.1 4.85 68.17 4.97 68.23 5.09C68.28 5.22 68.31 5.35 68.31 5.49L68.31 48.69C68.31 48.82 68.28 48.96 68.23 49.08C68.17 49.21 68.1 49.32 68 49.42C67.91 49.52 67.79 49.59 67.67 49.64C67.54 49.7 67.4 49.72 67.27 49.72L40.77 49.72C40.63 49.72 40.5 49.7 40.37 49.64C40.25 49.59 40.13 49.52 40.04 49.42C39.94 49.32 39.86 49.21 39.81 49.08C39.76 48.96 39.73 48.82 39.73 48.69L39.73 5.49C39.73 5.35 39.76 5.22 39.81 5.09C39.86 4.97 39.94 4.85 40.04 4.75C40.13 4.66 40.25 4.58 40.37 4.53C40.5 4.48 40.63 4.45 40.77 4.45" />
			<path id="Layer" class="shp4" d="M20.03 92.68L64.75 92.68L64.75 19.08" />
			<path id="Layer" class="shp4" d="M53.18 8.47L8.62 8.47L8.62 81.66" />
			<path id="Layer" class="shp5" d="M59.06 50.58C59.06 72.47 49.04 90.22 36.68 90.22C24.31 90.22 14.29 72.47 14.29 50.58C14.29 28.69 24.31 10.95 36.68 10.95C49.04 10.95 59.06 28.69 59.06 50.58Z" />
		</g>
		<path id="Layer" class="shp6" d="M11.66 85.87C11.11 87.36 9.56 88.24 8.96 89.52C8.62 90.26 8.86 91.1 9.56 91.42C10.18 91.7 10.95 91.45 11.36 90.86C11.36 90.93 11.37 90.99 11.37 91.06C11.37 91.76 11.11 92.4 10.7 92.86L12.61 92.86C12.17 92.4 11.9 91.74 11.9 91.02C11.9 90.93 11.9 90.85 11.91 90.77C12.3 91.43 13.11 91.72 13.77 91.42C14.46 91.1 14.66 90.28 14.37 89.52C13.86 88.22 12.34 87.37 11.66 85.87L11.66 85.87Z" />
		<path id="Layer" fill-rule="evenodd" class="shp7" d="M17.81 89.44C17.81 89.44 17.81 89.44 17.81 89.44C17.81 89.44 17.81 89.44 17.81 89.44L17.81 89.44ZM17.81 89.44C15.5 83.67 13.94 83.84 11.95 83.26L14.92 83.26C14.94 83.16 14.96 83.07 14.97 82.97C15.03 82.72 15.1 82.47 15.18 82.22C15.18 81.89 15.18 81.56 15.18 81.23C15.19 80.52 15.29 79.81 15.38 79.1C15.4 78.92 15.43 78.73 15.45 78.55C15.36 78.47 15.38 77.93 15.64 76.87C15.69 76.66 15.73 76.44 15.77 76.22C15.86 75.72 15.97 75.22 16.08 74.73C16.2 74.14 16.4 73.56 16.58 72.99C16.82 72.3 17.11 71.64 17.39 70.98C17.74 70.16 18.1 69.35 18.46 68.54C18.95 67.44 19.5 66.38 20.04 65.31C20.72 64 21.33 62.65 21.92 61.29C22.61 59.63 23.3 57.98 23.99 56.32C24.74 54.55 25.45 52.76 26.12 50.97C26.17 50.85 26.21 50.74 26.25 50.62C26.24 50.58 26.23 50.54 26.23 50.5C26.23 50.38 26.29 50.27 26.39 50.21C26.99 48.53 27.53 46.84 28.05 45.13C28.71 42.99 29.26 40.81 29.7 38.61C30.15 36.05 30.26 33.46 30.23 30.87C30.17 28.75 29.95 26.65 29.7 24.55C29.59 24.64 29.46 24.7 29.31 24.7C28.98 24.7 28.7 24.43 28.7 24.1C28.7 23.77 28.98 23.49 29.31 23.49C29.41 23.49 29.5 23.52 29.59 23.56L29.52 23C29.42 22.26 29.32 21.52 29.21 20.78C29.16 20.88 29.04 20.95 28.92 20.95C28.73 20.95 28.58 20.81 28.58 20.62C28.58 20.44 28.73 20.29 28.92 20.29C29 20.29 29.09 20.32 29.15 20.37C29.05 19.68 28.94 18.98 28.83 18.29C28.66 17.22 28.69 16.57 28.81 16.41C28.71 16.3 28.65 16.15 28.65 15.99C28.65 15.66 28.91 15.39 29.25 15.39C29.58 15.39 29.86 15.66 29.86 15.99C29.86 16.33 29.58 16.6 29.25 16.6C29.18 16.6 29.12 16.58 29.06 16.56C29.17 16.8 29.3 17.26 29.41 17.96C29.65 19.52 29.89 21.09 30.09 22.67C30.41 25.28 30.72 27.9 30.8 30.53C30.82 33.12 30.72 35.72 30.28 38.28C29.84 40.48 29.28 42.65 28.63 44.79C28.07 46.64 27.49 48.49 26.83 50.3C26.87 50.36 26.89 50.43 26.89 50.5C26.89 50.66 26.78 50.79 26.64 50.83C25.99 52.56 25.3 54.28 24.57 55.98C23.89 57.64 23.2 59.3 22.51 60.95C21.93 62.31 21.32 63.65 20.64 64.96C20.1 66.03 19.55 67.1 19.07 68.19C18.71 69 18.35 69.81 18 70.62C17.72 71.29 17.43 71.95 17.19 72.64C17.01 73.21 16.81 73.79 16.69 74.38C16.68 74.45 16.66 74.52 16.65 74.59C16.84 74.16 17.03 73.74 17.23 73.32C17.38 73.01 17.55 72.71 17.72 72.4C17.72 72.4 17.72 72.39 17.72 72.38C17.8 72.13 17.94 71.91 18.04 71.68C18.21 71.33 18.42 71 18.62 70.67C18.81 70.35 19.02 70.05 19.24 69.75C19.81 68.75 20.47 67.8 21.14 66.87C21.67 66.14 22.28 65.49 22.91 64.85C22.93 64.71 23.04 64.59 23.18 64.57L23.7 64.05C24.7 63.11 25.74 62.2 26.74 61.25C27.93 60.14 29.08 58.99 30.22 57.84C31.53 56.53 32.73 55.12 33.84 53.65C35.09 51.94 36.13 50.09 37.14 48.24C37.47 47.64 37.78 47.03 38.08 46.41L37.96 46.42C37.62 46.42 37.36 46.15 37.36 45.81C37.36 45.48 37.62 45.21 37.96 45.21C38.18 45.21 38.38 45.33 38.48 45.52C38.97 44.4 39.4 43.27 39.79 42.12L39.86 41.89C39.82 41.62 39.8 41.22 39.82 40.67C39.84 39.73 39.86 38.8 39.84 37.86C39.78 36.17 39.67 34.49 39.45 32.82C39.26 31.68 39.09 30.53 38.76 29.42C38.59 28.86 38.44 28.29 38.18 27.76C38.09 27.62 38.05 27.45 37.92 27.33C35.99 25.64 36.63 25.25 38.54 26.96C38.67 27.08 38.72 27.26 38.81 27.41C39.05 27.94 39.21 28.51 39.37 29.07C39.7 30.18 39.87 31.33 40.05 32.47C40.27 34.14 40.37 35.83 40.42 37.51C40.44 38.22 40.43 38.94 40.42 39.65C40.74 38.16 40.97 36.65 41.16 35.14C41.21 34.47 41.24 33.8 41.26 33.13C41.19 33.15 41.12 33.17 41.05 33.17C40.71 33.17 40.44 32.9 40.44 32.56C40.44 32.23 40.71 31.96 41.05 31.96C41.13 31.96 41.21 31.98 41.28 32.01C41.28 30.97 41.26 29.94 41.23 28.9C40.99 28.82 40.81 28.61 40.81 28.34C40.81 28.08 40.97 27.86 41.2 27.77C41.19 27.66 41.18 27.55 41.18 27.44C41.17 27.03 41.15 26.61 41.14 26.19C41.05 23.85 41.63 23.52 41.71 25.86C41.73 26.28 41.74 26.69 41.75 27.11C41.76 27.36 41.77 27.61 41.78 27.85C41.92 27.97 42.02 28.14 42.02 28.34C42.02 28.52 41.94 28.68 41.81 28.79C41.87 30.79 41.89 32.8 41.73 34.8C41.44 37.16 41.06 39.51 40.37 41.79C39.66 43.9 38.81 45.96 37.72 47.91C36.71 49.76 35.67 51.6 34.43 53.31C33.32 54.78 32.12 56.19 30.82 57.5C29.68 58.65 28.52 59.8 27.34 60.91C26.33 61.85 25.3 62.76 24.3 63.71C23.99 64.01 23.69 64.31 23.39 64.61C23.47 64.66 23.53 64.73 23.55 64.82C24.31 64.04 25.11 63.31 25.92 62.58L28.72 60.09C29.71 59.21 30.71 58.33 31.71 57.46C32.83 56.48 33.92 55.47 35 54.45C36.22 53.29 37.41 52.1 38.59 50.9C39.84 49.65 41.02 48.32 42.16 46.97C43.04 45.93 43.87 44.85 44.69 43.76C44.68 43.72 44.67 43.68 44.67 43.64C44.67 43.32 44.91 43.07 45.22 43.04L45.83 42.2C46.91 40.71 47.89 39.16 48.81 37.57C48.77 37.58 48.74 37.59 48.7 37.59C48.51 37.59 48.36 37.44 48.36 37.26C48.36 37.07 48.51 36.92 48.7 36.92C48.86 36.92 48.99 37.04 49.02 37.19C49.11 37.04 49.2 36.89 49.28 36.74C50.36 34.73 51.39 32.68 52.08 30.51C52.59 28.6 52.89 26.66 53.2 24.72C53.57 22.38 54.15 22.04 53.78 24.38C53.47 26.32 53.17 28.27 52.66 30.17C51.97 32.35 50.95 34.4 49.87 36.41C48.82 38.29 47.68 40.12 46.41 41.86C46.12 42.27 45.82 42.68 45.52 43.08C45.73 43.18 45.88 43.39 45.88 43.64C45.88 43.97 45.62 44.24 45.28 44.24C45.1 44.24 44.93 44.16 44.82 44.02C44.15 44.91 43.46 45.78 42.75 46.63C41.6 47.98 40.42 49.31 39.17 50.56C38.6 51.14 38.03 51.72 37.46 52.29C37.63 52.13 37.93 51.85 38.39 51.46C39.49 50.52 40.61 49.6 41.76 48.72C42.84 47.9 43.95 47.12 45.17 46.51C45.27 46.32 45.47 46.18 45.71 46.18C45.76 46.18 45.81 46.18 45.86 46.19C46.05 46.12 46.23 46.07 46.43 46.06C48.86 45.9 48.39 46.23 46.16 46.39C46.25 46.5 46.31 46.63 46.31 46.78C46.31 47.12 46.04 47.39 45.71 47.39C45.37 47.39 45.1 47.12 45.1 46.78C45.1 46.72 45.12 46.66 45.13 46.6L44.63 46.82C44.23 46.98 43.19 47.76 42.36 48.38C41.2 49.26 40.08 50.18 38.98 51.12C37.84 52.09 37.18 52.6 37.29 52.45C36.73 53.01 36.17 53.56 35.6 54.1C34.52 55.12 33.43 56.14 32.31 57.11C31.31 57.99 30.31 58.86 29.32 59.75C28.39 60.58 27.46 61.41 26.53 62.24C25.66 63.02 24.8 63.8 23.99 64.64C23.26 65.38 22.54 66.11 21.87 66.9C21.34 67.51 20.82 68.13 20.32 68.76L19.81 69.46C19.78 69.51 19.75 69.56 19.72 69.6C19.27 70.38 18.82 71.15 18.39 71.93L18.35 72.02C18.31 72.15 18.27 72.28 18.21 72.4C17.86 73.16 17.55 73.71 17.34 74.02C17.02 74.74 16.72 75.46 16.51 76.22C16.29 77.05 16.08 77.89 15.99 78.75C15.91 79.35 15.83 79.96 15.81 80.57L15.95 80.27C16.27 79.65 16.65 79.08 17.04 78.51C17.35 78.03 17.69 77.58 18.06 77.15C17.98 77.05 17.94 76.92 17.94 76.79C17.94 76.45 18.21 76.18 18.54 76.18C18.65 76.18 18.76 76.21 18.85 76.26C19.43 75.66 20.05 75.1 20.67 74.55C21.48 73.8 22.34 73.11 23.2 72.44C24.23 71.64 25.33 70.93 26.43 70.21C27.68 69.4 28.95 68.62 30.24 67.86L30.53 67.69C30.28 67.62 30.1 67.38 30.1 67.11C30.1 66.77 30.37 66.5 30.7 66.5C31.04 66.5 31.3 66.77 31.3 67.11C31.3 67.44 31.04 67.71 30.7 67.71C30.65 67.71 30.6 67.71 30.56 67.69C29.5 68.33 28.46 68.97 27.42 69.64C26.33 70.35 25.24 71.06 24.21 71.86C23.35 72.53 22.49 73.22 21.68 73.96C20.95 74.62 20.21 75.27 19.55 76L19.09 76.54C19.13 76.61 19.15 76.7 19.15 76.79C19.15 77.12 18.88 77.39 18.54 77.39C18.51 77.39 18.47 77.39 18.44 77.38C18.31 77.56 18.18 77.74 18.06 77.92C17.68 78.49 17.29 79.06 16.97 79.67C16.75 80.14 16.51 80.61 16.37 81.11C16.3 81.34 16.23 81.57 16.16 81.8C16.25 81.86 16.3 81.96 16.3 82.08C16.3 82.25 16.17 82.39 16 82.41C15.95 82.71 15.87 83.01 15.87 83.31C15.88 83.49 15.88 83.66 15.91 83.84C15.93 83.94 15.93 84.04 15.97 84.14C16.24 85.35 18.34 88.54 17.81 89.44ZM18.06 84.44C18.06 84.25 18.21 84.1 18.39 84.1C18.58 84.1 18.73 84.25 18.73 84.44C18.73 84.62 18.58 84.77 18.39 84.77C18.21 84.77 18.06 84.62 18.06 84.44ZM13.16 82.47C13.16 82.14 13.43 81.86 13.76 81.86C14.1 81.86 14.37 82.14 14.37 82.47C14.37 82.81 14.1 83.08 13.76 83.08C13.43 83.08 13.16 82.81 13.16 82.47ZM16.43 81.74C16.43 81.41 16.7 81.14 17.03 81.14C17.36 81.14 17.64 81.41 17.64 81.74C17.64 82.08 17.36 82.35 17.03 82.35C16.7 82.35 16.43 82.08 16.43 81.74ZM12.43 80.32C12.43 80.14 12.58 79.99 12.77 79.99C12.95 79.99 13.1 80.14 13.1 80.32C13.1 80.51 12.95 80.65 12.77 80.65C12.58 80.65 12.43 80.51 12.43 80.32ZM13.95 79.78C13.95 79.59 14.1 79.45 14.28 79.45C14.46 79.45 14.61 79.59 14.61 79.78C14.61 79.96 14.46 80.11 14.28 80.11C14.1 80.11 13.95 79.96 13.95 79.78ZM19.39 78.78C19.39 78.45 19.66 78.18 19.99 78.18C20.33 78.18 20.6 78.45 20.6 78.78C20.6 79.11 20.33 79.39 19.99 79.39C19.66 79.39 19.39 79.11 19.39 78.78ZM21.08 78.02C21.08 77.84 21.23 77.69 21.41 77.69C21.6 77.69 21.75 77.84 21.75 78.02C21.75 78.21 21.6 78.36 21.41 78.36C21.23 78.36 21.08 78.21 21.08 78.02ZM12.49 77.09C12.49 76.76 12.77 76.48 13.1 76.48C13.43 76.48 13.71 76.76 13.71 77.09C13.71 77.43 13.43 77.69 13.1 77.69C12.77 77.69 12.49 77.43 12.49 77.09ZM13.88 75.33C13.88 75 14.16 74.73 14.49 74.73C14.83 74.73 15.09 75 15.09 75.33C15.09 75.66 14.83 75.94 14.49 75.94C14.16 75.94 13.88 75.66 13.88 75.33ZM21.99 75.37C21.99 75.18 22.14 75.03 22.33 75.03C22.51 75.03 22.66 75.18 22.66 75.37C22.66 75.55 22.51 75.7 22.33 75.7C22.14 75.7 21.99 75.55 21.99 75.37ZM26.1 74.55C26.1 74.21 26.38 73.95 26.71 73.95C27.04 73.94 27.32 74.21 27.32 74.55C27.32 74.88 27.04 75.15 26.71 75.15C26.38 75.15 26.1 74.88 26.1 74.55ZM19.63 73.82C19.63 73.49 19.91 73.22 20.24 73.22C20.57 73.22 20.84 73.49 20.84 73.82C20.84 74.16 20.57 74.43 20.24 74.43C19.91 74.43 19.63 74.16 19.63 73.82ZM22.61 74.28C22.59 74.27 22.96 73.98 23.82 73.34C24.3 73 24.76 72.63 25.27 72.32C26.38 71.65 27.5 70.98 28.69 70.45C29.54 70.07 30.39 69.69 31.25 69.36C31.86 69.11 32.46 68.87 33.07 68.64L33.86 68.34C36.24 67.42 35.62 67.79 33.23 68.7L32.46 68.99C31.85 69.22 31.24 69.47 30.64 69.71C30.1 69.92 29.57 70.15 29.04 70.38C29.36 70.4 29.61 70.65 29.61 70.98C29.61 71.31 29.34 71.58 29.01 71.58C28.67 71.58 28.41 71.31 28.41 70.98C28.41 70.83 28.46 70.7 28.55 70.59L28.08 70.8C27.41 71.06 26.08 71.85 25.87 71.97C25.37 72.28 24.91 72.65 24.43 73C23.32 73.82 22.64 74.28 22.61 74.28L22.61 74.28ZM13.58 73.03C13.58 72.7 13.85 72.43 14.19 72.43C14.52 72.43 14.8 72.7 14.8 73.03C14.8 73.37 14.52 73.64 14.19 73.64C13.85 73.64 13.58 73.37 13.58 73.03ZM27.07 72.64C27.07 72.46 27.22 72.31 27.4 72.31C27.59 72.31 27.73 72.46 27.73 72.64C27.73 72.83 27.59 72.98 27.4 72.98C27.22 72.98 27.07 72.83 27.07 72.64ZM15.82 71.52C15.82 71.19 16.1 70.92 16.43 70.92C16.76 70.92 17.03 71.19 17.03 71.52C17.03 71.85 16.76 72.13 16.43 72.13C16.1 72.13 15.82 71.85 15.82 71.52ZM19.09 71.34C19.09 71.01 19.36 70.74 19.7 70.74C20.03 70.74 20.3 71.01 20.3 71.34C20.3 71.68 20.03 71.94 19.7 71.94C19.36 71.94 19.09 71.68 19.09 71.34ZM11.16 71.13C11.16 70.95 11.31 70.8 11.49 70.8C11.68 70.8 11.83 70.95 11.83 71.13C11.83 71.31 11.68 71.46 11.49 71.46C11.31 71.46 11.16 71.31 11.16 71.13ZM32.27 69.98C32.27 69.79 32.42 69.65 32.61 69.65C32.79 69.65 32.94 69.8 32.94 69.98C32.94 70.16 32.79 70.31 32.61 70.31C32.42 70.31 32.27 70.16 32.27 69.98ZM24.77 69.65C24.77 69.31 25.05 69.05 25.38 69.05C25.71 69.05 25.98 69.31 25.98 69.65C25.98 69.98 25.71 70.25 25.38 70.25C25.05 70.25 24.77 69.98 24.77 69.65ZM36.06 69.71C35.87 69.71 35.72 69.56 35.72 69.38C35.72 69.31 35.74 69.25 35.77 69.2C35.72 69.22 35.66 69.22 35.6 69.22C35.27 69.22 35 68.96 35 68.62C35 68.29 35.27 68.01 35.6 68.01C35.94 68.01 36.2 68.29 36.2 68.62C36.2 68.79 36.14 68.94 36.03 69.05L36.06 69.05C36.24 69.05 36.39 69.19 36.39 69.38C36.39 69.56 36.24 69.71 36.06 69.71L36.06 69.71ZM37.53 67.71C37.53 67.38 37.81 67.11 38.14 67.11C38.48 67.11 38.75 67.38 38.75 67.71C38.75 68.04 38.48 68.32 38.14 68.32C37.81 68.32 37.53 68.04 37.53 67.71ZM16.91 67.71C16.91 67.38 17.18 67.11 17.52 67.11C17.85 67.11 18.12 67.38 18.12 67.71C18.12 68.04 17.85 68.32 17.52 68.32C17.18 68.32 16.91 68.04 16.91 67.71ZM21.69 67.65C21.69 67.32 21.96 67.04 22.29 67.04C22.62 67.04 22.9 67.32 22.9 67.65C22.9 67.99 22.62 68.25 22.29 68.25C21.96 68.25 21.69 67.99 21.69 67.65ZM39.35 67.86C39.35 67.68 39.5 67.53 39.68 67.53C39.87 67.53 40.01 67.68 40.01 67.86C40.01 68.05 39.87 68.2 39.68 68.2C39.5 68.2 39.35 68.05 39.35 67.86ZM26.35 67.44C26.35 67.26 26.5 67.11 26.68 67.11C26.86 67.11 27.01 67.26 27.01 67.44C27.01 67.62 26.86 67.77 26.68 67.77C26.5 67.77 26.35 67.62 26.35 67.44ZM21.14 67.38C21.15 67.38 21.15 67.38 21.15 67.38C21.15 67.38 21.14 67.38 21.14 67.38L21.14 67.38ZM21.15 67.38C21.18 67.33 21.22 67.29 21.25 67.25C21.86 66.55 22.5 65.88 23.15 65.22C23.07 65.2 22.99 65.15 22.95 65.07C22.52 65.53 22.12 66.01 21.75 66.52C21.54 66.8 21.35 67.09 21.15 67.38ZM32.65 66.46C32.65 66.46 32.66 66.46 32.67 66.45C32.66 66.46 32.65 66.46 32.65 66.46L32.65 66.46ZM32.67 66.45C33.64 65.9 34.62 65.34 35.6 64.8C35.72 64.73 35.91 64.62 36.07 64.53C35.83 64.45 35.66 64.23 35.66 63.96C35.66 63.63 35.93 63.35 36.27 63.35C36.6 63.35 36.87 63.63 36.87 63.96C36.87 64.01 36.86 64.05 36.85 64.1L38.93 62.93C38.24 63.33 37.54 63.72 36.85 64.12C36.78 64.37 36.55 64.56 36.27 64.56C36.21 64.56 36.15 64.56 36.1 64.54C35.6 64.82 35.1 65.09 34.61 65.36C33.91 65.75 33.24 66.13 32.67 66.45ZM40.08 66.05C40.08 65.86 40.23 65.72 40.41 65.72C40.59 65.72 40.74 65.86 40.74 66.05C40.74 66.23 40.59 66.38 40.41 66.38C40.23 66.38 40.08 66.23 40.08 66.05ZM17.27 65.47C16.94 65.47 16.67 65.2 16.67 64.87C16.67 64.53 16.94 64.27 17.27 64.27C17.38 64.27 17.49 64.29 17.57 64.34C17.58 64.17 17.72 64.02 17.91 64.02C18.09 64.02 18.24 64.17 18.24 64.36C18.24 64.54 18.09 64.69 17.91 64.69C17.88 64.69 17.86 64.69 17.84 64.68C17.86 64.74 17.88 64.8 17.88 64.87C17.88 65.2 17.6 65.48 17.27 65.48L17.27 65.47ZM14.97 65.08C14.97 64.9 15.12 64.75 15.3 64.75C15.49 64.75 15.64 64.9 15.64 65.08C15.64 65.26 15.49 65.41 15.3 65.41C15.12 65.41 14.97 65.26 14.97 65.08ZM18.9 62.51C18.9 62.18 19.18 61.9 19.51 61.9C19.85 61.9 20.11 62.18 20.11 62.51C20.11 62.85 19.85 63.11 19.51 63.11C19.18 63.11 18.9 62.85 18.9 62.51ZM44.74 62.66C44.74 62.48 44.89 62.33 45.07 62.33C45.25 62.33 45.4 62.48 45.4 62.66C45.4 62.84 45.25 62.99 45.07 62.99C44.89 62.99 44.74 62.84 44.74 62.66ZM39.17 62.79L39.2 62.77C39.19 62.78 39.18 62.78 39.17 62.79L39.17 62.79ZM39.2 62.77C40.67 61.91 42.07 60.93 43.44 59.9C44.48 59.1 45.48 58.23 46.44 57.32C46.44 57.31 46.45 57.3 46.45 57.29C45.97 57.7 45.47 58.09 44.97 58.48C43.06 60.01 42.46 60.35 44.37 58.83C44.92 58.39 45.47 57.97 46 57.51C46.72 56.88 47.44 56.25 48.16 55.61C49.43 54.26 50.54 52.77 51.59 51.24C52.84 49.46 53.76 47.5 54.51 45.47C55.3 43.27 55.62 40.95 55.79 38.62C55.99 36.54 55.82 34.47 55.56 32.41C55.06 28.55 56.01 28.01 56.51 31.86C56.77 33.93 56.96 35.99 56.75 38.07C56.6 40.09 56.34 42.1 55.76 44.04C55.87 43.94 56.01 43.88 56.17 43.88C56.5 43.88 56.77 44.15 56.77 44.48C56.77 44.82 56.5 45.09 56.17 45.09C55.88 45.09 55.63 44.88 55.58 44.6C55.54 44.71 55.51 44.81 55.48 44.92C54.73 46.94 53.81 48.9 52.56 50.67C51.86 51.68 51.14 52.68 50.37 53.63C50.92 53.13 51.48 52.62 52.02 52.11L52.7 51.41C52.75 51.27 52.86 51.16 53 51.09C53.45 50.6 53.87 50.09 54.23 49.53C54.8 48.69 55.37 47.84 55.92 46.99C56.46 46.13 57 45.28 57.52 44.41C57.97 43.67 58.42 42.92 58.82 42.14C59.04 41.67 59.28 41.21 59.44 40.72C59.51 40.53 59.56 40.34 59.65 40.16C59.88 39.7 60.08 39.34 60.26 39.04C60.06 38.94 59.92 38.73 59.92 38.5C59.92 38.17 60.17 37.91 60.49 37.89C60.4 37.83 60.34 37.73 60.34 37.62C60.34 37.44 60.49 37.29 60.67 37.29C60.86 37.29 61.01 37.44 61.01 37.62C61.01 37.77 60.9 37.9 60.76 37.94C60.98 38.03 61.13 38.25 61.13 38.5C61.13 38.8 60.91 39.04 60.62 39.09C60.53 39.29 60.41 39.52 60.27 39.8C60.18 39.98 60.13 40.17 60.06 40.35C59.9 40.85 59.66 41.32 59.44 41.79L59.2 42.24C59.3 42.13 59.45 42.07 59.61 42.07C59.95 42.07 60.22 42.33 60.22 42.67C60.22 43 59.95 43.27 59.61 43.27C59.28 43.27 59.01 43 59.01 42.67C59.01 42.63 59.02 42.59 59.03 42.55C58.74 43.06 58.43 43.56 58.13 44.06C57.61 44.92 57.07 45.78 56.52 46.63C55.98 47.49 55.41 48.33 54.84 49.17C54.41 49.85 53.88 50.45 53.33 51.02C53.63 51.06 53.87 51.32 53.87 51.62C53.87 51.96 53.6 52.23 53.26 52.23C52.96 52.23 52.71 52 52.66 51.71L52.62 51.76C51.67 52.66 50.7 53.53 49.72 54.41L49.67 54.45C49.36 54.81 49.03 55.17 48.7 55.51C48.24 55.97 47.77 56.43 47.29 56.88C47.5 56.97 47.64 57.19 47.64 57.43C47.64 57.76 47.37 58.03 47.04 58.03C46.77 58.03 46.55 57.87 46.47 57.63C45.81 58.22 45.12 58.79 44.42 59.33C43.02 60.39 41.59 61.39 40.07 62.27L39.2 62.77ZM35.48 62.3C35.48 62.12 35.63 61.97 35.82 61.97C36 61.97 36.15 62.12 36.15 62.3C36.15 62.48 36 62.63 35.82 62.63C35.63 62.63 35.48 62.48 35.48 62.3ZM41.87 62.39L41.8 62.39C41.62 62.39 41.47 62.24 41.47 62.05C41.47 61.87 41.62 61.72 41.8 61.72C41.99 61.72 42.14 61.87 42.14 62.05C42.14 62.21 42.02 62.35 41.87 62.39ZM27.86 61.6C27.86 61.27 28.13 61 28.46 61C28.8 61 29.07 61.27 29.07 61.6C29.07 61.93 28.8 62.21 28.46 62.21C28.13 62.21 27.86 61.93 27.86 61.6ZM29.98 61.69C29.98 61.51 30.12 61.36 30.31 61.36C30.49 61.36 30.64 61.51 30.64 61.69C30.64 61.88 30.49 62.02 30.31 62.02C30.12 62.02 29.98 61.88 29.98 61.69ZM38.75 60.18C38.75 60 38.9 59.85 39.08 59.85C39.27 59.85 39.41 60 39.41 60.18C39.41 60.36 39.27 60.51 39.08 60.51C38.9 60.51 38.75 60.36 38.75 60.18ZM41.47 59.73C41.47 59.39 41.74 59.12 42.07 59.12C42.41 59.12 42.68 59.39 42.68 59.73C42.68 60.06 42.41 60.34 42.07 60.34C41.74 60.34 41.47 60.06 41.47 59.73ZM20.11 59.49C20.11 59.15 20.39 58.88 20.72 58.88C21.05 58.88 21.33 59.15 21.33 59.49C21.33 59.82 21.05 60.09 20.72 60.09C20.39 60.09 20.11 59.82 20.11 59.49ZM49.03 59.15C49.03 58.97 49.18 58.82 49.36 58.82C49.55 58.82 49.69 58.97 49.69 59.15C49.69 59.34 49.55 59.49 49.36 59.49C49.18 59.49 49.03 59.34 49.03 59.15ZM27.44 58.76C27.44 58.42 27.7 58.16 28.04 58.16C28.37 58.16 28.65 58.42 28.65 58.76C28.65 59.09 28.37 59.37 28.04 59.37C27.7 59.37 27.44 59.09 27.44 58.76ZM18.66 58C18.66 57.82 18.81 57.67 19 57.67C19.18 57.67 19.33 57.82 19.33 58C19.33 58.19 19.18 58.33 19 58.33C18.81 58.33 18.66 58.19 18.66 58ZM42.8 57.67C42.8 57.34 43.07 57.07 43.4 57.07C43.74 57.07 44.01 57.34 44.01 57.67C44.01 58 43.74 58.28 43.4 58.28C43.07 58.28 42.8 58 42.8 57.67ZM21.69 57.67C21.36 57.67 21.08 57.4 21.08 57.07C21.08 56.84 21.22 56.64 21.41 56.54C21.39 56.5 21.39 56.47 21.39 56.43C21.39 56.25 21.53 56.1 21.72 56.1C21.9 56.1 22.05 56.25 22.05 56.43C22.05 56.48 22.05 56.53 22.03 56.57C22.19 56.68 22.29 56.86 22.29 57.07C22.29 57.4 22.02 57.67 21.69 57.67L21.69 57.67ZM34.15 56.52C34.15 56.19 34.42 55.92 34.75 55.92C35.09 55.92 35.36 56.19 35.36 56.52C35.36 56.86 35.09 57.13 34.75 57.13C34.42 57.13 34.15 56.86 34.15 56.52ZM23.61 56.91C23.49 56.92 23.47 56.4 23.68 55.3C23.91 54.03 24.14 52.76 24.28 51.48C24.44 49.9 24.54 48.32 24.48 46.73C24.42 45.55 24.34 44.36 24.14 43.19C24.01 42.4 23.88 41.6 23.68 40.83C23.58 40.53 23.53 40.22 23.39 39.94C22.31 37.62 22.97 37.24 24.02 39.58C24.14 39.87 24.21 40.17 24.3 40.48C24.5 41.25 24.62 42.04 24.74 42.84C24.95 44.01 25.02 45.2 25.08 46.39C25.13 47.98 25.03 49.56 24.87 51.14C24.73 52.43 24.5 53.69 24.26 54.96C24.03 56.21 23.75 56.89 23.61 56.91L23.61 56.91ZM36.2 56.55C36.2 56.37 36.35 56.22 36.54 56.22C36.72 56.22 36.87 56.37 36.87 56.55C36.87 56.74 36.72 56.88 36.54 56.88C36.35 56.88 36.2 56.74 36.2 56.55ZM26.28 56.31C26.28 56.13 26.43 55.98 26.62 55.98C26.8 55.98 26.95 56.13 26.95 56.31C26.95 56.5 26.8 56.64 26.62 56.64C26.43 56.64 26.28 56.5 26.28 56.31ZM29.98 54.95C29.98 54.61 30.25 54.35 30.58 54.35C30.92 54.35 31.18 54.61 31.18 54.95C31.18 55.28 30.92 55.56 30.58 55.56C30.25 55.56 29.98 55.28 29.98 54.95ZM46.85 54.47C46.85 54.13 47.13 53.86 47.46 53.86C47.79 53.86 48.06 54.13 48.06 54.47C48.06 54.8 47.79 55.07 47.46 55.07C47.13 55.07 46.85 54.8 46.85 54.47ZM53.93 53.34C53.93 53.16 54.08 53.01 54.26 53.01C54.44 53.01 54.59 53.16 54.59 53.34C54.59 53.53 54.44 53.68 54.26 53.68C54.08 53.68 53.93 53.53 53.93 53.34ZM42.14 50.23C42.14 49.9 42.4 49.62 42.74 49.62C43.07 49.62 43.34 49.9 43.34 50.23C43.34 50.57 43.07 50.83 42.74 50.83C42.4 50.83 42.14 50.57 42.14 50.23ZM48.85 49.53C48.85 49.35 48.99 49.2 49.18 49.2C49.36 49.2 49.52 49.35 49.52 49.53C49.52 49.72 49.36 49.86 49.18 49.86C48.99 49.86 48.85 49.72 48.85 49.53ZM19.15 48.84C19.15 48.51 19.42 48.23 19.75 48.23C20.09 48.23 20.36 48.51 20.36 48.84C20.36 49.17 20.09 49.45 19.75 49.45C19.42 49.45 19.15 49.17 19.15 48.84ZM34.45 48.6C34.45 48.26 34.72 47.99 35.06 47.99C35.39 47.99 35.66 48.26 35.66 48.6C35.66 48.93 35.39 49.2 35.06 49.2C34.72 49.2 34.45 48.93 34.45 48.6ZM58.04 48.15C58.04 47.96 58.19 47.81 58.38 47.81C58.56 47.81 58.71 47.96 58.71 48.15C58.71 48.33 58.56 48.48 58.38 48.48C58.19 48.48 58.04 48.33 58.04 48.15ZM57.01 47.39C57.01 47.06 57.29 46.78 57.62 46.78C57.95 46.78 58.23 47.06 58.23 47.39C58.23 47.72 57.95 47.99 57.62 47.99C57.29 47.99 57.01 47.72 57.01 47.39ZM38.2 47.21C38.2 46.87 38.47 46.6 38.81 46.6C39.14 46.6 39.41 46.87 39.41 47.21C39.41 47.54 39.14 47.81 38.81 47.81C38.47 47.81 38.2 47.54 38.2 47.21ZM28.22 46.54C28.22 46.21 28.49 45.93 28.82 45.93C29.16 45.93 29.43 46.21 29.43 46.54C29.43 46.88 29.16 47.14 28.82 47.14C28.49 47.14 28.22 46.88 28.22 46.54ZM22.17 44.21C22.17 44.02 22.32 43.88 22.5 43.88C22.69 43.88 22.83 44.02 22.83 44.21C22.83 44.39 22.69 44.55 22.5 44.55C22.32 44.55 22.17 44.39 22.17 44.21ZM25.38 43.82C25.38 43.49 25.65 43.21 25.98 43.21C26.31 43.21 26.59 43.49 26.59 43.82C26.59 44.15 26.31 44.42 25.98 44.42C25.65 44.42 25.38 44.15 25.38 43.82ZM52.06 43.64C52.06 43.3 52.32 43.03 52.66 43.03C52.99 43.03 53.26 43.3 53.26 43.64C53.26 43.97 52.99 44.24 52.66 44.24C52.32 44.24 52.06 43.97 52.06 43.64ZM29.37 43.3C29.37 43.12 29.52 42.97 29.71 42.97C29.89 42.97 30.04 43.12 30.04 43.3C30.04 43.49 29.89 43.64 29.71 43.64C29.52 43.64 29.37 43.49 29.37 43.3ZM37.48 40.49C37.48 40.16 37.75 39.89 38.08 39.89C38.42 39.89 38.69 40.16 38.69 40.49C38.69 40.82 38.42 41.1 38.08 41.1C37.75 41.1 37.48 40.82 37.48 40.49ZM44.62 40.43C44.62 40.1 44.88 39.82 45.22 39.82C45.55 39.82 45.83 40.1 45.83 40.43C45.83 40.77 45.55 41.03 45.22 41.03C44.88 41.03 44.62 40.77 44.62 40.43ZM57.2 39.77C57.2 39.43 57.47 39.16 57.8 39.16C58.14 39.16 58.4 39.43 58.4 39.77C58.4 40.1 58.14 40.37 57.8 40.37C57.47 40.37 57.2 40.1 57.2 39.77ZM26.95 39.28C26.95 38.95 27.22 38.68 27.56 38.68C27.89 38.68 28.16 38.95 28.16 39.28C28.16 39.61 27.89 39.89 27.56 39.89C27.22 39.89 26.95 39.61 26.95 39.28ZM42.31 39.22C42.31 38.89 42.59 38.62 42.92 38.62C43.25 38.62 43.53 38.89 43.53 39.22C43.53 39.56 43.25 39.82 42.92 39.82C42.59 39.82 42.31 39.56 42.31 39.22ZM30.46 38.16C30.46 37.98 30.61 37.83 30.8 37.83C30.98 37.83 31.13 37.98 31.13 38.16C31.13 38.35 30.98 38.5 30.8 38.5C30.61 38.5 30.46 38.35 30.46 38.16ZM21.75 37.19C21.75 37.01 21.89 36.86 22.08 36.86C22.26 36.86 22.42 37.01 22.42 37.19C22.42 37.38 22.26 37.53 22.08 37.53C21.89 37.53 21.75 37.38 21.75 37.19ZM43.71 37.07C43.71 36.89 43.85 36.74 44.04 36.74C44.22 36.74 44.37 36.89 44.37 37.07C44.37 37.26 44.22 37.41 44.04 37.41C43.85 37.41 43.71 37.26 43.71 37.07ZM53.14 36.25C53.14 35.92 53.41 35.65 53.75 35.65C54.08 35.65 54.35 35.92 54.35 36.25C54.35 36.59 54.08 36.86 53.75 36.86C53.41 36.86 53.14 36.59 53.14 36.25ZM37.36 36.29C37.36 36.11 37.51 35.96 37.69 35.96C37.87 35.96 38.02 36.11 38.02 36.29C38.02 36.47 37.87 36.62 37.69 36.62C37.51 36.62 37.36 36.47 37.36 36.29ZM61.13 35.75C61.13 35.56 61.27 35.41 61.46 35.41C61.64 35.41 61.79 35.56 61.79 35.75C61.79 35.93 61.64 36.08 61.46 36.08C61.27 36.08 61.13 35.93 61.13 35.75ZM37.84 35.35C37.84 35.02 38.11 34.74 38.45 34.74C38.78 34.74 39.05 35.02 39.05 35.35C39.05 35.68 38.78 35.96 38.45 35.96C38.11 35.96 37.84 35.68 37.84 35.35ZM47.52 35.17C47.52 34.83 47.79 34.56 48.12 34.56C48.46 34.56 48.73 34.83 48.73 35.17C48.73 35.5 48.46 35.77 48.12 35.77C47.79 35.77 47.52 35.5 47.52 35.17ZM51.94 34.59C51.94 34.41 52.08 34.26 52.27 34.26C52.45 34.26 52.6 34.41 52.6 34.59C52.6 34.78 52.45 34.93 52.27 34.93C52.08 34.93 51.94 34.78 51.94 34.59ZM60.7 34.14C60.7 33.81 60.98 33.53 61.31 33.53C61.64 33.53 61.91 33.81 61.91 34.14C61.91 34.47 61.64 34.74 61.31 34.74C60.98 34.74 60.7 34.47 60.7 34.14ZM29.22 34.74C29.04 34.74 28.89 34.59 28.89 34.41C28.89 34.23 29.04 34.08 29.22 34.08C29.4 34.08 29.55 34.23 29.55 34.41C29.55 34.57 29.44 34.71 29.29 34.74L29.22 34.74ZM56.77 33.45C56.77 33.26 56.92 33.11 57.1 33.11C57.29 33.11 57.44 33.26 57.44 33.45C57.44 33.63 57.29 33.78 57.1 33.78C56.92 33.78 56.77 33.63 56.77 33.45ZM32.27 32.56C32.27 32.23 32.55 31.96 32.88 31.96C33.22 31.96 33.48 32.23 33.48 32.56C33.48 32.9 33.22 33.17 32.88 33.17C32.55 33.17 32.27 32.9 32.27 32.56ZM53.02 32.36C53.02 32.18 53.17 32.02 53.36 32.02C53.54 32.02 53.69 32.18 53.69 32.36C53.69 32.54 53.54 32.69 53.36 32.69C53.17 32.69 53.02 32.54 53.02 32.36ZM43.4 31.84C43.07 31.84 42.8 31.57 42.8 31.23C42.8 30.9 43.07 30.63 43.4 30.63C43.57 30.63 43.73 30.7 43.84 30.82C43.88 30.68 44.01 30.57 44.16 30.57C44.34 30.57 44.49 30.72 44.49 30.9C44.49 31.09 44.34 31.23 44.16 31.23C44.1 31.23 44.05 31.22 44 31.2C44 31.21 44.01 31.22 44.01 31.23C44.01 31.57 43.74 31.84 43.4 31.84ZM49.57 30.78C49.57 30.6 49.72 30.45 49.91 30.45C50.09 30.45 50.24 30.6 50.24 30.78C50.24 30.97 50.09 31.11 49.91 31.11C49.72 31.11 49.57 30.97 49.57 30.78ZM59.86 30.66C59.86 30.48 60.01 30.33 60.19 30.33C60.38 30.33 60.53 30.48 60.53 30.66C60.53 30.85 60.38 30.99 60.19 30.99C60.01 30.99 59.86 30.85 59.86 30.66ZM57.01 30.33C57.01 30 57.29 29.72 57.62 29.72C57.95 29.72 58.23 30 58.23 30.33C58.23 30.66 57.95 30.93 57.62 30.93C57.29 30.93 57.01 30.66 57.01 30.33ZM31.73 30.15C31.73 29.81 32 29.54 32.34 29.54C32.67 29.54 32.94 29.81 32.94 30.15C32.94 30.48 32.67 30.75 32.34 30.75C32 30.75 31.73 30.48 31.73 30.15ZM37.48 30.09C37.26 30.09 37.07 29.96 36.96 29.79C36.87 29.73 36.81 29.62 36.81 29.51C36.81 29.42 36.85 29.34 36.91 29.28C37 29.04 37.22 28.88 37.48 28.88C37.81 28.88 38.08 29.15 38.08 29.48C38.08 29.82 37.81 30.09 37.48 30.09L37.48 30.09ZM50.42 28.94C50.42 28.6 50.69 28.34 51.02 28.34C51.36 28.34 51.63 28.6 51.63 28.94C51.63 29.27 51.36 29.54 51.02 29.54C50.69 29.54 50.42 29.27 50.42 28.94ZM28.1 28.34C28.1 28 28.37 27.73 28.7 27.73C29.04 27.73 29.31 28 29.31 28.34C29.31 28.67 29.04 28.94 28.7 28.94C28.37 28.94 28.1 28.67 28.1 28.34ZM38.57 26.73C38.57 26.55 38.71 26.4 38.9 26.4C39.08 26.4 39.23 26.55 39.23 26.73C39.23 26.91 39.08 27.06 38.9 27.06C38.71 27.06 38.57 26.91 38.57 26.73ZM58.95 26.61C58.95 26.43 59.1 26.28 59.28 26.28C59.46 26.28 59.61 26.43 59.61 26.61C59.61 26.79 59.46 26.94 59.28 26.94C59.1 26.94 58.95 26.79 58.95 26.61ZM31.3 26.55C31.3 26.36 31.45 26.21 31.64 26.21C31.82 26.21 31.97 26.36 31.97 26.55C31.97 26.73 31.82 26.88 31.64 26.88C31.45 26.88 31.3 26.73 31.3 26.55ZM54.71 25.15C54.71 24.97 54.86 24.82 55.05 24.82C55.23 24.82 55.38 24.97 55.38 25.15C55.38 25.34 55.23 25.49 55.05 25.49C54.86 25.49 54.71 25.34 54.71 25.15ZM55.75 24.4C55.75 24.06 56.01 23.8 56.35 23.8C56.68 23.8 56.96 24.06 56.96 24.4C56.96 24.73 56.68 25.01 56.35 25.01C56.01 25.01 55.75 24.73 55.75 24.4ZM34.27 23.95C34.27 23.76 34.42 23.61 34.61 23.61C34.79 23.61 34.94 23.76 34.94 23.95C34.94 24.13 34.79 24.28 34.61 24.28C34.42 24.28 34.27 24.13 34.27 23.95ZM36.75 23.44C36.75 23.1 37.02 22.83 37.36 22.83C37.69 22.83 37.96 23.1 37.96 23.44C37.96 23.77 37.69 24.04 37.36 24.04C37.02 24.04 36.75 23.77 36.75 23.44ZM31.55 22.47C31.55 22.13 31.82 21.86 32.15 21.86C32.49 21.86 32.76 22.13 32.76 22.47C32.76 22.8 32.49 23.07 32.15 23.07C31.82 23.07 31.55 22.8 31.55 22.47ZM49.27 22.55C49.27 22.37 49.42 22.22 49.6 22.22C49.79 22.22 49.93 22.37 49.93 22.55C49.93 22.74 49.79 22.89 49.6 22.89C49.42 22.89 49.27 22.74 49.27 22.55ZM41.17 22.22C41.17 21.89 41.43 21.62 41.77 21.62C42.1 21.62 42.38 21.89 42.38 22.22C42.38 22.55 42.1 22.83 41.77 22.83C41.43 22.83 41.17 22.55 41.17 22.22ZM51.87 21.89C51.87 21.7 52.02 21.56 52.2 21.56C52.39 21.56 52.54 21.7 52.54 21.89C52.54 22.07 52.39 22.22 52.2 22.22C52.02 22.22 51.87 22.07 51.87 21.89ZM40.2 20.5C40.2 20.32 40.35 20.17 40.53 20.17C40.71 20.17 40.86 20.32 40.86 20.5C40.86 20.69 40.71 20.83 40.53 20.83C40.35 20.83 40.2 20.69 40.2 20.5ZM26.95 20.04C26.95 19.71 27.22 19.44 27.56 19.44C27.89 19.44 28.16 19.71 28.16 20.04C28.16 20.38 27.89 20.65 27.56 20.65C27.22 20.65 26.95 20.38 26.95 20.04ZM50 18.87C50 18.69 50.15 18.54 50.33 18.54C50.51 18.54 50.66 18.69 50.66 18.87C50.66 19.05 50.51 19.2 50.33 19.2C50.15 19.2 50 19.05 50 18.87ZM51.87 18.17C51.87 17.84 52.15 17.57 52.48 17.57C52.81 17.57 53.08 17.84 53.08 18.17C53.08 18.5 52.81 18.78 52.48 18.78C52.15 18.78 51.87 18.5 51.87 18.17ZM26.41 17.53C26.41 17.35 26.55 17.2 26.74 17.2C26.92 17.2 27.07 17.35 27.07 17.53C27.07 17.72 26.92 17.87 26.74 17.87C26.55 17.87 26.41 17.72 26.41 17.53ZM52.18 16.27C52.18 16.08 52.32 15.93 52.51 15.93C52.69 15.93 52.84 16.08 52.84 16.27C52.84 16.45 52.69 16.6 52.51 16.6C52.32 16.6 52.18 16.45 52.18 16.27ZM35.54 15.36C35.54 15.17 35.69 15.02 35.87 15.02C36.06 15.02 36.2 15.17 36.2 15.36C36.2 15.54 36.06 15.69 35.87 15.69C35.69 15.69 35.54 15.54 35.54 15.36ZM27.01 13.72C27.01 13.54 27.16 13.39 27.35 13.39C27.53 13.39 27.68 13.54 27.68 13.72C27.68 13.91 27.53 14.05 27.35 14.05C27.16 14.05 27.01 13.91 27.01 13.72ZM28.7 12.51C28.7 12.33 28.85 12.18 29.04 12.18C29.22 12.18 29.37 12.33 29.37 12.51C29.37 12.7 29.22 12.85 29.04 12.85C28.85 12.85 28.7 12.7 28.7 12.51Z" />
		<path id="Layer" fill-rule="evenodd" class="shp8" d="M46.67 30.1C47.61 31.73 47.98 33.09 48.25 33.79C48.51 34.48 48.6 34.88 48.41 35.36C48.22 35.85 48.09 36.06 48.49 36.67C48.89 37.29 49 37.26 49.24 37.66C49.48 38.06 49.74 38.52 49.98 38.76C50.22 39 50.63 39.43 50.87 39.96C51.11 40.49 51.16 40.68 50.95 41C50.73 41.32 50.39 41.3 49.85 41.4C49.32 41.51 48.97 41.78 48.78 42.31C48.6 42.85 48.68 42.98 48.81 43.33C48.94 43.67 48.81 43.91 48.68 43.97C48.54 44.02 48.09 44.1 48.17 44.21C48.25 44.32 48.51 44.42 48.51 44.8C48.51 45.17 48.33 45.17 48.22 45.36C48.11 45.54 47.82 45.97 47.9 46.16C47.98 46.35 48.57 46.77 48.57 47.57C48.57 48.38 48.27 49.12 47.58 49.42C46.89 49.71 46.43 49.55 45.52 49.69C44.61 49.82 43.2 49.98 42.58 50.35C41.97 50.73 41.57 51.05 41.22 51.93C40.87 52.81 40.69 53.32 40.31 53.67C39.94 54.01 39.19 54.66 38.84 55.46C38.5 56.26 37.83 57.3 37.8 58.56C37.77 59.81 37.85 59.84 38.01 60.08C38.18 60.32 38.42 61.05 38.8 61.35C39.54 61.96 39.97 62.35 39.86 63.35C39.78 63.88 39.52 64.26 39.7 64.45C39.89 64.64 40.04 64.86 39.97 65.24C39.89 67.03 41.95 68.85 42.92 70.27C43.18 70.8 43.86 71.21 43.78 72.46L43.71 73.67C43.64 74.84 43.9 75.52 43.71 76.8C43.52 78.09 38.05 76.03 33.24 72.76C26.8 68.38 22.24 59.12 22.93 57.68C23.58 56.33 23.39 56.52 23.4 56.3C23.26 55.9 23.77 55.87 23.83 55.57C23.83 55.42 23.79 55.16 23.93 55.1C24.35 54.97 24.43 54.58 24.67 54.26C24.47 53.88 24.76 53.34 25.27 52.96C25.19 52.81 24.4 51.71 24.29 51.22C24.17 50.73 24.02 49.86 24.02 49.86C24.02 49.86 23.91 48.84 23.42 48.62C22.93 48.39 23.31 47.86 23.31 47.86C23.31 47.86 23.34 47.37 22.51 46.88C21.68 46.39 22.1 45.78 22.1 44.8C22.1 43.82 24.26 34.67 24.68 32.53C25.11 30.4 27.67 26.87 30.24 25.48C32.8 24.09 35.58 24.41 37.72 24.62C39.86 24.84 42.64 25.27 44.45 26.33C46.27 27.4 46.8 27.94 47.87 29.65C48.94 31.36 49.05 33.17 49.05 33.92C48.94 32.75 48.08 30.75 46.67 30.1L46.67 30.1Z" />
		<path id="Layer" class="shp9" d="M63.37 9.9C63.37 9.09 63.49 8.97 64.39 8.9L64.39 8.69L61.21 8.69L61.21 8.9C62.12 8.97 62.24 9.09 62.24 9.9L62.24 15.03C62.24 15.53 62.11 15.77 61.82 15.77C61.66 15.77 61.6 15.68 61.52 15.4C61.41 15.01 61.23 14.83 60.94 14.83C60.64 14.83 60.4 15.09 60.4 15.39C60.4 15.85 60.85 16.19 61.5 16.19C62.7 16.19 63.37 15.39 63.37 14L63.37 9.9" />
		<path id="Layer" class="shp10" d="M17.02 9.97C15.86 13.07 12.64 14.89 11.41 17.55C10.7 19.09 11.2 20.84 12.64 21.49C13.95 22.08 15.53 21.56 16.39 20.33C16.4 20.46 16.4 20.6 16.4 20.74C16.4 22.2 15.87 23.53 15.01 24.48L18.98 24.48C18.07 23.52 17.51 22.16 17.51 20.65C17.51 20.48 17.51 20.31 17.53 20.14C18.35 21.5 20.02 22.11 21.39 21.49C22.83 20.84 23.23 19.11 22.63 17.55C21.58 14.85 18.42 13.08 17.02 9.97L17.02 9.97Z" />
	</g>
</svg>