<svg xmlns="http://www.w3.org/2000/svg" viewBox="0 0 73 102" width="73" height="102">
	<defs>
		<filter x="-50%" y="-50%" width="200%" height="200%" id="flt1"> <feGaussianBlur stdDeviation="0.85" /> </filter>
		<linearGradient id="grd1" gradientUnits="userSpaceOnUse"  x1="41.643" y1="26.385" x2="43.788" y2="-89.997">
			<stop offset="0" stop-color="#f3f3f3"  />
			<stop offset="1" stop-color="#8f8f8f"  />
		</linearGradient>
		<radialGradient id="grd2" gradientUnits="userSpaceOnUse"  cx="10.941" cy="91.687" r="13.273">
			<stop offset="0" stop-color="#ffffff"  />
			<stop offset="1" stop-color="#ffffff" stop-opacity="0" />
		</radialGradient>
		<radialGradient id="grd3" gradientUnits="userSpaceOnUse"  cx="62.519" cy="12.545" r="14.287">
			<stop offset="0" stop-color="#ffffff"  />
			<stop offset="1" stop-color="#ffffff" stop-opacity="0" />
		</radialGradient>
		<linearGradient id="grd4" gradientUnits="userSpaceOnUse"  x1="-474.57" y1="90.81" x2="-474.57" y2="87.62">
			<stop offset="0" stop-color="#000000"  />
			<stop offset="1" stop-color="#555753"  />
		</linearGradient>
		<linearGradient id="grd5" gradientUnits="userSpaceOnUse"  x1="-474.568" y1="13.54" x2="-474.568" y2="9.91">
			<stop offset="0" stop-color="#000000"  />
			<stop offset="1" stop-color="#555753"  />
		</linearGradient>
		<radialGradient id="grd6" gradientUnits="userSpaceOnUse"  cx="18.375" cy="73.826" r="25.374">
			<stop offset="0" stop-color="#ffffff"  />
			<stop offset="1" stop-color="#ffffff" stop-opacity="0" />
		</radialGradient>
		<radialGradient id="grd7" gradientUnits="userSpaceOnUse"  cx="53.983" cy="50.807" r="9.813">
			<stop offset="0" stop-color="#ffffff"  />
			<stop offset="1" stop-color="#ffffff" stop-opacity="0" />
		</radialGradient>
		<linearGradient id="grd8" gradientUnits="userSpaceOnUse"  x1="-441.236" y1="54.118" x2="-441.236" y2="47.51">
			<stop offset="0" stop-color="#000000"  />
			<stop offset="1" stop-color="#6f6f6f"  />
		</linearGradient>
		<radialGradient id="grd9" gradientUnits="userSpaceOnUse"  cx="37.499" cy="65.467" r="9.813">
			<stop offset="0" stop-color="#ffffff"  />
			<stop offset="1" stop-color="#ffffff" stop-opacity="0" />
		</radialGradient>
		<linearGradient id="grd10" gradientUnits="userSpaceOnUse"  x1="-457.719" y1="68.778" x2="-457.719" y2="62.17">
			<stop offset="0" stop-color="#000000"  />
			<stop offset="1" stop-color="#6f6f6f"  />
		</linearGradient>
		<radialGradient id="grd11" gradientUnits="userSpaceOnUse"  cx="20.03" cy="19.987" r="9.813">
			<stop offset="0" stop-color="#ffffff"  />
			<stop offset="1" stop-color="#ffffff" stop-opacity="0" />
		</radialGradient>
		<linearGradient id="grd12" gradientUnits="userSpaceOnUse"  x1="-475.189" y1="23.298" x2="-475.189" y2="16.69">
			<stop offset="0" stop-color="#000000"  />
			<stop offset="1" stop-color="#6f6f6f"  />
		</linearGradient>
		<radialGradient id="grd13" gradientUnits="userSpaceOnUse"  cx="20.518" cy="50.807" r="9.813">
			<stop offset="0" stop-color="#ffffff"  />
			<stop offset="1" stop-color="#ffffff" stop-opacity="0" />
		</radialGradient>
		<linearGradient id="grd14" gradientUnits="userSpaceOnUse"  x1="-474.703" y1="54.118" x2="-474.703" y2="47.51">
			<stop offset="0" stop-color="#000000"  />
			<stop offset="1" stop-color="#6f6f6f"  />
		</linearGradient>
		<radialGradient id="grd15" gradientUnits="userSpaceOnUse"  cx="54.959" cy="19.987" r="9.813">
			<stop offset="0" stop-color="#ffffff"  />
			<stop offset="1" stop-color="#ffffff" stop-opacity="0" />
		</radialGradient>
		<linearGradient id="grd16" gradientUnits="userSpaceOnUse"  x1="-440.26" y1="23.298" x2="-440.26" y2="16.69">
			<stop offset="0" stop-color="#000000"  />
			<stop offset="1" stop-color="#6f6f6f"  />
		</linearGradient>
		<radialGradient id="grd17" gradientUnits="userSpaceOnUse"  cx="53.983" cy="80.697" r="9.813">
			<stop offset="0" stop-color="#ffffff"  />
			<stop offset="1" stop-color="#ffffff" stop-opacity="0" />
		</radialGradient>
		<linearGradient id="grd18" gradientUnits="userSpaceOnUse"  x1="-441.236" y1="84.008" x2="-441.236" y2="77.4">
			<stop offset="0" stop-color="#000000"  />
			<stop offset="1" stop-color="#6f6f6f"  />
		</linearGradient>
		<radialGradient id="grd19" gradientUnits="userSpaceOnUse"  cx="20.518" cy="80.697" r="9.813">
			<stop offset="0" stop-color="#ffffff"  />
			<stop offset="1" stop-color="#ffffff" stop-opacity="0" />
		</radialGradient>
		<linearGradient id="grd20" gradientUnits="userSpaceOnUse"  x1="-474.703" y1="84.008" x2="-474.703" y2="77.4">
			<stop offset="0" stop-color="#000000"  />
			<stop offset="1" stop-color="#6f6f6f"  />
		</linearGradient>
	</defs>
	<style>
		tspan { white-space:pre }
		.shp0 { filter: url(#flt1);fill: #000000 } 
		.shp1 { fill: url(#grd1);stroke: #000000;stroke-width: 0.226 } 
		.shp2 { opacity: 0.31;fill: url(#grd2) } 
		.shp3 { opacity: 0.318;fill: url(#grd3) } 
		.shp4 { fill: none;stroke: #000000;stroke-width: 0.226 } 
		.shp5 { fill: url(#grd4);stroke: #1b1b1b;stroke-linejoin:round;stroke-width: 0.177 } 
		.shp6 { fill: url(#grd5) } 
		.shp7 { fill: url(#grd6) } 
		.shp8 { opacity: 0.4;fill: url(#grd7) } 
		.shp9 { fill: url(#grd8);stroke: #161616;stroke-linejoin:round;stroke-width: 0.368 } 
		.shp10 { opacity: 0.4;fill: url(#grd9) } 
		.shp11 { fill: url(#grd10);stroke: #161616;stroke-linejoin:round;stroke-width: 0.368 } 
		.shp12 { opacity: 0.4;fill: url(#grd11) } 
		.shp13 { fill: url(#grd12);stroke: #161616;stroke-linejoin:round;stroke-width: 0.368 } 
		.shp14 { opacity: 0.4;fill: url(#grd13) } 
		.shp15 { fill: url(#grd14);stroke: #161616;stroke-linejoin:round;stroke-width: 0.368 } 
		.shp16 { opacity: 0.4;fill: url(#grd15) } 
		.shp17 { fill: url(#grd16);stroke: #161616;stroke-linejoin:round;stroke-width: 0.368 } 
		.shp18 { opacity: 0.4;fill: url(#grd17) } 
		.shp19 { fill: url(#grd18);stroke: #161616;stroke-linejoin:round;stroke-width: 0.368 } 
		.shp20 { opacity: 0.4;fill: url(#grd19) } 
		.shp21 { fill: url(#grd20);stroke: #161616;stroke-linejoin:round;stroke-width: 0.368 } 
	</style>
	<g id="-e-Spade7">
		<g id="Layer">
			<path id="Layer" fill-rule="evenodd" class="shp0" d="M5.21 1.56L68.29 1.56C68.75 1.56 69.21 1.66 69.64 1.83C70.07 2.01 70.46 2.27 70.79 2.6C71.12 2.93 71.38 3.32 71.55 3.75C71.73 4.18 71.82 4.64 71.82 5.1L71.82 97.21C71.82 97.68 71.73 98.14 71.55 98.57C71.38 99 71.12 99.39 70.79 99.71C70.46 100.04 70.07 100.3 69.64 100.48C69.21 100.66 68.75 100.75 68.29 100.75L5.21 100.75C4.74 100.75 4.28 100.66 3.85 100.48C3.42 100.3 3.03 100.04 2.71 99.71C2.38 99.39 2.12 99 1.94 98.57C1.76 98.14 1.67 97.68 1.67 97.21L1.67 5.1C1.67 4.64 1.76 4.18 1.94 3.75C2.12 3.32 2.38 2.93 2.71 2.6C3.03 2.27 3.42 2.01 3.85 1.83C4.28 1.66 4.74 1.56 5.21 1.56" />
			<path id="Layer" fill-rule="evenodd" class="shp1" d="M6.13 0.99L68.17 0.99C68.71 0.99 69.23 1.09 69.72 1.3C70.22 1.5 70.66 1.8 71.04 2.17C71.42 2.55 71.71 3 71.92 3.49C72.12 3.98 72.23 4.51 72.23 5.04L72.23 96.12C72.23 96.65 72.12 97.18 71.92 97.67C71.71 98.16 71.42 98.61 71.04 98.99C70.66 99.36 70.22 99.66 69.72 99.86C69.23 100.07 68.71 100.17 68.17 100.17L6.13 100.17C5.6 100.17 5.07 100.07 4.58 99.86C4.09 99.66 3.64 99.36 3.26 98.99C2.89 98.61 2.59 98.16 2.38 97.67C2.18 97.18 2.08 96.65 2.08 96.12L2.08 5.04C2.08 4.51 2.18 3.98 2.38 3.49C2.59 3 2.89 2.55 3.26 2.17C3.64 1.8 4.09 1.5 4.58 1.3C5.07 1.09 5.6 0.99 6.13 0.99" />
			<path id="Layer" class="shp2" d="M32.32 96.75L5.78 96.75L5.78 72.47L32.32 72.47L32.32 96.75Z" />
			<path id="Layer" class="shp3" d="M40.99 4.41L67.49 4.41C67.63 4.41 67.76 4.43 67.89 4.49C68.01 4.54 68.13 4.61 68.22 4.71C68.32 4.81 68.4 4.92 68.45 5.05C68.5 5.17 68.53 5.31 68.53 5.44L68.53 48.65C68.53 48.78 68.5 48.92 68.45 49.04C68.4 49.17 68.32 49.28 68.22 49.38C68.13 49.47 68.01 49.55 67.89 49.6C67.76 49.65 67.63 49.68 67.49 49.68L40.99 49.68C40.85 49.68 40.72 49.65 40.59 49.6C40.47 49.55 40.35 49.47 40.26 49.38C40.16 49.28 40.08 49.17 40.03 49.04C39.98 48.92 39.95 48.78 39.95 48.65L39.95 5.44C39.95 5.31 39.98 5.17 40.03 5.05C40.08 4.92 40.16 4.81 40.26 4.71C40.35 4.61 40.47 4.54 40.59 4.49C40.72 4.43 40.85 4.41 40.99 4.41" />
			<path id="Layer" class="shp4" d="M20.5 92.68L65.22 92.68L65.22 19.08" />
			<path id="Layer" class="shp4" d="M53.64 8.47L9.09 8.47L9.09 81.66" />
		</g>
		<path id="Layer" class="shp5" d="M12.04 85.72C11.48 87.22 9.93 88.09 9.34 89.37C9 90.11 9.24 90.96 9.93 91.27C10.56 91.55 11.32 91.3 11.74 90.71C11.74 90.78 11.74 90.84 11.74 90.91C11.74 91.62 11.49 92.25 11.07 92.71L12.98 92.71C12.55 92.25 12.27 91.6 12.27 90.87C12.27 90.79 12.28 90.7 12.28 90.62C12.68 91.28 13.49 91.57 14.15 91.27C14.84 90.96 15.03 90.13 14.74 89.37C14.23 88.07 12.71 87.22 12.04 85.72L12.04 85.72Z" />
		<path id="Layer" class="shp6" d="M65.27 8.27L61.17 8.27L60.51 9.9L60.7 9.99C61.18 9.23 61.38 9.09 61.99 9.09L64.4 9.09L62.2 15.7L62.92 15.7L65.27 8.45L65.27 8.27" />
		<path id="Layer" fill-rule="evenodd" class="shp7" d="M18.28 89.44C18.28 89.44 18.28 89.44 18.28 89.44C18.28 89.44 18.28 89.44 18.28 89.44L18.28 89.44ZM18.28 89.44C15.97 83.67 14.41 83.84 12.42 83.26L15.39 83.26C15.41 83.16 15.43 83.07 15.44 82.97C15.5 82.72 15.57 82.47 15.65 82.22C15.65 81.89 15.65 81.56 15.65 81.23C15.66 80.52 15.76 79.81 15.85 79.1C15.87 78.92 15.9 78.73 15.92 78.55C15.83 78.47 15.85 77.93 16.11 76.87C16.16 76.66 16.2 76.44 16.24 76.22C16.33 75.72 16.44 75.22 16.55 74.73C16.67 74.14 16.87 73.56 17.05 72.99C17.29 72.3 17.58 71.64 17.86 70.98C18.21 70.16 18.57 69.35 18.93 68.54C19.42 67.44 19.97 66.38 20.51 65.31C21.19 64 21.8 62.65 22.39 61.29C23.08 59.63 23.77 57.98 24.46 56.32C25.21 54.55 25.92 52.76 26.59 50.97C26.64 50.85 26.68 50.74 26.72 50.62C26.71 50.58 26.7 50.54 26.7 50.5C26.7 50.38 26.76 50.27 26.86 50.21C27.46 48.53 28 46.84 28.52 45.13C29.18 42.99 29.73 40.81 30.17 38.61C30.62 36.05 30.73 33.46 30.7 30.87C30.64 28.75 30.42 26.65 30.17 24.55C30.07 24.64 29.93 24.7 29.78 24.7C29.45 24.7 29.17 24.43 29.17 24.1C29.17 23.77 29.45 23.49 29.78 23.49C29.88 23.49 29.97 23.52 30.06 23.56L29.99 23C29.89 22.26 29.79 21.52 29.68 20.78C29.63 20.88 29.51 20.95 29.39 20.95C29.2 20.95 29.05 20.81 29.05 20.62C29.05 20.44 29.2 20.29 29.39 20.29C29.47 20.29 29.56 20.32 29.62 20.37C29.52 19.68 29.41 18.98 29.3 18.29C29.13 17.22 29.16 16.57 29.28 16.41C29.18 16.3 29.12 16.15 29.12 15.99C29.12 15.66 29.38 15.39 29.72 15.39C30.05 15.39 30.33 15.66 30.33 15.99C30.33 16.33 30.05 16.6 29.72 16.6C29.65 16.6 29.59 16.58 29.53 16.56C29.64 16.8 29.77 17.26 29.88 17.96C30.13 19.52 30.36 21.09 30.56 22.67C30.88 25.28 31.19 27.9 31.27 30.53C31.29 33.12 31.19 35.72 30.75 38.28C30.32 40.48 29.75 42.65 29.1 44.79C28.54 46.64 27.96 48.49 27.3 50.3C27.34 50.36 27.36 50.43 27.36 50.5C27.36 50.66 27.25 50.79 27.11 50.83C26.46 52.56 25.77 54.28 25.05 55.98C24.36 57.64 23.68 59.3 22.98 60.95C22.4 62.31 21.79 63.65 21.11 64.96C20.57 66.03 20.02 67.1 19.54 68.19C19.18 69 18.82 69.81 18.47 70.62C18.19 71.29 17.9 71.95 17.66 72.64C17.48 73.21 17.29 73.79 17.16 74.38C17.15 74.45 17.13 74.52 17.12 74.59C17.31 74.16 17.5 73.74 17.7 73.32C17.86 73.01 18.02 72.71 18.19 72.4C18.19 72.4 18.19 72.39 18.19 72.38C18.27 72.13 18.41 71.91 18.51 71.68C18.68 71.33 18.9 71 19.09 70.67C19.28 70.35 19.49 70.05 19.71 69.75C20.28 68.75 20.94 67.8 21.62 66.87C22.14 66.14 22.75 65.49 23.38 64.85C23.4 64.71 23.51 64.59 23.65 64.57L24.17 64.05C25.17 63.11 26.21 62.2 27.22 61.25C28.4 60.14 29.55 58.99 30.69 57.84C32 56.53 33.2 55.12 34.31 53.65C35.56 51.94 36.6 50.09 37.61 48.24C37.94 47.64 38.25 47.03 38.55 46.41L38.43 46.42C38.09 46.42 37.83 46.15 37.83 45.81C37.83 45.48 38.09 45.21 38.43 45.21C38.65 45.21 38.85 45.33 38.95 45.52C39.44 44.4 39.87 43.27 40.26 42.12L40.33 41.89C40.29 41.62 40.27 41.22 40.29 40.67C40.32 39.73 40.34 38.8 40.31 37.86C40.25 36.17 40.15 34.49 39.92 32.82C39.74 31.68 39.56 30.53 39.23 29.42C39.06 28.86 38.91 28.29 38.65 27.76C38.57 27.62 38.52 27.45 38.39 27.33C36.46 25.64 37.1 25.25 39.01 26.96C39.14 27.08 39.19 27.26 39.28 27.41C39.53 27.94 39.68 28.51 39.84 29.07C40.17 30.18 40.34 31.33 40.52 32.47C40.74 34.14 40.84 35.83 40.9 37.51C40.91 38.22 40.91 38.94 40.89 39.65C41.21 38.16 41.44 36.65 41.63 35.14C41.68 34.47 41.71 33.8 41.73 33.13C41.66 33.15 41.59 33.17 41.52 33.17C41.18 33.17 40.91 32.9 40.91 32.56C40.91 32.23 41.18 31.96 41.52 31.96C41.6 31.96 41.68 31.98 41.75 32.01C41.76 30.97 41.73 29.94 41.7 28.9C41.46 28.82 41.28 28.61 41.28 28.34C41.28 28.08 41.44 27.86 41.67 27.77C41.66 27.66 41.66 27.55 41.65 27.44C41.64 27.03 41.63 26.61 41.61 26.19C41.52 23.85 42.1 23.52 42.18 25.86C42.2 26.28 42.21 26.69 42.23 27.11C42.23 27.36 42.24 27.61 42.25 27.85C42.39 27.97 42.49 28.14 42.49 28.34C42.49 28.52 42.41 28.68 42.28 28.79C42.34 30.79 42.36 32.8 42.2 34.8C41.91 37.16 41.53 39.51 40.84 41.79C40.13 43.9 39.28 45.96 38.19 47.91C37.18 49.76 36.14 51.6 34.9 53.31C33.79 54.78 32.6 56.19 31.29 57.5C30.15 58.65 28.99 59.8 27.81 60.91C26.8 61.85 25.77 62.76 24.77 63.71C24.47 64.01 24.16 64.31 23.86 64.61C23.94 64.66 24 64.73 24.02 64.82C24.78 64.04 25.58 63.31 26.39 62.58L29.2 60.09C30.18 59.21 31.18 58.33 32.18 57.46C33.3 56.48 34.39 55.47 35.47 54.45C36.69 53.29 37.88 52.1 39.06 50.9C40.31 49.65 41.49 48.32 42.64 46.97C43.51 45.93 44.35 44.85 45.16 43.76C45.15 43.72 45.15 43.68 45.15 43.64C45.15 43.32 45.38 43.07 45.69 43.04L46.3 42.2C47.38 40.71 48.36 39.16 49.28 37.57C49.25 37.58 49.21 37.59 49.17 37.59C48.98 37.59 48.84 37.44 48.84 37.26C48.84 37.07 48.98 36.92 49.17 36.92C49.33 36.92 49.46 37.04 49.49 37.19C49.58 37.04 49.67 36.89 49.75 36.74C50.83 34.73 51.86 32.68 52.55 30.51C53.07 28.6 53.36 26.66 53.67 24.72C54.04 22.38 54.62 22.04 54.25 24.38C53.94 26.32 53.64 28.27 53.13 30.17C52.45 32.35 51.42 34.4 50.34 36.41C49.29 38.29 48.15 40.12 46.88 41.86C46.59 42.27 46.29 42.68 45.99 43.08C46.21 43.18 46.35 43.39 46.35 43.64C46.35 43.97 46.09 44.24 45.75 44.24C45.57 44.24 45.4 44.16 45.29 44.02C44.62 44.91 43.93 45.78 43.22 46.63C42.07 47.98 40.89 49.31 39.64 50.56C39.08 51.14 38.5 51.72 37.93 52.29C38.1 52.13 38.4 51.85 38.86 51.46C39.96 50.52 41.08 49.6 42.23 48.72C43.31 47.9 44.42 47.12 45.64 46.51C45.74 46.32 45.94 46.18 46.18 46.18C46.23 46.18 46.28 46.18 46.33 46.19C46.52 46.12 46.7 46.07 46.91 46.06C49.33 45.9 48.87 46.23 46.63 46.39C46.72 46.5 46.78 46.63 46.78 46.78C46.78 47.12 46.51 47.39 46.18 47.39C45.84 47.39 45.57 47.12 45.57 46.78C45.57 46.72 45.59 46.66 45.6 46.6L45.1 46.82C44.7 46.98 43.66 47.76 42.83 48.38C41.68 49.26 40.55 50.18 39.45 51.12C38.31 52.09 37.65 52.6 37.76 52.45C37.2 53.01 36.64 53.56 36.07 54.1C34.99 55.12 33.9 56.14 32.78 57.11C31.78 57.99 30.78 58.86 29.8 59.75C28.87 60.58 27.93 61.41 27 62.24C26.13 63.02 25.27 63.8 24.46 64.64C23.74 65.38 23.01 66.11 22.34 66.9C21.81 67.51 21.29 68.13 20.8 68.76L20.28 69.46C20.25 69.51 20.22 69.56 20.19 69.6C19.74 70.38 19.29 71.15 18.86 71.93L18.82 72.02C18.78 72.15 18.74 72.28 18.68 72.4C18.33 73.16 18.02 73.71 17.81 74.02C17.49 74.74 17.19 75.46 16.99 76.22C16.76 77.05 16.55 77.89 16.46 78.75C16.38 79.35 16.31 79.96 16.28 80.57L16.42 80.27C16.74 79.65 17.12 79.08 17.51 78.51C17.82 78.03 18.16 77.58 18.53 77.15C18.45 77.05 18.41 76.92 18.41 76.79C18.41 76.45 18.68 76.18 19.01 76.18C19.13 76.18 19.23 76.21 19.32 76.26C19.9 75.66 20.52 75.1 21.14 74.55C21.95 73.8 22.81 73.11 23.67 72.44C24.71 71.64 25.8 70.93 26.9 70.21C28.15 69.4 29.43 68.62 30.71 67.86L31 67.69C30.75 67.62 30.57 67.38 30.57 67.11C30.57 66.77 30.84 66.5 31.17 66.5C31.51 66.5 31.78 66.77 31.78 67.11C31.78 67.44 31.51 67.71 31.17 67.71C31.13 67.71 31.07 67.71 31.03 67.69C29.97 68.33 28.93 68.97 27.89 69.64C26.8 70.35 25.71 71.06 24.68 71.86C23.82 72.53 22.96 73.22 22.15 73.96C21.42 74.62 20.68 75.27 20.02 76L19.57 76.54C19.6 76.61 19.62 76.7 19.62 76.79C19.62 77.12 19.35 77.39 19.01 77.39C18.98 77.39 18.94 77.39 18.91 77.38C18.78 77.56 18.65 77.74 18.53 77.92C18.15 78.49 17.76 79.06 17.44 79.67C17.22 80.14 16.99 80.61 16.84 81.11C16.77 81.34 16.7 81.57 16.63 81.8C16.72 81.86 16.77 81.96 16.77 82.08C16.77 82.25 16.64 82.39 16.47 82.41C16.42 82.71 16.34 83.01 16.34 83.31C16.35 83.49 16.35 83.66 16.38 83.84C16.4 83.94 16.41 84.04 16.44 84.14C16.71 85.35 18.81 88.54 18.28 89.44ZM18.53 84.44C18.53 84.25 18.68 84.1 18.87 84.1C19.05 84.1 19.2 84.25 19.2 84.44C19.2 84.62 19.05 84.77 18.87 84.77C18.68 84.77 18.53 84.62 18.53 84.44ZM13.63 82.47C13.63 82.14 13.9 81.86 14.23 81.86C14.57 81.86 14.84 82.14 14.84 82.47C14.84 82.81 14.57 83.08 14.23 83.08C13.9 83.08 13.63 82.81 13.63 82.47ZM16.9 81.74C16.9 81.41 17.17 81.14 17.5 81.14C17.83 81.14 18.11 81.41 18.11 81.74C18.11 82.08 17.83 82.35 17.5 82.35C17.17 82.35 16.9 82.08 16.9 81.74ZM12.91 80.32C12.91 80.14 13.05 79.99 13.24 79.99C13.42 79.99 13.57 80.14 13.57 80.32C13.57 80.51 13.42 80.65 13.24 80.65C13.05 80.65 12.91 80.51 12.91 80.32ZM14.42 79.78C14.42 79.59 14.57 79.45 14.75 79.45C14.93 79.45 15.08 79.59 15.08 79.78C15.08 79.96 14.93 80.11 14.75 80.11C14.57 80.11 14.42 79.96 14.42 79.78ZM19.86 78.78C19.86 78.45 20.13 78.18 20.46 78.18C20.8 78.18 21.07 78.45 21.07 78.78C21.07 79.11 20.8 79.39 20.46 79.39C20.13 79.39 19.86 79.11 19.86 78.78ZM21.55 78.02C21.55 77.84 21.7 77.69 21.88 77.69C22.07 77.69 22.22 77.84 22.22 78.02C22.22 78.21 22.07 78.36 21.88 78.36C21.7 78.36 21.55 78.21 21.55 78.02ZM12.96 77.09C12.96 76.76 13.24 76.48 13.57 76.48C13.9 76.48 14.18 76.76 14.18 77.09C14.18 77.43 13.9 77.69 13.57 77.69C13.24 77.69 12.96 77.43 12.96 77.09ZM14.35 75.33C14.35 75 14.63 74.73 14.96 74.73C15.3 74.73 15.56 75 15.56 75.33C15.56 75.66 15.3 75.94 14.96 75.94C14.63 75.94 14.35 75.66 14.35 75.33ZM22.46 75.37C22.46 75.18 22.61 75.03 22.8 75.03C22.98 75.03 23.13 75.18 23.13 75.37C23.13 75.55 22.98 75.7 22.8 75.7C22.61 75.7 22.46 75.55 22.46 75.37ZM26.57 74.55C26.57 74.21 26.85 73.95 27.18 73.95C27.51 73.94 27.79 74.21 27.79 74.55C27.79 74.88 27.51 75.15 27.18 75.15C26.85 75.15 26.57 74.88 26.57 74.55ZM20.1 73.82C20.1 73.49 20.38 73.22 20.71 73.22C21.04 73.22 21.31 73.49 21.31 73.82C21.31 74.16 21.04 74.43 20.71 74.43C20.38 74.43 20.1 74.16 20.1 73.82ZM23.08 74.28C23.06 74.27 23.43 73.98 24.3 73.34C24.77 73 25.23 72.63 25.74 72.32C26.85 71.65 27.97 70.98 29.16 70.45C30.01 70.07 30.86 69.69 31.73 69.36C32.33 69.11 32.93 68.87 33.54 68.64L34.33 68.34C36.71 67.42 36.09 67.79 33.71 68.7L32.93 68.99C32.32 69.22 31.71 69.47 31.11 69.71C30.57 69.92 30.04 70.15 29.51 70.38C29.83 70.4 30.09 70.65 30.09 70.98C30.09 71.31 29.81 71.58 29.48 71.58C29.14 71.58 28.88 71.31 28.88 70.98C28.88 70.83 28.93 70.7 29.02 70.59L28.55 70.8C27.88 71.06 26.55 71.85 26.35 71.97C25.84 72.28 25.38 72.65 24.9 73C23.79 73.82 23.11 74.28 23.08 74.28L23.08 74.28ZM14.05 73.03C14.05 72.7 14.32 72.43 14.66 72.43C14.99 72.43 15.27 72.7 15.27 73.03C15.27 73.37 14.99 73.64 14.66 73.64C14.32 73.64 14.05 73.37 14.05 73.03ZM27.54 72.64C27.54 72.46 27.69 72.31 27.87 72.31C28.06 72.31 28.21 72.46 28.21 72.64C28.21 72.83 28.06 72.98 27.87 72.98C27.69 72.98 27.54 72.83 27.54 72.64ZM16.29 71.52C16.29 71.19 16.57 70.92 16.9 70.92C17.23 70.92 17.5 71.19 17.5 71.52C17.5 71.85 17.23 72.13 16.9 72.13C16.57 72.13 16.29 71.85 16.29 71.52ZM19.56 71.34C19.56 71.01 19.83 70.74 20.17 70.74C20.5 70.74 20.77 71.01 20.77 71.34C20.77 71.68 20.5 71.94 20.17 71.94C19.83 71.94 19.56 71.68 19.56 71.34ZM11.63 71.13C11.63 70.95 11.78 70.8 11.97 70.8C12.15 70.8 12.3 70.95 12.3 71.13C12.3 71.31 12.15 71.46 11.97 71.46C11.78 71.46 11.63 71.31 11.63 71.13ZM32.74 69.98C32.74 69.79 32.89 69.65 33.08 69.65C33.26 69.65 33.41 69.8 33.41 69.98C33.41 70.16 33.26 70.31 33.08 70.31C32.89 70.31 32.74 70.16 32.74 69.98ZM25.24 69.65C25.24 69.31 25.52 69.05 25.85 69.05C26.18 69.05 26.45 69.31 26.45 69.65C26.45 69.98 26.18 70.25 25.85 70.25C25.52 70.25 25.24 69.98 25.24 69.65ZM36.53 69.71C36.34 69.71 36.19 69.56 36.19 69.38C36.19 69.31 36.21 69.25 36.24 69.2C36.19 69.22 36.13 69.22 36.07 69.22C35.74 69.22 35.47 68.96 35.47 68.62C35.47 68.29 35.74 68.01 36.07 68.01C36.41 68.01 36.68 68.29 36.68 68.62C36.68 68.79 36.61 68.94 36.5 69.05L36.53 69.05C36.71 69.05 36.86 69.19 36.86 69.38C36.86 69.56 36.71 69.71 36.53 69.71L36.53 69.71ZM38 67.71C38 67.38 38.28 67.11 38.61 67.11C38.95 67.11 39.22 67.38 39.22 67.71C39.22 68.04 38.95 68.32 38.61 68.32C38.28 68.32 38 68.04 38 67.71ZM17.38 67.71C17.38 67.38 17.66 67.11 17.99 67.11C18.32 67.11 18.59 67.38 18.59 67.71C18.59 68.04 18.32 68.32 17.99 68.32C17.66 68.32 17.38 68.04 17.38 67.71ZM22.16 67.65C22.16 67.32 22.43 67.04 22.76 67.04C23.1 67.04 23.37 67.32 23.37 67.65C23.37 67.99 23.1 68.25 22.76 68.25C22.43 68.25 22.16 67.99 22.16 67.65ZM39.82 67.86C39.82 67.68 39.97 67.53 40.15 67.53C40.34 67.53 40.49 67.68 40.49 67.86C40.49 68.05 40.34 68.2 40.15 68.2C39.97 68.2 39.82 68.05 39.82 67.86ZM26.82 67.44C26.82 67.26 26.97 67.11 27.15 67.11C27.34 67.11 27.48 67.26 27.48 67.44C27.48 67.62 27.34 67.77 27.15 67.77C26.97 67.77 26.82 67.62 26.82 67.44ZM21.62 67.38C21.62 67.38 21.62 67.38 21.62 67.38C21.62 67.38 21.62 67.38 21.62 67.38L21.62 67.38ZM21.62 67.38C21.65 67.33 21.69 67.29 21.72 67.25C22.33 66.55 22.97 65.88 23.62 65.22C23.54 65.2 23.46 65.15 23.42 65.07C22.99 65.53 22.59 66.01 22.22 66.52C22.01 66.8 21.82 67.09 21.62 67.38ZM33.12 66.46C33.12 66.46 33.13 66.46 33.14 66.45C33.13 66.46 33.12 66.46 33.12 66.46L33.12 66.46ZM33.14 66.45C34.11 65.9 35.09 65.34 36.07 64.8C36.19 64.73 36.38 64.62 36.54 64.53C36.31 64.45 36.13 64.23 36.13 63.96C36.13 63.63 36.4 63.35 36.74 63.35C37.07 63.35 37.34 63.63 37.34 63.96C37.34 64.01 37.34 64.05 37.33 64.1L39.4 62.93C38.71 63.33 38.01 63.72 37.32 64.12C37.25 64.37 37.02 64.56 36.74 64.56C36.68 64.56 36.62 64.56 36.57 64.54C36.07 64.82 35.57 65.09 35.08 65.36C34.38 65.75 33.71 66.13 33.14 66.45ZM40.55 66.05C40.55 65.86 40.7 65.72 40.88 65.72C41.07 65.72 41.21 65.86 41.21 66.05C41.21 66.23 41.07 66.38 40.88 66.38C40.7 66.38 40.55 66.23 40.55 66.05ZM17.74 65.47C17.41 65.47 17.14 65.2 17.14 64.87C17.14 64.53 17.41 64.27 17.74 64.27C17.85 64.27 17.96 64.29 18.05 64.34C18.05 64.17 18.19 64.02 18.38 64.02C18.56 64.02 18.71 64.17 18.71 64.36C18.71 64.54 18.56 64.69 18.38 64.69C18.35 64.69 18.34 64.69 18.31 64.68C18.33 64.74 18.35 64.8 18.35 64.87C18.35 65.2 18.08 65.48 17.74 65.48L17.74 65.47ZM15.44 65.08C15.44 64.9 15.59 64.75 15.78 64.75C15.96 64.75 16.11 64.9 16.11 65.08C16.11 65.26 15.96 65.41 15.78 65.41C15.59 65.41 15.44 65.26 15.44 65.08ZM19.37 62.51C19.37 62.18 19.65 61.9 19.98 61.9C20.32 61.9 20.58 62.18 20.58 62.51C20.58 62.85 20.32 63.11 19.98 63.11C19.65 63.11 19.37 62.85 19.37 62.51ZM45.21 62.66C45.21 62.48 45.36 62.33 45.54 62.33C45.72 62.33 45.87 62.48 45.87 62.66C45.87 62.84 45.72 62.99 45.54 62.99C45.36 62.99 45.21 62.84 45.21 62.66ZM39.64 62.79L39.67 62.77C39.66 62.78 39.65 62.78 39.64 62.79L39.64 62.79ZM39.67 62.77C41.14 61.91 42.55 60.93 43.91 59.9C44.96 59.1 45.95 58.23 46.91 57.32C46.91 57.31 46.92 57.3 46.92 57.29C46.44 57.7 45.94 58.09 45.44 58.48C43.53 60.01 42.93 60.35 44.84 58.83C45.39 58.39 45.94 57.97 46.47 57.51C47.19 56.88 47.91 56.25 48.63 55.61C49.9 54.26 51.01 52.77 52.06 51.24C53.31 49.46 54.23 47.5 54.98 45.47C55.77 43.27 56.09 40.95 56.26 38.62C56.46 36.54 56.29 34.47 56.03 32.41C55.54 28.55 56.48 28.01 56.98 31.86C57.25 33.93 57.43 35.99 57.22 38.07C57.07 40.09 56.81 42.1 56.23 44.04C56.34 43.94 56.48 43.88 56.64 43.88C56.98 43.88 57.24 44.15 57.24 44.48C57.24 44.82 56.98 45.09 56.64 45.09C56.35 45.09 56.1 44.88 56.05 44.6C56.01 44.71 55.99 44.81 55.95 44.92C55.2 46.94 54.28 48.9 53.03 50.67C52.33 51.68 51.61 52.68 50.84 53.63C51.39 53.13 51.95 52.62 52.49 52.11L53.17 51.41C53.22 51.27 53.33 51.16 53.47 51.09C53.92 50.6 54.34 50.09 54.7 49.53C55.27 48.69 55.84 47.84 56.39 46.99C56.93 46.13 57.47 45.28 57.99 44.41C58.44 43.67 58.89 42.92 59.29 42.14C59.51 41.67 59.75 41.21 59.91 40.72C59.98 40.53 60.03 40.34 60.12 40.16C60.35 39.7 60.55 39.34 60.73 39.04C60.53 38.94 60.39 38.73 60.39 38.5C60.39 38.17 60.64 37.91 60.96 37.89C60.87 37.83 60.81 37.73 60.81 37.62C60.81 37.44 60.96 37.29 61.14 37.29C61.33 37.29 61.48 37.44 61.48 37.62C61.48 37.77 61.37 37.9 61.23 37.94C61.45 38.03 61.6 38.25 61.6 38.5C61.6 38.8 61.38 39.04 61.09 39.09C61 39.29 60.88 39.52 60.74 39.8C60.65 39.98 60.6 40.17 60.53 40.35C60.37 40.85 60.13 41.32 59.91 41.79L59.67 42.24C59.78 42.13 59.92 42.07 60.08 42.07C60.42 42.07 60.69 42.33 60.69 42.67C60.69 43 60.42 43.27 60.08 43.27C59.75 43.27 59.48 43 59.48 42.67C59.48 42.63 59.49 42.59 59.5 42.55C59.21 43.06 58.9 43.56 58.6 44.06C58.08 44.92 57.54 45.78 56.99 46.63C56.45 47.49 55.88 48.33 55.31 49.17C54.88 49.85 54.35 50.45 53.81 51.02C54.11 51.06 54.34 51.32 54.34 51.62C54.34 51.96 54.07 52.23 53.74 52.23C53.43 52.23 53.18 52 53.13 51.71L53.09 51.76C52.14 52.66 51.17 53.53 50.19 54.41L50.14 54.45C49.83 54.81 49.5 55.17 49.17 55.51C48.71 55.97 48.24 56.43 47.76 56.88C47.97 56.97 48.11 57.19 48.11 57.43C48.11 57.76 47.84 58.03 47.51 58.03C47.25 58.03 47.03 57.87 46.94 57.63C46.28 58.22 45.6 58.79 44.89 59.33C43.49 60.39 42.06 61.39 40.54 62.27L39.67 62.77ZM35.95 62.3C35.95 62.12 36.1 61.97 36.29 61.97C36.47 61.97 36.62 62.12 36.62 62.3C36.62 62.48 36.47 62.63 36.29 62.63C36.1 62.63 35.95 62.48 35.95 62.3ZM42.34 62.39L42.27 62.39C42.09 62.39 41.94 62.24 41.94 62.05C41.94 61.87 42.09 61.72 42.27 61.72C42.46 61.72 42.61 61.87 42.61 62.05C42.61 62.21 42.49 62.35 42.34 62.39ZM28.33 61.6C28.33 61.27 28.6 61 28.93 61C29.27 61 29.54 61.27 29.54 61.6C29.54 61.93 29.27 62.21 28.93 62.21C28.6 62.21 28.33 61.93 28.33 61.6ZM30.45 61.69C30.45 61.51 30.6 61.36 30.78 61.36C30.96 61.36 31.11 61.51 31.11 61.69C31.11 61.88 30.96 62.02 30.78 62.02C30.6 62.02 30.45 61.88 30.45 61.69ZM39.22 60.18C39.22 60 39.37 59.85 39.55 59.85C39.74 59.85 39.89 60 39.89 60.18C39.89 60.36 39.74 60.51 39.55 60.51C39.37 60.51 39.22 60.36 39.22 60.18ZM41.94 59.73C41.94 59.39 42.21 59.12 42.54 59.12C42.88 59.12 43.15 59.39 43.15 59.73C43.15 60.06 42.88 60.34 42.54 60.34C42.21 60.34 41.94 60.06 41.94 59.73ZM20.58 59.49C20.58 59.15 20.86 58.88 21.19 58.88C21.53 58.88 21.8 59.15 21.8 59.49C21.8 59.82 21.53 60.09 21.19 60.09C20.86 60.09 20.58 59.82 20.58 59.49ZM49.5 59.15C49.5 58.97 49.65 58.82 49.83 58.82C50.02 58.82 50.16 58.97 50.16 59.15C50.16 59.34 50.02 59.49 49.83 59.49C49.65 59.49 49.5 59.34 49.5 59.15ZM27.91 58.76C27.91 58.42 28.18 58.16 28.51 58.16C28.84 58.16 29.12 58.42 29.12 58.76C29.12 59.09 28.84 59.37 28.51 59.37C28.18 59.37 27.91 59.09 27.91 58.76ZM19.13 58C19.13 57.82 19.28 57.67 19.47 57.67C19.65 57.67 19.8 57.82 19.8 58C19.8 58.19 19.65 58.33 19.47 58.33C19.28 58.33 19.13 58.19 19.13 58ZM43.27 57.67C43.27 57.34 43.54 57.07 43.87 57.07C44.21 57.07 44.48 57.34 44.48 57.67C44.48 58 44.21 58.28 43.87 58.28C43.54 58.28 43.27 58 43.27 57.67ZM22.16 57.67C21.83 57.67 21.55 57.4 21.55 57.07C21.55 56.84 21.69 56.64 21.88 56.54C21.87 56.5 21.86 56.47 21.86 56.43C21.86 56.25 22 56.1 22.19 56.1C22.37 56.1 22.52 56.25 22.52 56.43C22.52 56.48 22.52 56.53 22.5 56.57C22.66 56.68 22.76 56.86 22.76 57.07C22.76 57.4 22.49 57.67 22.16 57.67L22.16 57.67ZM34.62 56.52C34.62 56.19 34.89 55.92 35.23 55.92C35.56 55.92 35.83 56.19 35.83 56.52C35.83 56.86 35.56 57.13 35.23 57.13C34.89 57.13 34.62 56.86 34.62 56.52ZM24.08 56.91C23.96 56.92 23.94 56.4 24.15 55.3C24.38 54.03 24.62 52.76 24.75 51.48C24.91 49.9 25.01 48.32 24.95 46.73C24.89 45.55 24.81 44.36 24.61 43.19C24.48 42.4 24.35 41.6 24.15 40.83C24.06 40.53 24 40.22 23.86 39.94C22.78 37.62 23.44 37.24 24.49 39.58C24.62 39.87 24.68 40.17 24.77 40.48C24.97 41.25 25.09 42.04 25.21 42.84C25.42 44.01 25.49 45.2 25.55 46.39C25.6 47.98 25.5 49.56 25.34 51.14C25.2 52.43 24.97 53.69 24.73 54.96C24.5 56.21 24.22 56.89 24.08 56.91L24.08 56.91ZM36.68 56.55C36.68 56.37 36.82 56.22 37.01 56.22C37.19 56.22 37.34 56.37 37.34 56.55C37.34 56.74 37.19 56.88 37.01 56.88C36.82 56.88 36.68 56.74 36.68 56.55ZM26.76 56.31C26.76 56.13 26.9 55.98 27.09 55.98C27.27 55.98 27.42 56.13 27.42 56.31C27.42 56.5 27.27 56.64 27.09 56.64C26.9 56.64 26.76 56.5 26.76 56.31ZM30.45 54.95C30.45 54.61 30.72 54.35 31.05 54.35C31.39 54.35 31.66 54.61 31.66 54.95C31.66 55.28 31.39 55.56 31.05 55.56C30.72 55.56 30.45 55.28 30.45 54.95ZM47.32 54.47C47.32 54.13 47.6 53.86 47.93 53.86C48.26 53.86 48.53 54.13 48.53 54.47C48.53 54.8 48.26 55.07 47.93 55.07C47.6 55.07 47.32 54.8 47.32 54.47ZM54.4 53.34C54.4 53.16 54.55 53.01 54.73 53.01C54.92 53.01 55.06 53.16 55.06 53.34C55.06 53.53 54.92 53.68 54.73 53.68C54.55 53.68 54.4 53.53 54.4 53.34ZM42.61 50.23C42.61 49.9 42.87 49.62 43.21 49.62C43.54 49.62 43.82 49.9 43.82 50.23C43.82 50.57 43.54 50.83 43.21 50.83C42.87 50.83 42.61 50.57 42.61 50.23ZM49.32 49.53C49.32 49.35 49.47 49.2 49.65 49.2C49.83 49.2 49.99 49.35 49.99 49.53C49.99 49.72 49.83 49.86 49.65 49.86C49.47 49.86 49.32 49.72 49.32 49.53ZM19.62 48.84C19.62 48.51 19.89 48.23 20.22 48.23C20.56 48.23 20.83 48.51 20.83 48.84C20.83 49.17 20.56 49.45 20.22 49.45C19.89 49.45 19.62 49.17 19.62 48.84ZM34.92 48.6C34.92 48.26 35.2 47.99 35.53 47.99C35.86 47.99 36.13 48.26 36.13 48.6C36.13 48.93 35.86 49.2 35.53 49.2C35.2 49.2 34.92 48.93 34.92 48.6ZM58.51 48.15C58.51 47.96 58.66 47.81 58.85 47.81C59.03 47.81 59.18 47.96 59.18 48.15C59.18 48.33 59.03 48.48 58.85 48.48C58.66 48.48 58.51 48.33 58.51 48.15ZM57.48 47.39C57.48 47.06 57.76 46.78 58.09 46.78C58.42 46.78 58.7 47.06 58.7 47.39C58.7 47.72 58.42 47.99 58.09 47.99C57.76 47.99 57.48 47.72 57.48 47.39ZM38.68 47.21C38.68 46.87 38.94 46.6 39.28 46.6C39.61 46.6 39.88 46.87 39.88 47.21C39.88 47.54 39.61 47.81 39.28 47.81C38.94 47.81 38.68 47.54 38.68 47.21ZM28.69 46.54C28.69 46.21 28.96 45.93 29.29 45.93C29.63 45.93 29.9 46.21 29.9 46.54C29.9 46.88 29.63 47.14 29.29 47.14C28.96 47.14 28.69 46.88 28.69 46.54ZM22.64 44.21C22.64 44.02 22.79 43.88 22.97 43.88C23.16 43.88 23.31 44.02 23.31 44.21C23.31 44.39 23.16 44.55 22.97 44.55C22.79 44.55 22.64 44.39 22.64 44.21ZM25.85 43.82C25.85 43.49 26.12 43.21 26.45 43.21C26.79 43.21 27.06 43.49 27.06 43.82C27.06 44.15 26.79 44.42 26.45 44.42C26.12 44.42 25.85 44.15 25.85 43.82ZM52.53 43.64C52.53 43.3 52.79 43.03 53.13 43.03C53.46 43.03 53.74 43.3 53.74 43.64C53.74 43.97 53.46 44.24 53.13 44.24C52.79 44.24 52.53 43.97 52.53 43.64ZM29.84 43.3C29.84 43.12 29.99 42.97 30.18 42.97C30.36 42.97 30.51 43.12 30.51 43.3C30.51 43.49 30.36 43.64 30.18 43.64C29.99 43.64 29.84 43.49 29.84 43.3ZM37.95 40.49C37.95 40.16 38.22 39.89 38.56 39.89C38.89 39.89 39.16 40.16 39.16 40.49C39.16 40.82 38.89 41.1 38.56 41.1C38.22 41.1 37.95 40.82 37.95 40.49ZM45.09 40.43C45.09 40.1 45.36 39.82 45.69 39.82C46.02 39.82 46.3 40.1 46.3 40.43C46.3 40.77 46.02 41.03 45.69 41.03C45.36 41.03 45.09 40.77 45.09 40.43ZM57.67 39.77C57.67 39.43 57.94 39.16 58.27 39.16C58.61 39.16 58.88 39.43 58.88 39.77C58.88 40.1 58.61 40.37 58.27 40.37C57.94 40.37 57.67 40.1 57.67 39.77ZM27.42 39.28C27.42 38.95 27.69 38.68 28.03 38.68C28.36 38.68 28.63 38.95 28.63 39.28C28.63 39.61 28.36 39.89 28.03 39.89C27.69 39.89 27.42 39.61 27.42 39.28ZM42.78 39.22C42.78 38.89 43.06 38.62 43.39 38.62C43.73 38.62 44 38.89 44 39.22C44 39.56 43.73 39.82 43.39 39.82C43.06 39.82 42.78 39.56 42.78 39.22ZM30.93 38.16C30.93 37.98 31.08 37.83 31.27 37.83C31.45 37.83 31.6 37.98 31.6 38.16C31.6 38.35 31.45 38.5 31.27 38.5C31.08 38.5 30.93 38.35 30.93 38.16ZM22.22 37.19C22.22 37.01 22.37 36.86 22.55 36.86C22.73 36.86 22.89 37.01 22.89 37.19C22.89 37.38 22.73 37.53 22.55 37.53C22.37 37.53 22.22 37.38 22.22 37.19ZM44.18 37.07C44.18 36.89 44.33 36.74 44.51 36.74C44.69 36.74 44.84 36.89 44.84 37.07C44.84 37.26 44.69 37.41 44.51 37.41C44.33 37.41 44.18 37.26 44.18 37.07ZM53.62 36.25C53.62 35.92 53.88 35.65 54.22 35.65C54.55 35.65 54.82 35.92 54.82 36.25C54.82 36.59 54.55 36.86 54.22 36.86C53.88 36.86 53.62 36.59 53.62 36.25ZM37.83 36.29C37.83 36.11 37.98 35.96 38.16 35.96C38.34 35.96 38.49 36.11 38.49 36.29C38.49 36.47 38.34 36.62 38.16 36.62C37.98 36.62 37.83 36.47 37.83 36.29ZM61.6 35.75C61.6 35.56 61.75 35.41 61.93 35.41C62.11 35.41 62.26 35.56 62.26 35.75C62.26 35.93 62.11 36.08 61.93 36.08C61.75 36.08 61.6 35.93 61.6 35.75ZM38.31 35.35C38.31 35.02 38.58 34.74 38.92 34.74C39.25 34.74 39.52 35.02 39.52 35.35C39.52 35.68 39.25 35.96 38.92 35.96C38.58 35.96 38.31 35.68 38.31 35.35ZM47.99 35.17C47.99 34.83 48.26 34.56 48.6 34.56C48.93 34.56 49.2 34.83 49.2 35.17C49.2 35.5 48.93 35.77 48.6 35.77C48.26 35.77 47.99 35.5 47.99 35.17ZM52.41 34.59C52.41 34.41 52.55 34.26 52.74 34.26C52.92 34.26 53.07 34.41 53.07 34.59C53.07 34.78 52.92 34.93 52.74 34.93C52.55 34.93 52.41 34.78 52.41 34.59ZM61.17 34.14C61.17 33.81 61.45 33.53 61.78 33.53C62.12 33.53 62.38 33.81 62.38 34.14C62.38 34.47 62.12 34.74 61.78 34.74C61.45 34.74 61.17 34.47 61.17 34.14ZM29.69 34.74C29.51 34.74 29.36 34.59 29.36 34.41C29.36 34.23 29.51 34.08 29.69 34.08C29.87 34.08 30.02 34.23 30.02 34.41C30.02 34.57 29.91 34.71 29.76 34.74L29.69 34.74ZM57.24 33.45C57.24 33.26 57.39 33.11 57.57 33.11C57.76 33.11 57.91 33.26 57.91 33.45C57.91 33.63 57.76 33.78 57.57 33.78C57.39 33.78 57.24 33.63 57.24 33.45ZM32.74 32.56C32.74 32.23 33.02 31.96 33.35 31.96C33.69 31.96 33.95 32.23 33.95 32.56C33.95 32.9 33.69 33.17 33.35 33.17C33.02 33.17 32.74 32.9 32.74 32.56ZM53.5 32.36C53.5 32.18 53.64 32.02 53.83 32.02C54.01 32.02 54.16 32.18 54.16 32.36C54.16 32.54 54.01 32.69 53.83 32.69C53.64 32.69 53.5 32.54 53.5 32.36ZM43.87 31.84C43.54 31.84 43.27 31.57 43.27 31.23C43.27 30.9 43.54 30.63 43.87 30.63C44.04 30.63 44.2 30.7 44.31 30.82C44.35 30.68 44.48 30.57 44.63 30.57C44.81 30.57 44.96 30.72 44.96 30.9C44.96 31.09 44.81 31.23 44.63 31.23C44.57 31.23 44.52 31.22 44.47 31.2C44.47 31.21 44.48 31.22 44.48 31.23C44.48 31.57 44.21 31.84 43.87 31.84ZM50.04 30.78C50.04 30.6 50.19 30.45 50.38 30.45C50.56 30.45 50.71 30.6 50.71 30.78C50.71 30.97 50.56 31.11 50.38 31.11C50.19 31.11 50.04 30.97 50.04 30.78ZM60.33 30.66C60.33 30.48 60.48 30.33 60.66 30.33C60.85 30.33 61 30.48 61 30.66C61 30.85 60.85 30.99 60.66 30.99C60.48 30.99 60.33 30.85 60.33 30.66ZM57.48 30.33C57.48 30 57.76 29.72 58.09 29.72C58.42 29.72 58.7 30 58.7 30.33C58.7 30.66 58.42 30.93 58.09 30.93C57.76 30.93 57.48 30.66 57.48 30.33ZM32.2 30.15C32.2 29.81 32.47 29.54 32.81 29.54C33.14 29.54 33.41 29.81 33.41 30.15C33.41 30.48 33.14 30.75 32.81 30.75C32.47 30.75 32.2 30.48 32.2 30.15ZM37.95 30.09C37.73 30.09 37.54 29.96 37.43 29.79C37.34 29.73 37.28 29.62 37.28 29.51C37.28 29.42 37.32 29.34 37.38 29.28C37.47 29.04 37.69 28.88 37.95 28.88C38.28 28.88 38.56 29.15 38.56 29.48C38.56 29.82 38.28 30.09 37.95 30.09L37.95 30.09ZM50.89 28.94C50.89 28.6 51.16 28.34 51.49 28.34C51.83 28.34 52.1 28.6 52.1 28.94C52.1 29.27 51.83 29.54 51.49 29.54C51.16 29.54 50.89 29.27 50.89 28.94ZM28.57 28.34C28.57 28 28.84 27.73 29.17 27.73C29.51 27.73 29.78 28 29.78 28.34C29.78 28.67 29.51 28.94 29.17 28.94C28.84 28.94 28.57 28.67 28.57 28.34ZM39.04 26.73C39.04 26.55 39.19 26.4 39.37 26.4C39.55 26.4 39.7 26.55 39.7 26.73C39.7 26.91 39.55 27.06 39.37 27.06C39.19 27.06 39.04 26.91 39.04 26.73ZM59.42 26.61C59.42 26.43 59.57 26.28 59.75 26.28C59.94 26.28 60.08 26.43 60.08 26.61C60.08 26.79 59.94 26.94 59.75 26.94C59.57 26.94 59.42 26.79 59.42 26.61ZM31.78 26.55C31.78 26.36 31.92 26.21 32.11 26.21C32.29 26.21 32.44 26.36 32.44 26.55C32.44 26.73 32.29 26.88 32.11 26.88C31.92 26.88 31.78 26.73 31.78 26.55ZM55.18 25.15C55.18 24.97 55.33 24.82 55.52 24.82C55.7 24.82 55.85 24.97 55.85 25.15C55.85 25.34 55.7 25.49 55.52 25.49C55.33 25.49 55.18 25.34 55.18 25.15ZM56.22 24.4C56.22 24.06 56.48 23.8 56.82 23.8C57.15 23.8 57.43 24.06 57.43 24.4C57.43 24.73 57.15 25.01 56.82 25.01C56.48 25.01 56.22 24.73 56.22 24.4ZM34.74 23.95C34.74 23.76 34.89 23.61 35.08 23.61C35.26 23.61 35.41 23.76 35.41 23.95C35.41 24.13 35.26 24.28 35.08 24.28C34.89 24.28 34.74 24.13 34.74 23.95ZM37.22 23.44C37.22 23.1 37.49 22.83 37.83 22.83C38.16 22.83 38.43 23.1 38.43 23.44C38.43 23.77 38.16 24.04 37.83 24.04C37.49 24.04 37.22 23.77 37.22 23.44ZM32.02 22.47C32.02 22.13 32.29 21.86 32.62 21.86C32.96 21.86 33.23 22.13 33.23 22.47C33.23 22.8 32.96 23.07 32.62 23.07C32.29 23.07 32.02 22.8 32.02 22.47ZM49.74 22.55C49.74 22.37 49.89 22.22 50.07 22.22C50.26 22.22 50.41 22.37 50.41 22.55C50.41 22.74 50.26 22.89 50.07 22.89C49.89 22.89 49.74 22.74 49.74 22.55ZM41.64 22.22C41.64 21.89 41.91 21.62 42.24 21.62C42.57 21.62 42.85 21.89 42.85 22.22C42.85 22.55 42.57 22.83 42.24 22.83C41.91 22.83 41.64 22.55 41.64 22.22ZM52.34 21.89C52.34 21.7 52.49 21.56 52.68 21.56C52.86 21.56 53.01 21.7 53.01 21.89C53.01 22.07 52.86 22.22 52.68 22.22C52.49 22.22 52.34 22.07 52.34 21.89ZM40.67 20.5C40.67 20.32 40.82 20.17 41 20.17C41.19 20.17 41.33 20.32 41.33 20.5C41.33 20.69 41.19 20.83 41 20.83C40.82 20.83 40.67 20.69 40.67 20.5ZM27.42 20.04C27.42 19.71 27.69 19.44 28.03 19.44C28.36 19.44 28.63 19.71 28.63 20.04C28.63 20.38 28.36 20.65 28.03 20.65C27.69 20.65 27.42 20.38 27.42 20.04ZM50.47 18.87C50.47 18.69 50.62 18.54 50.8 18.54C50.99 18.54 51.13 18.69 51.13 18.87C51.13 19.05 50.99 19.2 50.8 19.2C50.62 19.2 50.47 19.05 50.47 18.87ZM52.34 18.17C52.34 17.84 52.62 17.57 52.95 17.57C53.28 17.57 53.55 17.84 53.55 18.17C53.55 18.5 53.28 18.78 52.95 18.78C52.62 18.78 52.34 18.5 52.34 18.17ZM26.88 17.53C26.88 17.35 27.02 17.2 27.21 17.2C27.39 17.2 27.54 17.35 27.54 17.53C27.54 17.72 27.39 17.87 27.21 17.87C27.02 17.87 26.88 17.72 26.88 17.53ZM52.65 16.27C52.65 16.08 52.8 15.93 52.98 15.93C53.16 15.93 53.31 16.08 53.31 16.27C53.31 16.45 53.16 16.6 52.98 16.6C52.8 16.6 52.65 16.45 52.65 16.27ZM36.01 15.36C36.01 15.17 36.16 15.02 36.34 15.02C36.53 15.02 36.68 15.17 36.68 15.36C36.68 15.54 36.53 15.69 36.34 15.69C36.16 15.69 36.01 15.54 36.01 15.36ZM27.48 13.72C27.48 13.54 27.63 13.39 27.82 13.39C28 13.39 28.15 13.54 28.15 13.72C28.15 13.91 28 14.05 27.82 14.05C27.63 14.05 27.48 13.91 27.48 13.72ZM29.17 12.51C29.17 12.33 29.32 12.18 29.51 12.18C29.69 12.18 29.84 12.33 29.84 12.51C29.84 12.7 29.69 12.85 29.51 12.85C29.32 12.85 29.17 12.7 29.17 12.51Z" />
		<g id="Layer">
			<path id="Layer" class="shp8" d="M63.79 50.81C63.79 56.23 59.4 60.62 53.98 60.62C48.56 60.62 44.17 56.23 44.17 50.81C44.17 45.39 48.56 40.99 53.98 40.99C59.4 40.99 63.79 45.39 63.79 50.81Z" />
			<path id="Layer" class="shp9" d="M54 43.55C52.84 46.66 49.62 48.48 48.4 51.14C47.69 52.68 48.19 54.42 49.63 55.08C50.93 55.66 52.52 55.15 53.37 53.92C53.38 54.05 53.38 54.19 53.38 54.33C53.38 55.79 52.85 57.12 52 58.07L55.96 58.07C55.06 57.11 54.49 55.75 54.49 54.24C54.49 54.07 54.5 53.9 54.51 53.73C55.33 55.09 57.01 55.69 58.37 55.08C59.81 54.42 60.22 52.7 59.61 51.14C58.56 48.44 55.4 46.67 54 43.55L54 43.55Z" />
		</g>
		<g id="Layer">
			<path id="Layer" class="shp10" d="M47.31 65.47C47.31 70.89 42.92 75.28 37.5 75.28C32.08 75.28 27.68 70.89 27.68 65.47C27.68 60.05 32.08 55.65 37.5 55.65C42.92 55.65 47.31 60.05 47.31 65.47Z" />
			<path id="Layer" class="shp11" d="M37.52 58.21C36.36 61.32 33.14 63.14 31.91 65.8C31.2 67.34 31.7 69.08 33.14 69.74C34.45 70.32 36.03 69.81 36.89 68.58C36.9 68.71 36.9 68.85 36.9 68.99C36.9 70.45 36.37 71.78 35.51 72.73L39.48 72.73C38.57 71.77 38.01 70.41 38.01 68.9C38.01 68.73 38.01 68.56 38.03 68.39C38.85 69.75 40.52 70.35 41.89 69.74C43.33 69.08 43.73 67.36 43.12 65.8C42.07 63.1 38.92 61.33 37.52 58.21L37.52 58.21Z" />
		</g>
		<g id="Layer">
			<path id="Layer" class="shp12" d="M29.84 19.99C29.84 25.41 25.45 29.8 20.03 29.8C14.61 29.8 10.21 25.41 10.21 19.99C10.21 14.57 14.61 10.17 20.03 10.17C25.45 10.17 29.84 14.57 29.84 19.99Z" />
			<path id="Layer" class="shp13" d="M20.05 12.73C18.89 15.84 15.67 17.66 14.44 20.32C13.73 21.86 14.23 23.6 15.67 24.26C16.98 24.84 18.56 24.33 19.42 23.1C19.43 23.23 19.43 23.37 19.43 23.51C19.43 24.97 18.9 26.3 18.04 27.25L22.01 27.25C21.1 26.29 20.54 24.93 20.54 23.42C20.54 23.25 20.54 23.08 20.56 22.91C21.38 24.27 23.05 24.87 24.42 24.26C25.86 23.6 26.26 21.88 25.66 20.32C24.6 17.62 21.45 15.85 20.05 12.73L20.05 12.73Z" />
		</g>
		<g id="Layer">
			<path id="Layer" class="shp14" d="M30.33 50.81C30.33 56.23 25.93 60.62 20.52 60.62C15.1 60.62 10.7 56.23 10.7 50.81C10.7 45.39 15.1 40.99 20.52 40.99C25.93 40.99 30.33 45.39 30.33 50.81Z" />
			<path id="Layer" class="shp15" d="M20.53 43.55C19.38 46.66 16.16 48.48 14.93 51.14C14.22 52.68 14.72 54.42 16.16 55.08C17.47 55.66 19.05 55.15 19.9 53.92C19.91 54.05 19.92 54.19 19.92 54.33C19.92 55.79 19.39 57.12 18.53 58.07L22.5 58.07C21.59 57.11 21.02 55.75 21.02 54.24C21.02 54.07 21.03 53.9 21.04 53.73C21.86 55.09 23.54 55.69 24.91 55.08C26.35 54.42 26.75 52.7 26.14 51.14C25.09 48.44 21.93 46.67 20.53 43.55L20.53 43.55Z" />
		</g>
		<g id="Layer">
			<path id="Layer" class="shp16" d="M64.77 19.99C64.77 25.41 60.38 29.8 54.96 29.8C49.54 29.8 45.14 25.41 45.14 19.99C45.14 14.57 49.54 10.17 54.96 10.17C60.38 10.17 64.77 14.57 64.77 19.99Z" />
			<path id="Layer" class="shp17" d="M54.98 12.73C53.82 15.84 50.6 17.66 49.37 20.32C48.66 21.86 49.16 23.6 50.6 24.26C51.91 24.84 53.49 24.33 54.35 23.1C54.36 23.23 54.36 23.37 54.36 23.51C54.36 24.97 53.83 26.3 52.97 27.25L56.94 27.25C56.03 26.29 55.47 24.93 55.47 23.42C55.47 23.25 55.47 23.08 55.49 22.91C56.31 24.27 57.98 24.87 59.35 24.26C60.79 23.6 61.19 21.88 60.58 20.32C59.53 17.62 56.38 15.85 54.98 12.73L54.98 12.73Z" />
		</g>
		<g id="Layer">
			<path id="Layer" class="shp18" d="M63.79 80.7C63.79 86.12 59.4 90.51 53.98 90.51C48.56 90.51 44.17 86.12 44.17 80.7C44.17 75.28 48.56 70.88 53.98 70.88C59.4 70.88 63.79 75.28 63.79 80.7Z" />
			<path id="Layer" class="shp19" d="M54 73.44C52.84 76.55 49.62 78.37 48.4 81.03C47.69 82.57 48.19 84.31 49.63 84.97C50.93 85.55 52.52 85.04 53.37 83.81C53.38 83.94 53.38 84.08 53.38 84.22C53.38 85.68 52.85 87.01 52 87.96L55.96 87.96C55.06 87 54.49 85.64 54.49 84.13C54.49 83.96 54.5 83.79 54.51 83.62C55.33 84.98 57.01 85.58 58.37 84.97C59.81 84.31 60.22 82.59 59.61 81.03C58.56 78.33 55.4 76.56 54 73.44L54 73.44Z" />
		</g>
		<g id="Layer">
			<path id="Layer" class="shp20" d="M30.33 80.7C30.33 86.12 25.93 90.51 20.52 90.51C15.1 90.51 10.7 86.12 10.7 80.7C10.7 75.28 15.1 70.88 20.52 70.88C25.93 70.88 30.33 75.28 30.33 80.7Z" />
			<path id="Layer" class="shp21" d="M20.53 73.44C19.38 76.55 16.16 78.37 14.93 81.03C14.22 82.57 14.72 84.31 16.16 84.97C17.47 85.55 19.05 85.04 19.9 83.81C19.91 83.94 19.92 84.08 19.92 84.22C19.92 85.68 19.39 87.01 18.53 87.96L22.5 87.96C21.59 87 21.02 85.64 21.02 84.13C21.02 83.96 21.03 83.79 21.04 83.62C21.86 84.98 23.54 85.58 24.91 84.97C26.35 84.31 26.75 82.59 26.14 81.03C25.09 78.33 21.93 76.56 20.53 73.44L20.53 73.44Z" />
		</g>
	</g>
</svg>