<svg xmlns="http://www.w3.org/2000/svg" viewBox="0 0 73 102" width="73" height="102">
	<defs>
		<filter x="-50%" y="-50%" width="200%" height="200%" id="flt1"> <feGaussianBlur stdDeviation="0.85" /> </filter>
		<linearGradient id="grd1" gradientUnits="userSpaceOnUse"  x1="41.436" y1="26.385" x2="43.581" y2="-89.997">
			<stop offset="0" stop-color="#f3f3f3"  />
			<stop offset="1" stop-color="#8f8f8f"  />
		</linearGradient>
		<radialGradient id="grd2" gradientUnits="userSpaceOnUse"  cx="10.489" cy="91.644" r="13.273">
			<stop offset="0" stop-color="#ffffff"  />
			<stop offset="1" stop-color="#ffffff" stop-opacity="0" />
		</radialGradient>
		<radialGradient id="grd3" gradientUnits="userSpaceOnUse"  cx="62.556" cy="12.588" r="14.287">
			<stop offset="0" stop-color="#ffffff"  />
			<stop offset="1" stop-color="#ffffff" stop-opacity="0" />
		</radialGradient>
		<radialGradient id="grd4" gradientUnits="userSpaceOnUse"  cx="36.94" cy="50.581" r="22.382">
			<stop offset="0" stop-color="#ffffff"  />
			<stop offset="1" stop-color="#ffffff" stop-opacity="0" />
		</radialGradient>
		<linearGradient id="grd5" gradientUnits="userSpaceOnUse"  x1="-943.337" y1="90.39" x2="-943.337" y2="87.21">
			<stop offset="0" stop-color="#000000"  />
			<stop offset="1" stop-color="#555753"  />
		</linearGradient>
		<radialGradient id="grd6" gradientUnits="userSpaceOnUse"  cx="18.168" cy="73.826" r="25.374">
			<stop offset="0" stop-color="#000000"  />
			<stop offset="1" stop-color="#000000" stop-opacity="0" />
		</radialGradient>
		<linearGradient id="grd7" gradientUnits="userSpaceOnUse"  x1="38.263" y1="25.89" x2="38.513" y2="68.87">
			<stop offset="0" stop-color="#000000"  />
			<stop offset="1" stop-color="#6f6f6f"  />
		</linearGradient>
		<linearGradient id="grd8" gradientUnits="userSpaceOnUse"  x1="-943.339" y1="16.55" x2="-943.339" y2="5.49">
			<stop offset="0" stop-color="#000000"  />
			<stop offset="1" stop-color="#6f6f6f"  />
		</linearGradient>
		<linearGradient id="grd9" gradientUnits="userSpaceOnUse"  x1="11.813" y1="-286.61" x2="23.993" y2="-286.61">
			<stop offset="0" stop-color="#000000"  />
			<stop offset="1" stop-color="#6f6f6f"  />
		</linearGradient>
	</defs>
	<style>
		tspan { white-space:pre }
		.shp0 { filter: url(#flt1);fill: #000000 } 
		.shp1 { fill: url(#grd1);stroke: #000000;stroke-width: 0.226 } 
		.shp2 { opacity: 0.31;fill: url(#grd2) } 
		.shp3 { opacity: 0.318;fill: url(#grd3) } 
		.shp4 { fill: none;stroke: #000000;stroke-width: 0.226 } 
		.shp5 { opacity: 0.325;fill: url(#grd4) } 
		.shp6 { fill: url(#grd5);stroke: #1b1b1b;stroke-linejoin:round;stroke-width: 0.177 } 
		.shp7 { fill: url(#grd6) } 
		.shp8 { fill: url(#grd7);stroke: #0c0c0c;stroke-width: 0.488 } 
		.shp9 { fill: url(#grd8) } 
		.shp10 { fill: url(#grd9);stroke: #0c0c0c;stroke-linejoin:round;stroke-width: 0.368 } 
	</style>
	<g id="-e-Spade13">
		<g id="Layer">
			<path id="Layer" fill-rule="evenodd" class="shp0" d="M4.91 1.56L68.17 1.56C68.62 1.56 69.07 1.65 69.49 1.83C69.9 2 70.28 2.25 70.6 2.57C70.93 2.89 71.18 3.28 71.35 3.69C71.53 4.11 71.62 4.56 71.62 5.01L71.62 97.3C71.62 97.75 71.53 98.2 71.35 98.62C71.18 99.04 70.93 99.42 70.6 99.74C70.28 100.06 69.9 100.32 69.49 100.49C69.07 100.66 68.62 100.75 68.17 100.75L4.91 100.75C4.46 100.75 4.01 100.66 3.59 100.49C3.17 100.32 2.79 100.06 2.47 99.74C2.15 99.42 1.9 99.04 1.73 98.62C1.55 98.2 1.46 97.75 1.46 97.3L1.46 5.01C1.46 4.56 1.55 4.11 1.73 3.69C1.9 3.28 2.15 2.89 2.47 2.57C2.79 2.25 3.17 2 3.59 1.83C4.01 1.65 4.46 1.56 4.91 1.56" />
			<path id="Layer" fill-rule="evenodd" class="shp1" d="M5.92 0.99L67.97 0.99C68.5 0.99 69.02 1.09 69.52 1.3C70.01 1.5 70.46 1.8 70.83 2.17C71.21 2.55 71.51 3 71.71 3.49C71.91 3.98 72.02 4.51 72.02 5.04L72.02 96.12C72.02 96.65 71.91 97.18 71.71 97.67C71.51 98.16 71.21 98.61 70.83 98.99C70.46 99.36 70.01 99.66 69.52 99.87C69.02 100.07 68.5 100.17 67.97 100.17L5.92 100.17C5.39 100.17 4.86 100.07 4.37 99.87C3.88 99.66 3.43 99.36 3.06 98.99C2.68 98.61 2.38 98.16 2.18 97.67C1.97 97.18 1.87 96.65 1.87 96.12L1.87 5.04C1.87 4.51 1.97 3.98 2.18 3.49C2.38 3 2.68 2.55 3.06 2.17C3.43 1.8 3.88 1.5 4.37 1.3C4.86 1.09 5.39 0.99 5.92 0.99" />
			<path id="Layer" class="shp2" d="M31.02 96.71L6.18 96.71C6.06 96.71 5.95 96.69 5.85 96.64C5.75 96.6 5.65 96.54 5.57 96.46C5.49 96.38 5.43 96.29 5.39 96.18C5.35 96.08 5.32 95.97 5.32 95.86L5.32 73.28C5.32 73.17 5.35 73.06 5.39 72.96C5.43 72.85 5.49 72.76 5.57 72.68C5.65 72.6 5.75 72.54 5.85 72.5C5.95 72.45 6.06 72.43 6.18 72.43L31.02 72.43C31.13 72.43 31.24 72.45 31.34 72.5C31.45 72.54 31.54 72.6 31.62 72.68C31.7 72.76 31.76 72.85 31.8 72.96C31.85 73.06 31.87 73.17 31.87 73.28L31.87 95.86C31.87 95.97 31.85 96.08 31.8 96.18C31.76 96.29 31.7 96.38 31.62 96.46C31.54 96.54 31.45 96.6 31.34 96.64C31.24 96.69 31.13 96.71 31.02 96.71" />
			<path id="Layer" class="shp3" d="M41.03 4.45L67.53 4.45C67.66 4.45 67.8 4.48 67.92 4.53C68.05 4.58 68.16 4.66 68.26 4.75C68.36 4.85 68.43 4.97 68.48 5.09C68.54 5.22 68.56 5.35 68.56 5.49L68.56 48.69C68.56 48.82 68.54 48.96 68.48 49.08C68.43 49.21 68.36 49.32 68.26 49.42C68.16 49.52 68.05 49.59 67.92 49.64C67.8 49.7 67.66 49.72 67.53 49.72L41.03 49.72C40.89 49.72 40.76 49.7 40.63 49.64C40.5 49.59 40.39 49.52 40.29 49.42C40.2 49.32 40.12 49.21 40.07 49.08C40.02 48.96 39.99 48.82 39.99 48.69L39.99 5.49C39.99 5.35 40.02 5.22 40.07 5.09C40.12 4.97 40.2 4.85 40.29 4.75C40.39 4.66 40.5 4.58 40.63 4.53C40.76 4.48 40.89 4.45 41.03 4.45" />
			<path id="Layer" class="shp4" d="M20.29 92.68L65.01 92.68L65.01 19.08" />
			<path id="Layer" class="shp4" d="M53.44 8.47L8.88 8.47L8.88 81.66" />
			<path id="Layer" class="shp5" d="M59.32 50.58C59.32 72.47 49.3 90.22 36.93 90.22C24.57 90.22 14.55 72.47 14.55 50.58C14.55 28.69 24.57 10.95 36.93 10.95C49.3 10.95 59.32 28.69 59.32 50.58Z" />
		</g>
		<path id="Layer" class="shp6" d="M12.19 85.3C11.64 86.8 10.09 87.67 9.49 88.96C9.15 89.69 9.39 90.54 10.09 90.85C10.71 91.14 11.48 90.89 11.89 90.29C11.89 90.36 11.9 90.42 11.9 90.49C11.9 91.2 11.64 91.83 11.23 92.29L13.14 92.29C12.7 91.83 12.43 91.18 12.43 90.45C12.43 90.37 12.43 90.28 12.44 90.2C12.83 90.86 13.64 91.15 14.3 90.85C14.99 90.54 15.19 89.71 14.9 88.96C14.39 87.65 12.87 86.8 12.19 85.3L12.19 85.3Z" />
		<path id="Layer" fill-rule="evenodd" class="shp7" d="M18.07 89.44C18.07 89.44 18.07 89.44 18.07 89.44C18.07 89.44 18.07 89.44 18.07 89.44L18.07 89.44ZM18.07 89.44C15.77 83.67 14.2 83.84 12.21 83.26L15.18 83.26C15.2 83.16 15.22 83.07 15.24 82.97C15.3 82.72 15.37 82.47 15.44 82.22C15.44 81.89 15.44 81.56 15.44 81.23C15.45 80.52 15.55 79.81 15.65 79.1C15.67 78.92 15.69 78.73 15.72 78.55C15.62 78.47 15.65 77.93 15.9 76.87C15.95 76.66 15.99 76.44 16.04 76.22C16.12 75.72 16.23 75.22 16.34 74.73C16.46 74.14 16.66 73.56 16.84 72.99C17.08 72.3 17.37 71.64 17.66 70.98C18.01 70.16 18.37 69.35 18.72 68.54C19.21 67.44 19.76 66.38 20.3 65.31C20.99 64 21.6 62.65 22.18 61.29C22.88 59.63 23.56 57.98 24.25 56.32C25 54.55 25.71 52.76 26.39 50.97C26.43 50.85 26.47 50.74 26.51 50.62C26.5 50.58 26.49 50.54 26.49 50.5C26.49 50.38 26.56 50.27 26.66 50.21C27.25 48.53 27.8 46.84 28.32 45.13C28.97 42.99 29.53 40.81 29.96 38.61C30.41 36.05 30.52 33.46 30.49 30.87C30.43 28.75 30.21 26.65 29.96 24.55C29.86 24.64 29.73 24.7 29.58 24.7C29.24 24.7 28.97 24.43 28.97 24.1C28.97 23.77 29.24 23.49 29.58 23.49C29.68 23.49 29.77 23.52 29.85 23.56L29.78 23C29.69 22.26 29.58 21.52 29.48 20.78C29.42 20.88 29.31 20.95 29.18 20.95C29 20.95 28.85 20.81 28.85 20.62C28.85 20.44 29 20.29 29.18 20.29C29.27 20.29 29.35 20.32 29.41 20.37C29.31 19.68 29.2 18.98 29.09 18.29C28.93 17.22 28.96 16.57 29.07 16.41C28.97 16.3 28.91 16.15 28.91 15.99C28.91 15.66 29.18 15.39 29.51 15.39C29.85 15.39 30.12 15.66 30.12 15.99C30.12 16.33 29.85 16.6 29.51 16.6C29.44 16.6 29.38 16.58 29.32 16.56C29.44 16.8 29.57 17.26 29.67 17.96C29.92 19.52 30.16 21.09 30.35 22.67C30.67 25.28 30.98 27.9 31.06 30.53C31.09 33.12 30.99 35.72 30.54 38.28C30.11 40.48 29.55 42.65 28.9 44.79C28.33 46.64 27.75 48.49 27.09 50.3C27.14 50.36 27.16 50.43 27.16 50.5C27.16 50.66 27.05 50.79 26.9 50.83C26.25 52.56 25.56 54.28 24.84 55.98C24.15 57.64 23.47 59.3 22.77 60.95C22.19 62.31 21.59 63.65 20.9 64.96C20.36 66.03 19.82 67.1 19.33 68.19C18.98 69 18.61 69.81 18.26 70.62C17.98 71.29 17.7 71.95 17.46 72.64C17.28 73.21 17.08 73.79 16.96 74.38C16.94 74.45 16.93 74.52 16.91 74.59C17.1 74.16 17.29 73.74 17.49 73.32C17.65 73.01 17.81 72.71 17.98 72.4C17.98 72.4 17.98 72.39 17.99 72.38C18.07 72.13 18.2 71.91 18.31 71.68C18.47 71.33 18.69 71 18.89 70.67C19.08 70.35 19.28 70.05 19.5 69.75C20.08 68.75 20.73 67.8 21.41 66.87C21.94 66.14 22.54 65.49 23.17 64.85C23.19 64.71 23.3 64.59 23.45 64.57L23.96 64.05C24.97 63.11 26 62.2 27.01 61.25C28.19 60.14 29.34 58.99 30.49 57.84C31.8 56.53 32.99 55.12 34.11 53.65C35.35 51.94 36.4 50.09 37.4 48.24C37.74 47.64 38.05 47.03 38.34 46.41L38.22 46.42C37.89 46.42 37.62 46.15 37.62 45.81C37.62 45.48 37.89 45.21 38.22 45.21C38.45 45.21 38.64 45.33 38.75 45.52C39.23 44.4 39.67 43.27 40.05 42.12L40.12 41.89C40.08 41.62 40.07 41.22 40.08 40.67C40.11 39.73 40.13 38.8 40.1 37.86C40.05 36.17 39.94 34.49 39.71 32.82C39.53 31.68 39.35 30.53 39.02 29.42C38.85 28.86 38.7 28.29 38.45 27.76C38.36 27.62 38.31 27.45 38.18 27.33C36.26 25.64 36.9 25.25 38.8 26.96C38.93 27.08 38.98 27.26 39.07 27.41C39.32 27.94 39.47 28.51 39.64 29.07C39.96 30.18 40.13 31.33 40.31 32.47C40.53 34.14 40.64 35.83 40.69 37.51C40.71 38.22 40.7 38.94 40.68 39.65C41 38.16 41.24 36.65 41.42 35.14C41.48 34.47 41.51 33.8 41.52 33.13C41.46 33.15 41.39 33.17 41.31 33.17C40.98 33.17 40.7 32.9 40.7 32.56C40.7 32.23 40.98 31.96 41.31 31.96C41.4 31.96 41.47 31.98 41.54 32.01C41.55 30.97 41.53 29.94 41.5 28.9C41.25 28.82 41.07 28.61 41.07 28.34C41.07 28.08 41.23 27.86 41.46 27.77C41.46 27.66 41.45 27.55 41.45 27.44C41.43 27.03 41.42 26.61 41.4 26.19C41.32 23.85 41.89 23.52 41.98 25.86C41.99 26.28 42 26.69 42.02 27.11C42.03 27.36 42.03 27.61 42.04 27.85C42.18 27.97 42.28 28.14 42.28 28.34C42.28 28.52 42.2 28.68 42.08 28.79C42.13 30.79 42.15 32.8 42 34.8C41.71 37.16 41.32 39.51 40.63 41.79C39.93 43.9 39.07 45.96 37.98 47.91C36.98 49.76 35.94 51.6 34.69 53.31C33.58 54.78 32.39 56.19 31.08 57.5C29.94 58.65 28.79 59.8 27.6 60.91C26.6 61.85 25.57 62.76 24.56 63.71C24.26 64.01 23.96 64.31 23.66 64.61C23.73 64.66 23.79 64.73 23.81 64.82C24.57 64.04 25.38 63.31 26.18 62.58L28.99 60.09C29.97 59.21 30.98 58.33 31.97 57.46C33.1 56.48 34.19 55.47 35.27 54.45C36.48 53.29 37.68 52.1 38.85 50.9C40.1 49.65 41.28 48.32 42.43 46.97C43.3 45.93 44.14 44.85 44.95 43.76C44.94 43.72 44.94 43.68 44.94 43.64C44.94 43.32 45.18 43.07 45.48 43.04L46.09 42.2C47.17 40.71 48.15 39.16 49.07 37.57C49.04 37.58 49 37.59 48.96 37.59C48.78 37.59 48.63 37.44 48.63 37.26C48.63 37.07 48.78 36.92 48.96 36.92C49.12 36.92 49.26 37.04 49.29 37.19C49.37 37.04 49.46 36.89 49.55 36.74C50.63 34.73 51.66 32.68 52.34 30.51C52.86 28.6 53.16 26.66 53.47 24.72C53.84 22.38 54.42 22.04 54.04 24.38C53.74 26.32 53.44 28.27 52.92 30.17C52.24 32.35 51.21 34.4 50.14 36.41C49.08 38.29 47.95 40.12 46.68 41.86C46.38 42.27 46.09 42.68 45.79 43.08C46 43.18 46.15 43.39 46.15 43.64C46.15 43.97 45.88 44.24 45.55 44.24C45.36 44.24 45.19 44.16 45.08 44.02C44.41 44.91 43.73 45.78 43.02 46.63C41.87 47.98 40.69 49.31 39.44 50.56C38.87 51.14 38.3 51.72 37.72 52.29C37.89 52.13 38.2 51.85 38.65 51.46C39.76 50.52 40.87 49.6 42.03 48.72C43.11 47.9 44.21 47.12 45.43 46.51C45.53 46.32 45.73 46.18 45.97 46.18C46.03 46.18 46.08 46.18 46.13 46.19C46.31 46.12 46.5 46.07 46.7 46.06C49.12 45.9 48.66 46.23 46.42 46.39C46.51 46.5 46.57 46.63 46.57 46.78C46.57 47.12 46.3 47.39 45.97 47.39C45.64 47.39 45.36 47.12 45.36 46.78C45.36 46.72 45.38 46.66 45.4 46.6L44.9 46.82C44.49 46.98 43.45 47.76 42.63 48.38C41.47 49.26 40.35 50.18 39.24 51.12C38.1 52.09 37.44 52.6 37.56 52.45C37 53.01 36.43 53.56 35.86 54.1C34.78 55.12 33.7 56.14 32.57 57.11C31.58 57.99 30.58 58.86 29.59 59.75C28.66 60.58 27.73 61.41 26.79 62.24C25.93 63.02 25.06 63.8 24.25 64.64C23.53 65.38 22.8 66.11 22.13 66.9C21.61 67.51 21.08 68.13 20.59 68.76L20.07 69.46C20.05 69.51 20.02 69.56 19.99 69.6C19.54 70.38 19.08 71.15 18.65 71.93L18.62 72.02C18.57 72.15 18.53 72.28 18.48 72.4C18.12 73.16 17.82 73.71 17.61 74.02C17.28 74.74 16.99 75.46 16.78 76.22C16.55 77.05 16.34 77.89 16.26 78.75C16.18 79.35 16.1 79.96 16.07 80.57L16.21 80.27C16.54 79.65 16.92 79.08 17.3 78.51C17.61 78.03 17.96 77.58 18.32 77.15C18.25 77.05 18.2 76.92 18.2 76.79C18.2 76.45 18.47 76.18 18.81 76.18C18.92 76.18 19.02 76.21 19.11 76.26C19.69 75.66 20.31 75.1 20.94 74.55C21.74 73.8 22.6 73.11 23.47 72.44C24.5 71.64 25.6 70.93 26.69 70.21C27.94 69.4 29.22 68.62 30.5 67.86L30.8 67.69C30.55 67.62 30.36 67.38 30.36 67.11C30.36 66.77 30.63 66.5 30.97 66.5C31.3 66.5 31.57 66.77 31.57 67.11C31.57 67.44 31.3 67.71 30.97 67.71C30.92 67.71 30.87 67.71 30.82 67.69C29.77 68.33 28.72 68.97 27.69 69.64C26.6 70.35 25.51 71.06 24.48 71.86C23.61 72.53 22.75 73.22 21.95 73.96C21.21 74.62 20.47 75.27 19.81 76L19.36 76.54C19.39 76.61 19.42 76.7 19.42 76.79C19.42 77.12 19.14 77.39 18.81 77.39C18.77 77.39 18.74 77.39 18.7 77.38C18.57 77.56 18.45 77.74 18.33 77.92C17.94 78.49 17.56 79.06 17.24 79.67C17.02 80.14 16.78 80.61 16.64 81.11C16.57 81.34 16.49 81.57 16.42 81.8C16.51 81.86 16.57 81.96 16.57 82.08C16.57 82.25 16.43 82.39 16.26 82.41C16.21 82.71 16.13 83.01 16.14 83.31C16.15 83.49 16.14 83.66 16.18 83.84C16.2 83.94 16.2 84.04 16.23 84.14C16.5 85.35 18.6 88.54 18.07 89.44ZM18.33 84.44C18.33 84.25 18.48 84.1 18.66 84.1C18.84 84.1 18.99 84.25 18.99 84.44C18.99 84.62 18.84 84.77 18.66 84.77C18.48 84.77 18.33 84.62 18.33 84.44ZM13.43 82.47C13.43 82.14 13.69 81.86 14.03 81.86C14.36 81.86 14.64 82.14 14.64 82.47C14.64 82.81 14.36 83.08 14.03 83.08C13.69 83.08 13.43 82.81 13.43 82.47ZM16.69 81.74C16.69 81.41 16.96 81.14 17.29 81.14C17.63 81.14 17.9 81.41 17.9 81.74C17.9 82.08 17.63 82.35 17.29 82.35C16.96 82.35 16.69 82.08 16.69 81.74ZM12.7 80.32C12.7 80.14 12.85 79.99 13.03 79.99C13.21 79.99 13.36 80.14 13.36 80.32C13.36 80.51 13.21 80.65 13.03 80.65C12.85 80.65 12.7 80.51 12.7 80.32ZM14.21 79.78C14.21 79.59 14.36 79.45 14.54 79.45C14.73 79.45 14.88 79.59 14.88 79.78C14.88 79.96 14.73 80.11 14.54 80.11C14.36 80.11 14.21 79.96 14.21 79.78ZM19.66 78.78C19.66 78.45 19.92 78.18 20.26 78.18C20.59 78.18 20.86 78.45 20.86 78.78C20.86 79.11 20.59 79.39 20.26 79.39C19.92 79.39 19.66 79.11 19.66 78.78ZM21.35 78.02C21.35 77.84 21.49 77.69 21.68 77.69C21.86 77.69 22.01 77.84 22.01 78.02C22.01 78.21 21.86 78.36 21.68 78.36C21.49 78.36 21.35 78.21 21.35 78.02ZM12.76 77.09C12.76 76.76 13.03 76.48 13.36 76.48C13.7 76.48 13.97 76.76 13.97 77.09C13.97 77.43 13.7 77.69 13.36 77.69C13.03 77.69 12.76 77.43 12.76 77.09ZM14.15 75.33C14.15 75 14.42 74.73 14.76 74.73C15.09 74.73 15.36 75 15.36 75.33C15.36 75.66 15.09 75.94 14.76 75.94C14.42 75.94 14.15 75.66 14.15 75.33ZM22.26 75.37C22.26 75.18 22.41 75.03 22.59 75.03C22.77 75.03 22.92 75.18 22.92 75.37C22.92 75.55 22.77 75.7 22.59 75.7C22.41 75.7 22.26 75.55 22.26 75.37ZM26.37 74.55C26.37 74.21 26.64 73.95 26.97 73.95C27.31 73.94 27.58 74.21 27.58 74.55C27.58 74.88 27.31 75.15 26.97 75.15C26.64 75.15 26.37 74.88 26.37 74.55ZM19.9 73.82C19.9 73.49 20.17 73.22 20.5 73.22C20.84 73.22 21.11 73.49 21.11 73.82C21.11 74.16 20.84 74.43 20.5 74.43C20.17 74.43 19.9 74.16 19.9 73.82ZM22.87 74.28C22.85 74.27 23.22 73.98 24.09 73.34C24.56 73 25.03 72.63 25.53 72.32C26.65 71.65 27.76 70.98 28.95 70.45C29.8 70.07 30.65 69.69 31.52 69.36C32.13 69.11 32.73 68.87 33.34 68.64L34.12 68.34C36.51 67.42 35.89 67.79 33.5 68.7L32.72 68.99C32.11 69.22 31.51 69.47 30.9 69.71C30.36 69.92 29.84 70.15 29.31 70.38C29.62 70.4 29.88 70.65 29.88 70.98C29.88 71.31 29.61 71.58 29.27 71.58C28.94 71.58 28.67 71.31 28.67 70.98C28.67 70.83 28.72 70.7 28.81 70.59L28.35 70.8C27.68 71.06 26.35 71.85 26.14 71.97C25.63 72.28 25.17 72.65 24.7 73C23.58 73.82 22.9 74.28 22.87 74.28L22.87 74.28ZM13.84 73.03C13.84 72.7 14.12 72.43 14.45 72.43C14.79 72.43 15.06 72.7 15.06 73.03C15.06 73.37 14.79 73.64 14.45 73.64C14.12 73.64 13.84 73.37 13.84 73.03ZM27.33 72.64C27.33 72.46 27.48 72.31 27.67 72.31C27.85 72.31 28 72.46 28 72.64C28 72.83 27.85 72.98 27.67 72.98C27.48 72.98 27.33 72.83 27.33 72.64ZM16.09 71.52C16.09 71.19 16.36 70.92 16.69 70.92C17.03 70.92 17.29 71.19 17.29 71.52C17.29 71.85 17.03 72.13 16.69 72.13C16.36 72.13 16.09 71.85 16.09 71.52ZM19.35 71.34C19.35 71.01 19.63 70.74 19.96 70.74C20.29 70.74 20.56 71.01 20.56 71.34C20.56 71.68 20.29 71.94 19.96 71.94C19.63 71.94 19.35 71.68 19.35 71.34ZM11.43 71.13C11.43 70.95 11.57 70.8 11.76 70.8C11.94 70.8 12.09 70.95 12.09 71.13C12.09 71.31 11.94 71.46 11.76 71.46C11.57 71.46 11.43 71.31 11.43 71.13ZM32.54 69.98C32.54 69.79 32.69 69.65 32.87 69.65C33.05 69.65 33.2 69.8 33.2 69.98C33.2 70.16 33.05 70.31 32.87 70.31C32.69 70.31 32.54 70.16 32.54 69.98ZM25.04 69.65C25.04 69.31 25.31 69.05 25.64 69.05C25.98 69.05 26.25 69.31 26.25 69.65C26.25 69.98 25.98 70.25 25.64 70.25C25.31 70.25 25.04 69.98 25.04 69.65ZM36.32 69.71C36.14 69.71 35.99 69.56 35.99 69.38C35.99 69.31 36.01 69.25 36.04 69.2C35.98 69.22 35.93 69.22 35.87 69.22C35.53 69.22 35.26 68.96 35.26 68.62C35.26 68.29 35.53 68.01 35.87 68.01C36.2 68.01 36.47 68.29 36.47 68.62C36.47 68.79 36.4 68.94 36.29 69.05L36.32 69.05C36.5 69.05 36.65 69.19 36.65 69.38C36.65 69.56 36.5 69.71 36.32 69.71L36.32 69.71ZM37.8 67.71C37.8 67.38 38.07 67.11 38.41 67.11C38.74 67.11 39.01 67.38 39.01 67.71C39.01 68.04 38.74 68.32 38.41 68.32C38.07 68.32 37.8 68.04 37.8 67.71ZM17.17 67.71C17.17 67.38 17.45 67.11 17.78 67.11C18.12 67.11 18.38 67.38 18.38 67.71C18.38 68.04 18.12 68.32 17.78 68.32C17.45 68.32 17.17 68.04 17.17 67.71ZM21.95 67.65C21.95 67.32 22.22 67.04 22.55 67.04C22.89 67.04 23.16 67.32 23.16 67.65C23.16 67.99 22.89 68.25 22.55 68.25C22.22 68.25 21.95 67.99 21.95 67.65ZM39.61 67.86C39.61 67.68 39.76 67.53 39.95 67.53C40.13 67.53 40.28 67.68 40.28 67.86C40.28 68.05 40.13 68.2 39.95 68.2C39.76 68.2 39.61 68.05 39.61 67.86ZM26.61 67.44C26.61 67.26 26.76 67.11 26.95 67.11C27.13 67.11 27.28 67.26 27.28 67.44C27.28 67.62 27.13 67.77 26.95 67.77C26.76 67.77 26.61 67.62 26.61 67.44ZM21.41 67.38C21.41 67.38 21.41 67.38 21.41 67.38C21.41 67.38 21.41 67.38 21.41 67.38L21.41 67.38ZM21.41 67.38C21.45 67.33 21.48 67.29 21.52 67.25C22.12 66.55 22.77 65.88 23.42 65.22C23.33 65.2 23.26 65.15 23.21 65.07C22.79 65.53 22.38 66.01 22.01 66.52C21.81 66.8 21.61 67.09 21.41 67.38ZM32.91 66.46C32.92 66.46 32.93 66.46 32.94 66.45C32.93 66.46 32.92 66.46 32.91 66.46L32.91 66.46ZM32.94 66.45C33.91 65.89 34.88 65.34 35.86 64.8C35.98 64.73 36.17 64.62 36.33 64.53C36.1 64.45 35.92 64.23 35.92 63.96C35.92 63.63 36.2 63.35 36.53 63.35C36.87 63.35 37.13 63.63 37.13 63.96C37.13 64.01 37.13 64.05 37.12 64.1L39.19 62.93C38.5 63.33 37.81 63.72 37.11 64.12C37.04 64.37 36.81 64.56 36.53 64.56C36.47 64.56 36.42 64.56 36.36 64.54C35.87 64.82 35.37 65.09 34.87 65.36C34.17 65.75 33.51 66.12 32.94 66.45ZM40.34 66.05C40.34 65.86 40.49 65.72 40.68 65.72C40.86 65.72 41.01 65.86 41.01 66.05C41.01 66.23 40.86 66.38 40.68 66.38C40.49 66.38 40.34 66.23 40.34 66.05ZM17.53 65.47C17.2 65.47 16.93 65.2 16.93 64.87C16.93 64.53 17.2 64.27 17.53 64.27C17.65 64.27 17.75 64.29 17.84 64.34C17.85 64.17 17.99 64.02 18.17 64.02C18.35 64.02 18.5 64.17 18.5 64.36C18.5 64.54 18.35 64.69 18.17 64.69C18.15 64.69 18.13 64.69 18.11 64.68C18.13 64.74 18.14 64.8 18.14 64.87C18.14 65.2 17.87 65.47 17.53 65.47L17.53 65.47ZM15.24 65.08C15.24 64.9 15.39 64.75 15.57 64.75C15.75 64.75 15.9 64.9 15.9 65.08C15.9 65.26 15.75 65.41 15.57 65.41C15.39 65.41 15.24 65.26 15.24 65.08ZM19.17 62.51C19.17 62.18 19.44 61.9 19.78 61.9C20.11 61.9 20.38 62.18 20.38 62.51C20.38 62.85 20.11 63.11 19.78 63.11C19.44 63.11 19.17 62.85 19.17 62.51ZM45 62.66C45 62.48 45.15 62.33 45.33 62.33C45.52 62.33 45.67 62.48 45.67 62.66C45.67 62.84 45.52 62.99 45.33 62.99C45.15 62.99 45 62.84 45 62.66ZM39.43 62.79L39.45 62.77C39.45 62.78 39.44 62.78 39.43 62.79L39.43 62.79ZM39.45 62.77C40.93 61.91 42.34 60.94 43.7 59.9C44.75 59.1 45.75 58.23 46.71 57.32C46.71 57.31 46.71 57.3 46.71 57.29C46.23 57.7 45.73 58.09 45.24 58.48C43.33 60.01 42.73 60.35 44.63 58.83C45.18 58.39 45.74 57.97 46.26 57.51C46.98 56.88 47.71 56.25 48.42 55.61C49.69 54.26 50.8 52.77 51.85 51.24C53.1 49.46 54.02 47.5 54.77 45.47C55.56 43.27 55.88 40.95 56.05 38.62C56.26 36.54 56.08 34.47 55.82 32.41C55.33 28.55 56.28 28.01 56.77 31.86C57.04 33.93 57.22 35.99 57.01 38.07C56.86 40.09 56.61 42.1 56.02 44.04C56.13 43.94 56.28 43.88 56.43 43.88C56.77 43.88 57.04 44.15 57.04 44.48C57.04 44.82 56.77 45.09 56.43 45.09C56.14 45.09 55.9 44.88 55.84 44.6C55.81 44.71 55.78 44.81 55.74 44.92C54.99 46.94 54.07 48.9 52.82 50.67C52.13 51.68 51.41 52.68 50.63 53.63C51.19 53.13 51.74 52.62 52.28 52.11L52.96 51.41C53.02 51.27 53.12 51.16 53.26 51.09C53.71 50.6 54.13 50.09 54.5 49.52C55.07 48.69 55.63 47.84 56.18 46.99C56.72 46.13 57.26 45.28 57.78 44.41C58.23 43.67 58.69 42.92 59.09 42.14C59.31 41.67 59.54 41.21 59.7 40.72C59.77 40.53 59.82 40.34 59.91 40.16C60.14 39.7 60.34 39.34 60.52 39.04C60.32 38.94 60.18 38.73 60.18 38.5C60.18 38.17 60.44 37.91 60.75 37.89C60.67 37.83 60.61 37.73 60.61 37.62C60.61 37.44 60.75 37.29 60.94 37.29C61.12 37.29 61.27 37.44 61.27 37.62C61.27 37.77 61.17 37.9 61.02 37.94C61.24 38.03 61.39 38.24 61.39 38.5C61.39 38.8 61.17 39.04 60.88 39.09C60.79 39.29 60.68 39.52 60.54 39.8C60.44 39.98 60.39 40.17 60.32 40.35C60.16 40.85 59.92 41.32 59.7 41.79L59.46 42.24C59.57 42.13 59.71 42.07 59.88 42.07C60.21 42.07 60.49 42.33 60.49 42.67C60.49 43 60.21 43.27 59.88 43.27C59.54 43.27 59.28 43 59.28 42.67C59.28 42.63 59.28 42.59 59.29 42.55C59 43.06 58.7 43.56 58.39 44.06C57.87 44.92 57.33 45.78 56.79 46.63C56.24 47.49 55.68 48.33 55.11 49.17C54.67 49.85 54.15 50.45 53.6 51.02C53.9 51.06 54.14 51.32 54.14 51.62C54.14 51.96 53.86 52.23 53.53 52.23C53.22 52.23 52.97 52 52.93 51.71L52.89 51.76C51.93 52.66 50.96 53.53 49.99 54.41L49.94 54.45C49.62 54.81 49.3 55.17 48.96 55.51C48.5 55.97 48.03 56.43 47.55 56.88C47.76 56.97 47.9 57.19 47.9 57.43C47.9 57.76 47.63 58.03 47.3 58.03C47.04 58.03 46.82 57.87 46.73 57.63C46.07 58.22 45.39 58.79 44.68 59.33C43.29 60.39 41.85 61.39 40.34 62.27L39.45 62.77ZM35.75 62.3C35.75 62.12 35.9 61.97 36.08 61.97C36.26 61.97 36.41 62.12 36.41 62.3C36.41 62.48 36.26 62.63 36.08 62.63C35.9 62.63 35.75 62.48 35.75 62.3ZM42.13 62.39L42.07 62.39C41.88 62.39 41.74 62.24 41.74 62.05C41.74 61.87 41.88 61.72 42.07 61.72C42.25 61.72 42.4 61.87 42.4 62.05C42.4 62.21 42.28 62.35 42.13 62.39ZM28.13 61.6C28.13 61.27 28.39 61 28.73 61C29.06 61 29.33 61.27 29.33 61.6C29.33 61.93 29.06 62.21 28.73 62.21C28.39 62.21 28.13 61.93 28.13 61.6ZM30.24 61.69C30.24 61.51 30.39 61.36 30.57 61.36C30.76 61.36 30.9 61.51 30.9 61.69C30.9 61.88 30.76 62.02 30.57 62.02C30.39 62.02 30.24 61.88 30.24 61.69ZM39.01 60.18C39.01 60 39.16 59.85 39.35 59.85C39.53 59.85 39.68 60 39.68 60.18C39.68 60.36 39.53 60.51 39.35 60.51C39.16 60.51 39.01 60.36 39.01 60.18ZM41.74 59.73C41.74 59.39 42 59.12 42.34 59.12C42.67 59.12 42.94 59.39 42.94 59.73C42.94 60.06 42.67 60.34 42.34 60.34C42 60.34 41.74 60.06 41.74 59.73ZM20.38 59.49C20.38 59.15 20.65 58.88 20.99 58.88C21.32 58.88 21.59 59.15 21.59 59.49C21.59 59.82 21.32 60.09 20.99 60.09C20.65 60.09 20.38 59.82 20.38 59.49ZM49.29 59.15C49.29 58.97 49.44 58.82 49.63 58.82C49.81 58.82 49.96 58.97 49.96 59.15C49.96 59.34 49.81 59.49 49.63 59.49C49.44 59.49 49.29 59.34 49.29 59.15ZM27.7 58.76C27.7 58.42 27.97 58.16 28.3 58.16C28.64 58.16 28.91 58.42 28.91 58.76C28.91 59.09 28.64 59.37 28.3 59.37C27.97 59.37 27.7 59.09 27.7 58.76ZM18.93 58C18.93 57.82 19.08 57.67 19.26 57.67C19.44 57.67 19.59 57.82 19.59 58C19.59 58.19 19.44 58.33 19.26 58.33C19.08 58.33 18.93 58.19 18.93 58ZM43.07 57.67C43.07 57.34 43.33 57.07 43.67 57.07C44 57.07 44.27 57.34 44.27 57.67C44.27 58 44 58.28 43.67 58.28C43.33 58.28 43.06 58 43.07 57.67ZM21.95 57.67C21.62 57.67 21.35 57.4 21.35 57.07C21.35 56.84 21.48 56.64 21.67 56.54C21.66 56.5 21.65 56.47 21.65 56.43C21.65 56.25 21.8 56.1 21.98 56.1C22.17 56.1 22.31 56.25 22.31 56.43C22.31 56.48 22.31 56.53 22.29 56.57C22.45 56.68 22.55 56.86 22.55 57.07C22.55 57.4 22.29 57.67 21.95 57.67L21.95 57.67ZM34.41 56.52C34.41 56.19 34.69 55.92 35.02 55.92C35.35 55.92 35.62 56.19 35.62 56.52C35.62 56.86 35.35 57.13 35.02 57.13C34.69 57.13 34.41 56.86 34.41 56.52ZM23.88 56.91C23.75 56.92 23.73 56.4 23.94 55.3C24.18 54.03 24.41 52.76 24.55 51.48C24.71 49.9 24.8 48.32 24.75 46.73C24.68 45.55 24.61 44.36 24.4 43.19C24.27 42.4 24.15 41.6 23.94 40.83C23.85 40.53 23.79 40.22 23.66 39.94C22.57 37.62 23.23 37.24 24.28 39.58C24.41 39.87 24.47 40.17 24.56 40.47C24.76 41.25 24.88 42.04 25.01 42.84C25.21 44.01 25.29 45.2 25.35 46.39C25.4 47.98 25.3 49.56 25.14 51.14C24.99 52.43 24.77 53.69 24.53 54.96C24.29 56.21 24.02 56.89 23.88 56.91L23.88 56.91ZM36.47 56.55C36.47 56.37 36.62 56.22 36.8 56.22C36.98 56.22 37.13 56.37 37.13 56.55C37.13 56.74 36.98 56.88 36.8 56.88C36.62 56.88 36.47 56.74 36.47 56.55ZM26.55 56.31C26.55 56.13 26.7 55.98 26.88 55.98C27.07 55.98 27.21 56.13 27.21 56.31C27.21 56.5 27.07 56.64 26.88 56.64C26.7 56.64 26.55 56.5 26.55 56.31ZM30.24 54.95C30.24 54.61 30.51 54.35 30.85 54.35C31.18 54.35 31.45 54.61 31.45 54.95C31.45 55.28 31.18 55.56 30.85 55.56C30.51 55.56 30.24 55.28 30.24 54.95ZM47.12 54.47C47.12 54.13 47.39 53.86 47.72 53.86C48.06 53.86 48.33 54.13 48.33 54.47C48.33 54.8 48.06 55.07 47.72 55.07C47.39 55.07 47.12 54.8 47.12 54.47ZM54.19 53.34C54.19 53.16 54.34 53.01 54.53 53.01C54.71 53.01 54.86 53.16 54.86 53.34C54.86 53.53 54.71 53.67 54.53 53.67C54.34 53.67 54.19 53.53 54.19 53.34ZM42.4 50.23C42.4 49.9 42.67 49.62 43 49.62C43.34 49.62 43.61 49.9 43.61 50.23C43.61 50.57 43.34 50.83 43 50.83C42.67 50.83 42.4 50.57 42.4 50.23ZM49.11 49.53C49.11 49.35 49.26 49.2 49.44 49.2C49.63 49.2 49.78 49.35 49.78 49.53C49.78 49.72 49.63 49.86 49.44 49.86C49.26 49.86 49.11 49.72 49.11 49.53ZM19.42 48.84C19.42 48.51 19.68 48.23 20.02 48.23C20.35 48.23 20.62 48.51 20.62 48.84C20.62 49.17 20.35 49.45 20.02 49.45C19.68 49.45 19.42 49.17 19.42 48.84ZM34.72 48.6C34.72 48.26 34.99 47.99 35.32 47.99C35.66 47.99 35.92 48.26 35.92 48.6C35.92 48.93 35.66 49.2 35.32 49.2C34.99 49.2 34.72 48.93 34.72 48.6ZM58.31 48.15C58.31 47.96 58.46 47.81 58.64 47.81C58.82 47.81 58.97 47.96 58.97 48.15C58.97 48.33 58.82 48.48 58.64 48.48C58.46 48.48 58.31 48.33 58.31 48.15ZM57.28 47.39C57.28 47.06 57.55 46.78 57.88 46.78C58.22 46.78 58.49 47.06 58.49 47.39C58.49 47.72 58.22 47.99 57.88 47.99C57.55 47.99 57.28 47.72 57.28 47.39ZM38.47 47.21C38.47 46.87 38.74 46.6 39.07 46.6C39.4 46.6 39.68 46.87 39.68 47.21C39.68 47.54 39.4 47.81 39.07 47.81C38.74 47.81 38.47 47.54 38.47 47.21ZM28.49 46.54C28.49 46.21 28.75 45.93 29.09 45.93C29.42 45.93 29.7 46.21 29.7 46.54C29.7 46.88 29.42 47.14 29.09 47.14C28.75 47.14 28.49 46.88 28.49 46.54ZM22.43 44.21C22.43 44.02 22.58 43.88 22.77 43.88C22.95 43.88 23.1 44.02 23.1 44.21C23.1 44.39 22.95 44.55 22.77 44.55C22.58 44.55 22.43 44.39 22.43 44.21ZM25.64 43.82C25.64 43.49 25.91 43.21 26.25 43.21C26.58 43.21 26.85 43.49 26.85 43.82C26.85 44.15 26.58 44.42 26.25 44.42C25.91 44.42 25.64 44.15 25.64 43.82ZM52.32 43.64C52.32 43.3 52.59 43.03 52.92 43.03C53.25 43.03 53.53 43.3 53.53 43.64C53.53 43.97 53.25 44.24 52.92 44.24C52.59 44.24 52.32 43.97 52.32 43.64ZM29.63 43.3C29.63 43.12 29.79 42.97 29.97 42.97C30.15 42.97 30.3 43.12 30.3 43.3C30.3 43.49 30.15 43.64 29.97 43.64C29.79 43.64 29.63 43.49 29.63 43.3ZM37.74 40.49C37.74 40.16 38.02 39.89 38.35 39.89C38.68 39.89 38.95 40.16 38.95 40.49C38.95 40.82 38.68 41.1 38.35 41.1C38.02 41.1 37.74 40.82 37.74 40.49ZM44.88 40.43C44.88 40.1 45.15 39.82 45.48 39.82C45.82 39.82 46.09 40.1 46.09 40.43C46.09 40.77 45.82 41.03 45.48 41.03C45.15 41.03 44.88 40.77 44.88 40.43ZM57.46 39.77C57.46 39.43 57.73 39.16 58.07 39.16C58.4 39.16 58.67 39.43 58.67 39.77C58.67 40.1 58.4 40.37 58.07 40.37C57.73 40.37 57.46 40.1 57.46 39.77ZM27.21 39.28C27.21 38.95 27.49 38.68 27.82 38.68C28.16 38.68 28.42 38.95 28.42 39.28C28.42 39.61 28.16 39.89 27.82 39.89C27.49 39.89 27.21 39.61 27.21 39.28ZM42.58 39.22C42.58 38.89 42.85 38.62 43.19 38.62C43.52 38.62 43.79 38.89 43.79 39.22C43.79 39.56 43.52 39.82 43.19 39.82C42.85 39.82 42.58 39.56 42.58 39.22ZM30.72 38.16C30.72 37.98 30.88 37.83 31.06 37.83C31.24 37.83 31.39 37.98 31.39 38.16C31.39 38.35 31.24 38.5 31.06 38.5C30.88 38.5 30.72 38.35 30.72 38.16ZM22.01 37.19C22.01 37.01 22.16 36.86 22.34 36.86C22.53 36.86 22.68 37.01 22.68 37.19C22.68 37.38 22.53 37.53 22.34 37.53C22.16 37.53 22.01 37.38 22.01 37.19ZM43.97 37.07C43.97 36.89 44.12 36.74 44.3 36.74C44.49 36.74 44.63 36.89 44.63 37.07C44.63 37.26 44.49 37.41 44.3 37.41C44.12 37.41 43.97 37.26 43.97 37.07ZM53.41 36.25C53.41 35.92 53.68 35.65 54.01 35.65C54.34 35.65 54.62 35.92 54.62 36.25C54.62 36.59 54.34 36.86 54.01 36.86C53.68 36.86 53.41 36.59 53.41 36.25ZM37.62 36.29C37.62 36.11 37.77 35.96 37.95 35.96C38.14 35.96 38.29 36.11 38.29 36.29C38.29 36.47 38.14 36.62 37.95 36.62C37.77 36.62 37.62 36.47 37.62 36.29ZM61.39 35.75C61.39 35.56 61.54 35.41 61.72 35.41C61.91 35.41 62.06 35.56 62.06 35.75C62.06 35.93 61.91 36.08 61.72 36.08C61.54 36.08 61.39 35.93 61.39 35.75ZM38.1 35.35C38.1 35.02 38.38 34.74 38.71 34.74C39.04 34.74 39.31 35.02 39.31 35.35C39.31 35.68 39.04 35.96 38.71 35.96C38.38 35.96 38.1 35.68 38.1 35.35ZM47.78 35.17C47.78 34.83 48.05 34.56 48.39 34.56C48.72 34.56 48.99 34.83 48.99 35.17C48.99 35.5 48.72 35.77 48.39 35.77C48.05 35.77 47.78 35.5 47.78 35.17ZM52.2 34.59C52.2 34.41 52.35 34.26 52.53 34.26C52.72 34.26 52.86 34.41 52.86 34.59C52.86 34.78 52.72 34.93 52.53 34.93C52.35 34.93 52.2 34.78 52.2 34.59ZM60.97 34.14C60.97 33.81 61.24 33.53 61.57 33.53C61.91 33.53 62.18 33.81 62.18 34.14C62.18 34.47 61.91 34.74 61.57 34.74C61.24 34.74 60.97 34.47 60.97 34.14ZM29.48 34.74C29.3 34.74 29.15 34.59 29.15 34.41C29.15 34.23 29.3 34.08 29.48 34.08C29.67 34.08 29.82 34.23 29.82 34.41C29.82 34.57 29.71 34.71 29.55 34.74L29.48 34.74ZM57.04 33.45C57.04 33.26 57.18 33.11 57.37 33.11C57.55 33.11 57.7 33.26 57.7 33.45C57.7 33.63 57.55 33.78 57.37 33.78C57.18 33.78 57.04 33.63 57.04 33.45ZM32.54 32.56C32.54 32.23 32.81 31.96 33.15 31.96C33.48 31.96 33.75 32.23 33.75 32.56C33.75 32.9 33.48 33.17 33.15 33.17C32.81 33.17 32.54 32.9 32.54 32.56ZM53.29 32.36C53.29 32.17 53.44 32.02 53.62 32.02C53.8 32.02 53.95 32.17 53.95 32.36C53.95 32.54 53.8 32.69 53.62 32.69C53.44 32.69 53.29 32.54 53.29 32.36ZM43.67 31.84C43.33 31.84 43.06 31.57 43.07 31.23C43.07 30.9 43.33 30.63 43.67 30.63C43.84 30.63 43.99 30.7 44.1 30.82C44.14 30.68 44.27 30.57 44.42 30.57C44.61 30.57 44.75 30.72 44.75 30.9C44.75 31.09 44.61 31.23 44.42 31.23C44.37 31.23 44.31 31.22 44.27 31.2C44.27 31.21 44.27 31.22 44.27 31.23C44.27 31.57 44 31.84 43.67 31.84ZM49.84 30.78C49.84 30.6 49.99 30.45 50.17 30.45C50.35 30.45 50.5 30.6 50.5 30.78C50.5 30.97 50.35 31.11 50.17 31.11C49.99 31.11 49.84 30.97 49.84 30.78ZM60.13 30.66C60.13 30.48 60.27 30.33 60.46 30.33C60.64 30.33 60.79 30.48 60.79 30.66C60.79 30.85 60.64 30.99 60.46 30.99C60.27 30.99 60.13 30.85 60.13 30.66ZM57.28 30.33C57.28 30 57.55 29.72 57.88 29.72C58.22 29.72 58.49 30 58.49 30.33C58.49 30.66 58.22 30.93 57.88 30.93C57.55 30.93 57.28 30.66 57.28 30.33ZM31.99 30.15C31.99 29.81 32.27 29.54 32.6 29.54C32.94 29.54 33.2 29.81 33.2 30.15C33.2 30.48 32.94 30.75 32.6 30.75C32.27 30.75 31.99 30.48 31.99 30.15ZM37.74 30.09C37.52 30.09 37.33 29.96 37.23 29.79C37.14 29.73 37.08 29.62 37.08 29.51C37.08 29.42 37.12 29.34 37.18 29.28C37.26 29.04 37.48 28.88 37.74 28.88C38.08 28.88 38.35 29.15 38.35 29.48C38.35 29.82 38.08 30.09 37.74 30.09L37.74 30.09ZM50.69 28.94C50.69 28.6 50.95 28.34 51.29 28.34C51.62 28.34 51.9 28.6 51.9 28.94C51.9 29.27 51.62 29.54 51.29 29.54C50.95 29.54 50.69 29.27 50.69 28.94ZM28.37 28.34C28.37 28 28.63 27.73 28.97 27.73C29.3 27.73 29.58 28 29.58 28.34C29.58 28.67 29.3 28.94 28.97 28.94C28.63 28.94 28.37 28.67 28.37 28.34ZM38.83 26.73C38.83 26.55 38.98 26.4 39.16 26.4C39.35 26.4 39.49 26.55 39.49 26.73C39.49 26.91 39.35 27.06 39.16 27.06C38.98 27.06 38.83 26.91 38.83 26.73ZM59.21 26.61C59.21 26.43 59.36 26.28 59.55 26.28C59.73 26.28 59.88 26.43 59.88 26.61C59.88 26.79 59.73 26.94 59.55 26.94C59.36 26.94 59.21 26.79 59.21 26.61ZM31.57 26.55C31.57 26.36 31.72 26.21 31.9 26.21C32.08 26.21 32.23 26.36 32.23 26.55C32.23 26.73 32.08 26.88 31.9 26.88C31.72 26.88 31.57 26.73 31.57 26.55ZM54.98 25.15C54.98 24.97 55.13 24.82 55.31 24.82C55.49 24.82 55.64 24.97 55.64 25.15C55.64 25.34 55.49 25.49 55.31 25.49C55.13 25.49 54.98 25.34 54.98 25.15ZM56.01 24.4C56.01 24.06 56.28 23.8 56.61 23.8C56.95 23.8 57.22 24.06 57.22 24.4C57.22 24.73 56.95 25.01 56.61 25.01C56.28 25.01 56.01 24.73 56.01 24.4ZM34.53 23.95C34.53 23.76 34.69 23.61 34.87 23.61C35.05 23.61 35.2 23.76 35.2 23.95C35.2 24.13 35.05 24.28 34.87 24.28C34.69 24.28 34.53 24.13 34.53 23.95ZM37.01 23.44C37.01 23.1 37.29 22.83 37.62 22.83C37.95 22.83 38.22 23.1 38.22 23.44C38.22 23.77 37.96 24.04 37.62 24.04C37.29 24.04 37.01 23.77 37.01 23.44ZM31.81 22.47C31.81 22.13 32.08 21.86 32.42 21.86C32.75 21.86 33.03 22.13 33.03 22.47C33.03 22.8 32.75 23.07 32.42 23.07C32.08 23.07 31.81 22.8 31.81 22.47ZM49.53 22.55C49.53 22.37 49.68 22.22 49.87 22.22C50.05 22.22 50.2 22.37 50.2 22.55C50.2 22.74 50.05 22.89 49.87 22.89C49.68 22.89 49.53 22.74 49.53 22.55ZM41.43 22.22C41.43 21.89 41.7 21.62 42.03 21.62C42.37 21.62 42.64 21.89 42.64 22.22C42.64 22.55 42.37 22.83 42.03 22.83C41.7 22.83 41.43 22.55 41.43 22.22ZM52.14 21.89C52.14 21.7 52.28 21.56 52.47 21.56C52.65 21.56 52.8 21.7 52.8 21.89C52.8 22.07 52.65 22.22 52.47 22.22C52.28 22.22 52.14 22.07 52.14 21.89ZM40.46 20.5C40.46 20.32 40.61 20.17 40.8 20.17C40.98 20.17 41.13 20.32 41.13 20.5C41.13 20.69 40.98 20.83 40.8 20.83C40.61 20.83 40.46 20.69 40.46 20.5ZM27.21 20.04C27.21 19.71 27.49 19.44 27.82 19.44C28.16 19.44 28.42 19.71 28.42 20.04C28.42 20.38 28.16 20.65 27.82 20.65C27.49 20.65 27.21 20.38 27.21 20.04ZM50.26 18.87C50.26 18.69 50.41 18.54 50.59 18.54C50.78 18.54 50.93 18.69 50.93 18.87C50.93 19.05 50.78 19.2 50.59 19.2C50.41 19.2 50.26 19.05 50.26 18.87ZM52.14 18.17C52.14 17.84 52.41 17.57 52.74 17.57C53.08 17.57 53.34 17.84 53.34 18.17C53.34 18.5 53.08 18.78 52.74 18.78C52.41 18.78 52.14 18.5 52.14 18.17ZM26.67 17.53C26.67 17.35 26.82 17.2 27 17.2C27.19 17.2 27.33 17.35 27.33 17.53C27.33 17.72 27.19 17.87 27 17.87C26.82 17.87 26.67 17.72 26.67 17.53ZM52.44 16.27C52.44 16.08 52.59 15.93 52.77 15.93C52.96 15.93 53.1 16.08 53.1 16.27C53.1 16.45 52.96 16.6 52.77 16.6C52.59 16.6 52.44 16.45 52.44 16.27ZM35.8 15.36C35.8 15.17 35.95 15.02 36.14 15.02C36.32 15.02 36.47 15.17 36.47 15.36C36.47 15.54 36.32 15.69 36.14 15.69C35.95 15.69 35.8 15.54 35.8 15.36ZM27.28 13.72C27.28 13.54 27.43 13.39 27.61 13.39C27.79 13.39 27.94 13.54 27.94 13.72C27.94 13.91 27.79 14.05 27.61 14.05C27.43 14.05 27.28 13.91 27.28 13.72ZM28.97 12.51C28.97 12.33 29.12 12.18 29.3 12.18C29.48 12.18 29.63 12.33 29.63 12.51C29.63 12.7 29.48 12.85 29.3 12.85C29.12 12.85 28.97 12.7 28.97 12.51Z" />
		<path id="Layer" fill-rule="evenodd" class="shp8" d="M28.94 17.76C29.75 17.75 30.66 17.86 31.59 18.05C32.09 17.85 32.64 17.76 33.03 17.76C33.86 17.75 34.87 18.11 35.78 18.58C35.99 18 36.37 17.77 36.61 17.76C37.04 17.74 37.59 18.49 38 19.24C38.17 19.09 38.39 19 38.63 19C38.87 19 39.1 19.09 39.26 19.24C39.65 18.51 40.19 17.79 40.61 17.76C40.86 17.74 41.27 17.96 41.49 18.58C42.35 18.13 43.3 17.78 44.1 17.76C44.54 17.74 45.16 17.83 45.7 18.04C46.53 17.88 47.35 17.77 48.1 17.76C49.7 17.73 50.96 18.13 51.31 19.28C52.24 22.42 49.7 23.84 47 25.39L47.21 25.39C47.64 25.39 47.99 25.73 47.99 26.16L47.99 27.67C47.99 28.05 47.71 28.37 47.34 28.43C49.02 29.28 49.91 30.22 49.81 30.91C49.69 31.75 49.45 32.11 49.17 31.95C49.81 33.25 50.06 33.8 50.23 34.56C50.4 35.32 50.4 35.58 50.86 36.67C51.32 37.77 51.54 38.53 51.54 39.29C51.54 40.05 51.24 40.22 51.87 41.02C52.51 41.82 52.97 42.79 53.35 43.55C53.73 44.31 54.07 45.07 54.19 45.54C54.32 46 54.11 46.34 53.94 46.55C53.77 46.76 53.06 47.1 52.68 47.14C52.3 47.18 51.58 47.01 51.45 47.35C51.33 47.69 51.54 48.03 51.37 48.66C51.2 49.29 50.86 49.46 50.86 49.46C50.86 49.46 51.24 49.63 51.33 50.01C51.41 50.39 51.37 50.68 51.2 50.81C51.03 50.94 50.82 51.23 50.82 51.4C50.82 51.57 50.74 51.61 50.9 51.91C51.07 52.2 51.83 53.6 51.37 54.69C50.9 55.79 49.81 56 48.88 56.13C47.95 56.26 46.3 56.76 45.37 57.1C44.45 57.44 44.02 57.61 43.69 58.28C43.35 58.96 42.63 59.88 42.38 60.05C42.12 60.22 41.7 60.56 41.91 60.81C42.13 61.07 43.18 62.21 43.43 62.54C43.69 62.88 44.53 63.73 44.53 63.94C44.53 64.15 44.02 64.53 44.07 64.91C44.11 65.29 44.53 65.16 43.56 67.65C42.59 70.14 42.17 71.03 42.46 71.62C42.76 72.21 45.28 78.19 46.11 80.69C46.95 83.2 41.34 84.75 39.19 83.32C37.04 81.89 28.68 66.25 23.67 65.06C18.66 63.86 19.13 62.55 19.73 61.6C20.33 60.64 21.64 58.97 22.71 58.49C23.79 58.01 24.98 58.13 24.86 57.54C24.74 56.94 25.82 56.22 26.06 55.63C26.3 55.03 26.29 53.83 27.37 53.72C28.44 53.6 28.68 52.64 28.56 52.04C28.45 51.45 27.25 47.39 25.7 43.33C24.15 39.27 24.74 35.21 27.61 30.8C28.24 29.83 29 29.05 29.84 28.44C29.43 28.42 29.1 28.08 29.1 27.67L29.1 26.16C29.1 25.73 29.45 25.39 29.87 25.39L30.26 25.39C27.57 23.84 25.02 22.42 25.95 19.28C26.28 18.18 27.45 17.77 28.94 17.76L28.94 17.76ZM30.58 18.75C30.04 18.77 29.5 18.85 29.01 19C26.2 19.86 29.26 23.61 30.93 25.39L33.32 25.39C31.64 23.86 29.86 22.19 30.35 19.28C30.39 19.09 30.47 18.91 30.58 18.75L30.58 18.75ZM34.24 18.75C34.74 18.92 35.21 19.09 35.64 19.26C35.65 19.2 35.65 19.15 35.66 19.1C35.19 18.91 34.71 18.78 34.24 18.75ZM43.02 18.75C43.02 18.75 43.02 18.75 43.02 18.75C43.02 18.75 43.02 18.75 43.02 18.75L43.02 18.75ZM43.02 18.75C42.55 18.78 42.07 18.91 41.61 19.1C41.61 19.15 41.62 19.2 41.62 19.26C42.06 19.09 42.53 18.92 43.02 18.75ZM46.69 18.75C46.8 18.91 46.87 19.09 46.91 19.28C47.41 22.19 45.62 23.86 43.94 25.39L46.33 25.39C48 23.61 51.07 19.86 48.26 19C47.76 18.85 47.23 18.77 46.69 18.75L46.69 18.75ZM44.2 19C43.29 19.19 42.41 19.47 41.64 19.73C41.73 22.25 41.18 23.92 40.64 25.39L43.25 25.39C44.23 23.4 45.72 19.83 44.2 19ZM34.01 25.39L36.63 25.39C36.08 23.92 35.53 22.25 35.62 19.73C34.85 19.46 33.97 19.2 33.06 19.01C31.55 19.84 33.03 23.4 34.01 25.39ZM40.32 19.76C40.14 19.87 39.97 19.98 39.82 20.08C39.98 19.99 40.17 19.89 40.38 19.79L40.32 19.76ZM37.18 19.94L37.44 20.08L37.2 19.92L37.18 19.94ZM40.67 20.09C40.67 20.09 40.67 20.09 40.67 20.09C40.67 20.09 40.67 20.09 40.67 20.09L40.67 20.09ZM40.67 20.09C40.06 20.32 39.58 20.52 39.33 20.6C39.15 20.79 38.91 20.91 38.63 20.91C38.35 20.91 38.11 20.79 37.93 20.6C37.73 20.53 37.39 20.4 36.95 20.23C36.51 21.08 36.76 23.67 36.98 25.39L40.39 25.39C40.73 23.61 41.14 20.9 40.67 20.09Z" />
		<path id="Layer" class="shp9" d="M61.08 9.2L61.38 9.21C61.73 9.23 61.87 9.32 61.87 9.56C61.87 9.81 61.6 10.16 60.96 10.75L58.91 12.62L58.91 10.24C58.91 9.39 59.04 9.27 59.98 9.2L59.98 8.97L56.68 8.97L56.68 9.2C57.59 9.27 57.73 9.42 57.73 10.24L57.73 15.26C57.73 16.23 57.6 16.38 56.68 16.44L56.68 16.66L59.95 16.66L59.95 16.44C59.05 16.38 58.91 16.24 58.91 15.39L58.91 13.22L59.21 12.98L60.44 14.2C61.32 15.07 61.95 15.89 61.95 16.17C61.95 16.33 61.79 16.41 61.46 16.42C61.4 16.42 61.28 16.42 61.14 16.44L61.14 16.66L64.68 16.66L64.68 16.44C64.07 16.42 63.91 16.31 62.85 15.18L60.15 12.28L62.36 10.1C63.14 9.35 63.33 9.25 64.12 9.2L64.12 8.97L61.08 8.97L61.08 9.2" />
		<path id="Layer" class="shp10" d="M17.93 9.68C16.77 12.79 13.55 14.61 12.32 17.27C11.61 18.8 12.11 20.55 13.55 21.2C14.86 21.79 16.44 21.27 17.3 20.04C17.3 20.18 17.31 20.32 17.31 20.46C17.31 21.92 16.78 23.24 15.92 24.2L19.89 24.2C18.98 23.24 18.42 21.88 18.42 20.37C18.42 20.2 18.42 20.03 18.44 19.86C19.26 21.22 20.93 21.82 22.3 21.2C23.74 20.55 24.14 18.83 23.53 17.27C22.48 14.57 19.33 12.8 17.93 9.68L17.93 9.68Z" />
	</g>
</svg>