<svg xmlns="http://www.w3.org/2000/svg" viewBox="0 0 72 102" width="72" height="102">
	<defs>
		<filter x="-50%" y="-50%" width="200%" height="200%" id="flt1"> <feGaussianBlur stdDeviation="0.85" /> </filter>
		<linearGradient id="grd1" gradientUnits="userSpaceOnUse"  x1="40.852" y1="26.385" x2="42.997" y2="-89.997">
			<stop offset="0" stop-color="#f3f3f3"  />
			<stop offset="1" stop-color="#8f8f8f"  />
		</linearGradient>
		<radialGradient id="grd2" gradientUnits="userSpaceOnUse"  cx="10.15" cy="91.687" r="13.273">
			<stop offset="0" stop-color="#ffffff"  />
			<stop offset="1" stop-color="#ffffff" stop-opacity="0" />
		</radialGradient>
		<radialGradient id="grd3" gradientUnits="userSpaceOnUse"  cx="61.727" cy="12.545" r="14.287">
			<stop offset="0" stop-color="#ffffff"  />
			<stop offset="1" stop-color="#ffffff" stop-opacity="0" />
		</radialGradient>
		<linearGradient id="grd4" gradientUnits="userSpaceOnUse"  x1="-7.156" y1="90.43" x2="-7.156" y2="87.25">
			<stop offset="0" stop-color="#000000"  />
			<stop offset="1" stop-color="#555753"  />
		</linearGradient>
		<linearGradient id="grd5" gradientUnits="userSpaceOnUse"  x1="-7.156" y1="14.21" x2="-7.156" y2="8.4">
			<stop offset="0" stop-color="#000000"  />
			<stop offset="1" stop-color="#555753"  />
		</linearGradient>
		<radialGradient id="grd6" gradientUnits="userSpaceOnUse"  cx="17.586" cy="73.826" r="25.374">
			<stop offset="0" stop-color="#000000"  />
			<stop offset="1" stop-color="#000000" stop-opacity="0" />
		</radialGradient>
		<radialGradient id="grd7" gradientUnits="userSpaceOnUse"  cx="36.216" cy="50.803" r="16.11">
			<stop offset="0" stop-color="#ffffff"  />
			<stop offset="1" stop-color="#ffffff" stop-opacity="0" />
		</radialGradient>
		<linearGradient id="grd8" gradientUnits="userSpaceOnUse"  x1="-776.786" y1="56.238" x2="-776.786" y2="45.39">
			<stop offset="0" stop-color="#000000"  />
			<stop offset="1" stop-color="#6f6f6f"  />
		</linearGradient>
	</defs>
	<style>
		tspan { white-space:pre }
		.shp0 { filter: url(#flt1);fill: #000000 } 
		.shp1 { fill: url(#grd1);stroke: #000000;stroke-width: 0.226 } 
		.shp2 { opacity: 0.31;fill: url(#grd2) } 
		.shp3 { opacity: 0.318;fill: url(#grd3) } 
		.shp4 { fill: none;stroke: #000000;stroke-width: 0.226 } 
		.shp5 { fill: url(#grd4);stroke: #1b1b1b;stroke-linejoin:round;stroke-width: 0.177 } 
		.shp6 { fill: url(#grd5) } 
		.shp7 { fill: url(#grd6) } 
		.shp8 { opacity: 0.4;fill: url(#grd7) } 
		.shp9 { fill: url(#grd8);stroke: #161616;stroke-linejoin:round;stroke-width: 0.604 } 
	</style>
	<g id="-e-Spade1">
		<g id="Layer">
			<path id="Layer" fill-rule="evenodd" class="shp0" d="M4.42 1.56L67.5 1.56C67.96 1.56 68.42 1.66 68.85 1.83C69.28 2.01 69.67 2.27 70 2.6C70.32 2.93 70.58 3.32 70.76 3.75C70.94 4.18 71.03 4.64 71.03 5.1L71.03 97.21C71.03 97.68 70.94 98.14 70.76 98.57C70.58 99 70.32 99.39 70 99.71C69.67 100.04 69.28 100.3 68.85 100.48C68.42 100.66 67.96 100.75 67.5 100.75L4.42 100.75C3.95 100.75 3.49 100.66 3.06 100.48C2.63 100.3 2.24 100.04 1.92 99.71C1.59 99.39 1.33 99 1.15 98.57C0.97 98.14 0.88 97.68 0.88 97.21L0.88 5.1C0.88 4.64 0.97 4.18 1.15 3.75C1.33 3.32 1.59 2.93 1.92 2.6C2.24 2.27 2.63 2.01 3.06 1.83C3.49 1.66 3.95 1.56 4.42 1.56" />
			<path id="Layer" fill-rule="evenodd" class="shp1" d="M5.34 0.99L67.38 0.99C67.91 0.99 68.44 1.09 68.93 1.3C69.43 1.5 69.87 1.8 70.25 2.17C70.62 2.55 70.92 3 71.13 3.49C71.33 3.98 71.44 4.51 71.44 5.04L71.44 96.12C71.44 96.65 71.33 97.18 71.13 97.67C70.92 98.16 70.62 98.61 70.25 98.99C69.87 99.36 69.43 99.66 68.93 99.86C68.44 100.07 67.91 100.17 67.38 100.17L5.34 100.17C4.81 100.17 4.28 100.07 3.79 99.86C3.29 99.66 2.85 99.36 2.47 98.99C2.09 98.61 1.8 98.16 1.59 97.67C1.39 97.18 1.28 96.65 1.28 96.12L1.28 5.04C1.28 4.51 1.39 3.98 1.59 3.49C1.8 3 2.09 2.55 2.47 2.17C2.85 1.8 3.29 1.5 3.79 1.3C4.28 1.09 4.81 0.99 5.34 0.99" />
			<path id="Layer" class="shp2" d="M31.53 96.75L4.98 96.75L4.98 72.47L31.53 72.47L31.53 96.75Z" />
			<path id="Layer" class="shp3" d="M40.2 4.41L66.7 4.41C66.84 4.41 66.97 4.43 67.1 4.49C67.22 4.54 67.34 4.61 67.43 4.71C67.53 4.81 67.6 4.92 67.66 5.05C67.71 5.17 67.74 5.31 67.74 5.44L67.74 48.65C67.74 48.78 67.71 48.92 67.66 49.04C67.6 49.17 67.53 49.28 67.43 49.38C67.34 49.47 67.22 49.55 67.1 49.6C66.97 49.65 66.84 49.68 66.7 49.68L40.2 49.68C40.06 49.68 39.93 49.65 39.8 49.6C39.67 49.55 39.56 49.47 39.46 49.38C39.37 49.28 39.29 49.17 39.24 49.04C39.19 48.92 39.16 48.78 39.16 48.65L39.16 5.44C39.16 5.31 39.19 5.17 39.24 5.05C39.29 4.92 39.37 4.81 39.46 4.71C39.56 4.61 39.67 4.54 39.8 4.49C39.93 4.43 40.06 4.41 40.2 4.41" />
			<path id="Layer" class="shp4" d="M19.71 92.68L64.43 92.68L64.43 19.08" />
			<path id="Layer" class="shp4" d="M52.85 8.47L8.3 8.47L8.3 81.66" />
		</g>
		<path id="Layer" class="shp5" d="M11.14 85.34C10.58 86.84 9.03 87.72 8.44 89C8.1 89.74 8.34 90.58 9.03 90.89C9.66 91.18 10.42 90.93 10.83 90.33C10.84 90.4 10.84 90.47 10.84 90.53C10.84 91.24 10.59 91.88 10.17 92.34L12.08 92.34C11.65 91.87 11.37 91.22 11.37 90.49C11.37 90.41 11.38 90.33 11.38 90.25C11.78 90.9 12.59 91.19 13.24 90.89C13.94 90.58 14.13 89.75 13.84 89C13.33 87.7 11.81 86.85 11.14 85.34L11.14 85.34Z" />
		<path id="Layer" fill-rule="evenodd" class="shp6" d="M64.61 15.67L64.61 15.88L61.79 15.88L61.79 15.67C62.37 15.66 62.56 15.57 62.56 15.29C62.56 15.14 62.49 14.85 62.35 14.55L61.9 13.48L58.99 13.48L58.48 14.78C58.43 14.92 58.39 15.08 58.39 15.21C58.39 15.52 58.62 15.67 59.15 15.67L59.15 15.88L56.95 15.88L56.95 15.67C57.48 15.65 57.62 15.47 58.33 13.85L60.63 8.4L60.86 8.4L63.62 14.7C64 15.52 64.12 15.63 64.61 15.67M61.74 13.03L60.46 9.98L59.18 13.03L61.74 13.03Z" />
		<path id="Layer" fill-rule="evenodd" class="shp7" d="M17.49 89.44C17.49 89.44 17.49 89.44 17.49 89.44C17.49 89.44 17.49 89.44 17.49 89.44L17.49 89.44ZM17.49 89.44C15.18 83.67 13.62 83.84 11.62 83.26L14.59 83.26C14.61 83.16 14.63 83.07 14.65 82.97C14.71 82.72 14.78 82.47 14.86 82.22C14.86 81.89 14.85 81.56 14.86 81.23C14.87 80.52 14.97 79.81 15.06 79.1C15.08 78.92 15.1 78.73 15.13 78.55C15.03 78.47 15.06 77.93 15.32 76.87C15.37 76.66 15.41 76.44 15.45 76.22C15.54 75.72 15.65 75.22 15.75 74.73C15.88 74.14 16.07 73.56 16.26 72.99C16.49 72.3 16.78 71.64 17.07 70.98C17.42 70.16 17.78 69.35 18.14 68.54C18.62 67.44 19.17 66.38 19.71 65.31C20.4 64 21.01 62.65 21.59 61.29C22.29 59.63 22.98 57.98 23.67 56.32C24.42 54.55 25.13 52.76 25.8 50.97C25.84 50.85 25.89 50.74 25.93 50.62C25.91 50.58 25.91 50.54 25.91 50.5C25.91 50.38 25.97 50.27 26.07 50.21C26.67 48.53 27.21 46.84 27.73 45.13C28.38 42.99 28.94 40.81 29.38 38.61C29.83 36.05 29.93 33.46 29.91 30.87C29.84 28.75 29.63 26.65 29.38 24.55C29.27 24.64 29.14 24.7 28.99 24.7C28.66 24.7 28.38 24.43 28.38 24.1C28.38 23.77 28.66 23.49 28.99 23.49C29.09 23.49 29.18 23.52 29.26 23.56L29.19 23C29.1 22.26 29 21.52 28.89 20.78C28.83 20.88 28.72 20.95 28.59 20.95C28.41 20.95 28.26 20.81 28.26 20.62C28.26 20.44 28.41 20.29 28.59 20.29C28.68 20.29 28.77 20.32 28.83 20.37C28.72 19.68 28.62 18.98 28.51 18.29C28.34 17.22 28.37 16.57 28.49 16.41C28.39 16.3 28.32 16.15 28.32 15.99C28.32 15.66 28.59 15.39 28.93 15.39C29.26 15.39 29.53 15.66 29.53 15.99C29.53 16.33 29.26 16.6 28.93 16.6C28.86 16.6 28.8 16.58 28.73 16.56C28.85 16.8 28.98 17.26 29.09 17.96C29.33 19.52 29.57 21.09 29.77 22.67C30.09 25.28 30.39 27.9 30.47 30.53C30.5 33.12 30.4 35.72 29.96 38.28C29.52 40.48 28.96 42.65 28.31 44.79C27.75 46.64 27.16 48.49 26.51 50.3C26.55 50.36 26.57 50.43 26.57 50.5C26.57 50.66 26.46 50.79 26.32 50.83C25.66 52.56 24.98 54.28 24.25 55.98C23.56 57.64 22.88 59.3 22.19 60.95C21.61 62.31 21 63.65 20.31 64.96C19.78 66.03 19.23 67.1 18.74 68.19C18.39 69 18.03 69.81 17.68 70.62C17.39 71.29 17.11 71.95 16.87 72.64C16.69 73.21 16.49 73.79 16.37 74.38C16.35 74.45 16.34 74.52 16.33 74.59C16.51 74.16 16.71 73.74 16.91 73.32C17.06 73.01 17.23 72.71 17.39 72.4L17.4 72.38C17.48 72.13 17.61 71.91 17.72 71.68C17.89 71.33 18.1 71 18.3 70.67C18.49 70.35 18.7 70.05 18.91 69.75C19.49 68.75 20.15 67.8 20.82 66.87C21.35 66.14 21.96 65.49 22.58 64.85C22.6 64.71 22.72 64.59 22.86 64.57L23.38 64.05C24.38 63.11 25.42 62.2 26.42 61.25C27.61 60.14 28.76 58.99 29.9 57.84C31.21 56.53 32.41 55.12 33.52 53.65C34.77 51.94 35.81 50.09 36.82 48.24C37.15 47.64 37.46 47.03 37.76 46.41L37.64 46.42C37.3 46.42 37.03 46.15 37.03 45.81C37.03 45.48 37.3 45.21 37.64 45.21C37.86 45.21 38.05 45.33 38.16 45.52C38.65 44.4 39.08 43.27 39.47 42.12L39.54 41.89C39.5 41.62 39.48 41.22 39.49 40.67C39.52 39.73 39.54 38.8 39.52 37.86C39.46 36.17 39.35 34.49 39.13 32.82C38.94 31.68 38.77 30.53 38.43 29.42C38.27 28.86 38.12 28.29 37.86 27.76C37.77 27.62 37.73 27.45 37.59 27.33C35.67 25.64 36.31 25.25 38.22 26.96C38.35 27.08 38.4 27.26 38.48 27.41C38.73 27.94 38.88 28.51 39.05 29.07C39.38 30.18 39.55 31.33 39.73 32.47C39.95 34.14 40.05 35.83 40.1 37.51C40.12 38.22 40.11 38.94 40.1 39.65C40.42 38.16 40.65 36.65 40.84 35.14C40.89 34.47 40.92 33.8 40.94 33.13C40.87 33.15 40.8 33.17 40.72 33.17C40.39 33.17 40.12 32.9 40.12 32.56C40.12 32.23 40.39 31.96 40.72 31.96C40.81 31.96 40.89 31.98 40.96 32.01C40.96 30.97 40.94 29.94 40.91 28.9C40.66 28.82 40.48 28.61 40.48 28.34C40.48 28.08 40.65 27.86 40.87 27.77C40.87 27.66 40.86 27.55 40.86 27.44C40.84 27.03 40.83 26.61 40.82 26.19C40.73 23.85 41.3 23.52 41.39 25.86C41.4 26.28 41.42 26.69 41.43 27.11C41.44 27.36 41.45 27.61 41.45 27.85C41.6 27.97 41.69 28.14 41.69 28.34C41.69 28.52 41.61 28.68 41.49 28.79C41.55 30.79 41.57 32.8 41.41 34.8C41.12 37.16 40.74 39.51 40.05 41.79C39.34 43.9 38.48 45.96 37.39 47.91C36.39 49.76 35.35 51.6 34.11 53.31C33 54.78 31.8 56.19 30.49 57.5C29.35 58.65 28.2 59.8 27.02 60.91C26.01 61.85 24.98 62.76 23.98 63.71C23.67 64.01 23.37 64.31 23.07 64.61C23.15 64.66 23.2 64.73 23.23 64.82C23.99 64.04 24.79 63.31 25.59 62.58L28.4 60.09C29.39 59.21 30.39 58.33 31.39 57.46C32.51 56.48 33.6 55.47 34.68 54.45C35.9 53.29 37.09 52.1 38.26 50.9C39.52 49.65 40.69 48.32 41.84 46.97C42.72 45.93 43.55 44.85 44.37 43.76C44.36 43.72 44.35 43.68 44.35 43.64C44.35 43.32 44.59 43.07 44.9 43.04L45.5 42.2C46.59 40.71 47.57 39.16 48.49 37.57C48.45 37.58 48.41 37.59 48.37 37.59C48.19 37.59 48.04 37.44 48.04 37.26C48.04 37.07 48.19 36.92 48.37 36.92C48.54 36.92 48.67 37.04 48.7 37.19C48.79 37.04 48.88 36.89 48.96 36.74C50.04 34.73 51.07 32.68 51.75 30.51C52.27 28.6 52.57 26.66 52.88 24.72C53.25 22.38 53.83 22.04 53.46 24.38C53.15 26.32 52.85 28.27 52.33 30.17C51.65 32.35 50.63 34.4 49.55 36.41C48.49 38.29 47.36 40.12 46.09 41.86C45.8 42.27 45.5 42.68 45.2 43.08C45.41 43.18 45.56 43.39 45.56 43.64C45.56 43.97 45.29 44.24 44.96 44.24C44.77 44.24 44.6 44.16 44.49 44.02C43.82 44.91 43.14 45.78 42.43 46.63C41.28 47.98 40.1 49.31 38.85 50.56C38.28 51.14 37.71 51.72 37.13 52.29C37.31 52.13 37.61 51.85 38.07 51.46C39.17 50.52 40.28 49.6 41.44 48.72C42.52 47.9 43.63 47.12 44.85 46.51C44.95 46.32 45.15 46.18 45.38 46.18C45.44 46.18 45.49 46.18 45.54 46.19C45.72 46.12 45.91 46.07 46.11 46.06C48.53 45.9 48.07 46.23 45.84 46.39C45.93 46.5 45.99 46.63 45.99 46.78C45.99 47.12 45.72 47.39 45.38 47.39C45.05 47.39 44.78 47.12 44.78 46.78C44.78 46.72 44.79 46.66 44.81 46.6L44.31 46.82C43.9 46.98 42.86 47.76 42.04 48.38C40.88 49.26 39.76 50.18 38.65 51.12C37.51 52.09 36.86 52.6 36.97 52.45C36.41 53.01 35.85 53.56 35.27 54.1C34.2 55.12 33.11 56.14 31.99 57.11C30.99 57.99 29.99 58.86 29 59.75C28.07 60.58 27.14 61.41 26.2 62.24C25.34 63.02 24.47 63.8 23.66 64.64C22.94 65.38 22.22 66.11 21.54 66.9C21.02 67.51 20.5 68.13 20 68.76L19.49 69.46C19.46 69.51 19.43 69.56 19.4 69.6C18.95 70.38 18.5 71.15 18.07 71.93L18.03 72.02C17.98 72.15 17.94 72.28 17.89 72.4C17.53 73.16 17.23 73.71 17.02 74.02C16.7 74.74 16.4 75.46 16.19 76.22C15.97 77.05 15.76 77.89 15.67 78.75C15.59 79.35 15.51 79.96 15.48 80.57L15.63 80.27C15.95 79.65 16.33 79.08 16.72 78.51C17.03 78.03 17.37 77.58 17.73 77.15C17.66 77.05 17.61 76.92 17.61 76.79C17.61 76.45 17.89 76.18 18.22 76.18C18.33 76.18 18.44 76.21 18.52 76.26C19.11 75.66 19.73 75.1 20.35 74.55C21.16 73.8 22.01 73.11 22.88 72.44C23.91 71.64 25.01 70.93 26.1 70.21C27.36 69.4 28.63 68.62 29.91 67.86L30.21 67.69C29.96 67.62 29.77 67.38 29.77 67.11C29.77 66.77 30.05 66.5 30.38 66.5C30.72 66.5 30.98 66.77 30.98 67.11C30.98 67.44 30.72 67.71 30.38 67.71C30.33 67.71 30.28 67.71 30.23 67.69C29.18 68.33 28.13 68.97 27.1 69.64C26.01 70.35 24.92 71.06 23.89 71.86C23.03 72.53 22.17 73.22 21.36 73.96C20.63 74.62 19.89 75.27 19.22 76L18.77 76.54C18.81 76.61 18.83 76.7 18.83 76.79C18.83 77.12 18.55 77.39 18.22 77.39C18.18 77.39 18.15 77.39 18.11 77.38C17.99 77.56 17.86 77.74 17.74 77.92C17.36 78.49 16.97 79.06 16.65 79.67C16.43 80.14 16.19 80.61 16.05 81.11C15.98 81.34 15.91 81.57 15.84 81.8C15.93 81.86 15.98 81.96 15.98 82.08C15.98 82.25 15.85 82.39 15.68 82.41C15.63 82.71 15.54 83.01 15.55 83.31C15.56 83.49 15.56 83.66 15.59 83.84C15.61 83.94 15.61 84.04 15.65 84.14C15.92 85.35 18.02 88.54 17.49 89.44ZM17.74 84.44C17.74 84.25 17.89 84.1 18.07 84.1C18.26 84.1 18.4 84.25 18.4 84.44C18.4 84.62 18.26 84.77 18.07 84.77C17.89 84.77 17.74 84.62 17.74 84.44ZM12.84 82.47C12.84 82.14 13.11 81.86 13.44 81.86C13.78 81.86 14.05 82.14 14.05 82.47C14.05 82.81 13.78 83.08 13.44 83.08C13.11 83.08 12.84 82.81 12.84 82.47ZM16.11 81.74C16.11 81.41 16.37 81.14 16.71 81.14C17.04 81.14 17.32 81.41 17.32 81.74C17.32 82.08 17.04 82.35 16.71 82.35C16.37 82.35 16.11 82.08 16.11 81.74ZM12.11 80.32C12.11 80.14 12.26 79.99 12.44 79.99C12.63 79.99 12.78 80.14 12.78 80.32C12.78 80.51 12.63 80.65 12.44 80.65C12.26 80.65 12.11 80.51 12.11 80.32ZM13.63 79.78C13.63 79.59 13.77 79.45 13.96 79.45C14.14 79.45 14.29 79.59 14.29 79.78C14.29 79.96 14.14 80.11 13.96 80.11C13.77 80.11 13.63 79.96 13.63 79.78ZM19.07 78.78C19.07 78.45 19.34 78.18 19.67 78.18C20 78.18 20.28 78.45 20.28 78.78C20.28 79.11 20 79.39 19.67 79.39C19.34 79.39 19.07 79.11 19.07 78.78ZM20.76 78.02C20.76 77.84 20.91 77.69 21.09 77.69C21.27 77.69 21.42 77.84 21.42 78.02C21.42 78.21 21.27 78.36 21.09 78.36C20.91 78.36 20.76 78.21 20.76 78.02ZM12.17 77.09C12.17 76.76 12.44 76.48 12.78 76.48C13.11 76.48 13.38 76.76 13.38 77.09C13.38 77.43 13.11 77.69 12.78 77.69C12.44 77.69 12.17 77.43 12.17 77.09ZM13.56 75.33C13.56 75 13.84 74.73 14.17 74.73C14.5 74.73 14.77 75 14.77 75.33C14.77 75.66 14.5 75.94 14.17 75.94C13.84 75.94 13.56 75.66 13.56 75.33ZM21.67 75.37C21.67 75.18 21.82 75.03 22 75.03C22.19 75.03 22.34 75.18 22.34 75.37C22.34 75.55 22.19 75.7 22 75.7C21.82 75.7 21.67 75.55 21.67 75.37ZM25.78 74.55C25.78 74.21 26.05 73.95 26.39 73.95C26.72 73.94 26.99 74.21 26.99 74.55C26.99 74.88 26.72 75.15 26.39 75.15C26.05 75.15 25.78 74.88 25.78 74.55ZM19.31 73.82C19.31 73.49 19.58 73.22 19.92 73.22C20.25 73.22 20.52 73.49 20.52 73.82C20.52 74.16 20.25 74.43 19.92 74.43C19.58 74.43 19.31 74.16 19.31 73.82ZM22.29 74.28C22.26 74.27 22.64 73.98 23.5 73.34C23.98 73 24.44 72.63 24.94 72.32C26.06 71.65 27.18 70.98 28.37 70.45C29.21 70.07 30.07 69.69 30.93 69.36C31.54 69.11 32.14 68.87 32.75 68.64L33.53 68.34C35.92 67.42 35.3 67.79 32.91 68.7L32.13 68.99C31.53 69.22 30.92 69.47 30.32 69.71C29.78 69.92 29.25 70.15 28.72 70.38C29.04 70.4 29.29 70.65 29.29 70.98C29.29 71.31 29.02 71.58 28.68 71.58C28.35 71.58 28.08 71.31 28.08 70.98C28.08 70.83 28.14 70.7 28.23 70.59L27.76 70.8C27.09 71.06 25.76 71.85 25.55 71.97C25.05 72.28 24.59 72.65 24.11 73C23 73.82 22.31 74.28 22.29 74.28L22.29 74.28ZM13.26 73.03C13.26 72.7 13.53 72.43 13.87 72.43C14.2 72.43 14.47 72.7 14.47 73.03C14.47 73.37 14.2 73.64 13.87 73.64C13.53 73.64 13.26 73.37 13.26 73.03ZM26.75 72.64C26.75 72.46 26.9 72.31 27.08 72.31C27.26 72.31 27.41 72.46 27.41 72.64C27.41 72.83 27.26 72.98 27.08 72.98C26.9 72.98 26.75 72.83 26.75 72.64ZM15.5 71.52C15.5 71.19 15.77 70.92 16.11 70.92C16.44 70.92 16.71 71.19 16.71 71.52C16.71 71.85 16.44 72.13 16.11 72.13C15.77 72.13 15.5 71.85 15.5 71.52ZM18.77 71.34C18.77 71.01 19.04 70.74 19.37 70.74C19.71 70.74 19.97 71.01 19.97 71.34C19.97 71.68 19.71 71.94 19.37 71.94C19.04 71.94 18.77 71.68 18.77 71.34ZM10.84 71.13C10.84 70.95 10.99 70.8 11.17 70.8C11.36 70.8 11.5 70.95 11.5 71.13C11.5 71.31 11.36 71.46 11.17 71.46C10.99 71.46 10.84 71.31 10.84 71.13ZM31.95 69.98C31.95 69.79 32.1 69.65 32.28 69.65C32.47 69.65 32.62 69.8 32.62 69.98C32.62 70.16 32.47 70.31 32.28 70.31C32.1 70.31 31.95 70.16 31.95 69.98ZM24.45 69.65C24.45 69.31 24.72 69.05 25.06 69.05C25.39 69.05 25.66 69.31 25.66 69.65C25.66 69.98 25.39 70.25 25.06 70.25C24.72 70.25 24.45 69.98 24.45 69.65ZM35.73 69.71C35.55 69.71 35.4 69.56 35.4 69.38C35.4 69.31 35.42 69.25 35.45 69.2C35.4 69.22 35.34 69.22 35.28 69.22C34.95 69.22 34.67 68.96 34.67 68.62C34.67 68.29 34.95 68.01 35.28 68.01C35.61 68.01 35.88 68.29 35.88 68.62C35.88 68.79 35.81 68.94 35.71 69.05L35.73 69.05C35.92 69.05 36.07 69.19 36.07 69.38C36.07 69.56 35.92 69.71 35.73 69.71L35.73 69.71ZM37.21 67.71C37.21 67.38 37.49 67.11 37.82 67.11C38.15 67.11 38.43 67.38 38.43 67.71C38.43 68.04 38.15 68.32 37.82 68.32C37.49 68.32 37.21 68.04 37.21 67.71ZM16.59 67.71C16.59 67.38 16.86 67.11 17.2 67.11C17.53 67.11 17.8 67.38 17.8 67.71C17.8 68.04 17.53 68.32 17.2 68.32C16.86 68.32 16.59 68.04 16.59 67.71ZM21.37 67.65C21.37 67.32 21.63 67.04 21.97 67.04C22.3 67.04 22.58 67.32 22.58 67.65C22.58 67.99 22.3 68.25 21.97 68.25C21.63 68.25 21.37 67.99 21.37 67.65ZM39.03 67.86C39.03 67.68 39.18 67.53 39.36 67.53C39.54 67.53 39.69 67.68 39.69 67.86C39.69 68.05 39.54 68.2 39.36 68.2C39.18 68.2 39.03 68.05 39.03 67.86ZM26.03 67.44C26.03 67.26 26.17 67.11 26.36 67.11C26.54 67.11 26.69 67.26 26.69 67.44C26.69 67.62 26.54 67.77 26.36 67.77C26.17 67.77 26.03 67.62 26.03 67.44ZM20.82 67.38C20.82 67.38 20.82 67.38 20.82 67.38C20.82 67.38 20.82 67.38 20.82 67.38L20.82 67.38ZM20.82 67.38C20.86 67.33 20.89 67.29 20.93 67.25C21.53 66.55 22.18 65.88 22.83 65.22C22.75 65.2 22.67 65.15 22.63 65.07C22.2 65.53 21.79 66.01 21.42 66.52C21.22 66.8 21.02 67.09 20.82 67.38ZM32.33 66.46C32.33 66.46 32.34 66.46 32.34 66.45C32.34 66.46 32.33 66.46 32.33 66.46L32.33 66.46ZM32.34 66.45C33.32 65.9 34.29 65.34 35.27 64.8C35.39 64.73 35.59 64.62 35.75 64.53C35.51 64.45 35.34 64.23 35.34 63.96C35.34 63.63 35.61 63.35 35.95 63.35C36.28 63.35 36.55 63.63 36.55 63.96C36.55 64.01 36.54 64.05 36.53 64.1L38.6 62.93C37.91 63.33 37.22 63.72 36.53 64.12C36.46 64.37 36.22 64.56 35.95 64.56C35.89 64.56 35.83 64.56 35.78 64.54C35.28 64.82 34.78 65.09 34.28 65.36C33.58 65.75 32.92 66.13 32.34 66.45ZM39.76 66.05C39.76 65.86 39.91 65.72 40.09 65.72C40.27 65.72 40.42 65.86 40.42 66.05C40.42 66.23 40.27 66.38 40.09 66.38C39.9 66.38 39.76 66.23 39.76 66.05ZM16.95 65.47C16.61 65.47 16.35 65.2 16.35 64.87C16.35 64.53 16.61 64.27 16.95 64.27C17.06 64.27 17.16 64.29 17.25 64.34C17.26 64.17 17.4 64.02 17.58 64.02C17.77 64.02 17.92 64.17 17.92 64.36C17.92 64.54 17.77 64.69 17.58 64.69C17.56 64.69 17.54 64.69 17.52 64.68C17.54 64.74 17.56 64.8 17.56 64.87C17.56 65.2 17.28 65.48 16.95 65.48L16.95 65.47ZM14.65 65.08C14.65 64.9 14.8 64.75 14.98 64.75C15.17 64.75 15.32 64.9 15.32 65.08C15.32 65.26 15.17 65.41 14.98 65.41C14.8 65.41 14.65 65.26 14.65 65.08ZM18.58 62.51C18.58 62.18 18.86 61.9 19.19 61.9C19.52 61.9 19.79 62.18 19.79 62.51C19.79 62.85 19.52 63.11 19.19 63.11C18.86 63.11 18.58 62.85 18.58 62.51ZM44.42 62.66C44.42 62.48 44.56 62.33 44.75 62.33C44.93 62.33 45.08 62.48 45.08 62.66C45.08 62.84 44.93 62.99 44.75 62.99C44.56 62.99 44.42 62.84 44.42 62.66ZM38.84 62.79L38.86 62.78C38.86 62.78 38.85 62.78 38.84 62.79L38.84 62.79ZM38.86 62.78C40.34 61.91 41.75 60.94 43.11 59.9C44.16 59.1 45.16 58.23 46.12 57.32L46.13 57.29C45.65 57.7 45.14 58.09 44.65 58.48C42.74 60.01 42.14 60.35 44.05 58.83C44.59 58.39 45.15 57.97 45.67 57.51C46.4 56.88 47.12 56.25 47.84 55.61C49.11 54.26 50.22 52.77 51.27 51.24C52.52 49.46 53.43 47.5 54.19 45.47C54.98 43.27 55.29 40.95 55.47 38.62C55.67 36.54 55.5 34.47 55.23 32.41C54.74 28.55 55.69 28.01 56.19 31.86C56.45 33.93 56.64 35.99 56.43 38.07C56.28 40.09 56.02 42.1 55.44 44.04C55.55 43.94 55.69 43.88 55.85 43.88C56.18 43.88 56.45 44.15 56.45 44.48C56.45 44.82 56.18 45.09 55.85 45.09C55.56 45.09 55.31 44.88 55.25 44.6C55.22 44.71 55.19 44.81 55.16 44.92C54.4 46.94 53.49 48.9 52.24 50.67C51.54 51.68 50.82 52.68 50.04 53.63C50.6 53.13 51.15 52.62 51.7 52.11L52.38 51.41C52.43 51.27 52.54 51.16 52.67 51.09C53.12 50.6 53.55 50.09 53.91 49.53C54.48 48.69 55.05 47.84 55.59 46.99C56.14 46.13 56.68 45.28 57.2 44.41C57.65 43.67 58.1 42.92 58.5 42.14C58.72 41.67 58.96 41.21 59.11 40.72C59.18 40.53 59.24 40.34 59.33 40.16C59.56 39.7 59.76 39.34 59.93 39.04C59.73 38.94 59.6 38.73 59.6 38.5C59.6 38.17 59.85 37.91 60.17 37.89C60.08 37.83 60.02 37.73 60.02 37.62C60.02 37.44 60.17 37.29 60.35 37.29C60.54 37.29 60.68 37.44 60.68 37.62C60.68 37.77 60.58 37.9 60.44 37.94C60.65 38.03 60.8 38.25 60.8 38.5C60.8 38.8 60.58 39.04 60.29 39.09C60.2 39.29 60.09 39.52 59.95 39.8C59.86 39.98 59.81 40.17 59.74 40.35C59.58 40.85 59.34 41.32 59.11 41.79L58.87 42.24C58.98 42.13 59.13 42.07 59.29 42.07C59.62 42.07 59.9 42.33 59.9 42.67C59.9 43 59.62 43.27 59.29 43.27C58.96 43.27 58.69 43 58.69 42.67C58.69 42.63 58.7 42.59 58.7 42.55C58.41 43.06 58.11 43.56 57.81 44.06C57.28 44.92 56.74 45.78 56.2 46.63C55.65 47.49 55.09 48.33 54.52 49.17C54.08 49.85 53.56 50.45 53.01 51.02C53.31 51.06 53.55 51.32 53.55 51.62C53.55 51.96 53.28 52.23 52.94 52.23C52.64 52.23 52.38 52 52.34 51.71L52.3 51.76C51.35 52.66 50.37 53.53 49.4 54.41L49.35 54.45C49.04 54.81 48.71 55.17 48.37 55.51C47.91 55.97 47.45 56.43 46.97 56.88C47.17 56.97 47.31 57.19 47.31 57.43C47.31 57.76 47.05 58.03 46.71 58.03C46.45 58.03 46.23 57.87 46.15 57.63C45.49 58.22 44.8 58.79 44.1 59.33C42.7 60.39 41.27 61.39 39.75 62.27L38.86 62.78ZM35.16 62.3C35.16 62.12 35.31 61.97 35.49 61.97C35.68 61.97 35.83 62.12 35.83 62.3C35.83 62.48 35.68 62.63 35.49 62.63C35.31 62.63 35.16 62.48 35.16 62.3ZM41.55 62.39L41.48 62.39C41.3 62.39 41.15 62.24 41.15 62.05C41.15 61.87 41.3 61.72 41.48 61.72C41.67 61.72 41.81 61.87 41.81 62.05C41.81 62.21 41.7 62.35 41.55 62.39ZM27.54 61.6C27.54 61.27 27.81 61 28.14 61C28.47 61 28.75 61.27 28.75 61.6C28.75 61.93 28.47 62.21 28.14 62.21C27.81 62.21 27.54 61.93 27.54 61.6ZM29.65 61.69C29.65 61.51 29.8 61.36 29.99 61.36C30.17 61.36 30.32 61.51 30.32 61.69C30.32 61.88 30.17 62.02 29.99 62.02C29.8 62.02 29.65 61.88 29.65 61.69ZM38.43 60.18C38.43 60 38.58 59.85 38.76 59.85C38.94 59.85 39.09 60 39.09 60.18C39.09 60.36 38.94 60.51 38.76 60.51C38.58 60.51 38.43 60.36 38.43 60.18ZM41.15 59.73C41.15 59.39 41.42 59.12 41.75 59.12C42.08 59.12 42.36 59.39 42.36 59.73C42.36 60.06 42.08 60.34 41.75 60.34C41.42 60.34 41.15 60.06 41.15 59.73ZM19.79 59.49C19.79 59.15 20.06 58.88 20.4 58.88C20.73 58.88 21.01 59.15 21.01 59.49C21.01 59.82 20.73 60.09 20.4 60.09C20.06 60.09 19.79 59.82 19.79 59.49ZM48.71 59.15C48.71 58.97 48.86 58.82 49.04 58.82C49.22 58.82 49.37 58.97 49.37 59.15C49.37 59.34 49.22 59.49 49.04 59.49C48.86 59.49 48.71 59.34 48.71 59.15ZM27.12 58.76C27.12 58.42 27.38 58.16 27.72 58.16C28.05 58.16 28.32 58.42 28.32 58.76C28.32 59.09 28.05 59.37 27.72 59.37C27.38 59.37 27.12 59.09 27.12 58.76ZM18.34 58C18.34 57.82 18.49 57.67 18.67 57.67C18.86 57.67 19.01 57.82 19.01 58C19.01 58.19 18.86 58.33 18.67 58.33C18.49 58.33 18.34 58.19 18.34 58ZM42.48 57.67C42.48 57.34 42.75 57.07 43.08 57.07C43.41 57.07 43.69 57.34 43.69 57.67C43.69 58 43.41 58.28 43.08 58.28C42.75 58.28 42.48 58 42.48 57.67ZM21.37 57.67C21.03 57.67 20.76 57.4 20.76 57.07C20.76 56.84 20.89 56.64 21.08 56.54C21.07 56.5 21.06 56.47 21.06 56.43C21.06 56.25 21.21 56.1 21.4 56.1C21.58 56.1 21.73 56.25 21.73 56.43C21.73 56.48 21.72 56.53 21.71 56.57C21.87 56.68 21.97 56.86 21.97 57.07C21.97 57.4 21.7 57.67 21.37 57.67L21.37 57.67ZM33.82 56.52C33.82 56.19 34.1 55.92 34.43 55.92C34.77 55.92 35.03 56.19 35.03 56.52C35.03 56.86 34.77 57.13 34.43 57.13C34.1 57.13 33.82 56.86 33.82 56.52ZM23.29 56.91C23.17 56.92 23.15 56.4 23.35 55.3C23.59 54.03 23.82 52.76 23.96 51.48C24.12 49.9 24.21 48.32 24.16 46.73C24.1 45.55 24.02 44.36 23.81 43.19C23.68 42.4 23.56 41.6 23.35 40.83C23.26 40.53 23.21 40.22 23.07 39.94C21.98 37.62 22.65 37.24 23.69 39.58C23.82 39.87 23.89 40.17 23.98 40.48C24.18 41.25 24.3 42.04 24.42 42.84C24.62 44.01 24.7 45.2 24.76 46.39C24.81 47.98 24.71 49.56 24.55 51.14C24.41 52.43 24.18 53.69 23.94 54.96C23.71 56.21 23.43 56.89 23.29 56.91L23.29 56.91ZM35.88 56.55C35.88 56.37 36.03 56.22 36.21 56.22C36.4 56.22 36.55 56.37 36.55 56.55C36.55 56.74 36.4 56.88 36.21 56.88C36.03 56.88 35.88 56.74 35.88 56.55ZM25.96 56.31C25.96 56.13 26.11 55.98 26.29 55.98C26.48 55.98 26.63 56.13 26.63 56.31C26.63 56.5 26.48 56.64 26.29 56.64C26.11 56.64 25.96 56.5 25.96 56.31ZM29.65 54.95C29.65 54.61 29.93 54.35 30.26 54.35C30.6 54.35 30.86 54.61 30.86 54.95C30.86 55.28 30.6 55.56 30.26 55.56C29.93 55.56 29.65 55.28 29.65 54.95ZM46.53 54.47C46.53 54.13 46.8 53.86 47.14 53.86C47.47 53.86 47.74 54.13 47.74 54.47C47.74 54.8 47.47 55.07 47.14 55.07C46.8 55.07 46.53 54.8 46.53 54.47ZM53.61 53.34C53.61 53.16 53.76 53.01 53.94 53.01C54.12 53.01 54.27 53.16 54.27 53.34C54.27 53.53 54.12 53.68 53.94 53.68C53.76 53.68 53.61 53.53 53.61 53.34ZM41.81 50.23C41.81 49.9 42.08 49.62 42.41 49.62C42.75 49.62 43.02 49.9 43.02 50.23C43.02 50.57 42.75 50.83 42.41 50.83C42.08 50.83 41.81 50.57 41.81 50.23ZM48.52 49.53C48.52 49.35 48.67 49.2 48.86 49.2C49.04 49.2 49.19 49.35 49.19 49.53C49.19 49.72 49.04 49.86 48.86 49.86C48.67 49.86 48.52 49.72 48.52 49.53ZM18.83 48.84C18.83 48.51 19.1 48.23 19.43 48.23C19.76 48.23 20.04 48.51 20.04 48.84C20.04 49.17 19.76 49.45 19.43 49.45C19.1 49.45 18.83 49.17 18.83 48.84ZM34.13 48.6C34.13 48.26 34.4 47.99 34.74 47.99C35.07 47.99 35.34 48.26 35.34 48.6C35.34 48.93 35.07 49.2 34.74 49.2C34.4 49.2 34.13 48.93 34.13 48.6ZM57.72 48.15C57.72 47.96 57.87 47.81 58.05 47.81C58.24 47.81 58.39 47.96 58.39 48.15C58.39 48.33 58.24 48.48 58.05 48.48C57.87 48.48 57.72 48.33 57.72 48.15ZM56.69 47.39C56.69 47.06 56.96 46.78 57.3 46.78C57.63 46.78 57.91 47.06 57.91 47.39C57.91 47.72 57.63 47.99 57.3 47.99C56.96 47.99 56.69 47.72 56.69 47.39ZM37.88 47.21C37.88 46.87 38.15 46.6 38.48 46.6C38.82 46.6 39.09 46.87 39.09 47.21C39.09 47.54 38.82 47.81 38.48 47.81C38.15 47.81 37.88 47.54 37.88 47.21ZM27.9 46.54C27.9 46.21 28.17 45.93 28.5 45.93C28.83 45.93 29.11 46.21 29.11 46.54C29.11 46.88 28.83 47.14 28.5 47.14C28.17 47.14 27.9 46.88 27.9 46.54ZM21.85 44.21C21.85 44.02 22 43.88 22.18 43.88C22.36 43.88 22.51 44.02 22.51 44.21C22.51 44.39 22.36 44.55 22.18 44.55C22 44.55 21.85 44.39 21.85 44.21ZM25.06 43.82C25.06 43.49 25.32 43.21 25.66 43.21C25.99 43.21 26.27 43.49 26.27 43.82C26.27 44.15 25.99 44.42 25.66 44.42C25.32 44.42 25.06 44.15 25.06 43.82ZM51.73 43.64C51.73 43.3 52 43.03 52.33 43.03C52.67 43.03 52.94 43.3 52.94 43.64C52.94 43.97 52.67 44.24 52.33 44.24C52 44.24 51.73 43.97 51.73 43.64ZM29.05 43.3C29.05 43.12 29.2 42.97 29.38 42.97C29.57 42.97 29.72 43.12 29.72 43.3C29.72 43.49 29.57 43.64 29.38 43.64C29.2 43.64 29.05 43.49 29.05 43.3ZM37.15 40.49C37.15 40.16 37.43 39.89 37.76 39.89C38.1 39.89 38.36 40.16 38.36 40.49C38.36 40.82 38.1 41.1 37.76 41.1C37.43 41.1 37.15 40.82 37.15 40.49ZM44.3 40.43C44.3 40.1 44.56 39.82 44.9 39.82C45.23 39.82 45.5 40.1 45.5 40.43C45.5 40.77 45.23 41.03 44.9 41.03C44.56 41.03 44.3 40.77 44.3 40.43ZM56.87 39.77C56.87 39.43 57.15 39.16 57.48 39.16C57.82 39.16 58.08 39.43 58.08 39.77C58.08 40.1 57.82 40.37 57.48 40.37C57.15 40.37 56.87 40.1 56.87 39.77ZM26.63 39.28C26.63 38.95 26.9 38.68 27.24 38.68C27.57 38.68 27.84 38.95 27.84 39.28C27.84 39.61 27.57 39.89 27.24 39.89C26.9 39.89 26.63 39.61 26.63 39.28ZM41.99 39.22C41.99 38.89 42.26 38.62 42.6 38.62C42.93 38.62 43.21 38.89 43.21 39.22C43.21 39.56 42.93 39.82 42.6 39.82C42.26 39.82 41.99 39.56 41.99 39.22ZM30.13 38.16C30.13 37.98 30.29 37.83 30.47 37.83C30.66 37.83 30.81 37.98 30.81 38.16C30.81 38.35 30.66 38.5 30.47 38.5C30.29 38.5 30.13 38.35 30.13 38.16ZM21.42 37.19C21.42 37.01 21.57 36.86 21.76 36.86C21.94 36.86 22.1 37.01 22.1 37.19C22.1 37.38 21.94 37.53 21.76 37.53C21.57 37.53 21.42 37.38 21.42 37.19ZM43.38 37.07C43.38 36.89 43.53 36.74 43.72 36.74C43.9 36.74 44.05 36.89 44.05 37.07C44.05 37.26 43.9 37.41 43.72 37.41C43.53 37.41 43.38 37.26 43.38 37.07ZM52.82 36.25C52.82 35.92 53.09 35.65 53.42 35.65C53.76 35.65 54.03 35.92 54.03 36.25C54.03 36.59 53.76 36.86 53.42 36.86C53.09 36.86 52.82 36.59 52.82 36.25ZM37.03 36.29C37.03 36.11 37.18 35.96 37.37 35.96C37.55 35.96 37.7 36.11 37.7 36.29C37.7 36.47 37.55 36.62 37.37 36.62C37.18 36.62 37.03 36.47 37.03 36.29ZM60.8 35.75C60.8 35.56 60.95 35.41 61.14 35.41C61.32 35.41 61.47 35.56 61.47 35.75C61.47 35.93 61.32 36.08 61.14 36.08C60.95 36.08 60.8 35.93 60.8 35.75ZM37.52 35.35C37.52 35.02 37.79 34.74 38.12 34.74C38.46 34.74 38.72 35.02 38.72 35.35C38.72 35.68 38.46 35.96 38.12 35.96C37.79 35.96 37.52 35.68 37.52 35.35ZM47.19 35.17C47.19 34.83 47.47 34.56 47.8 34.56C48.14 34.56 48.4 34.83 48.4 35.17C48.4 35.5 48.14 35.77 47.8 35.77C47.47 35.77 47.19 35.5 47.19 35.17ZM51.61 34.59C51.61 34.41 51.76 34.26 51.95 34.26C52.13 34.26 52.28 34.41 52.28 34.59C52.28 34.78 52.13 34.93 51.95 34.93C51.76 34.93 51.61 34.78 51.61 34.59ZM60.38 34.14C60.38 33.81 60.65 33.53 60.99 33.53C61.32 33.53 61.59 33.81 61.59 34.14C61.59 34.47 61.32 34.74 60.99 34.74C60.65 34.74 60.38 34.47 60.38 34.14ZM28.97 34.74L28.9 34.74C28.71 34.74 28.56 34.59 28.56 34.41C28.56 34.23 28.71 34.08 28.9 34.08C29.08 34.08 29.23 34.23 29.23 34.41C29.23 34.57 29.12 34.71 28.97 34.74ZM56.78 33.78C56.6 33.78 56.45 33.63 56.45 33.45C56.45 33.26 56.6 33.11 56.78 33.11C56.96 33.11 57.11 33.26 57.11 33.45C57.11 33.63 56.96 33.78 56.78 33.78ZM31.95 32.56C31.95 32.23 32.23 31.96 32.56 31.96C32.89 31.96 33.16 32.23 33.16 32.56C33.16 32.9 32.89 33.17 32.56 33.17C32.23 33.17 31.95 32.9 31.95 32.56ZM52.7 32.36C52.7 32.18 52.85 32.02 53.03 32.02C53.22 32.02 53.37 32.18 53.37 32.36C53.37 32.54 53.22 32.69 53.03 32.69C52.85 32.69 52.7 32.54 52.7 32.36ZM43.08 31.84C42.75 31.84 42.48 31.57 42.48 31.23C42.48 30.9 42.75 30.63 43.08 30.63C43.25 30.63 43.41 30.7 43.52 30.82C43.56 30.68 43.68 30.57 43.84 30.57C44.02 30.57 44.17 30.72 44.17 30.9C44.17 31.09 44.02 31.23 43.84 31.23C43.78 31.23 43.73 31.22 43.68 31.2C43.68 31.21 43.69 31.22 43.69 31.23C43.69 31.57 43.41 31.84 43.08 31.84L43.08 31.84ZM49.25 30.78C49.25 30.6 49.4 30.45 49.58 30.45C49.77 30.45 49.92 30.6 49.92 30.78C49.92 30.97 49.77 31.11 49.58 31.11C49.4 31.11 49.25 30.97 49.25 30.78ZM59.54 30.66C59.54 30.48 59.69 30.33 59.87 30.33C60.05 30.33 60.2 30.48 60.2 30.66C60.2 30.85 60.05 30.99 59.87 30.99C59.69 30.99 59.54 30.85 59.54 30.66ZM56.69 30.33C56.69 30 56.96 29.72 57.3 29.72C57.63 29.72 57.91 30 57.91 30.33C57.91 30.66 57.63 30.93 57.3 30.93C56.96 30.93 56.69 30.66 56.69 30.33ZM31.41 30.15C31.41 29.81 31.68 29.54 32.01 29.54C32.35 29.54 32.62 29.81 32.62 30.15C32.62 30.48 32.35 30.75 32.01 30.75C31.68 30.75 31.41 30.48 31.41 30.15ZM37.15 30.09C36.93 30.09 36.74 29.96 36.64 29.79C36.55 29.73 36.49 29.62 36.49 29.51C36.49 29.42 36.53 29.34 36.59 29.28C36.67 29.04 36.89 28.88 37.15 28.88C37.49 28.88 37.76 29.15 37.76 29.48C37.76 29.82 37.49 30.09 37.15 30.09L37.15 30.09ZM50.1 28.94C50.1 28.6 50.37 28.34 50.7 28.34C51.03 28.34 51.31 28.6 51.31 28.94C51.31 29.27 51.03 29.54 50.7 29.54C50.37 29.54 50.1 29.27 50.1 28.94ZM27.78 28.34C27.78 28 28.05 27.73 28.38 27.73C28.71 27.73 28.99 28 28.99 28.34C28.99 28.67 28.71 28.94 28.38 28.94C28.05 28.94 27.78 28.67 27.78 28.34ZM38.24 26.73C38.24 26.55 38.39 26.4 38.58 26.4C38.76 26.4 38.91 26.55 38.91 26.73C38.91 26.91 38.76 27.06 38.58 27.06C38.39 27.06 38.24 26.91 38.24 26.73ZM58.63 26.61C58.63 26.43 58.78 26.28 58.96 26.28C59.14 26.28 59.29 26.43 59.29 26.61C59.29 26.79 59.14 26.94 58.96 26.94C58.78 26.94 58.63 26.79 58.63 26.61ZM30.98 26.55C30.98 26.36 31.13 26.21 31.31 26.21C31.5 26.21 31.65 26.36 31.65 26.55C31.65 26.73 31.5 26.88 31.31 26.88C31.13 26.88 30.98 26.73 30.98 26.55ZM54.39 25.15C54.39 24.97 54.54 24.82 54.72 24.82C54.91 24.82 55.06 24.97 55.06 25.15C55.06 25.34 54.91 25.49 54.72 25.49C54.54 25.49 54.39 25.34 54.39 25.15ZM55.42 24.4C55.42 24.06 55.69 23.8 56.02 23.8C56.36 23.8 56.63 24.06 56.63 24.4C56.63 24.73 56.36 25.01 56.02 25.01C55.69 25.01 55.42 24.73 55.42 24.4ZM33.95 23.95C33.95 23.76 34.1 23.61 34.28 23.61C34.47 23.61 34.62 23.76 34.62 23.95C34.62 24.13 34.47 24.28 34.28 24.28C34.1 24.28 33.95 24.13 33.95 23.95ZM36.43 23.44C36.43 23.1 36.7 22.83 37.03 22.83C37.37 22.83 37.64 23.1 37.64 23.44C37.64 23.77 37.37 24.04 37.03 24.04C36.7 24.04 36.43 23.77 36.43 23.44ZM31.22 22.47C31.22 22.13 31.5 21.86 31.83 21.86C32.17 21.86 32.44 22.13 32.44 22.47C32.44 22.8 32.17 23.07 31.83 23.07C31.5 23.07 31.22 22.8 31.22 22.47ZM48.95 22.55C48.95 22.37 49.1 22.22 49.28 22.22C49.46 22.22 49.61 22.37 49.61 22.55C49.61 22.74 49.46 22.89 49.28 22.89C49.1 22.89 48.95 22.74 48.95 22.55ZM40.85 22.22C40.85 21.89 41.11 21.62 41.45 21.62C41.78 21.62 42.05 21.89 42.05 22.22C42.05 22.55 41.78 22.83 41.45 22.83C41.11 22.83 40.85 22.55 40.85 22.22ZM51.55 21.89C51.55 21.7 51.7 21.56 51.88 21.56C52.07 21.56 52.21 21.7 52.21 21.89C52.21 22.07 52.07 22.22 51.88 22.22C51.7 22.22 51.55 22.07 51.55 21.89ZM39.88 20.5C39.88 20.32 40.03 20.17 40.21 20.17C40.39 20.17 40.54 20.32 40.54 20.5C40.54 20.69 40.39 20.83 40.21 20.83C40.03 20.83 39.88 20.69 39.88 20.5ZM26.63 20.04C26.63 19.71 26.9 19.44 27.24 19.44C27.57 19.44 27.84 19.71 27.84 20.04C27.84 20.38 27.57 20.65 27.24 20.65C26.9 20.65 26.63 20.38 26.63 20.04ZM49.68 18.87C49.68 18.69 49.82 18.54 50.01 18.54C50.19 18.54 50.34 18.69 50.34 18.87C50.34 19.05 50.19 19.2 50.01 19.2C49.82 19.2 49.68 19.05 49.68 18.87ZM51.55 18.17C51.55 17.84 51.82 17.57 52.16 17.57C52.49 17.57 52.76 17.84 52.76 18.17C52.76 18.5 52.49 18.78 52.16 18.78C51.82 18.78 51.55 18.5 51.55 18.17ZM26.08 17.53C26.08 17.35 26.23 17.2 26.42 17.2C26.6 17.2 26.75 17.35 26.75 17.53C26.75 17.72 26.6 17.87 26.42 17.87C26.23 17.87 26.08 17.72 26.08 17.53ZM51.85 16.27C51.85 16.08 52 15.93 52.19 15.93C52.37 15.93 52.52 16.08 52.52 16.27C52.52 16.45 52.37 16.6 52.19 16.6C52 16.6 51.85 16.45 51.85 16.27ZM35.22 15.36C35.22 15.17 35.37 15.02 35.55 15.02C35.73 15.02 35.88 15.17 35.88 15.36C35.88 15.54 35.73 15.69 35.55 15.69C35.37 15.69 35.22 15.54 35.22 15.36ZM26.69 13.72C26.69 13.54 26.84 13.39 27.02 13.39C27.21 13.39 27.36 13.54 27.36 13.72C27.36 13.91 27.21 14.05 27.02 14.05C26.84 14.05 26.69 13.91 26.69 13.72ZM28.38 12.51C28.38 12.33 28.53 12.18 28.71 12.18C28.9 12.18 29.05 12.33 29.05 12.51C29.05 12.7 28.9 12.85 28.71 12.85C28.53 12.85 28.38 12.7 28.38 12.51Z" />
		<g id="Layer">
			<path id="Layer" class="shp8" d="M52.32 50.8C52.32 59.7 45.11 66.91 36.21 66.91C27.31 66.91 20.1 59.7 20.1 50.8C20.1 41.91 27.31 34.69 36.21 34.69C45.11 34.69 52.32 41.91 52.32 50.8Z" />
			<path id="Layer" class="shp9" d="M36.24 38.89C34.35 43.99 29.06 46.98 27.04 51.35C25.88 53.87 26.7 56.74 29.06 57.81C31.21 58.78 33.81 57.93 35.21 55.91C35.22 56.13 35.23 56.36 35.23 56.58C35.23 58.99 34.36 61.16 32.95 62.73L39.46 62.73C37.98 61.15 37.05 58.92 37.05 56.44C37.05 56.16 37.06 55.88 37.08 55.6C38.43 57.84 41.18 58.82 43.42 57.81C45.79 56.74 46.45 53.91 45.45 51.35C43.73 46.91 38.54 44.01 36.24 38.89L36.24 38.89Z" />
		</g>
	</g>
</svg>