<svg xmlns="http://www.w3.org/2000/svg" viewBox="0 0 73 102" width="73" height="102">
	<defs>
		<filter x="-50%" y="-50%" width="200%" height="200%" id="flt1"> <feGaussianBlur stdDeviation="0.85" /> </filter>
		<linearGradient id="grd1" gradientUnits="userSpaceOnUse"  x1="41.378" y1="26.385" x2="43.523" y2="-89.997">
			<stop offset="0" stop-color="#f3f3f3"  />
			<stop offset="1" stop-color="#8f8f8f"  />
		</linearGradient>
		<radialGradient id="grd2" gradientUnits="userSpaceOnUse"  cx="10.676" cy="91.687" r="13.273">
			<stop offset="0" stop-color="#ffffff"  />
			<stop offset="1" stop-color="#ffffff" stop-opacity="0" />
		</radialGradient>
		<radialGradient id="grd3" gradientUnits="userSpaceOnUse"  cx="62.254" cy="12.545" r="14.287">
			<stop offset="0" stop-color="#ffffff"  />
			<stop offset="1" stop-color="#ffffff" stop-opacity="0" />
		</radialGradient>
		<linearGradient id="grd4" gradientUnits="userSpaceOnUse"  x1="-318.765" y1="90.31" x2="-318.765" y2="87.13">
			<stop offset="0" stop-color="#000000"  />
			<stop offset="1" stop-color="#555753"  />
		</linearGradient>
		<linearGradient id="grd5" gradientUnits="userSpaceOnUse"  x1="-318.763" y1="14.25" x2="-318.763" y2="10.8">
			<stop offset="0" stop-color="#000000"  />
			<stop offset="1" stop-color="#555753"  />
		</linearGradient>
		<radialGradient id="grd6" gradientUnits="userSpaceOnUse"  cx="18.11" cy="73.826" r="25.374">
			<stop offset="0" stop-color="#ffffff"  />
			<stop offset="1" stop-color="#ffffff" stop-opacity="0" />
		</radialGradient>
		<radialGradient id="grd7" gradientUnits="userSpaceOnUse"  cx="22.124" cy="77.537" r="9.813">
			<stop offset="0" stop-color="#ffffff"  />
			<stop offset="1" stop-color="#ffffff" stop-opacity="0" />
		</radialGradient>
		<linearGradient id="grd8" gradientUnits="userSpaceOnUse"  x1="-473.095" y1="80.848" x2="-473.095" y2="74.24">
			<stop offset="0" stop-color="#000000"  />
			<stop offset="1" stop-color="#6f6f6f"  />
		</linearGradient>
		<radialGradient id="grd9" gradientUnits="userSpaceOnUse"  cx="22.124" cy="24.077" r="9.813">
			<stop offset="0" stop-color="#ffffff"  />
			<stop offset="1" stop-color="#ffffff" stop-opacity="0" />
		</radialGradient>
		<linearGradient id="grd10" gradientUnits="userSpaceOnUse"  x1="-473.095" y1="27.388" x2="-473.095" y2="20.78">
			<stop offset="0" stop-color="#000000"  />
			<stop offset="1" stop-color="#6f6f6f"  />
		</linearGradient>
		<radialGradient id="grd11" gradientUnits="userSpaceOnUse"  cx="36.744" cy="50.807" r="9.813">
			<stop offset="0" stop-color="#ffffff"  />
			<stop offset="1" stop-color="#ffffff" stop-opacity="0" />
		</radialGradient>
		<linearGradient id="grd12" gradientUnits="userSpaceOnUse"  x1="-458.475" y1="54.118" x2="-458.475" y2="47.51">
			<stop offset="0" stop-color="#000000"  />
			<stop offset="1" stop-color="#6f6f6f"  />
		</linearGradient>
		<radialGradient id="grd13" gradientUnits="userSpaceOnUse"  cx="53.374" cy="77.537" r="9.813">
			<stop offset="0" stop-color="#ffffff"  />
			<stop offset="1" stop-color="#ffffff" stop-opacity="0" />
		</radialGradient>
		<linearGradient id="grd14" gradientUnits="userSpaceOnUse"  x1="-441.845" y1="80.848" x2="-441.845" y2="74.24">
			<stop offset="0" stop-color="#000000"  />
			<stop offset="1" stop-color="#6f6f6f"  />
		</linearGradient>
		<radialGradient id="grd15" gradientUnits="userSpaceOnUse"  cx="53.374" cy="24.077" r="9.813">
			<stop offset="0" stop-color="#ffffff"  />
			<stop offset="1" stop-color="#ffffff" stop-opacity="0" />
		</radialGradient>
		<linearGradient id="grd16" gradientUnits="userSpaceOnUse"  x1="-441.845" y1="27.388" x2="-441.845" y2="20.78">
			<stop offset="0" stop-color="#000000"  />
			<stop offset="1" stop-color="#6f6f6f"  />
		</linearGradient>
	</defs>
	<style>
		tspan { white-space:pre }
		.shp0 { filter: url(#flt1);fill: #000000 } 
		.shp1 { fill: url(#grd1);stroke: #000000;stroke-width: 0.226 } 
		.shp2 { opacity: 0.31;fill: url(#grd2) } 
		.shp3 { opacity: 0.318;fill: url(#grd3) } 
		.shp4 { fill: none;stroke: #000000;stroke-width: 0.226 } 
		.shp5 { fill: url(#grd4);stroke: #1b1b1b;stroke-linejoin:round;stroke-width: 0.177 } 
		.shp6 { fill: url(#grd5) } 
		.shp7 { fill: url(#grd6) } 
		.shp8 { opacity: 0.4;fill: url(#grd7) } 
		.shp9 { fill: url(#grd8);stroke: #161616;stroke-linejoin:round;stroke-width: 0.368 } 
		.shp10 { opacity: 0.4;fill: url(#grd9) } 
		.shp11 { fill: url(#grd10);stroke: #161616;stroke-linejoin:round;stroke-width: 0.368 } 
		.shp12 { opacity: 0.4;fill: url(#grd11) } 
		.shp13 { fill: url(#grd12);stroke: #161616;stroke-linejoin:round;stroke-width: 0.368 } 
		.shp14 { opacity: 0.4;fill: url(#grd13) } 
		.shp15 { fill: url(#grd14);stroke: #161616;stroke-linejoin:round;stroke-width: 0.368 } 
		.shp16 { opacity: 0.4;fill: url(#grd15) } 
		.shp17 { fill: url(#grd16);stroke: #161616;stroke-linejoin:round;stroke-width: 0.368 } 
	</style>
	<g id="-e-Spade5">
		<g id="Layer">
			<path id="Layer" fill-rule="evenodd" class="shp0" d="M4.94 1.56L68.02 1.56C68.49 1.56 68.95 1.66 69.38 1.83C69.8 2.01 70.19 2.27 70.52 2.6C70.85 2.93 71.11 3.32 71.29 3.75C71.47 4.18 71.56 4.64 71.56 5.1L71.56 97.21C71.56 97.68 71.47 98.14 71.29 98.57C71.11 99 70.85 99.39 70.52 99.71C70.19 100.04 69.8 100.3 69.38 100.48C68.95 100.66 68.49 100.75 68.02 100.75L4.94 100.75C4.48 100.75 4.02 100.66 3.59 100.48C3.16 100.3 2.77 100.04 2.44 99.71C2.11 99.39 1.85 99 1.67 98.57C1.5 98.14 1.41 97.68 1.41 97.21L1.41 5.1C1.41 4.64 1.5 4.18 1.67 3.75C1.85 3.32 2.11 2.93 2.44 2.6C2.77 2.27 3.16 2.01 3.59 1.83C4.02 1.66 4.48 1.56 4.94 1.56" />
			<path id="Layer" fill-rule="evenodd" class="shp1" d="M5.86 0.99L67.91 0.99C68.44 0.99 68.97 1.09 69.46 1.3C69.95 1.5 70.4 1.8 70.77 2.17C71.15 2.55 71.45 3 71.65 3.49C71.86 3.98 71.96 4.51 71.96 5.04L71.96 96.12C71.96 96.65 71.86 97.18 71.65 97.67C71.45 98.16 71.15 98.61 70.77 98.99C70.4 99.36 69.95 99.66 69.46 99.86C68.97 100.07 68.44 100.17 67.91 100.17L5.86 100.17C5.33 100.17 4.8 100.07 4.31 99.86C3.82 99.66 3.37 99.36 3 98.99C2.62 98.61 2.32 98.16 2.12 97.67C1.91 97.18 1.81 96.65 1.81 96.12L1.81 5.04C1.81 4.51 1.91 3.98 2.12 3.49C2.32 3 2.62 2.55 3 2.17C3.37 1.8 3.82 1.5 4.31 1.3C4.8 1.09 5.33 0.99 5.86 0.99" />
			<path id="Layer" class="shp2" d="M32.06 96.75L5.51 96.75L5.51 72.47L32.06 72.47L32.06 96.75Z" />
			<path id="Layer" class="shp3" d="M40.72 4.41L67.23 4.41C67.36 4.41 67.5 4.43 67.62 4.49C67.75 4.54 67.86 4.61 67.96 4.71C68.05 4.81 68.13 4.92 68.18 5.05C68.23 5.17 68.26 5.31 68.26 5.44L68.26 48.65C68.26 48.78 68.23 48.92 68.18 49.04C68.13 49.17 68.05 49.28 67.96 49.38C67.86 49.47 67.75 49.55 67.62 49.6C67.5 49.65 67.36 49.68 67.23 49.68L40.72 49.68C40.59 49.68 40.45 49.65 40.33 49.6C40.2 49.55 40.09 49.47 39.99 49.38C39.89 49.28 39.82 49.17 39.77 49.04C39.71 48.92 39.69 48.78 39.69 48.65L39.69 5.44C39.69 5.31 39.71 5.17 39.77 5.05C39.82 4.92 39.89 4.81 39.99 4.71C40.09 4.61 40.2 4.54 40.33 4.49C40.45 4.43 40.59 4.41 40.72 4.41" />
			<path id="Layer" class="shp4" d="M20.23 92.68L64.95 92.68L64.95 19.08" />
			<path id="Layer" class="shp4" d="M53.38 8.47L8.82 8.47L8.82 81.66" />
		</g>
		<path id="Layer" class="shp5" d="M11.82 85.22C11.26 86.72 9.71 87.59 9.12 88.88C8.78 89.61 9.02 90.46 9.71 90.77C10.34 91.05 11.1 90.81 11.52 90.21C11.52 90.28 11.52 90.34 11.52 90.41C11.52 91.12 11.27 91.75 10.85 92.21L12.76 92.21C12.33 91.75 12.06 91.1 12.06 90.37C12.06 90.29 12.06 90.2 12.07 90.12C12.46 90.78 13.27 91.07 13.93 90.77C14.62 90.46 14.81 89.63 14.52 88.88C14.01 87.57 12.49 86.72 11.82 85.22L11.82 85.22Z" />
		<path id="Layer" class="shp6" d="M62.29 9.45L64.47 9.45C64.64 9.45 64.69 9.43 64.72 9.35L65.14 8.36L65.04 8.28C64.88 8.52 64.77 8.57 64.53 8.57L62.21 8.57L61.01 11.2C60.99 11.22 60.99 11.23 60.99 11.26C60.99 11.31 61.04 11.34 61.13 11.34C61.48 11.34 61.93 11.42 62.38 11.57C63.66 11.98 64.24 12.66 64.24 13.76C64.24 14.83 63.57 15.66 62.7 15.66C62.48 15.66 62.29 15.58 61.96 15.34C61.6 15.08 61.35 14.97 61.12 14.97C60.8 14.97 60.64 15.1 60.64 15.38C60.64 15.8 61.16 16.07 61.99 16.07C62.92 16.07 63.72 15.77 64.28 15.2C64.79 14.7 65.02 14.07 65.02 13.23C65.02 12.43 64.81 11.92 64.25 11.37C63.77 10.88 63.13 10.62 61.83 10.39L62.29 9.45" />
		<path id="Layer" fill-rule="evenodd" class="shp7" d="M18.02 89.44C18.02 89.44 18.02 89.44 18.02 89.44C18.02 89.44 18.02 89.44 18.02 89.44L18.02 89.44ZM18.02 89.44C15.71 83.67 14.15 83.84 12.15 83.26L15.12 83.26C15.14 83.16 15.16 83.07 15.18 82.97C15.24 82.72 15.31 82.47 15.38 82.22C15.39 81.89 15.38 81.56 15.38 81.23C15.4 80.52 15.5 79.81 15.59 79.1C15.61 78.92 15.63 78.73 15.66 78.55C15.56 78.47 15.59 77.93 15.84 76.87C15.9 76.66 15.93 76.44 15.98 76.22C16.07 75.72 16.18 75.22 16.28 74.73C16.41 74.14 16.6 73.56 16.78 72.99C17.02 72.3 17.31 71.64 17.6 70.98C17.95 70.16 18.31 69.35 18.67 68.54C19.15 67.44 19.7 66.38 20.24 65.31C20.93 64 21.54 62.65 22.12 61.29C22.82 59.63 23.5 57.98 24.19 56.32C24.95 54.55 25.66 52.76 26.33 50.97C26.37 50.85 26.41 50.74 26.46 50.62C26.44 50.58 26.44 50.54 26.44 50.5C26.44 50.38 26.5 50.27 26.6 50.21C27.2 48.53 27.74 46.84 28.26 45.13C28.91 42.99 29.47 40.81 29.91 38.61C30.36 36.05 30.46 33.46 30.44 30.87C30.37 28.75 30.16 26.65 29.91 24.55C29.8 24.64 29.67 24.7 29.52 24.7C29.18 24.7 28.91 24.43 28.91 24.1C28.91 23.77 29.18 23.49 29.52 23.49C29.62 23.49 29.71 23.52 29.79 23.56L29.72 23C29.63 22.26 29.53 21.52 29.42 20.78C29.36 20.88 29.25 20.95 29.12 20.95C28.94 20.95 28.79 20.81 28.79 20.62C28.79 20.44 28.94 20.29 29.12 20.29C29.21 20.29 29.3 20.32 29.36 20.37C29.25 19.68 29.15 18.98 29.04 18.29C28.87 17.22 28.9 16.57 29.02 16.41C28.91 16.3 28.85 16.15 28.85 15.99C28.85 15.66 29.12 15.39 29.45 15.39C29.79 15.39 30.06 15.66 30.06 15.99C30.06 16.33 29.79 16.6 29.45 16.6C29.39 16.6 29.32 16.58 29.26 16.56C29.38 16.8 29.51 17.26 29.62 17.96C29.86 19.52 30.1 21.09 30.3 22.67C30.62 25.28 30.92 27.9 31 30.53C31.03 33.12 30.93 35.72 30.49 38.28C30.05 40.48 29.49 42.65 28.84 44.79C28.28 46.64 27.69 48.49 27.04 50.3C27.08 50.36 27.1 50.43 27.1 50.5C27.1 50.66 26.99 50.79 26.85 50.83C26.19 52.56 25.5 54.28 24.78 55.98C24.09 57.64 23.41 59.3 22.72 60.95C22.14 62.31 21.53 63.65 20.84 64.96C20.3 66.03 19.76 67.1 19.27 68.19C18.92 69 18.56 69.81 18.21 70.62C17.92 71.29 17.64 71.95 17.4 72.64C17.22 73.21 17.02 73.79 16.9 74.38C16.88 74.45 16.87 74.52 16.86 74.59C17.04 74.16 17.23 73.74 17.43 73.32C17.59 73.01 17.76 72.71 17.92 72.4C17.92 72.4 17.93 72.39 17.93 72.38C18.01 72.13 18.14 71.91 18.25 71.68C18.41 71.33 18.63 71 18.83 70.67C19.02 70.35 19.22 70.05 19.44 69.75C20.02 68.75 20.68 67.8 21.35 66.87C21.88 66.14 22.49 65.49 23.11 64.85C23.13 64.71 23.24 64.59 23.39 64.57L23.9 64.05C24.91 63.11 25.94 62.2 26.95 61.25C28.14 60.14 29.29 58.99 30.43 57.84C31.74 56.53 32.94 55.12 34.05 53.65C35.3 51.94 36.34 50.09 37.34 48.24C37.68 47.64 37.99 47.03 38.28 46.41L38.16 46.42C37.83 46.42 37.56 46.15 37.56 45.81C37.56 45.48 37.83 45.21 38.16 45.21C38.39 45.21 38.58 45.33 38.69 45.52C39.18 44.4 39.61 43.27 40 42.12L40.07 41.89C40.03 41.62 40.01 41.22 40.02 40.67C40.05 39.73 40.07 38.8 40.04 37.86C39.99 36.17 39.88 34.49 39.66 32.82C39.47 31.68 39.29 30.53 38.96 29.42C38.79 28.86 38.64 28.29 38.39 27.76C38.3 27.62 38.25 27.45 38.12 27.33C36.2 25.64 36.84 25.25 38.74 26.96C38.87 27.08 38.93 27.26 39.01 27.41C39.26 27.94 39.41 28.51 39.58 29.07C39.9 30.18 40.08 31.33 40.26 32.47C40.48 34.14 40.58 35.83 40.63 37.51C40.65 38.22 40.64 38.94 40.62 39.65C40.95 38.16 41.18 36.65 41.37 35.14C41.42 34.47 41.45 33.8 41.47 33.13C41.4 33.15 41.33 33.17 41.25 33.17C40.92 33.17 40.65 32.9 40.65 32.56C40.65 32.23 40.92 31.96 41.25 31.96C41.34 31.96 41.41 31.98 41.49 32.01C41.49 30.97 41.47 29.94 41.44 28.9C41.19 28.82 41.01 28.61 41.01 28.34C41.01 28.08 41.17 27.86 41.4 27.77C41.4 27.66 41.39 27.55 41.39 27.44C41.37 27.03 41.36 26.61 41.35 26.19C41.26 23.85 41.83 23.52 41.92 25.86C41.93 26.28 41.95 26.69 41.96 27.11C41.97 27.36 41.97 27.61 41.98 27.85C42.13 27.97 42.22 28.14 42.22 28.34C42.22 28.52 42.14 28.68 42.02 28.79C42.07 30.79 42.1 32.8 41.94 34.8C41.65 37.16 41.27 39.51 40.58 41.79C39.87 43.9 39.01 45.96 37.92 47.91C36.92 49.76 35.88 51.6 34.64 53.31C33.53 54.78 32.33 56.19 31.02 57.5C29.88 58.65 28.73 59.8 27.54 60.91C26.54 61.85 25.51 62.76 24.5 63.71C24.2 64.01 23.9 64.31 23.6 64.61C23.68 64.66 23.73 64.73 23.76 64.82C24.52 64.04 25.32 63.31 26.12 62.58L28.93 60.09C29.92 59.21 30.92 58.33 31.91 57.46C33.04 56.48 34.13 55.47 35.21 54.45C36.43 53.29 37.62 52.1 38.79 50.9C40.04 49.65 41.22 48.32 42.37 46.97C43.25 45.93 44.08 44.85 44.89 43.76C44.89 43.72 44.88 43.68 44.88 43.64C44.88 43.32 45.12 43.07 45.43 43.04L46.03 42.2C47.12 40.71 48.1 39.16 49.02 37.57C48.98 37.58 48.94 37.59 48.9 37.59C48.72 37.59 48.57 37.44 48.57 37.26C48.57 37.07 48.72 36.92 48.9 36.92C49.06 36.92 49.2 37.04 49.23 37.19C49.31 37.04 49.41 36.89 49.49 36.74C50.57 34.73 51.6 32.68 52.28 30.51C52.8 28.6 53.1 26.66 53.41 24.72C53.78 22.38 54.36 22.04 53.99 24.38C53.68 26.32 53.38 28.27 52.86 30.17C52.18 32.35 51.15 34.4 50.08 36.41C49.02 38.29 47.89 40.12 46.62 41.86C46.33 42.27 46.03 42.68 45.73 43.08C45.94 43.18 46.09 43.39 46.09 43.64C46.09 43.97 45.82 44.24 45.49 44.24C45.3 44.24 45.13 44.16 45.02 44.02C44.35 44.91 43.67 45.78 42.96 46.63C41.81 47.98 40.63 49.31 39.38 50.56C38.81 51.14 38.24 51.72 37.66 52.29C37.84 52.13 38.14 51.85 38.6 51.46C39.7 50.52 40.81 49.6 41.97 48.72C43.05 47.9 44.16 47.12 45.38 46.51C45.48 46.32 45.68 46.18 45.91 46.18C45.97 46.18 46.02 46.18 46.07 46.19C46.25 46.12 46.44 46.07 46.64 46.06C49.06 45.9 48.6 46.23 46.37 46.39C46.46 46.5 46.51 46.63 46.51 46.78C46.51 47.12 46.25 47.39 45.91 47.39C45.58 47.39 45.31 47.12 45.31 46.78C45.31 46.72 45.32 46.66 45.34 46.6L44.84 46.82C44.43 46.98 43.39 47.76 42.57 48.38C41.41 49.26 40.29 50.18 39.18 51.12C38.04 52.09 37.39 52.6 37.5 52.45C36.94 53.01 36.37 53.56 35.8 54.1C34.73 55.12 33.64 56.14 32.52 57.11C31.52 57.99 30.52 58.86 29.53 59.75C28.6 60.58 27.67 61.41 26.73 62.24C25.87 63.02 25 63.8 24.19 64.64C23.47 65.38 22.75 66.11 22.07 66.9C21.55 67.51 21.02 68.13 20.53 68.76L20.02 69.46C19.99 69.51 19.96 69.56 19.93 69.6C19.48 70.38 19.03 71.15 18.59 71.93L18.56 72.02C18.51 72.15 18.47 72.28 18.42 72.4C18.06 73.16 17.76 73.71 17.55 74.02C17.23 74.74 16.93 75.46 16.72 76.22C16.5 77.05 16.29 77.89 16.2 78.75C16.12 79.35 16.04 79.96 16.01 80.57L16.16 80.27C16.48 79.65 16.86 79.08 17.24 78.51C17.56 78.03 17.9 77.58 18.26 77.15C18.19 77.05 18.14 76.92 18.14 76.79C18.14 76.45 18.42 76.18 18.75 76.18C18.86 76.18 18.96 76.21 19.05 76.26C19.63 75.66 20.26 75.1 20.88 74.55C21.69 73.8 22.54 73.11 23.41 72.44C24.44 71.64 25.54 70.93 26.63 70.21C27.89 69.4 29.16 68.62 30.44 67.86L30.74 67.69C30.49 67.62 30.3 67.38 30.3 67.11C30.3 66.77 30.58 66.5 30.91 66.5C31.24 66.5 31.51 66.77 31.51 67.11C31.51 67.44 31.24 67.71 30.91 67.71C30.86 67.71 30.81 67.71 30.76 67.69C29.71 68.33 28.66 68.97 27.63 69.64C26.54 70.35 25.45 71.06 24.42 71.86C23.56 72.53 22.7 73.22 21.89 73.96C21.16 74.62 20.42 75.27 19.75 76L19.3 76.54C19.33 76.61 19.36 76.7 19.36 76.79C19.36 77.12 19.08 77.39 18.75 77.39C18.71 77.39 18.68 77.39 18.64 77.38C18.52 77.56 18.39 77.74 18.27 77.92C17.89 78.49 17.5 79.06 17.18 79.67C16.96 80.14 16.72 80.61 16.58 81.11C16.51 81.34 16.44 81.57 16.37 81.8C16.46 81.86 16.51 81.96 16.51 82.08C16.51 82.25 16.38 82.39 16.2 82.41C16.15 82.71 16.07 83.01 16.08 83.31C16.09 83.49 16.08 83.66 16.12 83.84C16.14 83.94 16.14 84.04 16.18 84.14C16.45 85.35 18.55 88.54 18.02 89.44ZM18.27 84.44C18.27 84.25 18.42 84.1 18.6 84.1C18.78 84.1 18.93 84.25 18.93 84.44C18.93 84.62 18.78 84.77 18.6 84.77C18.42 84.77 18.27 84.62 18.27 84.44ZM13.37 82.47C13.37 82.14 13.64 81.86 13.97 81.86C14.3 81.86 14.58 82.14 14.58 82.47C14.58 82.81 14.3 83.08 13.97 83.08C13.64 83.08 13.37 82.81 13.37 82.47ZM16.64 81.74C16.64 81.41 16.9 81.14 17.24 81.14C17.57 81.14 17.84 81.41 17.84 81.74C17.84 82.08 17.57 82.35 17.24 82.35C16.9 82.35 16.64 82.08 16.64 81.74ZM12.64 80.32C12.64 80.14 12.79 79.99 12.97 79.99C13.16 79.99 13.31 80.14 13.31 80.32C13.31 80.51 13.16 80.65 12.97 80.65C12.79 80.65 12.64 80.51 12.64 80.32ZM14.15 79.78C14.15 79.59 14.3 79.45 14.49 79.45C14.67 79.45 14.82 79.59 14.82 79.78C14.82 79.96 14.67 80.11 14.49 80.11C14.3 80.11 14.15 79.96 14.15 79.78ZM19.6 78.78C19.6 78.45 19.87 78.18 20.2 78.18C20.53 78.18 20.81 78.45 20.81 78.78C20.81 79.11 20.53 79.39 20.2 79.39C19.87 79.39 19.6 79.11 19.6 78.78ZM21.29 78.02C21.29 77.84 21.44 77.69 21.62 77.69C21.8 77.69 21.95 77.84 21.95 78.02C21.95 78.21 21.8 78.36 21.62 78.36C21.44 78.36 21.29 78.21 21.29 78.02ZM12.7 77.09C12.7 76.76 12.97 76.48 13.31 76.48C13.64 76.48 13.91 76.76 13.91 77.09C13.91 77.43 13.64 77.69 13.31 77.69C12.97 77.69 12.7 77.43 12.7 77.09ZM14.09 75.33C14.09 75 14.36 74.73 14.7 74.73C15.03 74.73 15.3 75 15.3 75.33C15.3 75.66 15.03 75.94 14.7 75.94C14.36 75.94 14.09 75.66 14.09 75.33ZM22.2 75.37C22.2 75.18 22.35 75.03 22.53 75.03C22.72 75.03 22.86 75.18 22.86 75.37C22.86 75.55 22.72 75.7 22.53 75.7C22.35 75.7 22.2 75.55 22.2 75.37ZM26.31 74.55C26.31 74.21 26.58 73.95 26.92 73.95C27.25 73.94 27.52 74.21 27.52 74.55C27.52 74.88 27.25 75.15 26.92 75.15C26.58 75.15 26.31 74.88 26.31 74.55ZM19.84 73.82C19.84 73.49 20.11 73.22 20.45 73.22C20.78 73.22 21.05 73.49 21.05 73.82C21.05 74.16 20.78 74.43 20.45 74.43C20.11 74.43 19.84 74.16 19.84 73.82ZM22.81 74.28C22.79 74.27 23.16 73.98 24.03 73.34C24.51 73 24.97 72.63 25.47 72.32C26.59 71.65 27.71 70.98 28.9 70.45C29.74 70.07 30.59 69.69 31.46 69.36C32.07 69.11 32.67 68.87 33.28 68.64L34.06 68.34C36.45 67.42 35.83 67.79 33.44 68.7L32.66 68.99C32.06 69.22 31.45 69.47 30.85 69.71C30.31 69.92 29.78 70.15 29.25 70.38C29.57 70.4 29.82 70.65 29.82 70.98C29.82 71.31 29.55 71.58 29.21 71.58C28.88 71.58 28.61 71.31 28.61 70.98C28.61 70.83 28.67 70.7 28.75 70.59L28.29 70.8C27.62 71.06 26.29 71.85 26.08 71.97C25.58 72.28 25.11 72.65 24.64 73C23.52 73.82 22.84 74.28 22.82 74.28L22.81 74.28ZM13.79 73.03C13.79 72.7 14.06 72.43 14.39 72.43C14.73 72.43 15 72.7 15 73.03C15 73.37 14.73 73.64 14.39 73.64C14.06 73.64 13.79 73.37 13.79 73.03ZM27.28 72.64C27.28 72.46 27.42 72.31 27.61 72.31C27.79 72.31 27.94 72.46 27.94 72.64C27.94 72.83 27.79 72.98 27.61 72.98C27.42 72.98 27.28 72.83 27.28 72.64ZM16.03 71.52C16.03 71.19 16.3 70.92 16.64 70.92C16.97 70.92 17.24 71.19 17.24 71.52C17.24 71.85 16.97 72.13 16.64 72.13C16.3 72.13 16.03 71.85 16.03 71.52ZM19.29 71.34C19.29 71.01 19.57 70.74 19.9 70.74C20.24 70.74 20.5 71.01 20.5 71.34C20.5 71.68 20.24 71.94 19.9 71.94C19.57 71.94 19.29 71.68 19.29 71.34ZM11.37 71.13C11.37 70.95 11.52 70.8 11.7 70.8C11.88 70.8 12.03 70.95 12.03 71.13C12.03 71.31 11.88 71.46 11.7 71.46C11.52 71.46 11.37 71.31 11.37 71.13ZM32.48 69.98C32.48 69.79 32.63 69.65 32.81 69.65C33 69.65 33.14 69.8 33.14 69.98C33.14 70.16 33 70.31 32.81 70.31C32.63 70.31 32.48 70.16 32.48 69.98ZM24.98 69.65C24.98 69.31 25.25 69.05 25.59 69.05C25.92 69.05 26.19 69.31 26.19 69.65C26.19 69.98 25.92 70.25 25.59 70.25C25.25 70.25 24.98 69.98 24.98 69.65ZM36.26 69.71C36.08 69.71 35.93 69.56 35.93 69.38C35.93 69.31 35.95 69.25 35.98 69.2C35.92 69.22 35.87 69.22 35.81 69.22C35.48 69.22 35.2 68.96 35.2 68.62C35.2 68.29 35.48 68.01 35.81 68.01C36.14 68.01 36.41 68.29 36.41 68.62C36.41 68.79 36.34 68.94 36.23 69.05L36.26 69.05C36.45 69.05 36.59 69.19 36.59 69.38C36.59 69.56 36.45 69.71 36.26 69.71L36.26 69.71ZM37.74 67.71C37.74 67.38 38.01 67.11 38.35 67.11C38.68 67.11 38.96 67.38 38.96 67.71C38.96 68.04 38.68 68.32 38.35 68.32C38.01 68.32 37.74 68.04 37.74 67.71ZM17.12 67.71C17.12 67.38 17.39 67.11 17.72 67.11C18.06 67.11 18.33 67.38 18.33 67.71C18.33 68.04 18.06 68.32 17.72 68.32C17.39 68.32 17.12 68.04 17.12 67.71ZM21.9 67.65C21.9 67.32 22.16 67.04 22.5 67.04C22.83 67.04 23.1 67.32 23.1 67.65C23.1 67.99 22.83 68.25 22.5 68.25C22.16 68.25 21.9 67.99 21.9 67.65ZM39.56 67.86C39.56 67.68 39.71 67.53 39.89 67.53C40.07 67.53 40.22 67.68 40.22 67.86C40.22 68.05 40.07 68.2 39.89 68.2C39.71 68.2 39.56 68.05 39.56 67.86ZM26.56 67.44C26.56 67.26 26.7 67.11 26.89 67.11C27.07 67.11 27.22 67.26 27.22 67.44C27.22 67.62 27.07 67.77 26.89 67.77C26.7 67.77 26.56 67.62 26.56 67.44ZM21.35 67.38C21.35 67.38 21.35 67.38 21.35 67.38C21.35 67.38 21.35 67.38 21.35 67.38L21.35 67.38ZM21.35 67.38C21.39 67.33 21.42 67.29 21.46 67.25C22.06 66.55 22.71 65.88 23.36 65.22C23.27 65.2 23.2 65.15 23.15 65.07C22.73 65.53 22.32 66.01 21.95 66.52C21.75 66.8 21.55 67.09 21.35 67.38ZM32.85 66.46C32.86 66.46 32.87 66.46 32.87 66.45C32.87 66.46 32.86 66.46 32.85 66.46L32.85 66.46ZM32.87 66.45C33.85 65.9 34.82 65.34 35.8 64.8C35.92 64.73 36.12 64.62 36.28 64.53C36.04 64.45 35.87 64.23 35.87 63.96C35.87 63.63 36.14 63.35 36.47 63.35C36.81 63.35 37.08 63.63 37.08 63.96C37.08 64.01 37.07 64.05 37.06 64.1L39.13 62.93C38.44 63.33 37.75 63.72 37.05 64.12C36.98 64.37 36.75 64.56 36.47 64.56C36.41 64.56 36.36 64.56 36.3 64.54C35.81 64.82 35.31 65.09 34.81 65.36C34.11 65.75 33.45 66.13 32.87 66.45ZM40.29 66.05C40.29 65.86 40.43 65.72 40.62 65.72C40.8 65.72 40.95 65.86 40.95 66.05C40.95 66.23 40.8 66.38 40.62 66.38C40.43 66.38 40.29 66.23 40.29 66.05ZM17.48 65.47C17.14 65.47 16.88 65.2 16.88 64.87C16.88 64.53 17.14 64.27 17.48 64.27C17.59 64.27 17.69 64.29 17.78 64.34C17.79 64.17 17.93 64.02 18.11 64.02C18.3 64.02 18.45 64.17 18.45 64.36C18.45 64.54 18.3 64.69 18.11 64.69C18.09 64.69 18.07 64.69 18.05 64.68C18.07 64.74 18.09 64.8 18.09 64.87C18.09 65.2 17.81 65.48 17.48 65.48L17.48 65.47ZM15.18 65.08C15.18 64.9 15.33 64.75 15.51 64.75C15.7 64.75 15.84 64.9 15.84 65.08C15.84 65.26 15.7 65.41 15.51 65.41C15.33 65.41 15.18 65.26 15.18 65.08ZM19.11 62.51C19.11 62.18 19.38 61.9 19.72 61.9C20.05 61.9 20.32 62.18 20.32 62.51C20.32 62.85 20.05 63.11 19.72 63.11C19.38 63.11 19.11 62.85 19.11 62.51ZM44.94 62.66C44.94 62.48 45.09 62.33 45.28 62.33C45.46 62.33 45.61 62.48 45.61 62.66C45.61 62.84 45.46 62.99 45.28 62.99C45.09 62.99 44.94 62.84 44.94 62.66ZM39.37 62.79L39.4 62.77C39.39 62.78 39.38 62.78 39.37 62.79L39.37 62.79ZM39.4 62.77C40.88 61.91 42.28 60.93 43.64 59.9C44.69 59.1 45.69 58.23 46.65 57.32C46.65 57.31 46.65 57.3 46.66 57.29C46.18 57.7 45.67 58.09 45.18 58.48C43.27 60.01 42.67 60.35 44.58 58.83C45.12 58.39 45.68 57.97 46.2 57.51C46.93 56.88 47.65 56.25 48.37 55.61C49.63 54.26 50.75 52.77 51.8 51.24C53.05 49.46 53.96 47.5 54.72 45.47C55.51 43.27 55.82 40.95 56 38.62C56.2 36.54 56.02 34.47 55.76 32.41C55.27 28.55 56.22 28.01 56.72 31.86C56.98 33.93 57.17 35.99 56.96 38.07C56.81 40.09 56.55 42.1 55.97 44.04C56.07 43.94 56.22 43.88 56.38 43.88C56.71 43.88 56.98 44.15 56.98 44.48C56.98 44.82 56.71 45.09 56.38 45.09C56.08 45.09 55.84 44.88 55.78 44.6C55.75 44.71 55.72 44.81 55.68 44.92C54.93 46.94 54.02 48.9 52.76 50.67C52.07 51.68 51.35 52.68 50.57 53.63C51.13 53.13 51.68 52.62 52.23 52.11L52.91 51.41C52.96 51.27 53.07 51.16 53.2 51.09C53.65 50.6 54.08 50.09 54.44 49.53C55.01 48.69 55.58 47.84 56.12 46.99C56.66 46.13 57.21 45.28 57.73 44.41C58.18 43.67 58.63 42.92 59.03 42.14C59.25 41.67 59.49 41.21 59.64 40.72C59.71 40.53 59.77 40.34 59.86 40.16C60.09 39.7 60.28 39.34 60.46 39.04C60.26 38.94 60.12 38.73 60.12 38.5C60.12 38.17 60.38 37.91 60.7 37.89C60.61 37.83 60.55 37.73 60.55 37.62C60.55 37.44 60.7 37.29 60.88 37.29C61.06 37.29 61.21 37.44 61.21 37.62C61.21 37.77 61.11 37.9 60.97 37.94C61.18 38.03 61.33 38.25 61.33 38.5C61.33 38.8 61.11 39.04 60.82 39.09C60.73 39.29 60.62 39.52 60.48 39.8C60.39 39.98 60.34 40.17 60.27 40.35C60.11 40.85 59.87 41.32 59.64 41.79L59.4 42.24C59.51 42.13 59.66 42.07 59.82 42.07C60.15 42.07 60.43 42.33 60.43 42.67C60.43 43 60.15 43.27 59.82 43.27C59.49 43.27 59.22 43 59.22 42.67C59.22 42.63 59.22 42.59 59.23 42.55C58.94 43.06 58.64 43.56 58.34 44.06C57.81 44.92 57.27 45.78 56.73 46.63C56.18 47.49 55.62 48.33 55.05 49.17C54.61 49.85 54.09 50.45 53.54 51.02C53.84 51.06 54.08 51.32 54.08 51.62C54.08 51.96 53.8 52.23 53.47 52.23C53.17 52.23 52.91 52 52.87 51.71L52.83 51.76C51.88 52.66 50.9 53.53 49.93 54.41L49.88 54.45C49.56 54.81 49.24 55.17 48.9 55.51C48.44 55.97 47.98 56.43 47.5 56.88C47.7 56.97 47.84 57.19 47.84 57.43C47.84 57.76 47.58 58.03 47.24 58.03C46.98 58.03 46.76 57.87 46.68 57.63C46.01 58.22 45.33 58.79 44.63 59.33C43.23 60.39 41.79 61.39 40.28 62.27L39.4 62.77ZM35.69 62.3C35.69 62.12 35.84 61.97 36.02 61.97C36.21 61.97 36.35 62.12 36.35 62.3C36.35 62.48 36.21 62.63 36.02 62.63C35.84 62.63 35.69 62.48 35.69 62.3ZM42.07 62.39L42.01 62.39C41.83 62.39 41.68 62.24 41.68 62.05C41.68 61.87 41.83 61.72 42.01 61.72C42.19 61.72 42.34 61.87 42.34 62.05C42.34 62.21 42.23 62.35 42.07 62.39ZM28.07 61.6C28.07 61.27 28.34 61 28.67 61C29 61 29.28 61.27 29.28 61.6C29.28 61.93 29 62.21 28.67 62.21C28.34 62.21 28.07 61.93 28.07 61.6ZM30.18 61.69C30.18 61.51 30.33 61.36 30.51 61.36C30.7 61.36 30.85 61.51 30.85 61.69C30.85 61.88 30.7 62.02 30.51 62.02C30.33 62.02 30.18 61.88 30.18 61.69ZM38.96 60.18C38.96 60 39.1 59.85 39.29 59.85C39.47 59.85 39.62 60 39.62 60.18C39.62 60.36 39.47 60.51 39.29 60.51C39.1 60.51 38.96 60.36 38.96 60.18ZM41.68 59.73C41.68 59.39 41.95 59.12 42.28 59.12C42.61 59.12 42.89 59.39 42.89 59.73C42.89 60.06 42.61 60.34 42.28 60.34C41.95 60.34 41.68 60.06 41.68 59.73ZM20.32 59.49C20.32 59.15 20.59 58.88 20.93 58.88C21.26 58.88 21.54 59.15 21.54 59.49C21.54 59.82 21.26 60.09 20.93 60.09C20.59 60.09 20.32 59.82 20.32 59.49ZM49.24 59.15C49.24 58.97 49.38 58.82 49.57 58.82C49.75 58.82 49.9 58.97 49.9 59.15C49.9 59.34 49.75 59.49 49.57 59.49C49.38 59.49 49.24 59.34 49.24 59.15ZM27.64 58.76C27.64 58.42 27.91 58.16 28.24 58.16C28.58 58.16 28.85 58.42 28.85 58.76C28.85 59.09 28.58 59.37 28.24 59.37C27.91 59.37 27.64 59.09 27.64 58.76ZM18.87 58C18.87 57.82 19.02 57.67 19.2 57.67C19.39 57.67 19.53 57.82 19.53 58C19.53 58.19 19.39 58.33 19.2 58.33C19.02 58.33 18.87 58.19 18.87 58ZM43.01 57.67C43.01 57.34 43.27 57.07 43.61 57.07C43.94 57.07 44.22 57.34 44.22 57.67C44.22 58 43.94 58.28 43.61 58.28C43.27 58.28 43.01 58 43.01 57.67ZM21.9 57.67C21.56 57.67 21.29 57.4 21.29 57.07C21.29 56.84 21.42 56.64 21.61 56.54C21.6 56.5 21.59 56.47 21.59 56.43C21.59 56.25 21.74 56.1 21.92 56.1C22.11 56.1 22.26 56.25 22.26 56.43C22.26 56.48 22.25 56.53 22.24 56.57C22.4 56.68 22.5 56.86 22.5 57.07C22.5 57.4 22.23 57.67 21.9 57.67L21.9 57.67ZM34.35 56.52C34.35 56.19 34.63 55.92 34.96 55.92C35.3 55.92 35.56 56.19 35.56 56.52C35.56 56.86 35.3 57.13 34.96 57.13C34.63 57.13 34.35 56.86 34.35 56.52ZM23.82 56.91C23.7 56.92 23.68 56.4 23.88 55.3C24.12 54.03 24.35 52.76 24.49 51.48C24.65 49.9 24.74 48.32 24.69 46.73C24.62 45.55 24.55 44.36 24.34 43.19C24.21 42.4 24.09 41.6 23.88 40.83C23.79 40.53 23.73 40.22 23.6 39.94C22.51 37.62 23.18 37.24 24.22 39.58C24.35 39.87 24.42 40.17 24.5 40.48C24.7 41.25 24.82 42.04 24.95 42.84C25.15 44.01 25.23 45.2 25.29 46.39C25.34 47.98 25.24 49.56 25.08 51.14C24.94 52.43 24.71 53.69 24.47 54.96C24.23 56.21 23.96 56.89 23.82 56.91L23.82 56.91ZM36.41 56.55C36.41 56.37 36.56 56.22 36.74 56.22C36.93 56.22 37.08 56.37 37.08 56.55C37.08 56.74 36.93 56.88 36.74 56.88C36.56 56.88 36.41 56.74 36.41 56.55ZM26.49 56.31C26.49 56.13 26.64 55.98 26.82 55.98C27.01 55.98 27.16 56.13 27.16 56.31C27.16 56.5 27.01 56.64 26.82 56.64C26.64 56.64 26.49 56.5 26.49 56.31ZM30.18 54.95C30.18 54.61 30.46 54.35 30.79 54.35C31.12 54.35 31.39 54.61 31.39 54.95C31.39 55.28 31.12 55.56 30.79 55.56C30.46 55.56 30.18 55.28 30.18 54.95ZM47.06 54.47C47.06 54.13 47.33 53.86 47.67 53.86C48 53.86 48.27 54.13 48.27 54.47C48.27 54.8 48 55.07 47.67 55.07C47.33 55.07 47.06 54.8 47.06 54.47ZM54.14 53.34C54.14 53.16 54.28 53.01 54.47 53.01C54.65 53.01 54.8 53.16 54.8 53.34C54.8 53.53 54.65 53.68 54.47 53.68C54.28 53.68 54.14 53.53 54.14 53.34ZM42.34 50.23C42.34 49.9 42.61 49.62 42.94 49.62C43.28 49.62 43.55 49.9 43.55 50.23C43.55 50.57 43.28 50.83 42.94 50.83C42.61 50.83 42.34 50.57 42.34 50.23ZM49.05 49.53C49.05 49.35 49.2 49.2 49.38 49.2C49.57 49.2 49.72 49.35 49.72 49.53C49.72 49.72 49.57 49.86 49.38 49.86C49.2 49.86 49.05 49.72 49.05 49.53ZM19.36 48.84C19.36 48.51 19.62 48.23 19.96 48.23C20.29 48.23 20.57 48.51 20.57 48.84C20.57 49.17 20.29 49.45 19.96 49.45C19.62 49.45 19.36 49.17 19.36 48.84ZM34.66 48.6C34.66 48.26 34.93 47.99 35.27 47.99C35.6 47.99 35.87 48.26 35.87 48.6C35.87 48.93 35.6 49.2 35.27 49.2C34.93 49.2 34.66 48.93 34.66 48.6ZM58.25 48.15C58.25 47.96 58.4 47.81 58.58 47.81C58.77 47.81 58.91 47.96 58.91 48.15C58.91 48.33 58.77 48.48 58.58 48.48C58.4 48.48 58.25 48.33 58.25 48.15ZM57.22 47.39C57.22 47.06 57.49 46.78 57.83 46.78C58.16 46.78 58.43 47.06 58.43 47.39C58.43 47.72 58.16 47.99 57.83 47.99C57.49 47.99 57.22 47.72 57.22 47.39ZM38.41 47.21C38.41 46.87 38.68 46.6 39.01 46.6C39.35 46.6 39.62 46.87 39.62 47.21C39.62 47.54 39.35 47.81 39.01 47.81C38.68 47.81 38.41 47.54 38.41 47.21ZM28.43 46.54C28.43 46.21 28.7 45.93 29.03 45.93C29.36 45.93 29.64 46.21 29.64 46.54C29.64 46.88 29.36 47.14 29.03 47.14C28.7 47.14 28.43 46.88 28.43 46.54ZM22.38 44.21C22.38 44.02 22.53 43.88 22.71 43.88C22.89 43.88 23.04 44.02 23.04 44.21C23.04 44.39 22.89 44.55 22.71 44.55C22.53 44.55 22.38 44.39 22.38 44.21ZM25.59 43.82C25.59 43.49 25.85 43.21 26.19 43.21C26.52 43.21 26.8 43.49 26.8 43.82C26.8 44.15 26.52 44.42 26.19 44.42C25.85 44.42 25.59 44.15 25.59 43.82ZM52.26 43.64C52.26 43.3 52.53 43.03 52.86 43.03C53.2 43.03 53.47 43.3 53.47 43.64C53.47 43.97 53.2 44.24 52.86 44.24C52.53 44.24 52.26 43.97 52.26 43.64ZM29.57 43.3C29.57 43.12 29.73 42.97 29.91 42.97C30.1 42.97 30.25 43.12 30.25 43.3C30.25 43.49 30.1 43.64 29.91 43.64C29.73 43.64 29.57 43.49 29.57 43.3ZM37.68 40.49C37.68 40.16 37.96 39.89 38.29 39.89C38.63 39.89 38.89 40.16 38.89 40.49C38.89 40.82 38.63 41.1 38.29 41.1C37.96 41.1 37.68 40.82 37.68 40.49ZM44.82 40.43C44.82 40.1 45.09 39.82 45.43 39.82C45.76 39.82 46.03 40.1 46.03 40.43C46.03 40.77 45.76 41.03 45.43 41.03C45.09 41.03 44.82 40.77 44.82 40.43ZM57.4 39.77C57.4 39.43 57.68 39.16 58.01 39.16C58.34 39.16 58.61 39.43 58.61 39.77C58.61 40.1 58.34 40.37 58.01 40.37C57.68 40.37 57.4 40.1 57.4 39.77ZM27.16 39.28C27.16 38.95 27.43 38.68 27.76 38.68C28.1 38.68 28.37 38.95 28.37 39.28C28.37 39.61 28.1 39.89 27.76 39.89C27.43 39.89 27.16 39.61 27.16 39.28ZM42.52 39.22C42.52 38.89 42.79 38.62 43.13 38.62C43.46 38.62 43.74 38.89 43.74 39.22C43.74 39.56 43.46 39.82 43.13 39.82C42.79 39.82 42.52 39.56 42.52 39.22ZM30.66 38.16C30.66 37.98 30.82 37.83 31 37.83C31.19 37.83 31.33 37.98 31.33 38.16C31.33 38.35 31.19 38.5 31 38.5C30.82 38.5 30.66 38.35 30.66 38.16ZM21.95 37.19C21.95 37.01 22.1 36.86 22.28 36.86C22.47 36.86 22.62 37.01 22.62 37.19C22.62 37.38 22.47 37.53 22.28 37.53C22.1 37.53 21.95 37.38 21.95 37.19ZM43.91 37.07C43.91 36.89 44.06 36.74 44.24 36.74C44.43 36.74 44.58 36.89 44.58 37.07C44.58 37.26 44.43 37.41 44.24 37.41C44.06 37.41 43.91 37.26 43.91 37.07ZM53.35 36.25C53.35 35.92 53.62 35.65 53.95 35.65C54.29 35.65 54.56 35.92 54.56 36.25C54.56 36.59 54.29 36.86 53.95 36.86C53.62 36.86 53.35 36.59 53.35 36.25ZM37.56 36.29C37.56 36.11 37.71 35.96 37.9 35.96C38.08 35.96 38.23 36.11 38.23 36.29C38.23 36.47 38.08 36.62 37.9 36.62C37.71 36.62 37.56 36.47 37.56 36.29ZM61.33 35.75C61.33 35.56 61.48 35.41 61.67 35.41C61.85 35.41 62 35.56 62 35.75C62 35.93 61.85 36.08 61.67 36.08C61.48 36.08 61.33 35.93 61.33 35.75ZM38.04 35.35C38.04 35.02 38.32 34.74 38.65 34.74C38.99 34.74 39.25 35.02 39.25 35.35C39.25 35.68 38.99 35.96 38.65 35.96C38.32 35.96 38.04 35.68 38.04 35.35ZM47.72 35.17C47.72 34.83 48 34.56 48.33 34.56C48.67 34.56 48.93 34.83 48.93 35.17C48.93 35.5 48.67 35.77 48.33 35.77C48 35.77 47.72 35.5 47.72 35.17ZM52.14 34.59C52.14 34.41 52.29 34.26 52.47 34.26C52.66 34.26 52.81 34.41 52.81 34.59C52.81 34.78 52.66 34.93 52.47 34.93C52.29 34.93 52.14 34.78 52.14 34.59ZM60.91 34.14C60.91 33.81 61.18 33.53 61.52 33.53C61.85 33.53 62.12 33.81 62.12 34.14C62.12 34.47 61.85 34.74 61.52 34.74C61.18 34.74 60.91 34.47 60.91 34.14ZM29.43 34.74C29.24 34.74 29.09 34.59 29.09 34.41C29.09 34.23 29.24 34.08 29.43 34.08C29.61 34.08 29.76 34.23 29.76 34.41C29.76 34.57 29.65 34.71 29.5 34.74L29.43 34.74ZM56.98 33.45C56.98 33.26 57.13 33.11 57.31 33.11C57.49 33.11 57.64 33.26 57.64 33.45C57.64 33.63 57.49 33.78 57.31 33.78C57.13 33.78 56.98 33.63 56.98 33.45ZM32.48 32.56C32.48 32.23 32.75 31.96 33.09 31.96C33.42 31.96 33.69 32.23 33.69 32.56C33.69 32.9 33.42 33.17 33.09 33.17C32.75 33.17 32.48 32.9 32.48 32.56ZM53.23 32.36C53.23 32.18 53.38 32.02 53.56 32.02C53.75 32.02 53.9 32.18 53.9 32.36C53.9 32.54 53.75 32.69 53.56 32.69C53.38 32.69 53.23 32.54 53.23 32.36ZM43.61 31.84C43.27 31.84 43.01 31.57 43.01 31.23C43.01 30.9 43.27 30.63 43.61 30.63C43.78 30.63 43.94 30.7 44.05 30.82C44.09 30.68 44.21 30.57 44.36 30.57C44.55 30.57 44.7 30.72 44.7 30.9C44.7 31.09 44.55 31.23 44.36 31.23C44.31 31.23 44.26 31.22 44.21 31.2C44.21 31.21 44.22 31.22 44.22 31.23C44.22 31.57 43.94 31.84 43.61 31.84ZM49.78 30.78C49.78 30.6 49.93 30.45 50.11 30.45C50.3 30.45 50.45 30.6 50.45 30.78C50.45 30.97 50.3 31.11 50.11 31.11C49.93 31.11 49.78 30.97 49.78 30.78ZM60.07 30.66C60.07 30.48 60.22 30.33 60.4 30.33C60.58 30.33 60.73 30.48 60.73 30.66C60.73 30.85 60.58 30.99 60.4 30.99C60.22 30.99 60.07 30.85 60.07 30.66ZM57.22 30.33C57.22 30 57.49 29.72 57.83 29.72C58.16 29.72 58.43 30 58.43 30.33C58.43 30.66 58.16 30.93 57.83 30.93C57.49 30.93 57.22 30.66 57.22 30.33ZM31.94 30.15C31.94 29.81 32.21 29.54 32.54 29.54C32.88 29.54 33.14 29.81 33.14 30.15C33.14 30.48 32.88 30.75 32.54 30.75C32.21 30.75 31.94 30.48 31.94 30.15ZM37.68 30.09C37.46 30.09 37.27 29.96 37.17 29.79C37.08 29.73 37.02 29.62 37.02 29.51C37.02 29.42 37.06 29.34 37.12 29.28C37.2 29.04 37.42 28.88 37.68 28.88C38.02 28.88 38.29 29.15 38.29 29.48C38.29 29.82 38.02 30.09 37.68 30.09L37.68 30.09ZM50.63 28.94C50.63 28.6 50.9 28.34 51.23 28.34C51.56 28.34 51.84 28.6 51.84 28.94C51.84 29.27 51.56 29.54 51.23 29.54C50.9 29.54 50.63 29.27 50.63 28.94ZM28.31 28.34C28.31 28 28.58 27.73 28.91 27.73C29.24 27.73 29.52 28 29.52 28.34C29.52 28.67 29.24 28.94 28.91 28.94C28.58 28.94 28.31 28.67 28.31 28.34ZM38.77 26.73C38.77 26.55 38.92 26.4 39.1 26.4C39.29 26.4 39.44 26.55 39.44 26.73C39.44 26.91 39.29 27.06 39.1 27.06C38.92 27.06 38.77 26.91 38.77 26.73ZM59.16 26.61C59.16 26.43 59.3 26.28 59.49 26.28C59.67 26.28 59.82 26.43 59.82 26.61C59.82 26.79 59.67 26.94 59.49 26.94C59.3 26.94 59.16 26.79 59.16 26.61ZM31.51 26.55C31.51 26.36 31.66 26.21 31.84 26.21C32.03 26.21 32.18 26.36 32.18 26.55C32.18 26.73 32.03 26.88 31.84 26.88C31.66 26.88 31.51 26.73 31.51 26.55ZM54.92 25.15C54.92 24.97 55.07 24.82 55.25 24.82C55.44 24.82 55.59 24.97 55.59 25.15C55.59 25.34 55.44 25.49 55.25 25.49C55.07 25.49 54.92 25.34 54.92 25.15ZM55.95 24.4C55.95 24.06 56.22 23.8 56.55 23.8C56.89 23.8 57.16 24.06 57.16 24.4C57.16 24.73 56.89 25.01 56.55 25.01C56.22 25.01 55.95 24.73 55.95 24.4ZM34.47 23.95C34.47 23.76 34.63 23.61 34.81 23.61C35 23.61 35.15 23.76 35.15 23.95C35.15 24.13 35 24.28 34.81 24.28C34.63 24.28 34.47 24.13 34.47 23.95ZM36.96 23.44C36.96 23.1 37.23 22.83 37.56 22.83C37.9 22.83 38.16 23.1 38.16 23.44C38.16 23.77 37.9 24.04 37.56 24.04C37.23 24.04 36.96 23.77 36.96 23.44ZM31.75 22.47C31.75 22.13 32.03 21.86 32.36 21.86C32.69 21.86 32.97 22.13 32.97 22.47C32.97 22.8 32.69 23.07 32.36 23.07C32.03 23.07 31.75 22.8 31.75 22.47ZM49.48 22.55C49.48 22.37 49.63 22.22 49.81 22.22C49.99 22.22 50.14 22.37 50.14 22.55C50.14 22.74 49.99 22.89 49.81 22.89C49.63 22.89 49.48 22.74 49.48 22.55ZM41.37 22.22C41.37 21.89 41.64 21.62 41.98 21.62C42.31 21.62 42.58 21.89 42.58 22.22C42.58 22.55 42.31 22.83 41.98 22.83C41.64 22.83 41.37 22.55 41.37 22.22ZM52.08 21.89C52.08 21.7 52.23 21.56 52.41 21.56C52.59 21.56 52.74 21.7 52.74 21.89C52.74 22.07 52.59 22.22 52.41 22.22C52.23 22.22 52.08 22.07 52.08 21.89ZM40.41 20.5C40.41 20.32 40.55 20.17 40.74 20.17C40.92 20.17 41.07 20.32 41.07 20.5C41.07 20.69 40.92 20.83 40.74 20.83C40.55 20.83 40.41 20.69 40.41 20.5ZM27.16 20.04C27.16 19.71 27.43 19.44 27.76 19.44C28.1 19.44 28.37 19.71 28.37 20.04C28.37 20.38 28.1 20.65 27.76 20.65C27.43 20.65 27.16 20.38 27.16 20.04ZM50.2 18.87C50.2 18.69 50.35 18.54 50.54 18.54C50.72 18.54 50.87 18.69 50.87 18.87C50.87 19.05 50.72 19.2 50.54 19.2C50.35 19.2 50.2 19.05 50.2 18.87ZM52.08 18.17C52.08 17.84 52.35 17.57 52.69 17.57C53.02 17.57 53.29 17.84 53.29 18.17C53.29 18.5 53.02 18.78 52.69 18.78C52.35 18.78 52.08 18.5 52.08 18.17ZM26.61 17.53C26.61 17.35 26.76 17.2 26.94 17.2C27.13 17.2 27.28 17.35 27.28 17.53C27.28 17.72 27.13 17.87 26.94 17.87C26.76 17.87 26.61 17.72 26.61 17.53ZM52.38 16.27C52.38 16.08 52.53 15.93 52.71 15.93C52.9 15.93 53.05 16.08 53.05 16.27C53.05 16.45 52.9 16.6 52.71 16.6C52.53 16.6 52.38 16.45 52.38 16.27ZM35.75 15.36C35.75 15.17 35.9 15.02 36.08 15.02C36.26 15.02 36.41 15.17 36.41 15.36C36.41 15.54 36.26 15.69 36.08 15.69C35.9 15.69 35.75 15.54 35.75 15.36ZM27.22 13.72C27.22 13.54 27.37 13.39 27.55 13.39C27.74 13.39 27.88 13.54 27.88 13.72C27.88 13.91 27.74 14.05 27.55 14.05C27.37 14.05 27.22 13.91 27.22 13.72ZM28.91 12.51C28.91 12.33 29.06 12.18 29.24 12.18C29.43 12.18 29.57 12.33 29.57 12.51C29.57 12.7 29.43 12.85 29.24 12.85C29.06 12.85 28.91 12.7 28.91 12.51Z" />
		<g id="Layer">
			<path id="Layer" class="shp8" d="M31.93 77.54C31.93 82.96 27.54 87.35 22.12 87.35C16.7 87.35 12.31 82.96 12.31 77.54C12.31 72.12 16.7 67.72 22.12 67.72C27.54 67.72 31.93 72.12 31.93 77.54Z" />
			<path id="Layer" class="shp9" d="M22.14 70.28C20.99 73.39 17.76 75.21 16.54 77.87C15.83 79.41 16.33 81.15 17.77 81.81C19.07 82.39 20.66 81.88 21.51 80.65C21.52 80.78 21.52 80.92 21.52 81.06C21.52 82.52 20.99 83.85 20.14 84.8L24.1 84.8C23.2 83.84 22.63 82.48 22.63 80.97C22.63 80.8 22.64 80.63 22.65 80.46C23.47 81.82 25.15 82.42 26.51 81.81C27.96 81.15 28.36 79.43 27.75 77.87C26.7 75.17 23.54 73.4 22.14 70.28L22.14 70.28Z" />
		</g>
		<g id="Layer">
			<path id="Layer" class="shp10" d="M31.93 24.08C31.93 29.5 27.54 33.89 22.12 33.89C16.7 33.89 12.31 29.5 12.31 24.08C12.31 18.66 16.7 14.26 22.12 14.26C27.54 14.26 31.93 18.66 31.93 24.08Z" />
			<path id="Layer" class="shp11" d="M22.14 16.82C20.99 19.93 17.76 21.75 16.54 24.41C15.83 25.95 16.33 27.69 17.77 28.35C19.07 28.93 20.66 28.42 21.51 27.19C21.52 27.32 21.52 27.46 21.52 27.6C21.52 29.06 20.99 30.39 20.14 31.34L24.1 31.34C23.2 30.38 22.63 29.02 22.63 27.51C22.63 27.34 22.64 27.17 22.65 27C23.47 28.36 25.15 28.96 26.51 28.35C27.96 27.69 28.36 25.97 27.75 24.41C26.7 21.71 23.54 19.94 22.14 16.82L22.14 16.82Z" />
		</g>
		<g id="Layer">
			<path id="Layer" class="shp12" d="M46.55 50.81C46.55 56.23 42.16 60.62 36.74 60.62C31.32 60.62 26.93 56.23 26.93 50.81C26.93 45.39 31.32 40.99 36.74 40.99C42.16 40.99 46.55 45.39 46.55 50.81Z" />
			<path id="Layer" class="shp13" d="M36.76 43.55C35.61 46.66 32.38 48.48 31.16 51.14C30.45 52.68 30.95 54.42 32.39 55.08C33.69 55.66 35.28 55.15 36.13 53.92C36.14 54.05 36.14 54.19 36.14 54.33C36.14 55.79 35.61 57.12 34.76 58.07L38.72 58.07C37.82 57.11 37.25 55.75 37.25 54.24C37.25 54.07 37.26 53.9 37.27 53.73C38.09 55.09 39.77 55.69 41.13 55.08C42.58 54.42 42.98 52.7 42.37 51.14C41.32 48.44 38.16 46.67 36.76 43.55L36.76 43.55Z" />
		</g>
		<g id="Layer">
			<path id="Layer" class="shp14" d="M63.18 77.54C63.18 82.96 58.79 87.35 53.37 87.35C47.95 87.35 43.56 82.96 43.56 77.54C43.56 72.12 47.95 67.72 53.37 67.72C58.79 67.72 63.18 72.12 63.18 77.54Z" />
			<path id="Layer" class="shp15" d="M53.39 70.28C52.24 73.39 49.01 75.21 47.79 77.87C47.08 79.41 47.58 81.15 49.02 81.81C50.32 82.39 51.91 81.88 52.76 80.65C52.77 80.78 52.77 80.92 52.77 81.06C52.77 82.52 52.24 83.85 51.39 84.8L55.35 84.8C54.45 83.84 53.88 82.48 53.88 80.97C53.88 80.8 53.89 80.63 53.9 80.46C54.72 81.82 56.4 82.42 57.76 81.81C59.21 81.15 59.61 79.43 59 77.87C57.95 75.17 54.79 73.4 53.39 70.28L53.39 70.28Z" />
		</g>
		<g id="Layer">
			<path id="Layer" class="shp16" d="M63.18 24.08C63.18 29.5 58.79 33.89 53.37 33.89C47.95 33.89 43.56 29.5 43.56 24.08C43.56 18.66 47.95 14.26 53.37 14.26C58.79 14.26 63.18 18.66 63.18 24.08Z" />
			<path id="Layer" class="shp17" d="M53.39 16.82C52.24 19.93 49.01 21.75 47.79 24.41C47.08 25.95 47.58 27.69 49.02 28.35C50.32 28.93 51.91 28.42 52.76 27.19C52.77 27.32 52.77 27.46 52.77 27.6C52.77 29.06 52.24 30.39 51.39 31.34L55.35 31.34C54.45 30.38 53.88 29.02 53.88 27.51C53.88 27.34 53.89 27.17 53.9 27C54.72 28.36 56.4 28.96 57.76 28.35C59.21 27.69 59.61 25.97 59 24.41C57.95 21.71 54.79 19.94 53.39 16.82L53.39 16.82Z" />
		</g>
	</g>
</svg>