<svg xmlns="http://www.w3.org/2000/svg" viewBox="0 0 73 102" width="73" height="102">
	<defs>
		<filter x="-50%" y="-50%" width="200%" height="200%" id="flt1"> <feGaussianBlur stdDeviation="0.85" /> </filter>
		<linearGradient id="grd1" gradientUnits="userSpaceOnUse"  x1="41.485" y1="26.385" x2="43.629" y2="-89.997">
			<stop offset="0" stop-color="#f3f3f3"  />
			<stop offset="1" stop-color="#8f8f8f"  />
		</linearGradient>
		<radialGradient id="grd2" gradientUnits="userSpaceOnUse"  cx="10.782" cy="91.687" r="13.273">
			<stop offset="0" stop-color="#ffffff"  />
			<stop offset="1" stop-color="#ffffff" stop-opacity="0" />
		</radialGradient>
		<radialGradient id="grd3" gradientUnits="userSpaceOnUse"  cx="62.36" cy="12.545" r="14.287">
			<stop offset="0" stop-color="#ffffff"  />
			<stop offset="1" stop-color="#ffffff" stop-opacity="0" />
		</radialGradient>
		<linearGradient id="grd4" gradientUnits="userSpaceOnUse"  x1="-84.558" y1="90.44" x2="-84.558" y2="87.26">
			<stop offset="0" stop-color="#000000"  />
			<stop offset="1" stop-color="#555753"  />
		</linearGradient>
		<radialGradient id="grd5" gradientUnits="userSpaceOnUse"  cx="18.218" cy="73.826" r="25.374">
			<stop offset="0" stop-color="#ffffff"  />
			<stop offset="1" stop-color="#ffffff" stop-opacity="0" />
		</radialGradient>
		<linearGradient id="grd6" gradientUnits="userSpaceOnUse"  x1="64.732" y1="11.3" x2="62.752" y2="9.92">
			<stop offset="0" stop-color="#000000"  />
			<stop offset="1" stop-color="#555753"  />
		</linearGradient>
		<radialGradient id="grd7" gradientUnits="userSpaceOnUse"  cx="36.852" cy="67.887" r="9.813">
			<stop offset="0" stop-color="#ffffff"  />
			<stop offset="1" stop-color="#ffffff" stop-opacity="0" />
		</radialGradient>
		<linearGradient id="grd8" gradientUnits="userSpaceOnUse"  x1="-458.367" y1="71.198" x2="-458.367" y2="64.59">
			<stop offset="0" stop-color="#000000"  />
			<stop offset="1" stop-color="#6f6f6f"  />
		</linearGradient>
		<radialGradient id="grd9" gradientUnits="userSpaceOnUse"  cx="36.852" cy="33.727" r="9.813">
			<stop offset="0" stop-color="#ffffff"  />
			<stop offset="1" stop-color="#ffffff" stop-opacity="0" />
		</radialGradient>
		<linearGradient id="grd10" gradientUnits="userSpaceOnUse"  x1="-458.367" y1="37.038" x2="-458.367" y2="30.43">
			<stop offset="0" stop-color="#000000"  />
			<stop offset="1" stop-color="#6f6f6f"  />
		</linearGradient>
	</defs>
	<style>
		tspan { white-space:pre }
		.shp0 { filter: url(#flt1);fill: #000000 } 
		.shp1 { fill: url(#grd1);stroke: #000000;stroke-width: 0.226 } 
		.shp2 { opacity: 0.31;fill: url(#grd2) } 
		.shp3 { opacity: 0.318;fill: url(#grd3) } 
		.shp4 { fill: none;stroke: #000000;stroke-width: 0.226 } 
		.shp5 { fill: url(#grd4);stroke: #1b1b1b;stroke-linejoin:round;stroke-width: 0.177 } 
		.shp6 { fill: url(#grd5) } 
		.shp7 { fill: url(#grd6) } 
		.shp8 { opacity: 0.4;fill: url(#grd7) } 
		.shp9 { fill: url(#grd8);stroke: #161616;stroke-linejoin:round;stroke-width: 0.368 } 
		.shp10 { opacity: 0.4;fill: url(#grd9) } 
		.shp11 { fill: url(#grd10);stroke: #161616;stroke-linejoin:round;stroke-width: 0.368 } 
	</style>
	<g id="-e-Spade2">
		<g id="Layer">
			<path id="Layer" fill-rule="evenodd" class="shp0" d="M5.05 1.56L68.13 1.56C68.59 1.56 69.05 1.66 69.48 1.83C69.91 2.01 70.3 2.27 70.63 2.6C70.96 2.93 71.22 3.32 71.39 3.75C71.57 4.18 71.66 4.64 71.66 5.1L71.66 97.21C71.66 97.68 71.57 98.14 71.39 98.57C71.22 99 70.96 99.39 70.63 99.71C70.3 100.04 69.91 100.3 69.48 100.48C69.05 100.66 68.59 100.75 68.13 100.75L5.05 100.75C4.58 100.75 4.12 100.66 3.69 100.48C3.27 100.3 2.88 100.04 2.55 99.71C2.22 99.39 1.96 99 1.78 98.57C1.6 98.14 1.51 97.68 1.51 97.21L1.51 5.1C1.51 4.64 1.6 4.18 1.78 3.75C1.96 3.32 2.22 2.93 2.55 2.6C2.88 2.27 3.27 2.01 3.69 1.83C4.12 1.66 4.58 1.56 5.05 1.56" />
			<path id="Layer" fill-rule="evenodd" class="shp1" d="M5.97 0.99L68.01 0.99C68.55 0.99 69.07 1.09 69.57 1.3C70.06 1.5 70.5 1.8 70.88 2.17C71.26 2.55 71.56 3 71.76 3.49C71.96 3.98 72.07 4.51 72.07 5.04L72.07 96.12C72.07 96.65 71.96 97.18 71.76 97.67C71.56 98.16 71.26 98.61 70.88 98.99C70.5 99.36 70.06 99.66 69.57 99.86C69.07 100.07 68.55 100.17 68.01 100.17L5.97 100.17C5.44 100.17 4.91 100.07 4.42 99.86C3.93 99.66 3.48 99.36 3.1 98.99C2.73 98.61 2.43 98.16 2.22 97.67C2.02 97.18 1.92 96.65 1.92 96.12L1.92 5.04C1.92 4.51 2.02 3.98 2.22 3.49C2.43 3 2.73 2.55 3.1 2.17C3.48 1.8 3.93 1.5 4.42 1.3C4.91 1.09 5.44 0.99 5.97 0.99" />
			<path id="Layer" class="shp2" d="M32.16 96.75L5.62 96.75L5.62 72.47L32.16 72.47L32.16 96.75Z" />
			<path id="Layer" class="shp3" d="M40.83 4.41L67.33 4.41C67.47 4.41 67.6 4.43 67.73 4.49C67.85 4.54 67.97 4.61 68.06 4.71C68.16 4.81 68.24 4.92 68.29 5.05C68.34 5.17 68.37 5.31 68.37 5.44L68.37 48.65C68.37 48.78 68.34 48.92 68.29 49.04C68.24 49.17 68.16 49.28 68.06 49.38C67.97 49.47 67.85 49.55 67.73 49.6C67.6 49.65 67.47 49.68 67.33 49.68L40.83 49.68C40.69 49.68 40.56 49.65 40.43 49.6C40.31 49.55 40.19 49.47 40.1 49.38C40 49.28 39.92 49.17 39.87 49.04C39.82 48.92 39.79 48.78 39.79 48.65L39.79 5.44C39.79 5.31 39.82 5.17 39.87 5.05C39.92 4.92 40 4.81 40.1 4.71C40.19 4.61 40.31 4.54 40.43 4.49C40.56 4.43 40.69 4.41 40.83 4.41" />
			<path id="Layer" class="shp4" d="M20.34 92.68L65.06 92.68L65.06 19.08" />
			<path id="Layer" class="shp4" d="M53.49 8.47L8.93 8.47L8.93 81.66" />
		</g>
		<path id="Layer" class="shp5" d="M12.11 85.35C11.55 86.85 10 87.73 9.41 89.01C9.07 89.75 9.31 90.59 10.01 90.9C10.63 91.19 11.4 90.94 11.81 90.35C11.81 90.41 11.81 90.48 11.81 90.54C11.81 91.25 11.56 91.89 11.15 92.35L13.06 92.35C12.62 91.88 12.35 91.23 12.35 90.5C12.35 90.42 12.35 90.34 12.36 90.26C12.75 90.91 13.56 91.2 14.22 90.9C14.91 90.59 15.11 89.76 14.81 89.01C14.31 87.71 12.79 86.86 12.11 85.35L12.11 85.35Z" />
		<path id="Layer" fill-rule="evenodd" class="shp6" d="M18.12 89.44C18.12 89.44 18.12 89.44 18.12 89.44C18.12 89.44 18.12 89.44 18.12 89.44L18.12 89.44ZM18.12 89.44C15.81 83.67 14.25 83.84 12.26 83.26L15.23 83.26C15.25 83.16 15.27 83.07 15.28 82.97C15.34 82.72 15.41 82.47 15.49 82.22C15.49 81.89 15.49 81.56 15.49 81.23C15.5 80.52 15.6 79.81 15.69 79.1C15.71 78.92 15.74 78.73 15.76 78.55C15.67 78.47 15.69 77.93 15.95 76.87C16 76.66 16.04 76.44 16.08 76.22C16.17 75.72 16.28 75.22 16.39 74.73C16.51 74.14 16.71 73.56 16.89 72.99C17.13 72.3 17.42 71.64 17.7 70.98C18.05 70.16 18.41 69.35 18.77 68.54C19.26 67.44 19.81 66.38 20.35 65.31C21.03 64 21.64 62.65 22.23 61.29C22.92 59.63 23.61 57.98 24.3 56.32C25.05 54.55 25.76 52.76 26.43 50.97C26.48 50.85 26.52 50.74 26.56 50.62C26.55 50.58 26.54 50.54 26.54 50.5C26.54 50.38 26.6 50.27 26.7 50.21C27.3 48.53 27.84 46.84 28.36 45.13C29.02 42.99 29.57 40.81 30.01 38.61C30.46 36.05 30.57 33.46 30.54 30.87C30.48 28.75 30.26 26.65 30.01 24.55C29.9 24.64 29.77 24.7 29.62 24.7C29.29 24.7 29.01 24.43 29.01 24.1C29.01 23.77 29.29 23.49 29.62 23.49C29.72 23.49 29.81 23.52 29.9 23.56L29.83 23C29.73 22.26 29.63 21.52 29.52 20.78C29.47 20.88 29.35 20.95 29.23 20.95C29.04 20.95 28.89 20.81 28.89 20.62C28.89 20.44 29.04 20.29 29.23 20.29C29.31 20.29 29.4 20.32 29.46 20.37C29.36 19.68 29.25 18.98 29.14 18.29C28.97 17.22 29 16.57 29.12 16.41C29.02 16.3 28.96 16.15 28.96 15.99C28.96 15.66 29.22 15.39 29.56 15.39C29.89 15.39 30.17 15.66 30.17 15.99C30.17 16.33 29.89 16.6 29.56 16.6C29.49 16.6 29.43 16.58 29.37 16.56C29.48 16.8 29.61 17.26 29.72 17.96C29.96 19.52 30.2 21.09 30.4 22.67C30.72 25.28 31.03 27.9 31.11 30.53C31.13 33.12 31.03 35.72 30.59 38.28C30.15 40.48 29.59 42.65 28.94 44.79C28.38 46.64 27.8 48.49 27.14 50.3C27.18 50.36 27.2 50.43 27.2 50.5C27.2 50.66 27.09 50.79 26.95 50.83C26.3 52.56 25.61 54.28 24.88 55.98C24.2 57.64 23.51 59.3 22.82 60.95C22.24 62.31 21.63 63.65 20.95 64.96C20.41 66.03 19.86 67.1 19.38 68.19C19.02 69 18.66 69.81 18.31 70.62C18.03 71.29 17.74 71.95 17.5 72.64C17.32 73.21 17.12 73.79 17 74.38C16.99 74.45 16.97 74.52 16.96 74.59C17.15 74.16 17.34 73.74 17.54 73.32C17.69 73.01 17.86 72.71 18.03 72.4C18.03 72.4 18.03 72.39 18.03 72.38C18.11 72.13 18.25 71.91 18.35 71.68C18.52 71.33 18.73 71 18.93 70.67C19.12 70.35 19.33 70.05 19.55 69.75C20.12 68.75 20.78 67.8 21.45 66.87C21.98 66.14 22.59 65.49 23.22 64.85C23.24 64.71 23.35 64.59 23.49 64.57L24.01 64.05C25.01 63.11 26.05 62.2 27.05 61.25C28.24 60.14 29.39 58.99 30.53 57.84C31.84 56.53 33.04 55.12 34.15 53.65C35.4 51.94 36.44 50.09 37.45 48.24C37.78 47.64 38.09 47.03 38.39 46.41L38.27 46.42C37.93 46.42 37.67 46.15 37.67 45.81C37.67 45.48 37.93 45.21 38.27 45.21C38.49 45.21 38.69 45.33 38.79 45.52C39.28 44.4 39.71 43.27 40.1 42.12L40.17 41.89C40.13 41.62 40.11 41.22 40.13 40.67C40.15 39.73 40.17 38.8 40.15 37.86C40.09 36.17 39.98 34.49 39.76 32.82C39.57 31.68 39.4 30.53 39.07 29.42C38.9 28.86 38.75 28.29 38.49 27.76C38.4 27.62 38.36 27.45 38.23 27.33C36.3 25.64 36.94 25.25 38.85 26.96C38.98 27.08 39.03 27.26 39.12 27.41C39.36 27.94 39.52 28.51 39.68 29.07C40.01 30.18 40.18 31.33 40.36 32.47C40.58 34.14 40.68 35.83 40.73 37.51C40.75 38.22 40.74 38.94 40.73 39.65C41.05 38.16 41.28 36.65 41.47 35.14C41.52 34.47 41.55 33.8 41.57 33.13C41.5 33.15 41.43 33.17 41.36 33.17C41.02 33.17 40.75 32.9 40.75 32.56C40.75 32.23 41.02 31.96 41.36 31.96C41.44 31.96 41.52 31.98 41.59 32.01C41.59 30.97 41.57 29.94 41.54 28.9C41.3 28.82 41.12 28.61 41.12 28.34C41.12 28.08 41.28 27.86 41.51 27.77C41.5 27.66 41.49 27.55 41.49 27.44C41.48 27.03 41.46 26.61 41.45 26.19C41.36 23.85 41.94 23.52 42.02 25.86C42.04 26.28 42.05 26.69 42.06 27.11C42.07 27.36 42.08 27.61 42.09 27.85C42.23 27.97 42.33 28.14 42.33 28.34C42.33 28.52 42.25 28.68 42.12 28.79C42.18 30.79 42.2 32.8 42.04 34.8C41.75 37.16 41.37 39.51 40.68 41.79C39.97 43.9 39.12 45.96 38.03 47.91C37.02 49.76 35.98 51.6 34.74 53.31C33.63 54.78 32.43 56.19 31.13 57.5C29.99 58.65 28.83 59.8 27.65 60.91C26.64 61.85 25.61 62.76 24.61 63.71C24.3 64.01 24 64.31 23.7 64.61C23.78 64.66 23.84 64.73 23.86 64.82C24.62 64.04 25.42 63.31 26.23 62.58L29.03 60.09C30.02 59.21 31.02 58.33 32.02 57.46C33.14 56.48 34.23 55.47 35.31 54.45C36.53 53.29 37.72 52.1 38.9 50.9C40.15 49.65 41.33 48.32 42.47 46.97C43.35 45.93 44.18 44.85 45 43.76C44.99 43.72 44.98 43.68 44.98 43.64C44.98 43.32 45.22 43.07 45.53 43.04L46.14 42.2C47.22 40.71 48.2 39.16 49.12 37.57C49.08 37.58 49.05 37.59 49.01 37.59C48.82 37.59 48.67 37.44 48.67 37.26C48.67 37.07 48.82 36.92 49.01 36.92C49.17 36.92 49.3 37.04 49.33 37.19C49.42 37.04 49.51 36.89 49.59 36.74C50.67 34.73 51.7 32.68 52.39 30.51C52.9 28.6 53.2 26.66 53.51 24.72C53.88 22.38 54.46 22.04 54.09 24.38C53.78 26.32 53.48 28.27 52.97 30.17C52.28 32.35 51.26 34.4 50.18 36.41C49.13 38.29 47.99 40.12 46.72 41.86C46.43 42.27 46.13 42.68 45.83 43.08C46.04 43.18 46.19 43.39 46.19 43.64C46.19 43.97 45.93 44.24 45.59 44.24C45.41 44.24 45.24 44.16 45.13 44.02C44.46 44.91 43.77 45.78 43.06 46.63C41.91 47.98 40.73 49.31 39.48 50.56C38.91 51.14 38.34 51.72 37.77 52.29C37.94 52.13 38.24 51.85 38.7 51.46C39.8 50.52 40.92 49.6 42.07 48.72C43.15 47.9 44.26 47.12 45.48 46.51C45.58 46.32 45.78 46.18 46.02 46.18C46.07 46.18 46.12 46.18 46.17 46.19C46.36 46.12 46.54 46.07 46.74 46.06C49.17 45.9 48.7 46.23 46.47 46.39C46.56 46.5 46.62 46.63 46.62 46.78C46.62 47.12 46.35 47.39 46.02 47.39C45.68 47.39 45.41 47.12 45.41 46.78C45.41 46.72 45.43 46.66 45.44 46.6L44.94 46.82C44.54 46.98 43.5 47.76 42.67 48.38C41.51 49.26 40.39 50.18 39.29 51.12C38.15 52.09 37.49 52.6 37.6 52.45C37.04 53.01 36.48 53.56 35.91 54.1C34.83 55.12 33.74 56.14 32.62 57.11C31.62 57.99 30.62 58.86 29.64 59.75C28.7 60.58 27.77 61.41 26.84 62.24C25.97 63.02 25.11 63.8 24.3 64.64C23.57 65.38 22.85 66.11 22.18 66.9C21.65 67.51 21.13 68.13 20.63 68.76L20.12 69.46C20.09 69.51 20.06 69.56 20.03 69.6C19.58 70.38 19.13 71.15 18.7 71.93L18.66 72.02C18.62 72.15 18.58 72.28 18.52 72.4C18.17 73.16 17.86 73.71 17.65 74.02C17.33 74.74 17.03 75.46 16.82 76.22C16.6 77.05 16.39 77.89 16.3 78.75C16.22 79.35 16.14 79.96 16.12 80.57L16.26 80.27C16.58 79.65 16.96 79.08 17.35 78.51C17.66 78.03 18 77.58 18.37 77.15C18.29 77.05 18.25 76.92 18.25 76.79C18.25 76.45 18.52 76.18 18.85 76.18C18.96 76.18 19.07 76.21 19.16 76.26C19.74 75.66 20.36 75.1 20.98 74.55C21.79 73.8 22.65 73.11 23.51 72.44C24.54 71.64 25.64 70.93 26.74 70.21C27.99 69.4 29.26 68.62 30.55 67.86L30.84 67.69C30.59 67.62 30.41 67.38 30.41 67.11C30.41 66.77 30.68 66.5 31.01 66.5C31.35 66.5 31.61 66.77 31.61 67.11C31.61 67.44 31.35 67.71 31.01 67.71C30.96 67.71 30.91 67.71 30.87 67.69C29.81 68.33 28.77 68.97 27.73 69.64C26.64 70.35 25.55 71.06 24.52 71.86C23.66 72.53 22.8 73.22 21.99 73.96C21.26 74.62 20.52 75.27 19.86 76L19.4 76.54C19.44 76.61 19.46 76.7 19.46 76.79C19.46 77.12 19.19 77.39 18.85 77.39C18.82 77.39 18.78 77.39 18.75 77.38C18.62 77.56 18.49 77.74 18.37 77.92C17.99 78.49 17.6 79.06 17.28 79.67C17.06 80.14 16.82 80.61 16.68 81.11C16.61 81.34 16.54 81.57 16.47 81.8C16.56 81.86 16.61 81.96 16.61 82.08C16.61 82.25 16.48 82.39 16.31 82.41C16.26 82.71 16.18 83.01 16.18 83.31C16.19 83.49 16.19 83.66 16.22 83.84C16.24 83.94 16.25 84.04 16.28 84.14C16.55 85.35 18.65 88.54 18.12 89.44ZM18.37 84.44C18.37 84.25 18.52 84.1 18.7 84.1C18.89 84.1 19.04 84.25 19.04 84.44C19.04 84.62 18.89 84.77 18.7 84.77C18.52 84.77 18.37 84.62 18.37 84.44ZM13.47 82.47C13.47 82.14 13.74 81.86 14.07 81.86C14.41 81.86 14.68 82.14 14.68 82.47C14.68 82.81 14.41 83.08 14.07 83.08C13.74 83.08 13.47 82.81 13.47 82.47ZM16.74 81.74C16.74 81.41 17.01 81.14 17.34 81.14C17.67 81.14 17.95 81.41 17.95 81.74C17.95 82.08 17.67 82.35 17.34 82.35C17.01 82.35 16.74 82.08 16.74 81.74ZM12.74 80.32C12.74 80.14 12.89 79.99 13.08 79.99C13.26 79.99 13.41 80.14 13.41 80.32C13.41 80.51 13.26 80.65 13.08 80.65C12.89 80.65 12.74 80.51 12.74 80.32ZM14.26 79.78C14.26 79.59 14.41 79.45 14.59 79.45C14.77 79.45 14.92 79.59 14.92 79.78C14.92 79.96 14.77 80.11 14.59 80.11C14.41 80.11 14.26 79.96 14.26 79.78ZM19.7 78.78C19.7 78.45 19.97 78.18 20.3 78.18C20.64 78.18 20.91 78.45 20.91 78.78C20.91 79.11 20.64 79.39 20.3 79.39C19.97 79.39 19.7 79.11 19.7 78.78ZM21.39 78.02C21.39 77.84 21.54 77.69 21.72 77.69C21.91 77.69 22.06 77.84 22.06 78.02C22.06 78.21 21.91 78.36 21.72 78.36C21.54 78.36 21.39 78.21 21.39 78.02ZM12.8 77.09C12.8 76.76 13.08 76.48 13.41 76.48C13.74 76.48 14.02 76.76 14.02 77.09C14.02 77.43 13.74 77.69 13.41 77.69C13.08 77.69 12.8 77.43 12.8 77.09ZM14.19 75.33C14.19 75 14.47 74.73 14.8 74.73C15.14 74.73 15.4 75 15.4 75.33C15.4 75.66 15.14 75.94 14.8 75.94C14.47 75.94 14.19 75.66 14.19 75.33ZM22.3 75.37C22.3 75.18 22.45 75.03 22.64 75.03C22.82 75.03 22.97 75.18 22.97 75.37C22.97 75.55 22.82 75.7 22.64 75.7C22.45 75.7 22.3 75.55 22.3 75.37ZM26.41 74.55C26.41 74.21 26.69 73.95 27.02 73.95C27.35 73.94 27.63 74.21 27.63 74.55C27.63 74.88 27.35 75.15 27.02 75.15C26.69 75.15 26.41 74.88 26.41 74.55ZM19.94 73.82C19.94 73.49 20.22 73.22 20.55 73.22C20.88 73.22 21.15 73.49 21.15 73.82C21.15 74.16 20.88 74.43 20.55 74.43C20.22 74.43 19.94 74.16 19.94 73.82ZM22.92 74.28C22.9 74.27 23.27 73.98 24.13 73.34C24.61 73 25.07 72.63 25.58 72.32C26.69 71.65 27.81 70.98 29 70.45C29.85 70.07 30.7 69.69 31.57 69.36C32.17 69.11 32.77 68.87 33.38 68.64L34.17 68.34C36.55 67.42 35.93 67.79 33.54 68.7L32.77 68.99C32.16 69.22 31.55 69.47 30.95 69.71C30.41 69.92 29.88 70.15 29.35 70.38C29.67 70.4 29.92 70.65 29.92 70.98C29.92 71.31 29.65 71.58 29.32 71.58C28.98 71.58 28.72 71.31 28.72 70.98C28.72 70.83 28.77 70.7 28.86 70.59L28.39 70.8C27.72 71.06 26.39 71.85 26.18 71.97C25.68 72.28 25.22 72.65 24.74 73C23.63 73.82 22.95 74.28 22.92 74.28L22.92 74.28ZM13.89 73.03C13.89 72.7 14.16 72.43 14.5 72.43C14.83 72.43 15.11 72.7 15.11 73.03C15.11 73.37 14.83 73.64 14.5 73.64C14.16 73.64 13.89 73.37 13.89 73.03ZM27.38 72.64C27.38 72.46 27.53 72.31 27.71 72.31C27.9 72.31 28.04 72.46 28.04 72.64C28.04 72.83 27.9 72.98 27.71 72.98C27.53 72.98 27.38 72.83 27.38 72.64ZM16.13 71.52C16.13 71.19 16.41 70.92 16.74 70.92C17.07 70.92 17.34 71.19 17.34 71.52C17.34 71.85 17.07 72.13 16.74 72.13C16.41 72.13 16.13 71.85 16.13 71.52ZM19.4 71.34C19.4 71.01 19.67 70.74 20.01 70.74C20.34 70.74 20.61 71.01 20.61 71.34C20.61 71.68 20.34 71.94 20.01 71.94C19.67 71.94 19.4 71.68 19.4 71.34ZM11.47 71.13C11.47 70.95 11.62 70.8 11.8 70.8C11.99 70.8 12.14 70.95 12.14 71.13C12.14 71.31 11.99 71.46 11.8 71.46C11.62 71.46 11.47 71.31 11.47 71.13ZM32.58 69.98C32.58 69.79 32.73 69.65 32.92 69.65C33.1 69.65 33.25 69.8 33.25 69.98C33.25 70.16 33.1 70.31 32.92 70.31C32.73 70.31 32.58 70.16 32.58 69.98ZM25.08 69.65C25.08 69.31 25.36 69.05 25.69 69.05C26.02 69.05 26.29 69.31 26.29 69.65C26.29 69.98 26.02 70.25 25.69 70.25C25.36 70.25 25.08 69.98 25.08 69.65ZM36.37 69.71C36.18 69.71 36.03 69.56 36.03 69.38C36.03 69.31 36.05 69.25 36.08 69.2C36.03 69.22 35.97 69.22 35.91 69.22C35.58 69.22 35.31 68.96 35.31 68.62C35.31 68.29 35.58 68.01 35.91 68.01C36.25 68.01 36.51 68.29 36.51 68.62C36.51 68.79 36.45 68.94 36.34 69.05L36.37 69.05C36.55 69.05 36.7 69.19 36.7 69.38C36.7 69.56 36.55 69.71 36.37 69.71L36.37 69.71ZM37.84 67.71C37.84 67.38 38.12 67.11 38.45 67.11C38.79 67.11 39.06 67.38 39.06 67.71C39.06 68.04 38.79 68.32 38.45 68.32C38.12 68.32 37.84 68.04 37.84 67.71ZM17.22 67.71C17.22 67.38 17.49 67.11 17.83 67.11C18.16 67.11 18.43 67.38 18.43 67.71C18.43 68.04 18.16 68.32 17.83 68.32C17.49 68.32 17.22 68.04 17.22 67.71ZM22 67.65C22 67.32 22.27 67.04 22.6 67.04C22.93 67.04 23.21 67.32 23.21 67.65C23.21 67.99 22.93 68.25 22.6 68.25C22.27 68.25 22 67.99 22 67.65ZM39.66 67.86C39.66 67.68 39.81 67.53 39.99 67.53C40.18 67.53 40.33 67.68 40.33 67.86C40.33 68.05 40.18 68.2 39.99 68.2C39.81 68.2 39.66 68.05 39.66 67.86ZM26.66 67.44C26.66 67.26 26.81 67.11 26.99 67.11C27.17 67.11 27.32 67.26 27.32 67.44C27.32 67.62 27.17 67.77 26.99 67.77C26.81 67.77 26.66 67.62 26.66 67.44ZM21.46 67.38C21.46 67.38 21.46 67.38 21.46 67.38C21.46 67.38 21.46 67.38 21.45 67.38L21.46 67.38ZM21.46 67.38C21.49 67.33 21.53 67.29 21.56 67.25C22.17 66.55 22.81 65.88 23.46 65.22C23.38 65.2 23.3 65.15 23.26 65.07C22.83 65.53 22.43 66.01 22.06 66.52C21.85 66.8 21.66 67.09 21.46 67.38ZM32.96 66.46C32.96 66.46 32.97 66.46 32.98 66.45C32.97 66.46 32.96 66.46 32.96 66.46L32.96 66.46ZM32.98 66.45C33.95 65.9 34.93 65.34 35.91 64.8C36.03 64.73 36.22 64.62 36.38 64.53C36.14 64.45 35.97 64.23 35.97 63.96C35.97 63.63 36.24 63.35 36.58 63.35C36.91 63.35 37.18 63.63 37.18 63.96C37.18 64.01 37.18 64.05 37.16 64.1L39.24 62.93C38.55 63.33 37.85 63.72 37.16 64.12C37.09 64.37 36.86 64.56 36.58 64.56C36.52 64.56 36.46 64.56 36.41 64.54C35.91 64.82 35.41 65.09 34.92 65.36C34.22 65.75 33.55 66.13 32.98 66.45ZM40.39 66.05C40.39 65.86 40.54 65.72 40.72 65.72C40.9 65.72 41.05 65.86 41.05 66.05C41.05 66.23 40.9 66.38 40.72 66.38C40.54 66.38 40.39 66.23 40.39 66.05ZM17.58 65.47C17.25 65.47 16.98 65.2 16.98 64.87C16.98 64.53 17.25 64.27 17.58 64.27C17.69 64.27 17.8 64.29 17.88 64.34C17.89 64.17 18.03 64.02 18.22 64.02C18.4 64.02 18.55 64.17 18.55 64.36C18.55 64.54 18.4 64.69 18.22 64.69C18.19 64.69 18.17 64.69 18.15 64.68C18.17 64.74 18.19 64.8 18.19 64.87C18.19 65.2 17.91 65.48 17.58 65.48L17.58 65.47ZM15.28 65.08C15.28 64.9 15.43 64.75 15.62 64.75C15.8 64.75 15.95 64.9 15.95 65.08C15.95 65.26 15.8 65.41 15.62 65.41C15.43 65.41 15.28 65.26 15.28 65.08ZM19.21 62.51C19.21 62.18 19.49 61.9 19.82 61.9C20.16 61.9 20.42 62.18 20.42 62.51C20.42 62.85 20.16 63.11 19.82 63.11C19.49 63.11 19.21 62.85 19.21 62.51ZM45.05 62.66C45.05 62.48 45.2 62.33 45.38 62.33C45.56 62.33 45.71 62.48 45.71 62.66C45.71 62.84 45.56 62.99 45.38 62.99C45.2 62.99 45.05 62.84 45.05 62.66ZM39.48 62.79L39.51 62.77C39.5 62.78 39.49 62.78 39.48 62.79L39.48 62.79ZM39.51 62.77C40.98 61.91 42.38 60.93 43.75 59.9C44.79 59.1 45.79 58.23 46.75 57.32C46.75 57.31 46.76 57.3 46.76 57.29C46.28 57.7 45.78 58.09 45.28 58.48C43.37 60.01 42.77 60.35 44.68 58.83C45.23 58.39 45.78 57.97 46.31 57.51C47.03 56.88 47.75 56.25 48.47 55.61C49.74 54.26 50.85 52.77 51.9 51.24C53.15 49.46 54.07 47.5 54.82 45.47C55.61 43.27 55.93 40.95 56.1 38.62C56.3 36.54 56.13 34.47 55.87 32.41C55.37 28.55 56.32 28.01 56.82 31.86C57.09 33.93 57.27 35.99 57.06 38.07C56.91 40.09 56.65 42.1 56.07 44.04C56.18 43.94 56.32 43.88 56.48 43.88C56.81 43.88 57.08 44.15 57.08 44.48C57.08 44.82 56.81 45.09 56.48 45.09C56.19 45.09 55.94 44.88 55.89 44.6C55.85 44.71 55.82 44.81 55.79 44.92C55.04 46.94 54.12 48.9 52.87 50.67C52.17 51.68 51.45 52.68 50.68 53.63C51.23 53.13 51.79 52.62 52.33 52.11L53.01 51.41C53.06 51.27 53.17 51.16 53.31 51.09C53.76 50.6 54.18 50.09 54.54 49.53C55.11 48.69 55.68 47.84 56.23 46.99C56.77 46.13 57.31 45.28 57.83 44.41C58.28 43.67 58.73 42.92 59.13 42.14C59.35 41.67 59.59 41.21 59.75 40.72C59.82 40.53 59.87 40.34 59.96 40.16C60.19 39.7 60.39 39.34 60.57 39.04C60.37 38.94 60.23 38.73 60.23 38.5C60.23 38.17 60.48 37.91 60.8 37.89C60.71 37.83 60.65 37.73 60.65 37.62C60.65 37.44 60.8 37.29 60.98 37.29C61.17 37.29 61.32 37.44 61.32 37.62C61.32 37.77 61.21 37.9 61.07 37.94C61.29 38.03 61.44 38.25 61.44 38.5C61.44 38.8 61.22 39.04 60.93 39.09C60.84 39.29 60.72 39.52 60.58 39.8C60.49 39.98 60.44 40.17 60.37 40.35C60.21 40.85 59.97 41.32 59.75 41.79L59.51 42.24C59.62 42.13 59.76 42.07 59.92 42.07C60.26 42.07 60.53 42.33 60.53 42.67C60.53 43 60.26 43.27 59.92 43.27C59.59 43.27 59.32 43 59.32 42.67C59.32 42.63 59.33 42.59 59.34 42.55C59.05 43.06 58.74 43.56 58.44 44.06C57.92 44.92 57.38 45.78 56.83 46.63C56.29 47.49 55.72 48.33 55.15 49.17C54.72 49.85 54.19 50.45 53.65 51.02C53.94 51.06 54.18 51.32 54.18 51.62C54.18 51.96 53.91 52.23 53.57 52.23C53.27 52.23 53.02 52 52.97 51.71L52.93 51.76C51.98 52.66 51.01 53.53 50.03 54.41L49.98 54.45C49.67 54.81 49.34 55.17 49.01 55.51C48.55 55.97 48.08 56.43 47.6 56.88C47.81 56.97 47.95 57.19 47.95 57.43C47.95 57.76 47.68 58.03 47.35 58.03C47.09 58.03 46.87 57.87 46.78 57.63C46.12 58.22 45.43 58.79 44.73 59.33C43.33 60.39 41.9 61.39 40.38 62.27L39.51 62.77ZM35.79 62.3C35.79 62.12 35.94 61.97 36.13 61.97C36.31 61.97 36.46 62.12 36.46 62.3C36.46 62.48 36.31 62.63 36.13 62.63C35.94 62.63 35.79 62.48 35.79 62.3ZM42.18 62.39L42.11 62.39C41.93 62.39 41.78 62.24 41.78 62.05C41.78 61.87 41.93 61.72 42.11 61.72C42.3 61.72 42.45 61.87 42.45 62.05C42.45 62.21 42.33 62.35 42.18 62.39ZM28.17 61.6C28.17 61.27 28.44 61 28.77 61C29.11 61 29.38 61.27 29.38 61.6C29.38 61.93 29.11 62.21 28.77 62.21C28.44 62.21 28.17 61.93 28.17 61.6ZM30.29 61.69C30.29 61.51 30.43 61.36 30.62 61.36C30.8 61.36 30.95 61.51 30.95 61.69C30.95 61.88 30.8 62.02 30.62 62.02C30.43 62.02 30.29 61.88 30.29 61.69ZM39.06 60.18C39.06 60 39.21 59.85 39.39 59.85C39.58 59.85 39.72 60 39.72 60.18C39.72 60.36 39.58 60.51 39.39 60.51C39.21 60.51 39.06 60.36 39.06 60.18ZM41.78 59.73C41.78 59.39 42.05 59.12 42.38 59.12C42.72 59.12 42.99 59.39 42.99 59.73C42.99 60.06 42.72 60.34 42.38 60.34C42.05 60.34 41.78 60.06 41.78 59.73ZM20.42 59.49C20.42 59.15 20.7 58.88 21.03 58.88C21.36 58.88 21.64 59.15 21.64 59.49C21.64 59.82 21.36 60.09 21.03 60.09C20.7 60.09 20.42 59.82 20.42 59.49ZM49.34 59.15C49.34 58.97 49.49 58.82 49.67 58.82C49.86 58.82 50 58.97 50 59.15C50 59.34 49.86 59.49 49.67 59.49C49.49 59.49 49.34 59.34 49.34 59.15ZM27.75 58.76C27.75 58.42 28.01 58.16 28.35 58.16C28.68 58.16 28.96 58.42 28.96 58.76C28.96 59.09 28.68 59.37 28.35 59.37C28.01 59.37 27.75 59.09 27.75 58.76ZM18.97 58C18.97 57.82 19.12 57.67 19.31 57.67C19.49 57.67 19.64 57.82 19.64 58C19.64 58.19 19.49 58.33 19.31 58.33C19.12 58.33 18.97 58.19 18.97 58ZM43.11 57.67C43.11 57.34 43.38 57.07 43.71 57.07C44.05 57.07 44.32 57.34 44.32 57.67C44.32 58 44.05 58.28 43.71 58.28C43.38 58.28 43.11 58 43.11 57.67ZM22 57.67C21.67 57.67 21.39 57.4 21.39 57.07C21.39 56.84 21.53 56.64 21.72 56.54C21.7 56.5 21.7 56.47 21.7 56.43C21.7 56.25 21.84 56.1 22.03 56.1C22.21 56.1 22.36 56.25 22.36 56.43C22.36 56.48 22.36 56.53 22.34 56.57C22.5 56.68 22.6 56.86 22.6 57.07C22.6 57.4 22.33 57.67 22 57.67L22 57.67ZM34.46 56.52C34.46 56.19 34.73 55.92 35.07 55.92C35.4 55.92 35.67 56.19 35.67 56.52C35.67 56.86 35.4 57.13 35.07 57.13C34.73 57.13 34.46 56.86 34.46 56.52ZM23.92 56.91C23.8 56.92 23.78 56.4 23.99 55.3C24.22 54.03 24.46 52.76 24.59 51.48C24.75 49.9 24.85 48.32 24.79 46.73C24.73 45.55 24.65 44.36 24.45 43.19C24.32 42.4 24.19 41.6 23.99 40.83C23.9 40.53 23.84 40.22 23.7 39.94C22.62 37.62 23.28 37.24 24.33 39.58C24.46 39.87 24.52 40.17 24.61 40.48C24.81 41.25 24.93 42.04 25.05 42.84C25.26 44.01 25.33 45.2 25.39 46.39C25.44 47.98 25.34 49.56 25.18 51.14C25.04 52.43 24.81 53.69 24.57 54.96C24.34 56.21 24.06 56.89 23.92 56.91L23.92 56.91ZM36.51 56.55C36.51 56.37 36.66 56.22 36.85 56.22C37.03 56.22 37.18 56.37 37.18 56.55C37.18 56.74 37.03 56.88 36.85 56.88C36.66 56.88 36.51 56.74 36.51 56.55ZM26.6 56.31C26.6 56.13 26.74 55.98 26.93 55.98C27.11 55.98 27.26 56.13 27.26 56.31C27.26 56.5 27.11 56.64 26.93 56.64C26.74 56.64 26.6 56.5 26.6 56.31ZM30.29 54.95C30.29 54.61 30.56 54.35 30.89 54.35C31.23 54.35 31.49 54.61 31.49 54.95C31.49 55.28 31.23 55.56 30.89 55.56C30.56 55.56 30.29 55.28 30.29 54.95ZM47.16 54.47C47.16 54.13 47.44 53.86 47.77 53.86C48.1 53.86 48.37 54.13 48.37 54.47C48.37 54.8 48.1 55.07 47.77 55.07C47.44 55.07 47.16 54.8 47.16 54.47ZM54.24 53.34C54.24 53.16 54.39 53.01 54.57 53.01C54.75 53.01 54.9 53.16 54.9 53.34C54.9 53.53 54.75 53.68 54.57 53.68C54.39 53.68 54.24 53.53 54.24 53.34ZM43.05 50.83C42.71 50.83 42.45 50.57 42.45 50.23C42.45 49.9 42.71 49.62 43.05 49.62C43.38 49.62 43.66 49.9 43.66 50.23C43.66 50.57 43.38 50.83 43.05 50.83ZM49.16 49.53C49.16 49.35 49.3 49.2 49.49 49.2C49.67 49.2 49.83 49.35 49.83 49.53C49.83 49.72 49.67 49.86 49.49 49.86C49.3 49.86 49.16 49.72 49.16 49.53ZM19.46 48.84C19.46 48.51 19.73 48.23 20.06 48.23C20.4 48.23 20.67 48.51 20.67 48.84C20.67 49.17 20.4 49.45 20.06 49.45C19.73 49.45 19.46 49.17 19.46 48.84ZM34.76 48.6C34.76 48.26 35.04 47.99 35.37 47.99C35.7 47.99 35.97 48.26 35.97 48.6C35.97 48.93 35.7 49.2 35.37 49.2C35.04 49.2 34.76 48.93 34.76 48.6ZM58.35 48.15C58.35 47.96 58.5 47.81 58.69 47.81C58.87 47.81 59.02 47.96 59.02 48.15C59.02 48.33 58.87 48.48 58.69 48.48C58.5 48.48 58.35 48.33 58.35 48.15ZM57.32 47.39C57.32 47.06 57.6 46.78 57.93 46.78C58.26 46.78 58.54 47.06 58.54 47.39C58.54 47.72 58.26 47.99 57.93 47.99C57.6 47.99 57.32 47.72 57.32 47.39ZM38.52 47.21C38.52 46.87 38.78 46.6 39.12 46.6C39.45 46.6 39.72 46.87 39.72 47.21C39.72 47.54 39.45 47.81 39.12 47.81C38.78 47.81 38.52 47.54 38.52 47.21ZM28.53 46.54C28.53 46.21 28.8 45.93 29.13 45.93C29.47 45.93 29.74 46.21 29.74 46.54C29.74 46.88 29.47 47.14 29.13 47.14C28.8 47.14 28.53 46.88 28.53 46.54ZM22.48 44.21C22.48 44.02 22.63 43.88 22.81 43.88C23 43.88 23.14 44.02 23.14 44.21C23.14 44.39 23 44.55 22.81 44.55C22.63 44.55 22.48 44.39 22.48 44.21ZM25.69 43.82C25.69 43.49 25.96 43.21 26.29 43.21C26.62 43.21 26.9 43.49 26.9 43.82C26.9 44.15 26.62 44.42 26.29 44.42C25.96 44.42 25.69 44.15 25.69 43.82ZM52.37 43.64C52.37 43.3 52.63 43.03 52.97 43.03C53.3 43.03 53.57 43.3 53.57 43.64C53.57 43.97 53.3 44.24 52.97 44.24C52.63 44.24 52.37 43.97 52.37 43.64ZM29.68 43.3C29.68 43.12 29.83 42.97 30.02 42.97C30.2 42.97 30.35 43.12 30.35 43.3C30.35 43.49 30.2 43.64 30.02 43.64C29.83 43.64 29.68 43.49 29.68 43.3ZM37.79 40.49C37.79 40.16 38.06 39.89 38.4 39.89C38.73 39.89 39 40.16 39 40.49C39 40.82 38.73 41.1 38.4 41.1C38.06 41.1 37.79 40.82 37.79 40.49ZM44.93 40.43C44.93 40.1 45.19 39.82 45.53 39.82C45.86 39.82 46.14 40.1 46.14 40.43C46.14 40.77 45.86 41.03 45.53 41.03C45.19 41.03 44.93 40.77 44.93 40.43ZM57.51 39.77C57.51 39.43 57.78 39.16 58.11 39.16C58.45 39.16 58.71 39.43 58.71 39.77C58.71 40.1 58.45 40.37 58.11 40.37C57.78 40.37 57.51 40.1 57.51 39.77ZM27.26 39.28C27.26 38.95 27.53 38.68 27.87 38.68C28.2 38.68 28.47 38.95 28.47 39.28C28.47 39.61 28.2 39.89 27.87 39.89C27.53 39.89 27.26 39.61 27.26 39.28ZM43.23 39.82C42.9 39.82 42.62 39.56 42.62 39.22C42.62 38.89 42.9 38.62 43.23 38.62C43.56 38.62 43.84 38.89 43.84 39.22C43.84 39.56 43.56 39.82 43.23 39.82ZM30.77 38.16C30.77 37.98 30.92 37.83 31.11 37.83C31.29 37.83 31.44 37.98 31.44 38.16C31.44 38.35 31.29 38.5 31.11 38.5C30.92 38.5 30.77 38.35 30.77 38.16ZM22.06 37.19C22.06 37.01 22.2 36.86 22.39 36.86C22.57 36.86 22.73 37.01 22.73 37.19C22.73 37.38 22.57 37.53 22.39 37.53C22.2 37.53 22.06 37.38 22.06 37.19ZM44.02 37.07C44.02 36.89 44.16 36.74 44.35 36.74C44.53 36.74 44.68 36.89 44.68 37.07C44.68 37.26 44.53 37.41 44.35 37.41C44.16 37.41 44.02 37.26 44.02 37.07ZM53.45 36.25C53.45 35.92 53.72 35.65 54.06 35.65C54.39 35.65 54.66 35.92 54.66 36.25C54.66 36.59 54.39 36.86 54.06 36.86C53.72 36.86 53.45 36.59 53.45 36.25ZM37.67 36.29C37.67 36.11 37.82 35.96 38 35.96C38.18 35.96 38.33 36.11 38.33 36.29C38.33 36.47 38.18 36.62 38 36.62C37.82 36.62 37.67 36.47 37.67 36.29ZM61.44 35.75C61.44 35.56 61.59 35.41 61.77 35.41C61.95 35.41 62.1 35.56 62.1 35.75C62.1 35.93 61.95 36.08 61.77 36.08C61.59 36.08 61.44 35.93 61.44 35.75ZM38.15 35.35C38.15 35.02 38.42 34.74 38.76 34.74C39.09 34.74 39.36 35.02 39.36 35.35C39.36 35.68 39.09 35.96 38.76 35.96C38.42 35.96 38.15 35.68 38.15 35.35ZM47.83 35.17C47.83 34.83 48.1 34.56 48.43 34.56C48.77 34.56 49.04 34.83 49.04 35.17C49.04 35.5 48.77 35.77 48.43 35.77C48.1 35.77 47.83 35.5 47.83 35.17ZM52.25 34.59C52.25 34.41 52.39 34.26 52.58 34.26C52.76 34.26 52.91 34.41 52.91 34.59C52.91 34.78 52.76 34.93 52.58 34.93C52.39 34.93 52.25 34.78 52.25 34.59ZM61.01 34.14C61.01 33.81 61.29 33.53 61.62 33.53C61.95 33.53 62.22 33.81 62.22 34.14C62.22 34.47 61.95 34.74 61.62 34.74C61.29 34.74 61.01 34.47 61.01 34.14ZM29.53 34.74C29.35 34.74 29.2 34.59 29.2 34.41C29.2 34.23 29.35 34.08 29.53 34.08C29.71 34.08 29.86 34.23 29.86 34.41C29.86 34.57 29.75 34.71 29.6 34.74L29.53 34.74ZM57.08 33.45C57.08 33.26 57.23 33.11 57.41 33.11C57.6 33.11 57.75 33.26 57.75 33.45C57.75 33.63 57.6 33.78 57.41 33.78C57.23 33.78 57.08 33.63 57.08 33.45ZM32.58 32.56C32.58 32.23 32.86 31.96 33.19 31.96C33.53 31.96 33.79 32.23 33.79 32.56C33.79 32.9 33.53 33.17 33.19 33.17C32.86 33.17 32.58 32.9 32.58 32.56ZM53.33 32.36C53.33 32.18 53.48 32.02 53.67 32.02C53.85 32.02 54 32.18 54 32.36C54 32.54 53.85 32.69 53.67 32.69C53.48 32.69 53.33 32.54 53.33 32.36ZM43.71 31.84C43.38 31.84 43.11 31.57 43.11 31.23C43.11 30.9 43.38 30.63 43.71 30.63C43.88 30.63 44.04 30.7 44.15 30.82C44.19 30.68 44.32 30.57 44.47 30.57C44.65 30.57 44.8 30.72 44.8 30.9C44.8 31.09 44.65 31.23 44.47 31.23C44.41 31.23 44.36 31.22 44.31 31.2C44.31 31.21 44.32 31.22 44.32 31.23C44.32 31.57 44.05 31.84 43.71 31.84ZM49.88 30.78C49.88 30.6 50.03 30.45 50.22 30.45C50.4 30.45 50.55 30.6 50.55 30.78C50.55 30.97 50.4 31.11 50.22 31.11C50.03 31.11 49.88 30.97 49.88 30.78ZM60.17 30.66C60.17 30.48 60.32 30.33 60.5 30.33C60.69 30.33 60.84 30.48 60.84 30.66C60.84 30.85 60.69 30.99 60.5 30.99C60.32 30.99 60.17 30.85 60.17 30.66ZM57.32 30.33C57.32 30 57.6 29.72 57.93 29.72C58.26 29.72 58.54 30 58.54 30.33C58.54 30.66 58.26 30.93 57.93 30.93C57.6 30.93 57.32 30.66 57.32 30.33ZM32.04 30.15C32.04 29.81 32.31 29.54 32.65 29.54C32.98 29.54 33.25 29.81 33.25 30.15C33.25 30.48 32.98 30.75 32.65 30.75C32.31 30.75 32.04 30.48 32.04 30.15ZM37.79 30.09C37.57 30.09 37.38 29.96 37.27 29.79C37.18 29.73 37.12 29.62 37.12 29.51C37.12 29.42 37.16 29.34 37.22 29.28C37.31 29.04 37.53 28.88 37.79 28.88C38.12 28.88 38.4 29.15 38.4 29.48C38.4 29.82 38.12 30.09 37.79 30.09L37.79 30.09ZM50.73 28.94C50.73 28.6 51 28.34 51.33 28.34C51.67 28.34 51.94 28.6 51.94 28.94C51.94 29.27 51.67 29.54 51.33 29.54C51 29.54 50.73 29.27 50.73 28.94ZM28.41 28.34C28.41 28 28.68 27.73 29.01 27.73C29.35 27.73 29.62 28 29.62 28.34C29.62 28.67 29.35 28.94 29.01 28.94C28.68 28.94 28.41 28.67 28.41 28.34ZM38.88 26.73C38.88 26.55 39.02 26.4 39.21 26.4C39.39 26.4 39.54 26.55 39.54 26.73C39.54 26.91 39.39 27.06 39.21 27.06C39.02 27.06 38.88 26.91 38.88 26.73ZM59.26 26.61C59.26 26.43 59.41 26.28 59.59 26.28C59.78 26.28 59.92 26.43 59.92 26.61C59.92 26.79 59.78 26.94 59.59 26.94C59.41 26.94 59.26 26.79 59.26 26.61ZM31.62 26.55C31.62 26.36 31.76 26.21 31.95 26.21C32.13 26.21 32.28 26.36 32.28 26.55C32.28 26.73 32.13 26.88 31.95 26.88C31.76 26.88 31.62 26.73 31.62 26.55ZM55.02 25.15C55.02 24.97 55.17 24.82 55.36 24.82C55.54 24.82 55.69 24.97 55.69 25.15C55.69 25.34 55.54 25.49 55.36 25.49C55.17 25.49 55.02 25.34 55.02 25.15ZM56.06 24.4C56.06 24.06 56.32 23.8 56.66 23.8C56.99 23.8 57.27 24.06 57.27 24.4C57.27 24.73 56.99 25.01 56.66 25.01C56.32 25.01 56.06 24.73 56.06 24.4ZM34.58 23.95C34.58 23.76 34.73 23.61 34.92 23.61C35.1 23.61 35.25 23.76 35.25 23.95C35.25 24.13 35.1 24.28 34.92 24.28C34.73 24.28 34.58 24.13 34.58 23.95ZM37.06 23.44C37.06 23.1 37.33 22.83 37.67 22.83C38 22.83 38.27 23.1 38.27 23.44C38.27 23.77 38 24.04 37.67 24.04C37.33 24.04 37.06 23.77 37.06 23.44ZM31.86 22.47C31.86 22.13 32.13 21.86 32.46 21.86C32.8 21.86 33.07 22.13 33.07 22.47C33.07 22.8 32.8 23.07 32.46 23.07C32.13 23.07 31.86 22.8 31.86 22.47ZM49.58 22.55C49.58 22.37 49.73 22.22 49.91 22.22C50.1 22.22 50.24 22.37 50.24 22.55C50.24 22.74 50.1 22.89 49.91 22.89C49.73 22.89 49.58 22.74 49.58 22.55ZM41.48 22.22C41.48 21.89 41.74 21.62 42.08 21.62C42.41 21.62 42.69 21.89 42.69 22.22C42.69 22.55 42.41 22.83 42.08 22.83C41.74 22.83 41.48 22.55 41.48 22.22ZM52.18 21.89C52.18 21.7 52.33 21.56 52.51 21.56C52.7 21.56 52.85 21.7 52.85 21.89C52.85 22.07 52.7 22.22 52.51 22.22C52.33 22.22 52.18 22.07 52.18 21.89ZM40.51 20.5C40.51 20.32 40.66 20.17 40.84 20.17C41.03 20.17 41.17 20.32 41.17 20.5C41.17 20.69 41.03 20.83 40.84 20.83C40.66 20.83 40.51 20.69 40.51 20.5ZM27.26 20.04C27.26 19.71 27.53 19.44 27.87 19.44C28.2 19.44 28.47 19.71 28.47 20.04C28.47 20.38 28.2 20.65 27.87 20.65C27.53 20.65 27.26 20.38 27.26 20.04ZM50.31 18.87C50.31 18.69 50.46 18.54 50.64 18.54C50.82 18.54 50.97 18.69 50.97 18.87C50.97 19.05 50.82 19.2 50.64 19.2C50.46 19.2 50.31 19.05 50.31 18.87ZM52.18 18.17C52.18 17.84 52.46 17.57 52.79 17.57C53.12 17.57 53.39 17.84 53.39 18.17C53.39 18.5 53.12 18.78 52.79 18.78C52.46 18.78 52.18 18.5 52.18 18.17ZM26.72 17.53C26.72 17.35 26.86 17.2 27.05 17.2C27.23 17.2 27.38 17.35 27.38 17.53C27.38 17.72 27.23 17.87 27.05 17.87C26.86 17.87 26.72 17.72 26.72 17.53ZM52.49 16.27C52.49 16.08 52.63 15.93 52.82 15.93C53 15.93 53.15 16.08 53.15 16.27C53.15 16.45 53 16.6 52.82 16.6C52.63 16.6 52.49 16.45 52.49 16.27ZM35.85 15.36C35.85 15.17 36 15.02 36.18 15.02C36.37 15.02 36.51 15.17 36.51 15.36C36.51 15.54 36.37 15.69 36.18 15.69C36 15.69 35.85 15.54 35.85 15.36ZM27.32 13.72C27.32 13.54 27.47 13.39 27.66 13.39C27.84 13.39 27.99 13.54 27.99 13.72C27.99 13.91 27.84 14.05 27.66 14.05C27.47 14.05 27.32 13.91 27.32 13.72ZM29.01 12.51C29.01 12.33 29.16 12.18 29.35 12.18C29.53 12.18 29.68 12.33 29.68 12.51C29.68 12.7 29.53 12.85 29.35 12.85C29.16 12.85 29.01 12.7 29.01 12.51Z" />
		<path id="Layer" class="shp7" d="M65.21 14.33L65.07 14.28C64.66 14.91 64.52 15.01 64.02 15.01L61.37 15.01L63.23 13.06C64.22 12.03 64.65 11.18 64.65 10.32C64.65 9.21 63.75 8.36 62.6 8.36C61.99 8.36 61.41 8.6 61 9.04C60.65 9.42 60.48 9.77 60.29 10.56L60.52 10.62C60.97 9.53 61.37 9.18 62.13 9.18C63.06 9.18 63.7 9.81 63.7 10.74C63.7 11.6 63.19 12.64 62.25 13.62L60.28 15.72L60.28 15.85L64.6 15.85L65.21 14.33" />
		<g id="Layer">
			<path id="Layer" class="shp8" d="M46.66 67.89C46.66 73.31 42.27 77.7 36.85 77.7C31.43 77.7 27.04 73.31 27.04 67.89C27.04 62.47 31.43 58.07 36.85 58.07C42.27 58.07 46.66 62.47 46.66 67.89Z" />
			<path id="Layer" class="shp9" d="M36.87 60.63C35.71 63.74 32.49 65.56 31.26 68.22C30.55 69.76 31.05 71.5 32.5 72.16C33.8 72.74 35.38 72.23 36.24 71C36.25 71.13 36.25 71.27 36.25 71.41C36.25 72.87 35.72 74.2 34.86 75.15L38.83 75.15C37.93 74.19 37.36 72.83 37.36 71.32C37.36 71.15 37.36 70.98 37.38 70.81C38.2 72.17 39.87 72.77 41.24 72.16C42.68 71.5 43.08 69.78 42.48 68.22C41.43 65.52 38.27 63.75 36.87 60.63L36.87 60.63Z" />
		</g>
		<g id="Layer">
			<path id="Layer" class="shp10" d="M46.66 33.73C46.66 39.15 42.27 43.54 36.85 43.54C31.43 43.54 27.04 39.15 27.04 33.73C27.04 28.31 31.43 23.91 36.85 23.91C42.27 23.91 46.66 28.31 46.66 33.73Z" />
			<path id="Layer" class="shp11" d="M36.87 26.47C35.71 29.58 32.49 31.4 31.26 34.06C30.55 35.6 31.05 37.34 32.5 38C33.8 38.58 35.38 38.07 36.24 36.84C36.25 36.97 36.25 37.11 36.25 37.25C36.25 38.71 35.72 40.04 34.86 40.99L38.83 40.99C37.93 40.03 37.36 38.67 37.36 37.16C37.36 36.99 37.36 36.82 37.38 36.65C38.2 38.01 39.87 38.61 41.24 38C42.68 37.34 43.08 35.62 42.48 34.06C41.43 31.36 38.27 29.59 36.87 26.47L36.87 26.47Z" />
		</g>
	</g>
</svg>