<svg xmlns="http://www.w3.org/2000/svg" viewBox="0 0 72 102" width="72" height="102">
	<defs>
		<filter x="-50%" y="-50%" width="200%" height="200%" id="flt1"> <feGaussianBlur stdDeviation="0.85" /> </filter>
		<linearGradient id="grd1" gradientUnits="userSpaceOnUse"  x1="40.908" y1="26.385" x2="43.053" y2="-89.997">
			<stop offset="0" stop-color="#f3f3f3"  />
			<stop offset="1" stop-color="#8f8f8f"  />
		</linearGradient>
		<radialGradient id="grd2" gradientUnits="userSpaceOnUse"  cx="10.206" cy="91.687" r="13.273">
			<stop offset="0" stop-color="#ffffff"  />
			<stop offset="1" stop-color="#ffffff" stop-opacity="0" />
		</radialGradient>
		<radialGradient id="grd3" gradientUnits="userSpaceOnUse"  cx="61.784" cy="12.545" r="14.287">
			<stop offset="0" stop-color="#ffffff"  />
			<stop offset="1" stop-color="#ffffff" stop-opacity="0" />
		</radialGradient>
		<linearGradient id="grd4" gradientUnits="userSpaceOnUse"  x1="-631.375" y1="90.81" x2="-631.375" y2="87.62">
			<stop offset="0" stop-color="#000000"  />
			<stop offset="1" stop-color="#555753"  />
		</linearGradient>
		<linearGradient id="grd5" gradientUnits="userSpaceOnUse"  x1="-631.373" y1="14.45" x2="-631.373" y2="10.76">
			<stop offset="0" stop-color="#000000"  />
			<stop offset="1" stop-color="#555753"  />
		</linearGradient>
		<radialGradient id="grd6" gradientUnits="userSpaceOnUse"  cx="17.64" cy="73.826" r="25.374">
			<stop offset="0" stop-color="#ffffff"  />
			<stop offset="1" stop-color="#ffffff" stop-opacity="0" />
		</radialGradient>
		<radialGradient id="grd7" gradientUnits="userSpaceOnUse"  cx="53.134" cy="20.427" r="9.813">
			<stop offset="0" stop-color="#ffffff"  />
			<stop offset="1" stop-color="#ffffff" stop-opacity="0" />
		</radialGradient>
		<linearGradient id="grd8" gradientUnits="userSpaceOnUse"  x1="-442.085" y1="23.738" x2="-442.085" y2="17.13">
			<stop offset="0" stop-color="#000000"  />
			<stop offset="1" stop-color="#6f6f6f"  />
		</linearGradient>
		<radialGradient id="grd9" gradientUnits="userSpaceOnUse"  cx="19.784" cy="20.427" r="9.813">
			<stop offset="0" stop-color="#ffffff"  />
			<stop offset="1" stop-color="#ffffff" stop-opacity="0" />
		</radialGradient>
		<linearGradient id="grd10" gradientUnits="userSpaceOnUse"  x1="-475.435" y1="23.738" x2="-475.435" y2="17.13">
			<stop offset="0" stop-color="#000000"  />
			<stop offset="1" stop-color="#6f6f6f"  />
		</linearGradient>
		<radialGradient id="grd11" gradientUnits="userSpaceOnUse"  cx="19.784" cy="81.187" r="9.813">
			<stop offset="0" stop-color="#ffffff"  />
			<stop offset="1" stop-color="#ffffff" stop-opacity="0" />
		</radialGradient>
		<linearGradient id="grd12" gradientUnits="userSpaceOnUse"  x1="-475.435" y1="84.498" x2="-475.435" y2="77.89">
			<stop offset="0" stop-color="#000000"  />
			<stop offset="1" stop-color="#6f6f6f"  />
		</linearGradient>
		<radialGradient id="grd13" gradientUnits="userSpaceOnUse"  cx="19.784" cy="40.707" r="9.813">
			<stop offset="0" stop-color="#ffffff"  />
			<stop offset="1" stop-color="#ffffff" stop-opacity="0" />
		</radialGradient>
		<linearGradient id="grd14" gradientUnits="userSpaceOnUse"  x1="-475.435" y1="44.018" x2="-475.435" y2="37.41">
			<stop offset="0" stop-color="#000000"  />
			<stop offset="1" stop-color="#6f6f6f"  />
		</linearGradient>
		<radialGradient id="grd15" gradientUnits="userSpaceOnUse"  cx="53.134" cy="40.707" r="9.813">
			<stop offset="0" stop-color="#ffffff"  />
			<stop offset="1" stop-color="#ffffff" stop-opacity="0" />
		</radialGradient>
		<linearGradient id="grd16" gradientUnits="userSpaceOnUse"  x1="-442.085" y1="44.018" x2="-442.085" y2="37.41">
			<stop offset="0" stop-color="#000000"  />
			<stop offset="1" stop-color="#6f6f6f"  />
		</linearGradient>
		<radialGradient id="grd17" gradientUnits="userSpaceOnUse"  cx="53.134" cy="81.187" r="9.813">
			<stop offset="0" stop-color="#ffffff"  />
			<stop offset="1" stop-color="#ffffff" stop-opacity="0" />
		</radialGradient>
		<linearGradient id="grd18" gradientUnits="userSpaceOnUse"  x1="-442.085" y1="84.498" x2="-442.085" y2="77.89">
			<stop offset="0" stop-color="#000000"  />
			<stop offset="1" stop-color="#6f6f6f"  />
		</linearGradient>
		<radialGradient id="grd19" gradientUnits="userSpaceOnUse"  cx="19.784" cy="61.237" r="9.813">
			<stop offset="0" stop-color="#ffffff"  />
			<stop offset="1" stop-color="#ffffff" stop-opacity="0" />
		</radialGradient>
		<linearGradient id="grd20" gradientUnits="userSpaceOnUse"  x1="-475.435" y1="64.548" x2="-475.435" y2="57.94">
			<stop offset="0" stop-color="#000000"  />
			<stop offset="1" stop-color="#6f6f6f"  />
		</linearGradient>
		<radialGradient id="grd21" gradientUnits="userSpaceOnUse"  cx="53.134" cy="61.237" r="9.813">
			<stop offset="0" stop-color="#ffffff"  />
			<stop offset="1" stop-color="#ffffff" stop-opacity="0" />
		</radialGradient>
		<linearGradient id="grd22" gradientUnits="userSpaceOnUse"  x1="-442.085" y1="64.548" x2="-442.085" y2="57.94">
			<stop offset="0" stop-color="#000000"  />
			<stop offset="1" stop-color="#6f6f6f"  />
		</linearGradient>
		<radialGradient id="grd23" gradientUnits="userSpaceOnUse"  cx="36.994" cy="50.807" r="9.813">
			<stop offset="0" stop-color="#ffffff"  />
			<stop offset="1" stop-color="#ffffff" stop-opacity="0" />
		</radialGradient>
		<linearGradient id="grd24" gradientUnits="userSpaceOnUse"  x1="-458.226" y1="54.118" x2="-458.226" y2="47.51">
			<stop offset="0" stop-color="#000000"  />
			<stop offset="1" stop-color="#6f6f6f"  />
		</linearGradient>
	</defs>
	<style>
		tspan { white-space:pre }
		.shp0 { filter: url(#flt1);fill: #000000 } 
		.shp1 { fill: url(#grd1);stroke: #000000;stroke-width: 0.226 } 
		.shp2 { opacity: 0.31;fill: url(#grd2) } 
		.shp3 { opacity: 0.318;fill: url(#grd3) } 
		.shp4 { fill: none;stroke: #000000;stroke-width: 0.226 } 
		.shp5 { fill: url(#grd4);stroke: #1b1b1b;stroke-linejoin:round;stroke-width: 0.177 } 
		.shp6 { fill: url(#grd5) } 
		.shp7 { fill: url(#grd6) } 
		.shp8 { opacity: 0.4;fill: url(#grd7) } 
		.shp9 { fill: url(#grd8);stroke: #161616;stroke-linejoin:round;stroke-width: 0.368 } 
		.shp10 { opacity: 0.4;fill: url(#grd9) } 
		.shp11 { fill: url(#grd10);stroke: #161616;stroke-linejoin:round;stroke-width: 0.368 } 
		.shp12 { opacity: 0.4;fill: url(#grd11) } 
		.shp13 { fill: url(#grd12);stroke: #161616;stroke-linejoin:round;stroke-width: 0.368 } 
		.shp14 { opacity: 0.4;fill: url(#grd13) } 
		.shp15 { fill: url(#grd14);stroke: #161616;stroke-linejoin:round;stroke-width: 0.368 } 
		.shp16 { opacity: 0.4;fill: url(#grd15) } 
		.shp17 { fill: url(#grd16);stroke: #161616;stroke-linejoin:round;stroke-width: 0.368 } 
		.shp18 { opacity: 0.4;fill: url(#grd17) } 
		.shp19 { fill: url(#grd18);stroke: #161616;stroke-linejoin:round;stroke-width: 0.368 } 
		.shp20 { opacity: 0.4;fill: url(#grd19) } 
		.shp21 { fill: url(#grd20);stroke: #161616;stroke-linejoin:round;stroke-width: 0.368 } 
		.shp22 { opacity: 0.4;fill: url(#grd21) } 
		.shp23 { fill: url(#grd22);stroke: #161616;stroke-linejoin:round;stroke-width: 0.368 } 
		.shp24 { opacity: 0.4;fill: url(#grd23) } 
		.shp25 { fill: url(#grd24);stroke: #161616;stroke-linejoin:round;stroke-width: 0.368 } 
	</style>
	<g id="-e-Spade9">
		<g id="Layer">
			<path id="Layer" fill-rule="evenodd" class="shp0" d="M4.47 1.56L67.55 1.56C68.02 1.56 68.48 1.66 68.91 1.83C69.33 2.01 69.72 2.27 70.05 2.6C70.38 2.93 70.64 3.32 70.82 3.75C71 4.18 71.09 4.64 71.09 5.1L71.09 97.21C71.09 97.68 71 98.14 70.82 98.57C70.64 99 70.38 99.39 70.05 99.71C69.72 100.04 69.33 100.3 68.91 100.48C68.48 100.66 68.02 100.75 67.55 100.75L4.47 100.75C4.01 100.75 3.55 100.66 3.12 100.48C2.69 100.3 2.3 100.04 1.97 99.71C1.64 99.39 1.38 99 1.2 98.57C1.03 98.14 0.94 97.68 0.94 97.21L0.94 5.1C0.94 4.64 1.03 4.18 1.2 3.75C1.38 3.32 1.64 2.93 1.97 2.6C2.3 2.27 2.69 2.01 3.12 1.83C3.55 1.66 4.01 1.56 4.47 1.56" />
			<path id="Layer" fill-rule="evenodd" class="shp1" d="M5.39 0.99L67.44 0.99C67.97 0.99 68.5 1.09 68.99 1.3C69.48 1.5 69.93 1.8 70.3 2.17C70.68 2.55 70.98 3 71.18 3.49C71.39 3.98 71.49 4.51 71.49 5.04L71.49 96.12C71.49 96.65 71.39 97.18 71.18 97.67C70.98 98.16 70.68 98.61 70.3 98.99C69.93 99.36 69.48 99.66 68.99 99.86C68.5 100.07 67.97 100.17 67.44 100.17L5.39 100.17C4.86 100.17 4.33 100.07 3.84 99.86C3.35 99.66 2.9 99.36 2.53 98.99C2.15 98.61 1.85 98.16 1.65 97.67C1.44 97.18 1.34 96.65 1.34 96.12L1.34 5.04C1.34 4.51 1.44 3.98 1.65 3.49C1.85 3 2.15 2.55 2.53 2.17C2.9 1.8 3.35 1.5 3.84 1.3C4.33 1.09 4.86 0.99 5.39 0.99" />
			<path id="Layer" class="shp2" d="M31.59 96.75L5.04 96.75L5.04 72.47L31.59 72.47L31.59 96.75Z" />
			<path id="Layer" class="shp3" d="M40.25 4.41L66.76 4.41C66.89 4.41 67.03 4.43 67.15 4.49C67.28 4.54 67.39 4.61 67.49 4.71C67.58 4.81 67.66 4.92 67.71 5.05C67.76 5.17 67.79 5.31 67.79 5.44L67.79 48.65C67.79 48.78 67.76 48.92 67.71 49.04C67.66 49.17 67.58 49.28 67.49 49.38C67.39 49.47 67.28 49.55 67.15 49.6C67.03 49.65 66.89 49.68 66.76 49.68L40.25 49.68C40.12 49.68 39.98 49.65 39.86 49.6C39.73 49.55 39.62 49.47 39.52 49.38C39.42 49.28 39.35 49.17 39.3 49.04C39.24 48.92 39.22 48.78 39.22 48.65L39.22 5.44C39.22 5.31 39.24 5.17 39.3 5.05C39.35 4.92 39.42 4.81 39.52 4.71C39.62 4.61 39.73 4.54 39.86 4.49C39.98 4.43 40.12 4.41 40.25 4.41" />
			<path id="Layer" class="shp4" d="M19.76 92.68L64.48 92.68L64.48 19.08" />
			<path id="Layer" class="shp4" d="M52.91 8.47L8.35 8.47L8.35 81.66" />
		</g>
		<path id="Layer" class="shp5" d="M11.38 85.72C10.82 87.22 9.27 88.09 8.68 89.37C8.34 90.11 8.58 90.96 9.27 91.27C9.9 91.55 10.67 91.3 11.08 90.71C11.08 90.78 11.08 90.84 11.08 90.91C11.08 91.62 10.83 92.25 10.41 92.71L12.33 92.71C11.89 92.25 11.62 91.6 11.62 90.87C11.62 90.79 11.62 90.7 11.63 90.62C12.02 91.28 12.83 91.57 13.49 91.27C14.18 90.96 14.37 90.13 14.08 89.37C13.58 88.07 12.05 87.22 11.38 85.72L11.38 85.72Z" />
		<path id="Layer" fill-rule="evenodd" class="shp6" d="M60.23 16.01C60.23 16.01 60.23 16.01 60.23 16.01L60.23 16.01M60.23 16.01L60.2 15.79C61.88 15.5 63.11 14.31 63.57 12.51C62.98 12.96 62.51 13.14 61.9 13.14C60.71 13.14 59.91 12.24 59.91 10.89C59.91 9.39 60.89 8.27 62.21 8.27C63.64 8.27 64.66 9.57 64.66 11.4C64.66 12.89 63.99 14.27 62.83 15.11C62.08 15.66 61.47 15.87 60.23 16.01ZM63.59 11.83L63.59 11.4C63.59 9.53 63.09 8.58 62.12 8.58C61.8 8.58 61.53 8.7 61.34 8.92C61.1 9.21 60.93 9.88 60.93 10.51C60.93 11.83 61.46 12.66 62.3 12.66C62.7 12.66 63.11 12.52 63.42 12.25C63.54 12.15 63.59 12.05 63.59 11.83Z" />
		<path id="Layer" fill-rule="evenodd" class="shp7" d="M17.54 89.44C17.54 89.44 17.55 89.44 17.55 89.44C17.55 89.44 17.55 89.44 17.55 89.44L17.54 89.44ZM17.55 89.44C15.24 83.67 13.67 83.84 11.68 83.26L14.65 83.26C14.67 83.16 14.69 83.07 14.71 82.97C14.77 82.72 14.84 82.47 14.91 82.22C14.91 81.89 14.91 81.56 14.91 81.23C14.92 80.52 15.02 79.81 15.12 79.1C15.14 78.92 15.16 78.73 15.19 78.55C15.09 78.47 15.12 77.93 15.37 76.87C15.42 76.66 15.46 76.44 15.51 76.22C15.59 75.72 15.71 75.22 15.81 74.73C15.94 74.14 16.13 73.56 16.31 72.99C16.55 72.3 16.84 71.64 17.13 70.98C17.48 70.16 17.84 69.35 18.19 68.54C18.68 67.44 19.23 66.38 19.77 65.31C20.46 64 21.07 62.65 21.65 61.29C22.35 59.63 23.03 57.98 23.72 56.32C24.47 54.55 25.18 52.76 25.86 50.97C25.9 50.85 25.94 50.74 25.99 50.62C25.97 50.58 25.96 50.54 25.96 50.5C25.96 50.38 26.03 50.27 26.13 50.21C26.72 48.53 27.27 46.84 27.79 45.13C28.44 42.99 29 40.81 29.44 38.61C29.88 36.05 29.99 33.46 29.97 30.87C29.9 28.75 29.68 26.65 29.44 24.55C29.33 24.64 29.2 24.7 29.05 24.7C28.71 24.7 28.44 24.43 28.44 24.1C28.44 23.77 28.71 23.49 29.05 23.49C29.15 23.49 29.24 23.52 29.32 23.56L29.25 23C29.16 22.26 29.06 21.52 28.95 20.78C28.89 20.88 28.78 20.95 28.65 20.95C28.47 20.95 28.32 20.81 28.32 20.62C28.32 20.44 28.47 20.29 28.65 20.29C28.74 20.29 28.82 20.32 28.88 20.37C28.78 19.68 28.67 18.98 28.57 18.29C28.4 17.22 28.43 16.57 28.54 16.41C28.44 16.3 28.38 16.15 28.38 15.99C28.38 15.66 28.65 15.39 28.98 15.39C29.32 15.39 29.59 15.66 29.59 15.99C29.59 16.33 29.32 16.6 28.98 16.6C28.92 16.6 28.85 16.58 28.79 16.56C28.91 16.8 29.04 17.26 29.15 17.96C29.39 19.52 29.63 21.09 29.82 22.67C30.14 25.28 30.45 27.9 30.53 30.53C30.56 33.12 30.46 35.72 30.02 38.28C29.58 40.48 29.02 42.65 28.37 44.79C27.8 46.64 27.22 48.49 26.56 50.3C26.61 50.36 26.63 50.43 26.63 50.5C26.63 50.66 26.52 50.79 26.37 50.83C25.72 52.56 25.03 54.28 24.31 55.98C23.62 57.64 22.94 59.3 22.25 60.95C21.66 62.31 21.06 63.65 20.37 64.96C19.83 66.03 19.29 67.1 18.8 68.19C18.45 69 18.08 69.81 17.73 70.62C17.45 71.29 17.17 71.95 16.93 72.64C16.75 73.21 16.55 73.79 16.43 74.38C16.41 74.45 16.4 74.52 16.38 74.59C16.57 74.16 16.76 73.74 16.96 73.32C17.12 73.01 17.29 72.71 17.45 72.4C17.45 72.4 17.46 72.39 17.46 72.38C17.54 72.13 17.67 71.91 17.78 71.68C17.94 71.33 18.16 71 18.36 70.67C18.55 70.35 18.75 70.05 18.97 69.75C19.55 68.75 20.2 67.8 20.88 66.87C21.41 66.14 22.02 65.49 22.64 64.85C22.66 64.71 22.77 64.59 22.92 64.57L23.43 64.05C24.44 63.11 25.47 62.2 26.48 61.25C27.67 60.14 28.82 58.99 29.96 57.84C31.27 56.53 32.47 55.12 33.58 53.65C34.82 51.94 35.87 50.09 36.87 48.24C37.21 47.64 37.52 47.03 37.81 46.41L37.69 46.42C37.36 46.42 37.09 46.15 37.09 45.81C37.09 45.48 37.36 45.21 37.69 45.21C37.92 45.21 38.11 45.33 38.22 45.52C38.7 44.4 39.14 43.27 39.52 42.12L39.59 41.89C39.56 41.62 39.54 41.22 39.55 40.67C39.58 39.73 39.6 38.8 39.57 37.86C39.52 36.17 39.41 34.49 39.18 32.82C39 31.68 38.82 30.53 38.49 29.42C38.32 28.86 38.17 28.29 37.92 27.76C37.83 27.62 37.78 27.45 37.65 27.33C35.73 25.64 36.37 25.25 38.27 26.96C38.4 27.08 38.45 27.26 38.54 27.41C38.79 27.94 38.94 28.51 39.11 29.07C39.43 30.18 39.6 31.33 39.79 32.47C40 34.14 40.11 35.83 40.16 37.51C40.18 38.22 40.17 38.94 40.15 39.65C40.47 38.16 40.71 36.65 40.9 35.14C40.95 34.47 40.98 33.8 40.99 33.13C40.93 33.15 40.86 33.17 40.78 33.17C40.45 33.17 40.17 32.9 40.17 32.56C40.17 32.23 40.45 31.96 40.78 31.96C40.87 31.96 40.94 31.98 41.02 32.01C41.02 30.97 41 29.94 40.97 28.9C40.72 28.82 40.54 28.61 40.54 28.34C40.54 28.08 40.7 27.86 40.93 27.77C40.93 27.66 40.92 27.55 40.92 27.44C40.9 27.03 40.89 26.61 40.87 26.19C40.79 23.85 41.36 23.52 41.45 25.86C41.46 26.28 41.47 26.69 41.49 27.11C41.5 27.36 41.5 27.61 41.51 27.85C41.66 27.97 41.75 28.14 41.75 28.34C41.75 28.52 41.67 28.68 41.55 28.79C41.6 30.79 41.63 32.8 41.47 34.8C41.18 37.16 40.79 39.51 40.1 41.79C39.4 43.9 38.54 45.96 37.45 47.91C36.45 49.76 35.41 51.6 34.16 53.31C33.05 54.78 31.86 56.19 30.55 57.5C29.41 58.65 28.26 59.8 27.07 60.91C26.07 61.85 25.04 62.76 24.03 63.71C23.73 64.01 23.43 64.31 23.13 64.61C23.21 64.66 23.26 64.73 23.28 64.82C24.04 64.04 24.85 63.31 25.65 62.58L28.46 60.09C29.45 59.21 30.45 58.33 31.44 57.46C32.57 56.48 33.66 55.47 34.74 54.45C35.95 53.29 37.15 52.1 38.32 50.9C39.57 49.65 40.75 48.32 41.9 46.97C42.77 45.93 43.61 44.85 44.42 43.76C44.42 43.72 44.41 43.68 44.41 43.64C44.41 43.32 44.65 43.07 44.95 43.04L45.56 42.2C46.64 40.71 47.63 39.16 48.55 37.57C48.51 37.58 48.47 37.59 48.43 37.59C48.25 37.59 48.1 37.44 48.1 37.26C48.1 37.07 48.25 36.92 48.43 36.92C48.59 36.92 48.73 37.04 48.76 37.19C48.84 37.04 48.93 36.89 49.02 36.74C50.1 34.73 51.13 32.68 51.81 30.51C52.33 28.6 52.63 26.66 52.94 24.72C53.31 22.38 53.89 22.04 53.52 24.38C53.21 26.32 52.91 28.27 52.39 30.17C51.71 32.35 50.68 34.4 49.61 36.41C48.55 38.29 47.42 40.12 46.15 41.86C45.85 42.27 45.56 42.68 45.26 43.08C45.47 43.18 45.62 43.39 45.62 43.64C45.62 43.97 45.35 44.24 45.02 44.24C44.83 44.24 44.66 44.16 44.55 44.02C43.88 44.91 43.2 45.78 42.49 46.63C41.34 47.98 40.16 49.31 38.91 50.56C38.34 51.14 37.77 51.72 37.19 52.29C37.36 52.13 37.67 51.85 38.12 51.46C39.23 50.52 40.34 49.6 41.5 48.72C42.58 47.9 43.68 47.12 44.9 46.51C45 46.32 45.21 46.18 45.44 46.18C45.5 46.18 45.55 46.18 45.6 46.19C45.78 46.12 45.97 46.07 46.17 46.06C48.59 45.9 48.13 46.23 45.89 46.39C45.98 46.5 46.04 46.63 46.04 46.78C46.04 47.12 45.78 47.39 45.44 47.39C45.11 47.39 44.83 47.12 44.83 46.78C44.83 46.72 44.85 46.66 44.87 46.6L44.37 46.82C43.96 46.98 42.92 47.76 42.1 48.38C40.94 49.26 39.82 50.18 38.71 51.12C37.57 52.09 36.92 52.6 37.03 52.45C36.47 53.01 35.9 53.56 35.33 54.1C34.25 55.12 33.17 56.14 32.04 57.11C31.05 57.99 30.05 58.86 29.06 59.75C28.13 60.58 27.2 61.41 26.26 62.24C25.4 63.02 24.53 63.8 23.72 64.64C23 65.38 22.27 66.11 21.6 66.9C21.08 67.51 20.55 68.13 20.06 68.76L19.54 69.46C19.52 69.51 19.49 69.56 19.46 69.6C19.01 70.38 18.55 71.15 18.12 71.93L18.09 72.02C18.04 72.15 18 72.28 17.95 72.4C17.59 73.16 17.29 73.71 17.08 74.02C16.75 74.74 16.46 75.46 16.25 76.22C16.03 77.05 15.81 77.89 15.73 78.75C15.65 79.35 15.57 79.96 15.54 80.57L15.68 80.27C16.01 79.65 16.39 79.08 16.77 78.51C17.08 78.03 17.43 77.58 17.79 77.15C17.72 77.05 17.67 76.92 17.67 76.79C17.67 76.45 17.94 76.18 18.28 76.18C18.39 76.18 18.49 76.21 18.58 76.26C19.16 75.66 19.78 75.1 20.41 74.55C21.22 73.8 22.07 73.11 22.94 72.44C23.97 71.64 25.07 70.93 26.16 70.21C27.42 69.4 28.69 68.62 29.97 67.86L30.27 67.69C30.02 67.62 29.83 67.38 29.83 67.11C29.83 66.77 30.11 66.5 30.44 66.5C30.77 66.5 31.04 66.77 31.04 67.11C31.04 67.44 30.77 67.71 30.44 67.71C30.39 67.71 30.34 67.71 30.29 67.69C29.24 68.33 28.19 68.97 27.16 69.64C26.07 70.35 24.98 71.06 23.95 71.86C23.08 72.53 22.23 73.22 21.42 73.96C20.68 74.62 19.94 75.27 19.28 76L18.83 76.54C18.86 76.61 18.89 76.7 18.89 76.79C18.89 77.12 18.61 77.39 18.28 77.39C18.24 77.39 18.21 77.39 18.17 77.38C18.04 77.56 17.92 77.74 17.8 77.92C17.42 78.49 17.03 79.06 16.71 79.67C16.49 80.14 16.25 80.61 16.11 81.11C16.04 81.34 15.96 81.57 15.9 81.8C15.98 81.86 16.04 81.96 16.04 82.08C16.04 82.25 15.9 82.39 15.73 82.41C15.68 82.71 15.6 83.01 15.61 83.31C15.62 83.49 15.61 83.66 15.65 83.84C15.67 83.94 15.67 84.04 15.7 84.14C15.97 85.35 18.07 88.54 17.55 89.44ZM17.8 84.44C17.8 84.25 17.95 84.1 18.13 84.1C18.31 84.1 18.46 84.25 18.46 84.44C18.46 84.62 18.31 84.77 18.13 84.77C17.95 84.77 17.8 84.62 17.8 84.44ZM12.9 82.47C12.9 82.14 13.17 81.86 13.5 81.86C13.83 81.86 14.11 82.14 14.11 82.47C14.11 82.81 13.83 83.08 13.5 83.08C13.17 83.08 12.9 82.81 12.9 82.47ZM16.16 81.74C16.16 81.41 16.43 81.14 16.77 81.14C17.1 81.14 17.37 81.41 17.37 81.74C17.37 82.08 17.1 82.35 16.77 82.35C16.43 82.35 16.16 82.08 16.16 81.74ZM12.17 80.32C12.17 80.14 12.32 79.99 12.5 79.99C12.69 79.99 12.83 80.14 12.83 80.32C12.83 80.51 12.69 80.65 12.5 80.65C12.32 80.65 12.17 80.51 12.17 80.32ZM13.68 79.78C13.68 79.59 13.83 79.45 14.02 79.45C14.2 79.45 14.35 79.59 14.35 79.78C14.35 79.96 14.2 80.11 14.02 80.11C13.83 80.11 13.68 79.96 13.68 79.78ZM19.13 78.78C19.13 78.45 19.39 78.18 19.73 78.18C20.06 78.18 20.34 78.45 20.34 78.78C20.34 79.11 20.06 79.39 19.73 79.39C19.39 79.39 19.13 79.11 19.13 78.78ZM20.82 78.02C20.82 77.84 20.97 77.69 21.15 77.69C21.33 77.69 21.48 77.84 21.48 78.02C21.48 78.21 21.33 78.36 21.15 78.36C20.97 78.36 20.82 78.21 20.82 78.02ZM12.23 77.09C12.23 76.76 12.5 76.48 12.83 76.48C13.17 76.48 13.44 76.76 13.44 77.09C13.44 77.43 13.17 77.69 12.83 77.69C12.5 77.69 12.23 77.43 12.23 77.09ZM13.62 75.33C13.62 75 13.89 74.73 14.23 74.73C14.56 74.73 14.83 75 14.83 75.33C14.83 75.66 14.56 75.94 14.23 75.94C13.89 75.94 13.62 75.66 13.62 75.33ZM21.73 75.37C21.73 75.18 21.88 75.03 22.06 75.03C22.24 75.03 22.39 75.18 22.39 75.37C22.39 75.55 22.24 75.7 22.06 75.7C21.88 75.7 21.73 75.55 21.73 75.37ZM25.84 74.55C25.84 74.21 26.11 73.95 26.44 73.95C26.78 73.94 27.05 74.21 27.05 74.55C27.05 74.88 26.78 75.15 26.44 75.15C26.11 75.15 25.84 74.88 25.84 74.55ZM19.37 73.82C19.37 73.49 19.64 73.22 19.98 73.22C20.31 73.22 20.58 73.49 20.58 73.82C20.58 74.16 20.31 74.43 19.98 74.43C19.64 74.43 19.37 74.16 19.37 73.82ZM22.34 74.28C22.32 74.27 22.69 73.98 23.56 73.34C24.03 73 24.5 72.63 25 72.32C26.12 71.65 27.24 70.98 28.42 70.45C29.27 70.07 30.12 69.69 30.99 69.36C31.6 69.11 32.2 68.87 32.81 68.64L33.59 68.34C35.98 67.42 35.36 67.79 32.97 68.7L32.19 68.99C31.58 69.22 30.98 69.47 30.38 69.71C29.84 69.92 29.31 70.15 28.78 70.38C29.09 70.4 29.35 70.65 29.35 70.98C29.35 71.31 29.08 71.58 28.74 71.58C28.41 71.58 28.14 71.31 28.14 70.98C28.14 70.83 28.19 70.7 28.28 70.59L27.82 70.8C27.15 71.06 25.82 71.85 25.61 71.97C25.11 72.28 24.64 72.65 24.17 73C23.05 73.82 22.37 74.28 22.34 74.28L22.34 74.28ZM13.32 73.03C13.32 72.7 13.59 72.43 13.92 72.43C14.26 72.43 14.53 72.7 14.53 73.03C14.53 73.37 14.26 73.64 13.92 73.64C13.59 73.64 13.32 73.37 13.32 73.03ZM26.8 72.64C26.8 72.46 26.95 72.31 27.14 72.31C27.32 72.31 27.47 72.46 27.47 72.64C27.47 72.83 27.32 72.98 27.14 72.98C26.95 72.98 26.8 72.83 26.8 72.64ZM15.56 71.52C15.56 71.19 15.83 70.92 16.16 70.92C16.5 70.92 16.77 71.19 16.77 71.52C16.77 71.85 16.5 72.13 16.16 72.13C15.83 72.13 15.56 71.85 15.56 71.52ZM18.82 71.34C18.82 71.01 19.1 70.74 19.43 70.74C19.76 70.74 20.03 71.01 20.03 71.34C20.03 71.68 19.76 71.94 19.43 71.94C19.1 71.94 18.82 71.68 18.82 71.34ZM10.9 71.13C10.9 70.95 11.05 70.8 11.23 70.8C11.41 70.8 11.56 70.95 11.56 71.13C11.56 71.31 11.41 71.46 11.23 71.46C11.05 71.46 10.9 71.31 10.9 71.13ZM32.01 69.98C32.01 69.79 32.16 69.65 32.34 69.65C32.52 69.65 32.67 69.8 32.67 69.98C32.67 70.16 32.52 70.31 32.34 70.31C32.16 70.31 32.01 70.16 32.01 69.98ZM24.51 69.65C24.51 69.31 24.78 69.05 25.12 69.05C25.45 69.05 25.72 69.31 25.72 69.65C25.72 69.98 25.45 70.25 25.12 70.25C24.78 70.25 24.51 69.98 24.51 69.65ZM35.79 69.71C35.61 69.71 35.46 69.56 35.46 69.38C35.46 69.31 35.48 69.25 35.51 69.2C35.45 69.22 35.4 69.22 35.34 69.22C35 69.22 34.73 68.96 34.73 68.62C34.73 68.29 35 68.01 35.34 68.01C35.67 68.01 35.94 68.29 35.94 68.62C35.94 68.79 35.87 68.94 35.76 69.05L35.79 69.05C35.97 69.05 36.12 69.19 36.12 69.38C36.12 69.56 35.97 69.71 35.79 69.71L35.79 69.71ZM37.27 67.71C37.27 67.38 37.54 67.11 37.88 67.11C38.21 67.11 38.48 67.38 38.48 67.71C38.48 68.04 38.21 68.32 37.88 68.32C37.54 68.32 37.27 68.04 37.27 67.71ZM16.65 67.71C16.65 67.38 16.92 67.11 17.25 67.11C17.59 67.11 17.85 67.38 17.85 67.71C17.85 68.04 17.59 68.32 17.25 68.32C16.92 68.32 16.65 68.04 16.65 67.71ZM21.42 67.65C21.42 67.32 21.69 67.04 22.03 67.04C22.36 67.04 22.63 67.32 22.63 67.65C22.63 67.99 22.36 68.25 22.03 68.25C21.69 68.25 21.42 67.99 21.42 67.65ZM39.09 67.86C39.09 67.68 39.23 67.53 39.42 67.53C39.6 67.53 39.75 67.68 39.75 67.86C39.75 68.05 39.6 68.2 39.42 68.2C39.23 68.2 39.09 68.05 39.09 67.86ZM26.08 67.44C26.08 67.26 26.23 67.11 26.42 67.11C26.6 67.11 26.75 67.26 26.75 67.44C26.75 67.62 26.6 67.77 26.42 67.77C26.23 67.77 26.08 67.62 26.08 67.44ZM20.88 67.38C20.88 67.38 20.88 67.38 20.88 67.38C20.88 67.38 20.88 67.38 20.88 67.38L20.88 67.38ZM20.88 67.38C20.92 67.33 20.95 67.29 20.99 67.25C21.59 66.55 22.24 65.88 22.89 65.22C22.8 65.2 22.73 65.15 22.68 65.07C22.26 65.53 21.85 66.01 21.48 66.52C21.28 66.8 21.08 67.09 20.88 67.38ZM32.38 66.46C32.39 66.46 32.4 66.46 32.4 66.45C32.4 66.46 32.39 66.46 32.38 66.46L32.38 66.46ZM32.4 66.45C33.38 65.9 34.35 65.34 35.33 64.8C35.45 64.73 35.64 64.62 35.81 64.53C35.57 64.45 35.39 64.23 35.39 63.96C35.39 63.63 35.67 63.35 36 63.35C36.34 63.35 36.6 63.63 36.6 63.96C36.6 64.01 36.6 64.05 36.59 64.1L38.66 62.93C37.97 63.33 37.28 63.72 36.58 64.12C36.51 64.37 36.28 64.56 36 64.56C35.94 64.56 35.89 64.56 35.83 64.54C35.34 64.82 34.84 65.09 34.34 65.36C33.64 65.75 32.98 66.13 32.4 66.45ZM39.81 66.05C39.81 65.86 39.96 65.72 40.15 65.72C40.33 65.72 40.48 65.86 40.48 66.05C40.48 66.23 40.33 66.38 40.15 66.38C39.96 66.38 39.81 66.23 39.81 66.05ZM17.01 65.47C16.67 65.47 16.4 65.2 16.4 64.87C16.4 64.53 16.67 64.27 17.01 64.27C17.12 64.27 17.22 64.29 17.31 64.34C17.32 64.17 17.46 64.02 17.64 64.02C17.83 64.02 17.97 64.17 17.97 64.36C17.97 64.54 17.83 64.69 17.64 64.69C17.62 64.69 17.6 64.69 17.58 64.68C17.6 64.74 17.61 64.8 17.61 64.87C17.61 65.2 17.34 65.48 17.01 65.48L17.01 65.47ZM14.71 65.08C14.71 64.9 14.86 64.75 15.04 64.75C15.22 64.75 15.37 64.9 15.37 65.08C15.37 65.26 15.22 65.41 15.04 65.41C14.86 65.41 14.71 65.26 14.71 65.08ZM18.64 62.51C18.64 62.18 18.91 61.9 19.25 61.9C19.58 61.9 19.85 62.18 19.85 62.51C19.85 62.85 19.58 63.11 19.25 63.11C18.91 63.11 18.64 62.85 18.64 62.51ZM44.47 62.66C44.47 62.48 44.62 62.33 44.81 62.33C44.99 62.33 45.14 62.48 45.14 62.66C45.14 62.84 44.99 62.99 44.81 62.99C44.62 62.99 44.47 62.84 44.47 62.66ZM38.9 62.79L38.93 62.77C38.92 62.78 38.91 62.78 38.9 62.79L38.9 62.79ZM38.93 62.77C40.41 61.91 41.81 60.93 43.17 59.9C44.22 59.1 45.22 58.23 46.18 57.32C46.18 57.31 46.18 57.3 46.18 57.29C45.7 57.7 45.2 58.09 44.71 58.48C42.8 60.01 42.2 60.35 44.11 58.83C44.65 58.39 45.21 57.97 45.73 57.51C46.45 56.88 47.18 56.25 47.89 55.61C49.16 54.26 50.27 52.77 51.32 51.24C52.58 49.46 53.49 47.5 54.24 45.47C55.03 43.27 55.35 40.95 55.52 38.62C55.73 36.54 55.55 34.47 55.29 32.41C54.8 28.55 55.75 28.01 56.24 31.86C56.51 33.93 56.7 35.99 56.49 38.07C56.34 40.09 56.08 42.1 55.5 44.04C55.6 43.94 55.75 43.88 55.91 43.88C56.24 43.88 56.51 44.15 56.51 44.48C56.51 44.82 56.24 45.09 55.91 45.09C55.61 45.09 55.37 44.88 55.31 44.6C55.28 44.71 55.25 44.81 55.21 44.92C54.46 46.94 53.54 48.9 52.29 50.67C51.6 51.68 50.88 52.68 50.1 53.63C50.66 53.13 51.21 52.62 51.76 52.11L52.43 51.41C52.49 51.27 52.59 51.16 52.73 51.09C53.18 50.6 53.61 50.09 53.97 49.53C54.54 48.69 55.1 47.84 55.65 46.99C56.19 46.13 56.73 45.28 57.26 44.41C57.7 43.67 58.16 42.92 58.56 42.14C58.78 41.67 59.02 41.21 59.17 40.72C59.24 40.53 59.29 40.34 59.38 40.16C59.61 39.7 59.81 39.34 59.99 39.04C59.79 38.94 59.65 38.73 59.65 38.5C59.65 38.17 59.91 37.91 60.23 37.89C60.14 37.83 60.08 37.73 60.08 37.62C60.08 37.44 60.23 37.29 60.41 37.29C60.59 37.29 60.74 37.44 60.74 37.62C60.74 37.77 60.64 37.9 60.49 37.94C60.71 38.03 60.86 38.25 60.86 38.5C60.86 38.8 60.64 39.04 60.35 39.09C60.26 39.29 60.15 39.52 60.01 39.8C59.91 39.98 59.87 40.17 59.79 40.35C59.63 40.85 59.39 41.32 59.17 41.79L58.93 42.24C59.04 42.13 59.18 42.07 59.35 42.07C59.68 42.07 59.96 42.33 59.96 42.67C59.96 43 59.68 43.27 59.35 43.27C59.01 43.27 58.75 43 58.75 42.67C58.75 42.63 58.75 42.59 58.76 42.55C58.47 43.06 58.17 43.56 57.86 44.06C57.34 44.92 56.8 45.78 56.26 46.63C55.71 47.49 55.15 48.33 54.58 49.17C54.14 49.85 53.62 50.45 53.07 51.02C53.37 51.06 53.61 51.32 53.61 51.62C53.61 51.96 53.33 52.23 53 52.23C52.69 52.23 52.44 52 52.4 51.71L52.36 51.76C51.4 52.66 50.43 53.53 49.46 54.41L49.41 54.45C49.09 54.81 48.77 55.17 48.43 55.51C47.97 55.97 47.5 56.43 47.03 56.88C47.23 56.97 47.37 57.19 47.37 57.43C47.37 57.76 47.1 58.03 46.77 58.03C46.51 58.03 46.29 57.87 46.21 57.63C45.54 58.22 44.86 58.79 44.15 59.33C42.76 60.39 41.32 61.39 39.81 62.27L38.93 62.77ZM35.22 62.3C35.22 62.12 35.37 61.97 35.55 61.97C35.73 61.97 35.88 62.12 35.88 62.3C35.88 62.48 35.73 62.63 35.55 62.63C35.37 62.63 35.22 62.48 35.22 62.3ZM41.6 62.39L41.54 62.39C41.36 62.39 41.21 62.24 41.21 62.05C41.21 61.87 41.36 61.72 41.54 61.72C41.72 61.72 41.87 61.87 41.87 62.05C41.87 62.21 41.75 62.35 41.6 62.39ZM27.6 61.6C27.6 61.27 27.86 61 28.2 61C28.53 61 28.81 61.27 28.81 61.6C28.81 61.93 28.53 62.21 28.2 62.21C27.86 62.21 27.6 61.93 27.6 61.6ZM29.71 61.69C29.71 61.51 29.86 61.36 30.04 61.36C30.23 61.36 30.38 61.51 30.38 61.69C30.38 61.88 30.23 62.02 30.04 62.02C29.86 62.02 29.71 61.88 29.71 61.69ZM38.48 60.18C38.48 60 38.63 59.85 38.82 59.85C39 59.85 39.15 60 39.15 60.18C39.15 60.36 39 60.51 38.82 60.51C38.63 60.51 38.48 60.36 38.48 60.18ZM41.21 59.73C41.21 59.39 41.47 59.12 41.81 59.12C42.14 59.12 42.42 59.39 42.42 59.73C42.42 60.06 42.14 60.34 41.81 60.34C41.47 60.34 41.21 60.06 41.21 59.73ZM19.85 59.49C19.85 59.15 20.12 58.88 20.46 58.88C20.79 58.88 21.06 59.15 21.06 59.49C21.06 59.82 20.79 60.09 20.46 60.09C20.12 60.09 19.85 59.82 19.85 59.49ZM48.76 59.15C48.76 58.97 48.91 58.82 49.1 58.82C49.28 58.82 49.43 58.97 49.43 59.15C49.43 59.34 49.28 59.49 49.1 59.49C48.91 59.49 48.76 59.34 48.76 59.15ZM27.17 58.76C27.17 58.42 27.44 58.16 27.77 58.16C28.11 58.16 28.38 58.42 28.38 58.76C28.38 59.09 28.11 59.37 27.77 59.37C27.44 59.37 27.17 59.09 27.17 58.76ZM18.4 58C18.4 57.82 18.55 57.67 18.73 57.67C18.91 57.67 19.06 57.82 19.06 58C19.06 58.19 18.91 58.33 18.73 58.33C18.55 58.33 18.4 58.19 18.4 58ZM42.54 57.67C42.54 57.34 42.8 57.07 43.14 57.07C43.47 57.07 43.74 57.34 43.74 57.67C43.74 58 43.47 58.28 43.14 58.28C42.8 58.28 42.54 58 42.54 57.67ZM21.42 57.67C21.09 57.67 20.82 57.4 20.82 57.07C20.82 56.84 20.95 56.64 21.14 56.54C21.13 56.5 21.12 56.47 21.12 56.43C21.12 56.25 21.27 56.1 21.45 56.1C21.64 56.1 21.79 56.25 21.79 56.43C21.79 56.48 21.78 56.53 21.76 56.57C21.92 56.68 22.03 56.86 22.03 57.07C22.03 57.4 21.76 57.67 21.42 57.67L21.42 57.67ZM33.88 56.52C33.88 56.19 34.16 55.92 34.49 55.92C34.82 55.92 35.09 56.19 35.09 56.52C35.09 56.86 34.82 57.13 34.49 57.13C34.16 57.13 33.88 56.86 33.88 56.52ZM23.35 56.91C23.22 56.92 23.2 56.4 23.41 55.3C23.65 54.03 23.88 52.76 24.02 51.48C24.18 49.9 24.27 48.32 24.22 46.73C24.15 45.55 24.08 44.36 23.87 43.19C23.74 42.4 23.62 41.6 23.41 40.83C23.32 40.53 23.26 40.22 23.13 39.94C22.04 37.62 22.7 37.24 23.75 39.58C23.88 39.87 23.94 40.17 24.03 40.48C24.23 41.25 24.35 42.04 24.48 42.84C24.68 44.01 24.76 45.2 24.82 46.39C24.87 47.98 24.77 49.56 24.61 51.14C24.46 52.43 24.24 53.69 24 54.96C23.76 56.21 23.49 56.89 23.35 56.91L23.35 56.91ZM35.94 56.55C35.94 56.37 36.09 56.22 36.27 56.22C36.46 56.22 36.6 56.37 36.6 56.55C36.6 56.74 36.46 56.88 36.27 56.88C36.09 56.88 35.94 56.74 35.94 56.55ZM26.02 56.31C26.02 56.13 26.17 55.98 26.35 55.98C26.54 55.98 26.68 56.13 26.68 56.31C26.68 56.5 26.54 56.64 26.35 56.64C26.17 56.64 26.02 56.5 26.02 56.31ZM29.71 54.95C29.71 54.61 29.98 54.35 30.32 54.35C30.65 54.35 30.92 54.61 30.92 54.95C30.92 55.28 30.65 55.56 30.32 55.56C29.98 55.56 29.71 55.28 29.71 54.95ZM46.59 54.47C46.59 54.13 46.86 53.86 47.2 53.86C47.53 53.86 47.8 54.13 47.8 54.47C47.8 54.8 47.53 55.07 47.2 55.07C46.86 55.07 46.59 54.8 46.59 54.47ZM53.66 53.34C53.66 53.16 53.81 53.01 54 53.01C54.18 53.01 54.33 53.16 54.33 53.34C54.33 53.53 54.18 53.68 54 53.68C53.81 53.68 53.66 53.53 53.66 53.34ZM41.87 50.23C41.87 49.9 42.14 49.62 42.47 49.62C42.81 49.62 43.08 49.9 43.08 50.23C43.08 50.57 42.81 50.83 42.47 50.83C42.14 50.83 41.87 50.57 41.87 50.23ZM48.58 49.53C48.58 49.35 48.73 49.2 48.91 49.2C49.1 49.2 49.25 49.35 49.25 49.53C49.25 49.72 49.1 49.86 48.91 49.86C48.73 49.86 48.58 49.72 48.58 49.53ZM18.89 48.84C18.89 48.51 19.15 48.23 19.49 48.23C19.82 48.23 20.1 48.51 20.1 48.84C20.1 49.17 19.82 49.45 19.49 49.45C19.15 49.45 18.89 49.17 18.89 48.84ZM34.19 48.6C34.19 48.26 34.46 47.99 34.79 47.99C35.13 47.99 35.4 48.26 35.4 48.6C35.4 48.93 35.13 49.2 34.79 49.2C34.46 49.2 34.19 48.93 34.19 48.6ZM57.78 48.15C57.78 47.96 57.93 47.81 58.11 47.81C58.29 47.81 58.44 47.96 58.44 48.15C58.44 48.33 58.29 48.48 58.11 48.48C57.93 48.48 57.78 48.33 57.78 48.15ZM56.75 47.39C56.75 47.06 57.02 46.78 57.35 46.78C57.69 46.78 57.96 47.06 57.96 47.39C57.96 47.72 57.69 47.99 57.35 47.99C57.02 47.99 56.75 47.72 56.75 47.39ZM37.94 47.21C37.94 46.87 38.21 46.6 38.54 46.6C38.88 46.6 39.15 46.87 39.15 47.21C39.15 47.54 38.88 47.81 38.54 47.81C38.21 47.81 37.94 47.54 37.94 47.21ZM27.96 46.54C27.96 46.21 28.22 45.93 28.56 45.93C28.89 45.93 29.17 46.21 29.17 46.54C29.17 46.88 28.89 47.14 28.56 47.14C28.22 47.14 27.96 46.88 27.96 46.54ZM21.91 44.21C21.91 44.02 22.05 43.88 22.24 43.88C22.42 43.88 22.57 44.02 22.57 44.21C22.57 44.39 22.42 44.55 22.24 44.55C22.05 44.55 21.91 44.39 21.91 44.21ZM25.12 43.82C25.12 43.49 25.38 43.21 25.72 43.21C26.05 43.21 26.32 43.49 26.32 43.82C26.32 44.15 26.05 44.42 25.72 44.42C25.38 44.42 25.12 44.15 25.12 43.82ZM51.79 43.64C51.79 43.3 52.06 43.03 52.39 43.03C52.73 43.03 53 43.3 53 43.64C53 43.97 52.73 44.24 52.39 44.24C52.06 44.24 51.79 43.97 51.79 43.64ZM29.1 43.3C29.1 43.12 29.26 42.97 29.44 42.97C29.63 42.97 29.77 43.12 29.77 43.3C29.77 43.49 29.63 43.64 29.44 43.64C29.26 43.64 29.1 43.49 29.1 43.3ZM37.21 40.49C37.21 40.16 37.49 39.89 37.82 39.89C38.15 39.89 38.42 40.16 38.42 40.49C38.42 40.82 38.15 41.1 37.82 41.1C37.49 41.1 37.21 40.82 37.21 40.49ZM44.35 40.43C44.35 40.1 44.62 39.82 44.95 39.82C45.29 39.82 45.56 40.1 45.56 40.43C45.56 40.77 45.29 41.03 44.95 41.03C44.62 41.03 44.35 40.77 44.35 40.43ZM56.93 39.77C56.93 39.43 57.2 39.16 57.54 39.16C57.87 39.16 58.14 39.43 58.14 39.77C58.14 40.1 57.87 40.37 57.54 40.37C57.2 40.37 56.93 40.1 56.93 39.77ZM26.68 39.28C26.68 38.95 26.96 38.68 27.29 38.68C27.63 38.68 27.89 38.95 27.89 39.28C27.89 39.61 27.63 39.89 27.29 39.89C26.96 39.89 26.68 39.61 26.68 39.28ZM42.05 39.22C42.05 38.89 42.32 38.62 42.66 38.62C42.99 38.62 43.26 38.89 43.26 39.22C43.26 39.56 42.99 39.82 42.66 39.82C42.32 39.82 42.05 39.56 42.05 39.22ZM30.19 38.16C30.19 37.98 30.35 37.83 30.53 37.83C30.71 37.83 30.86 37.98 30.86 38.16C30.86 38.35 30.71 38.5 30.53 38.5C30.35 38.5 30.19 38.35 30.19 38.16ZM21.48 37.19C21.48 37.01 21.63 36.86 21.81 36.86C22 36.86 22.15 37.01 22.15 37.19C22.15 37.38 22 37.53 21.81 37.53C21.63 37.53 21.48 37.38 21.48 37.19ZM43.44 37.07C43.44 36.89 43.59 36.74 43.77 36.74C43.96 36.74 44.11 36.89 44.11 37.07C44.11 37.26 43.96 37.41 43.77 37.41C43.59 37.41 43.44 37.26 43.44 37.07ZM52.88 36.25C52.88 35.92 53.15 35.65 53.48 35.65C53.81 35.65 54.09 35.92 54.09 36.25C54.09 36.59 53.81 36.86 53.48 36.86C53.15 36.86 52.88 36.59 52.88 36.25ZM37.09 36.29C37.09 36.11 37.24 35.96 37.42 35.96C37.61 35.96 37.76 36.11 37.76 36.29C37.76 36.47 37.61 36.62 37.42 36.62C37.24 36.62 37.09 36.47 37.09 36.29ZM60.86 35.75C60.86 35.56 61.01 35.41 61.19 35.41C61.38 35.41 61.53 35.56 61.53 35.75C61.53 35.93 61.38 36.08 61.19 36.08C61.01 36.08 60.86 35.93 60.86 35.75ZM37.57 35.35C37.57 35.02 37.85 34.74 38.18 34.74C38.51 34.74 38.78 35.02 38.78 35.35C38.78 35.68 38.51 35.96 38.18 35.96C37.85 35.96 37.57 35.68 37.57 35.35ZM47.25 35.17C47.25 34.83 47.53 34.56 47.86 34.56C48.19 34.56 48.46 34.83 48.46 35.17C48.46 35.5 48.19 35.77 47.86 35.77C47.53 35.77 47.25 35.5 47.25 35.17ZM51.67 34.59C51.67 34.41 51.82 34.26 52 34.26C52.19 34.26 52.34 34.41 52.34 34.59C52.34 34.78 52.19 34.93 52 34.93C51.82 34.93 51.67 34.78 51.67 34.59ZM60.44 34.14C60.44 33.81 60.71 33.53 61.05 33.53C61.38 33.53 61.65 33.81 61.65 34.14C61.65 34.47 61.38 34.74 61.05 34.74C60.71 34.74 60.44 34.47 60.44 34.14ZM28.95 34.74C28.77 34.74 28.62 34.59 28.62 34.41C28.62 34.23 28.77 34.08 28.95 34.08C29.14 34.08 29.29 34.23 29.29 34.41C29.29 34.57 29.18 34.71 29.03 34.74L28.95 34.74ZM56.51 33.45C56.51 33.26 56.66 33.11 56.84 33.11C57.02 33.11 57.17 33.26 57.17 33.45C57.17 33.63 57.02 33.78 56.84 33.78C56.66 33.78 56.51 33.63 56.51 33.45ZM32.01 32.56C32.01 32.23 32.28 31.96 32.62 31.96C32.95 31.96 33.22 32.23 33.22 32.56C33.22 32.9 32.95 33.17 32.62 33.17C32.28 33.17 32.01 32.9 32.01 32.56ZM52.76 32.36C52.76 32.18 52.91 32.02 53.09 32.02C53.28 32.02 53.42 32.18 53.42 32.36C53.42 32.54 53.28 32.69 53.09 32.69C52.91 32.69 52.76 32.54 52.76 32.36ZM43.14 31.84C42.8 31.84 42.54 31.57 42.54 31.23C42.54 30.9 42.8 30.63 43.14 30.63C43.31 30.63 43.47 30.7 43.58 30.82C43.61 30.68 43.74 30.57 43.89 30.57C44.08 30.57 44.23 30.72 44.23 30.9C44.23 31.09 44.08 31.23 43.89 31.23C43.84 31.23 43.78 31.22 43.74 31.2C43.74 31.21 43.74 31.22 43.74 31.23C43.74 31.57 43.47 31.84 43.14 31.84ZM49.31 30.78C49.31 30.6 49.46 30.45 49.64 30.45C49.83 30.45 49.97 30.6 49.97 30.78C49.97 30.97 49.83 31.11 49.64 31.11C49.46 31.11 49.31 30.97 49.31 30.78ZM59.6 30.66C59.6 30.48 59.74 30.33 59.93 30.33C60.11 30.33 60.26 30.48 60.26 30.66C60.26 30.85 60.11 30.99 59.93 30.99C59.74 30.99 59.6 30.85 59.6 30.66ZM56.75 30.33C56.75 30 57.02 29.72 57.35 29.72C57.69 29.72 57.96 30 57.96 30.33C57.96 30.66 57.69 30.93 57.35 30.93C57.02 30.93 56.75 30.66 56.75 30.33ZM31.46 30.15C31.46 29.81 31.74 29.54 32.07 29.54C32.41 29.54 32.67 29.81 32.67 30.15C32.67 30.48 32.41 30.75 32.07 30.75C31.74 30.75 31.46 30.48 31.46 30.15ZM37.21 30.09C36.99 30.09 36.8 29.96 36.7 29.79C36.61 29.73 36.55 29.62 36.55 29.51C36.55 29.42 36.59 29.34 36.65 29.28C36.73 29.04 36.95 28.88 37.21 28.88C37.55 28.88 37.82 29.15 37.82 29.48C37.82 29.82 37.55 30.09 37.21 30.09L37.21 30.09ZM50.16 28.94C50.16 28.6 50.42 28.34 50.76 28.34C51.09 28.34 51.37 28.6 51.37 28.94C51.37 29.27 51.09 29.54 50.76 29.54C50.42 29.54 50.16 29.27 50.16 28.94ZM27.84 28.34C27.84 28 28.1 27.73 28.44 27.73C28.77 27.73 29.05 28 29.05 28.34C29.05 28.67 28.77 28.94 28.44 28.94C28.1 28.94 27.84 28.67 27.84 28.34ZM38.3 26.73C38.3 26.55 38.45 26.4 38.63 26.4C38.82 26.4 38.97 26.55 38.97 26.73C38.97 26.91 38.82 27.06 38.63 27.06C38.45 27.06 38.3 26.91 38.3 26.73ZM58.68 26.61C58.68 26.43 58.83 26.28 59.02 26.28C59.2 26.28 59.35 26.43 59.35 26.61C59.35 26.79 59.2 26.94 59.02 26.94C58.83 26.94 58.68 26.79 58.68 26.61ZM31.04 26.55C31.04 26.36 31.19 26.21 31.37 26.21C31.56 26.21 31.7 26.36 31.7 26.55C31.7 26.73 31.56 26.88 31.37 26.88C31.19 26.88 31.04 26.73 31.04 26.55ZM54.45 25.15C54.45 24.97 54.6 24.82 54.78 24.82C54.97 24.82 55.11 24.97 55.11 25.15C55.11 25.34 54.97 25.49 54.78 25.49C54.6 25.49 54.45 25.34 54.45 25.15ZM55.48 24.4C55.48 24.06 55.75 23.8 56.08 23.8C56.42 23.8 56.69 24.06 56.69 24.4C56.69 24.73 56.42 25.01 56.08 25.01C55.75 25.01 55.48 24.73 55.48 24.4ZM34 23.95C34 23.76 34.16 23.61 34.34 23.61C34.53 23.61 34.67 23.76 34.67 23.95C34.67 24.13 34.53 24.28 34.34 24.28C34.16 24.28 34 24.13 34 23.95ZM36.48 23.44C36.48 23.1 36.76 22.83 37.09 22.83C37.43 22.83 37.69 23.1 37.69 23.44C37.69 23.77 37.43 24.04 37.09 24.04C36.76 24.04 36.48 23.77 36.48 23.44ZM31.28 22.47C31.28 22.13 31.55 21.86 31.89 21.86C32.22 21.86 32.5 22.13 32.5 22.47C32.5 22.8 32.22 23.07 31.89 23.07C31.55 23.07 31.28 22.8 31.28 22.47ZM49.01 22.55C49.01 22.37 49.15 22.22 49.34 22.22C49.52 22.22 49.67 22.37 49.67 22.55C49.67 22.74 49.52 22.89 49.34 22.89C49.15 22.89 49.01 22.74 49.01 22.55ZM40.9 22.22C40.9 21.89 41.17 21.62 41.5 21.62C41.84 21.62 42.11 21.89 42.11 22.22C42.11 22.55 41.84 22.83 41.5 22.83C41.17 22.83 40.9 22.55 40.9 22.22ZM51.61 21.89C51.61 21.7 51.76 21.56 51.94 21.56C52.12 21.56 52.27 21.7 52.27 21.89C52.27 22.07 52.12 22.22 51.94 22.22C51.76 22.22 51.61 22.07 51.61 21.89ZM39.93 20.5C39.93 20.32 40.08 20.17 40.27 20.17C40.45 20.17 40.6 20.32 40.6 20.5C40.6 20.69 40.45 20.83 40.27 20.83C40.08 20.83 39.93 20.69 39.93 20.5ZM26.69 20.04C26.69 19.71 26.96 19.44 27.29 19.44C27.63 19.44 27.89 19.71 27.89 20.04C27.89 20.38 27.63 20.65 27.29 20.65C26.96 20.65 26.69 20.38 26.69 20.04ZM49.73 18.87C49.73 18.69 49.88 18.54 50.07 18.54C50.25 18.54 50.4 18.69 50.4 18.87C50.4 19.05 50.25 19.2 50.07 19.2C49.88 19.2 49.73 19.05 49.73 18.87ZM51.61 18.17C51.61 17.84 51.88 17.57 52.22 17.57C52.55 17.57 52.82 17.84 52.82 18.17C52.82 18.5 52.55 18.78 52.22 18.78C51.88 18.78 51.61 18.5 51.61 18.17ZM26.14 17.53C26.14 17.35 26.29 17.2 26.47 17.2C26.66 17.2 26.81 17.35 26.81 17.53C26.81 17.72 26.66 17.87 26.47 17.87C26.29 17.87 26.14 17.72 26.14 17.53ZM51.91 16.27C51.91 16.08 52.06 15.93 52.24 15.93C52.43 15.93 52.58 16.08 52.58 16.27C52.58 16.45 52.43 16.6 52.24 16.6C52.06 16.6 51.91 16.45 51.91 16.27ZM35.28 15.36C35.28 15.17 35.42 15.02 35.61 15.02C35.79 15.02 35.94 15.17 35.94 15.36C35.94 15.54 35.79 15.69 35.61 15.69C35.42 15.69 35.28 15.54 35.28 15.36ZM26.75 13.72C26.75 13.54 26.9 13.39 27.08 13.39C27.26 13.39 27.41 13.54 27.41 13.72C27.41 13.91 27.26 14.05 27.08 14.05C26.9 14.05 26.75 13.91 26.75 13.72ZM28.44 12.51C28.44 12.33 28.59 12.18 28.77 12.18C28.95 12.18 29.1 12.33 29.1 12.51C29.1 12.7 28.95 12.85 28.77 12.85C28.59 12.85 28.44 12.7 28.44 12.51Z" />
		<g id="Layer">
			<path id="Layer" class="shp8" d="M62.94 20.43C62.94 25.85 58.55 30.24 53.13 30.24C47.71 30.24 43.32 25.85 43.32 20.43C43.32 15.01 47.71 10.61 53.13 10.61C58.55 10.61 62.94 15.01 62.94 20.43Z" />
			<path id="Layer" class="shp9" d="M53.15 13.17C52 16.28 48.77 18.1 47.55 20.76C46.84 22.3 47.34 24.04 48.78 24.7C50.08 25.28 51.67 24.77 52.52 23.54C52.53 23.67 52.53 23.81 52.53 23.95C52.53 25.41 52 26.74 51.15 27.69L55.11 27.69C54.21 26.73 53.64 25.37 53.64 23.86C53.64 23.69 53.65 23.52 53.66 23.35C54.48 24.71 56.16 25.31 57.52 24.7C58.97 24.04 59.37 22.32 58.76 20.76C57.71 18.06 54.55 16.29 53.15 13.17L53.15 13.17Z" />
		</g>
		<g id="Layer">
			<path id="Layer" class="shp10" d="M29.59 20.43C29.59 25.85 25.2 30.24 19.78 30.24C14.36 30.24 9.97 25.85 9.97 20.43C9.97 15.01 14.36 10.61 19.78 10.61C25.2 10.61 29.59 15.01 29.59 20.43Z" />
			<path id="Layer" class="shp11" d="M19.8 13.17C18.65 16.28 15.42 18.1 14.2 20.76C13.49 22.3 13.99 24.04 15.43 24.7C16.73 25.28 18.32 24.77 19.17 23.54C19.18 23.67 19.18 23.81 19.18 23.95C19.18 25.41 18.65 26.74 17.8 27.69L21.76 27.69C20.86 26.73 20.29 25.37 20.29 23.86C20.29 23.69 20.3 23.52 20.31 23.35C21.13 24.71 22.81 25.31 24.17 24.7C25.62 24.04 26.02 22.32 25.41 20.76C24.36 18.06 21.2 16.29 19.8 13.17L19.8 13.17Z" />
		</g>
		<g id="Layer">
			<path id="Layer" class="shp12" d="M29.59 81.19C29.59 86.61 25.2 91 19.78 91C14.36 91 9.97 86.61 9.97 81.19C9.97 75.77 14.36 71.37 19.78 71.37C25.2 71.37 29.59 75.77 29.59 81.19Z" />
			<path id="Layer" class="shp13" d="M19.8 73.93C18.65 77.04 15.42 78.86 14.2 81.52C13.49 83.06 13.99 84.8 15.43 85.46C16.73 86.04 18.32 85.53 19.17 84.3C19.18 84.43 19.18 84.57 19.18 84.71C19.18 86.17 18.65 87.5 17.8 88.45L21.76 88.45C20.86 87.49 20.29 86.13 20.29 84.62C20.29 84.45 20.3 84.28 20.31 84.11C21.13 85.47 22.81 86.07 24.17 85.46C25.62 84.8 26.02 83.08 25.41 81.52C24.36 78.82 21.2 77.05 19.8 73.93L19.8 73.93Z" />
		</g>
		<g id="Layer">
			<path id="Layer" class="shp14" d="M29.59 40.71C29.59 46.13 25.2 50.52 19.78 50.52C14.36 50.52 9.97 46.13 9.97 40.71C9.97 35.29 14.36 30.89 19.78 30.89C25.2 30.89 29.59 35.29 29.59 40.71Z" />
			<path id="Layer" class="shp15" d="M19.8 33.45C18.65 36.56 15.42 38.38 14.2 41.04C13.49 42.58 13.99 44.32 15.43 44.98C16.73 45.56 18.32 45.05 19.17 43.82C19.18 43.95 19.18 44.09 19.18 44.23C19.18 45.69 18.65 47.02 17.8 47.97L21.76 47.97C20.86 47.01 20.29 45.65 20.29 44.14C20.29 43.97 20.3 43.8 20.31 43.63C21.13 44.99 22.81 45.59 24.17 44.98C25.62 44.32 26.02 42.6 25.41 41.04C24.36 38.34 21.2 36.57 19.8 33.45L19.8 33.45Z" />
		</g>
		<g id="Layer">
			<path id="Layer" class="shp16" d="M62.94 40.71C62.94 46.13 58.55 50.52 53.13 50.52C47.71 50.52 43.32 46.13 43.32 40.71C43.32 35.29 47.71 30.89 53.13 30.89C58.55 30.89 62.94 35.29 62.94 40.71Z" />
			<path id="Layer" class="shp17" d="M53.15 33.45C52 36.56 48.77 38.38 47.55 41.04C46.84 42.58 47.34 44.32 48.78 44.98C50.08 45.56 51.67 45.05 52.52 43.82C52.53 43.95 52.53 44.09 52.53 44.23C52.53 45.69 52 47.02 51.15 47.97L55.11 47.97C54.21 47.01 53.64 45.65 53.64 44.14C53.64 43.97 53.65 43.8 53.66 43.63C54.48 44.99 56.16 45.59 57.52 44.98C58.97 44.32 59.37 42.6 58.76 41.04C57.71 38.34 54.55 36.57 53.15 33.45L53.15 33.45Z" />
		</g>
		<g id="Layer">
			<path id="Layer" class="shp18" d="M62.94 81.19C62.94 86.61 58.55 91 53.13 91C47.71 91 43.32 86.61 43.32 81.19C43.32 75.77 47.71 71.37 53.13 71.37C58.55 71.37 62.94 75.77 62.94 81.19Z" />
			<path id="Layer" class="shp19" d="M53.15 73.93C52 77.04 48.77 78.86 47.55 81.52C46.84 83.06 47.34 84.8 48.78 85.46C50.08 86.04 51.67 85.53 52.52 84.3C52.53 84.43 52.53 84.57 52.53 84.71C52.53 86.17 52 87.5 51.15 88.45L55.11 88.45C54.21 87.49 53.64 86.13 53.64 84.62C53.64 84.45 53.65 84.28 53.66 84.11C54.48 85.47 56.16 86.07 57.52 85.46C58.97 84.8 59.37 83.08 58.76 81.52C57.71 78.82 54.55 77.05 53.15 73.93L53.15 73.93Z" />
		</g>
		<g id="Layer">
			<path id="Layer" class="shp20" d="M29.59 61.24C29.59 66.66 25.2 71.05 19.78 71.05C14.36 71.05 9.97 66.66 9.97 61.24C9.97 55.82 14.36 51.42 19.78 51.42C25.2 51.42 29.59 55.82 29.59 61.24Z" />
			<path id="Layer" class="shp21" d="M19.8 53.98C18.65 57.09 15.42 58.91 14.2 61.57C13.49 63.11 13.99 64.85 15.43 65.51C16.73 66.09 18.32 65.58 19.17 64.35C19.18 64.48 19.18 64.62 19.18 64.76C19.18 66.22 18.65 67.55 17.8 68.5L21.76 68.5C20.86 67.54 20.29 66.18 20.29 64.67C20.29 64.5 20.3 64.33 20.31 64.16C21.13 65.52 22.81 66.12 24.17 65.51C25.62 64.85 26.02 63.13 25.41 61.57C24.36 58.87 21.2 57.1 19.8 53.98L19.8 53.98Z" />
		</g>
		<g id="Layer">
			<path id="Layer" class="shp22" d="M62.94 61.24C62.94 66.66 58.55 71.05 53.13 71.05C47.71 71.05 43.32 66.66 43.32 61.24C43.32 55.82 47.71 51.42 53.13 51.42C58.55 51.42 62.94 55.82 62.94 61.24Z" />
			<path id="Layer" class="shp23" d="M53.15 53.98C52 57.09 48.77 58.91 47.55 61.57C46.84 63.11 47.34 64.85 48.78 65.51C50.08 66.09 51.67 65.58 52.52 64.35C52.53 64.48 52.53 64.62 52.53 64.76C52.53 66.22 52 67.55 51.15 68.5L55.11 68.5C54.21 67.54 53.64 66.18 53.64 64.67C53.64 64.5 53.65 64.33 53.66 64.16C54.48 65.52 56.16 66.12 57.52 65.51C58.97 64.85 59.37 63.13 58.76 61.57C57.71 58.87 54.55 57.1 53.15 53.98L53.15 53.98Z" />
		</g>
		<g id="Layer">
			<path id="Layer" class="shp24" d="M46.8 50.81C46.8 56.23 42.41 60.62 36.99 60.62C31.57 60.62 27.18 56.23 27.18 50.81C27.18 45.39 31.57 40.99 36.99 40.99C42.41 40.99 46.8 45.39 46.8 50.81Z" />
			<path id="Layer" class="shp25" d="M37.01 43.55C35.86 46.66 32.63 48.48 31.41 51.14C30.7 52.68 31.2 54.42 32.64 55.08C33.94 55.66 35.53 55.15 36.38 53.92C36.39 54.05 36.39 54.19 36.39 54.33C36.39 55.79 35.86 57.12 35.01 58.07L38.97 58.07C38.07 57.11 37.5 55.75 37.5 54.24C37.5 54.07 37.51 53.9 37.52 53.73C38.34 55.09 40.02 55.69 41.38 55.08C42.83 54.42 43.23 52.7 42.62 51.14C41.57 48.44 38.41 46.67 37.01 43.55L37.01 43.55Z" />
		</g>
	</g>
</svg>