<svg xmlns="http://www.w3.org/2000/svg" viewBox="0 0 73 102" width="73" height="102">
	<defs>
		<filter x="-50%" y="-50%" width="200%" height="200%" id="flt1"> <feGaussianBlur stdDeviation="0.85" /> </filter>
		<linearGradient id="grd1" gradientUnits="userSpaceOnUse"  x1="41.016" y1="26.385" x2="43.161" y2="-89.997">
			<stop offset="0" stop-color="#f3f3f3"  />
			<stop offset="1" stop-color="#8f8f8f"  />
		</linearGradient>
		<radialGradient id="grd2" gradientUnits="userSpaceOnUse"  cx="10.314" cy="91.687" r="13.273">
			<stop offset="0" stop-color="#ffffff"  />
			<stop offset="1" stop-color="#ffffff" stop-opacity="0" />
		</radialGradient>
		<radialGradient id="grd3" gradientUnits="userSpaceOnUse"  cx="61.892" cy="12.545" r="14.287">
			<stop offset="0" stop-color="#ffffff"  />
			<stop offset="1" stop-color="#ffffff" stop-opacity="0" />
		</radialGradient>
		<linearGradient id="grd4" gradientUnits="userSpaceOnUse"  x1="-397.166" y1="90.55" x2="-397.166" y2="87.37">
			<stop offset="0" stop-color="#000000"  />
			<stop offset="1" stop-color="#555753"  />
		</linearGradient>
		<linearGradient id="grd5" gradientUnits="userSpaceOnUse"  x1="-397.171" y1="13.55" x2="-397.171" y2="10.62">
			<stop offset="0" stop-color="#000000"  />
			<stop offset="1" stop-color="#555753"  />
		</linearGradient>
		<radialGradient id="grd6" gradientUnits="userSpaceOnUse"  cx="17.748" cy="73.826" r="25.374">
			<stop offset="0" stop-color="#ffffff"  />
			<stop offset="1" stop-color="#ffffff" stop-opacity="0" />
		</radialGradient>
		<radialGradient id="grd7" gradientUnits="userSpaceOnUse"  cx="19.886" cy="50.807" r="9.813">
			<stop offset="0" stop-color="#ffffff"  />
			<stop offset="1" stop-color="#ffffff" stop-opacity="0" />
		</radialGradient>
		<linearGradient id="grd8" gradientUnits="userSpaceOnUse"  x1="-475.333" y1="54.118" x2="-475.333" y2="47.51">
			<stop offset="0" stop-color="#000000"  />
			<stop offset="1" stop-color="#6f6f6f"  />
		</linearGradient>
		<radialGradient id="grd9" gradientUnits="userSpaceOnUse"  cx="19.886" cy="80.697" r="9.813">
			<stop offset="0" stop-color="#ffffff"  />
			<stop offset="1" stop-color="#ffffff" stop-opacity="0" />
		</radialGradient>
		<linearGradient id="grd10" gradientUnits="userSpaceOnUse"  x1="-475.333" y1="84.008" x2="-475.333" y2="77.4">
			<stop offset="0" stop-color="#000000"  />
			<stop offset="1" stop-color="#6f6f6f"  />
		</linearGradient>
		<radialGradient id="grd11" gradientUnits="userSpaceOnUse"  cx="19.886" cy="19.987" r="9.813">
			<stop offset="0" stop-color="#ffffff"  />
			<stop offset="1" stop-color="#ffffff" stop-opacity="0" />
		</radialGradient>
		<linearGradient id="grd12" gradientUnits="userSpaceOnUse"  x1="-475.333" y1="23.298" x2="-475.333" y2="16.69">
			<stop offset="0" stop-color="#000000"  />
			<stop offset="1" stop-color="#6f6f6f"  />
		</linearGradient>
		<radialGradient id="grd13" gradientUnits="userSpaceOnUse"  cx="53.849" cy="19.987" r="9.813">
			<stop offset="0" stop-color="#ffffff"  />
			<stop offset="1" stop-color="#ffffff" stop-opacity="0" />
		</radialGradient>
		<linearGradient id="grd14" gradientUnits="userSpaceOnUse"  x1="-441.371" y1="23.298" x2="-441.371" y2="16.69">
			<stop offset="0" stop-color="#000000"  />
			<stop offset="1" stop-color="#6f6f6f"  />
		</linearGradient>
		<radialGradient id="grd15" gradientUnits="userSpaceOnUse"  cx="52.873" cy="50.807" r="9.813">
			<stop offset="0" stop-color="#ffffff"  />
			<stop offset="1" stop-color="#ffffff" stop-opacity="0" />
		</radialGradient>
		<linearGradient id="grd16" gradientUnits="userSpaceOnUse"  x1="-442.346" y1="54.118" x2="-442.346" y2="47.51">
			<stop offset="0" stop-color="#000000"  />
			<stop offset="1" stop-color="#6f6f6f"  />
		</linearGradient>
		<radialGradient id="grd17" gradientUnits="userSpaceOnUse"  cx="52.873" cy="80.697" r="9.813">
			<stop offset="0" stop-color="#ffffff"  />
			<stop offset="1" stop-color="#ffffff" stop-opacity="0" />
		</radialGradient>
		<linearGradient id="grd18" gradientUnits="userSpaceOnUse"  x1="-442.346" y1="84.008" x2="-442.346" y2="77.4">
			<stop offset="0" stop-color="#000000"  />
			<stop offset="1" stop-color="#6f6f6f"  />
		</linearGradient>
	</defs>
	<style>
		tspan { white-space:pre }
		.shp0 { filter: url(#flt1);fill: #000000 } 
		.shp1 { fill: url(#grd1);stroke: #000000;stroke-width: 0.226 } 
		.shp2 { opacity: 0.31;fill: url(#grd2) } 
		.shp3 { opacity: 0.318;fill: url(#grd3) } 
		.shp4 { fill: none;stroke: #000000;stroke-width: 0.226 } 
		.shp5 { fill: url(#grd4);stroke: #1b1b1b;stroke-linejoin:round;stroke-width: 0.177 } 
		.shp6 { fill: url(#grd5) } 
		.shp7 { fill: url(#grd6) } 
		.shp8 { opacity: 0.4;fill: url(#grd7) } 
		.shp9 { fill: url(#grd8);stroke: #161616;stroke-linejoin:round;stroke-width: 0.368 } 
		.shp10 { opacity: 0.4;fill: url(#grd9) } 
		.shp11 { fill: url(#grd10);stroke: #161616;stroke-linejoin:round;stroke-width: 0.368 } 
		.shp12 { opacity: 0.4;fill: url(#grd11) } 
		.shp13 { fill: url(#grd12);stroke: #161616;stroke-linejoin:round;stroke-width: 0.368 } 
		.shp14 { opacity: 0.4;fill: url(#grd13) } 
		.shp15 { fill: url(#grd14);stroke: #161616;stroke-linejoin:round;stroke-width: 0.368 } 
		.shp16 { opacity: 0.4;fill: url(#grd15) } 
		.shp17 { fill: url(#grd16);stroke: #161616;stroke-linejoin:round;stroke-width: 0.368 } 
		.shp18 { opacity: 0.4;fill: url(#grd17) } 
		.shp19 { fill: url(#grd18);stroke: #161616;stroke-linejoin:round;stroke-width: 0.368 } 
	</style>
	<g id="-e-Spade6">
		<g id="Layer">
			<path id="Layer" fill-rule="evenodd" class="shp0" d="M4.58 1.56L67.66 1.56C68.12 1.56 68.58 1.66 69.01 1.83C69.44 2.01 69.83 2.27 70.16 2.6C70.49 2.93 70.75 3.32 70.93 3.75C71.1 4.18 71.2 4.64 71.2 5.1L71.2 97.21C71.2 97.68 71.1 98.14 70.93 98.57C70.75 99 70.49 99.39 70.16 99.71C69.83 100.04 69.44 100.3 69.01 100.48C68.58 100.66 68.12 100.75 67.66 100.75L4.58 100.75C4.12 100.75 3.66 100.66 3.23 100.48C2.8 100.3 2.41 100.04 2.08 99.71C1.75 99.39 1.49 99 1.31 98.57C1.14 98.14 1.04 97.68 1.04 97.21L1.04 5.1C1.04 4.64 1.14 4.18 1.31 3.75C1.49 3.32 1.75 2.93 2.08 2.6C2.41 2.27 2.8 2.01 3.23 1.83C3.66 1.66 4.12 1.56 4.58 1.56" />
			<path id="Layer" fill-rule="evenodd" class="shp1" d="M5.5 0.99L67.55 0.99C68.08 0.99 68.61 1.09 69.1 1.3C69.59 1.5 70.04 1.8 70.41 2.17C70.79 2.55 71.09 3 71.29 3.49C71.5 3.98 71.6 4.51 71.6 5.04L71.6 96.12C71.6 96.65 71.5 97.18 71.29 97.67C71.09 98.16 70.79 98.61 70.41 98.99C70.04 99.36 69.59 99.66 69.1 99.86C68.61 100.07 68.08 100.17 67.55 100.17L5.5 100.17C4.97 100.17 4.44 100.07 3.95 99.86C3.46 99.66 3.01 99.36 2.64 98.99C2.26 98.61 1.96 98.16 1.76 97.67C1.55 97.18 1.45 96.65 1.45 96.12L1.45 5.04C1.45 4.51 1.55 3.98 1.76 3.49C1.96 3 2.26 2.55 2.64 2.17C3.01 1.8 3.46 1.5 3.95 1.3C4.44 1.09 4.97 0.99 5.5 0.99" />
			<path id="Layer" class="shp2" d="M31.7 96.75L5.15 96.75L5.15 72.47L31.7 72.47L31.7 96.75Z" />
			<path id="Layer" class="shp3" d="M40.36 4.41L66.86 4.41C67 4.41 67.13 4.43 67.26 4.49C67.39 4.54 67.5 4.61 67.6 4.71C67.69 4.81 67.77 4.92 67.82 5.05C67.87 5.17 67.9 5.31 67.9 5.44L67.9 48.65C67.9 48.78 67.87 48.92 67.82 49.04C67.77 49.17 67.69 49.28 67.6 49.38C67.5 49.47 67.39 49.55 67.26 49.6C67.13 49.65 67 49.68 66.86 49.68L40.36 49.68C40.22 49.68 40.09 49.65 39.96 49.6C39.84 49.55 39.72 49.47 39.63 49.38C39.53 49.28 39.46 49.17 39.4 49.04C39.35 48.92 39.33 48.78 39.33 48.65L39.33 5.44C39.33 5.31 39.35 5.17 39.4 5.05C39.46 4.92 39.53 4.81 39.63 4.71C39.72 4.61 39.84 4.54 39.96 4.49C40.09 4.43 40.22 4.41 40.36 4.41" />
			<path id="Layer" class="shp4" d="M19.87 92.68L64.59 92.68L64.59 19.08" />
			<path id="Layer" class="shp4" d="M53.02 8.47L8.46 8.47L8.46 81.66" />
		</g>
		<path id="Layer" class="shp5" d="M11.51 85.46C10.95 86.96 9.4 87.84 8.81 89.12C8.46 89.86 8.7 90.7 9.4 91.01C10.03 91.3 10.79 91.05 11.2 90.46C11.21 90.52 11.21 90.59 11.21 90.66C11.21 91.36 10.95 92 10.54 92.46L12.45 92.46C12.01 91.99 11.74 91.34 11.74 90.61C11.74 90.53 11.74 90.45 11.75 90.37C12.15 91.02 12.95 91.31 13.61 91.01C14.31 90.7 14.5 89.87 14.21 89.12C13.7 87.82 12.18 86.97 11.51 85.46L11.51 85.46Z" />
		<path id="Layer" fill-rule="evenodd" class="shp6" d="M64.45 8.3L64.47 8.48C62.73 8.77 61.49 9.96 61.19 11.64C61.88 11.22 62.12 11.14 62.61 11.14C63.88 11.14 64.69 12.04 64.69 13.46C64.69 14.99 63.74 16.04 62.36 16.04C61.67 16.04 61.08 15.77 60.65 15.29C60.18 14.73 59.88 13.76 59.88 12.79C59.88 11.31 60.53 10.04 61.73 9.19C62.54 8.62 63.18 8.41 64.45 8.3ZM62.18 11.65C61.8 11.65 61.45 11.75 61.22 11.93C61 12.09 60.91 12.4 60.91 12.97C60.91 14.69 61.51 15.73 62.48 15.73C63.26 15.73 63.69 15.05 63.69 13.83C63.69 12.45 63.14 11.65 62.18 11.65L62.18 11.65Z" />
		<path id="Layer" fill-rule="evenodd" class="shp7" d="M17.65 89.44C17.65 89.44 17.65 89.44 17.65 89.44C17.65 89.44 17.65 89.44 17.65 89.44L17.65 89.44ZM17.65 89.44C15.34 83.67 13.78 83.84 11.79 83.26L14.76 83.26C14.78 83.16 14.8 83.07 14.81 82.97C14.87 82.72 14.94 82.47 15.02 82.22C15.02 81.89 15.02 81.56 15.02 81.23C15.03 80.52 15.13 79.81 15.22 79.1C15.24 78.92 15.26 78.73 15.29 78.55C15.2 78.47 15.22 77.93 15.48 76.87C15.53 76.66 15.57 76.44 15.61 76.22C15.7 75.72 15.81 75.22 15.92 74.73C16.04 74.14 16.23 73.56 16.42 72.99C16.66 72.3 16.95 71.64 17.23 70.98C17.58 70.16 17.94 69.35 18.3 68.54C18.79 67.44 19.33 66.38 19.87 65.31C20.56 64 21.17 62.65 21.76 61.29C22.45 59.63 23.14 57.98 23.83 56.32C24.58 54.55 25.29 52.76 25.96 50.97C26 50.85 26.05 50.74 26.09 50.62C26.08 50.58 26.07 50.54 26.07 50.5C26.07 50.38 26.13 50.27 26.23 50.21C26.83 48.53 27.37 46.84 27.89 45.13C28.55 42.99 29.1 40.81 29.54 38.61C29.99 36.05 30.09 33.46 30.07 30.87C30.01 28.75 29.79 26.65 29.54 24.55C29.43 24.64 29.3 24.7 29.15 24.7C28.82 24.7 28.54 24.43 28.54 24.1C28.54 23.77 28.82 23.49 29.15 23.49C29.25 23.49 29.34 23.52 29.43 23.56L29.36 23C29.26 22.26 29.16 21.52 29.05 20.78C29 20.88 28.88 20.95 28.75 20.95C28.57 20.95 28.42 20.81 28.42 20.62C28.42 20.44 28.57 20.29 28.75 20.29C28.84 20.29 28.93 20.32 28.99 20.37C28.88 19.68 28.78 18.98 28.67 18.29C28.5 17.22 28.53 16.57 28.65 16.41C28.55 16.3 28.49 16.15 28.49 15.99C28.49 15.66 28.75 15.39 29.09 15.39C29.42 15.39 29.7 15.66 29.7 15.99C29.7 16.33 29.42 16.6 29.09 16.6C29.02 16.6 28.96 16.58 28.9 16.56C29.01 16.8 29.14 17.26 29.25 17.96C29.49 19.52 29.73 21.09 29.93 22.67C30.25 25.28 30.56 27.9 30.64 30.53C30.66 33.12 30.56 35.72 30.12 38.28C29.68 40.48 29.12 42.65 28.47 44.79C27.91 46.64 27.33 48.49 26.67 50.3C26.71 50.36 26.73 50.43 26.73 50.5C26.73 50.66 26.62 50.79 26.48 50.83C25.83 52.56 25.14 54.28 24.41 55.98C23.73 57.64 23.04 59.3 22.35 60.95C21.77 62.31 21.16 63.65 20.48 64.96C19.94 66.03 19.39 67.1 18.91 68.19C18.55 69 18.19 69.81 17.84 70.62C17.55 71.29 17.27 71.95 17.03 72.64C16.85 73.21 16.65 73.79 16.53 74.38C16.52 74.45 16.5 74.52 16.49 74.59C16.68 74.16 16.87 73.74 17.07 73.32C17.22 73.01 17.39 72.71 17.56 72.4C17.56 72.4 17.56 72.39 17.56 72.38C17.64 72.13 17.77 71.91 17.88 71.68C18.05 71.33 18.26 71 18.46 70.67C18.65 70.35 18.86 70.05 19.08 69.75C19.65 68.75 20.31 67.8 20.98 66.87C21.51 66.14 22.12 65.49 22.74 64.85C22.77 64.71 22.88 64.59 23.02 64.57L23.54 64.05C24.54 63.11 25.58 62.2 26.58 61.25C27.77 60.14 28.92 58.99 30.06 57.84C31.37 56.53 32.57 55.12 33.68 53.65C34.93 51.94 35.97 50.09 36.98 48.24C37.31 47.64 37.62 47.03 37.92 46.41L37.8 46.42C37.46 46.42 37.2 46.15 37.2 45.81C37.2 45.48 37.46 45.21 37.8 45.21C38.02 45.21 38.22 45.33 38.32 45.52C38.81 44.4 39.24 43.27 39.63 42.12L39.7 41.89C39.66 41.62 39.64 41.22 39.66 40.67C39.68 39.73 39.7 38.8 39.68 37.86C39.62 36.17 39.51 34.49 39.29 32.82C39.1 31.68 38.93 30.53 38.6 29.42C38.43 28.86 38.28 28.29 38.02 27.76C37.93 27.62 37.89 27.45 37.75 27.33C35.83 25.64 36.47 25.25 38.38 26.96C38.51 27.08 38.56 27.26 38.65 27.41C38.89 27.94 39.05 28.51 39.21 29.07C39.54 30.18 39.71 31.33 39.89 32.47C40.11 34.14 40.21 35.83 40.26 37.51C40.28 38.22 40.27 38.94 40.26 39.65C40.58 38.16 40.81 36.65 41 35.14C41.05 34.47 41.08 33.8 41.1 33.13C41.03 33.15 40.96 33.17 40.89 33.17C40.55 33.17 40.28 32.9 40.28 32.56C40.28 32.23 40.55 31.96 40.89 31.96C40.97 31.96 41.05 31.98 41.12 32.01C41.12 30.97 41.1 29.94 41.07 28.9C40.82 28.82 40.65 28.61 40.65 28.34C40.65 28.08 40.81 27.86 41.03 27.77C41.03 27.66 41.02 27.55 41.02 27.44C41.01 27.03 40.99 26.61 40.98 26.19C40.89 23.85 41.47 23.52 41.55 25.86C41.57 26.28 41.58 26.69 41.59 27.11C41.6 27.36 41.61 27.61 41.61 27.85C41.76 27.97 41.86 28.14 41.86 28.34C41.86 28.52 41.78 28.68 41.65 28.79C41.71 30.79 41.73 32.8 41.57 34.8C41.28 37.16 40.9 39.51 40.21 41.79C39.5 43.9 38.65 45.96 37.56 47.91C36.55 49.76 35.51 51.6 34.27 53.31C33.16 54.78 31.96 56.19 30.66 57.5C29.51 58.65 28.36 59.8 27.18 60.91C26.17 61.85 25.14 62.76 24.14 63.71C23.83 64.01 23.53 64.31 23.23 64.61C23.31 64.66 23.37 64.73 23.39 64.82C24.15 64.04 24.95 63.31 25.76 62.58L28.56 60.09C29.55 59.21 30.55 58.33 31.55 57.46C32.67 56.48 33.76 55.47 34.84 54.45C36.06 53.29 37.25 52.1 38.43 50.9C39.68 49.65 40.86 48.32 42 46.97C42.88 45.93 43.71 44.85 44.53 43.76C44.52 43.72 44.51 43.68 44.51 43.64C44.51 43.32 44.75 43.07 45.06 43.04L45.67 42.2C46.75 40.71 47.73 39.16 48.65 37.57C48.61 37.58 48.58 37.59 48.54 37.59C48.35 37.59 48.2 37.44 48.2 37.26C48.2 37.07 48.35 36.92 48.54 36.92C48.7 36.92 48.83 37.04 48.86 37.19C48.95 37.04 49.04 36.89 49.12 36.74C50.2 34.73 51.23 32.68 51.92 30.51C52.43 28.6 52.73 26.66 53.04 24.72C53.41 22.38 53.99 22.04 53.62 24.38C53.31 26.32 53.01 28.27 52.5 30.17C51.81 32.35 50.79 34.4 49.71 36.41C48.66 38.29 47.52 40.12 46.25 41.86C45.96 42.27 45.66 42.68 45.36 43.08C45.57 43.18 45.72 43.39 45.72 43.64C45.72 43.97 45.46 44.24 45.12 44.24C44.93 44.24 44.77 44.16 44.66 44.02C43.99 44.91 43.3 45.78 42.59 46.63C41.44 47.98 40.26 49.31 39.01 50.56C38.44 51.14 37.87 51.72 37.3 52.29C37.47 52.13 37.77 51.85 38.23 51.46C39.33 50.52 40.45 49.6 41.6 48.72C42.68 47.9 43.79 47.12 45.01 46.51C45.11 46.32 45.31 46.18 45.55 46.18C45.6 46.18 45.65 46.18 45.7 46.19C45.89 46.12 46.07 46.07 46.27 46.06C48.7 45.9 48.23 46.23 46 46.39C46.09 46.5 46.15 46.63 46.15 46.78C46.15 47.12 45.88 47.39 45.55 47.39C45.21 47.39 44.94 47.12 44.94 46.78C44.94 46.72 44.96 46.66 44.97 46.6L44.47 46.82C44.06 46.98 43.03 47.76 42.2 48.38C41.04 49.26 39.92 50.18 38.82 51.12C37.67 52.09 37.02 52.6 37.13 52.45C36.57 53.01 36.01 53.56 35.44 54.1C34.36 55.12 33.27 56.14 32.15 57.11C31.15 57.99 30.15 58.86 29.16 59.75C28.23 60.58 27.3 61.41 26.36 62.24C25.5 63.02 24.64 63.8 23.83 64.64C23.1 65.38 22.38 66.11 21.71 66.9C21.18 67.51 20.66 68.13 20.16 68.76L19.65 69.46C19.62 69.51 19.59 69.56 19.56 69.6C19.11 70.38 18.66 71.15 18.23 71.93L18.19 72.02C18.15 72.15 18.11 72.28 18.05 72.4C17.69 73.16 17.39 73.71 17.18 74.02C16.86 74.74 16.56 75.46 16.35 76.22C16.13 77.05 15.92 77.89 15.83 78.75C15.75 79.35 15.67 79.96 15.65 80.57L15.79 80.27C16.11 79.65 16.49 79.08 16.88 78.51C17.19 78.03 17.53 77.58 17.89 77.15C17.82 77.05 17.77 76.92 17.77 76.79C17.77 76.45 18.05 76.18 18.38 76.18C18.49 76.18 18.6 76.21 18.69 76.26C19.27 75.66 19.89 75.1 20.51 74.55C21.32 73.8 22.18 73.11 23.04 72.44C24.07 71.64 25.17 70.93 26.27 70.21C27.52 69.4 28.79 68.62 30.08 67.86L30.37 67.69C30.12 67.62 29.94 67.38 29.94 67.11C29.94 66.77 30.21 66.5 30.54 66.5C30.88 66.5 31.14 66.77 31.14 67.11C31.14 67.44 30.88 67.71 30.54 67.71C30.49 67.71 30.44 67.71 30.39 67.69C29.34 68.33 28.29 68.97 27.26 69.64C26.17 70.35 25.08 71.06 24.05 71.86C23.19 72.53 22.33 73.22 21.52 73.96C20.79 74.62 20.05 75.27 19.39 76L18.93 76.54C18.97 76.61 18.99 76.7 18.99 76.79C18.99 77.12 18.72 77.39 18.38 77.39C18.35 77.39 18.31 77.39 18.28 77.38C18.15 77.56 18.02 77.74 17.9 77.92C17.52 78.49 17.13 79.06 16.81 79.67C16.59 80.14 16.35 80.61 16.21 81.11C16.14 81.34 16.07 81.57 16 81.8C16.09 81.86 16.14 81.96 16.14 82.08C16.14 82.25 16.01 82.39 15.84 82.41C15.79 82.71 15.7 83.01 15.71 83.31C15.72 83.49 15.72 83.66 15.75 83.84C15.77 83.94 15.77 84.04 15.81 84.14C16.08 85.35 18.18 88.54 17.65 89.44ZM17.9 84.44C17.9 84.25 18.05 84.1 18.23 84.1C18.42 84.1 18.57 84.25 18.57 84.44C18.57 84.62 18.42 84.77 18.23 84.77C18.05 84.77 17.9 84.62 17.9 84.44ZM13 82.47C13 82.14 13.27 81.86 13.6 81.86C13.94 81.86 14.21 82.14 14.21 82.47C14.21 82.81 13.94 83.08 13.6 83.08C13.27 83.08 13 82.81 13 82.47ZM16.27 81.74C16.27 81.41 16.54 81.14 16.87 81.14C17.2 81.14 17.48 81.41 17.48 81.74C17.48 82.08 17.2 82.35 16.87 82.35C16.54 82.35 16.27 82.08 16.27 81.74ZM12.27 80.32C12.27 80.14 12.42 79.99 12.61 79.99C12.79 79.99 12.94 80.14 12.94 80.32C12.94 80.51 12.79 80.65 12.61 80.65C12.42 80.65 12.27 80.51 12.27 80.32ZM13.79 79.78C13.79 79.59 13.94 79.45 14.12 79.45C14.3 79.45 14.45 79.59 14.45 79.78C14.45 79.96 14.3 80.11 14.12 80.11C13.94 80.11 13.79 79.96 13.79 79.78ZM19.23 78.78C19.23 78.45 19.5 78.18 19.83 78.18C20.17 78.18 20.44 78.45 20.44 78.78C20.44 79.11 20.17 79.39 19.83 79.39C19.5 79.39 19.23 79.11 19.23 78.78ZM20.92 78.02C20.92 77.84 21.07 77.69 21.25 77.69C21.44 77.69 21.59 77.84 21.59 78.02C21.59 78.21 21.44 78.36 21.25 78.36C21.07 78.36 20.92 78.21 20.92 78.02ZM12.33 77.09C12.33 76.76 12.6 76.48 12.94 76.48C13.27 76.48 13.55 76.76 13.55 77.09C13.55 77.43 13.27 77.69 12.94 77.69C12.6 77.69 12.33 77.43 12.33 77.09ZM13.72 75.33C13.72 75 14 74.73 14.33 74.73C14.67 74.73 14.93 75 14.93 75.33C14.93 75.66 14.67 75.94 14.33 75.94C14 75.94 13.72 75.66 13.72 75.33ZM21.83 75.37C21.83 75.18 21.98 75.03 22.16 75.03C22.35 75.03 22.5 75.18 22.5 75.37C22.5 75.55 22.35 75.7 22.16 75.7C21.98 75.7 21.83 75.55 21.83 75.37ZM25.94 74.55C25.94 74.21 26.21 73.95 26.55 73.95C26.88 73.94 27.16 74.21 27.16 74.55C27.16 74.88 26.88 75.15 26.55 75.15C26.21 75.15 25.94 74.88 25.94 74.55ZM19.47 73.82C19.47 73.49 19.75 73.22 20.08 73.22C20.41 73.22 20.68 73.49 20.68 73.82C20.68 74.16 20.41 74.43 20.08 74.43C19.75 74.43 19.47 74.16 19.47 73.82ZM22.45 74.28C22.43 74.27 22.8 73.98 23.66 73.34C24.14 73 24.6 72.63 25.11 72.32C26.22 71.65 27.34 70.98 28.53 70.45C29.38 70.07 30.23 69.69 31.09 69.36C31.7 69.11 32.3 68.87 32.91 68.64L33.7 68.34C36.08 67.42 35.46 67.79 33.07 68.7L32.3 68.99C31.69 69.22 31.08 69.47 30.48 69.71C29.94 69.92 29.41 70.15 28.88 70.38C29.2 70.4 29.45 70.65 29.45 70.98C29.45 71.31 29.18 71.58 28.85 71.58C28.51 71.58 28.25 71.31 28.25 70.98C28.25 70.83 28.3 70.7 28.39 70.59L27.92 70.8C27.25 71.06 25.92 71.85 25.71 71.97C25.21 72.28 24.75 72.65 24.27 73C23.16 73.82 22.48 74.28 22.45 74.28L22.45 74.28ZM13.42 73.03C13.42 72.7 13.69 72.43 14.03 72.43C14.36 72.43 14.64 72.7 14.64 73.03C14.64 73.37 14.36 73.64 14.03 73.64C13.69 73.64 13.42 73.37 13.42 73.03ZM26.91 72.64C26.91 72.46 27.06 72.31 27.24 72.31C27.42 72.31 27.57 72.46 27.57 72.64C27.57 72.83 27.42 72.98 27.24 72.98C27.06 72.98 26.91 72.83 26.91 72.64ZM15.66 71.52C15.66 71.19 15.93 70.92 16.27 70.92C16.6 70.92 16.87 71.19 16.87 71.52C16.87 71.85 16.6 72.13 16.27 72.13C15.93 72.13 15.66 71.85 15.66 71.52ZM18.93 71.34C18.93 71.01 19.2 70.74 19.53 70.74C19.87 70.74 20.14 71.01 20.14 71.34C20.14 71.68 19.87 71.94 19.53 71.94C19.2 71.94 18.93 71.68 18.93 71.34ZM11 71.13C11 70.95 11.15 70.8 11.33 70.8C11.52 70.8 11.67 70.95 11.67 71.13C11.67 71.31 11.52 71.46 11.33 71.46C11.15 71.46 11 71.31 11 71.13ZM32.11 69.98C32.11 69.79 32.26 69.65 32.44 69.65C32.63 69.65 32.78 69.8 32.78 69.98C32.78 70.16 32.63 70.31 32.44 70.31C32.26 70.31 32.11 70.16 32.11 69.98ZM24.61 69.65C24.61 69.31 24.89 69.05 25.22 69.05C25.55 69.05 25.82 69.31 25.82 69.65C25.82 69.98 25.55 70.25 25.22 70.25C24.89 70.25 24.61 69.98 24.61 69.65ZM35.9 69.71C35.71 69.71 35.56 69.56 35.56 69.38C35.56 69.31 35.58 69.25 35.61 69.2C35.56 69.22 35.5 69.22 35.44 69.22C35.11 69.22 34.83 68.96 34.83 68.62C34.83 68.29 35.11 68.01 35.44 68.01C35.78 68.01 36.04 68.29 36.04 68.62C36.04 68.79 35.98 68.94 35.87 69.05L35.9 69.05C36.08 69.05 36.23 69.19 36.23 69.38C36.23 69.56 36.08 69.71 35.9 69.71L35.9 69.71ZM37.37 67.71C37.37 67.38 37.65 67.11 37.98 67.11C38.31 67.11 38.59 67.38 38.59 67.71C38.59 68.04 38.31 68.32 37.98 68.32C37.65 68.32 37.37 68.04 37.37 67.71ZM16.75 67.71C16.75 67.38 17.02 67.11 17.36 67.11C17.69 67.11 17.96 67.38 17.96 67.71C17.96 68.04 17.69 68.32 17.36 68.32C17.02 68.32 16.75 68.04 16.75 67.71ZM21.53 67.65C21.53 67.32 21.8 67.04 22.13 67.04C22.46 67.04 22.74 67.32 22.74 67.65C22.74 67.99 22.46 68.25 22.13 68.25C21.8 68.25 21.53 67.99 21.53 67.65ZM39.19 67.86C39.19 67.68 39.34 67.53 39.52 67.53C39.71 67.53 39.85 67.68 39.85 67.86C39.85 68.05 39.71 68.2 39.52 68.2C39.34 68.2 39.19 68.05 39.19 67.86ZM26.19 67.44C26.19 67.26 26.34 67.11 26.52 67.11C26.7 67.11 26.85 67.26 26.85 67.44C26.85 67.62 26.7 67.77 26.52 67.77C26.34 67.77 26.19 67.62 26.19 67.44ZM20.98 67.38C20.98 67.38 20.98 67.38 20.98 67.38C20.98 67.38 20.98 67.38 20.98 67.38L20.98 67.38ZM20.98 67.38C21.02 67.33 21.05 67.29 21.09 67.25C21.7 66.55 22.34 65.88 22.99 65.22C22.91 65.2 22.83 65.15 22.79 65.07C22.36 65.53 21.95 66.01 21.59 66.52C21.38 66.8 21.18 67.09 20.98 67.38ZM32.49 66.46C32.49 66.46 32.5 66.46 32.51 66.45C32.5 66.46 32.49 66.46 32.49 66.46L32.49 66.46ZM32.51 66.45C33.48 65.9 34.46 65.34 35.44 64.8C35.56 64.73 35.75 64.62 35.91 64.53C35.67 64.45 35.5 64.23 35.5 63.96C35.5 63.63 35.77 63.35 36.11 63.35C36.44 63.35 36.71 63.63 36.71 63.96C36.71 64.01 36.7 64.05 36.69 64.1L38.77 62.93C38.07 63.33 37.38 63.72 36.69 64.12C36.62 64.37 36.39 64.56 36.11 64.56C36.05 64.56 35.99 64.56 35.94 64.54C35.44 64.82 34.94 65.09 34.45 65.36C33.75 65.75 33.08 66.13 32.51 66.45ZM39.92 66.05C39.92 65.86 40.07 65.72 40.25 65.72C40.43 65.72 40.58 65.86 40.58 66.05C40.58 66.23 40.43 66.38 40.25 66.38C40.07 66.38 39.92 66.23 39.92 66.05ZM17.11 65.47C16.78 65.47 16.51 65.2 16.51 64.87C16.51 64.53 16.78 64.27 17.11 64.27C17.22 64.27 17.32 64.29 17.41 64.34C17.42 64.17 17.56 64.02 17.75 64.02C17.93 64.02 18.08 64.17 18.08 64.36C18.08 64.54 17.93 64.69 17.75 64.69C17.72 64.69 17.7 64.69 17.68 64.68C17.7 64.74 17.72 64.8 17.72 64.87C17.72 65.2 17.44 65.48 17.11 65.48L17.11 65.47ZM14.81 65.08C14.81 64.9 14.96 64.75 15.14 64.75C15.33 64.75 15.48 64.9 15.48 65.08C15.48 65.26 15.33 65.41 15.14 65.41C14.96 65.41 14.81 65.26 14.81 65.08ZM18.74 62.51C18.74 62.18 19.02 61.9 19.35 61.9C19.68 61.9 19.95 62.18 19.95 62.51C19.95 62.85 19.68 63.11 19.35 63.11C19.02 63.11 18.74 62.85 18.74 62.51ZM44.58 62.66C44.58 62.48 44.73 62.33 44.91 62.33C45.09 62.33 45.24 62.48 45.24 62.66C45.24 62.84 45.09 62.99 44.91 62.99C44.73 62.99 44.58 62.84 44.58 62.66ZM39.01 62.79L39.03 62.77C39.03 62.78 39.02 62.78 39.01 62.79L39.01 62.79ZM39.03 62.77C40.51 61.91 41.91 60.93 43.28 59.9C44.32 59.1 45.32 58.23 46.28 57.32C46.28 57.31 46.29 57.3 46.29 57.29C45.81 57.7 45.31 58.09 44.81 58.48C42.9 60.01 42.3 60.35 44.21 58.83C44.76 58.39 45.31 57.97 45.84 57.51C46.56 56.88 47.28 56.25 48 55.61C49.27 54.26 50.38 52.77 51.43 51.24C52.68 49.46 53.59 47.5 54.35 45.47C55.14 43.27 55.46 40.95 55.63 38.62C55.83 36.54 55.66 34.47 55.39 32.41C54.9 28.55 55.85 28.01 56.35 31.86C56.61 33.93 56.8 35.99 56.59 38.07C56.44 40.09 56.18 42.1 55.6 44.04C55.71 43.94 55.85 43.88 56.01 43.88C56.34 43.88 56.61 44.15 56.61 44.48C56.61 44.82 56.34 45.09 56.01 45.09C55.72 45.09 55.47 44.88 55.42 44.6C55.38 44.71 55.35 44.81 55.32 44.92C54.57 46.94 53.65 48.9 52.4 50.67C51.7 51.68 50.98 52.68 50.21 53.63C50.76 53.13 51.31 52.62 51.86 52.11L52.54 51.41C52.59 51.27 52.7 51.16 52.84 51.09C53.28 50.6 53.71 50.09 54.07 49.53C54.64 48.69 55.21 47.84 55.76 46.99C56.3 46.13 56.84 45.28 57.36 44.41C57.81 43.67 58.26 42.92 58.66 42.14C58.88 41.67 59.12 41.21 59.28 40.72C59.35 40.53 59.4 40.34 59.49 40.16C59.72 39.7 59.92 39.34 60.1 39.04C59.89 38.94 59.76 38.73 59.76 38.5C59.76 38.17 60.01 37.91 60.33 37.89C60.24 37.83 60.18 37.73 60.18 37.62C60.18 37.44 60.33 37.29 60.51 37.29C60.7 37.29 60.85 37.44 60.85 37.62C60.85 37.77 60.74 37.9 60.6 37.94C60.82 38.03 60.97 38.25 60.97 38.5C60.97 38.8 60.75 39.04 60.46 39.09C60.37 39.29 60.25 39.52 60.11 39.8C60.02 39.98 59.97 40.17 59.9 40.35C59.74 40.85 59.5 41.32 59.28 41.79L59.04 42.24C59.14 42.13 59.29 42.07 59.45 42.07C59.79 42.07 60.06 42.33 60.06 42.67C60.06 43 59.79 43.27 59.45 43.27C59.12 43.27 58.85 43 58.85 42.67C58.85 42.63 58.86 42.59 58.87 42.55C58.58 43.06 58.27 43.56 57.97 44.06C57.44 44.92 56.9 45.78 56.36 46.63C55.82 47.49 55.25 48.33 54.68 49.17C54.25 49.85 53.72 50.45 53.17 51.02C53.47 51.06 53.71 51.32 53.71 51.62C53.71 51.96 53.44 52.23 53.1 52.23C52.8 52.23 52.54 52 52.5 51.71L52.46 51.76C51.51 52.66 50.53 53.53 49.56 54.41L49.51 54.45C49.2 54.81 48.87 55.17 48.54 55.51C48.08 55.97 47.61 56.43 47.13 56.88C47.34 56.97 47.48 57.19 47.48 57.43C47.48 57.76 47.21 58.03 46.87 58.03C46.61 58.03 46.39 57.87 46.31 57.63C45.65 58.22 44.96 58.79 44.26 59.33C42.86 60.39 41.43 61.39 39.91 62.27L39.03 62.77ZM35.32 62.3C35.32 62.12 35.47 61.97 35.65 61.97C35.84 61.97 35.99 62.12 35.99 62.3C35.99 62.48 35.84 62.63 35.65 62.63C35.47 62.63 35.32 62.48 35.32 62.3ZM41.71 62.39L41.64 62.39C41.46 62.39 41.31 62.24 41.31 62.05C41.31 61.87 41.46 61.72 41.64 61.72C41.83 61.72 41.98 61.87 41.98 62.05C41.98 62.21 41.86 62.35 41.71 62.39ZM27.7 61.6C27.7 61.27 27.97 61 28.3 61C28.64 61 28.91 61.27 28.91 61.6C28.91 61.93 28.64 62.21 28.3 62.21C27.97 62.21 27.7 61.93 27.7 61.6ZM29.81 61.69C29.81 61.51 29.96 61.36 30.15 61.36C30.33 61.36 30.48 61.51 30.48 61.69C30.48 61.88 30.33 62.02 30.15 62.02C29.96 62.02 29.81 61.88 29.81 61.69ZM38.59 60.18C38.59 60 38.74 59.85 38.92 59.85C39.1 59.85 39.25 60 39.25 60.18C39.25 60.36 39.1 60.51 38.92 60.51C38.74 60.51 38.59 60.36 38.59 60.18ZM41.31 59.73C41.31 59.39 41.58 59.12 41.91 59.12C42.25 59.12 42.52 59.39 42.52 59.73C42.52 60.06 42.25 60.34 41.91 60.34C41.58 60.34 41.31 60.06 41.31 59.73ZM19.95 59.49C19.95 59.15 20.23 58.88 20.56 58.88C20.89 58.88 21.17 59.15 21.17 59.49C21.17 59.82 20.89 60.09 20.56 60.09C20.23 60.09 19.95 59.82 19.95 59.49ZM48.87 59.15C48.87 58.97 49.02 58.82 49.2 58.82C49.38 58.82 49.53 58.97 49.53 59.15C49.53 59.34 49.38 59.49 49.2 59.49C49.02 59.49 48.87 59.34 48.87 59.15ZM27.28 58.76C27.28 58.42 27.54 58.16 27.88 58.16C28.21 58.16 28.49 58.42 28.49 58.76C28.49 59.09 28.21 59.37 27.88 59.37C27.54 59.37 27.28 59.09 27.28 58.76ZM18.5 58C18.5 57.82 18.65 57.67 18.84 57.67C19.02 57.67 19.17 57.82 19.17 58C19.17 58.19 19.02 58.33 18.84 58.33C18.65 58.33 18.5 58.19 18.5 58ZM42.64 57.67C42.64 57.34 42.91 57.07 43.24 57.07C43.57 57.07 43.85 57.34 43.85 57.67C43.85 58 43.57 58.28 43.24 58.28C42.91 58.28 42.64 58 42.64 57.67ZM21.53 57.67C21.19 57.67 20.92 57.4 20.92 57.07C20.92 56.84 21.06 56.64 21.25 56.54C21.23 56.5 21.22 56.47 21.22 56.43C21.22 56.25 21.37 56.1 21.56 56.1C21.74 56.1 21.89 56.25 21.89 56.43C21.89 56.48 21.89 56.53 21.87 56.57C22.03 56.68 22.13 56.86 22.13 57.07C22.13 57.4 21.86 57.67 21.53 57.67L21.53 57.67ZM33.99 56.52C33.99 56.19 34.26 55.92 34.59 55.92C34.93 55.92 35.2 56.19 35.2 56.52C35.2 56.86 34.93 57.13 34.59 57.13C34.26 57.13 33.99 56.86 33.99 56.52ZM23.45 56.91C23.33 56.92 23.31 56.4 23.52 55.3C23.75 54.03 23.98 52.76 24.12 51.48C24.28 49.9 24.38 48.32 24.32 46.73C24.26 45.55 24.18 44.36 23.97 43.19C23.85 42.4 23.72 41.6 23.52 40.83C23.42 40.53 23.37 40.22 23.23 39.94C22.15 37.62 22.81 37.24 23.85 39.58C23.98 39.87 24.05 40.17 24.14 40.48C24.34 41.25 24.46 42.04 24.58 42.84C24.79 44.01 24.86 45.2 24.92 46.39C24.97 47.98 24.87 49.56 24.71 51.14C24.57 52.43 24.34 53.69 24.1 54.96C23.87 56.21 23.59 56.89 23.45 56.91L23.45 56.91ZM36.04 56.55C36.04 56.37 36.19 56.22 36.38 56.22C36.56 56.22 36.71 56.37 36.71 56.55C36.71 56.74 36.56 56.88 36.38 56.88C36.19 56.88 36.04 56.74 36.04 56.55ZM26.12 56.31C26.12 56.13 26.27 55.98 26.46 55.98C26.64 55.98 26.79 56.13 26.79 56.31C26.79 56.5 26.64 56.64 26.46 56.64C26.27 56.64 26.12 56.5 26.12 56.31ZM29.81 54.95C29.81 54.61 30.09 54.35 30.42 54.35C30.76 54.35 31.02 54.61 31.02 54.95C31.02 55.28 30.76 55.56 30.42 55.56C30.09 55.56 29.81 55.28 29.81 54.95ZM46.69 54.47C46.69 54.13 46.97 53.86 47.3 53.86C47.63 53.86 47.9 54.13 47.9 54.47C47.9 54.8 47.63 55.07 47.3 55.07C46.97 55.07 46.69 54.8 46.69 54.47ZM53.77 53.34C53.77 53.16 53.92 53.01 54.1 53.01C54.28 53.01 54.43 53.16 54.43 53.34C54.43 53.53 54.28 53.68 54.1 53.68C53.92 53.68 53.77 53.53 53.77 53.34ZM41.98 50.23C41.98 49.9 42.24 49.62 42.58 49.62C42.91 49.62 43.18 49.9 43.18 50.23C43.18 50.57 42.91 50.83 42.58 50.83C42.24 50.83 41.98 50.57 41.98 50.23ZM48.68 49.53C48.68 49.35 48.83 49.2 49.02 49.2C49.2 49.2 49.36 49.35 49.36 49.53C49.36 49.72 49.2 49.86 49.02 49.86C48.83 49.86 48.68 49.72 48.68 49.53ZM18.99 48.84C18.99 48.51 19.26 48.23 19.59 48.23C19.93 48.23 20.2 48.51 20.2 48.84C20.2 49.17 19.93 49.45 19.59 49.45C19.26 49.45 18.99 49.17 18.99 48.84ZM34.29 48.6C34.29 48.26 34.56 47.99 34.9 47.99C35.23 47.99 35.5 48.26 35.5 48.6C35.5 48.93 35.23 49.2 34.9 49.2C34.56 49.2 34.29 48.93 34.29 48.6ZM57.88 48.15C57.88 47.96 58.03 47.81 58.22 47.81C58.4 47.81 58.55 47.96 58.55 48.15C58.55 48.33 58.4 48.48 58.22 48.48C58.03 48.48 57.88 48.33 57.88 48.15ZM56.85 47.39C56.85 47.06 57.12 46.78 57.46 46.78C57.79 46.78 58.07 47.06 58.07 47.39C58.07 47.72 57.79 47.99 57.46 47.99C57.12 47.99 56.85 47.72 56.85 47.39ZM38.04 47.21C38.04 46.87 38.31 46.6 38.65 46.6C38.98 46.6 39.25 46.87 39.25 47.21C39.25 47.54 38.98 47.81 38.65 47.81C38.31 47.81 38.04 47.54 38.04 47.21ZM28.06 46.54C28.06 46.21 28.33 45.93 28.66 45.93C29 45.93 29.27 46.21 29.27 46.54C29.27 46.88 29 47.14 28.66 47.14C28.33 47.14 28.06 46.88 28.06 46.54ZM22.01 44.21C22.01 44.02 22.16 43.88 22.34 43.88C22.53 43.88 22.67 44.02 22.67 44.21C22.67 44.39 22.53 44.55 22.34 44.55C22.16 44.55 22.01 44.39 22.01 44.21ZM25.22 43.82C25.22 43.49 25.49 43.21 25.82 43.21C26.15 43.21 26.43 43.49 26.43 43.82C26.43 44.15 26.15 44.42 25.82 44.42C25.49 44.42 25.22 44.15 25.22 43.82ZM51.89 43.64C51.89 43.3 52.16 43.03 52.5 43.03C52.83 43.03 53.1 43.3 53.1 43.64C53.1 43.97 52.83 44.24 52.5 44.24C52.16 44.24 51.89 43.97 51.89 43.64ZM29.21 43.3C29.21 43.12 29.36 42.97 29.55 42.97C29.73 42.97 29.88 43.12 29.88 43.3C29.88 43.49 29.73 43.64 29.55 43.64C29.36 43.64 29.21 43.49 29.21 43.3ZM37.32 40.49C37.32 40.16 37.59 39.89 37.92 39.89C38.26 39.89 38.53 40.16 38.53 40.49C38.53 40.82 38.26 41.1 37.92 41.1C37.59 41.1 37.32 40.82 37.32 40.49ZM44.46 40.43C44.46 40.1 44.72 39.82 45.06 39.82C45.39 39.82 45.67 40.1 45.67 40.43C45.67 40.77 45.39 41.03 45.06 41.03C44.72 41.03 44.46 40.77 44.46 40.43ZM57.03 39.77C57.03 39.43 57.31 39.16 57.64 39.16C57.98 39.16 58.24 39.43 58.24 39.77C58.24 40.1 57.98 40.37 57.64 40.37C57.31 40.37 57.03 40.1 57.03 39.77ZM26.79 39.28C26.79 38.95 27.06 38.68 27.4 38.68C27.73 38.68 28 38.95 28 39.28C28 39.61 27.73 39.89 27.4 39.89C27.06 39.89 26.79 39.61 26.79 39.28ZM42.15 39.22C42.15 38.89 42.43 38.62 42.76 38.62C43.09 38.62 43.37 38.89 43.37 39.22C43.37 39.56 43.09 39.82 42.76 39.82C42.43 39.82 42.15 39.56 42.15 39.22ZM30.3 38.16C30.3 37.98 30.45 37.83 30.64 37.83C30.82 37.83 30.97 37.98 30.97 38.16C30.97 38.35 30.82 38.5 30.64 38.5C30.45 38.5 30.3 38.35 30.3 38.16ZM21.59 37.19C21.59 37.01 21.73 36.86 21.92 36.86C22.1 36.86 22.26 37.01 22.26 37.19C22.26 37.38 22.1 37.53 21.92 37.53C21.73 37.53 21.59 37.38 21.59 37.19ZM43.55 37.07C43.55 36.89 43.69 36.74 43.88 36.74C44.06 36.74 44.21 36.89 44.21 37.07C44.21 37.26 44.06 37.41 43.88 37.41C43.69 37.41 43.55 37.26 43.55 37.07ZM52.98 36.25C52.98 35.92 53.25 35.65 53.58 35.65C53.92 35.65 54.19 35.92 54.19 36.25C54.19 36.59 53.92 36.86 53.58 36.86C53.25 36.86 52.98 36.59 52.98 36.25ZM37.2 36.29C37.2 36.11 37.34 35.96 37.53 35.96C37.71 35.96 37.86 36.11 37.86 36.29C37.86 36.47 37.71 36.62 37.53 36.62C37.34 36.62 37.2 36.47 37.2 36.29ZM60.97 35.75C60.97 35.56 61.11 35.41 61.3 35.41C61.48 35.41 61.63 35.56 61.63 35.75C61.63 35.93 61.48 36.08 61.3 36.08C61.11 36.08 60.97 35.93 60.97 35.75ZM37.68 35.35C37.68 35.02 37.95 34.74 38.28 34.74C38.62 34.74 38.89 35.02 38.89 35.35C38.89 35.68 38.62 35.96 38.28 35.96C37.95 35.96 37.68 35.68 37.68 35.35ZM47.36 35.17C47.36 34.83 47.63 34.56 47.96 34.56C48.3 34.56 48.56 34.83 48.56 35.17C48.56 35.5 48.3 35.77 47.96 35.77C47.63 35.77 47.36 35.5 47.36 35.17ZM51.77 34.59C51.77 34.41 51.92 34.26 52.11 34.26C52.29 34.26 52.44 34.41 52.44 34.59C52.44 34.78 52.29 34.93 52.11 34.93C51.92 34.93 51.77 34.78 51.77 34.59ZM60.54 34.14C60.54 33.81 60.82 33.53 61.15 33.53C61.48 33.53 61.75 33.81 61.75 34.14C61.75 34.47 61.48 34.74 61.15 34.74C60.82 34.74 60.54 34.47 60.54 34.14ZM29.06 34.74C28.87 34.74 28.73 34.59 28.73 34.41C28.73 34.23 28.87 34.08 29.06 34.08C29.24 34.08 29.39 34.23 29.39 34.41C29.39 34.57 29.28 34.71 29.13 34.74L29.06 34.74ZM56.61 33.45C56.61 33.26 56.76 33.11 56.94 33.11C57.13 33.11 57.28 33.26 57.28 33.45C57.28 33.63 57.13 33.78 56.94 33.78C56.76 33.78 56.61 33.63 56.61 33.45ZM32.11 32.56C32.11 32.23 32.39 31.96 32.72 31.96C33.05 31.96 33.32 32.23 33.32 32.56C33.32 32.9 33.05 33.17 32.72 33.17C32.39 33.17 32.11 32.9 32.11 32.56ZM52.86 32.36C52.86 32.18 53.01 32.02 53.2 32.02C53.38 32.02 53.53 32.18 53.53 32.36C53.53 32.54 53.38 32.69 53.2 32.69C53.01 32.69 52.86 32.54 52.86 32.36ZM43.24 31.84C42.91 31.84 42.64 31.57 42.64 31.23C42.64 30.9 42.91 30.63 43.24 30.63C43.41 30.63 43.57 30.7 43.68 30.82C43.72 30.68 43.84 30.57 44 30.57C44.18 30.57 44.33 30.72 44.33 30.9C44.33 31.09 44.18 31.23 44 31.23C43.94 31.23 43.89 31.22 43.84 31.2C43.84 31.21 43.85 31.22 43.85 31.23C43.85 31.57 43.57 31.84 43.24 31.84ZM49.41 30.78C49.41 30.6 49.56 30.45 49.75 30.45C49.93 30.45 50.08 30.6 50.08 30.78C50.08 30.97 49.93 31.11 49.75 31.11C49.56 31.11 49.41 30.97 49.41 30.78ZM59.7 30.66C59.7 30.48 59.85 30.33 60.03 30.33C60.22 30.33 60.36 30.48 60.36 30.66C60.36 30.85 60.22 30.99 60.03 30.99C59.85 30.99 59.7 30.85 59.7 30.66ZM56.85 30.33C56.85 30 57.13 29.72 57.46 29.72C57.79 29.72 58.07 30 58.07 30.33C58.07 30.66 57.79 30.93 57.46 30.93C57.13 30.93 56.85 30.66 56.85 30.33ZM31.57 30.15C31.57 29.81 31.84 29.54 32.18 29.54C32.51 29.54 32.78 29.81 32.78 30.15C32.78 30.48 32.51 30.75 32.18 30.75C31.84 30.75 31.57 30.48 31.57 30.15ZM37.32 30.09C37.09 30.09 36.91 29.96 36.8 29.79C36.71 29.73 36.65 29.62 36.65 29.51C36.65 29.42 36.69 29.34 36.75 29.28C36.84 29.04 37.06 28.88 37.32 28.88C37.65 28.88 37.92 29.15 37.92 29.48C37.92 29.82 37.65 30.09 37.32 30.09L37.32 30.09ZM50.26 28.94C50.26 28.6 50.53 28.34 50.86 28.34C51.2 28.34 51.47 28.6 51.47 28.94C51.47 29.27 51.2 29.54 50.86 29.54C50.53 29.54 50.26 29.27 50.26 28.94ZM27.94 28.34C27.94 28 28.21 27.73 28.54 27.73C28.88 27.73 29.15 28 29.15 28.34C29.15 28.67 28.88 28.94 28.54 28.94C28.21 28.94 27.94 28.67 27.94 28.34ZM38.41 26.73C38.41 26.55 38.55 26.4 38.74 26.4C38.92 26.4 39.07 26.55 39.07 26.73C39.07 26.91 38.92 27.06 38.74 27.06C38.55 27.06 38.41 26.91 38.41 26.73ZM58.79 26.61C58.79 26.43 58.94 26.28 59.12 26.28C59.3 26.28 59.45 26.43 59.45 26.61C59.45 26.79 59.3 26.94 59.12 26.94C58.94 26.94 58.79 26.79 58.79 26.61ZM31.14 26.55C31.14 26.36 31.29 26.21 31.48 26.21C31.66 26.21 31.81 26.36 31.81 26.55C31.81 26.73 31.66 26.88 31.48 26.88C31.29 26.88 31.14 26.73 31.14 26.55ZM54.55 25.15C54.55 24.97 54.7 24.82 54.89 24.82C55.07 24.82 55.22 24.97 55.22 25.15C55.22 25.34 55.07 25.49 54.89 25.49C54.7 25.49 54.55 25.34 54.55 25.15ZM55.59 24.4C55.59 24.06 55.85 23.8 56.19 23.8C56.52 23.8 56.79 24.06 56.79 24.4C56.79 24.73 56.52 25.01 56.19 25.01C55.85 25.01 55.59 24.73 55.59 24.4ZM34.11 23.95C34.11 23.76 34.26 23.61 34.45 23.61C34.63 23.61 34.78 23.76 34.78 23.95C34.78 24.13 34.63 24.28 34.45 24.28C34.26 24.28 34.11 24.13 34.11 23.95ZM36.59 23.44C36.59 23.1 36.86 22.83 37.2 22.83C37.53 22.83 37.8 23.1 37.8 23.44C37.8 23.77 37.53 24.04 37.2 24.04C36.86 24.04 36.59 23.77 36.59 23.44ZM31.38 22.47C31.38 22.13 31.66 21.86 31.99 21.86C32.33 21.86 32.6 22.13 32.6 22.47C32.6 22.8 32.33 23.07 31.99 23.07C31.66 23.07 31.38 22.8 31.38 22.47ZM49.11 22.55C49.11 22.37 49.26 22.22 49.44 22.22C49.63 22.22 49.77 22.37 49.77 22.55C49.77 22.74 49.63 22.89 49.44 22.89C49.26 22.89 49.11 22.74 49.11 22.55ZM41.01 22.22C41.01 21.89 41.27 21.62 41.61 21.62C41.94 21.62 42.22 21.89 42.22 22.22C42.22 22.55 41.94 22.83 41.61 22.83C41.27 22.83 41.01 22.55 41.01 22.22ZM51.71 21.89C51.71 21.7 51.86 21.56 52.04 21.56C52.23 21.56 52.38 21.7 52.38 21.89C52.38 22.07 52.23 22.22 52.04 22.22C51.86 22.22 51.71 22.07 51.71 21.89ZM40.04 20.5C40.04 20.32 40.19 20.17 40.37 20.17C40.55 20.17 40.7 20.32 40.7 20.5C40.7 20.69 40.55 20.83 40.37 20.83C40.19 20.83 40.04 20.69 40.04 20.5ZM26.79 20.04C26.79 19.71 27.06 19.44 27.4 19.44C27.73 19.44 28 19.71 28 20.04C28 20.38 27.73 20.65 27.4 20.65C27.06 20.65 26.79 20.38 26.79 20.04ZM49.84 18.87C49.84 18.69 49.99 18.54 50.17 18.54C50.35 18.54 50.5 18.69 50.5 18.87C50.5 19.05 50.35 19.2 50.17 19.2C49.99 19.2 49.84 19.05 49.84 18.87ZM51.71 18.17C51.71 17.84 51.99 17.57 52.32 17.57C52.65 17.57 52.92 17.84 52.92 18.17C52.92 18.5 52.65 18.78 52.32 18.78C51.99 18.78 51.71 18.5 51.71 18.17ZM26.24 17.53C26.24 17.35 26.39 17.2 26.58 17.2C26.76 17.2 26.91 17.35 26.91 17.53C26.91 17.72 26.76 17.87 26.58 17.87C26.39 17.87 26.24 17.72 26.24 17.53ZM52.02 16.27C52.02 16.08 52.16 15.93 52.35 15.93C52.53 15.93 52.68 16.08 52.68 16.27C52.68 16.45 52.53 16.6 52.35 16.6C52.16 16.6 52.02 16.45 52.02 16.27ZM35.38 15.36C35.38 15.17 35.53 15.02 35.71 15.02C35.9 15.02 36.04 15.17 36.04 15.36C36.04 15.54 35.9 15.69 35.71 15.69C35.53 15.69 35.38 15.54 35.38 15.36ZM26.85 13.72C26.85 13.54 27 13.39 27.19 13.39C27.37 13.39 27.52 13.54 27.52 13.72C27.52 13.91 27.37 14.05 27.19 14.05C27 14.05 26.85 13.91 26.85 13.72ZM28.54 12.51C28.54 12.33 28.69 12.18 28.87 12.18C29.06 12.18 29.21 12.33 29.21 12.51C29.21 12.7 29.06 12.85 28.87 12.85C28.69 12.85 28.54 12.7 28.54 12.51Z" />
		<g id="Layer">
			<path id="Layer" class="shp8" d="M29.7 50.81C29.7 56.23 25.3 60.62 19.88 60.62C14.46 60.62 10.07 56.23 10.07 50.81C10.07 45.39 14.46 40.99 19.88 40.99C25.3 40.99 29.7 45.39 29.7 50.81Z" />
			<path id="Layer" class="shp9" d="M19.9 43.55C18.75 46.66 15.53 48.48 14.3 51.14C13.59 52.68 14.09 54.42 15.53 55.08C16.83 55.66 18.42 55.15 19.27 53.92C19.28 54.05 19.29 54.19 19.29 54.33C19.29 55.79 18.75 57.12 17.9 58.07L21.86 58.07C20.96 57.11 20.39 55.75 20.39 54.24C20.39 54.07 20.4 53.9 20.41 53.73C21.23 55.09 22.91 55.69 24.28 55.08C25.72 54.42 26.12 52.7 25.51 51.14C24.46 48.44 21.3 46.67 19.9 43.55L19.9 43.55Z" />
		</g>
		<g id="Layer">
			<path id="Layer" class="shp10" d="M29.7 80.7C29.7 86.12 25.3 90.51 19.88 90.51C14.46 90.51 10.07 86.12 10.07 80.7C10.07 75.28 14.46 70.88 19.88 70.88C25.3 70.88 29.7 75.28 29.7 80.7Z" />
			<path id="Layer" class="shp11" d="M19.9 73.44C18.75 76.55 15.53 78.37 14.3 81.03C13.59 82.57 14.09 84.31 15.53 84.97C16.83 85.55 18.42 85.04 19.27 83.81C19.28 83.94 19.29 84.08 19.29 84.22C19.29 85.68 18.75 87.01 17.9 87.96L21.86 87.96C20.96 87 20.39 85.64 20.39 84.13C20.39 83.96 20.4 83.79 20.41 83.62C21.23 84.98 22.91 85.58 24.28 84.97C25.72 84.31 26.12 82.59 25.51 81.03C24.46 78.33 21.3 76.56 19.9 73.44L19.9 73.44Z" />
		</g>
		<g id="Layer">
			<path id="Layer" class="shp12" d="M29.7 19.99C29.7 25.41 25.3 29.8 19.88 29.8C14.46 29.8 10.07 25.41 10.07 19.99C10.07 14.57 14.46 10.17 19.88 10.17C25.3 10.17 29.7 14.57 29.7 19.99Z" />
			<path id="Layer" class="shp13" d="M19.9 12.73C18.75 15.84 15.53 17.66 14.3 20.32C13.59 21.86 14.09 23.6 15.53 24.26C16.83 24.84 18.42 24.33 19.27 23.1C19.28 23.23 19.29 23.37 19.29 23.51C19.29 24.97 18.75 26.3 17.9 27.25L21.86 27.25C20.96 26.29 20.39 24.93 20.39 23.42C20.39 23.25 20.4 23.08 20.41 22.91C21.23 24.27 22.91 24.87 24.28 24.26C25.72 23.6 26.12 21.88 25.51 20.32C24.46 17.62 21.3 15.85 19.9 12.73L19.9 12.73Z" />
		</g>
		<g id="Layer">
			<path id="Layer" class="shp14" d="M63.66 19.99C63.66 25.41 59.27 29.8 53.85 29.8C48.43 29.8 44.03 25.41 44.03 19.99C44.03 14.57 48.43 10.17 53.85 10.17C59.27 10.17 63.66 14.57 63.66 19.99Z" />
			<path id="Layer" class="shp15" d="M53.87 12.73C52.71 15.84 49.49 17.66 48.26 20.32C47.55 21.86 48.05 23.6 49.49 24.26C50.8 24.84 52.38 24.33 53.24 23.1C53.25 23.23 53.25 23.37 53.25 23.51C53.25 24.97 52.72 26.3 51.86 27.25L55.83 27.25C54.92 26.29 54.36 24.93 54.36 23.42C54.36 23.25 54.36 23.08 54.38 22.91C55.2 24.27 56.87 24.87 58.24 24.26C59.68 23.6 60.08 21.88 59.47 20.32C58.42 17.62 55.27 15.85 53.87 12.73L53.87 12.73Z" />
		</g>
		<g id="Layer">
			<path id="Layer" class="shp16" d="M62.68 50.81C62.68 56.23 58.29 60.62 52.87 60.62C47.45 60.62 43.06 56.23 43.06 50.81C43.06 45.39 47.45 40.99 52.87 40.99C58.29 40.99 62.68 45.39 62.68 50.81Z" />
			<path id="Layer" class="shp17" d="M52.89 43.55C51.73 46.66 48.51 48.48 47.29 51.14C46.58 52.68 47.08 54.42 48.52 55.08C49.82 55.66 51.41 55.15 52.26 53.92C52.27 54.05 52.27 54.19 52.27 54.33C52.27 55.79 51.74 57.12 50.89 58.07L54.85 58.07C53.95 57.11 53.38 55.75 53.38 54.24C53.38 54.07 53.39 53.9 53.4 53.73C54.22 55.09 55.9 55.69 57.26 55.08C58.7 54.42 59.11 52.7 58.5 51.14C57.45 48.44 54.29 46.67 52.89 43.55L52.89 43.55Z" />
		</g>
		<g id="Layer">
			<path id="Layer" class="shp18" d="M62.68 80.7C62.68 86.12 58.29 90.51 52.87 90.51C47.45 90.51 43.06 86.12 43.06 80.7C43.06 75.28 47.45 70.88 52.87 70.88C58.29 70.88 62.68 75.28 62.68 80.7Z" />
			<path id="Layer" class="shp19" d="M52.89 73.44C51.73 76.55 48.51 78.37 47.29 81.03C46.58 82.57 47.08 84.31 48.52 84.97C49.82 85.55 51.41 85.04 52.26 83.81C52.27 83.94 52.27 84.08 52.27 84.22C52.27 85.68 51.74 87.01 50.89 87.96L54.85 87.96C53.95 87 53.38 85.64 53.38 84.13C53.38 83.96 53.39 83.79 53.4 83.62C54.22 84.98 55.9 85.58 57.26 84.97C58.7 84.31 59.11 82.59 58.5 81.03C57.45 78.33 54.29 76.56 52.89 73.44L52.89 73.44Z" />
		</g>
	</g>
</svg>