<svg xmlns="http://www.w3.org/2000/svg" viewBox="0 0 73 102" width="73" height="102">
	<defs>
		<filter x="-50%" y="-50%" width="200%" height="200%" id="flt1"> <feGaussianBlur stdDeviation="0.85" /> </filter>
		<linearGradient id="grd1" gradientUnits="userSpaceOnUse"  x1="41.75" y1="26.385" x2="43.895" y2="-89.997">
			<stop offset="0" stop-color="#f3f3f3"  />
			<stop offset="1" stop-color="#8f8f8f"  />
		</linearGradient>
		<radialGradient id="grd2" gradientUnits="userSpaceOnUse"  cx="11.048" cy="91.687" r="13.273">
			<stop offset="0" stop-color="#ffffff"  />
			<stop offset="1" stop-color="#ffffff" stop-opacity="0" />
		</radialGradient>
		<radialGradient id="grd3" gradientUnits="userSpaceOnUse"  cx="62.626" cy="12.545" r="14.287">
			<stop offset="0" stop-color="#ffffff"  />
			<stop offset="1" stop-color="#ffffff" stop-opacity="0" />
		</radialGradient>
		<linearGradient id="grd4" gradientUnits="userSpaceOnUse"  x1="-240.362" y1="90.43" x2="-240.362" y2="87.25">
			<stop offset="0" stop-color="#000000"  />
			<stop offset="1" stop-color="#555753"  />
		</linearGradient>
		<linearGradient id="grd5" gradientUnits="userSpaceOnUse"  x1="64.117" y1="13.84" x2="64.387" y2="10.91">
			<stop offset="0" stop-color="#000000"  />
			<stop offset="1" stop-color="#555753"  />
		</linearGradient>
		<radialGradient id="grd6" gradientUnits="userSpaceOnUse"  cx="18.482" cy="73.826" r="25.374">
			<stop offset="0" stop-color="#ffffff"  />
			<stop offset="1" stop-color="#ffffff" stop-opacity="0" />
		</radialGradient>
		<radialGradient id="grd7" gradientUnits="userSpaceOnUse"  cx="20.616" cy="24.077" r="9.813">
			<stop offset="0" stop-color="#ffffff"  />
			<stop offset="1" stop-color="#ffffff" stop-opacity="0" />
		</radialGradient>
		<linearGradient id="grd8" gradientUnits="userSpaceOnUse"  x1="-474.603" y1="27.388" x2="-474.603" y2="20.78">
			<stop offset="0" stop-color="#000000"  />
			<stop offset="1" stop-color="#6f6f6f"  />
		</linearGradient>
		<radialGradient id="grd9" gradientUnits="userSpaceOnUse"  cx="20.616" cy="77.537" r="9.813">
			<stop offset="0" stop-color="#ffffff"  />
			<stop offset="1" stop-color="#ffffff" stop-opacity="0" />
		</radialGradient>
		<linearGradient id="grd10" gradientUnits="userSpaceOnUse"  x1="-474.603" y1="80.848" x2="-474.603" y2="74.24">
			<stop offset="0" stop-color="#000000"  />
			<stop offset="1" stop-color="#6f6f6f"  />
		</linearGradient>
		<radialGradient id="grd11" gradientUnits="userSpaceOnUse"  cx="53.606" cy="24.077" r="9.813">
			<stop offset="0" stop-color="#ffffff"  />
			<stop offset="1" stop-color="#ffffff" stop-opacity="0" />
		</radialGradient>
		<linearGradient id="grd12" gradientUnits="userSpaceOnUse"  x1="-441.613" y1="27.388" x2="-441.613" y2="20.78">
			<stop offset="0" stop-color="#000000"  />
			<stop offset="1" stop-color="#6f6f6f"  />
		</linearGradient>
		<radialGradient id="grd13" gradientUnits="userSpaceOnUse"  cx="53.606" cy="77.537" r="9.813">
			<stop offset="0" stop-color="#ffffff"  />
			<stop offset="1" stop-color="#ffffff" stop-opacity="0" />
		</radialGradient>
		<linearGradient id="grd14" gradientUnits="userSpaceOnUse"  x1="-441.613" y1="80.848" x2="-441.613" y2="74.24">
			<stop offset="0" stop-color="#000000"  />
			<stop offset="1" stop-color="#6f6f6f"  />
		</linearGradient>
	</defs>
	<style>
		tspan { white-space:pre }
		.shp0 { filter: url(#flt1);fill: #000000 } 
		.shp1 { fill: url(#grd1);stroke: #000000;stroke-width: 0.226 } 
		.shp2 { opacity: 0.31;fill: url(#grd2) } 
		.shp3 { opacity: 0.318;fill: url(#grd3) } 
		.shp4 { fill: none;stroke: #000000;stroke-width: 0.226 } 
		.shp5 { fill: url(#grd4);stroke: #1b1b1b;stroke-linejoin:round;stroke-width: 0.177 } 
		.shp6 { fill: url(#grd5) } 
		.shp7 { fill: url(#grd6) } 
		.shp8 { opacity: 0.4;fill: url(#grd7) } 
		.shp9 { fill: url(#grd8);stroke: #161616;stroke-linejoin:round;stroke-width: 0.368 } 
		.shp10 { opacity: 0.4;fill: url(#grd9) } 
		.shp11 { fill: url(#grd10);stroke: #161616;stroke-linejoin:round;stroke-width: 0.368 } 
		.shp12 { opacity: 0.4;fill: url(#grd11) } 
		.shp13 { fill: url(#grd12);stroke: #161616;stroke-linejoin:round;stroke-width: 0.368 } 
		.shp14 { opacity: 0.4;fill: url(#grd13) } 
		.shp15 { fill: url(#grd14);stroke: #161616;stroke-linejoin:round;stroke-width: 0.368 } 
	</style>
	<g id="-e-Spade4">
		<g id="Layer">
			<path id="Layer" fill-rule="evenodd" class="shp0" d="M5.31 1.56L68.39 1.56C68.86 1.56 69.32 1.66 69.75 1.83C70.18 2.01 70.57 2.27 70.89 2.6C71.22 2.93 71.48 3.32 71.66 3.75C71.84 4.18 71.93 4.64 71.93 5.1L71.93 97.21C71.93 97.68 71.84 98.14 71.66 98.57C71.48 99 71.22 99.39 70.89 99.71C70.57 100.04 70.18 100.3 69.75 100.48C69.32 100.66 68.86 100.75 68.39 100.75L5.31 100.75C4.85 100.75 4.39 100.66 3.96 100.48C3.53 100.3 3.14 100.04 2.81 99.71C2.49 99.39 2.22 99 2.05 98.57C1.87 98.14 1.78 97.68 1.78 97.21L1.78 5.1C1.78 4.64 1.87 4.18 2.05 3.75C2.22 3.32 2.49 2.93 2.81 2.6C3.14 2.27 3.53 2.01 3.96 1.83C4.39 1.66 4.85 1.56 5.31 1.56" />
			<path id="Layer" fill-rule="evenodd" class="shp1" d="M6.24 0.99L68.28 0.99C68.81 0.99 69.34 1.09 69.83 1.3C70.32 1.5 70.77 1.8 71.15 2.17C71.52 2.55 71.82 3 72.03 3.49C72.23 3.98 72.33 4.51 72.33 5.04L72.33 96.12C72.33 96.65 72.23 97.18 72.03 97.67C71.82 98.16 71.52 98.61 71.15 98.99C70.77 99.36 70.32 99.66 69.83 99.86C69.34 100.07 68.81 100.17 68.28 100.17L6.24 100.17C5.7 100.17 5.18 100.07 4.68 99.86C4.19 99.66 3.75 99.36 3.37 98.99C2.99 98.61 2.69 98.16 2.49 97.67C2.29 97.18 2.18 96.65 2.18 96.12L2.18 5.04C2.18 4.51 2.29 3.98 2.49 3.49C2.69 3 2.99 2.55 3.37 2.17C3.75 1.8 4.19 1.5 4.68 1.3C5.18 1.09 5.7 0.99 6.24 0.99" />
			<path id="Layer" class="shp2" d="M32.43 96.75L5.88 96.75L5.88 72.47L32.43 72.47L32.43 96.75Z" />
			<path id="Layer" class="shp3" d="M41.09 4.41L67.6 4.41C67.73 4.41 67.87 4.43 67.99 4.49C68.12 4.54 68.23 4.61 68.33 4.71C68.43 4.81 68.5 4.92 68.55 5.05C68.61 5.17 68.63 5.31 68.63 5.44L68.63 48.65C68.63 48.78 68.61 48.92 68.55 49.04C68.5 49.17 68.43 49.28 68.33 49.38C68.23 49.47 68.12 49.55 67.99 49.6C67.87 49.65 67.73 49.68 67.6 49.68L41.09 49.68C40.96 49.68 40.82 49.65 40.7 49.6C40.57 49.55 40.46 49.47 40.36 49.38C40.27 49.28 40.19 49.17 40.14 49.04C40.09 48.92 40.06 48.78 40.06 48.65L40.06 5.44C40.06 5.31 40.09 5.17 40.14 5.05C40.19 4.92 40.27 4.81 40.36 4.71C40.46 4.61 40.57 4.54 40.7 4.49C40.82 4.43 40.96 4.41 41.09 4.41" />
			<path id="Layer" class="shp4" d="M20.61 92.68L65.32 92.68L65.32 19.08" />
			<path id="Layer" class="shp4" d="M53.75 8.47L9.2 8.47L9.2 81.66" />
		</g>
		<path id="Layer" class="shp5" d="M12.21 85.34C11.65 86.84 10.1 87.72 9.51 89C9.17 89.74 9.41 90.58 10.1 90.89C10.73 91.18 11.49 90.93 11.91 90.33C11.91 90.4 11.91 90.47 11.91 90.53C11.91 91.24 11.66 91.88 11.24 92.34L13.15 92.34C12.72 91.87 12.45 91.22 12.45 90.49C12.45 90.41 12.45 90.33 12.46 90.25C12.85 90.9 13.66 91.19 14.32 90.89C15.01 90.58 15.2 89.75 14.91 89C14.4 87.7 12.88 86.85 12.21 85.34L12.21 85.34Z" />
		<path id="Layer" fill-rule="evenodd" class="shp6" d="M65.6 13.31L65.6 14.02L64.46 14.02L64.46 15.87L63.61 15.87L63.61 14.02L60.49 14.02L60.49 13.31L63.98 8.37L64.46 8.37L64.46 13.31L65.6 13.31M63.6 9.5L60.94 13.31L63.6 13.31L63.6 9.5Z" />
		<path id="Layer" fill-rule="evenodd" class="shp7" d="M18.38 89.44C18.38 89.44 18.38 89.44 18.38 89.44C18.38 89.44 18.38 89.44 18.38 89.44L18.38 89.44ZM18.38 89.44C16.08 83.67 14.51 83.84 12.52 83.26L15.49 83.26C15.51 83.16 15.53 83.07 15.55 82.97C15.6 82.72 15.68 82.47 15.75 82.22C15.75 81.89 15.75 81.56 15.75 81.23C15.76 80.52 15.86 79.81 15.96 79.1C15.98 78.92 16 78.73 16.03 78.55C15.93 78.47 15.96 77.93 16.21 76.87C16.26 76.66 16.3 76.44 16.35 76.22C16.43 75.72 16.54 75.22 16.65 74.73C16.77 74.14 16.97 73.56 17.15 72.99C17.39 72.3 17.68 71.64 17.97 70.98C18.32 70.16 18.68 69.35 19.03 68.54C19.52 67.44 20.07 66.38 20.61 65.31C21.3 64 21.91 62.65 22.49 61.29C23.19 59.63 23.87 57.98 24.56 56.32C25.31 54.55 26.02 52.76 26.7 50.97C26.74 50.85 26.78 50.74 26.82 50.62C26.81 50.58 26.8 50.54 26.8 50.5C26.8 50.38 26.86 50.27 26.97 50.21C27.56 48.53 28.11 46.84 28.63 45.13C29.28 42.99 29.84 40.81 30.27 38.61C30.72 36.05 30.83 33.46 30.8 30.87C30.74 28.75 30.52 26.65 30.27 24.55C30.17 24.64 30.04 24.7 29.89 24.7C29.55 24.7 29.28 24.43 29.28 24.1C29.28 23.77 29.55 23.49 29.89 23.49C29.99 23.49 30.08 23.52 30.16 23.56L30.09 23C30 22.26 29.89 21.52 29.79 20.78C29.73 20.88 29.62 20.95 29.49 20.95C29.31 20.95 29.16 20.81 29.16 20.62C29.16 20.44 29.31 20.29 29.49 20.29C29.58 20.29 29.66 20.32 29.72 20.37C29.62 19.68 29.51 18.98 29.4 18.29C29.24 17.22 29.26 16.57 29.38 16.41C29.28 16.3 29.22 16.15 29.22 15.99C29.22 15.66 29.49 15.39 29.82 15.39C30.16 15.39 30.43 15.66 30.43 15.99C30.43 16.33 30.16 16.6 29.82 16.6C29.75 16.6 29.69 16.58 29.63 16.56C29.75 16.8 29.88 17.26 29.98 17.96C30.23 19.52 30.47 21.09 30.66 22.67C30.98 25.28 31.29 27.9 31.37 30.53C31.4 33.12 31.3 35.72 30.85 38.28C30.42 40.48 29.86 42.65 29.21 44.79C28.64 46.64 28.06 48.49 27.4 50.3C27.44 50.36 27.47 50.43 27.47 50.5C27.47 50.66 27.36 50.79 27.21 50.83C26.56 52.56 25.87 54.28 25.15 55.98C24.46 57.64 23.78 59.3 23.08 60.95C22.5 62.31 21.9 63.65 21.21 64.96C20.67 66.03 20.13 67.1 19.64 68.19C19.29 69 18.92 69.81 18.57 70.62C18.29 71.29 18 71.95 17.77 72.64C17.59 73.21 17.39 73.79 17.27 74.38C17.25 74.45 17.24 74.52 17.22 74.59C17.41 74.16 17.6 73.74 17.8 73.32C17.96 73.01 18.12 72.71 18.29 72.4C18.29 72.4 18.29 72.39 18.3 72.38C18.37 72.13 18.51 71.91 18.62 71.68C18.78 71.33 19 71 19.19 70.67C19.38 70.35 19.59 70.05 19.81 69.75C20.39 68.75 21.04 67.8 21.72 66.87C22.24 66.14 22.85 65.49 23.48 64.85C23.5 64.71 23.61 64.59 23.76 64.57L24.27 64.05C25.28 63.11 26.31 62.2 27.32 61.25C28.5 60.14 29.65 58.99 30.8 57.84C32.11 56.53 33.3 55.12 34.42 53.65C35.66 51.94 36.71 50.09 37.71 48.24C38.05 47.64 38.36 47.03 38.65 46.41L38.53 46.42C38.2 46.42 37.93 46.15 37.93 45.81C37.93 45.48 38.2 45.21 38.53 45.21C38.76 45.21 38.95 45.33 39.05 45.52C39.54 44.4 39.98 43.27 40.36 42.12L40.43 41.89C40.39 41.62 40.38 41.22 40.39 40.67C40.42 39.73 40.44 38.8 40.41 37.86C40.36 36.17 40.25 34.49 40.02 32.82C39.84 31.68 39.66 30.53 39.33 29.42C39.16 28.86 39.01 28.29 38.76 27.76C38.67 27.62 38.62 27.45 38.49 27.33C36.57 25.64 37.21 25.25 39.11 26.96C39.24 27.08 39.29 27.26 39.38 27.41C39.63 27.94 39.78 28.51 39.95 29.07C40.27 30.18 40.44 31.33 40.62 32.47C40.84 34.14 40.95 35.83 41 37.51C41.02 38.22 41.01 38.94 40.99 39.65C41.31 38.16 41.55 36.65 41.73 35.14C41.79 34.47 41.82 33.8 41.83 33.13C41.77 33.15 41.7 33.17 41.62 33.17C41.29 33.17 41.01 32.9 41.01 32.56C41.01 32.23 41.29 31.96 41.62 31.96C41.7 31.96 41.78 31.98 41.85 32.01C41.86 30.97 41.84 29.94 41.81 28.9C41.56 28.82 41.38 28.61 41.38 28.34C41.38 28.08 41.54 27.86 41.77 27.77C41.77 27.66 41.76 27.55 41.76 27.44C41.74 27.03 41.73 26.61 41.71 26.19C41.63 23.85 42.2 23.52 42.29 25.86C42.3 26.28 42.31 26.69 42.33 27.11C42.34 27.36 42.34 27.61 42.35 27.85C42.49 27.97 42.59 28.14 42.59 28.34C42.59 28.52 42.51 28.68 42.38 28.79C42.44 30.79 42.46 32.8 42.31 34.8C42.02 37.16 41.63 39.51 40.94 41.79C40.24 43.9 39.38 45.96 38.29 47.91C37.29 49.76 36.25 51.6 35 53.31C33.89 54.78 32.7 56.19 31.39 57.5C30.25 58.65 29.1 59.8 27.91 60.91C26.91 61.85 25.88 62.76 24.87 63.71C24.57 64.01 24.26 64.31 23.97 64.61C24.04 64.66 24.1 64.73 24.12 64.82C24.88 64.04 25.69 63.31 26.49 62.58L29.3 60.09C30.28 59.21 31.29 58.33 32.28 57.46C33.41 56.48 34.5 55.47 35.58 54.45C36.79 53.29 37.99 52.1 39.16 50.9C40.41 49.65 41.59 48.32 42.74 46.97C43.61 45.93 44.45 44.85 45.26 43.76C45.25 43.72 45.25 43.68 45.25 43.64C45.25 43.32 45.49 43.07 45.79 43.04L46.4 42.2C47.48 40.71 48.46 39.16 49.38 37.57C49.35 37.58 49.31 37.59 49.27 37.59C49.09 37.59 48.94 37.44 48.94 37.26C48.94 37.07 49.09 36.92 49.27 36.92C49.43 36.92 49.57 37.04 49.6 37.19C49.68 37.04 49.77 36.89 49.86 36.74C50.94 34.73 51.97 32.68 52.65 30.51C53.17 28.6 53.47 26.66 53.77 24.72C54.14 22.38 54.73 22.04 54.35 24.38C54.04 26.32 53.75 28.27 53.23 30.17C52.55 32.35 51.52 34.4 50.44 36.41C49.39 38.29 48.26 40.12 46.99 41.86C46.69 42.27 46.4 42.68 46.1 43.08C46.31 43.18 46.46 43.39 46.46 43.64C46.46 43.97 46.19 44.24 45.86 44.24C45.67 44.24 45.5 44.16 45.39 44.02C44.72 44.91 44.04 45.78 43.33 46.63C42.18 47.98 41 49.31 39.75 50.56C39.18 51.14 38.61 51.72 38.03 52.29C38.2 52.13 38.51 51.85 38.96 51.46C40.07 50.52 41.18 49.6 42.34 48.72C43.42 47.9 44.52 47.12 45.74 46.51C45.84 46.32 46.04 46.18 46.28 46.18C46.33 46.18 46.39 46.18 46.44 46.19C46.62 46.12 46.81 46.07 47.01 46.06C49.43 45.9 48.97 46.23 46.73 46.39C46.82 46.5 46.88 46.63 46.88 46.78C46.88 47.12 46.61 47.39 46.28 47.39C45.95 47.39 45.67 47.12 45.67 46.78C45.67 46.72 45.69 46.66 45.71 46.6L45.21 46.82C44.8 46.98 43.76 47.76 42.94 48.38C41.78 49.26 40.66 50.18 39.55 51.12C38.41 52.09 37.75 52.6 37.87 52.45C37.31 53.01 36.74 53.56 36.17 54.1C35.09 55.12 34.01 56.14 32.88 57.11C31.89 57.99 30.88 58.86 29.9 59.75C28.97 60.58 28.04 61.41 27.1 62.24C26.24 63.02 25.37 63.8 24.56 64.64C23.84 65.38 23.11 66.11 22.44 66.9C21.92 67.51 21.39 68.13 20.9 68.76L20.38 69.46C20.36 69.51 20.32 69.56 20.3 69.6C19.84 70.38 19.39 71.15 18.96 71.93L18.93 72.02C18.88 72.15 18.84 72.28 18.78 72.4C18.43 73.16 18.13 73.71 17.92 74.02C17.59 74.74 17.3 75.46 17.09 76.22C16.86 77.05 16.65 77.89 16.56 78.75C16.49 79.35 16.41 79.96 16.38 80.57L16.52 80.27C16.84 79.65 17.23 79.08 17.61 78.51C17.92 78.03 18.27 77.58 18.63 77.15C18.55 77.05 18.51 76.92 18.51 76.79C18.51 76.45 18.78 76.18 19.12 76.18C19.23 76.18 19.33 76.21 19.42 76.26C20 75.66 20.62 75.1 21.25 74.55C22.05 73.8 22.91 73.11 23.78 72.44C24.81 71.64 25.91 70.93 27 70.21C28.25 69.4 29.53 68.62 30.81 67.86L31.11 67.69C30.85 67.62 30.67 67.38 30.67 67.11C30.67 66.77 30.94 66.5 31.28 66.5C31.61 66.5 31.88 66.77 31.88 67.11C31.88 67.44 31.61 67.71 31.28 67.71C31.23 67.71 31.18 67.71 31.13 67.69C30.08 68.33 29.03 68.97 28 69.64C26.91 70.35 25.82 71.06 24.79 71.86C23.92 72.53 23.06 73.22 22.26 73.96C21.52 74.62 20.78 75.27 20.12 76L19.67 76.54C19.7 76.61 19.73 76.7 19.73 76.79C19.73 77.12 19.45 77.39 19.12 77.39C19.08 77.39 19.05 77.39 19.01 77.38C18.88 77.56 18.76 77.74 18.64 77.92C18.25 78.49 17.87 79.06 17.55 79.67C17.33 80.14 17.09 80.61 16.95 81.11C16.88 81.34 16.8 81.57 16.73 81.8C16.82 81.86 16.88 81.96 16.88 82.08C16.88 82.25 16.74 82.39 16.57 82.41C16.52 82.71 16.44 83.01 16.44 83.31C16.46 83.49 16.45 83.66 16.49 83.84C16.51 83.94 16.51 84.04 16.54 84.14C16.81 85.35 18.91 88.54 18.38 89.44ZM18.64 84.44C18.64 84.25 18.79 84.1 18.97 84.1C19.15 84.1 19.3 84.25 19.3 84.44C19.3 84.62 19.15 84.77 18.97 84.77C18.79 84.77 18.64 84.62 18.64 84.44ZM13.74 82.47C13.74 82.14 14 81.86 14.34 81.86C14.67 81.86 14.95 82.14 14.95 82.47C14.95 82.81 14.67 83.08 14.34 83.08C14 83.08 13.74 82.81 13.74 82.47ZM17 81.74C17 81.41 17.27 81.14 17.6 81.14C17.94 81.14 18.21 81.41 18.21 81.74C18.21 82.08 17.94 82.35 17.6 82.35C17.27 82.35 17 82.08 17 81.74ZM13.01 80.32C13.01 80.14 13.16 79.99 13.34 79.99C13.52 79.99 13.67 80.14 13.67 80.32C13.67 80.51 13.52 80.65 13.34 80.65C13.16 80.65 13.01 80.51 13.01 80.32ZM14.52 79.78C14.52 79.59 14.67 79.45 14.85 79.45C15.04 79.45 15.19 79.59 15.19 79.78C15.19 79.96 15.04 80.11 14.85 80.11C14.67 80.11 14.52 79.96 14.52 79.78ZM19.97 78.78C19.97 78.45 20.23 78.18 20.57 78.18C20.9 78.18 21.17 78.45 21.17 78.78C21.17 79.11 20.9 79.39 20.57 79.39C20.23 79.39 19.97 79.11 19.97 78.78ZM21.66 78.02C21.66 77.84 21.8 77.69 21.99 77.69C22.17 77.69 22.32 77.84 22.32 78.02C22.32 78.21 22.17 78.36 21.99 78.36C21.8 78.36 21.66 78.21 21.66 78.02ZM13.07 77.09C13.07 76.76 13.34 76.48 13.67 76.48C14.01 76.48 14.28 76.76 14.28 77.09C14.28 77.43 14.01 77.69 13.67 77.69C13.34 77.69 13.07 77.43 13.07 77.09ZM14.46 75.33C14.46 75 14.73 74.73 15.07 74.73C15.4 74.73 15.67 75 15.67 75.33C15.67 75.66 15.4 75.94 15.07 75.94C14.73 75.94 14.46 75.66 14.46 75.33ZM22.57 75.37C22.57 75.18 22.72 75.03 22.9 75.03C23.08 75.03 23.23 75.18 23.23 75.37C23.23 75.55 23.08 75.7 22.9 75.7C22.72 75.7 22.57 75.55 22.57 75.37ZM26.68 74.55C26.68 74.21 26.95 73.95 27.28 73.95C27.62 73.94 27.89 74.21 27.89 74.55C27.89 74.88 27.62 75.15 27.28 75.15C26.95 75.15 26.68 74.88 26.68 74.55ZM20.21 73.82C20.21 73.49 20.48 73.22 20.81 73.22C21.15 73.22 21.42 73.49 21.41 73.82C21.41 74.16 21.15 74.43 20.81 74.43C20.48 74.43 20.21 74.16 20.21 73.82ZM23.18 74.28C23.16 74.27 23.53 73.98 24.4 73.34C24.87 73 25.34 72.63 25.84 72.32C26.96 71.65 28.07 70.98 29.26 70.45C30.11 70.07 30.96 69.69 31.83 69.36C32.44 69.11 33.04 68.87 33.65 68.64L34.43 68.34C36.82 67.42 36.2 67.79 33.81 68.7L33.03 68.99C32.42 69.22 31.82 69.47 31.21 69.71C30.67 69.92 30.14 70.15 29.62 70.38C29.93 70.4 30.19 70.65 30.19 70.98C30.19 71.31 29.91 71.58 29.58 71.58C29.25 71.58 28.98 71.31 28.98 70.98C28.98 70.83 29.03 70.7 29.12 70.59L28.65 70.8C27.98 71.06 26.66 71.85 26.45 71.97C25.94 72.28 25.48 72.65 25.01 73C23.89 73.82 23.21 74.28 23.18 74.28L23.18 74.28ZM14.15 73.03C14.15 72.7 14.43 72.43 14.76 72.43C15.1 72.43 15.37 72.7 15.37 73.03C15.37 73.37 15.1 73.64 14.76 73.64C14.43 73.64 14.15 73.37 14.15 73.03ZM27.64 72.64C27.64 72.46 27.79 72.31 27.98 72.31C28.16 72.31 28.31 72.46 28.31 72.64C28.31 72.83 28.16 72.98 27.98 72.98C27.79 72.98 27.64 72.83 27.64 72.64ZM16.4 71.52C16.4 71.19 16.67 70.92 17 70.92C17.34 70.92 17.6 71.19 17.6 71.52C17.6 71.85 17.34 72.13 17 72.13C16.67 72.13 16.4 71.85 16.4 71.52ZM19.66 71.34C19.66 71.01 19.94 70.74 20.27 70.74C20.6 70.74 20.87 71.01 20.87 71.34C20.87 71.68 20.6 71.94 20.27 71.94C19.94 71.94 19.66 71.68 19.66 71.34ZM11.74 71.13C11.74 70.95 11.88 70.8 12.07 70.8C12.25 70.8 12.4 70.95 12.4 71.13C12.4 71.31 12.25 71.46 12.07 71.46C11.88 71.46 11.74 71.31 11.74 71.13ZM32.85 69.98C32.85 69.79 33 69.65 33.18 69.65C33.36 69.65 33.51 69.8 33.51 69.98C33.51 70.16 33.36 70.31 33.18 70.31C33 70.31 32.85 70.16 32.85 69.98ZM25.35 69.65C25.35 69.31 25.62 69.05 25.95 69.05C26.29 69.05 26.55 69.31 26.55 69.65C26.55 69.98 26.29 70.25 25.95 70.25C25.62 70.25 25.35 69.98 25.35 69.65ZM36.63 69.71C36.45 69.71 36.3 69.56 36.3 69.38C36.3 69.31 36.32 69.25 36.35 69.2C36.29 69.22 36.24 69.22 36.18 69.22C35.84 69.22 35.57 68.96 35.57 68.62C35.57 68.29 35.84 68.01 36.18 68.01C36.51 68.01 36.78 68.29 36.78 68.62C36.78 68.79 36.71 68.94 36.6 69.05L36.63 69.05C36.81 69.05 36.96 69.19 36.96 69.38C36.96 69.56 36.81 69.71 36.63 69.71L36.63 69.71ZM38.11 67.71C38.11 67.38 38.38 67.11 38.72 67.11C39.05 67.11 39.32 67.38 39.32 67.71C39.32 68.04 39.05 68.32 38.72 68.32C38.38 68.32 38.11 68.04 38.11 67.71ZM17.48 67.71C17.48 67.38 17.76 67.11 18.09 67.11C18.43 67.11 18.69 67.38 18.69 67.71C18.69 68.04 18.43 68.32 18.09 68.32C17.76 68.32 17.48 68.04 17.48 67.71ZM22.26 67.65C22.26 67.32 22.53 67.04 22.86 67.04C23.2 67.04 23.47 67.32 23.47 67.65C23.47 67.99 23.2 68.25 22.86 68.25C22.53 68.25 22.26 67.99 22.26 67.65ZM39.92 67.86C39.92 67.68 40.07 67.53 40.26 67.53C40.44 67.53 40.59 67.68 40.59 67.86C40.59 68.05 40.44 68.2 40.26 68.2C40.07 68.2 39.92 68.05 39.92 67.86ZM26.92 67.44C26.92 67.26 27.07 67.11 27.25 67.11C27.44 67.11 27.59 67.26 27.59 67.44C27.59 67.62 27.44 67.77 27.25 67.77C27.07 67.77 26.92 67.62 26.92 67.44ZM21.72 67.38C21.72 67.38 21.72 67.38 21.72 67.38C21.72 67.38 21.72 67.38 21.72 67.38L21.72 67.38ZM21.72 67.38C21.76 67.33 21.79 67.29 21.82 67.25C22.43 66.55 23.08 65.88 23.73 65.22C23.64 65.2 23.57 65.15 23.52 65.07C23.1 65.53 22.69 66.01 22.32 66.52C22.12 66.8 21.92 67.09 21.72 67.38ZM33.22 66.46C33.23 66.46 33.23 66.46 33.24 66.45C33.23 66.46 33.23 66.46 33.22 66.46L33.22 66.46ZM33.24 66.45C34.21 65.9 35.19 65.34 36.17 64.8C36.29 64.73 36.48 64.62 36.64 64.53C36.41 64.45 36.23 64.23 36.23 63.96C36.23 63.63 36.51 63.35 36.84 63.35C37.18 63.35 37.44 63.63 37.44 63.96C37.44 64.01 37.44 64.05 37.43 64.1L39.5 62.93C38.81 63.33 38.12 63.72 37.42 64.12C37.35 64.37 37.12 64.56 36.84 64.56C36.78 64.56 36.73 64.56 36.67 64.54C36.18 64.82 35.68 65.09 35.18 65.36C34.48 65.75 33.82 66.13 33.24 66.45ZM40.65 66.05C40.65 65.86 40.8 65.72 40.98 65.72C41.17 65.72 41.32 65.86 41.32 66.05C41.32 66.23 41.17 66.38 40.98 66.38C40.8 66.38 40.65 66.23 40.65 66.05ZM17.84 65.47C17.51 65.47 17.24 65.2 17.24 64.87C17.24 64.53 17.51 64.27 17.84 64.27C17.95 64.27 18.06 64.29 18.15 64.34C18.16 64.17 18.3 64.02 18.48 64.02C18.66 64.02 18.81 64.17 18.81 64.36C18.81 64.54 18.66 64.69 18.48 64.69C18.46 64.69 18.44 64.69 18.42 64.68C18.44 64.74 18.45 64.8 18.45 64.87C18.45 65.2 18.18 65.48 17.84 65.48L17.84 65.47ZM15.55 65.08C15.55 64.9 15.7 64.75 15.88 64.75C16.06 64.75 16.21 64.9 16.21 65.08C16.21 65.26 16.06 65.41 15.88 65.41C15.7 65.41 15.55 65.26 15.55 65.08ZM19.48 62.51C19.48 62.18 19.75 61.9 20.09 61.9C20.42 61.9 20.69 62.18 20.69 62.51C20.69 62.85 20.42 63.11 20.09 63.11C19.75 63.11 19.48 62.85 19.48 62.51ZM45.31 62.66C45.31 62.48 45.46 62.33 45.64 62.33C45.83 62.33 45.98 62.48 45.98 62.66C45.98 62.84 45.83 62.99 45.64 62.99C45.46 62.99 45.31 62.84 45.31 62.66ZM39.74 62.79L39.77 62.77C39.76 62.78 39.75 62.78 39.74 62.79L39.74 62.79ZM39.77 62.77C41.24 61.91 42.65 60.93 44.01 59.9C45.06 59.1 46.06 58.23 47.02 57.32C47.02 57.31 47.02 57.3 47.02 57.29C46.54 57.7 46.04 58.09 45.55 58.48C43.64 60.01 43.04 60.35 44.94 58.83C45.49 58.39 46.05 57.97 46.57 57.51C47.29 56.88 48.02 56.25 48.73 55.61C50 54.26 51.11 52.77 52.16 51.24C53.41 49.46 54.33 47.5 55.08 45.47C55.87 43.27 56.19 40.95 56.36 38.62C56.57 36.54 56.39 34.47 56.13 32.41C55.64 28.55 56.59 28.01 57.08 31.86C57.35 33.93 57.53 35.99 57.32 38.07C57.17 40.09 56.92 42.1 56.33 44.04C56.44 43.94 56.59 43.88 56.74 43.88C57.08 43.88 57.35 44.15 57.35 44.48C57.35 44.82 57.08 45.09 56.74 45.09C56.45 45.09 56.21 44.88 56.15 44.6C56.12 44.71 56.09 44.81 56.05 44.92C55.3 46.94 54.38 48.9 53.13 50.67C52.44 51.68 51.72 52.68 50.94 53.63C51.5 53.13 52.05 52.62 52.59 52.11L53.27 51.41C53.33 51.27 53.43 51.16 53.57 51.09C54.02 50.6 54.44 50.09 54.81 49.53C55.38 48.69 55.94 47.84 56.49 46.99C57.03 46.13 57.57 45.28 58.09 44.41C58.54 43.67 59 42.92 59.4 42.14C59.62 41.67 59.85 41.21 60.01 40.72C60.08 40.53 60.13 40.34 60.22 40.16C60.45 39.7 60.65 39.34 60.83 39.04C60.63 38.94 60.49 38.73 60.49 38.5C60.49 38.17 60.75 37.91 61.06 37.89C60.98 37.83 60.92 37.73 60.92 37.62C60.92 37.44 61.06 37.29 61.25 37.29C61.43 37.29 61.58 37.44 61.58 37.62C61.58 37.77 61.48 37.9 61.33 37.94C61.55 38.03 61.7 38.25 61.7 38.5C61.7 38.8 61.48 39.04 61.19 39.09C61.1 39.29 60.99 39.52 60.84 39.8C60.75 39.98 60.7 40.17 60.63 40.35C60.47 40.85 60.23 41.32 60.01 41.79L59.77 42.24C59.88 42.13 60.02 42.07 60.19 42.07C60.52 42.07 60.8 42.33 60.8 42.67C60.8 43 60.52 43.27 60.19 43.27C59.85 43.27 59.59 43 59.59 42.67C59.59 42.63 59.59 42.59 59.6 42.55C59.31 43.06 59.01 43.56 58.7 44.06C58.18 44.92 57.64 45.78 57.1 46.63C56.55 47.49 55.99 48.33 55.41 49.17C54.98 49.85 54.46 50.45 53.91 51.02C54.21 51.06 54.45 51.32 54.45 51.62C54.45 51.96 54.17 52.23 53.84 52.23C53.53 52.23 53.28 52 53.24 51.71L53.19 51.76C52.24 52.66 51.27 53.53 50.3 54.41L50.25 54.45C49.93 54.81 49.61 55.17 49.27 55.51C48.81 55.97 48.34 56.43 47.86 56.88C48.07 56.97 48.21 57.19 48.21 57.43C48.21 57.76 47.94 58.03 47.61 58.03C47.35 58.03 47.13 57.87 47.04 57.63C46.38 58.22 45.7 58.79 44.99 59.33C43.6 60.39 42.16 61.39 40.65 62.27L39.77 62.77ZM36.06 62.3C36.06 62.12 36.21 61.97 36.39 61.97C36.57 61.97 36.72 62.12 36.72 62.3C36.72 62.48 36.57 62.63 36.39 62.63C36.21 62.63 36.06 62.48 36.06 62.3ZM42.44 62.39L42.38 62.39C42.19 62.39 42.05 62.24 42.05 62.05C42.05 61.87 42.19 61.72 42.38 61.72C42.56 61.72 42.71 61.87 42.71 62.05C42.71 62.21 42.59 62.35 42.44 62.39ZM28.44 61.6C28.44 61.27 28.7 61 29.04 61C29.37 61 29.64 61.27 29.64 61.6C29.64 61.93 29.37 62.21 29.04 62.21C28.7 62.21 28.44 61.93 28.44 61.6ZM30.55 61.69C30.55 61.51 30.7 61.36 30.88 61.36C31.07 61.36 31.21 61.51 31.21 61.69C31.21 61.88 31.07 62.02 30.88 62.02C30.7 62.02 30.55 61.88 30.55 61.69ZM39.32 60.18C39.32 60 39.47 59.85 39.66 59.85C39.84 59.85 39.99 60 39.99 60.18C39.99 60.36 39.84 60.51 39.66 60.51C39.47 60.51 39.32 60.36 39.32 60.18ZM42.05 59.73C42.05 59.39 42.31 59.12 42.65 59.12C42.98 59.12 43.25 59.39 43.25 59.73C43.25 60.06 42.98 60.34 42.65 60.34C42.31 60.34 42.05 60.06 42.05 59.73ZM20.69 59.49C20.69 59.15 20.96 58.88 21.29 58.88C21.63 58.88 21.9 59.15 21.9 59.49C21.9 59.82 21.63 60.09 21.29 60.09C20.96 60.09 20.69 59.82 20.69 59.49ZM49.6 59.15C49.6 58.97 49.75 58.82 49.94 58.82C50.12 58.82 50.27 58.97 50.27 59.15C50.27 59.34 50.12 59.49 49.94 59.49C49.75 59.49 49.6 59.34 49.6 59.15ZM28.01 58.76C28.01 58.42 28.28 58.16 28.61 58.16C28.95 58.16 29.22 58.42 29.22 58.76C29.22 59.09 28.95 59.37 28.61 59.37C28.28 59.37 28.01 59.09 28.01 58.76ZM19.24 58C19.24 57.82 19.39 57.67 19.57 57.67C19.75 57.67 19.9 57.82 19.9 58C19.9 58.19 19.75 58.33 19.57 58.33C19.39 58.33 19.24 58.19 19.24 58ZM43.37 57.67C43.37 57.34 43.64 57.07 43.98 57.07C44.31 57.07 44.58 57.34 44.58 57.67C44.58 58 44.31 58.28 43.98 58.28C43.64 58.28 43.37 58 43.37 57.67ZM22.26 57.67C21.93 57.67 21.66 57.4 21.66 57.07C21.66 56.84 21.79 56.64 21.98 56.54C21.97 56.5 21.96 56.47 21.96 56.43C21.96 56.25 22.11 56.1 22.29 56.1C22.48 56.1 22.62 56.25 22.62 56.43C22.62 56.48 22.62 56.53 22.6 56.57C22.76 56.68 22.86 56.86 22.86 57.07C22.86 57.4 22.6 57.67 22.26 57.67L22.26 57.67ZM34.72 56.52C34.72 56.19 35 55.92 35.33 55.92C35.66 55.92 35.93 56.19 35.93 56.52C35.93 56.86 35.66 57.13 35.33 57.13C35 57.13 34.72 56.86 34.72 56.52ZM24.19 56.91C24.06 56.92 24.04 56.4 24.25 55.3C24.49 54.03 24.72 52.76 24.86 51.48C25.02 49.9 25.11 48.32 25.06 46.73C24.99 45.55 24.92 44.36 24.71 43.19C24.58 42.4 24.46 41.6 24.25 40.83C24.16 40.53 24.1 40.22 23.97 39.94C22.88 37.62 23.54 37.24 24.59 39.58C24.72 39.87 24.78 40.17 24.87 40.48C25.07 41.25 25.19 42.04 25.32 42.84C25.52 44.01 25.6 45.2 25.66 46.39C25.71 47.98 25.61 49.56 25.44 51.14C25.3 52.43 25.08 53.69 24.84 54.96C24.6 56.21 24.33 56.89 24.19 56.91L24.19 56.91ZM36.78 56.55C36.78 56.37 36.93 56.22 37.11 56.22C37.29 56.22 37.44 56.37 37.44 56.55C37.44 56.74 37.29 56.88 37.11 56.88C36.93 56.88 36.78 56.74 36.78 56.55ZM26.86 56.31C26.86 56.13 27.01 55.98 27.19 55.98C27.37 55.98 27.52 56.13 27.52 56.31C27.52 56.5 27.37 56.64 27.19 56.64C27.01 56.64 26.86 56.5 26.86 56.31ZM30.55 54.95C30.55 54.61 30.82 54.35 31.16 54.35C31.49 54.35 31.76 54.61 31.76 54.95C31.76 55.28 31.49 55.56 31.16 55.56C30.82 55.56 30.55 55.28 30.55 54.95ZM47.43 54.47C47.43 54.13 47.7 53.86 48.03 53.86C48.37 53.86 48.63 54.13 48.63 54.47C48.63 54.8 48.37 55.07 48.03 55.07C47.7 55.07 47.43 54.8 47.43 54.47ZM54.5 53.34C54.5 53.16 54.65 53.01 54.84 53.01C55.02 53.01 55.17 53.16 55.17 53.34C55.17 53.53 55.02 53.68 54.84 53.68C54.65 53.68 54.5 53.53 54.5 53.34ZM42.71 50.23C42.71 49.9 42.98 49.62 43.31 49.62C43.64 49.62 43.92 49.9 43.92 50.23C43.92 50.57 43.64 50.83 43.31 50.83C42.98 50.83 42.71 50.57 42.71 50.23ZM49.42 49.53C49.42 49.35 49.57 49.2 49.75 49.2C49.94 49.2 50.09 49.35 50.09 49.53C50.09 49.72 49.94 49.86 49.75 49.86C49.57 49.86 49.42 49.72 49.42 49.53ZM19.73 48.84C19.73 48.51 19.99 48.23 20.33 48.23C20.66 48.23 20.93 48.51 20.93 48.84C20.93 49.17 20.66 49.45 20.33 49.45C19.99 49.45 19.73 49.17 19.73 48.84ZM35.02 48.6C35.02 48.26 35.3 47.99 35.63 47.99C35.97 47.99 36.23 48.26 36.23 48.6C36.23 48.93 35.97 49.2 35.63 49.2C35.3 49.2 35.02 48.93 35.02 48.6ZM58.62 48.15C58.62 47.96 58.77 47.81 58.95 47.81C59.13 47.81 59.28 47.96 59.28 48.15C59.28 48.33 59.13 48.48 58.95 48.48C58.77 48.48 58.62 48.33 58.62 48.15ZM57.59 47.39C57.59 47.06 57.86 46.78 58.19 46.78C58.53 46.78 58.8 47.06 58.8 47.39C58.8 47.72 58.53 47.99 58.19 47.99C57.86 47.99 57.59 47.72 57.59 47.39ZM38.78 47.21C38.78 46.87 39.05 46.6 39.38 46.6C39.71 46.6 39.99 46.87 39.99 47.21C39.99 47.54 39.71 47.81 39.38 47.81C39.05 47.81 38.78 47.54 38.78 47.21ZM28.8 46.54C28.8 46.21 29.06 45.93 29.4 45.93C29.73 45.93 30.01 46.21 30.01 46.54C30.01 46.88 29.73 47.14 29.4 47.14C29.06 47.14 28.8 46.88 28.8 46.54ZM22.74 44.21C22.74 44.02 22.89 43.88 23.08 43.88C23.26 43.88 23.41 44.02 23.41 44.21C23.41 44.39 23.26 44.55 23.08 44.55C22.89 44.55 22.74 44.39 22.74 44.21ZM25.95 43.82C25.95 43.49 26.22 43.21 26.55 43.21C26.89 43.21 27.16 43.49 27.16 43.82C27.16 44.15 26.89 44.42 26.55 44.42C26.22 44.42 25.95 44.15 25.95 43.82ZM52.63 43.64C52.63 43.3 52.9 43.03 53.23 43.03C53.56 43.03 53.84 43.3 53.84 43.64C53.84 43.97 53.56 44.24 53.23 44.24C52.9 44.24 52.63 43.97 52.63 43.64ZM29.94 43.3C29.94 43.12 30.1 42.97 30.28 42.97C30.46 42.97 30.61 43.12 30.61 43.3C30.61 43.49 30.46 43.64 30.28 43.64C30.1 43.64 29.94 43.49 29.94 43.3ZM38.05 40.49C38.05 40.16 38.33 39.89 38.66 39.89C38.99 39.89 39.26 40.16 39.26 40.49C39.26 40.82 38.99 41.1 38.66 41.1C38.33 41.1 38.05 40.82 38.05 40.49ZM45.19 40.43C45.19 40.1 45.46 39.82 45.79 39.82C46.13 39.82 46.4 40.1 46.4 40.43C46.4 40.77 46.13 41.03 45.79 41.03C45.46 41.03 45.19 40.77 45.19 40.43ZM57.77 39.77C57.77 39.43 58.04 39.16 58.38 39.16C58.71 39.16 58.98 39.43 58.98 39.77C58.98 40.1 58.71 40.37 58.38 40.37C58.04 40.37 57.77 40.1 57.77 39.77ZM27.52 39.28C27.52 38.95 27.8 38.68 28.13 38.68C28.47 38.68 28.73 38.95 28.73 39.28C28.73 39.61 28.47 39.89 28.13 39.89C27.8 39.89 27.52 39.61 27.52 39.28ZM42.89 39.22C42.89 38.89 43.16 38.62 43.49 38.62C43.83 38.62 44.1 38.89 44.1 39.22C44.1 39.56 43.83 39.82 43.49 39.82C43.16 39.82 42.89 39.56 42.89 39.22ZM31.03 38.16C31.03 37.98 31.19 37.83 31.37 37.83C31.55 37.83 31.7 37.98 31.7 38.16C31.7 38.35 31.55 38.5 31.37 38.5C31.19 38.5 31.03 38.35 31.03 38.16ZM22.32 37.19C22.32 37.01 22.47 36.86 22.65 36.86C22.84 36.86 22.99 37.01 22.99 37.19C22.99 37.38 22.84 37.53 22.65 37.53C22.47 37.53 22.32 37.38 22.32 37.19ZM44.28 37.07C44.28 36.89 44.43 36.74 44.61 36.74C44.8 36.74 44.94 36.89 44.94 37.07C44.94 37.26 44.8 37.41 44.61 37.41C44.43 37.41 44.28 37.26 44.28 37.07ZM53.72 36.25C53.72 35.92 53.99 35.65 54.32 35.65C54.65 35.65 54.93 35.92 54.93 36.25C54.93 36.59 54.65 36.86 54.32 36.86C53.99 36.86 53.72 36.59 53.72 36.25ZM37.93 36.29C37.93 36.11 38.08 35.96 38.26 35.96C38.45 35.96 38.6 36.11 38.6 36.29C38.6 36.47 38.45 36.62 38.26 36.62C38.08 36.62 37.93 36.47 37.93 36.29ZM61.7 35.75C61.7 35.56 61.85 35.41 62.03 35.41C62.22 35.41 62.36 35.56 62.36 35.75C62.36 35.93 62.22 36.08 62.03 36.08C61.85 36.08 61.7 35.93 61.7 35.75ZM38.41 35.35C38.41 35.02 38.69 34.74 39.02 34.74C39.35 34.74 39.62 35.02 39.62 35.35C39.62 35.68 39.35 35.96 39.02 35.96C38.69 35.96 38.41 35.68 38.41 35.35ZM48.09 35.17C48.09 34.83 48.36 34.56 48.7 34.56C49.03 34.56 49.3 34.83 49.3 35.17C49.3 35.5 49.03 35.77 48.7 35.77C48.36 35.77 48.09 35.5 48.09 35.17ZM52.51 34.59C52.51 34.41 52.66 34.26 52.84 34.26C53.03 34.26 53.17 34.41 53.17 34.59C53.17 34.78 53.03 34.93 52.84 34.93C52.66 34.93 52.51 34.78 52.51 34.59ZM61.28 34.14C61.28 33.81 61.55 33.53 61.88 33.53C62.22 33.53 62.49 33.81 62.49 34.14C62.49 34.47 62.22 34.74 61.88 34.74C61.55 34.74 61.28 34.47 61.28 34.14ZM29.79 34.74C29.61 34.74 29.46 34.59 29.46 34.41C29.46 34.23 29.61 34.08 29.79 34.08C29.98 34.08 30.13 34.23 30.13 34.41C30.13 34.57 30.02 34.71 29.86 34.74L29.79 34.74ZM57.35 33.45C57.35 33.26 57.49 33.11 57.68 33.11C57.86 33.11 58.01 33.26 58.01 33.45C58.01 33.63 57.86 33.78 57.68 33.78C57.49 33.78 57.35 33.63 57.35 33.45ZM32.85 32.56C32.85 32.23 33.12 31.96 33.46 31.96C33.79 31.96 34.06 32.23 34.06 32.56C34.06 32.9 33.79 33.17 33.46 33.17C33.12 33.17 32.85 32.9 32.85 32.56ZM53.6 32.36C53.6 32.18 53.75 32.02 53.93 32.02C54.11 32.02 54.26 32.18 54.26 32.36C54.26 32.54 54.11 32.69 53.93 32.69C53.75 32.69 53.6 32.54 53.6 32.36ZM43.98 31.84C43.64 31.84 43.37 31.57 43.37 31.23C43.37 30.9 43.64 30.63 43.98 30.63C44.15 30.63 44.3 30.7 44.41 30.82C44.45 30.68 44.58 30.57 44.73 30.57C44.92 30.57 45.06 30.72 45.06 30.9C45.06 31.09 44.92 31.23 44.73 31.23C44.68 31.23 44.62 31.22 44.58 31.2C44.58 31.21 44.58 31.22 44.58 31.23C44.58 31.57 44.31 31.84 43.98 31.84ZM50.15 30.78C50.15 30.6 50.3 30.45 50.48 30.45C50.66 30.45 50.81 30.6 50.81 30.78C50.81 30.97 50.66 31.11 50.48 31.11C50.3 31.11 50.15 30.97 50.15 30.78ZM60.43 30.66C60.43 30.48 60.58 30.33 60.77 30.33C60.95 30.33 61.1 30.48 61.1 30.66C61.1 30.85 60.95 30.99 60.77 30.99C60.58 30.99 60.43 30.85 60.43 30.66ZM57.59 30.33C57.59 30 57.86 29.72 58.19 29.72C58.53 29.72 58.8 30 58.8 30.33C58.8 30.66 58.53 30.93 58.19 30.93C57.86 30.93 57.59 30.66 57.59 30.33ZM32.3 30.15C32.3 29.81 32.58 29.54 32.91 29.54C33.24 29.54 33.51 29.81 33.51 30.15C33.51 30.48 33.25 30.75 32.91 30.75C32.58 30.75 32.3 30.48 32.3 30.15ZM38.05 30.09C37.83 30.09 37.64 29.96 37.53 29.79C37.45 29.73 37.39 29.62 37.39 29.51C37.39 29.42 37.43 29.34 37.49 29.28C37.57 29.04 37.79 28.88 38.05 28.88C38.38 28.88 38.66 29.15 38.66 29.48C38.66 29.82 38.38 30.09 38.05 30.09L38.05 30.09ZM51 28.94C51 28.6 51.26 28.34 51.6 28.34C51.93 28.34 52.21 28.6 52.21 28.94C52.21 29.27 51.93 29.54 51.6 29.54C51.26 29.54 51 29.27 51 28.94ZM28.68 28.34C28.68 28 28.94 27.73 29.28 27.73C29.61 27.73 29.89 28 29.89 28.34C29.89 28.67 29.61 28.94 29.28 28.94C28.94 28.94 28.68 28.67 28.68 28.34ZM39.14 26.73C39.14 26.55 39.29 26.4 39.47 26.4C39.66 26.4 39.8 26.55 39.8 26.73C39.8 26.91 39.66 27.06 39.47 27.06C39.29 27.06 39.14 26.91 39.14 26.73ZM59.52 26.61C59.52 26.43 59.67 26.28 59.86 26.28C60.04 26.28 60.19 26.43 60.19 26.61C60.19 26.79 60.04 26.94 59.86 26.94C59.67 26.94 59.52 26.79 59.52 26.61ZM31.88 26.55C31.88 26.36 32.03 26.21 32.21 26.21C32.39 26.21 32.54 26.36 32.54 26.55C32.54 26.73 32.39 26.88 32.21 26.88C32.03 26.88 31.88 26.73 31.88 26.55ZM55.29 25.15C55.29 24.97 55.44 24.82 55.62 24.82C55.8 24.82 55.95 24.97 55.95 25.15C55.95 25.34 55.8 25.49 55.62 25.49C55.44 25.49 55.29 25.34 55.29 25.15ZM56.32 24.4C56.32 24.06 56.59 23.8 56.92 23.8C57.26 23.8 57.53 24.06 57.53 24.4C57.53 24.73 57.26 25.01 56.92 25.01C56.59 25.01 56.32 24.73 56.32 24.4ZM34.84 23.95C34.84 23.76 35 23.61 35.18 23.61C35.36 23.61 35.51 23.76 35.51 23.95C35.51 24.13 35.36 24.28 35.18 24.28C35 24.28 34.84 24.13 34.84 23.95ZM37.32 23.44C37.32 23.1 37.6 22.83 37.93 22.83C38.26 22.83 38.53 23.1 38.53 23.44C38.53 23.77 38.26 24.04 37.93 24.04C37.6 24.04 37.32 23.77 37.32 23.44ZM32.12 22.47C32.12 22.13 32.39 21.86 32.73 21.86C33.06 21.86 33.34 22.13 33.34 22.47C33.34 22.8 33.06 23.07 32.73 23.07C32.39 23.07 32.12 22.8 32.12 22.47ZM49.84 22.55C49.84 22.37 49.99 22.22 50.18 22.22C50.36 22.22 50.51 22.37 50.51 22.55C50.51 22.74 50.36 22.89 50.18 22.89C49.99 22.89 49.84 22.74 49.84 22.55ZM41.74 22.22C41.74 21.89 42.01 21.62 42.34 21.62C42.68 21.62 42.95 21.89 42.95 22.22C42.95 22.55 42.68 22.83 42.34 22.83C42.01 22.83 41.74 22.55 41.74 22.22ZM52.45 21.89C52.45 21.7 52.59 21.56 52.78 21.56C52.96 21.56 53.11 21.7 53.11 21.89C53.11 22.07 52.96 22.22 52.78 22.22C52.59 22.22 52.45 22.07 52.45 21.89ZM40.77 20.5C40.77 20.32 40.92 20.17 41.11 20.17C41.29 20.17 41.44 20.32 41.44 20.5C41.44 20.69 41.29 20.83 41.11 20.83C40.92 20.83 40.77 20.69 40.77 20.5ZM27.52 20.04C27.52 19.71 27.8 19.44 28.13 19.44C28.47 19.44 28.73 19.71 28.73 20.04C28.73 20.38 28.47 20.65 28.13 20.65C27.8 20.65 27.52 20.38 27.52 20.04ZM50.57 18.87C50.57 18.69 50.72 18.54 50.9 18.54C51.09 18.54 51.24 18.69 51.24 18.87C51.24 19.05 51.09 19.2 50.9 19.2C50.72 19.2 50.57 19.05 50.57 18.87ZM52.45 18.17C52.45 17.84 52.72 17.57 53.05 17.57C53.39 17.57 53.65 17.84 53.65 18.17C53.65 18.5 53.39 18.78 53.05 18.78C52.72 18.78 52.45 18.5 52.45 18.17ZM26.98 17.53C26.98 17.35 27.13 17.2 27.31 17.2C27.5 17.2 27.64 17.35 27.64 17.53C27.64 17.72 27.5 17.87 27.31 17.87C27.13 17.87 26.98 17.72 26.98 17.53ZM52.75 16.27C52.75 16.08 52.9 15.93 53.08 15.93C53.27 15.93 53.41 16.08 53.41 16.27C53.41 16.45 53.27 16.6 53.08 16.6C52.9 16.6 52.75 16.45 52.75 16.27ZM36.11 15.36C36.11 15.17 36.26 15.02 36.45 15.02C36.63 15.02 36.78 15.17 36.78 15.36C36.78 15.54 36.63 15.69 36.45 15.69C36.26 15.69 36.11 15.54 36.11 15.36ZM27.59 13.72C27.59 13.54 27.74 13.39 27.92 13.39C28.1 13.39 28.25 13.54 28.25 13.72C28.25 13.91 28.1 14.05 27.92 14.05C27.74 14.05 27.59 13.91 27.59 13.72ZM29.28 12.51C29.28 12.33 29.43 12.18 29.61 12.18C29.79 12.18 29.94 12.33 29.94 12.51C29.94 12.7 29.79 12.85 29.61 12.85C29.43 12.85 29.28 12.7 29.28 12.51Z" />
		<g id="Layer">
			<path id="Layer" class="shp8" d="M30.43 24.08C30.43 29.5 26.03 33.89 20.61 33.89C15.19 33.89 10.8 29.5 10.8 24.08C10.8 18.66 15.19 14.26 20.61 14.26C26.03 14.26 30.43 18.66 30.43 24.08Z" />
			<path id="Layer" class="shp9" d="M20.63 16.82C19.48 19.93 16.26 21.75 15.03 24.41C14.32 25.95 14.82 27.69 16.26 28.35C17.56 28.93 19.15 28.42 20 27.19C20.01 27.32 20.02 27.46 20.02 27.6C20.02 29.06 19.48 30.39 18.63 31.34L22.59 31.34C21.69 30.38 21.12 29.02 21.12 27.51C21.12 27.34 21.13 27.17 21.14 27C21.96 28.36 23.64 28.96 25.01 28.35C26.45 27.69 26.85 25.97 26.24 24.41C25.19 21.71 22.03 19.94 20.63 16.82L20.63 16.82Z" />
		</g>
		<g id="Layer">
			<path id="Layer" class="shp10" d="M30.43 77.54C30.43 82.96 26.03 87.35 20.61 87.35C15.19 87.35 10.8 82.96 10.8 77.54C10.8 72.12 15.19 67.72 20.61 67.72C26.03 67.72 30.43 72.12 30.43 77.54Z" />
			<path id="Layer" class="shp11" d="M20.63 70.28C19.48 73.39 16.26 75.21 15.03 77.87C14.32 79.41 14.82 81.15 16.26 81.81C17.56 82.39 19.15 81.88 20 80.65C20.01 80.78 20.02 80.92 20.02 81.06C20.02 82.52 19.48 83.85 18.63 84.8L22.59 84.8C21.69 83.84 21.12 82.48 21.12 80.97C21.12 80.8 21.13 80.63 21.14 80.46C21.96 81.82 23.64 82.42 25.01 81.81C26.45 81.15 26.85 79.43 26.24 77.87C25.19 75.17 22.03 73.4 20.63 70.28L20.63 70.28Z" />
		</g>
		<g id="Layer">
			<path id="Layer" class="shp12" d="M63.42 24.08C63.42 29.5 59.02 33.89 53.6 33.89C48.18 33.89 43.79 29.5 43.79 24.08C43.79 18.66 48.18 14.26 53.6 14.26C59.02 14.26 63.42 18.66 63.42 24.08Z" />
			<path id="Layer" class="shp13" d="M53.62 16.82C52.47 19.93 49.25 21.75 48.02 24.41C47.31 25.95 47.81 27.69 49.25 28.35C50.55 28.93 52.14 28.42 52.99 27.19C53 27.32 53.01 27.46 53.01 27.6C53.01 29.06 52.47 30.39 51.62 31.34L55.58 31.34C54.68 30.38 54.11 29.02 54.11 27.51C54.11 27.34 54.12 27.17 54.13 27C54.95 28.36 56.63 28.96 58 28.35C59.44 27.69 59.84 25.97 59.23 24.41C58.18 21.71 55.02 19.94 53.62 16.82L53.62 16.82Z" />
		</g>
		<g id="Layer">
			<path id="Layer" class="shp14" d="M63.42 77.54C63.42 82.96 59.02 87.35 53.6 87.35C48.18 87.35 43.79 82.96 43.79 77.54C43.79 72.12 48.18 67.72 53.6 67.72C59.02 67.72 63.42 72.12 63.42 77.54Z" />
			<path id="Layer" class="shp15" d="M53.62 70.28C52.47 73.39 49.25 75.21 48.02 77.87C47.31 79.41 47.81 81.15 49.25 81.81C50.55 82.39 52.14 81.88 52.99 80.65C53 80.78 53.01 80.92 53.01 81.06C53.01 82.52 52.47 83.85 51.62 84.8L55.58 84.8C54.68 83.84 54.11 82.48 54.11 80.97C54.11 80.8 54.12 80.63 54.13 80.46C54.95 81.82 56.63 82.42 58 81.81C59.44 81.15 59.84 79.43 59.23 77.87C58.18 75.17 55.02 73.4 53.62 70.28L53.62 70.28Z" />
		</g>
	</g>
</svg>