<svg xmlns="http://www.w3.org/2000/svg" viewBox="0 0 73 102" width="73" height="102">
	<defs>
		<filter x="-50%" y="-50%" width="200%" height="200%" id="flt1"> <feGaussianBlur stdDeviation="0.85" /> </filter>
		<linearGradient id="grd1" gradientUnits="userSpaceOnUse"  x1="41.807" y1="26.385" x2="43.952" y2="-89.997">
			<stop offset="0" stop-color="#f3f3f3"  />
			<stop offset="1" stop-color="#8f8f8f"  />
		</linearGradient>
		<radialGradient id="grd2" gradientUnits="userSpaceOnUse"  cx="10.86" cy="91.644" r="13.273">
			<stop offset="0" stop-color="#ffffff"  />
			<stop offset="1" stop-color="#ffffff" stop-opacity="0" />
		</radialGradient>
		<radialGradient id="grd3" gradientUnits="userSpaceOnUse"  cx="62.927" cy="12.588" r="14.287">
			<stop offset="0" stop-color="#ffffff"  />
			<stop offset="1" stop-color="#ffffff" stop-opacity="0" />
		</radialGradient>
		<radialGradient id="grd4" gradientUnits="userSpaceOnUse"  cx="37.311" cy="50.581" r="22.382">
			<stop offset="0" stop-color="#ffffff"  />
			<stop offset="1" stop-color="#ffffff" stop-opacity="0" />
		</radialGradient>
		<linearGradient id="grd5" gradientUnits="userSpaceOnUse"  x1="-866.456" y1="90.69" x2="-866.456" y2="87.5">
			<stop offset="0" stop-color="#000000"  />
			<stop offset="1" stop-color="#555753"  />
		</linearGradient>
		<radialGradient id="grd6" gradientUnits="userSpaceOnUse"  cx="18.539" cy="73.826" r="25.374">
			<stop offset="0" stop-color="#000000"  />
			<stop offset="1" stop-color="#000000" stop-opacity="0" />
		</radialGradient>
		<linearGradient id="grd7" gradientUnits="userSpaceOnUse"  x1="-866.456" y1="28.63" x2="-866.456" y2="64.86">
			<stop offset="0" stop-color="#000000"  />
			<stop offset="1" stop-color="#6f6f6f"  />
		</linearGradient>
		<linearGradient id="grd8" gradientUnits="userSpaceOnUse"  x1="-866.457" y1="15.87" x2="-866.457" y2="4.82">
			<stop offset="0" stop-color="#000000"  />
			<stop offset="1" stop-color="#6f6f6f"  />
		</linearGradient>
		<linearGradient id="grd9" gradientUnits="userSpaceOnUse"  x1="11.734" y1="-287.3" x2="23.904" y2="-287.3">
			<stop offset="0" stop-color="#000000"  />
			<stop offset="1" stop-color="#6f6f6f"  />
		</linearGradient>
	</defs>
	<style>
		tspan { white-space:pre }
		.shp0 { filter: url(#flt1);fill: #000000 } 
		.shp1 { fill: url(#grd1);stroke: #000000;stroke-width: 0.226 } 
		.shp2 { opacity: 0.31;fill: url(#grd2) } 
		.shp3 { opacity: 0.318;fill: url(#grd3) } 
		.shp4 { fill: none;stroke: #000000;stroke-width: 0.226 } 
		.shp5 { opacity: 0.325;fill: url(#grd4) } 
		.shp6 { fill: url(#grd5);stroke: #1b1b1b;stroke-linejoin:round;stroke-width: 0.177 } 
		.shp7 { fill: url(#grd6) } 
		.shp8 { fill: url(#grd7);stroke: #0c0c0c;stroke-width: 0.402 } 
		.shp9 { fill: url(#grd8) } 
		.shp10 { fill: url(#grd9);stroke: #0c0c0c;stroke-linejoin:round;stroke-width: 0.368 } 
	</style>
	<g id="-e-Spade12">
		<g id="Layer">
			<path id="Layer" fill-rule="evenodd" class="shp0" d="M5.28 1.56L68.54 1.56C68.99 1.56 69.44 1.65 69.86 1.83C70.28 2 70.66 2.25 70.98 2.57C71.3 2.89 71.55 3.28 71.72 3.69C71.9 4.11 71.99 4.56 71.99 5.01L71.99 97.3C71.99 97.75 71.9 98.2 71.72 98.62C71.55 99.04 71.3 99.42 70.98 99.74C70.66 100.06 70.28 100.32 69.86 100.49C69.44 100.66 68.99 100.75 68.54 100.75L5.28 100.75C4.83 100.75 4.38 100.66 3.96 100.49C3.55 100.32 3.17 100.06 2.84 99.74C2.52 99.42 2.27 99.04 2.1 98.62C1.92 98.2 1.83 97.75 1.83 97.3L1.83 5.01C1.83 4.56 1.92 4.11 2.1 3.69C2.27 3.28 2.52 2.89 2.84 2.57C3.17 2.25 3.55 2 3.96 1.83C4.38 1.65 4.83 1.56 5.28 1.56" />
			<path id="Layer" fill-rule="evenodd" class="shp1" d="M6.29 0.99L68.34 0.99C68.87 0.99 69.4 1.09 69.89 1.3C70.38 1.5 70.83 1.8 71.2 2.17C71.58 2.55 71.88 3 72.08 3.49C72.29 3.98 72.39 4.51 72.39 5.04L72.39 96.12C72.39 96.65 72.29 97.18 72.08 97.67C71.88 98.16 71.58 98.61 71.2 98.99C70.83 99.36 70.38 99.66 69.89 99.87C69.4 100.07 68.87 100.17 68.34 100.17L6.29 100.17C5.76 100.17 5.23 100.07 4.74 99.87C4.25 99.66 3.8 99.36 3.43 98.99C3.05 98.61 2.75 98.16 2.55 97.67C2.34 97.18 2.24 96.65 2.24 96.12L2.24 5.04C2.24 4.51 2.34 3.98 2.55 3.49C2.75 3 3.05 2.55 3.43 2.17C3.8 1.8 4.25 1.5 4.74 1.3C5.23 1.09 5.76 0.99 6.29 0.99" />
			<path id="Layer" class="shp2" d="M31.39 96.71L6.55 96.71C6.44 96.71 6.32 96.69 6.22 96.64C6.12 96.6 6.02 96.54 5.94 96.46C5.86 96.38 5.8 96.29 5.76 96.18C5.72 96.08 5.69 95.97 5.69 95.86L5.69 73.28C5.69 73.17 5.72 73.06 5.76 72.96C5.8 72.85 5.86 72.76 5.94 72.68C6.02 72.6 6.12 72.54 6.22 72.5C6.32 72.45 6.44 72.43 6.55 72.43L31.39 72.43C31.5 72.43 31.61 72.45 31.71 72.5C31.82 72.54 31.91 72.6 31.99 72.68C32.07 72.76 32.13 72.85 32.18 72.96C32.22 73.06 32.24 73.17 32.24 73.28L32.24 95.86C32.24 95.97 32.22 96.08 32.18 96.18C32.13 96.29 32.07 96.38 31.99 96.46C31.91 96.54 31.82 96.6 31.71 96.64C31.61 96.69 31.5 96.71 31.39 96.71" />
			<path id="Layer" class="shp3" d="M41.4 4.45L67.9 4.45C68.03 4.45 68.17 4.48 68.29 4.53C68.42 4.58 68.53 4.66 68.63 4.75C68.73 4.85 68.8 4.97 68.86 5.09C68.91 5.22 68.93 5.35 68.93 5.49L68.93 48.69C68.93 48.82 68.91 48.96 68.86 49.08C68.8 49.21 68.73 49.32 68.63 49.42C68.53 49.52 68.42 49.59 68.29 49.64C68.17 49.7 68.03 49.72 67.9 49.72L41.4 49.72C41.26 49.72 41.13 49.7 41 49.64C40.88 49.59 40.76 49.52 40.66 49.42C40.57 49.32 40.49 49.21 40.44 49.08C40.39 48.96 40.36 48.82 40.36 48.69L40.36 5.49C40.36 5.35 40.39 5.22 40.44 5.09C40.49 4.97 40.57 4.85 40.66 4.75C40.76 4.66 40.88 4.58 41 4.53C41.13 4.48 41.26 4.45 41.4 4.45" />
			<path id="Layer" class="shp4" d="M20.66 92.68L65.38 92.68L65.38 19.08" />
			<path id="Layer" class="shp4" d="M53.81 8.47L9.25 8.47L9.25 81.66" />
			<path id="Layer" class="shp5" d="M59.69 50.58C59.69 72.47 49.67 90.22 37.3 90.22C24.94 90.22 14.92 72.47 14.92 50.58C14.92 28.69 24.94 10.95 37.3 10.95C49.67 10.95 59.69 28.69 59.69 50.58Z" />
		</g>
		<path id="Layer" class="shp6" d="M12.36 85.6C11.8 87.09 10.25 87.97 9.66 89.25C9.31 89.99 9.56 90.83 10.25 91.15C10.88 91.43 11.64 91.18 12.05 90.59C12.06 90.66 12.06 90.72 12.06 90.79C12.06 91.49 11.8 92.13 11.39 92.59L13.3 92.59C12.87 92.13 12.59 91.47 12.59 90.75C12.59 90.66 12.6 90.58 12.6 90.5C13 91.16 13.8 91.45 14.46 91.15C15.16 90.83 15.35 90 15.06 89.25C14.55 87.95 13.03 87.1 12.36 85.6L12.36 85.6Z" />
		<path id="Layer" fill-rule="evenodd" class="shp7" d="M18.44 89.44C18.44 89.44 18.44 89.44 18.44 89.44C18.44 89.44 18.44 89.44 18.44 89.44L18.44 89.44ZM18.44 89.44C16.13 83.67 14.57 83.84 12.58 83.26L15.55 83.26C15.57 83.16 15.59 83.07 15.61 82.97C15.66 82.72 15.73 82.47 15.81 82.22C15.81 81.89 15.81 81.56 15.81 81.23C15.82 80.52 15.92 79.81 16.02 79.1C16.03 78.92 16.06 78.73 16.09 78.55C15.99 78.47 16.01 77.93 16.27 76.87C16.32 76.66 16.36 76.44 16.4 76.22C16.49 75.72 16.6 75.22 16.71 74.73C16.83 74.14 17.03 73.56 17.21 72.99C17.45 72.3 17.74 71.64 18.02 70.98C18.38 70.16 18.73 69.35 19.09 68.54C19.58 67.44 20.13 66.38 20.67 65.31C21.36 64 21.97 62.65 22.55 61.29C23.25 59.63 23.93 57.98 24.62 56.32C25.37 54.55 26.08 52.76 26.75 50.97C26.8 50.85 26.84 50.74 26.88 50.62C26.87 50.58 26.86 50.54 26.86 50.5C26.86 50.38 26.92 50.27 27.02 50.21C27.62 48.53 28.16 46.84 28.69 45.13C29.34 42.99 29.89 40.81 30.33 38.61C30.78 36.05 30.89 33.46 30.86 30.87C30.8 28.75 30.58 26.65 30.33 24.55C30.23 24.64 30.09 24.7 29.94 24.7C29.61 24.7 29.34 24.43 29.34 24.1C29.34 23.77 29.61 23.49 29.94 23.49C30.04 23.49 30.14 23.52 30.22 23.56L30.15 23C30.05 22.26 29.95 21.52 29.84 20.78C29.79 20.88 29.67 20.95 29.55 20.95C29.36 20.95 29.22 20.81 29.22 20.62C29.22 20.44 29.36 20.29 29.55 20.29C29.64 20.29 29.72 20.32 29.78 20.37C29.68 19.68 29.57 18.98 29.46 18.29C29.29 17.22 29.32 16.57 29.44 16.41C29.34 16.3 29.28 16.15 29.28 15.99C29.28 15.66 29.55 15.39 29.88 15.39C30.21 15.39 30.49 15.66 30.49 15.99C30.49 16.33 30.21 16.6 29.88 16.6C29.81 16.6 29.75 16.58 29.69 16.56C29.81 16.8 29.93 17.26 30.04 17.96C30.29 19.52 30.52 21.09 30.72 22.67C31.04 25.28 31.35 27.9 31.43 30.53C31.45 33.12 31.36 35.72 30.91 38.28C30.48 40.48 29.92 42.65 29.26 44.79C28.7 46.64 28.12 48.49 27.46 50.3C27.5 50.36 27.53 50.43 27.53 50.5C27.53 50.66 27.42 50.79 27.27 50.83C26.62 52.56 25.93 54.28 25.21 55.98C24.52 57.64 23.84 59.3 23.14 60.95C22.56 62.31 21.95 63.65 21.27 64.96C20.73 66.03 20.18 67.1 19.7 68.19C19.34 69 18.98 69.81 18.63 70.62C18.35 71.29 18.06 71.95 17.83 72.64C17.64 73.21 17.45 73.79 17.32 74.38C17.31 74.45 17.3 74.52 17.28 74.59C17.47 74.16 17.66 73.74 17.86 73.32C18.02 73.01 18.18 72.71 18.35 72.4C18.35 72.4 18.35 72.39 18.36 72.38C18.43 72.13 18.57 71.91 18.67 71.68C18.84 71.33 19.06 71 19.25 70.67C19.44 70.35 19.65 70.05 19.87 69.75C20.44 68.75 21.1 67.8 21.78 66.87C22.3 66.14 22.91 65.49 23.54 64.85C23.56 64.71 23.67 64.59 23.81 64.57L24.33 64.05C25.33 63.11 26.37 62.2 27.38 61.25C28.56 60.14 29.71 58.99 30.86 57.84C32.16 56.53 33.36 55.12 34.48 53.65C35.72 51.94 36.76 50.09 37.77 48.24C38.11 47.64 38.42 47.03 38.71 46.41L38.59 46.42C38.26 46.42 37.99 46.15 37.99 45.81C37.99 45.48 38.26 45.21 38.59 45.21C38.82 45.21 39.01 45.33 39.11 45.52C39.6 44.4 40.04 43.27 40.42 42.12L40.49 41.89C40.45 41.62 40.43 41.22 40.45 40.67C40.48 39.73 40.5 38.8 40.47 37.86C40.42 36.17 40.31 34.49 40.08 32.82C39.9 31.68 39.72 30.53 39.39 29.42C39.22 28.86 39.07 28.29 38.82 27.76C38.73 27.62 38.68 27.45 38.55 27.33C36.62 25.64 37.26 25.25 39.17 26.96C39.3 27.08 39.35 27.26 39.44 27.41C39.69 27.94 39.84 28.51 40 29.07C40.33 30.18 40.5 31.33 40.68 32.47C40.9 34.14 41 35.83 41.06 37.51C41.08 38.22 41.07 38.94 41.05 39.65C41.37 38.16 41.61 36.65 41.79 35.14C41.85 34.47 41.87 33.8 41.89 33.13C41.82 33.15 41.76 33.17 41.68 33.17C41.35 33.17 41.07 32.9 41.07 32.56C41.07 32.23 41.35 31.96 41.68 31.96C41.76 31.96 41.84 31.98 41.91 32.01C41.92 30.97 41.89 29.94 41.86 28.9C41.62 28.82 41.44 28.61 41.44 28.34C41.44 28.08 41.6 27.86 41.83 27.77C41.82 27.66 41.82 27.55 41.81 27.44C41.8 27.03 41.79 26.61 41.77 26.19C41.68 23.85 42.26 23.52 42.34 25.86C42.36 26.28 42.37 26.69 42.39 27.11C42.39 27.36 42.4 27.61 42.41 27.85C42.55 27.97 42.65 28.14 42.65 28.34C42.65 28.52 42.57 28.68 42.44 28.79C42.5 30.79 42.52 32.8 42.37 34.8C42.07 37.16 41.69 39.51 41 41.79C40.3 43.9 39.44 45.96 38.35 47.91C37.34 49.76 36.31 51.6 35.06 53.31C33.95 54.78 32.76 56.19 31.45 57.5C30.31 58.65 29.15 59.8 27.97 60.91C26.97 61.85 25.93 62.76 24.93 63.71C24.63 64.01 24.32 64.31 24.03 64.61C24.1 64.66 24.16 64.73 24.18 64.82C24.94 64.04 25.75 63.31 26.55 62.58L29.36 60.09C30.34 59.21 31.34 58.33 32.34 57.46C33.46 56.48 34.56 55.47 35.63 54.45C36.85 53.29 38.04 52.1 39.22 50.9C40.47 49.65 41.65 48.32 42.8 46.97C43.67 45.93 44.51 44.85 45.32 43.76C45.31 43.72 45.31 43.68 45.31 43.64C45.31 43.32 45.55 43.07 45.85 43.04L46.46 42.2C47.54 40.71 48.52 39.16 49.44 37.57C49.41 37.58 49.37 37.59 49.33 37.59C49.15 37.59 49 37.44 49 37.26C49 37.07 49.15 36.92 49.33 36.92C49.49 36.92 49.62 37.04 49.65 37.19C49.74 37.04 49.83 36.89 49.92 36.74C51 34.73 52.02 32.68 52.71 30.51C53.23 28.6 53.52 26.66 53.83 24.72C54.2 22.38 54.78 22.04 54.41 24.38C54.1 26.32 53.8 28.27 53.29 30.17C52.61 32.35 51.58 34.4 50.5 36.41C49.45 38.29 48.32 40.12 47.05 41.86C46.75 42.27 46.45 42.68 46.15 43.08C46.37 43.18 46.52 43.39 46.52 43.64C46.52 43.97 46.25 44.24 45.91 44.24C45.73 44.24 45.56 44.16 45.45 44.02C44.78 44.91 44.09 45.78 43.38 46.63C42.24 47.98 41.06 49.31 39.81 50.56C39.24 51.14 38.66 51.72 38.09 52.29C38.26 52.13 38.57 51.85 39.02 51.46C40.12 50.52 41.24 49.6 42.39 48.72C43.48 47.9 44.58 47.12 45.8 46.51C45.9 46.32 46.1 46.18 46.34 46.18C46.39 46.18 46.44 46.18 46.49 46.19C46.68 46.12 46.87 46.07 47.07 46.06C49.49 45.9 49.03 46.23 46.79 46.39C46.88 46.5 46.94 46.63 46.94 46.78C46.94 47.12 46.67 47.39 46.34 47.39C46 47.39 45.73 47.12 45.73 46.78C45.73 46.72 45.75 46.66 45.77 46.6L45.26 46.82C44.86 46.98 43.82 47.76 42.99 48.38C41.84 49.26 40.71 50.18 39.61 51.12C38.47 52.09 37.81 52.6 37.93 52.45C37.36 53.01 36.8 53.56 36.23 54.1C35.15 55.12 34.06 56.14 32.94 57.11C31.95 57.99 30.94 58.86 29.96 59.75C29.03 60.58 28.09 61.41 27.16 62.24C26.29 63.02 25.43 63.8 24.62 64.64C23.9 65.38 23.17 66.11 22.5 66.9C21.98 67.51 21.45 68.13 20.96 68.76L20.44 69.46C20.41 69.51 20.38 69.56 20.36 69.6C19.9 70.38 19.45 71.15 19.02 71.93L18.98 72.02C18.94 72.15 18.9 72.28 18.84 72.4C18.49 73.16 18.19 73.71 17.97 74.02C17.65 74.74 17.36 75.46 17.15 76.22C16.92 77.05 16.71 77.89 16.62 78.75C16.54 79.35 16.47 79.96 16.44 80.57L16.58 80.27C16.9 79.65 17.29 79.08 17.67 78.51C17.98 78.03 18.33 77.58 18.69 77.15C18.61 77.05 18.57 76.92 18.57 76.79C18.57 76.45 18.84 76.18 19.18 76.18C19.29 76.18 19.39 76.21 19.48 76.26C20.06 75.66 20.68 75.1 21.3 74.55C22.11 73.8 22.97 73.11 23.83 72.44C24.87 71.64 25.97 70.93 27.06 70.21C28.31 69.4 29.59 68.62 30.87 67.86L31.17 67.69C30.91 67.62 30.73 67.38 30.73 67.11C30.73 66.77 31 66.5 31.34 66.5C31.67 66.5 31.94 66.77 31.94 67.11C31.94 67.44 31.67 67.71 31.34 67.71C31.29 67.71 31.23 67.71 31.19 67.69C30.13 68.33 29.09 68.97 28.06 69.64C26.97 70.35 25.87 71.06 24.85 71.86C23.98 72.53 23.12 73.22 22.31 73.96C21.58 74.62 20.84 75.27 20.18 76L19.73 76.54C19.76 76.61 19.78 76.7 19.78 76.79C19.78 77.12 19.51 77.39 19.18 77.39C19.14 77.39 19.1 77.39 19.07 77.38C18.94 77.56 18.81 77.74 18.69 77.92C18.31 78.49 17.93 79.06 17.61 79.67C17.38 80.14 17.15 80.61 17 81.11C16.93 81.34 16.86 81.57 16.79 81.8C16.88 81.86 16.93 81.96 16.93 82.08C16.93 82.25 16.8 82.39 16.63 82.41C16.58 82.71 16.5 83.01 16.5 83.31C16.52 83.49 16.51 83.66 16.55 83.84C16.56 83.94 16.57 84.04 16.6 84.14C16.87 85.35 18.97 88.54 18.44 89.44ZM18.69 84.44C18.69 84.25 18.84 84.1 19.03 84.1C19.21 84.1 19.36 84.25 19.36 84.44C19.36 84.62 19.21 84.77 19.03 84.77C18.84 84.77 18.69 84.62 18.69 84.44ZM13.8 82.47C13.8 82.14 14.06 81.86 14.4 81.86C14.73 81.86 15 82.14 15 82.47C15 82.81 14.73 83.08 14.4 83.08C14.06 83.08 13.8 82.81 13.8 82.47ZM17.06 81.74C17.06 81.41 17.33 81.14 17.66 81.14C18 81.14 18.27 81.41 18.27 81.74C18.27 82.08 18 82.35 17.66 82.35C17.33 82.35 17.06 82.08 17.06 81.74ZM13.07 80.32C13.07 80.14 13.22 79.99 13.4 79.99C13.58 79.99 13.73 80.14 13.73 80.32C13.73 80.51 13.58 80.65 13.4 80.65C13.22 80.65 13.07 80.51 13.07 80.32ZM14.58 79.78C14.58 79.59 14.73 79.45 14.91 79.45C15.1 79.45 15.24 79.59 15.24 79.78C15.24 79.96 15.1 80.11 14.91 80.11C14.73 80.11 14.58 79.96 14.58 79.78ZM20.02 78.78C20.02 78.45 20.29 78.18 20.62 78.18C20.96 78.18 21.23 78.45 21.23 78.78C21.23 79.11 20.96 79.39 20.62 79.39C20.29 79.39 20.02 79.11 20.02 78.78ZM21.71 78.02C21.71 77.84 21.86 77.69 22.05 77.69C22.23 77.69 22.38 77.84 22.38 78.02C22.38 78.21 22.23 78.36 22.05 78.36C21.86 78.36 21.71 78.21 21.71 78.02ZM13.12 77.09C13.12 76.76 13.4 76.48 13.73 76.48C14.07 76.48 14.34 76.76 14.34 77.09C14.34 77.43 14.07 77.69 13.73 77.69C13.4 77.69 13.12 77.43 13.12 77.09ZM14.52 75.33C14.52 75 14.79 74.73 15.12 74.73C15.46 74.73 15.73 75 15.73 75.33C15.73 75.66 15.46 75.94 15.12 75.94C14.79 75.94 14.52 75.66 14.52 75.33ZM22.63 75.37C22.63 75.18 22.77 75.03 22.96 75.03C23.14 75.03 23.29 75.18 23.29 75.37C23.29 75.55 23.14 75.7 22.96 75.7C22.77 75.7 22.63 75.55 22.63 75.37ZM26.73 74.55C26.73 74.21 27.01 73.95 27.34 73.95C27.68 73.94 27.95 74.21 27.95 74.55C27.95 74.88 27.68 75.15 27.34 75.15C27.01 75.15 26.73 74.88 26.73 74.55ZM20.26 73.82C20.26 73.49 20.54 73.22 20.87 73.22C21.21 73.22 21.47 73.49 21.47 73.82C21.47 74.16 21.21 74.43 20.87 74.43C20.54 74.43 20.26 74.16 20.26 73.82ZM23.24 74.28C23.22 74.27 23.59 73.98 24.46 73.34C24.93 73 25.4 72.63 25.9 72.32C27.02 71.65 28.13 70.98 29.32 70.45C30.17 70.07 31.02 69.69 31.89 69.36C32.49 69.11 33.09 68.87 33.7 68.64L34.49 68.34C36.88 67.42 36.25 67.79 33.87 68.7L33.09 68.99C32.48 69.22 31.88 69.47 31.27 69.71C30.73 69.92 30.2 70.15 29.67 70.38C29.99 70.4 30.25 70.65 30.25 70.98C30.25 71.31 29.97 71.58 29.64 71.58C29.31 71.58 29.04 71.31 29.04 70.98C29.04 70.83 29.09 70.7 29.18 70.59L28.71 70.8C28.04 71.06 26.72 71.85 26.51 71.97C26 72.28 25.54 72.65 25.06 73C23.95 73.82 23.27 74.28 23.24 74.28L23.24 74.28ZM14.21 73.03C14.21 72.7 14.49 72.43 14.82 72.43C15.15 72.43 15.43 72.7 15.43 73.03C15.43 73.37 15.15 73.64 14.82 73.64C14.49 73.64 14.21 73.37 14.21 73.03ZM27.7 72.64C27.7 72.46 27.85 72.31 28.03 72.31C28.22 72.31 28.37 72.46 28.37 72.64C28.37 72.83 28.22 72.98 28.03 72.98C27.85 72.98 27.7 72.83 27.7 72.64ZM16.45 71.52C16.45 71.19 16.73 70.92 17.06 70.92C17.4 70.92 17.66 71.19 17.66 71.52C17.66 71.85 17.4 72.13 17.06 72.13C16.73 72.13 16.45 71.85 16.45 71.52ZM19.72 71.34C19.72 71.01 19.99 70.74 20.33 70.74C20.66 70.74 20.93 71.01 20.93 71.34C20.93 71.68 20.66 71.94 20.33 71.94C19.99 71.94 19.72 71.68 19.72 71.34ZM11.79 71.13C11.79 70.95 11.94 70.8 12.13 70.8C12.31 70.8 12.46 70.95 12.46 71.13C12.46 71.31 12.31 71.46 12.13 71.46C11.94 71.46 11.79 71.31 11.79 71.13ZM32.91 69.98C32.91 69.79 33.05 69.65 33.24 69.65C33.42 69.65 33.57 69.8 33.57 69.98C33.57 70.16 33.42 70.31 33.24 70.31C33.05 70.31 32.91 70.16 32.91 69.98ZM25.4 69.65C25.4 69.31 25.68 69.05 26.01 69.05C26.35 69.05 26.61 69.31 26.61 69.65C26.61 69.98 26.35 70.25 26.01 70.25C25.68 70.25 25.4 69.98 25.4 69.65ZM36.69 69.71C36.5 69.71 36.36 69.56 36.36 69.38C36.36 69.31 36.37 69.25 36.41 69.2C36.35 69.22 36.3 69.22 36.24 69.22C35.9 69.22 35.63 68.96 35.63 68.62C35.63 68.29 35.9 68.01 36.24 68.01C36.57 68.01 36.84 68.29 36.84 68.62C36.84 68.79 36.77 68.94 36.66 69.05L36.69 69.05C36.87 69.05 37.02 69.19 37.02 69.38C37.02 69.56 36.87 69.71 36.69 69.71L36.69 69.71ZM38.17 67.71C38.17 67.38 38.44 67.11 38.77 67.11C39.11 67.11 39.38 67.38 39.38 67.71C39.38 68.04 39.11 68.32 38.77 68.32C38.44 68.32 38.17 68.04 38.17 67.71ZM17.54 67.71C17.54 67.38 17.82 67.11 18.15 67.11C18.48 67.11 18.75 67.38 18.75 67.71C18.75 68.04 18.48 68.32 18.15 68.32C17.82 68.32 17.54 68.04 17.54 67.71ZM22.32 67.65C22.32 67.32 22.59 67.04 22.92 67.04C23.26 67.04 23.53 67.32 23.53 67.65C23.53 67.99 23.26 68.25 22.92 68.25C22.59 68.25 22.32 67.99 22.32 67.65ZM39.98 67.86C39.98 67.68 40.13 67.53 40.32 67.53C40.5 67.53 40.65 67.68 40.65 67.86C40.65 68.05 40.5 68.2 40.32 68.2C40.13 68.2 39.98 68.05 39.98 67.86ZM26.98 67.44C26.98 67.26 27.13 67.11 27.31 67.11C27.5 67.11 27.65 67.26 27.65 67.44C27.65 67.62 27.5 67.77 27.31 67.77C27.13 67.77 26.98 67.62 26.98 67.44ZM21.78 67.38C21.78 67.38 21.78 67.38 21.78 67.38C21.78 67.38 21.78 67.38 21.78 67.38L21.78 67.38ZM21.78 67.38C21.81 67.33 21.85 67.29 21.88 67.25C22.49 66.55 23.14 65.88 23.79 65.22C23.7 65.2 23.62 65.15 23.58 65.07C23.15 65.53 22.75 66.01 22.38 66.52C22.17 66.8 21.98 67.09 21.78 67.38ZM33.28 66.46C33.29 66.46 33.29 66.46 33.3 66.45C33.29 66.46 33.29 66.46 33.28 66.46L33.28 66.46ZM33.3 66.45C34.27 65.9 35.25 65.34 36.23 64.8C36.35 64.73 36.54 64.62 36.7 64.53C36.47 64.45 36.29 64.23 36.29 63.96C36.29 63.63 36.57 63.35 36.9 63.35C37.23 63.35 37.5 63.63 37.5 63.96C37.5 64.01 37.5 64.05 37.49 64.1L39.56 62.93C38.87 63.33 38.17 63.72 37.48 64.12C37.41 64.37 37.18 64.56 36.9 64.56C36.84 64.56 36.79 64.56 36.73 64.54C36.24 64.82 35.74 65.09 35.24 65.36C34.54 65.75 33.87 66.13 33.3 66.45ZM40.71 66.05C40.71 65.86 40.86 65.72 41.04 65.72C41.23 65.72 41.38 65.86 41.38 66.05C41.38 66.23 41.23 66.38 41.04 66.38C40.86 66.38 40.71 66.23 40.71 66.05ZM17.9 65.47C17.57 65.47 17.3 65.2 17.3 64.87C17.3 64.53 17.57 64.27 17.9 64.27C18.01 64.27 18.12 64.29 18.21 64.34C18.21 64.17 18.36 64.02 18.54 64.02C18.72 64.02 18.87 64.17 18.87 64.36C18.87 64.54 18.72 64.69 18.54 64.69C18.52 64.69 18.5 64.69 18.48 64.68C18.49 64.74 18.51 64.8 18.51 64.87C18.51 65.2 18.24 65.48 17.9 65.48L17.9 65.47ZM15.61 65.08C15.61 64.9 15.75 64.75 15.94 64.75C16.12 64.75 16.27 64.9 16.27 65.08C16.27 65.26 16.12 65.41 15.94 65.41C15.75 65.41 15.61 65.26 15.61 65.08ZM19.54 62.51C19.54 62.18 19.81 61.9 20.14 61.9C20.48 61.9 20.75 62.18 20.75 62.51C20.75 62.85 20.48 63.11 20.14 63.11C19.81 63.11 19.54 62.85 19.54 62.51ZM45.37 62.66C45.37 62.48 45.52 62.33 45.7 62.33C45.89 62.33 46.03 62.48 46.03 62.66C46.03 62.84 45.89 62.99 45.7 62.99C45.52 62.99 45.37 62.84 45.37 62.66ZM39.8 62.79L39.83 62.77C39.82 62.78 39.81 62.78 39.8 62.79L39.8 62.79ZM39.83 62.77C41.3 61.91 42.71 60.93 44.07 59.9C45.12 59.1 46.12 58.23 47.07 57.32C47.08 57.31 47.08 57.3 47.08 57.29C46.6 57.7 46.1 58.09 45.6 58.48C43.7 60.01 43.09 60.35 45 58.83C45.55 58.39 46.1 57.97 46.63 57.51C47.35 56.88 48.08 56.25 48.79 55.61C50.06 54.26 51.17 52.77 52.22 51.24C53.47 49.46 54.39 47.5 55.14 45.47C55.93 43.27 56.25 40.95 56.42 38.62C56.63 36.54 56.45 34.47 56.19 32.41C55.7 28.55 56.65 28.01 57.14 31.86C57.41 33.93 57.59 35.99 57.38 38.07C57.23 40.09 56.97 42.1 56.39 44.04C56.5 43.94 56.64 43.88 56.8 43.88C57.14 43.88 57.4 44.15 57.4 44.48C57.4 44.82 57.14 45.09 56.8 45.09C56.51 45.09 56.27 44.88 56.21 44.6C56.17 44.71 56.15 44.81 56.11 44.92C55.36 46.94 54.44 48.9 53.19 50.67C52.49 51.68 51.77 52.68 51 53.63C51.55 53.13 52.11 52.62 52.65 52.11L53.33 51.41C53.38 51.27 53.49 51.16 53.63 51.09C54.08 50.6 54.5 50.09 54.87 49.53C55.44 48.69 56 47.84 56.55 46.99C57.09 46.13 57.63 45.28 58.15 44.41C58.6 43.67 59.05 42.92 59.45 42.14C59.67 41.67 59.91 41.21 60.07 40.72C60.14 40.53 60.19 40.34 60.28 40.16C60.51 39.7 60.71 39.34 60.89 39.04C60.69 38.94 60.55 38.73 60.55 38.5C60.55 38.17 60.8 37.91 61.12 37.89C61.03 37.83 60.97 37.73 60.97 37.62C60.97 37.44 61.12 37.29 61.31 37.29C61.49 37.29 61.64 37.44 61.64 37.62C61.64 37.77 61.53 37.9 61.39 37.94C61.61 38.03 61.76 38.25 61.76 38.5C61.76 38.8 61.54 39.04 61.25 39.09C61.16 39.29 61.04 39.52 60.9 39.8C60.81 39.98 60.76 40.17 60.69 40.35C60.53 40.85 60.29 41.32 60.07 41.79L59.83 42.24C59.94 42.13 60.08 42.07 60.25 42.07C60.58 42.07 60.85 42.33 60.85 42.67C60.85 43 60.58 43.27 60.25 43.27C59.91 43.27 59.64 43 59.64 42.67C59.64 42.63 59.65 42.59 59.66 42.55C59.37 43.06 59.06 43.56 58.76 44.06C58.24 44.92 57.7 45.78 57.16 46.63C56.61 47.49 56.04 48.33 55.47 49.17C55.04 49.85 54.52 50.45 53.97 51.02C54.27 51.06 54.5 51.32 54.5 51.62C54.5 51.96 54.23 52.23 53.9 52.23C53.59 52.23 53.34 52 53.3 51.71L53.25 51.76C52.3 52.66 51.33 53.53 50.35 54.41L50.31 54.45C49.99 54.81 49.67 55.17 49.33 55.51C48.87 55.97 48.4 56.43 47.92 56.88C48.13 56.97 48.27 57.19 48.27 57.43C48.27 57.76 48 58.03 47.67 58.03C47.41 58.03 47.19 57.87 47.1 57.63C46.44 58.22 45.76 58.79 45.05 59.33C43.66 60.39 42.22 61.39 40.7 62.27L39.83 62.77ZM36.12 62.3C36.12 62.12 36.26 61.97 36.45 61.97C36.63 61.97 36.78 62.12 36.78 62.3C36.78 62.48 36.63 62.63 36.45 62.63C36.26 62.63 36.12 62.48 36.12 62.3ZM42.5 62.39L42.44 62.39C42.25 62.39 42.1 62.24 42.1 62.05C42.1 61.87 42.25 61.72 42.44 61.72C42.62 61.72 42.77 61.87 42.77 62.05C42.77 62.21 42.65 62.35 42.5 62.39ZM28.49 61.6C28.49 61.27 28.76 61 29.09 61C29.43 61 29.7 61.27 29.7 61.6C29.7 61.93 29.43 62.21 29.09 62.21C28.76 62.21 28.49 61.93 28.49 61.6ZM30.61 61.69C30.61 61.51 30.76 61.36 30.94 61.36C31.12 61.36 31.27 61.51 31.27 61.69C31.27 61.88 31.12 62.02 30.94 62.02C30.76 62.02 30.61 61.88 30.61 61.69ZM39.38 60.18C39.38 60 39.53 59.85 39.71 59.85C39.9 59.85 40.05 60 40.05 60.18C40.05 60.36 39.9 60.51 39.71 60.51C39.53 60.51 39.38 60.36 39.38 60.18ZM42.1 59.73C42.1 59.39 42.37 59.12 42.7 59.12C43.04 59.12 43.31 59.39 43.31 59.73C43.31 60.06 43.04 60.34 42.7 60.34C42.37 60.34 42.1 60.06 42.1 59.73ZM20.75 59.49C20.75 59.15 21.02 58.88 21.35 58.88C21.69 58.88 21.96 59.15 21.96 59.49C21.96 59.82 21.69 60.09 21.35 60.09C21.02 60.09 20.75 59.82 20.75 59.49ZM49.66 59.15C49.66 58.97 49.81 58.82 49.99 58.82C50.18 58.82 50.33 58.97 50.33 59.15C50.33 59.34 50.18 59.49 49.99 59.49C49.81 59.49 49.66 59.34 49.66 59.15ZM28.07 58.76C28.07 58.42 28.34 58.16 28.67 58.16C29 58.16 29.28 58.42 29.28 58.76C29.28 59.09 29 59.37 28.67 59.37C28.34 59.37 28.07 59.09 28.07 58.76ZM19.3 58C19.3 57.82 19.44 57.67 19.63 57.67C19.81 57.67 19.96 57.82 19.96 58C19.96 58.19 19.81 58.33 19.63 58.33C19.44 58.33 19.3 58.19 19.3 58ZM43.43 57.67C43.43 57.34 43.7 57.07 44.03 57.07C44.37 57.07 44.64 57.34 44.64 57.67C44.64 58 44.37 58.28 44.03 58.28C43.7 58.28 43.43 58 43.43 57.67ZM22.32 57.67C21.99 57.67 21.71 57.4 21.71 57.07C21.71 56.84 21.85 56.64 22.04 56.54C22.03 56.5 22.02 56.47 22.02 56.43C22.02 56.25 22.17 56.1 22.35 56.1C22.53 56.1 22.68 56.25 22.68 56.43C22.68 56.48 22.68 56.53 22.66 56.57C22.82 56.68 22.92 56.86 22.92 57.07C22.92 57.4 22.66 57.67 22.32 57.67L22.32 57.67ZM34.78 56.52C34.78 56.19 35.05 55.92 35.39 55.92C35.72 55.92 35.99 56.19 35.99 56.52C35.99 56.86 35.72 57.13 35.39 57.13C35.05 57.13 34.78 56.86 34.78 56.52ZM24.24 56.91C24.12 56.92 24.1 56.4 24.31 55.3C24.55 54.03 24.78 52.76 24.92 51.48C25.07 49.9 25.17 48.32 25.11 46.73C25.05 45.55 24.97 44.36 24.77 43.19C24.64 42.4 24.52 41.6 24.31 40.83C24.22 40.53 24.16 40.22 24.03 39.94C22.94 37.62 23.6 37.24 24.65 39.58C24.78 39.87 24.84 40.17 24.93 40.48C25.13 41.25 25.25 42.04 25.38 42.84C25.58 44.01 25.65 45.2 25.72 46.39C25.77 47.98 25.66 49.56 25.5 51.14C25.36 52.43 25.13 53.69 24.9 54.96C24.66 56.21 24.38 56.89 24.24 56.91L24.24 56.91ZM36.84 56.55C36.84 56.37 36.99 56.22 37.17 56.22C37.35 56.22 37.5 56.37 37.5 56.55C37.5 56.74 37.35 56.88 37.17 56.88C36.99 56.88 36.84 56.74 36.84 56.55ZM26.92 56.31C26.92 56.13 27.07 55.98 27.25 55.98C27.43 55.98 27.58 56.13 27.58 56.31C27.58 56.5 27.43 56.64 27.25 56.64C27.07 56.64 26.92 56.5 26.92 56.31ZM30.61 54.95C30.61 54.61 30.88 54.35 31.22 54.35C31.55 54.35 31.82 54.61 31.82 54.95C31.82 55.28 31.55 55.56 31.22 55.56C30.88 55.56 30.61 55.28 30.61 54.95ZM47.48 54.47C47.48 54.13 47.76 53.86 48.09 53.86C48.43 53.86 48.69 54.13 48.69 54.47C48.69 54.8 48.43 55.07 48.09 55.07C47.76 55.07 47.48 54.8 47.48 54.47ZM54.56 53.34C54.56 53.16 54.71 53.01 54.89 53.01C55.08 53.01 55.23 53.16 55.23 53.34C55.23 53.53 55.08 53.68 54.89 53.68C54.71 53.68 54.56 53.53 54.56 53.34ZM42.77 50.23C42.77 49.9 43.04 49.62 43.37 49.62C43.7 49.62 43.98 49.9 43.98 50.23C43.98 50.57 43.7 50.83 43.37 50.83C43.04 50.83 42.77 50.57 42.77 50.23ZM49.48 49.53C49.48 49.35 49.63 49.2 49.81 49.2C49.99 49.2 50.15 49.35 50.15 49.53C50.15 49.72 49.99 49.86 49.81 49.86C49.63 49.86 49.48 49.72 49.48 49.53ZM19.78 48.84C19.78 48.51 20.05 48.23 20.38 48.23C20.72 48.23 20.99 48.51 20.99 48.84C20.99 49.17 20.72 49.45 20.38 49.45C20.05 49.45 19.78 49.17 19.78 48.84ZM35.08 48.6C35.08 48.26 35.36 47.99 35.69 47.99C36.03 47.99 36.29 48.26 36.29 48.6C36.29 48.93 36.03 49.2 35.69 49.2C35.36 49.2 35.08 48.93 35.08 48.6ZM58.68 48.15C58.68 47.96 58.82 47.81 59.01 47.81C59.19 47.81 59.34 47.96 59.34 48.15C59.34 48.33 59.19 48.48 59.01 48.48C58.82 48.48 58.68 48.33 58.68 48.15ZM57.64 47.39C57.64 47.06 57.92 46.78 58.25 46.78C58.59 46.78 58.86 47.06 58.86 47.39C58.86 47.72 58.59 47.99 58.25 47.99C57.92 47.99 57.64 47.72 57.64 47.39ZM38.84 47.21C38.84 46.87 39.1 46.6 39.44 46.6C39.77 46.6 40.05 46.87 40.05 47.21C40.05 47.54 39.77 47.81 39.44 47.81C39.1 47.81 38.84 47.54 38.84 47.21ZM28.85 46.54C28.85 46.21 29.12 45.93 29.46 45.93C29.79 45.93 30.06 46.21 30.06 46.54C30.06 46.88 29.79 47.14 29.46 47.14C29.12 47.14 28.85 46.88 28.85 46.54ZM22.8 44.21C22.8 44.02 22.95 43.88 23.13 43.88C23.32 43.88 23.47 44.02 23.47 44.21C23.47 44.39 23.32 44.55 23.13 44.55C22.95 44.55 22.8 44.39 22.8 44.21ZM26.01 43.82C26.01 43.49 26.28 43.21 26.61 43.21C26.95 43.21 27.22 43.49 27.22 43.82C27.22 44.15 26.95 44.42 26.61 44.42C26.28 44.42 26.01 44.15 26.01 43.82ZM52.69 43.64C52.69 43.3 52.95 43.03 53.29 43.03C53.62 43.03 53.9 43.3 53.9 43.64C53.9 43.97 53.62 44.24 53.29 44.24C52.95 44.24 52.69 43.97 52.69 43.64ZM30 43.3C30 43.12 30.16 42.97 30.34 42.97C30.52 42.97 30.67 43.12 30.67 43.3C30.67 43.49 30.52 43.64 30.34 43.64C30.16 43.64 30 43.49 30 43.3ZM38.11 40.49C38.11 40.16 38.38 39.89 38.72 39.89C39.05 39.89 39.32 40.16 39.32 40.49C39.32 40.82 39.05 41.1 38.72 41.1C38.38 41.1 38.11 40.82 38.11 40.49ZM45.25 40.43C45.25 40.1 45.52 39.82 45.85 39.82C46.18 39.82 46.46 40.1 46.46 40.43C46.46 40.77 46.18 41.03 45.85 41.03C45.52 41.03 45.25 40.77 45.25 40.43ZM57.83 39.77C57.83 39.43 58.1 39.16 58.44 39.16C58.77 39.16 59.04 39.43 59.04 39.77C59.04 40.1 58.77 40.37 58.44 40.37C58.1 40.37 57.83 40.1 57.83 39.77ZM27.58 39.28C27.58 38.95 27.86 38.68 28.19 38.68C28.52 38.68 28.79 38.95 28.79 39.28C28.79 39.61 28.52 39.89 28.19 39.89C27.86 39.89 27.58 39.61 27.58 39.28ZM42.95 39.22C42.95 38.89 43.22 38.62 43.55 38.62C43.89 38.62 44.16 38.89 44.16 39.22C44.16 39.56 43.89 39.82 43.55 39.82C43.22 39.82 42.95 39.56 42.95 39.22ZM31.09 38.16C31.09 37.98 31.24 37.83 31.43 37.83C31.61 37.83 31.76 37.98 31.76 38.16C31.76 38.35 31.61 38.5 31.43 38.5C31.24 38.5 31.09 38.35 31.09 38.16ZM22.38 37.19C22.38 37.01 22.53 36.86 22.71 36.86C22.89 36.86 23.05 37.01 23.05 37.19C23.05 37.38 22.89 37.53 22.71 37.53C22.53 37.53 22.38 37.38 22.38 37.19ZM44.34 37.07C44.34 36.89 44.49 36.74 44.67 36.74C44.85 36.74 45 36.89 45 37.07C45 37.26 44.85 37.41 44.67 37.41C44.49 37.41 44.34 37.26 44.34 37.07ZM53.78 36.25C53.78 35.92 54.04 35.65 54.38 35.65C54.71 35.65 54.99 35.92 54.99 36.25C54.99 36.59 54.71 36.86 54.38 36.86C54.04 36.86 53.78 36.59 53.78 36.25ZM37.99 36.29C37.99 36.11 38.14 35.96 38.32 35.96C38.5 35.96 38.65 36.11 38.65 36.29C38.65 36.47 38.51 36.62 38.32 36.62C38.14 36.62 37.99 36.47 37.99 36.29ZM61.76 35.75C61.76 35.56 61.91 35.41 62.09 35.41C62.27 35.41 62.42 35.56 62.42 35.75C62.42 35.93 62.27 36.08 62.09 36.08C61.91 36.08 61.76 35.93 61.76 35.75ZM38.47 35.35C38.47 35.02 38.74 34.74 39.08 34.74C39.41 34.74 39.68 35.02 39.68 35.35C39.68 35.68 39.41 35.96 39.08 35.96C38.74 35.96 38.47 35.68 38.47 35.35ZM48.15 35.17C48.15 34.83 48.42 34.56 48.76 34.56C49.09 34.56 49.36 34.83 49.36 35.17C49.36 35.5 49.09 35.77 48.76 35.77C48.42 35.77 48.15 35.5 48.15 35.17ZM52.57 34.59C52.57 34.41 52.72 34.26 52.9 34.26C53.08 34.26 53.23 34.41 53.23 34.59C53.23 34.78 53.08 34.93 52.9 34.93C52.72 34.93 52.57 34.78 52.57 34.59ZM61.33 34.14C61.33 33.81 61.61 33.53 61.94 33.53C62.28 33.53 62.54 33.81 62.54 34.14C62.54 34.47 62.28 34.74 61.94 34.74C61.61 34.74 61.33 34.47 61.33 34.14ZM29.85 34.74C29.67 34.74 29.52 34.59 29.52 34.41C29.52 34.23 29.67 34.08 29.85 34.08C30.04 34.08 30.18 34.23 30.18 34.41C30.18 34.57 30.07 34.71 29.92 34.74L29.85 34.74ZM57.4 33.45C57.4 33.26 57.55 33.11 57.74 33.11C57.92 33.11 58.07 33.26 58.07 33.45C58.07 33.63 57.92 33.78 57.74 33.78C57.55 33.78 57.4 33.63 57.4 33.45ZM32.91 32.56C32.91 32.23 33.18 31.96 33.51 31.96C33.85 31.96 34.11 32.23 34.11 32.56C34.11 32.9 33.85 33.17 33.51 33.17C33.18 33.17 32.91 32.9 32.91 32.56ZM53.66 32.36C53.66 32.18 53.81 32.02 53.99 32.02C54.17 32.02 54.32 32.18 54.32 32.36C54.32 32.54 54.17 32.69 53.99 32.69C53.81 32.69 53.66 32.54 53.66 32.36ZM44.03 31.84C43.7 31.84 43.43 31.57 43.43 31.23C43.43 30.9 43.7 30.63 44.03 30.63C44.2 30.63 44.36 30.7 44.47 30.82C44.51 30.68 44.64 30.57 44.79 30.57C44.97 30.57 45.12 30.72 45.12 30.9C45.12 31.09 44.97 31.23 44.79 31.23C44.73 31.23 44.68 31.22 44.64 31.2C44.64 31.21 44.64 31.22 44.64 31.23C44.64 31.57 44.37 31.84 44.03 31.84ZM50.21 30.78C50.21 30.6 50.35 30.45 50.54 30.45C50.72 30.45 50.87 30.6 50.87 30.78C50.87 30.97 50.72 31.11 50.54 31.11C50.35 31.11 50.21 30.97 50.21 30.78ZM60.49 30.66C60.49 30.48 60.64 30.33 60.83 30.33C61.01 30.33 61.16 30.48 61.16 30.66C61.16 30.85 61.01 30.99 60.83 30.99C60.64 30.99 60.49 30.85 60.49 30.66ZM57.64 30.33C57.64 30 57.92 29.72 58.25 29.72C58.59 29.72 58.86 30 58.86 30.33C58.86 30.66 58.59 30.93 58.25 30.93C57.92 30.93 57.64 30.66 57.64 30.33ZM32.36 30.15C32.36 29.81 32.64 29.54 32.97 29.54C33.3 29.54 33.57 29.81 33.57 30.15C33.57 30.48 33.3 30.75 32.97 30.75C32.64 30.75 32.36 30.48 32.36 30.15ZM38.11 30.09C37.89 30.09 37.7 29.96 37.59 29.79C37.5 29.73 37.44 29.62 37.44 29.51C37.44 29.42 37.48 29.34 37.54 29.28C37.63 29.04 37.85 28.88 38.11 28.88C38.44 28.88 38.72 29.15 38.72 29.48C38.72 29.82 38.44 30.09 38.11 30.09L38.11 30.09ZM51.05 28.94C51.05 28.6 51.32 28.34 51.66 28.34C51.99 28.34 52.26 28.6 52.26 28.94C52.26 29.27 51.99 29.54 51.66 29.54C51.32 29.54 51.05 29.27 51.05 28.94ZM28.73 28.34C28.73 28 29 27.73 29.34 27.73C29.67 27.73 29.94 28 29.94 28.34C29.94 28.67 29.67 28.94 29.34 28.94C29 28.94 28.73 28.67 28.73 28.34ZM39.2 26.73C39.2 26.55 39.35 26.4 39.53 26.4C39.71 26.4 39.86 26.55 39.86 26.73C39.86 26.91 39.71 27.06 39.53 27.06C39.35 27.06 39.2 26.91 39.2 26.73ZM59.58 26.61C59.58 26.43 59.73 26.28 59.91 26.28C60.1 26.28 60.25 26.43 60.25 26.61C60.25 26.79 60.1 26.94 59.91 26.94C59.73 26.94 59.58 26.79 59.58 26.61ZM31.94 26.55C31.94 26.36 32.09 26.21 32.27 26.21C32.45 26.21 32.6 26.36 32.6 26.55C32.6 26.73 32.45 26.88 32.27 26.88C32.09 26.88 31.94 26.73 31.94 26.55ZM55.35 25.15C55.35 24.97 55.5 24.82 55.68 24.82C55.86 24.82 56.01 24.97 56.01 25.15C56.01 25.34 55.86 25.49 55.68 25.49C55.5 25.49 55.35 25.34 55.35 25.15ZM56.38 24.4C56.38 24.06 56.65 23.8 56.98 23.8C57.31 23.8 57.59 24.06 57.59 24.4C57.59 24.73 57.31 25.01 56.98 25.01C56.65 25.01 56.38 24.73 56.38 24.4ZM34.9 23.95C34.9 23.76 35.06 23.61 35.24 23.61C35.42 23.61 35.57 23.76 35.57 23.95C35.57 24.13 35.42 24.28 35.24 24.28C35.06 24.28 34.9 24.13 34.9 23.95ZM37.38 23.44C37.38 23.1 37.66 22.83 37.99 22.83C38.32 22.83 38.59 23.1 38.59 23.44C38.59 23.77 38.32 24.04 37.99 24.04C37.66 24.04 37.38 23.77 37.38 23.44ZM32.18 22.47C32.18 22.13 32.45 21.86 32.79 21.86C33.12 21.86 33.39 22.13 33.39 22.47C33.39 22.8 33.12 23.07 32.79 23.07C32.45 23.07 32.18 22.8 32.18 22.47ZM49.9 22.55C49.9 22.37 50.05 22.22 50.23 22.22C50.42 22.22 50.57 22.37 50.57 22.55C50.57 22.74 50.42 22.89 50.23 22.89C50.05 22.89 49.9 22.74 49.9 22.55ZM41.8 22.22C41.8 21.89 42.07 21.62 42.4 21.62C42.73 21.62 43.01 21.89 43.01 22.22C43.01 22.55 42.73 22.83 42.4 22.83C42.07 22.83 41.8 22.55 41.8 22.22ZM52.5 21.89C52.5 21.7 52.65 21.56 52.84 21.56C53.02 21.56 53.17 21.7 53.17 21.89C53.17 22.07 53.02 22.22 52.84 22.22C52.65 22.22 52.5 22.07 52.5 21.89ZM40.83 20.5C40.83 20.32 40.98 20.17 41.16 20.17C41.35 20.17 41.5 20.32 41.5 20.5C41.5 20.69 41.35 20.83 41.16 20.83C40.98 20.83 40.83 20.69 40.83 20.5ZM27.58 20.04C27.58 19.71 27.86 19.44 28.19 19.44C28.52 19.44 28.79 19.71 28.79 20.04C28.79 20.38 28.52 20.65 28.19 20.65C27.86 20.65 27.58 20.38 27.58 20.04ZM50.63 18.87C50.63 18.69 50.78 18.54 50.96 18.54C51.15 18.54 51.3 18.69 51.3 18.87C51.3 19.05 51.15 19.2 50.96 19.2C50.78 19.2 50.63 19.05 50.63 18.87ZM52.5 18.17C52.5 17.84 52.78 17.57 53.11 17.57C53.45 17.57 53.71 17.84 53.71 18.17C53.71 18.5 53.45 18.78 53.11 18.78C52.78 18.78 52.5 18.5 52.5 18.17ZM27.04 17.53C27.04 17.35 27.19 17.2 27.37 17.2C27.55 17.2 27.7 17.35 27.7 17.53C27.7 17.72 27.55 17.87 27.37 17.87C27.19 17.87 27.04 17.72 27.04 17.53ZM52.81 16.27C52.81 16.08 52.96 15.93 53.14 15.93C53.32 15.93 53.47 16.08 53.47 16.27C53.47 16.45 53.32 16.6 53.14 16.6C52.96 16.6 52.81 16.45 52.81 16.27ZM36.17 15.36C36.17 15.17 36.32 15.02 36.5 15.02C36.69 15.02 36.84 15.17 36.84 15.36C36.84 15.54 36.69 15.69 36.5 15.69C36.32 15.69 36.17 15.54 36.17 15.36ZM27.65 13.72C27.65 13.54 27.79 13.39 27.98 13.39C28.16 13.39 28.31 13.54 28.31 13.72C28.31 13.91 28.16 14.05 27.98 14.05C27.79 14.05 27.65 13.91 27.65 13.72ZM29.34 12.51C29.34 12.33 29.48 12.18 29.67 12.18C29.85 12.18 30 12.33 30 12.51C30 12.7 29.85 12.85 29.67 12.85C29.48 12.85 29.34 12.7 29.34 12.51Z" />
		<path id="Layer" fill-rule="evenodd" class="shp8" d="M43.02 19C43.03 19 43.04 19.02 43.04 19.02L43.61 22.88L43.58 23.99C43.67 24.58 43.42 25.12 43.15 25.23L43.45 25.28C47.89 26.04 49.52 29.72 49.84 31.02C50.17 32.32 50.02 33.65 49.94 33.38C49.87 33.11 49.37 32.38 49.48 32.73C49.6 33.07 49.71 33.61 49.94 33.92C50.17 34.22 50.06 34.26 49.94 34.57C49.83 34.87 49.65 34.84 49.79 35.33L50.05 35.89C50.21 35.82 50.32 35.73 50.39 35.57C50.45 35.45 50.5 35.42 50.54 35.4C50.47 35.48 50.37 35.64 50.4 35.69C50.46 35.59 50.59 35.54 50.66 35.5C50.58 35.55 50.5 35.66 50.49 35.66C50.43 35.75 50.53 35.82 50.66 35.77C50.8 35.71 50.5 35.91 50.4 35.93C50.31 35.96 50.25 36.09 50.37 36.09C50.5 36.09 50.53 36.05 50.64 36.11C50.75 36.18 50.47 36.09 50.32 36.13C50.27 36.14 50.22 36.14 50.17 36.14C50.34 36.45 50.49 36.59 50.84 36.84C51.41 37.25 52.31 38.01 52.74 38.39C53.17 38.76 53.98 39.33 54.07 39.8C54.15 40.26 53.93 40.74 53.47 41.09C53.01 41.45 52.28 41.69 52.17 41.88C52.06 42.07 51.84 42.42 51.93 43.04C52.01 43.67 52.06 43.8 52.06 44.07C52.06 44.34 51.6 44.64 51.63 44.75C51.66 44.86 52.06 45.05 52.09 45.35C52.12 45.64 51.98 46.05 51.84 46.13C51.71 46.21 51.47 46.35 51.44 46.92C51.41 47.48 51.52 47.64 51.79 48.35C52.06 49.05 52.04 49.84 51.55 50.49C51.06 51.14 50.3 51.25 49.79 51.3C49.27 51.35 45.84 51.46 45.32 51.79C44.81 52.11 43.72 53.66 42.72 55.12C41.72 56.58 39.53 60.1 39.47 60.48C39.42 60.86 39.85 61.26 40.42 62.75C40.99 64.24 42.45 66.73 43.34 68.22C44.24 69.71 50.82 79.75 50.82 81.81C50.82 83.87 37.28 82.35 31.43 72.93C25.58 63.51 19.84 66.76 20.28 64.92C20.71 63.08 23.2 60.37 23.74 59.72C24.28 59.07 24.94 58.31 25.48 58.53C26.02 58.74 26.88 55.82 28.18 54.52C29.48 53.22 30.24 53.01 30.67 52.25C31.11 51.49 31 51.71 30.35 51.49C29.7 51.27 29.48 50.41 29.27 49.76C29.05 49.11 29.05 47.81 26.99 46.94C24.94 46.08 23.2 42.72 23.53 38.6C23.85 34.49 25.26 30.7 26.24 30.05C27.21 29.4 26.99 28.42 28.51 27.88C28.95 27.73 29.18 27.61 29.35 27.5L29.18 27.53C28.88 27.58 28.42 27.13 28.32 26.5L27.93 25.39L27.58 23.19C27.58 23.19 27.58 23.17 27.6 23.17C27.62 23.16 27.67 23.19 27.79 23.45C27.94 23.74 28.34 24.43 28.6 24.87L31.06 24.47C31.06 24.47 31.05 24.19 31.04 23.84L30.7 23.89C30.62 23.9 30.53 23.86 30.48 23.8C30.43 23.73 30.42 23.64 30.45 23.56C30.48 23.49 30.56 23.43 30.64 23.42L31.03 23.37C31.03 22.86 31.05 22.35 31.16 22.34C31.26 22.32 31.44 22.8 31.61 23.3L31.95 23.25L31.96 23.25C32.09 23.24 32.2 23.33 32.22 23.46C32.23 23.59 32.13 23.7 32.01 23.72L31.74 23.75C31.84 24.07 31.91 24.33 31.91 24.33L35.12 23.8C35.12 23.8 35.11 23.52 35.11 23.17L34.75 23.21C34.66 23.22 34.57 23.19 34.52 23.12C34.46 23.04 34.45 22.95 34.48 22.86C34.52 22.78 34.6 22.72 34.69 22.72L35.11 22.67C35.13 22.11 35.17 21.55 35.32 21.52C35.46 21.5 35.7 22.03 35.9 22.57L36.29 22.52L36.31 22.52C36.44 22.51 36.56 22.61 36.57 22.75C36.58 22.88 36.48 23 36.35 23.01L36.07 23.05C36.18 23.37 36.26 23.62 36.26 23.62L39.39 23.1C39.39 23.1 39.37 22.81 39.36 22.45L38.95 22.5C38.87 22.51 38.78 22.48 38.73 22.41C38.68 22.34 38.67 22.26 38.7 22.18C38.74 22.1 38.81 22.05 38.89 22.04L39.35 21.98C39.35 21.48 39.38 21.01 39.48 20.99C39.58 20.98 39.75 21.43 39.91 21.9L40.2 21.87L40.21 21.87C40.34 21.85 40.46 21.95 40.47 22.08C40.48 22.21 40.39 22.32 40.26 22.33L40.05 22.36C40.15 22.7 40.23 22.96 40.23 22.96L42.81 22.54C42.92 22.03 42.87 19.64 42.91 19.33C42.95 19.05 42.99 19.01 43.02 19.01L43.02 19ZM50.58 35.35C50.57 35.37 50.56 35.39 50.54 35.4C50.57 35.36 50.59 35.34 50.58 35.35Z" />
		<path id="Layer" fill-rule="evenodd" class="shp9" d="M65.66 17.82L65.66 18.03L65.59 18.03C65.46 18.04 65.36 18.04 65.19 18.04C63.34 18.04 61.94 17.54 61.15 16.62L60.61 15.99C59.79 15.71 59.41 15.48 58.96 14.99C58.28 14.25 57.93 13.3 57.93 12.16C57.93 9.81 59.51 8.14 61.72 8.14C63.93 8.14 65.51 9.81 65.51 12.14C65.51 13.42 65.07 14.48 64.21 15.24C63.68 15.71 63.26 15.9 62.47 16.06C63.41 17.27 64.34 17.78 65.66 17.82M61.76 8.56C61.08 8.56 60.54 8.8 60.06 9.31C59.59 9.84 59.25 10.98 59.25 12.09C59.25 13.45 59.62 14.61 60.24 15.15C60.65 15.52 61.16 15.72 61.72 15.72C62.36 15.72 62.96 15.45 63.39 14.98C63.85 14.44 64.19 13.26 64.19 12.12C64.19 10.81 63.82 9.69 63.19 9.14C62.79 8.78 62.25 8.56 61.76 8.56L61.76 8.56Z" />
		<path id="Layer" class="shp10" d="M17.84 9.97C16.68 13.07 13.46 14.89 12.23 17.55C11.53 19.09 12.02 20.84 13.47 21.49C14.77 22.08 16.35 21.56 17.21 20.33C17.22 20.46 17.22 20.6 17.22 20.74C17.22 22.2 16.69 23.53 15.83 24.48L19.8 24.48C18.9 23.52 18.33 22.16 18.33 20.65C18.33 20.48 18.33 20.31 18.35 20.14C19.17 21.5 20.84 22.11 22.21 21.49C23.65 20.84 24.06 19.11 23.45 17.55C22.4 14.85 19.24 13.08 17.84 9.97L17.84 9.97Z" />
	</g>
</svg>